g bonus_ground_5_top
v 0.0025 0 0.015
v 0.0025 0 0.0125
v 0.005 8.788794E-27 0.01249997
v 0.005 8.788794E-27 0.01499997
v 0.005 8.788794E-27 -0.001874998
v 0.005 0 0
v 0.0025 0 0
v 0.0025 0 -0.001875
v 0.0025 0 -0.001875
v 0.0025 0 0
v 0 0 0
v 0 0 -0.001875
v 0 0 -0.001875
v 0 0 0
v -0.0025 0 0
v -0.0025 0 -0.001875
v -0.0025 0 -0.001875
v -0.0025 0 0
v -0.005 0 0
v -0.005 0 -0.001875
v -0.005 0 -0.001875
v -0.005 0 0
v -0.0075 0 0
v -0.00625 1.387779E-19 -0.001875
v -0.00625 0 -0.0025
v -0.0075 0 -0.0025
v -0.00625 0 -0.0025
v -0.0075 0 -0.0025
v -0.0075 0 -0.005
v -0.00625 0 -0.005
v -0.00625 0 -0.005
v -0.0075 0 -0.005
v -0.0075 0 -0.0075
v -0.00625 0 -0.0075
v -0.00625 0 -0.0075
v -0.0075 0 -0.0075
v -0.0075 0 -0.01
v -0.00625 0 -0.01
v -0.00625 0 -0.01
v -0.0075 0 -0.01
v -0.0075 0 -0.0125
v -0.00625 -7.45058E-11 -0.01125
v -0.005 0 -0.01125
v -0.004999999 0 -0.0125
v -0.005 0 -0.01125
v -0.004999999 0 -0.0125
v -0.002499999 0 -0.0125
v -0.0025 0 -0.01125
v -0.0025 0 -0.01125
v -0.002499999 0 -0.0125
v 5.960464E-10 0 -0.0125
v 2.980232E-10 0 -0.01125
v 2.980232E-10 0 -0.01125
v 5.960464E-10 0 -0.0125
v 0.002500001 0 -0.0125
v 0.0025 0 -0.01125
v 0.0025 0 -0.01125
v 0.002500001 0 -0.0125
v 0.005 0 -0.0125
v 0.005 0 -0.01125
v 0.005000001 0 -0.015
v 0.005 0 -0.0125
v 0.002500001 0 -0.0125
v 0.002500001 0 -0.015
v 0.002500001 0 -0.015
v 0.002500001 0 -0.0125
v 5.960464E-10 0 -0.0125
v 1.192093E-09 0 -0.015
v 1.192093E-09 0 -0.015
v 5.960464E-10 0 -0.0125
v -0.002499999 0 -0.0125
v -0.002499999 0 -0.015
v -0.002499999 0 -0.015
v -0.002499999 0 -0.0125
v -0.004999999 0 -0.0125
v -0.004999998 0 -0.015
v -0.004999998 0 -0.015
v -0.004999999 0 -0.0125
v -0.0075 0 -0.0125
v -0.0075 0 -0.015
v -0.01 0 -0.015
v -0.0075 0 -0.015
v -0.0075 0 -0.0125
v -0.01 0 -0.0125
v -0.01 0 -0.0125
v -0.0075 0 -0.0125
v -0.0075 0 -0.01
v -0.01 0 -0.01
v -0.01 0 -0.01
v -0.0075 0 -0.01
v -0.0075 0 -0.0075
v -0.01 0 -0.0075
v -0.01 0 -0.0075
v -0.0075 0 -0.0075
v -0.0075 0 -0.005
v -0.01 0 -0.005
v -0.01 0 -0.005
v -0.0075 0 -0.005
v -0.0075 0 -0.0025
v -0.01 0 -0.0025
v -0.01 0 -0.0025
v -0.0075 0 -0.0025
v -0.0075 0 0
v -0.01 0 0
v -0.01 0 0
v -0.0075 0 0
v -0.0075 0 0.001875
v -0.01 0 0.001875
v -0.0075 0 0.001875
v -0.0075 0 0
v -0.005 0 0
v -0.005 0 0.001875
v -0.005 0 0.001875
v -0.005 0 0
v -0.0025 0 0
v -0.0025 0 0.001875
v -0.0025 0 0.001875
v -0.0025 0 0
v 0 0 0
v 0 0 0.001875
v 0 0 0.001875
v 0 0 0
v 0.0025 0 0
v 0.0025 0 0.001875
v 0.0025 0 0.001875
v 0.0025 0 0
v 0.005 0 0
v 0.005 2.067951E-27 0.001875001
v 0.005 8.788794E-27 0.01125
v 0.005 8.788794E-27 0.01249997
v 0.0025 0 0.0125
v 0.0025 0 0.01125
v 0.0025 0 0.01125
v 0.0025 0 0.0125
v 0 0 0.0125
v 0 0 0.01125
v 0 0 0.01125
v 0 0 0.0125
v -0.0025 0 0.0125
v -0.0025 0 0.01125
v -0.0025 0 0.01125
v -0.0025 0 0.0125
v -0.005 0 0.0125
v -0.005 0 0.01125
v -0.005 0 0.01125
v -0.005 0 0.0125
v -0.0075 0 0.0125
v -0.0075 0 0.01125
v -0.01 0 0.01125
v -0.0075 0 0.01125
v -0.0075 0 0.0125
v -0.01 0 0.0125
v -0.01 0 0.015
v -0.01 0 0.0125
v -0.0075 0 0.0125
v -0.0075 0 0.015
v -0.0075 0 0.015
v -0.0075 0 0.0125
v -0.005 0 0.0125
v -0.005 0 0.015
v -0.005 0 0.015
v -0.005 0 0.0125
v -0.0025 0 0.0125
v -0.0025 0 0.015
v -0.0025 0 0.015
v -0.0025 0 0.0125
v 0 0 0.0125
v 0 0 0.015
v 0 0 0.015
v 0 0 0.0125
v 0.0025 0 0.0125
v 0.0025 0 0.015
v -0.01025002 0 0.0125
v -0.0105 -0.0002499751 0.0155
v -0.0105 -0.0002499751 0.0125
v -0.01025002 0 0.01525002
v -0.01 0 0.015
v -0.01 0 0.0125
v -0.0105 -0.0002499751 0.0125
v -0.0105 -0.0002499751 0.01075
v -0.01025002 0 0.01099997
v -0.01025002 0 0.0125
v -0.01 0 0.0125
v -0.01 0 0.01125
v -0.0105 -0.0002499751 0.01075
v -0.0075 -0.0002499751 0.01075
v -0.0075 0 0.01099997
v -0.01025002 0 0.01099997
v -0.01 0 0.01125
v -0.0075 0 0.01125
v -0.01025002 0 0.01525002
v -0.0075 -0.0002499751 0.0155
v -0.0105 -0.0002499751 0.0155
v -0.0075 0 0.01525002
v -0.0075 0 0.015
v -0.01 0 0.015
v -0.0025 0 0.01099997
v -0.005 -0.0002499751 0.01075
v -0.0025 -0.0002499751 0.01075
v -0.005 0 0.01099997
v -0.005 0 0.01125
v -0.0025 0 0.01125
v -0.0025 -0.0002499751 0.01075
v 0 -0.0002499751 0.01075
v 0 0 0.01099997
v -0.0025 0 0.01099997
v -0.0025 0 0.01125
v 0 0 0.01125
v 0 -0.0002499751 0.01075
v 0.0025 -0.0002499751 0.01075
v 0.0025 0 0.01099997
v 0 0 0.01099997
v 0 0 0.01125
v 0.0025 0 0.01125
v 0.0025 -0.0002499751 0.01075
v 0.005 -0.0002499751 0.01075
v 0.005 -5.869007E-20 0.01099998
v 0.0025 0 0.01099997
v 0.0025 0 0.01125
v 0.005 8.788794E-27 0.01125
v -0.0075 -0.0002499751 0.01075
v -0.005 -0.0002499751 0.01075
v -0.005 0 0.01099997
v -0.0075 0 0.01099997
v -0.0075 0 0.01125
v -0.005 0 0.01125
v 0.005 -0.0002499751 0.002374999
v 0.0025 -0.0002499751 0.002375
v 0.0025 0 0.002125025
v 0.005 -2.152605E-11 0.002125025
v 0.005 2.067951E-27 0.001875001
v 0.0025 0 0.001875
v 0.0025 -0.0002499751 0.002375
v 0 -0.0002499751 0.002375
v 0 0 0.002125025
v 0.0025 0 0.002125025
v 0.0025 0 0.001875
v 0 0 0.001875
v 0 -0.0002499751 0.002375
v -0.0025 -0.0002499751 0.002375
v -0.0025 0 0.002125025
v 0 0 0.002125025
v 0 0 0.001875
v -0.0025 0 0.001875
v -0.0025 -0.0002499751 0.002375
v -0.005 -0.0002499751 0.002375
v -0.005 0 0.002125025
v -0.0025 0 0.002125025
v -0.0025 0 0.001875
v -0.005 0 0.001875
v -0.005 -0.0002499751 0.002375
v -0.0075 -0.0002499751 0.002375
v -0.0075 0 0.002125025
v -0.005 0 0.002125025
v -0.005 0 0.001875
v -0.0075 0 0.001875
v -0.0075 -0.0002499751 0.002375
v -0.0105 -0.0002499751 0.002375
v -0.01025002 0 0.002125025
v -0.0075 0 0.002125025
v -0.0075 0 0.001875
v -0.01 0 0.001875
v -0.0105 -0.0002499751 0.002375
v -0.0105 -0.0002499751 0
v -0.01025002 0 0
v -0.01025002 0 0.002125025
v -0.01 0 0.001875
v -0.01 0 0
v -0.0105 -0.0002499751 0
v -0.0105 -0.0002499751 -0.0025
v -0.01025002 0 -0.0025
v -0.01025002 0 0
v -0.01 0 0
v -0.01 0 -0.0025
v -0.0105 -0.0002499751 -0.0025
v -0.0105 -0.0002499751 -0.005
v -0.01025002 0 -0.005
v -0.01025002 0 -0.0025
v -0.01 0 -0.0025
v -0.01 0 -0.005
v -0.0105 -0.0002499751 -0.005
v -0.0105 -0.0002499751 -0.0075
v -0.01025002 0 -0.0075
v -0.01025002 0 -0.005
v -0.01 0 -0.005
v -0.01 0 -0.0075
v -0.0105 -0.0002499751 -0.0075
v -0.0105 -0.0002499751 -0.01
v -0.01025002 0 -0.01
v -0.01025002 0 -0.0075
v -0.01 0 -0.0075
v -0.01 0 -0.01
v -0.0105 -0.0002499751 -0.01
v -0.0105 -0.0002499751 -0.0125
v -0.01025002 0 -0.0125
v -0.01025002 0 -0.01
v -0.01 0 -0.01
v -0.01 0 -0.0125
v -0.0105 -0.0002499751 -0.0125
v -0.0105 -0.0002499751 -0.0155
v -0.01025002 0 -0.01525002
v -0.01025002 0 -0.0125
v -0.01 0 -0.0125
v -0.01 0 -0.015
v -0.0105 -0.0002499751 -0.0155
v -0.0075 -0.0002499751 -0.0155
v -0.0075 0 -0.01525002
v -0.01025002 0 -0.01525002
v -0.01 0 -0.015
v -0.0075 0 -0.015
v -0.0075 -0.0002499751 -0.0155
v -0.004999998 -0.0002499751 -0.0155
v -0.004999998 0 -0.01525002
v -0.0075 0 -0.01525002
v -0.0075 0 -0.015
v -0.004999998 0 -0.015
v -0.004999998 -0.0002499751 -0.0155
v -0.002499999 -0.0002499751 -0.0155
v -0.002499999 0 -0.01525002
v -0.004999998 0 -0.01525002
v -0.004999998 0 -0.015
v -0.002499999 0 -0.015
v -0.002499999 -0.0002499751 -0.0155
v 1.192093E-09 -0.0002499751 -0.0155
v 1.192093E-09 0 -0.01525002
v -0.002499999 0 -0.01525002
v -0.002499999 0 -0.015
v 1.192093E-09 0 -0.015
v 1.192093E-09 -0.0002499751 -0.0155
v 0.002500001 -0.0002499751 -0.0155
v 0.002500001 0 -0.01525002
v 1.192093E-09 0 -0.01525002
v 1.192093E-09 0 -0.015
v 0.002500001 0 -0.015
v 0.002500001 -0.0002499751 -0.0155
v 0.005000001 -0.0002499751 -0.0155
v 0.005000001 1.43352E-19 -0.01525002
v 0.002500001 0 -0.01525002
v 0.002500001 0 -0.015
v 0.005000001 0 -0.015
v 0.005 -0.0002499751 -0.01075
v 0.0025 -0.0002499751 -0.01075
v 0.0025 0 -0.01099997
v 0.005 -2.567391E-19 -0.01099997
v 0.005 0 -0.01125
v 0.0025 0 -0.01125
v 0.0025 -0.0002499751 -0.01075
v 2.980232E-10 -0.0002499751 -0.01075
v 2.980232E-10 0 -0.01099997
v 0.0025 0 -0.01099997
v 0.0025 0 -0.01125
v 2.980232E-10 0 -0.01125
v 2.980232E-10 -0.0002499751 -0.01075
v -0.0025 -0.0002499751 -0.01075
v -0.0025 0 -0.01099997
v 2.980232E-10 0 -0.01099997
v 2.980232E-10 0 -0.01125
v -0.0025 0 -0.01125
v -0.0025 -0.0002499751 -0.01075
v -0.005 -0.0002499751 -0.01075
v -0.005 -4.967545E-12 -0.01099997
v -0.0025 0 -0.01099997
v -0.0025 0 -0.01125
v -0.005 0 -0.01125
v -0.005 -0.0002499751 -0.01075
v -0.00575 -0.0002499751 -0.01075
v -0.005999975 -9.437598E-11 -0.01099997
v -0.005 -4.967545E-12 -0.01099997
v -0.005 0 -0.01125
v -0.00625 -7.45058E-11 -0.01125
v -0.00575 -0.0002499751 -0.01075
v -0.00575 -0.0002499751 -0.01
v -0.005999975 -4.967545E-12 -0.01
v -0.005999975 -9.437598E-11 -0.01099997
v -0.00625 -7.45058E-11 -0.01125
v -0.00625 0 -0.01
v -0.00575 -0.0002499751 -0.01
v -0.00575 -0.0002499751 -0.0075
v -0.005999975 0 -0.0075
v -0.005999975 -4.967545E-12 -0.01
v -0.00625 0 -0.01
v -0.00625 0 -0.0075
v -0.00575 -0.0002499751 -0.0075
v -0.00575 -0.0002499751 -0.005
v -0.005999975 0 -0.005
v -0.005999975 0 -0.0075
v -0.00625 0 -0.0075
v -0.00625 0 -0.005
v -0.00575 -0.0002499751 -0.005
v -0.00575 -0.0002499751 -0.0025
v -0.005999975 1.110333E-20 -0.0025
v -0.005999975 0 -0.005
v -0.00625 0 -0.005
v -0.00625 0 -0.0025
v -0.00575 -0.0002499751 -0.0025
v -0.00575 -0.0002499751 -0.002375
v -0.005999975 1.733212E-19 -0.002125025
v -0.005999975 1.110333E-20 -0.0025
v -0.00625 0 -0.0025
v -0.00625 1.387779E-19 -0.001875
v -0.00575 -0.0002499751 -0.002375
v -0.005 -0.0002499751 -0.002375
v -0.005 6.16852E-21 -0.002125025
v -0.005999975 1.733212E-19 -0.002125025
v -0.00625 1.387779E-19 -0.001875
v -0.005 0 -0.001875
v -0.0025 0 -0.002125025
v -0.005 -0.0002499751 -0.002375
v -0.0025 -0.0002499751 -0.002375
v -0.005 6.16852E-21 -0.002125025
v -0.005 0 -0.001875
v -0.0025 0 -0.001875
v -0.0025 -0.0002499751 -0.002375
v 0 -0.0002499751 -0.002375
v 0 0 -0.002125025
v -0.0025 0 -0.002125025
v -0.0025 0 -0.001875
v 0 0 -0.001875
v 0 -0.0002499751 -0.002375
v 0.0025 -0.0002499751 -0.002375
v 0.0025 0 -0.002125025
v 0 0 -0.002125025
v 0 0 -0.001875
v 0.0025 0 -0.001875
v 0.0025 -0.0002499751 -0.002375
v 0.005 -0.0002499751 -0.002374995
v 0.005 3.122462E-20 -0.002125029
v 0.0025 0 -0.002125025
v 0.0025 0 -0.001875
v 0.005 8.788794E-27 -0.001874998
v -0.0075 0 0.01525002
v -0.005 -0.0002499751 0.0155
v -0.0075 -0.0002499751 0.0155
v -0.005 0 0.01525002
v -0.005 0 0.015
v -0.0075 0 0.015
v 0.005 -0.0002499751 0.01549997
v 0.0025 -0.0002499751 0.0155
v 0.0025 0 0.01525002
v 0.005 -3.012035E-20 0.01525
v 0.005 8.788794E-27 0.01499997
v 0.0025 0 0.015
v 0.0025 -0.0002499751 0.0155
v 0 -0.0002499751 0.0155
v 0 0 0.01525002
v 0.0025 0 0.01525002
v 0.0025 0 0.015
v 0 0 0.015
v 0 -0.0002499751 0.0155
v -0.0025 -0.0002499751 0.0155
v -0.0025 0 0.01525002
v 0 0 0.01525002
v 0 0 0.015
v -0.0025 0 0.015
v -0.0025 -0.0002499751 0.0155
v -0.005 -0.0002499751 0.0155
v -0.005 0 0.01525002
v -0.0025 0 0.01525002
v -0.0025 0 0.015
v -0.005 0 0.015
v -0.0105 -0.0002499751 0.0125
v -0.0105 -0.0005 0.0125
v -0.0105 -0.0005 0.01075
v -0.0105 -0.0002499751 0.01075
v -0.0105 -0.0002499751 0.0155
v -0.0105 -0.0005 0.0155
v -0.0105 -0.0005 0.0125
v -0.0105 -0.0002499751 0.0125
v -0.0025 -0.0002499751 0.01075
v -0.0025 -0.0005 0.01075
v 0 -0.0005 0.01075
v 0 -0.0002499751 0.01075
v 0 -0.0002499751 0.01075
v 0 -0.0005 0.01075
v 0.0025 -0.0005 0.01075
v 0.0025 -0.0002499751 0.01075
v 0.0025 -0.0002499751 0.01075
v 0.0025 -0.0005 0.01075
v 0.005 -0.0005 0.01075
v 0.005 -0.0002499751 0.01075
v -0.0105 -0.0002499751 0.01075
v -0.0105 -0.0005 0.01075
v -0.0075 -0.0005 0.01075
v -0.0075 -0.0002499751 0.01075
v -0.0075 -0.0002499751 0.01075
v -0.0075 -0.0005 0.01075
v -0.005 -0.0005 0.01075
v -0.005 -0.0002499751 0.01075
v -0.005 -0.0002499751 0.01075
v -0.005 -0.0005 0.01075
v -0.0025 -0.0005 0.01075
v -0.0025 -0.0002499751 0.01075
v 0.005 -0.0002499751 0.002374999
v 0.005 -0.0005 0.002374999
v 0.0025 -0.0005 0.002375
v 0.0025 -0.0002499751 0.002375
v 0.0025 -0.0002499751 0.002375
v 0.0025 -0.0005 0.002375
v 0 -0.0005 0.002375
v 0 -0.0002499751 0.002375
v 0 -0.0002499751 0.002375
v 0 -0.0005 0.002375
v -0.0025 -0.0005 0.002375
v -0.0025 -0.0002499751 0.002375
v -0.0025 -0.0002499751 0.002375
v -0.0025 -0.0005 0.002375
v -0.005 -0.0005 0.002375
v -0.005 -0.0002499751 0.002375
v -0.005 -0.0002499751 0.002375
v -0.005 -0.0005 0.002375
v -0.0075 -0.0005 0.002375
v -0.0075 -0.0002499751 0.002375
v -0.0075 -0.0002499751 0.002375
v -0.0075 -0.0005 0.002375
v -0.0105 -0.0005 0.002375
v -0.0105 -0.0002499751 0.002375
v -0.0105 -0.0002499751 0.002375
v -0.0105 -0.0005 0.002375
v -0.0105 -0.0005 0
v -0.0105 -0.0002499751 0
v -0.0105 -0.0002499751 0
v -0.0105 -0.0005 0
v -0.0105 -0.0005 -0.0025
v -0.0105 -0.0002499751 -0.0025
v -0.0105 -0.0002499751 -0.0025
v -0.0105 -0.0005 -0.0025
v -0.0105 -0.0005 -0.005
v -0.0105 -0.0002499751 -0.005
v -0.0105 -0.0002499751 -0.005
v -0.0105 -0.0005 -0.005
v -0.0105 -0.0005 -0.0075
v -0.0105 -0.0002499751 -0.0075
v -0.0105 -0.0002499751 -0.0075
v -0.0105 -0.0005 -0.0075
v -0.0105 -0.0005 -0.01
v -0.0105 -0.0002499751 -0.01
v -0.0105 -0.0002499751 -0.01
v -0.0105 -0.0005 -0.01
v -0.0105 -0.0005 -0.0125
v -0.0105 -0.0002499751 -0.0125
v -0.0105 -0.0002499751 -0.0125
v -0.0105 -0.0005 -0.0125
v -0.0105 -0.0005 -0.0155
v -0.0105 -0.0002499751 -0.0155
v -0.0075 -0.0002499751 -0.0155
v -0.0075 -0.0005 -0.0155
v -0.004999998 -0.0005 -0.0155
v -0.004999998 -0.0002499751 -0.0155
v -0.004999998 -0.0002499751 -0.0155
v -0.004999998 -0.0005 -0.0155
v -0.002499999 -0.0005 -0.0155
v -0.002499999 -0.0002499751 -0.0155
v -0.002499999 -0.0002499751 -0.0155
v -0.002499999 -0.0005 -0.0155
v 1.192093E-09 -0.0005 -0.0155
v 1.192093E-09 -0.0002499751 -0.0155
v 1.192093E-09 -0.0002499751 -0.0155
v 1.192093E-09 -0.0005 -0.0155
v 0.002500001 -0.0005 -0.0155
v 0.002500001 -0.0002499751 -0.0155
v 0.002500001 -0.0002499751 -0.0155
v 0.002500001 -0.0005 -0.0155
v 0.005000001 -0.0005 -0.0155
v 0.005000001 -0.0002499751 -0.0155
v -0.0105 -0.0002499751 -0.0155
v -0.0105 -0.0005 -0.0155
v -0.0075 -0.0005 -0.0155
v -0.0075 -0.0002499751 -0.0155
v 0.005 -0.0002499751 -0.01075
v 0.005 -0.0005 -0.01075
v 0.0025 -0.0005 -0.01075
v 0.0025 -0.0002499751 -0.01075
v 0.0025 -0.0002499751 -0.01075
v 0.0025 -0.0005 -0.01075
v 2.980232E-10 -0.0005 -0.01075
v 2.980232E-10 -0.0002499751 -0.01075
v 2.980232E-10 -0.0002499751 -0.01075
v 2.980232E-10 -0.0005 -0.01075
v -0.0025 -0.0005 -0.01075
v -0.0025 -0.0002499751 -0.01075
v -0.0025 -0.0002499751 -0.01075
v -0.0025 -0.0005 -0.01075
v -0.005 -0.0005 -0.01075
v -0.005 -0.0002499751 -0.01075
v -0.005 -0.0002499751 -0.01075
v -0.005 -0.0005 -0.01075
v -0.00575 -0.0005000001 -0.01075
v -0.00575 -0.0002499751 -0.01075
v -0.00575 -0.0002499751 -0.01075
v -0.00575 -0.0005000001 -0.01075
v -0.00575 -0.0005 -0.01
v -0.00575 -0.0002499751 -0.01
v -0.00575 -0.0002499751 -0.01
v -0.00575 -0.0005 -0.01
v -0.00575 -0.0005 -0.0075
v -0.00575 -0.0002499751 -0.0075
v -0.00575 -0.0002499751 -0.0075
v -0.00575 -0.0005 -0.0075
v -0.00575 -0.0005 -0.005
v -0.00575 -0.0002499751 -0.005
v -0.00575 -0.0002499751 -0.005
v -0.00575 -0.0005 -0.005
v -0.00575 -0.0005 -0.0025
v -0.00575 -0.0002499751 -0.0025
v -0.00575 -0.0002499751 -0.0025
v -0.00575 -0.0005 -0.0025
v -0.00575 -0.0005 -0.002375
v -0.00575 -0.0002499751 -0.002375
v -0.0025 -0.0002499751 -0.002375
v -0.0025 -0.0005 -0.002375
v 0 -0.0005 -0.002375
v 0 -0.0002499751 -0.002375
v 0 -0.0002499751 -0.002375
v 0 -0.0005 -0.002375
v 0.0025 -0.0005 -0.002375
v 0.0025 -0.0002499751 -0.002375
v 0.0025 -0.0002499751 -0.002375
v 0.0025 -0.0005 -0.002375
v 0.005 -0.0005 -0.002374995
v 0.005 -0.0002499751 -0.002374995
v -0.00575 -0.0002499751 -0.002375
v -0.00575 -0.0005 -0.002375
v -0.005 -0.0005 -0.002375
v -0.005 -0.0002499751 -0.002375
v -0.005 -0.0002499751 -0.002375
v -0.005 -0.0005 -0.002375
v -0.0025 -0.0005 -0.002375
v -0.0025 -0.0002499751 -0.002375
v -0.0075 -0.0002499751 0.0155
v -0.0075 -0.0005 0.0155
v -0.0105 -0.0005 0.0155
v -0.0105 -0.0002499751 0.0155
v 0.005 -0.0002499751 0.01549997
v 0.005 -0.0005 0.01549997
v 0.0025 -0.0005 0.0155
v 0.0025 -0.0002499751 0.0155
v 0.0025 -0.0002499751 0.0155
v 0.0025 -0.0005 0.0155
v 0 -0.0005 0.0155
v 0 -0.0002499751 0.0155
v 0 -0.0002499751 0.0155
v 0 -0.0005 0.0155
v -0.0025 -0.0005 0.0155
v -0.0025 -0.0002499751 0.0155
v -0.0025 -0.0002499751 0.0155
v -0.0025 -0.0005 0.0155
v -0.005 -0.0005 0.0155
v -0.005 -0.0002499751 0.0155
v -0.005 -0.0002499751 0.0155
v -0.005 -0.0005 0.0155
v -0.0075 -0.0005 0.0155
v -0.0075 -0.0002499751 0.0155
v 0.005 8.788794E-27 0.01499997
v 0.005 8.788794E-27 0.01249997
v 0.0075 1.757759E-26 0.01249995
v 0.0075 1.757759E-26 0.01499995
v 0.0075 1.757759E-26 0.01499995
v 0.0075 1.757759E-26 0.01249995
v 0.01 1.757759E-26 0.01249995
v 0.01 1.757759E-26 0.01499995
v 0.01 1.757759E-26 0.01249995
v 0.0075 1.757759E-26 0.01249995
v 0.0075 1.757759E-26 0.01
v 0.01 1.757759E-26 0.01
v 0.01 1.757759E-26 0.01
v 0.0075 1.757759E-26 0.01
v 0.0075 1.757759E-26 0.007500006
v 0.01 1.757759E-26 0.007500006
v 0.01 1.757759E-26 0.007500006
v 0.0075 1.757759E-26 0.007500006
v 0.0075 1.757759E-26 0.005000006
v 0.01 1.757759E-26 0.005000006
v 0.01 1.757759E-26 0.005000006
v 0.0075 1.757759E-26 0.005000006
v 0.0075 9.30578E-27 0.002500004
v 0.01 1.757759E-26 0.002500004
v 0.01 1.757759E-26 0.002500004
v 0.0075 9.30578E-27 0.002500004
v 0.0075 5.583469E-27 -2.111901E-22
v 0.01 1.757759E-26 5.142117E-21
v 0.01 1.757759E-26 5.142117E-21
v 0.0075 5.583469E-27 -2.111901E-22
v 0.0075 1.757759E-26 -0.001874997
v 0.01 1.757759E-26 -0.001874997
v 0.0075 1.757759E-26 -0.001874997
v 0.0075 5.583469E-27 -2.111901E-22
v 0.005 0 0
v 0.005 8.788794E-27 -0.001874998
v 0.005 2.067951E-27 0.001875001
v 0.005 0 0
v 0.0075 5.583469E-27 -2.111901E-22
v 0.00625 -7.45058E-11 0.001875003
v 0.00625 9.926167E-26 0.002500004
v 0.0075 9.30578E-27 0.002500004
v 0.00625 9.926167E-26 0.002500004
v 0.0075 9.30578E-27 0.002500004
v 0.0075 1.757759E-26 0.005000006
v 0.00625 4.549493E-26 0.005000006
v 0.00625 4.549493E-26 0.005000006
v 0.0075 1.757759E-26 0.005000006
v 0.0075 1.757759E-26 0.007500006
v 0.00625 1.757759E-26 0.007500006
v 0.00625 1.757759E-26 0.007500006
v 0.0075 1.757759E-26 0.007500006
v 0.0075 1.757759E-26 0.01
v 0.00625 1.757759E-26 0.01
v 0.00625 1.804112E-18 0.01125
v 0.00625 1.757759E-26 0.01
v 0.0075 1.757759E-26 0.01
v 0.0075 1.757759E-26 0.01249995
v 0.005 8.788794E-27 0.01249997
v 0.005 8.788794E-27 0.01125
v 0.005 -0.0002499751 0.01075
v 0.00575 -0.0002499751 0.01075001
v 0.005999975 2.354602E-18 0.01099998
v 0.005 -5.869007E-20 0.01099998
v 0.005 8.788794E-27 0.01125
v 0.00625 1.804112E-18 0.01125
v 0.00575 -0.0002499751 0.01075001
v 0.00575 -0.0002499751 0.01
v 0.005999975 -5.666636E-20 0.01
v 0.005999975 2.354602E-18 0.01099998
v 0.00625 1.804112E-18 0.01125
v 0.00625 1.757759E-26 0.01
v 0.00575 -0.0002499751 0.01
v 0.00575 -0.0002499751 0.007500006
v 0.005999975 -1.752064E-19 0.007500006
v 0.005999975 -5.666636E-20 0.01
v 0.00625 1.757759E-26 0.01
v 0.00625 1.757759E-26 0.007500006
v 0.00575 -0.0002499751 0.007500006
v 0.00575 -0.0002499751 0.005000006
v 0.005999975 -2.428612E-19 0.005000006
v 0.005999975 -1.752064E-19 0.007500006
v 0.00625 1.757759E-26 0.007500006
v 0.00625 4.549493E-26 0.005000006
v 0.00575 -0.0002499751 0.005000006
v 0.00575 -0.0002499751 0.002500004
v 0.005999975 -7.74937E-11 0.002500004
v 0.005999975 -2.428612E-19 0.005000006
v 0.00625 4.549493E-26 0.005000006
v 0.00625 9.926167E-26 0.002500004
v 0.00575 -0.0002499751 0.002500004
v 0.00575 -0.0002499751 0.002374999
v 0.005999975 -1.665835E-10 0.002125022
v 0.005999975 -7.74937E-11 0.002500004
v 0.00625 9.926167E-26 0.002500004
v 0.00625 -7.45058E-11 0.001875003
v 0.00575 -0.0002499751 0.002374999
v 0.005 -0.0002499751 0.002374999
v 0.005 -2.152605E-11 0.002125025
v 0.005999975 -1.665835E-10 0.002125022
v 0.00625 -7.45058E-11 0.001875003
v 0.005 2.067951E-27 0.001875001
v 0.005 -0.0002499751 -0.002374995
v 0.0075 -0.0002499751 -0.002374991
v 0.0075 1.994811E-20 -0.002125034
v 0.005 3.122462E-20 -0.002125029
v 0.005 8.788794E-27 -0.001874998
v 0.0075 1.757759E-26 -0.001874997
v 0.0075 -0.0002499751 -0.002374991
v 0.0105 -0.0002499751 -0.002374991
v 0.01025002 -1.80412E-19 -0.002125034
v 0.0075 1.994811E-20 -0.002125034
v 0.0075 1.757759E-26 -0.001874997
v 0.01 1.757759E-26 -0.001874997
v 0.0105 -0.0002499751 -0.002374991
v 0.0105 -0.0002499751 -2.893914E-20
v 0.01025002 -7.01696E-19 -2.955239E-20
v 0.01025002 -1.80412E-19 -0.002125034
v 0.01 1.757759E-26 -0.001874997
v 0.01 1.757759E-26 5.142117E-21
v 0.0105 -0.0002499751 -2.893914E-20
v 0.0105 -0.0002499751 0.002500004
v 0.01025002 -5.074066E-19 0.002500004
v 0.01025002 -7.01696E-19 -2.955239E-20
v 0.01 1.757759E-26 5.142117E-21
v 0.01 1.757759E-26 0.002500004
v 0.0105 -0.0002499751 0.002500004
v 0.0105 -0.0002499751 0.005000006
v 0.01025002 -3.469445E-20 0.005000006
v 0.01025002 -5.074066E-19 0.002500004
v 0.01 1.757759E-26 0.002500004
v 0.01 1.757759E-26 0.005000006
v 0.0105 -0.0002499751 0.005000006
v 0.0105 -0.0002499751 0.007500006
v 0.01025002 -1.543911E-19 0.007500006
v 0.01025002 -3.469445E-20 0.005000006
v 0.01 1.757759E-26 0.005000006
v 0.01 1.757759E-26 0.007500006
v 0.0105 -0.0002499751 0.007500006
v 0.0105 -0.0002499751 0.01
v 0.01025002 3.903129E-20 0.01
v 0.01025002 -1.543911E-19 0.007500006
v 0.01 1.757759E-26 0.007500006
v 0.01 1.757759E-26 0.01
v 0.0105 -0.0002499751 0.01
v 0.0105 -0.0002499751 0.01249995
v 0.01025002 3.009756E-19 0.01249995
v 0.01025002 3.903129E-20 0.01
v 0.01 1.757759E-26 0.01
v 0.01 1.757759E-26 0.01249995
v 0.0105 -0.0002499751 0.01249995
v 0.0105 -0.0002499751 0.01549995
v 0.01025002 1.508623E-19 0.01524997
v 0.01025002 3.009756E-19 0.01249995
v 0.01 1.757759E-26 0.01249995
v 0.01 1.757759E-26 0.01499995
v 0.0105 -0.0002499751 0.01549995
v 0.0075 -0.0002499751 0.01549995
v 0.0075 3.989821E-20 0.01524997
v 0.01025002 1.508623E-19 0.01524997
v 0.01 1.757759E-26 0.01499995
v 0.0075 1.757759E-26 0.01499995
v 0.0075 -0.0002499751 0.01549995
v 0.005 -0.0002499751 0.01549997
v 0.005 -3.012035E-20 0.01525
v 0.0075 3.989821E-20 0.01524997
v 0.0075 1.757759E-26 0.01499995
v 0.005 8.788794E-27 0.01499997
v 0.005 -0.0002499751 0.01075
v 0.005 -0.0005 0.01075
v 0.00575 -0.0005 0.01075001
v 0.00575 -0.0002499751 0.01075001
v 0.00575 -0.0002499751 0.01
v 0.00575 -0.0005 0.01
v 0.00575 -0.0005 0.007500006
v 0.00575 -0.0002499751 0.007500006
v 0.00575 -0.0002499751 0.007500006
v 0.00575 -0.0005 0.007500006
v 0.00575 -0.0005 0.005000006
v 0.00575 -0.0002499751 0.005000006
v 0.00575 -0.0002499751 0.005000006
v 0.00575 -0.0005 0.005000006
v 0.00575 -0.0005 0.002500004
v 0.00575 -0.0002499751 0.002500004
v 0.00575 -0.0002499751 0.002500004
v 0.00575 -0.0005 0.002500004
v 0.00575 -0.0005000001 0.002374999
v 0.00575 -0.0002499751 0.002374999
v 0.00575 -0.0002499751 0.01075001
v 0.00575 -0.0005 0.01075001
v 0.00575 -0.0005 0.01
v 0.00575 -0.0002499751 0.01
v 0.00575 -0.0002499751 0.002374999
v 0.00575 -0.0005000001 0.002374999
v 0.005 -0.0005 0.002374999
v 0.005 -0.0002499751 0.002374999
v 0.005 -0.0002499751 -0.002374995
v 0.005 -0.0005 -0.002374995
v 0.0075 -0.0005 -0.002374991
v 0.0075 -0.0002499751 -0.002374991
v 0.0075 -0.0002499751 -0.002374991
v 0.0075 -0.0005 -0.002374991
v 0.0105 -0.0005 -0.002374991
v 0.0105 -0.0002499751 -0.002374991
v 0.0105 -0.0002499751 -0.002374991
v 0.0105 -0.0005 -0.002374991
v 0.0105 -0.0005 5.142117E-21
v 0.0105 -0.0002499751 -2.893914E-20
v 0.0105 -0.0002499751 -2.893914E-20
v 0.0105 -0.0005 5.142117E-21
v 0.0105 -0.0005 0.002500004
v 0.0105 -0.0002499751 0.002500004
v 0.0105 -0.0002499751 0.002500004
v 0.0105 -0.0005 0.002500004
v 0.0105 -0.0005 0.005000006
v 0.0105 -0.0002499751 0.005000006
v 0.0105 -0.0002499751 0.005000006
v 0.0105 -0.0005 0.005000006
v 0.0105 -0.0005 0.007500006
v 0.0105 -0.0002499751 0.007500006
v 0.0105 -0.0002499751 0.007500006
v 0.0105 -0.0005 0.007500006
v 0.0105 -0.0005 0.01
v 0.0105 -0.0002499751 0.01
v 0.0105 -0.0002499751 0.01
v 0.0105 -0.0005 0.01
v 0.0105 -0.0005 0.01249995
v 0.0105 -0.0002499751 0.01249995
v 0.0105 -0.0002499751 0.01249995
v 0.0105 -0.0005 0.01249995
v 0.0105 -0.0005 0.01549995
v 0.0105 -0.0002499751 0.01549995
v 0.0105 -0.0002499751 0.01549995
v 0.0105 -0.0005 0.01549995
v 0.0075 -0.0005 0.01549995
v 0.0075 -0.0002499751 0.01549995
v 0.0075 -0.0002499751 0.01549995
v 0.0075 -0.0005 0.01549995
v 0.005 -0.0005 0.01549997
v 0.005 -0.0002499751 0.01549997
v 0.005 0 -0.01125
v 0.005 0 -0.0125
v 0.0075 0 -0.0125
v 0.0075 0 -0.01125
v 0.01 0 -0.01125
v 0.0075 0 -0.01125
v 0.0075 0 -0.0125
v 0.01 0 -0.0125
v 0.01 0 -0.0125
v 0.0075 0 -0.0125
v 0.0075 0 -0.015
v 0.01 0 -0.015
v 0.0075 0 -0.015
v 0.0075 0 -0.0125
v 0.005 0 -0.0125
v 0.005000001 0 -0.015
v 0.005000001 -0.0002499751 -0.0155
v 0.0075 -0.0002499751 -0.0155
v 0.0075 -1.162276E-19 -0.01525002
v 0.005000001 1.43352E-19 -0.01525002
v 0.005000001 0 -0.015
v 0.0075 0 -0.015
v 0.0075 -0.0002499751 -0.0155
v 0.0105 -0.0002499751 -0.0155
v 0.01025002 -5.643827E-20 -0.01525002
v 0.0075 -1.162276E-19 -0.01525002
v 0.0075 0 -0.015
v 0.01 0 -0.015
v 0.0105 -0.0002499751 -0.0155
v 0.0105 -0.0002499751 -0.0125
v 0.01025002 5.55115E-20 -0.0125
v 0.01025002 -5.643827E-20 -0.01525002
v 0.01 0 -0.015
v 0.01 0 -0.0125
v 0.0105 -0.0002499751 -0.0125
v 0.0105 -0.0002499751 -0.01075
v 0.01025002 -3.298142E-19 -0.01099997
v 0.01025002 5.55115E-20 -0.0125
v 0.01 0 -0.0125
v 0.01 0 -0.01125
v 0.0105 -0.0002499751 -0.01075
v 0.0075 -0.0002499751 -0.01075
v 0.0075 -3.421742E-19 -0.01099997
v 0.01025002 -3.298142E-19 -0.01099997
v 0.01 0 -0.01125
v 0.0075 0 -0.01125
v 0.0075 -0.0002499751 -0.01075
v 0.005 -0.0002499751 -0.01075
v 0.005 -2.567391E-19 -0.01099997
v 0.0075 -3.421742E-19 -0.01099997
v 0.0075 0 -0.01125
v 0.005 0 -0.01125
v 0.005000001 -0.0002499751 -0.0155
v 0.005000001 -0.0005 -0.0155
v 0.0075 -0.0005 -0.0155
v 0.0075 -0.0002499751 -0.0155
v 0.0075 -0.0002499751 -0.0155
v 0.0075 -0.0005 -0.0155
v 0.0105 -0.0005 -0.0155
v 0.0105 -0.0002499751 -0.0155
v 0.0105 -0.0002499751 -0.0125
v 0.0105 -0.0005 -0.0125
v 0.0105 -0.0005 -0.01075
v 0.0105 -0.0002499751 -0.01075
v 0.0105 -0.0002499751 -0.0155
v 0.0105 -0.0005 -0.0155
v 0.0105 -0.0005 -0.0125
v 0.0105 -0.0002499751 -0.0125
v 0.0105 -0.0002499751 -0.01075
v 0.0105 -0.0005 -0.01075
v 0.0075 -0.0005 -0.01075
v 0.0075 -0.0002499751 -0.01075
v 0.0075 -0.0002499751 -0.01075
v 0.0075 -0.0005 -0.01075
v 0.005 -0.0005 -0.01075
v 0.005 -0.0002499751 -0.01075
vt 0 2.980232E-07
vt 0 1
vt 1 1
vt 1 0
vt 1 0.75
vt 1 0
vt 0 0
vt 0 0.75
vt 1 0.75
vt 1 0
vt 0 0
vt 0 0.75
vt 1 0.75
vt 1 0
vt 0 0
vt 0 0.75
vt 1 0.75
vt 1 0
vt 0 0
vt 0 0.75
vt 1 0.75
vt 1 0
vt 0 0
vt 0.5 0.75
vt 0.5 1
vt 0 1
vt 0.5 2.980232E-07
vt 0 2.980232E-07
vt 0 1
vt 0.5 1
vt 0.5 0
vt 0 0
vt 0 1
vt 0.5 1
vt 0.5 0
vt 0 0
vt 0 1
vt 0.5 1
vt 0.5 2.980232E-07
vt 0 2.980232E-07
vt 0 1
vt 0.5 0.5
vt 1 0.5
vt 1 1
vt -1.192093E-07 0.5
vt 0 1
vt 1 1
vt 1 0.5
vt -1.192093E-07 0.5
vt 0 1
vt 1 1
vt 1 0.5
vt 0 0.5
vt 0 1
vt 1 1
vt 1 0.5
vt 0 0.5
vt 0 1
vt 1 1
vt 1 0.5
vt 1 1
vt 1 0
vt 0 0
vt 0 1
vt 1 1
vt 1 0
vt 0 0
vt 0 1
vt 1 1
vt 1 0
vt 0 0
vt 0 1
vt 1 1
vt 1 0
vt 0 0
vt 0 1
vt 1 1
vt 1 0
vt 0 0
vt 0 1
vt 2.980232E-07 1
vt 1 1
vt 1 0
vt 2.980232E-07 0
vt 2.980232E-07 1
vt 1 1
vt 1 2.980232E-07
vt 2.980232E-07 2.980232E-07
vt 2.980232E-07 1
vt 1 1
vt 1 0
vt 2.980232E-07 0
vt 2.980232E-07 1
vt 1 1
vt 1 0
vt 2.980232E-07 0
vt 2.980232E-07 1
vt 1 1
vt 1 2.980232E-07
vt 2.980232E-07 2.980232E-07
vt 2.980232E-07 1
vt 1 1
vt 1 0
vt 2.980232E-07 0
vt 2.980232E-07 1
vt 1 1
vt 1 0.25
vt 2.980232E-07 0.25
vt 0 0.25
vt 0 1
vt 1 1
vt 1 0.25
vt 0 0.25
vt 0 1
vt 1 1
vt 1 0.25
vt 0 0.25
vt 0 1
vt 1 1
vt 1 0.25
vt 0 0.25
vt 0 1
vt 1 1
vt 1 0.25
vt 0 0.25
vt 0 1
vt 1 1
vt 1 0.25
vt 1 0.5
vt 1 0
vt 0 0
vt 0 0.5
vt 1 0.5
vt 1 0
vt 0 0
vt 0 0.5
vt 1 0.5
vt 1 0
vt 0 0
vt 0 0.5
vt 1 0.5
vt 1 0
vt 0 0
vt 0 0.5
vt 1 0.5
vt 1 0
vt 0 0
vt 0 0.5
vt 2.980232E-07 0.5
vt 1 0.5
vt 1 0
vt 2.980232E-07 0
vt 2.980232E-07 2.980232E-07
vt 2.980232E-07 1
vt 1 1
vt 1 0
vt 0 2.980232E-07
vt 0 1
vt 1 1
vt 1 0
vt 0 2.980232E-07
vt 0 1
vt 1 1
vt 1 0
vt 0 2.980232E-07
vt 0 1
vt 1 1
vt 1 0
vt 0 2.980232E-07
vt 0 1
vt 1 1
vt 1 0
vt 0.06970215 0.9487305
vt 0.03643799 0.965332
vt 0.06970215 0.965332
vt 0.03643799 0.9487305
vt 0.03643799 0.9321289
vt 0.06970215 0.9321289
vt 0.03643799 0.965332
vt 0.06970215 0.965332
vt 0.06970215 0.9487305
vt 0.03643799 0.9487305
vt 0.03643799 0.9321289
vt 0.06970215 0.9321289
vt 0.03643799 0.965332
vt 0.06970215 0.965332
vt 0.06970215 0.9487305
vt 0.03643799 0.9487305
vt 0.03643799 0.9321289
vt 0.06970215 0.9321289
vt 0.06970215 0.9487305
vt 0.03643799 0.965332
vt 0.06970215 0.965332
vt 0.03643799 0.9487305
vt 0.03643799 0.9321289
vt 0.06970215 0.9321289
vt 0.06970215 0.9487305
vt 0.03643799 0.965332
vt 0.06970215 0.965332
vt 0.03643799 0.9487305
vt 0.03643799 0.9321289
vt 0.06970215 0.9321289
vt 0.03643799 0.965332
vt 0.06970215 0.965332
vt 0.06970215 0.9487305
vt 0.03643799 0.9487305
vt 0.03643799 0.9321289
vt 0.06970215 0.9321289
vt 0.03643799 0.965332
vt 0.06970215 0.965332
vt 0.06970215 0.9487305
vt 0.03643799 0.9487305
vt 0.03643799 0.9321289
vt 0.06970215 0.9321289
vt 0.03643799 0.965332
vt 0.06970215 0.965332
vt 0.06970215 0.9487305
vt 0.03643799 0.9487305
vt 0.03643799 0.9321289
vt 0.06970215 0.9321289
vt 0.03643799 0.965332
vt 0.06970215 0.965332
vt 0.06970215 0.9487305
vt 0.03643799 0.9487305
vt 0.03643799 0.9321289
vt 0.06970215 0.9321289
vt 0.03643799 0.965332
vt 0.06970215 0.965332
vt 0.06970215 0.9487305
vt 0.03643799 0.9487305
vt 0.03643799 0.9321289
vt 0.06970215 0.9321289
vt 0.03643799 0.965332
vt 0.06970215 0.965332
vt 0.06970215 0.9487305
vt 0.03643799 0.9487305
vt 0.03643799 0.9321289
vt 0.06970215 0.9321289
vt 0.03643799 0.965332
vt 0.06970215 0.965332
vt 0.06970215 0.9487305
vt 0.03643799 0.9487305
vt 0.03643799 0.9321289
vt 0.06970215 0.9321289
vt 0.03643799 0.965332
vt 0.06970215 0.965332
vt 0.06970215 0.9487305
vt 0.03643799 0.9487305
vt 0.03643799 0.9321289
vt 0.06970215 0.9321289
vt 0.03643799 0.965332
vt 0.06970215 0.965332
vt 0.06970215 0.9487305
vt 0.03643799 0.9487305
vt 0.03643799 0.9321289
vt 0.06970215 0.9321289
vt 0.03643799 0.965332
vt 0.06970215 0.965332
vt 0.06970215 0.9487305
vt 0.03643799 0.9487305
vt 0.03643799 0.9321289
vt 0.06970215 0.9321289
vt 0.03643799 0.965332
vt 0.06970215 0.965332
vt 0.06970215 0.9487305
vt 0.03643799 0.9487305
vt 0.03643799 0.9321289
vt 0.06970215 0.9321289
vt 0.03643799 0.965332
vt 0.06970215 0.965332
vt 0.06970215 0.9487305
vt 0.03643799 0.9487305
vt 0.03643799 0.9321289
vt 0.06970215 0.9321289
vt 0.03643799 0.965332
vt 0.06970215 0.965332
vt 0.06970215 0.9487305
vt 0.03643799 0.9487305
vt 0.03643799 0.9321289
vt 0.06970215 0.9321289
vt 0.03643799 0.965332
vt 0.06970215 0.965332
vt 0.06970215 0.9487305
vt 0.03643799 0.9487305
vt 0.03643799 0.9321289
vt 0.06970215 0.9321289
vt 0.03643799 0.965332
vt 0.06970215 0.965332
vt 0.06970215 0.9487305
vt 0.03643799 0.9487305
vt 0.03643799 0.9321289
vt 0.06970215 0.9321289
vt 0.03643799 0.965332
vt 0.06970215 0.965332
vt 0.06970215 0.9487305
vt 0.03643799 0.9487305
vt 0.03643799 0.9321289
vt 0.06970215 0.9321289
vt 0.03643799 0.965332
vt 0.06970215 0.965332
vt 0.06970215 0.9487305
vt 0.03643799 0.9487305
vt 0.03643799 0.9321289
vt 0.06970215 0.9321289
vt 0.03643799 0.965332
vt 0.06970215 0.965332
vt 0.06970215 0.9487305
vt 0.03643799 0.9487305
vt 0.03643799 0.9321289
vt 0.06970215 0.9321289
vt 0.03643799 0.965332
vt 0.06970215 0.965332
vt 0.06970215 0.9487305
vt 0.03643799 0.9487305
vt 0.03643799 0.9321289
vt 0.06970215 0.9321289
vt 0.03643799 0.965332
vt 0.06970215 0.965332
vt 0.06970215 0.9487305
vt 0.03643799 0.9487305
vt 0.03643799 0.9321289
vt 0.06970215 0.9321289
vt 0.03643799 0.965332
vt 0.06970215 0.965332
vt 0.06970215 0.9487305
vt 0.03643799 0.9487305
vt 0.03643799 0.9321289
vt 0.06970215 0.9321289
vt 0.03643799 0.965332
vt 0.06970215 0.965332
vt 0.06970215 0.9487305
vt 0.03643799 0.9487305
vt 0.03643799 0.9321289
vt 0.06970215 0.9321289
vt 0.03643799 0.965332
vt 0.06970215 0.965332
vt 0.06970215 0.9487305
vt 0.03643799 0.9487305
vt 0.03643799 0.9321289
vt 0.06970215 0.9321289
vt 0.03643799 0.965332
vt 0.06970215 0.965332
vt 0.06970215 0.9487305
vt 0.03643799 0.9487305
vt 0.03643799 0.9321289
vt 0.06970215 0.9321289
vt 0.03643799 0.965332
vt 0.06970215 0.965332
vt 0.06970215 0.9487305
vt 0.03643799 0.9487305
vt 0.03643799 0.9321289
vt 0.06970215 0.9321289
vt 0.03643799 0.965332
vt 0.06970215 0.965332
vt 0.06970215 0.9487305
vt 0.03643799 0.9487305
vt 0.03643799 0.9321289
vt 0.06970215 0.9321289
vt 0.03643799 0.965332
vt 0.06970215 0.965332
vt 0.06970215 0.9487305
vt 0.03643799 0.9487305
vt 0.03643799 0.9321289
vt 0.06970215 0.9321289
vt 0.03643799 0.965332
vt 0.06970215 0.965332
vt 0.06970215 0.9487305
vt 0.03643799 0.9487305
vt 0.03643799 0.9321289
vt 0.06970215 0.9321289
vt 0.03643799 0.965332
vt 0.06970215 0.965332
vt 0.06970215 0.9487305
vt 0.03643799 0.9487305
vt 0.03643799 0.9321289
vt 0.06970215 0.9321289
vt 0.03643799 0.965332
vt 0.06970215 0.965332
vt 0.06970215 0.9487305
vt 0.03643799 0.9487305
vt 0.03643799 0.9321289
vt 0.06970215 0.9321289
vt 0.03643799 0.965332
vt 0.06970215 0.965332
vt 0.06970215 0.9487305
vt 0.03643799 0.9487305
vt 0.03643799 0.9321289
vt 0.06970215 0.9321289
vt 0.03643799 0.965332
vt 0.06970215 0.965332
vt 0.06970215 0.9487305
vt 0.03643799 0.9487305
vt 0.03643799 0.9321289
vt 0.06970215 0.9321289
vt 0.03643799 0.965332
vt 0.06970215 0.965332
vt 0.06970215 0.9487305
vt 0.03643799 0.9487305
vt 0.03643799 0.9321289
vt 0.06970215 0.9321289
vt 0.03643799 0.965332
vt 0.06970215 0.965332
vt 0.06970215 0.9487305
vt 0.03643799 0.9487305
vt 0.03643799 0.9321289
vt 0.06970215 0.9321289
vt 0.06970215 0.9487305
vt 0.03643799 0.965332
vt 0.06970215 0.965332
vt 0.03643799 0.9487305
vt 0.03643799 0.9321289
vt 0.06970215 0.9321289
vt 0.03643799 0.965332
vt 0.06970215 0.965332
vt 0.06970215 0.9487305
vt 0.03643799 0.9487305
vt 0.03643799 0.9321289
vt 0.06970215 0.9321289
vt 0.03643799 0.965332
vt 0.06970215 0.965332
vt 0.06970215 0.9487305
vt 0.03643799 0.9487305
vt 0.03643799 0.9321289
vt 0.06970215 0.9321289
vt 0.03643799 0.965332
vt 0.06970215 0.965332
vt 0.06970215 0.9487305
vt 0.03643799 0.9487305
vt 0.03643799 0.9321289
vt 0.06970215 0.9321289
vt 0.06970215 0.9487305
vt 0.03643799 0.965332
vt 0.06970215 0.965332
vt 0.03643799 0.9487305
vt 0.03643799 0.9321289
vt 0.06970215 0.9321289
vt 0.03643799 0.965332
vt 0.06970215 0.965332
vt 0.06970215 0.9487305
vt 0.03643799 0.9487305
vt 0.03643799 0.9321289
vt 0.06970215 0.9321289
vt 0.03643799 0.965332
vt 0.06970215 0.965332
vt 0.06970215 0.9487305
vt 0.03643799 0.9487305
vt 0.03643799 0.9321289
vt 0.06970215 0.9321289
vt 0.03643799 0.965332
vt 0.06970215 0.965332
vt 0.06970215 0.9487305
vt 0.03643799 0.9487305
vt 0.03643799 0.9321289
vt 0.06970215 0.9321289
vt 0.03643799 0.965332
vt 0.06970215 0.965332
vt 0.06970215 0.9487305
vt 0.03643799 0.9487305
vt 0.03643799 0.9321289
vt 0.06970215 0.9321289
vt 0.03643799 0.9487305
vt 0.03643799 0.965332
vt 0.06970215 0.965332
vt 0.06970215 0.9487305
vt 0.03643799 0.9487305
vt 0.03643799 0.965332
vt 0.06970215 0.965332
vt 0.06970215 0.9487305
vt 0.03643799 0.9487305
vt 0.03643799 0.965332
vt 0.06970215 0.965332
vt 0.06970215 0.9487305
vt 0.03643799 0.9487305
vt 0.03643799 0.965332
vt 0.06970215 0.965332
vt 0.06970215 0.9487305
vt 0.03643799 0.9487305
vt 0.03643799 0.965332
vt 0.06970215 0.965332
vt 0.06970215 0.9487305
vt 0.03643799 0.9487305
vt 0.03643799 0.965332
vt 0.06970215 0.965332
vt 0.06970215 0.9487305
vt 0.03643799 0.9487305
vt 0.03643799 0.965332
vt 0.06970215 0.965332
vt 0.06970215 0.9487305
vt 0.03643799 0.9487305
vt 0.03643799 0.965332
vt 0.06970215 0.965332
vt 0.06970215 0.9487305
vt 0.03643799 0.9487305
vt 0.03643799 0.965332
vt 0.06970215 0.965332
vt 0.06970215 0.9487305
vt 0.03643799 0.9487305
vt 0.03643799 0.965332
vt 0.06970215 0.965332
vt 0.06970215 0.9487305
vt 0.03643799 0.9487305
vt 0.03643799 0.965332
vt 0.06970215 0.965332
vt 0.06970215 0.9487305
vt 0.03643799 0.9487305
vt 0.03643799 0.965332
vt 0.06970215 0.965332
vt 0.06970215 0.9487305
vt 0.03643799 0.9487305
vt 0.03643799 0.965332
vt 0.06970215 0.965332
vt 0.06970215 0.9487305
vt 0.03643799 0.9487305
vt 0.03643799 0.965332
vt 0.06970215 0.965332
vt 0.06970215 0.9487305
vt 0.03643799 0.9487305
vt 0.03643799 0.965332
vt 0.06970215 0.965332
vt 0.06970215 0.9487305
vt 0.03643799 0.9487305
vt 0.03643799 0.965332
vt 0.06970215 0.965332
vt 0.06970215 0.9487305
vt 0.03643799 0.9487305
vt 0.03643799 0.965332
vt 0.06970215 0.965332
vt 0.06970215 0.9487305
vt 0.03643799 0.9487305
vt 0.03643799 0.965332
vt 0.06970215 0.965332
vt 0.06970215 0.9487305
vt 0.03643799 0.9487305
vt 0.03643799 0.965332
vt 0.06970215 0.965332
vt 0.06970215 0.9487305
vt 0.03643799 0.9487305
vt 0.03643799 0.965332
vt 0.06970215 0.965332
vt 0.06970215 0.9487305
vt 0.03643799 0.9487305
vt 0.03643799 0.965332
vt 0.06970215 0.965332
vt 0.06970215 0.9487305
vt 0.03643799 0.9487305
vt 0.03643799 0.965332
vt 0.06970215 0.965332
vt 0.06970215 0.9487305
vt 0.03643799 0.9487305
vt 0.03643799 0.965332
vt 0.06970215 0.965332
vt 0.06970215 0.9487305
vt 0.03643799 0.9487305
vt 0.03643799 0.965332
vt 0.06970215 0.965332
vt 0.06970215 0.9487305
vt 0.03643799 0.9487305
vt 0.03643799 0.965332
vt 0.06970215 0.965332
vt 0.06970215 0.9487305
vt 0.03643799 0.9487305
vt 0.03643799 0.965332
vt 0.06970215 0.965332
vt 0.06970215 0.9487305
vt 0.03643799 0.9487305
vt 0.03643799 0.965332
vt 0.06970215 0.965332
vt 0.06970215 0.9487305
vt 0.03643799 0.9487305
vt 0.03643799 0.965332
vt 0.06970215 0.965332
vt 0.06970215 0.9487305
vt 0.03643799 0.9487305
vt 0.03643799 0.965332
vt 0.06970215 0.965332
vt 0.06970215 0.9487305
vt 0.03643799 0.9487305
vt 0.03643799 0.965332
vt 0.06970215 0.965332
vt 0.06970215 0.9487305
vt 0.03643799 0.9487305
vt 0.03643799 0.965332
vt 0.06970215 0.965332
vt 0.06970215 0.9487305
vt 0.03643799 0.9487305
vt 0.03643799 0.965332
vt 0.06970215 0.965332
vt 0.06970215 0.9487305
vt 0.03643799 0.9487305
vt 0.03643799 0.965332
vt 0.06970215 0.965332
vt 0.06970215 0.9487305
vt 0.03643799 0.9487305
vt 0.03643799 0.965332
vt 0.06970215 0.965332
vt 0.06970215 0.9487305
vt 0.03643799 0.9487305
vt 0.03643799 0.965332
vt 0.06970215 0.965332
vt 0.06970215 0.9487305
vt 0.03643799 0.9487305
vt 0.03643799 0.965332
vt 0.06970215 0.965332
vt 0.06970215 0.9487305
vt 0.03643799 0.9487305
vt 0.03643799 0.965332
vt 0.06970215 0.965332
vt 0.06970215 0.9487305
vt 0.03643799 0.9487305
vt 0.03643799 0.965332
vt 0.06970215 0.965332
vt 0.06970215 0.9487305
vt 0.03643799 0.9487305
vt 0.03643799 0.965332
vt 0.06970215 0.965332
vt 0.06970215 0.9487305
vt 0.03643799 0.9487305
vt 0.03643799 0.965332
vt 0.06970215 0.965332
vt 0.06970215 0.9487305
vt 0.03643799 0.9487305
vt 0.03643799 0.965332
vt 0.06970215 0.965332
vt 0.06970215 0.9487305
vt 0.03643799 0.9487305
vt 0.03643799 0.965332
vt 0.06970215 0.965332
vt 0.06970215 0.9487305
vt 0.03643799 0.9487305
vt 0.03643799 0.965332
vt 0.06970215 0.965332
vt 0.06970215 0.9487305
vt 0.03643799 0.9487305
vt 0.03643799 0.965332
vt 0.06970215 0.965332
vt 0.06970215 0.9487305
vt 0.03643799 0.9487305
vt 0.03643799 0.965332
vt 0.06970215 0.965332
vt 0.06970215 0.9487305
vt 0.03643799 0.9487305
vt 0.03643799 0.965332
vt 0.06970215 0.965332
vt 0.06970215 0.9487305
vt 0.03643799 0.9487305
vt 0.03643799 0.965332
vt 0.06970215 0.965332
vt 0.06970215 0.9487305
vt 0.03643799 0.9487305
vt 0.03643799 0.965332
vt 0.06970215 0.965332
vt 0.06970215 0.9487305
vt 2.980232E-07 2.980232E-07
vt 2.980232E-07 1
vt 1 1
vt 1 0
vt 0 2.980232E-07
vt 0 1
vt 1 1
vt 1 0
vt 1 0
vt 0 0
vt 0 1
vt 1 1
vt 1 0
vt 0 0
vt 0 1
vt 1 1
vt 1 0
vt 0 0
vt 0 1
vt 1 1
vt 1 0
vt 0 0
vt 0 1
vt 1 1
vt 1 0
vt 0 0
vt 0 1
vt 1 1
vt 1 0
vt 0 0
vt 0 0.75
vt 1 0.75
vt 1 0.75
vt 1 0
vt 2.980232E-07 0
vt 2.980232E-07 0.75
vt 2.980232E-07 0.25
vt 2.980232E-07 1
vt 1 1
vt 0.5 0.25
vt 0.5 0
vt 1 0
vt 0.5 1
vt 1 1
vt 1 0
vt 0.5 0
vt 0.5 1
vt 1 1
vt 1 0
vt 0.5 0
vt 0.5 1
vt 1 1
vt 1 0
vt 0.5 0
vt 0.5 0.5
vt 0.5 1
vt 1 1
vt 1 0
vt 2.980232E-07 0
vt 2.980232E-07 0.5
vt 0.03643799 0.965332
vt 0.06970215 0.965332
vt 0.06970215 0.9487305
vt 0.03643799 0.9487305
vt 0.03643799 0.9321289
vt 0.06970215 0.9321289
vt 0.03643799 0.965332
vt 0.06970215 0.965332
vt 0.06970215 0.9487305
vt 0.03643799 0.9487305
vt 0.03643799 0.9321289
vt 0.06970215 0.9321289
vt 0.03643799 0.965332
vt 0.06970215 0.965332
vt 0.06970215 0.9487305
vt 0.03643799 0.9487305
vt 0.03643799 0.9321289
vt 0.06970215 0.9321289
vt 0.03643799 0.965332
vt 0.06970215 0.965332
vt 0.06970215 0.9487305
vt 0.03643799 0.9487305
vt 0.03643799 0.9321289
vt 0.06970215 0.9321289
vt 0.03643799 0.965332
vt 0.06970215 0.965332
vt 0.06970215 0.9487305
vt 0.03643799 0.9487305
vt 0.03643799 0.9321289
vt 0.06970215 0.9321289
vt 0.03643799 0.965332
vt 0.06970215 0.965332
vt 0.06970215 0.9487305
vt 0.03643799 0.9487305
vt 0.03643799 0.9321289
vt 0.06970215 0.9321289
vt 0.03643799 0.965332
vt 0.06970215 0.965332
vt 0.06970215 0.9487305
vt 0.03643799 0.9487305
vt 0.03643799 0.9321289
vt 0.06970215 0.9321289
vt 0.03643799 0.965332
vt 0.06970215 0.965332
vt 0.06970215 0.9487305
vt 0.03643799 0.9487305
vt 0.03643799 0.9321289
vt 0.06970215 0.9321289
vt 0.03643799 0.965332
vt 0.06970215 0.965332
vt 0.06970215 0.9487305
vt 0.03643799 0.9487305
vt 0.03643799 0.9321289
vt 0.06970215 0.9321289
vt 0.03643799 0.965332
vt 0.06970215 0.965332
vt 0.06970215 0.9487305
vt 0.03643799 0.9487305
vt 0.03643799 0.9321289
vt 0.06970215 0.9321289
vt 0.03643799 0.965332
vt 0.06970215 0.965332
vt 0.06970215 0.9487305
vt 0.03643799 0.9487305
vt 0.03643799 0.9321289
vt 0.06970215 0.9321289
vt 0.03643799 0.965332
vt 0.06970215 0.965332
vt 0.06970215 0.9487305
vt 0.03643799 0.9487305
vt 0.03643799 0.9321289
vt 0.06970215 0.9321289
vt 0.03643799 0.965332
vt 0.06970215 0.965332
vt 0.06970215 0.9487305
vt 0.03643799 0.9487305
vt 0.03643799 0.9321289
vt 0.06970215 0.9321289
vt 0.03643799 0.965332
vt 0.06970215 0.965332
vt 0.06970215 0.9487305
vt 0.03643799 0.9487305
vt 0.03643799 0.9321289
vt 0.06970215 0.9321289
vt 0.03643799 0.965332
vt 0.06970215 0.965332
vt 0.06970215 0.9487305
vt 0.03643799 0.9487305
vt 0.03643799 0.9321289
vt 0.06970215 0.9321289
vt 0.03643799 0.965332
vt 0.06970215 0.965332
vt 0.06970215 0.9487305
vt 0.03643799 0.9487305
vt 0.03643799 0.9321289
vt 0.06970215 0.9321289
vt 0.03643799 0.965332
vt 0.06970215 0.965332
vt 0.06970215 0.9487305
vt 0.03643799 0.9487305
vt 0.03643799 0.9321289
vt 0.06970215 0.9321289
vt 0.03643799 0.965332
vt 0.06970215 0.965332
vt 0.06970215 0.9487305
vt 0.03643799 0.9487305
vt 0.03643799 0.9321289
vt 0.06970215 0.9321289
vt 0.03643799 0.9487305
vt 0.03643799 0.965332
vt 0.06970215 0.965332
vt 0.06970215 0.9487305
vt 0.03643799 0.9487305
vt 0.03643799 0.965332
vt 0.06970215 0.965332
vt 0.06970215 0.9487305
vt 0.03643799 0.9487305
vt 0.03643799 0.965332
vt 0.06970215 0.965332
vt 0.06970215 0.9487305
vt 0.03643799 0.9487305
vt 0.03643799 0.965332
vt 0.06970215 0.965332
vt 0.06970215 0.9487305
vt 0.03643799 0.9487305
vt 0.03643799 0.965332
vt 0.06970215 0.965332
vt 0.06970215 0.9487305
vt 0.03643799 0.9487305
vt 0.03643799 0.965332
vt 0.06970215 0.965332
vt 0.06970215 0.9487305
vt 0.03643799 0.9487305
vt 0.03643799 0.965332
vt 0.06970215 0.965332
vt 0.06970215 0.9487305
vt 0.03643799 0.9487305
vt 0.03643799 0.965332
vt 0.06970215 0.965332
vt 0.06970215 0.9487305
vt 0.03643799 0.9487305
vt 0.03643799 0.965332
vt 0.06970215 0.965332
vt 0.06970215 0.9487305
vt 0.03643799 0.9487305
vt 0.03643799 0.965332
vt 0.06970215 0.965332
vt 0.06970215 0.9487305
vt 0.03643799 0.9487305
vt 0.03643799 0.965332
vt 0.06970215 0.965332
vt 0.06970215 0.9487305
vt 0.03643799 0.9487305
vt 0.03643799 0.965332
vt 0.06970215 0.965332
vt 0.06970215 0.9487305
vt 0.03643799 0.9487305
vt 0.03643799 0.965332
vt 0.06970215 0.965332
vt 0.06970215 0.9487305
vt 0.03643799 0.9487305
vt 0.03643799 0.965332
vt 0.06970215 0.965332
vt 0.06970215 0.9487305
vt 0.03643799 0.9487305
vt 0.03643799 0.965332
vt 0.06970215 0.965332
vt 0.06970215 0.9487305
vt 0.03643799 0.9487305
vt 0.03643799 0.965332
vt 0.06970215 0.965332
vt 0.06970215 0.9487305
vt 0.03643799 0.9487305
vt 0.03643799 0.965332
vt 0.06970215 0.965332
vt 0.06970215 0.9487305
vt 0.03643799 0.9487305
vt 0.03643799 0.965332
vt 0.06970215 0.965332
vt 0.06970215 0.9487305
vt 2.980232E-07 0.5
vt 2.980232E-07 1
vt 1 1
vt 1 0.5
vt 1 0.5
vt 0 0.5
vt 0 1
vt 1 1
vt 1 0
vt 0 0
vt 0 1
vt 1 1
vt 1 1
vt 1 0
vt 2.980232E-07 0
vt 2.980232E-07 1
vt 0.03643799 0.965332
vt 0.06970215 0.965332
vt 0.06970215 0.9487305
vt 0.03643799 0.9487305
vt 0.03643799 0.9321289
vt 0.06970215 0.9321289
vt 0.03643799 0.965332
vt 0.06970215 0.965332
vt 0.06970215 0.9487305
vt 0.03643799 0.9487305
vt 0.03643799 0.9321289
vt 0.06970215 0.9321289
vt 0.03643799 0.965332
vt 0.06970215 0.965332
vt 0.06970215 0.9487305
vt 0.03643799 0.9487305
vt 0.03643799 0.9321289
vt 0.06970215 0.9321289
vt 0.03643799 0.965332
vt 0.06970215 0.965332
vt 0.06970215 0.9487305
vt 0.03643799 0.9487305
vt 0.03643799 0.9321289
vt 0.06970215 0.9321289
vt 0.03643799 0.965332
vt 0.06970215 0.965332
vt 0.06970215 0.9487305
vt 0.03643799 0.9487305
vt 0.03643799 0.9321289
vt 0.06970215 0.9321289
vt 0.03643799 0.965332
vt 0.06970215 0.965332
vt 0.06970215 0.9487305
vt 0.03643799 0.9487305
vt 0.03643799 0.9321289
vt 0.06970215 0.9321289
vt 0.03643799 0.9487305
vt 0.03643799 0.965332
vt 0.06970215 0.965332
vt 0.06970215 0.9487305
vt 0.03643799 0.9487305
vt 0.03643799 0.965332
vt 0.06970215 0.965332
vt 0.06970215 0.9487305
vt 0.03643799 0.9487305
vt 0.03643799 0.965332
vt 0.06970215 0.965332
vt 0.06970215 0.9487305
vt 0.03643799 0.9487305
vt 0.03643799 0.965332
vt 0.06970215 0.965332
vt 0.06970215 0.9487305
vt 0.03643799 0.9487305
vt 0.03643799 0.965332
vt 0.06970215 0.965332
vt 0.06970215 0.9487305
vt 0.03643799 0.9487305
vt 0.03643799 0.965332
vt 0.06970215 0.965332
vt 0.06970215 0.9487305
vn 0 1 0
vn 0 1 0
vn 0 1 0
vn 0 1 0
vn 0 1 0
vn 0 1 0
vn 0 1 0
vn 0 1 0
vn 0 1 0
vn 0 1 0
vn 0 1 0
vn 0 1 0
vn 0 1 0
vn 0 1 0
vn 0 1 0
vn 0 1 0
vn 0 1 0
vn 0 1 0
vn 0 1 0
vn 0 1 0
vn 0 1 0
vn 0 1 0
vn 0 1 0
vn 0 1 0
vn 0 1 0
vn 0 1 0
vn 0 1 0
vn 0 1 0
vn 0 1 0
vn 0 1 0
vn 0 1 0
vn 0 1 0
vn 0 1 0
vn 0 1 0
vn 0 1 0
vn 0 1 0
vn 0 1 0
vn 0 1 0
vn 0 1 0
vn 0 1 0
vn 0 1 0
vn 0 1 0
vn 0 1 0
vn 0 1 0
vn 0 1 0
vn 0 1 0
vn 0 1 0
vn 0 1 0
vn 0 1 0
vn 0 1 0
vn 0 1 0
vn 0 1 0
vn 0 1 0
vn 0 1 0
vn 0 1 0
vn 0 1 0
vn 0 1 0
vn 0 1 0
vn 0 1 0
vn 0 1 0
vn 0 1 0
vn 0 1 0
vn 0 1 0
vn 0 1 0
vn 0 1 0
vn 0 1 0
vn 0 1 0
vn 0 1 0
vn 0 1 0
vn 0 1 0
vn 0 1 0
vn 0 1 0
vn 0 1 0
vn 0 1 0
vn 0 1 0
vn 0 1 0
vn 0 1 0
vn 0 1 0
vn 0 1 0
vn 0 1 0
vn 0 1 0
vn 0 1 0
vn 0 1 0
vn 0 1 0
vn 0 1 0
vn 0 1 0
vn 0 1 0
vn 0 1 0
vn 0 1 0
vn 0 1 0
vn 0 1 0
vn 0 1 0
vn 0 1 0
vn 0 1 0
vn 0 1 0
vn 0 1 0
vn 0 1 0
vn 0 1 0
vn 0 1 0
vn 0 1 0
vn 0 1 0
vn 0 1 0
vn 0 1 0
vn 0 1 0
vn 0 1 0
vn 0 1 0
vn 0 1 0
vn 0 1 0
vn 0 1 0
vn 0 1 0
vn 0 1 0
vn 0 1 0
vn 0 1 0
vn 0 1 0
vn 0 1 0
vn 0 1 0
vn 0 1 0
vn 0 1 0
vn 0 1 0
vn 0 1 0
vn 0 1 0
vn 0 1 0
vn 0 1 0
vn 0 1 0
vn 0 1 0
vn 0 1 0
vn 0 1 0
vn 0 1 0
vn 0 1 0
vn 0 1 0
vn 0 1 0
vn 0 1 0
vn 0 1 0
vn 0 1 0
vn 0 1 0
vn 0 1 0
vn 0 1 0
vn 0 1 0
vn 0 1 0
vn 0 1 0
vn 0 1 0
vn 0 1 0
vn 0 1 0
vn 0 1 0
vn 0 1 0
vn 0 1 0
vn 0 1 0
vn 0 1 0
vn 0 1 0
vn 0 1 0
vn 0 1 0
vn 0 1 0
vn 0 1 0
vn 0 1 0
vn 0 1 0
vn 0 1 0
vn 0 1 0
vn 0 1 0
vn 0 1 0
vn 0 1 0
vn 0 1 0
vn 0 1 0
vn 0 1 0
vn 0 1 0
vn 0 1 0
vn 0 1 0
vn 0 1 0
vn 0 1 0
vn 0 1 0
vn 0 1 0
vn 0 1 0
vn 0 1 0
vn -0.4677734 0.8837891 0
vn -0.6269531 0.4619141 0.6269531
vn -0.8994141 0.4375 0
vn -0.3322754 0.8828125 0.3322754
vn 0 1 0
vn 0 1 0
vn -0.8994141 0.4375 0
vn -0.4470215 0.4465332 -0.7749023
vn -0.2391357 0.8740234 -0.4230957
vn -0.4677734 0.8837891 0
vn 0 1 0
vn 0 1 0
vn -0.4470215 0.4465332 -0.7749023
vn 0 0.4431152 -0.8964844
vn 0 0.8901367 -0.4555664
vn -0.2391357 0.8740234 -0.4230957
vn 0 1 0
vn 0 1 0
vn -0.3322754 0.8828125 0.3322754
vn 0 0.4431152 0.8964844
vn -0.6269531 0.4619141 0.6269531
vn 0 0.8901367 0.4555664
vn 0 1 0
vn 0 1 0
vn 0 0.8945313 -0.4472656
vn 0 0.4472656 -0.8945313
vn 0 0.4472656 -0.8945313
vn 0 0.8945313 -0.4472656
vn 0 1 0
vn 0 1 0
vn 0 0.4472656 -0.8945313
vn 0 0.4472656 -0.8945313
vn 0 0.8945313 -0.4472656
vn 0 0.8945313 -0.4472656
vn 0 1 0
vn 0 1 0
vn 0 0.4472656 -0.8945313
vn 4.172325E-07 0.4472656 -0.8945313
vn 1.788139E-07 0.8945313 -0.4472656
vn 0 0.8945313 -0.4472656
vn 0 1 0
vn 0 1 0
vn 4.172325E-07 0.4472656 -0.8945313
vn 7.748604E-07 0.4472656 -0.8945313
vn 4.172325E-07 0.8945313 -0.4472656
vn 1.788139E-07 0.8945313 -0.4472656
vn 0 1 0
vn 0 1 0
vn 0 0.4431152 -0.8964844
vn 0 0.4472656 -0.8945313
vn 0 0.8945313 -0.4472656
vn 0 0.8901367 -0.4555664
vn 0 1 0
vn 0 1 0
vn 0 0.4472656 0.8945313
vn 0 0.4472656 0.8945313
vn 0 0.8945313 0.4472656
vn 0 0.8945313 0.4472656
vn 0 1 0
vn 0 1 0
vn 0 0.4472656 0.8945313
vn 0 0.4472656 0.8945313
vn 0 0.8945313 0.4472656
vn 0 0.8945313 0.4472656
vn 0 1 0
vn 0 1 0
vn 0 0.4472656 0.8945313
vn 0 0.4472656 0.8945313
vn 0 0.8945313 0.4472656
vn 0 0.8945313 0.4472656
vn 0 1 0
vn 0 1 0
vn 0 0.4472656 0.8945313
vn 0 0.4472656 0.8945313
vn 0 0.8945313 0.4472656
vn 0 0.8945313 0.4472656
vn 0 1 0
vn 0 1 0
vn 0 0.4472656 0.8945313
vn 0 0.4431152 0.8964844
vn 0 0.8901367 0.4555664
vn 0 0.8945313 0.4472656
vn 0 1 0
vn 0 1 0
vn 0 0.4431152 0.8964844
vn -0.550293 0.458252 0.6982422
vn -0.2919922 0.8808594 0.3730469
vn 0 0.8901367 0.4555664
vn 0 1 0
vn 0 1 0
vn -0.550293 0.458252 0.6982422
vn -0.8969727 0.442627 0
vn -0.4567871 0.8896484 0
vn -0.2919922 0.8808594 0.3730469
vn 0 1 0
vn 0 1 0
vn -0.8969727 0.442627 0
vn -0.8945313 0.4472656 0
vn -0.4472656 0.8945313 0
vn -0.4567871 0.8896484 0
vn 0 1 0
vn 0 1 0
vn -0.8945313 0.4472656 0
vn -0.8945313 0.4472656 0
vn -0.4472656 0.8945313 0
vn -0.4472656 0.8945313 0
vn 0 1 0
vn 0 1 0
vn -0.8945313 0.4472656 0
vn -0.8945313 0.4472656 0
vn -0.4472656 0.8945313 0
vn -0.4472656 0.8945313 0
vn 0 1 0
vn 0 1 0
vn -0.8945313 0.4472656 0
vn -0.8945313 0.4472656 0
vn -0.4472656 0.8945313 0
vn -0.4472656 0.8945313 0
vn 0 1 0
vn 0 1 0
vn -0.8945313 0.4472656 0
vn -0.8964844 0.4431152 0
vn -0.4555664 0.8901367 0
vn -0.4472656 0.8945313 0
vn 0 1 0
vn 0 1 0
vn -0.8964844 0.4431152 0
vn -0.6269531 0.4619141 -0.6269531
vn -0.3322754 0.8828125 -0.3322754
vn -0.4555664 0.8901367 0
vn 0 1 0
vn 0 1 0
vn -0.6269531 0.4619141 -0.6269531
vn 0 0.4431152 -0.8964844
vn 0 0.8901367 -0.4555664
vn -0.3322754 0.8828125 -0.3322754
vn 0 1 0
vn 0 1 0
vn 0 0.4431152 -0.8964844
vn 0 0.4472656 -0.8945313
vn 0 0.8945313 -0.4472656
vn 0 0.8901367 -0.4555664
vn 0 1 0
vn 0 1 0
vn 0 0.4472656 -0.8945313
vn 0 0.4472656 -0.8945313
vn 0 0.8945313 -0.4472656
vn 0 0.8945313 -0.4472656
vn 0 1 0
vn 0 1 0
vn 0 0.4472656 -0.8945313
vn 0 0.4472656 -0.8945313
vn 0 0.8945313 -0.4472656
vn 0 0.8945313 -0.4472656
vn 0 1 0
vn 0 1 0
vn 0 0.4472656 -0.8945313
vn 0 0.4472656 -0.8945313
vn 0 0.8945313 -0.4472656
vn 0 0.8945313 -0.4472656
vn 0 1 0
vn 0 1 0
vn 0 0.4472656 -0.8945313
vn 0 0.4472656 -0.8945313
vn 0 0.8945313 -0.4472656
vn 0 0.8945313 -0.4472656
vn 0 1 0
vn 0 1 0
vn 0 0.4472656 0.8945313
vn 0 0.4472656 0.8945313
vn 0 0.8945313 0.4472656
vn 0 0.8945313 0.4472656
vn 0 1 0
vn 0 1 0
vn 0 0.4472656 0.8945313
vn 0 0.4472656 0.8945313
vn 0 0.8945313 0.4472656
vn 0 0.8945313 0.4472656
vn 0 1 0
vn 0 1 0
vn 0 0.4472656 0.8945313
vn 0 0.4472656 0.8945313
vn 0 0.8945313 0.4472656
vn 0 0.8945313 0.4472656
vn 0 1 0
vn 0 1 0
vn 0 0.4472656 0.8945313
vn 0 0.4538574 0.8911133
vn 0 0.9008789 0.4343262
vn 0 0.8945313 0.4472656
vn 0 1 0
vn 0 1 0
vn 0 0.4538574 0.8911133
vn 0.5322266 0.6586914 0.5322266
vn 0.1181641 0.9858398 0.1181641
vn 0 0.9008789 0.4343262
vn 0 1 0
vn 0 1 0
vn 0.5322266 0.6586914 0.5322266
vn 0.8911133 0.4538574 0
vn 0.4343262 0.9008789 0
vn 0.1181641 0.9858398 0.1181641
vn 0 1 0
vn 0 1 0
vn 0.8911133 0.4538574 0
vn 0.8945313 0.4472656 0
vn 0.4472656 0.8945313 0
vn 0.4343262 0.9008789 0
vn 0 1 0
vn 0 1 0
vn 0.8945313 0.4472656 0
vn 0.8945313 0.4472656 0
vn 0.4472656 0.8945313 0
vn 0.4472656 0.8945313 0
vn 0 1 0
vn 0 1 0
vn 0.8945313 0.4472656 0
vn 0.8901367 0.4553223 0
vn 0.4313965 0.9023438 0
vn 0.4472656 0.8945313 0
vn 0 1 0
vn 0 1 0
vn 0.8901367 0.4553223 0
vn 0.1848145 0.6118164 -0.769043
vn 0.04794312 0.9848633 -0.1678467
vn 0.4313965 0.9023438 0
vn 0 1 0
vn 0 1 0
vn 0.1848145 0.6118164 -0.769043
vn 0 0.4538574 -0.8911133
vn 0 0.9008789 -0.4343262
vn 0.04794312 0.9848633 -0.1678467
vn 0 1 0
vn 0 1 0
vn 0 0.8945313 -0.4472656
vn 0 0.4538574 -0.8911133
vn 0 0.4472656 -0.8945313
vn 0 0.9008789 -0.4343262
vn 0 1 0
vn 0 1 0
vn 0 0.4472656 -0.8945313
vn 0 0.4472656 -0.8945313
vn 0 0.8945313 -0.4472656
vn 0 0.8945313 -0.4472656
vn 0 1 0
vn 0 1 0
vn 0 0.4472656 -0.8945313
vn 3.576279E-07 0.4472656 -0.8945313
vn 0 0.8945313 -0.4472656
vn 0 0.8945313 -0.4472656
vn 0 1 0
vn 0 1 0
vn 3.576279E-07 0.4472656 -0.8945313
vn 7.152557E-07 0.4472656 -0.8945313
vn 0 0.8945313 -0.4472656
vn 0 0.8945313 -0.4472656
vn 0 1 0
vn 0 1 0
vn 0 0.8901367 0.4555664
vn 0 0.4472656 0.8945313
vn 0 0.4431152 0.8964844
vn 0 0.8945313 0.4472656
vn 0 1 0
vn 0 1 0
vn 9.357929E-06 0.4472656 0.8945313
vn 4.649162E-06 0.4472656 0.8945313
vn 2.384186E-06 0.8945313 0.4472656
vn 4.768372E-06 0.8945313 0.4472656
vn 0 1 0
vn 0 1 0
vn 4.649162E-06 0.4472656 0.8945313
vn 0 0.4472656 0.8945313
vn 0 0.8945313 0.4472656
vn 2.384186E-06 0.8945313 0.4472656
vn 0 1 0
vn 0 1 0
vn 0 0.4472656 0.8945313
vn 0 0.4472656 0.8945313
vn 0 0.8945313 0.4472656
vn 0 0.8945313 0.4472656
vn 0 1 0
vn 0 1 0
vn 0 0.4472656 0.8945313
vn 0 0.4472656 0.8945313
vn 0 0.8945313 0.4472656
vn 0 0.8945313 0.4472656
vn 0 1 0
vn 0 1 0
vn -0.8994141 0.4375 0
vn -1 0 0
vn -0.5039063 0 -0.8637695
vn -0.4470215 0.4465332 -0.7749023
vn -0.6269531 0.4619141 0.6269531
vn -0.7070313 0 0.7070313
vn -1 0 0
vn -0.8994141 0.4375 0
vn 0 0.4472656 -0.8945313
vn 0 0 -1
vn 0 0 -1
vn 0 0.4472656 -0.8945313
vn 0 0.4472656 -0.8945313
vn 0 0 -1
vn 4.172325E-07 0 -1
vn 4.172325E-07 0.4472656 -0.8945313
vn 4.172325E-07 0.4472656 -0.8945313
vn 4.172325E-07 0 -1
vn 8.940697E-07 0 -1
vn 7.748604E-07 0.4472656 -0.8945313
vn -0.4470215 0.4465332 -0.7749023
vn -0.5039063 0 -0.8637695
vn 0 0 -1
vn 0 0.4431152 -0.8964844
vn 0 0.4431152 -0.8964844
vn 0 0 -1
vn 0 0 -1
vn 0 0.4472656 -0.8945313
vn 0 0.4472656 -0.8945313
vn 0 0 -1
vn 0 0 -1
vn 0 0.4472656 -0.8945313
vn 0 0.4472656 0.8945313
vn 2.384186E-07 0 1
vn 1.192093E-07 0 1
vn 0 0.4472656 0.8945313
vn 0 0.4472656 0.8945313
vn 1.192093E-07 0 1
vn 0 0 1
vn 0 0.4472656 0.8945313
vn 0 0.4472656 0.8945313
vn 0 0 1
vn 0 0 1
vn 0 0.4472656 0.8945313
vn 0 0.4472656 0.8945313
vn 0 0 1
vn 0 0 1
vn 0 0.4472656 0.8945313
vn 0 0.4472656 0.8945313
vn 0 0 1
vn 0 0 1
vn 0 0.4431152 0.8964844
vn 0 0.4431152 0.8964844
vn 0 0 1
vn -0.6206055 0 0.7841797
vn -0.550293 0.458252 0.6982422
vn -0.550293 0.458252 0.6982422
vn -0.6206055 0 0.7841797
vn -1 0 0
vn -0.8969727 0.442627 0
vn -0.8969727 0.442627 0
vn -1 0 0
vn -1 0 0
vn -0.8945313 0.4472656 0
vn -0.8945313 0.4472656 0
vn -1 0 0
vn -1 0 0
vn -0.8945313 0.4472656 0
vn -0.8945313 0.4472656 0
vn -1 0 0
vn -1 0 0
vn -0.8945313 0.4472656 0
vn -0.8945313 0.4472656 0
vn -1 0 0
vn -1 0 0
vn -0.8945313 0.4472656 0
vn -0.8945313 0.4472656 0
vn -1 0 0
vn -1 0 0
vn -0.8964844 0.4431152 0
vn -0.8964844 0.4431152 0
vn -1 0 0
vn -0.7070313 0 -0.7070313
vn -0.6269531 0.4619141 -0.6269531
vn 0 0.4431152 -0.8964844
vn 0 0 -1
vn 0 0 -1
vn 0 0.4472656 -0.8945313
vn 0 0.4472656 -0.8945313
vn 0 0 -1
vn 0 0 -1
vn 0 0.4472656 -0.8945313
vn 0 0.4472656 -0.8945313
vn 0 0 -1
vn 0 0 -1
vn 0 0.4472656 -0.8945313
vn 0 0.4472656 -0.8945313
vn 0 0 -1
vn 0 0 -1
vn 0 0.4472656 -0.8945313
vn 0 0.4472656 -0.8945313
vn 0 0 -1
vn 0 0 -1
vn 0 0.4472656 -0.8945313
vn -0.6269531 0.4619141 -0.6269531
vn -0.7070313 0 -0.7070313
vn 0 0 -1
vn 0 0.4431152 -0.8964844
vn 0 0.4472656 0.8945313
vn 0 0 1
vn 0 0 1
vn 0 0.4472656 0.8945313
vn 0 0.4472656 0.8945313
vn 0 0 1
vn 0 0 1
vn 0 0.4472656 0.8945313
vn 0 0.4472656 0.8945313
vn 0 0 1
vn 0 0 1
vn 0 0.4472656 0.8945313
vn 0 0.4472656 0.8945313
vn 0 0 1
vn 0 0 1
vn 0 0.4538574 0.8911133
vn 0 0.4538574 0.8911133
vn 0 0 1
vn 0.7070313 0 0.7070313
vn 0.5322266 0.6586914 0.5322266
vn 0.5322266 0.6586914 0.5322266
vn 0.7070313 0 0.7070313
vn 1 0 0
vn 0.8911133 0.4538574 0
vn 0.8911133 0.4538574 0
vn 1 0 0
vn 1 0 0
vn 0.8945313 0.4472656 0
vn 0.8945313 0.4472656 0
vn 1 0 0
vn 1 0 0
vn 0.8945313 0.4472656 0
vn 0.8945313 0.4472656 0
vn 1 0 0
vn 1 0 0
vn 0.8901367 0.4553223 0
vn 0.8901367 0.4553223 0
vn 1 0 0
vn 0.1644287 0 -0.9863281
vn 0.1848145 0.6118164 -0.769043
vn 0 0.4472656 -0.8945313
vn 0 0 -1
vn 0 0 -1
vn 0 0.4472656 -0.8945313
vn 0 0.4472656 -0.8945313
vn 0 0 -1
vn 8.34465E-07 0 -1
vn 3.576279E-07 0.4472656 -0.8945313
vn 3.576279E-07 0.4472656 -0.8945313
vn 8.34465E-07 0 -1
vn 1.728535E-06 0 -1
vn 7.152557E-07 0.4472656 -0.8945313
vn 0.1848145 0.6118164 -0.769043
vn 0.1644287 0 -0.9863281
vn 0 0 -1
vn 0 0.4538574 -0.8911133
vn 0 0.4538574 -0.8911133
vn 0 0 -1
vn 0 0 -1
vn 0 0.4472656 -0.8945313
vn 0 0.4431152 0.8964844
vn 0 0 1
vn -0.7070313 0 0.7070313
vn -0.6269531 0.4619141 0.6269531
vn 9.357929E-06 0.4472656 0.8945313
vn 1.013279E-05 0 1
vn 5.066395E-06 0 1
vn 4.649162E-06 0.4472656 0.8945313
vn 4.649162E-06 0.4472656 0.8945313
vn 5.066395E-06 0 1
vn 0 0 1
vn 0 0.4472656 0.8945313
vn 0 0.4472656 0.8945313
vn 0 0 1
vn 0 0 1
vn 0 0.4472656 0.8945313
vn 0 0.4472656 0.8945313
vn 0 0 1
vn 0 0 1
vn 0 0.4472656 0.8945313
vn 0 0.4472656 0.8945313
vn 0 0 1
vn 0 0 1
vn 0 0.4431152 0.8964844
vn 0 1 0
vn 0 1 0
vn 0 1 0
vn 0 1 0
vn 0 1 0
vn 0 1 0
vn 0 1 0
vn 0 1 0
vn 0 1 0
vn 0 1 0
vn 0 1 0
vn 0 1 0
vn 0 1 0
vn 0 1 0
vn 0 1 0
vn 0 1 0
vn 0 1 0
vn 0 1 0
vn 0 1 0
vn 0 1 0
vn 0 1 0
vn 0 1 0
vn 0 1 0
vn 0 1 0
vn 0 1 0
vn 0 1 0
vn 0 1 0
vn 0 1 0
vn 0 1 0
vn 0 1 0
vn 0 1 0
vn 0 1 0
vn 0 1 0
vn 0 1 0
vn 0 1 0
vn 0 1 0
vn 0 1 0
vn 0 1 0
vn 0 1 0
vn 0 1 0
vn 0 1 0
vn 0 1 0
vn 0 1 0
vn 0 1 0
vn 0 1 0
vn 0 1 0
vn 0 1 0
vn 0 1 0
vn 0 1 0
vn 0 1 0
vn 0 1 0
vn 0 1 0
vn 0 1 0
vn 0 1 0
vn 0 1 0
vn 0 1 0
vn 0 1 0
vn 0 1 0
vn 0 1 0
vn 0 1 0
vn 2.44379E-06 0.4741211 -0.8803711
vn -0.5322266 0.6586914 -0.5322266
vn -0.1181641 0.9858398 -0.1181641
vn 1.013279E-06 0.9160156 -0.4008789
vn 0 1 0
vn 0 1 0
vn -0.5322266 0.6586914 -0.5322266
vn -0.8911133 0.4538574 0
vn -0.4343262 0.9008789 0
vn -0.1181641 0.9858398 -0.1181641
vn 0 1 0
vn 0 1 0
vn -0.8911133 0.4538574 0
vn -0.8945313 0.4472656 0
vn -0.4472656 0.8945313 0
vn -0.4343262 0.9008789 0
vn 0 1 0
vn 0 1 0
vn -0.8945313 0.4472656 0
vn -0.8945313 0.4472656 0
vn -0.4472656 0.8945313 0
vn -0.4472656 0.8945313 0
vn 0 1 0
vn 0 1 0
vn -0.8945313 0.4472656 0
vn -0.8901367 0.4553223 0
vn -0.4313965 0.9023438 0
vn -0.4472656 0.8945313 0
vn 0 1 0
vn 0 1 0
vn -0.8901367 0.4553223 0
vn -0.1848145 0.6118164 0.769043
vn -0.04794312 0.9848633 0.1678467
vn -0.4313965 0.9023438 0
vn 0 1 0
vn 0 1 0
vn -0.1848145 0.6118164 0.769043
vn 1.311302E-06 0.4741211 0.8803711
vn 8.940697E-07 0.9160156 0.4008789
vn -0.04794312 0.9848633 0.1678467
vn 0 1 0
vn 0 1 0
vn 7.152557E-07 0.4472656 -0.8945313
vn 3.576279E-07 0.4431152 -0.8964844
vn 0 0.8901367 -0.4555664
vn 0 0.8945313 -0.4472656
vn 0 1 0
vn 0 1 0
vn 3.576279E-07 0.4431152 -0.8964844
vn 0.550293 0.4580078 -0.6982422
vn 0.2919922 0.8808594 -0.3730469
vn 0 0.8901367 -0.4555664
vn 0 1 0
vn 0 1 0
vn 0.550293 0.4580078 -0.6982422
vn 0.8969727 0.442627 0
vn 0.4567871 0.8896484 0
vn 0.2919922 0.8808594 -0.3730469
vn 0 1 0
vn 0 1 0
vn 0.8969727 0.442627 0
vn 0.8945313 0.4472656 0
vn 0.4472656 0.8945313 0
vn 0.4567871 0.8896484 0
vn 0 1 0
vn 0 1 0
vn 0.8945313 0.4472656 0
vn 0.8945313 0.4472656 0
vn 0.4472656 0.8945313 0
vn 0.4472656 0.8945313 0
vn 0 1 0
vn 0 1 0
vn 0.8945313 0.4472656 0
vn 0.8945313 0.4472656 0
vn 0.4472656 0.8945313 0
vn 0.4472656 0.8945313 0
vn 0 1 0
vn 0 1 0
vn 0.8945313 0.4472656 0
vn 0.8945313 0.4472656 0
vn 0.4472656 0.8945313 0
vn 0.4472656 0.8945313 0
vn 0 1 0
vn 0 1 0
vn 0.8945313 0.4472656 0
vn 0.8964844 0.4431152 0
vn 0.4555664 0.8901367 0
vn 0.4472656 0.8945313 0
vn 0 1 0
vn 0 1 0
vn 0.8964844 0.4431152 0
vn 0.6269531 0.4619141 0.6269531
vn 0.3322754 0.8828125 0.3322754
vn 0.4555664 0.8901367 0
vn 0 1 0
vn 0 1 0
vn 0.6269531 0.4619141 0.6269531
vn 4.291534E-06 0.4431152 0.8964844
vn 2.145767E-06 0.8901367 0.4555664
vn 0.3322754 0.8828125 0.3322754
vn 0 1 0
vn 0 1 0
vn 4.291534E-06 0.4431152 0.8964844
vn 9.357929E-06 0.4472656 0.8945313
vn 4.529953E-06 0.8945313 0.4472656
vn 2.145767E-06 0.8901367 0.4555664
vn 0 1 0
vn 0 1 0
vn 2.44379E-06 0.4741211 -0.8803711
vn 2.980232E-06 0 -1
vn -0.7070313 0 -0.7070313
vn -0.5322266 0.6586914 -0.5322266
vn -0.8911133 0.4538574 0
vn -1 0 0
vn -1 0 0
vn -0.8945313 0.4472656 0
vn -0.8945313 0.4472656 0
vn -1 0 0
vn -1 0 0
vn -0.8945313 0.4472656 0
vn -0.8945313 0.4472656 0
vn -1 0 0
vn -1 0 0
vn -0.8901367 0.4553223 0
vn -0.8901367 0.4553223 0
vn -1 0 0
vn -0.1644287 0 0.9863281
vn -0.1848145 0.6118164 0.769043
vn -0.5322266 0.6586914 -0.5322266
vn -0.7070313 0 -0.7070313
vn -1 0 0
vn -0.8911133 0.4538574 0
vn -0.1848145 0.6118164 0.769043
vn -0.1644287 0 0.9863281
vn 7.152557E-07 0 1
vn 1.311302E-06 0.4741211 0.8803711
vn 7.152557E-07 0.4472656 -0.8945313
vn 1.728535E-06 0 -1
vn 7.748604E-07 0 -1
vn 3.576279E-07 0.4431152 -0.8964844
vn 3.576279E-07 0.4431152 -0.8964844
vn 7.748604E-07 0 -1
vn 0.6206055 0 -0.7841797
vn 0.550293 0.4580078 -0.6982422
vn 0.550293 0.4580078 -0.6982422
vn 0.6206055 0 -0.7841797
vn 1 0 0
vn 0.8969727 0.442627 0
vn 0.8969727 0.442627 0
vn 1 0 0
vn 1 0 0
vn 0.8945313 0.4472656 0
vn 0.8945313 0.4472656 0
vn 1 0 0
vn 1 0 0
vn 0.8945313 0.4472656 0
vn 0.8945313 0.4472656 0
vn 1 0 0
vn 1 0 0
vn 0.8945313 0.4472656 0
vn 0.8945313 0.4472656 0
vn 1 0 0
vn 1 0 0
vn 0.8945313 0.4472656 0
vn 0.8945313 0.4472656 0
vn 1 0 0
vn 1 0 0
vn 0.8964844 0.4431152 0
vn 0.8964844 0.4431152 0
vn 1 0 0
vn 0.7070313 0 0.7070313
vn 0.6269531 0.4619141 0.6269531
vn 0.6269531 0.4619141 0.6269531
vn 0.7070313 0 0.7070313
vn 4.887581E-06 0 1
vn 4.291534E-06 0.4431152 0.8964844
vn 4.291534E-06 0.4431152 0.8964844
vn 4.887581E-06 0 1
vn 1.072884E-05 0 1
vn 9.357929E-06 0.4472656 0.8945313
vn 0 1 0
vn 0 1 0
vn 0 1 0
vn 0 1 0
vn 0 1 0
vn 0 1 0
vn 0 1 0
vn 0 1 0
vn 0 1 0
vn 0 1 0
vn 0 1 0
vn 0 1 0
vn 0 1 0
vn 0 1 0
vn 0 1 0
vn 0 1 0
vn 0 0.4472656 -0.8945313
vn 0 0.4431152 -0.8964844
vn 0 0.8901367 -0.4555664
vn 0 0.8945313 -0.4472656
vn 0 1 0
vn 0 1 0
vn 0 0.4431152 -0.8964844
vn 0.6269531 0.4619141 -0.6269531
vn 0.3322754 0.8828125 -0.3322754
vn 0 0.8901367 -0.4555664
vn 0 1 0
vn 0 1 0
vn 0.6269531 0.4619141 -0.6269531
vn 0.8994141 0.4375 0
vn 0.4677734 0.8837891 0
vn 0.3322754 0.8828125 -0.3322754
vn 0 1 0
vn 0 1 0
vn 0.8994141 0.4375 0
vn 0.4470215 0.4465332 0.7749023
vn 0.2391357 0.8740234 0.4230957
vn 0.4677734 0.8837891 0
vn 0 1 0
vn 0 1 0
vn 0.4470215 0.4465332 0.7749023
vn 0 0.4431152 0.8964844
vn 0 0.8901367 0.4555664
vn 0.2391357 0.8740234 0.4230957
vn 0 1 0
vn 0 1 0
vn 0 0.4431152 0.8964844
vn 0 0.4472656 0.8945313
vn 0 0.8945313 0.4472656
vn 0 0.8901367 0.4555664
vn 0 1 0
vn 0 1 0
vn 0 0.4472656 -0.8945313
vn 0 0 -1
vn 0 0 -1
vn 0 0.4431152 -0.8964844
vn 0 0.4431152 -0.8964844
vn 0 0 -1
vn 0.7070313 0 -0.7070313
vn 0.6269531 0.4619141 -0.6269531
vn 0.8994141 0.4375 0
vn 1 0 0
vn 0.5039063 0 0.8637695
vn 0.4470215 0.4465332 0.7749023
vn 0.6269531 0.4619141 -0.6269531
vn 0.7070313 0 -0.7070313
vn 1 0 0
vn 0.8994141 0.4375 0
vn 0.4470215 0.4465332 0.7749023
vn 0.5039063 0 0.8637695
vn 0 0 1
vn 0 0.4431152 0.8964844
vn 0 0.4431152 0.8964844
vn 0 0 1
vn 0 0 1
vn 0 0.4472656 0.8945313
g bonus_ground_5_top_0
f 3/3/3 2/2/2 1/1/1
f 4/4/4 3/3/3 1/1/1
f 7/7/7 6/6/6 5/5/5
f 8/8/8 7/7/7 5/5/5
f 11/11/11 10/10/10 9/9/9
f 12/12/12 11/11/11 9/9/9
f 15/15/15 14/14/14 13/13/13
f 16/16/16 15/15/15 13/13/13
f 19/19/19 18/18/18 17/17/17
f 20/20/20 19/19/19 17/17/17
f 23/23/23 22/22/22 21/21/21
f 24/24/24 23/23/23 21/21/21
f 24/24/24 25/25/25 23/23/23
f 25/25/25 26/26/26 23/23/23
f 29/29/29 28/28/28 27/27/27
f 30/30/30 29/29/29 27/27/27
f 33/33/33 32/32/32 31/31/31
f 34/34/34 33/33/33 31/31/31
f 37/37/37 36/36/36 35/35/35
f 38/38/38 37/37/37 35/35/35
f 41/41/41 40/40/40 39/39/39
f 42/42/42 41/41/41 39/39/39
f 42/42/42 43/43/43 41/41/41
f 43/43/43 44/44/44 41/41/41
f 47/47/47 46/46/46 45/45/45
f 48/48/48 47/47/47 45/45/45
f 51/51/51 50/50/50 49/49/49
f 52/52/52 51/51/51 49/49/49
f 55/55/55 54/54/54 53/53/53
f 56/56/56 55/55/55 53/53/53
f 59/59/59 58/58/58 57/57/57
f 60/60/60 59/59/59 57/57/57
f 63/63/63 62/62/62 61/61/61
f 64/64/64 63/63/63 61/61/61
f 67/67/67 66/66/66 65/65/65
f 68/68/68 67/67/67 65/65/65
f 71/71/71 70/70/70 69/69/69
f 72/72/72 71/71/71 69/69/69
f 75/75/75 74/74/74 73/73/73
f 76/76/76 75/75/75 73/73/73
f 79/79/79 78/78/78 77/77/77
f 80/80/80 79/79/79 77/77/77
f 83/83/83 82/82/82 81/81/81
f 84/84/84 83/83/83 81/81/81
f 87/87/87 86/86/86 85/85/85
f 88/88/88 87/87/87 85/85/85
f 91/91/91 90/90/90 89/89/89
f 92/92/92 91/91/91 89/89/89
f 95/95/95 94/94/94 93/93/93
f 96/96/96 95/95/95 93/93/93
f 99/99/99 98/98/98 97/97/97
f 100/100/100 99/99/99 97/97/97
f 103/103/103 102/102/102 101/101/101
f 104/104/104 103/103/103 101/101/101
f 107/107/107 106/106/106 105/105/105
f 108/108/108 107/107/107 105/105/105
f 111/111/111 110/110/110 109/109/109
f 112/112/112 111/111/111 109/109/109
f 115/115/115 114/114/114 113/113/113
f 116/116/116 115/115/115 113/113/113
f 119/119/119 118/118/118 117/117/117
f 120/120/120 119/119/119 117/117/117
f 123/123/123 122/122/122 121/121/121
f 124/124/124 123/123/123 121/121/121
f 127/127/127 126/126/126 125/125/125
f 128/128/128 127/127/127 125/125/125
f 131/131/131 130/130/130 129/129/129
f 132/132/132 131/131/131 129/129/129
f 135/135/135 134/134/134 133/133/133
f 136/136/136 135/135/135 133/133/133
f 139/139/139 138/138/138 137/137/137
f 140/140/140 139/139/139 137/137/137
f 143/143/143 142/142/142 141/141/141
f 144/144/144 143/143/143 141/141/141
f 147/147/147 146/146/146 145/145/145
f 148/148/148 147/147/147 145/145/145
f 151/151/151 150/150/150 149/149/149
f 152/152/152 151/151/151 149/149/149
f 155/155/155 154/154/154 153/153/153
f 156/156/156 155/155/155 153/153/153
f 159/159/159 158/158/158 157/157/157
f 160/160/160 159/159/159 157/157/157
f 163/163/163 162/162/162 161/161/161
f 164/164/164 163/163/163 161/161/161
f 167/167/167 166/166/166 165/165/165
f 168/168/168 167/167/167 165/165/165
f 171/171/171 170/170/170 169/169/169
f 172/172/172 171/171/171 169/169/169
f 175/175/175 174/174/174 173/173/173
f 174/174/174 176/176/176 173/173/173
f 173/173/173 176/176/176 177/177/177
f 178/178/178 173/173/173 177/177/177
f 181/181/181 180/180/180 179/179/179
f 182/182/182 181/181/181 179/179/179
f 181/181/181 182/182/182 183/183/183
f 184/184/184 181/181/181 183/183/183
f 187/187/187 186/186/186 185/185/185
f 188/188/188 187/187/187 185/185/185
f 187/187/187 188/188/188 189/189/189
f 190/190/190 187/187/187 189/189/189
f 193/193/193 192/192/192 191/191/191
f 192/192/192 194/194/194 191/191/191
f 191/191/191 194/194/194 195/195/195
f 196/196/196 191/191/191 195/195/195
f 199/199/199 198/198/198 197/197/197
f 198/198/198 200/200/200 197/197/197
f 197/197/197 200/200/200 201/201/201
f 202/202/202 197/197/197 201/201/201
f 205/205/205 204/204/204 203/203/203
f 206/206/206 205/205/205 203/203/203
f 205/205/205 206/206/206 207/207/207
f 208/208/208 205/205/205 207/207/207
f 211/211/211 210/210/210 209/209/209
f 212/212/212 211/211/211 209/209/209
f 211/211/211 212/212/212 213/213/213
f 214/214/214 211/211/211 213/213/213
f 217/217/217 216/216/216 215/215/215
f 218/218/218 217/217/217 215/215/215
f 217/217/217 218/218/218 219/219/219
f 220/220/220 217/217/217 219/219/219
f 223/223/223 222/222/222 221/221/221
f 224/224/224 223/223/223 221/221/221
f 223/223/223 224/224/224 225/225/225
f 226/226/226 223/223/223 225/225/225
f 229/229/229 228/228/228 227/227/227
f 230/230/230 229/229/229 227/227/227
f 229/229/229 230/230/230 231/231/231
f 232/232/232 229/229/229 231/231/231
f 235/235/235 234/234/234 233/233/233
f 236/236/236 235/235/235 233/233/233
f 235/235/235 236/236/236 237/237/237
f 238/238/238 235/235/235 237/237/237
f 241/241/241 240/240/240 239/239/239
f 242/242/242 241/241/241 239/239/239
f 241/241/241 242/242/242 243/243/243
f 244/244/244 241/241/241 243/243/243
f 247/247/247 246/246/246 245/245/245
f 248/248/248 247/247/247 245/245/245
f 247/247/247 248/248/248 249/249/249
f 250/250/250 247/247/247 249/249/249
f 253/253/253 252/252/252 251/251/251
f 254/254/254 253/253/253 251/251/251
f 253/253/253 254/254/254 255/255/255
f 256/256/256 253/253/253 255/255/255
f 259/259/259 258/258/258 257/257/257
f 260/260/260 259/259/259 257/257/257
f 259/259/259 260/260/260 261/261/261
f 262/262/262 259/259/259 261/261/261
f 265/265/265 264/264/264 263/263/263
f 266/266/266 265/265/265 263/263/263
f 265/265/265 266/266/266 267/267/267
f 268/268/268 265/265/265 267/267/267
f 271/271/271 270/270/270 269/269/269
f 272/272/272 271/271/271 269/269/269
f 271/271/271 272/272/272 273/273/273
f 274/274/274 271/271/271 273/273/273
f 277/277/277 276/276/276 275/275/275
f 278/278/278 277/277/277 275/275/275
f 277/277/277 278/278/278 279/279/279
f 280/280/280 277/277/277 279/279/279
f 283/283/283 282/282/282 281/281/281
f 284/284/284 283/283/283 281/281/281
f 283/283/283 284/284/284 285/285/285
f 286/286/286 283/283/283 285/285/285
f 289/289/289 288/288/288 287/287/287
f 290/290/290 289/289/289 287/287/287
f 289/289/289 290/290/290 291/291/291
f 292/292/292 289/289/289 291/291/291
f 295/295/295 294/294/294 293/293/293
f 296/296/296 295/295/295 293/293/293
f 295/295/295 296/296/296 297/297/297
f 298/298/298 295/295/295 297/297/297
f 301/301/301 300/300/300 299/299/299
f 302/302/302 301/301/301 299/299/299
f 301/301/301 302/302/302 303/303/303
f 304/304/304 301/301/301 303/303/303
f 307/307/307 306/306/306 305/305/305
f 308/308/308 307/307/307 305/305/305
f 307/307/307 308/308/308 309/309/309
f 310/310/310 307/307/307 309/309/309
f 313/313/313 312/312/312 311/311/311
f 314/314/314 313/313/313 311/311/311
f 313/313/313 314/314/314 315/315/315
f 316/316/316 313/313/313 315/315/315
f 319/319/319 318/318/318 317/317/317
f 320/320/320 319/319/319 317/317/317
f 319/319/319 320/320/320 321/321/321
f 322/322/322 319/319/319 321/321/321
f 325/325/325 324/324/324 323/323/323
f 326/326/326 325/325/325 323/323/323
f 325/325/325 326/326/326 327/327/327
f 328/328/328 325/325/325 327/327/327
f 331/331/331 330/330/330 329/329/329
f 332/332/332 331/331/331 329/329/329
f 331/331/331 332/332/332 333/333/333
f 334/334/334 331/331/331 333/333/333
f 337/337/337 336/336/336 335/335/335
f 338/338/338 337/337/337 335/335/335
f 337/337/337 338/338/338 339/339/339
f 340/340/340 337/337/337 339/339/339
f 343/343/343 342/342/342 341/341/341
f 344/344/344 343/343/343 341/341/341
f 343/343/343 344/344/344 345/345/345
f 346/346/346 343/343/343 345/345/345
f 349/349/349 348/348/348 347/347/347
f 350/350/350 349/349/349 347/347/347
f 349/349/349 350/350/350 351/351/351
f 352/352/352 349/349/349 351/351/351
f 355/355/355 354/354/354 353/353/353
f 356/356/356 355/355/355 353/353/353
f 355/355/355 356/356/356 357/357/357
f 358/358/358 355/355/355 357/357/357
f 361/361/361 360/360/360 359/359/359
f 362/362/362 361/361/361 359/359/359
f 361/361/361 362/362/362 363/363/363
f 364/364/364 361/361/361 363/363/363
f 367/367/367 366/366/366 365/365/365
f 368/368/368 367/367/367 365/365/365
f 367/367/367 368/368/368 369/369/369
f 370/370/370 367/367/367 369/369/369
f 373/373/373 372/372/372 371/371/371
f 374/374/374 373/373/373 371/371/371
f 373/373/373 374/374/374 375/375/375
f 376/376/376 373/373/373 375/375/375
f 379/379/379 378/378/378 377/377/377
f 380/380/380 379/379/379 377/377/377
f 379/379/379 380/380/380 381/381/381
f 382/382/382 379/379/379 381/381/381
f 385/385/385 384/384/384 383/383/383
f 386/386/386 385/385/385 383/383/383
f 385/385/385 386/386/386 387/387/387
f 388/388/388 385/385/385 387/387/387
f 391/391/391 390/390/390 389/389/389
f 392/392/392 391/391/391 389/389/389
f 391/391/391 392/392/392 393/393/393
f 394/394/394 391/391/391 393/393/393
f 397/397/397 396/396/396 395/395/395
f 398/398/398 397/397/397 395/395/395
f 397/397/397 398/398/398 399/399/399
f 400/400/400 397/397/397 399/399/399
f 403/403/403 402/402/402 401/401/401
f 404/404/404 403/403/403 401/401/401
f 403/403/403 404/404/404 405/405/405
f 406/406/406 403/403/403 405/405/405
f 409/409/409 408/408/408 407/407/407
f 408/408/408 410/410/410 407/407/407
f 407/407/407 410/410/410 411/411/411
f 412/412/412 407/407/407 411/411/411
f 415/415/415 414/414/414 413/413/413
f 416/416/416 415/415/415 413/413/413
f 415/415/415 416/416/416 417/417/417
f 418/418/418 415/415/415 417/417/417
f 421/421/421 420/420/420 419/419/419
f 422/422/422 421/421/421 419/419/419
f 421/421/421 422/422/422 423/423/423
f 424/424/424 421/421/421 423/423/423
f 427/427/427 426/426/426 425/425/425
f 428/428/428 427/427/427 425/425/425
f 427/427/427 428/428/428 429/429/429
f 430/430/430 427/427/427 429/429/429
f 433/433/433 432/432/432 431/431/431
f 432/432/432 434/434/434 431/431/431
f 431/431/431 434/434/434 435/435/435
f 436/436/436 431/431/431 435/435/435
f 439/439/439 438/438/438 437/437/437
f 440/440/440 439/439/439 437/437/437
f 439/439/439 440/440/440 441/441/441
f 442/442/442 439/439/439 441/441/441
f 445/445/445 444/444/444 443/443/443
f 446/446/446 445/445/445 443/443/443
f 445/445/445 446/446/446 447/447/447
f 448/448/448 445/445/445 447/447/447
f 451/451/451 450/450/450 449/449/449
f 452/452/452 451/451/451 449/449/449
f 451/451/451 452/452/452 453/453/453
f 454/454/454 451/451/451 453/453/453
f 457/457/457 456/456/456 455/455/455
f 458/458/458 457/457/457 455/455/455
f 457/457/457 458/458/458 459/459/459
f 460/460/460 457/457/457 459/459/459
f 463/463/463 462/462/462 461/461/461
f 464/464/464 463/463/463 461/461/461
f 467/467/467 466/466/466 465/465/465
f 468/468/468 467/467/467 465/465/465
f 471/471/471 470/470/470 469/469/469
f 472/472/472 471/471/471 469/469/469
f 475/475/475 474/474/474 473/473/473
f 476/476/476 475/475/475 473/473/473
f 479/479/479 478/478/478 477/477/477
f 480/480/480 479/479/479 477/477/477
f 483/483/483 482/482/482 481/481/481
f 484/484/484 483/483/483 481/481/481
f 487/487/487 486/486/486 485/485/485
f 488/488/488 487/487/487 485/485/485
f 491/491/491 490/490/490 489/489/489
f 492/492/492 491/491/491 489/489/489
f 495/495/495 494/494/494 493/493/493
f 496/496/496 495/495/495 493/493/493
f 499/499/499 498/498/498 497/497/497
f 500/500/500 499/499/499 497/497/497
f 503/503/503 502/502/502 501/501/501
f 504/504/504 503/503/503 501/501/501
f 507/507/507 506/506/506 505/505/505
f 508/508/508 507/507/507 505/505/505
f 511/511/511 510/510/510 509/509/509
f 512/512/512 511/511/511 509/509/509
f 515/515/515 514/514/514 513/513/513
f 516/516/516 515/515/515 513/513/513
f 519/519/519 518/518/518 517/517/517
f 520/520/520 519/519/519 517/517/517
f 523/523/523 522/522/522 521/521/521
f 524/524/524 523/523/523 521/521/521
f 527/527/527 526/526/526 525/525/525
f 528/528/528 527/527/527 525/525/525
f 531/531/531 530/530/530 529/529/529
f 532/532/532 531/531/531 529/529/529
f 535/535/535 534/534/534 533/533/533
f 536/536/536 535/535/535 533/533/533
f 539/539/539 538/538/538 537/537/537
f 540/540/540 539/539/539 537/537/537
f 543/543/543 542/542/542 541/541/541
f 544/544/544 543/543/543 541/541/541
f 547/547/547 546/546/546 545/545/545
f 548/548/548 547/547/547 545/545/545
f 551/551/551 550/550/550 549/549/549
f 552/552/552 551/551/551 549/549/549
f 555/555/555 554/554/554 553/553/553
f 556/556/556 555/555/555 553/553/553
f 559/559/559 558/558/558 557/557/557
f 560/560/560 559/559/559 557/557/557
f 563/563/563 562/562/562 561/561/561
f 564/564/564 563/563/563 561/561/561
f 567/567/567 566/566/566 565/565/565
f 568/568/568 567/567/567 565/565/565
f 571/571/571 570/570/570 569/569/569
f 572/572/572 571/571/571 569/569/569
f 575/575/575 574/574/574 573/573/573
f 576/576/576 575/575/575 573/573/573
f 579/579/579 578/578/578 577/577/577
f 580/580/580 579/579/579 577/577/577
f 583/583/583 582/582/582 581/581/581
f 584/584/584 583/583/583 581/581/581
f 587/587/587 586/586/586 585/585/585
f 588/588/588 587/587/587 585/585/585
f 591/591/591 590/590/590 589/589/589
f 592/592/592 591/591/591 589/589/589
f 595/595/595 594/594/594 593/593/593
f 596/596/596 595/595/595 593/593/593
f 599/599/599 598/598/598 597/597/597
f 600/600/600 599/599/599 597/597/597
f 603/603/603 602/602/602 601/601/601
f 604/604/604 603/603/603 601/601/601
f 607/607/607 606/606/606 605/605/605
f 608/608/608 607/607/607 605/605/605
f 611/611/611 610/610/610 609/609/609
f 612/612/612 611/611/611 609/609/609
f 615/615/615 614/614/614 613/613/613
f 616/616/616 615/615/615 613/613/613
f 619/619/619 618/618/618 617/617/617
f 620/620/620 619/619/619 617/617/617
f 623/623/623 622/622/622 621/621/621
f 624/624/624 623/623/623 621/621/621
f 627/627/627 626/626/626 625/625/625
f 628/628/628 627/627/627 625/625/625
f 631/631/631 630/630/630 629/629/629
f 632/632/632 631/631/631 629/629/629
f 635/635/635 634/634/634 633/633/633
f 636/636/636 635/635/635 633/633/633
f 639/639/639 638/638/638 637/637/637
f 640/640/640 639/639/639 637/637/637
f 643/643/643 642/642/642 641/641/641
f 644/644/644 643/643/643 641/641/641
f 647/647/647 646/646/646 645/645/645
f 648/648/648 647/647/647 645/645/645
f 651/651/651 650/650/650 649/649/649
f 652/652/652 651/651/651 649/649/649
f 655/655/655 654/654/654 653/653/653
f 656/656/656 655/655/655 653/653/653
f 659/659/659 658/658/658 657/657/657
f 660/660/660 659/659/659 657/657/657
f 663/663/663 662/662/662 661/661/661
f 664/664/664 663/663/663 661/661/661
f 667/667/667 666/666/666 665/665/665
f 668/668/668 667/667/667 665/665/665
f 671/671/671 670/670/670 669/669/669
f 672/672/672 671/671/671 669/669/669
f 675/675/675 674/674/674 673/673/673
f 676/676/676 675/675/675 673/673/673
f 679/679/679 678/678/678 677/677/677
f 680/680/680 679/679/679 677/677/677
f 683/683/683 682/682/682 681/681/681
f 684/684/684 683/683/683 681/681/681
f 687/687/687 686/686/686 685/685/685
f 688/688/688 687/687/687 685/685/685
f 691/691/691 690/690/690 689/689/689
f 692/692/692 691/691/691 689/689/689
f 692/692/692 693/693/693 691/691/691
f 693/693/693 694/694/694 691/691/691
f 697/697/697 696/696/696 695/695/695
f 698/698/698 697/697/697 695/695/695
f 701/701/701 700/700/700 699/699/699
f 702/702/702 701/701/701 699/699/699
f 705/705/705 704/704/704 703/703/703
f 706/706/706 705/705/705 703/703/703
f 709/709/709 708/708/708 707/707/707
f 710/710/710 709/709/709 707/707/707
f 711/711/711 710/710/710 707/707/707
f 712/712/712 711/711/711 707/707/707
f 715/715/715 714/714/714 713/713/713
f 716/716/716 715/715/715 713/713/713
f 715/715/715 716/716/716 717/717/717
f 718/718/718 715/715/715 717/717/717
f 721/721/721 720/720/720 719/719/719
f 722/722/722 721/721/721 719/719/719
f 721/721/721 722/722/722 723/723/723
f 724/724/724 721/721/721 723/723/723
f 727/727/727 726/726/726 725/725/725
f 728/728/728 727/727/727 725/725/725
f 727/727/727 728/728/728 729/729/729
f 730/730/730 727/727/727 729/729/729
f 733/733/733 732/732/732 731/731/731
f 734/734/734 733/733/733 731/731/731
f 733/733/733 734/734/734 735/735/735
f 736/736/736 733/733/733 735/735/735
f 739/739/739 738/738/738 737/737/737
f 740/740/740 739/739/739 737/737/737
f 739/739/739 740/740/740 741/741/741
f 742/742/742 739/739/739 741/741/741
f 745/745/745 744/744/744 743/743/743
f 746/746/746 745/745/745 743/743/743
f 745/745/745 746/746/746 747/747/747
f 748/748/748 745/745/745 747/747/747
f 751/751/751 750/750/750 749/749/749
f 752/752/752 751/751/751 749/749/749
f 751/751/751 752/752/752 753/753/753
f 754/754/754 751/751/751 753/753/753
f 757/757/757 756/756/756 755/755/755
f 758/758/758 757/757/757 755/755/755
f 757/757/757 758/758/758 759/759/759
f 760/760/760 757/757/757 759/759/759
f 763/763/763 762/762/762 761/761/761
f 764/764/764 763/763/763 761/761/761
f 763/763/763 764/764/764 765/765/765
f 766/766/766 763/763/763 765/765/765
f 769/769/769 768/768/768 767/767/767
f 770/770/770 769/769/769 767/767/767
f 769/769/769 770/770/770 771/771/771
f 772/772/772 769/769/769 771/771/771
f 775/775/775 774/774/774 773/773/773
f 776/776/776 775/775/775 773/773/773
f 775/775/775 776/776/776 777/777/777
f 778/778/778 775/775/775 777/777/777
f 781/781/781 780/780/780 779/779/779
f 782/782/782 781/781/781 779/779/779
f 781/781/781 782/782/782 783/783/783
f 784/784/784 781/781/781 783/783/783
f 787/787/787 786/786/786 785/785/785
f 788/788/788 787/787/787 785/785/785
f 787/787/787 788/788/788 789/789/789
f 790/790/790 787/787/787 789/789/789
f 793/793/793 792/792/792 791/791/791
f 794/794/794 793/793/793 791/791/791
f 793/793/793 794/794/794 795/795/795
f 796/796/796 793/793/793 795/795/795
f 799/799/799 798/798/798 797/797/797
f 800/800/800 799/799/799 797/797/797
f 799/799/799 800/800/800 801/801/801
f 802/802/802 799/799/799 801/801/801
f 805/805/805 804/804/804 803/803/803
f 806/806/806 805/805/805 803/803/803
f 805/805/805 806/806/806 807/807/807
f 808/808/808 805/805/805 807/807/807
f 811/811/811 810/810/810 809/809/809
f 812/812/812 811/811/811 809/809/809
f 811/811/811 812/812/812 813/813/813
f 814/814/814 811/811/811 813/813/813
f 817/817/817 816/816/816 815/815/815
f 818/818/818 817/817/817 815/815/815
f 817/817/817 818/818/818 819/819/819
f 820/820/820 817/817/817 819/819/819
f 823/823/823 822/822/822 821/821/821
f 824/824/824 823/823/823 821/821/821
f 827/827/827 826/826/826 825/825/825
f 828/828/828 827/827/827 825/825/825
f 831/831/831 830/830/830 829/829/829
f 832/832/832 831/831/831 829/829/829
f 835/835/835 834/834/834 833/833/833
f 836/836/836 835/835/835 833/833/833
f 839/839/839 838/838/838 837/837/837
f 840/840/840 839/839/839 837/837/837
f 843/843/843 842/842/842 841/841/841
f 844/844/844 843/843/843 841/841/841
f 847/847/847 846/846/846 845/845/845
f 848/848/848 847/847/847 845/845/845
f 851/851/851 850/850/850 849/849/849
f 852/852/852 851/851/851 849/849/849
f 855/855/855 854/854/854 853/853/853
f 856/856/856 855/855/855 853/853/853
f 859/859/859 858/858/858 857/857/857
f 860/860/860 859/859/859 857/857/857
f 863/863/863 862/862/862 861/861/861
f 864/864/864 863/863/863 861/861/861
f 867/867/867 866/866/866 865/865/865
f 868/868/868 867/867/867 865/865/865
f 871/871/871 870/870/870 869/869/869
f 872/872/872 871/871/871 869/869/869
f 875/875/875 874/874/874 873/873/873
f 876/876/876 875/875/875 873/873/873
f 879/879/879 878/878/878 877/877/877
f 880/880/880 879/879/879 877/877/877
f 883/883/883 882/882/882 881/881/881
f 884/884/884 883/883/883 881/881/881
f 887/887/887 886/886/886 885/885/885
f 888/888/888 887/887/887 885/885/885
f 891/891/891 890/890/890 889/889/889
f 892/892/892 891/891/891 889/889/889
f 895/895/895 894/894/894 893/893/893
f 896/896/896 895/895/895 893/893/893
f 899/899/899 898/898/898 897/897/897
f 900/900/900 899/899/899 897/897/897
f 903/903/903 902/902/902 901/901/901
f 904/904/904 903/903/903 901/901/901
f 907/907/907 906/906/906 905/905/905
f 908/908/908 907/907/907 905/905/905
f 911/911/911 910/910/910 909/909/909
f 912/912/912 911/911/911 909/909/909
f 911/911/911 912/912/912 913/913/913
f 914/914/914 911/911/911 913/913/913
f 917/917/917 916/916/916 915/915/915
f 918/918/918 917/917/917 915/915/915
f 917/917/917 918/918/918 919/919/919
f 920/920/920 917/917/917 919/919/919
f 923/923/923 922/922/922 921/921/921
f 924/924/924 923/923/923 921/921/921
f 923/923/923 924/924/924 925/925/925
f 926/926/926 923/923/923 925/925/925
f 929/929/929 928/928/928 927/927/927
f 930/930/930 929/929/929 927/927/927
f 929/929/929 930/930/930 931/931/931
f 932/932/932 929/929/929 931/931/931
f 935/935/935 934/934/934 933/933/933
f 936/936/936 935/935/935 933/933/933
f 935/935/935 936/936/936 937/937/937
f 938/938/938 935/935/935 937/937/937
f 941/941/941 940/940/940 939/939/939
f 942/942/942 941/941/941 939/939/939
f 941/941/941 942/942/942 943/943/943
f 944/944/944 941/941/941 943/943/943
f 947/947/947 946/946/946 945/945/945
f 948/948/948 947/947/947 945/945/945
f 951/951/951 950/950/950 949/949/949
f 952/952/952 951/951/951 949/949/949
f 955/955/955 954/954/954 953/953/953
f 956/956/956 955/955/955 953/953/953
f 959/959/959 958/958/958 957/957/957
f 960/960/960 959/959/959 957/957/957
f 963/963/963 962/962/962 961/961/961
f 964/964/964 963/963/963 961/961/961
f 967/967/967 966/966/966 965/965/965
f 968/968/968 967/967/967 965/965/965
