g bonus_ground_5_side
v -0.01025002 -0.02 0.01099997
v -0.01025002 0 0.01099997
v -0.01025002 0 0.01525002
v -0.01025002 -0.02 0.01525002
v 0.005999975 -0.02 0.01099998
v 0.005999975 2.354602E-18 0.01099998
v -0.01025002 0 0.01099997
v -0.01025002 -0.02 0.01099997
v -0.01025002 -0.02 -0.01525002
v -0.01025002 0 -0.01525002
v -0.01025002 0 0.002125025
v -0.01025002 -0.02 0.002125025
v 0.01025002 -0.02 -0.01525002
v 0.01025002 -5.643827E-20 -0.01525002
v -0.01025002 0 -0.01525002
v -0.01025002 -0.02 -0.01525002
v -0.005999975 -0.02 -0.002125025
v -0.005999975 1.733212E-19 -0.002125025
v -0.005999975 -9.437598E-11 -0.01099997
v -0.005999975 -0.02 -0.01099997
v 0.01025002 -0.02 -0.002125034
v 0.01025002 -1.80412E-19 -0.002125034
v -0.005999975 1.733212E-19 -0.002125025
v -0.005999975 -0.02 -0.002125025
v 0.005999975 -0.02 0.002125022
v 0.005999975 -1.665835E-10 0.002125022
v 0.005999975 2.354602E-18 0.01099998
v 0.005999975 -0.02 0.01099998
v -0.01025002 -0.02 0.002125025
v -0.01025002 0 0.002125025
v 0.005999975 -1.665835E-10 0.002125022
v 0.005999975 -0.02 0.002125022
v 0.01025002 -0.02 0.01524997
v 0.01025002 1.508623E-19 0.01524997
v 0.01025002 -1.80412E-19 -0.002125034
v 0.01025002 -0.02 -0.002125034
v -0.01025002 -0.02 0.01525002
v -0.01025002 0 0.01525002
v 0.01025002 1.508623E-19 0.01524997
v 0.01025002 -0.02 0.01524997
v 0.01025002 -0.02 -0.01099997
v 0.01025002 -3.298142E-19 -0.01099997
v 0.01025002 -5.643827E-20 -0.01525002
v 0.01025002 -0.02 -0.01525002
v -0.005999975 -0.02 -0.01099997
v -0.005999975 -9.437598E-11 -0.01099997
v 0.01025002 -3.298142E-19 -0.01099997
v 0.01025002 -0.02 -0.01099997
vt 1 1
vt 1 0
vt 0 0
vt 0 1
vt 1 1
vt 1 0
vt 0 0
vt 0 1
vt 1 1
vt 1 0
vt 0 0
vt 0 1
vt 1 1
vt 1 0
vt 0 0
vt 0 1
vt 1 1
vt 1 0
vt 0 0
vt 0 1
vt 1 1
vt 1 0
vt 0 0
vt 0 1
vt 1 1
vt 1 0
vt 0 0
vt 0 1
vt 1 1
vt 1 0
vt 0 0
vt 0 1
vt 1 1
vt 1 0
vt 0 0
vt 0 1
vt 1 1
vt 1 0
vt 0 0
vt 0 1
vt 1 1
vt 1 0
vt 0 0
vt 0 1
vt 1 1
vt 1 0
vt 0 0
vt 0 1
vn -1 0 0
vn -1 0 0
vn -1 0 0
vn -1 0 0
vn 2.934383E-07 0 -1
vn 2.934383E-07 0 -1
vn 2.934383E-07 0 -1
vn 2.934383E-07 0 -1
vn -1 0 0
vn -1 0 0
vn -1 0 0
vn -1 0 0
vn 0 0 -1
vn 0 0 -1
vn 0 0 -1
vn 0 0 -1
vn 1 0 0
vn 1 0 0
vn 1 0 0
vn 1 0 0
vn -5.685366E-07 0 -1
vn -5.685366E-07 0 -1
vn -5.685366E-07 0 -1
vn -5.685366E-07 0 -1
vn -1 0 0
vn -1 0 0
vn -1 0 0
vn -1 0 0
vn 1.558891E-07 0 1
vn 1.558891E-07 0 1
vn 1.558891E-07 0 1
vn 1.558891E-07 0 1
vn 1 0 0
vn 1 0 0
vn 1 0 0
vn 1 0 0
vn 2.558632E-06 0 1
vn 2.558632E-06 0 1
vn 2.558632E-06 0 1
vn 2.558632E-06 0 1
vn 1 0 0
vn 1 0 0
vn 1 0 0
vn 1 0 0
vn 0 0 1
vn 0 0 1
vn 0 0 1
vn 0 0 1
g bonus_ground_5_side_0
f 3/3/3 2/2/2 1/1/1
f 4/4/4 3/3/3 1/1/1
f 7/7/7 6/6/6 5/5/5
f 8/8/8 7/7/7 5/5/5
f 11/11/11 10/10/10 9/9/9
f 12/12/12 11/11/11 9/9/9
f 15/15/15 14/14/14 13/13/13
f 16/16/16 15/15/15 13/13/13
f 19/19/19 18/18/18 17/17/17
f 20/20/20 19/19/19 17/17/17
f 23/23/23 22/22/22 21/21/21
f 24/24/24 23/23/23 21/21/21
f 27/27/27 26/26/26 25/25/25
f 28/28/28 27/27/27 25/25/25
f 31/31/31 30/30/30 29/29/29
f 32/32/32 31/31/31 29/29/29
f 35/35/35 34/34/34 33/33/33
f 36/36/36 35/35/35 33/33/33
f 39/39/39 38/38/38 37/37/37
f 40/40/40 39/39/39 37/37/37
f 43/43/43 42/42/42 41/41/41
f 44/44/44 43/43/43 41/41/41
f 47/47/47 46/46/46 45/45/45
f 48/48/48 47/47/47 45/45/45
