g bonus_ground_8_side
v 0.003535536 -0.02 -0.003535532
v 0.003535536 0 -0.003535532
v 0.001913419 0 -0.004619396
v 0.001913419 -0.02 -0.004619396
v 0 0 -0.004999999
v 0 -0.02 -0.004999999
v 0 -0.02 0.005
v 0 0 0.005
v 0.001913417 0 0.004619398
v 0.001913417 -0.02 0.004619398
v 0.003535534 0 0.003535534
v 0.003535534 -0.02 0.003535534
v 0.003535536 0 -0.003535532
v 0.003535536 -0.02 -0.003535532
v 0.009848698 -0.02 -0.01
v 0.009848698 0 -0.01
v 0.02028615 -0.02 -0.01
v 0.02028615 0 -0.01
v 0.009848698 0 0.01
v 0.003535534 -0.02 0.003535534
v 0.003535534 0 0.003535534
v 0.009848698 -0.02 0.01
v 0.02028615 -0.02 0.01
v 0.02028615 0 0.01
v 0.0115152 -0.01921342 0.00333334
v 0.01673392 0 0.00333334
v 0.0115152 0 0.00333334
v 0.01673392 -0.01921342 0.00333334
v 0.01673392 -0.01921342 -0.00333333
v 0.01673392 0 -0.00333333
v 0.0115152 -0.01921342 -0.00333333
v 0.0115152 0 -0.00333333
v 0.02361915 0 0.006667003
v 0.02028615 -0.02 0.01
v 0.02028615 0 0.01
v 0.02361915 -0.02 0.006667003
v 0.02361915 0 -0.006667003
v 0.02361915 -0.02 -0.006667003
v 0.02028615 0 -0.01
v 0.02028615 -0.02 -0.01
v 0.009848698 0 0.001666839
v 0.0115152 -0.01921342 0.00333334
v 0.0115152 0 0.00333334
v 0.009848698 -0.01921342 0.001666839
v 0.009848698 -0.01921342 -0.001666829
v 0.009848698 0 -0.001666829
v 0.0115152 0 -0.00333333
v 0.0115152 -0.01921342 -0.00333333
v -0.003535536 -0.02 -0.003535532
v -0.001913419 0 -0.004619396
v -0.003535536 0 -0.003535532
v -0.001913419 -0.02 -0.004619396
v 0 0 -0.004999999
v 0 -0.02 -0.004999999
v 0 -0.02 0.005
v -0.001913417 0 0.004619398
v 0 0 0.005
v -0.001913417 -0.02 0.004619398
v -0.003535534 0 0.003535534
v -0.003535534 -0.02 0.003535534
v -0.003535536 0 -0.003535532
v -0.009848698 -0.02 -0.01
v -0.003535536 -0.02 -0.003535532
v -0.009848698 0 -0.01
v -0.02028615 -0.02 -0.01
v -0.02028615 0 -0.01
v -0.009848698 0 0.01
v -0.003535534 0 0.003535534
v -0.003535534 -0.02 0.003535534
v -0.009848698 -0.02 0.01
v -0.02028615 -0.02 0.01
v -0.02028615 0 0.01
v -0.0115152 -0.01921342 0.00333334
v -0.0115152 0 0.00333334
v -0.01673392 0 0.00333334
v -0.01673392 -0.01921342 0.00333334
v -0.01673392 -0.01921342 -0.00333333
v -0.01673392 0 -0.00333333
v -0.0115152 -0.01921342 -0.00333333
v -0.0115152 0 -0.00333333
v -0.02361915 0 0.006667003
v -0.02028615 0 0.01
v -0.02028615 -0.02 0.01
v -0.02361915 -0.02 0.006667003
v -0.02361915 0 -0.006667003
v -0.02361915 -0.02 -0.006667003
v -0.02028615 0 -0.01
v -0.02028615 -0.02 -0.01
v -0.009848698 0 0.001666839
v -0.0115152 0 0.00333334
v -0.0115152 -0.01921342 0.00333334
v -0.009848698 -0.01921342 0.001666839
v -0.009848698 -0.01921342 -0.001666829
v -0.009848698 0 -0.001666829
v -0.0115152 0 -0.00333333
v -0.0115152 -0.01921342 -0.00333333
vt 0.7023617 0.02343731
vt 0.7023617 0.8921224
vt 0.7494388 0.8921224
vt 0.7494388 0.02343731
vt 0.7659697 0.8921224
vt 0.7659697 0.02343731
vt 0.3316272 0.02343731
vt 0.3316272 0.8921224
vt 0.3481583 0.8921224
vt 0.3481583 0.02343731
vt 0.3952352 0.8921224
vt 0.3952352 0.02343731
vt 0.7023617 0.8921224
vt 0.7023617 0.02343731
vt 0.9831409 0.02343731
vt 0.9831409 0.8921224
vt 0.9831409 0.02343731
vt 0.9831409 0.8921224
vt 0.1144559 0.8921224
vt 0.3952352 0.02343731
vt 0.3952352 0.8921224
vt 0.1144559 0.02343731
vt 0.1144558 0.02343731
vt 0.1144558 0.8921224
vt 0.4040173 0.02343731
vt 0.4040173 0.8921224
vt 0.4040173 0.8921224
vt 0.4040173 0.02343731
vt 0.6935793 0.02343731
vt 0.6935793 0.8921224
vt 0.6935793 0.02343731
vt 0.6935793 0.8921224
vt 0.2592221 0.8921224
vt 0.1144558 0.02343731
vt 0.1144558 0.8921224
vt 0.2592221 0.02343731
vt 0.8383747 0.8921224
vt 0.8383747 0.02343731
vt 0.9831409 0.8921224
vt 0.9831409 0.02343731
vt 0.4764005 0.8921224
vt 0.4040173 0.02343731
vt 0.4040173 0.8921224
vt 0.4764005 0.02343731
vt 0.6211959 0.02343731
vt 0.6211959 0.8921224
vt 0.6935793 0.8921224
vt 0.6935793 0.02343731
vt 0.7023617 0.02343731
vt 0.7494388 0.8921224
vt 0.7023617 0.8921224
vt 0.7494388 0.02343731
vt 0.7659697 0.8921224
vt 0.7659697 0.02343731
vt 0.3316272 0.02343731
vt 0.3481583 0.8921224
vt 0.3316272 0.8921224
vt 0.3481583 0.02343731
vt 0.3952352 0.8921224
vt 0.3952352 0.02343731
vt 0.7023617 0.8921224
vt 0.9831409 0.02343731
vt 0.7023617 0.02343731
vt 0.9831409 0.8921224
vt 0.9831409 0.02343731
vt 0.9831409 0.8921224
vt 0.1144559 0.8921224
vt 0.3952352 0.8921224
vt 0.3952352 0.02343731
vt 0.1144559 0.02343731
vt 0.1144558 0.02343731
vt 0.1144558 0.8921224
vt 0.4040173 0.02343731
vt 0.4040173 0.8921224
vt 0.4040173 0.8921224
vt 0.4040173 0.02343731
vt 0.6935793 0.02343731
vt 0.6935793 0.8921224
vt 0.6935793 0.02343731
vt 0.6935793 0.8921224
vt 0.2592221 0.8921224
vt 0.1144558 0.8921224
vt 0.1144558 0.02343731
vt 0.2592221 0.02343731
vt 0.8383747 0.8921224
vt 0.8383747 0.02343731
vt 0.9831409 0.8921224
vt 0.9831409 0.02343731
vt 0.4764005 0.8921224
vt 0.4040173 0.8921224
vt 0.4040173 0.02343731
vt 0.4764005 0.02343731
vt 0.6211959 0.02343731
vt 0.6211959 0.8921224
vt 0.6935793 0.8921224
vt 0.6935793 0.02343731
vn 0.5555707 0 -0.8314694
vn 0.5555707 0 -0.8314694
vn 0.3826836 0 -0.9238794
vn 0.3826836 0 -0.9238794
vn 0 0 -1
vn 0 0 -1
vn 0 0 1
vn 0 0 1
vn 0.3826834 0 0.9238795
vn 0.3826834 0 0.9238795
vn 0.5555702 0 0.8314697
vn 0.5555702 0 0.8314697
vn -0.7154298 0 -0.6986846
vn -0.7154298 0 -0.6986846
vn -0.3600426 0 -0.9329359
vn -0.3600426 0 -0.9329359
vn 0.2352471 0 -0.9719356
vn 0.2352471 0 -0.9719356
vn -0.3600424 0 0.9329359
vn -0.7154295 0 0.6986849
vn -0.7154295 0 0.6986849
vn -0.3600424 0 0.9329359
vn 0.2352471 0 0.9719356
vn 0.2352471 0 0.9719356
vn 0.2352474 0 -0.9719356
vn -0.7874286 0 -0.6164058
vn 0.2352474 0 -0.9719356
vn -0.7874286 0 -0.6164058
vn -0.7874286 0 0.6164058
vn -0.7874286 0 0.6164058
vn 0.2352474 0 0.9719356
vn 0.2352474 0 0.9719356
vn 0.9805853 0 0.1960934
vn 0.2352471 0 0.9719356
vn 0.2352471 0 0.9719356
vn 0.9805853 0 0.1960934
vn 0.9805853 0 -0.1960934
vn 0.9805853 0 -0.1960934
vn 0.2352471 0 -0.9719356
vn 0.2352471 0 -0.9719356
vn 0.948696 0 -0.3161898
vn 0.2352474 0 -0.9719356
vn 0.2352474 0 -0.9719356
vn 0.948696 0 -0.3161898
vn 0.948696 0 0.3161898
vn 0.948696 0 0.3161898
vn 0.2352474 0 0.9719356
vn 0.2352474 0 0.9719356
vn -0.5555707 0 -0.8314694
vn -0.3826836 0 -0.9238794
vn -0.5555707 0 -0.8314694
vn -0.3826836 0 -0.9238794
vn 0 0 -1
vn 0 0 -1
vn 0 0 1
vn -0.3826834 0 0.9238795
vn 0 0 1
vn -0.3826834 0 0.9238795
vn -0.5555702 0 0.8314697
vn -0.5555702 0 0.8314697
vn 0.7154298 0 -0.6986846
vn 0.3600426 0 -0.9329359
vn 0.7154298 0 -0.6986846
vn 0.3600426 0 -0.9329359
vn -0.2352471 0 -0.9719356
vn -0.2352471 0 -0.9719356
vn 0.3600424 0 0.9329359
vn 0.7154295 0 0.6986849
vn 0.7154295 0 0.6986849
vn 0.3600424 0 0.9329359
vn -0.2352471 0 0.9719356
vn -0.2352471 0 0.9719356
vn -0.2352474 0 -0.9719356
vn -0.2352474 0 -0.9719356
vn 0.7874286 0 -0.6164058
vn 0.7874286 0 -0.6164058
vn 0.7874286 0 0.6164058
vn 0.7874286 0 0.6164058
vn -0.2352474 0 0.9719356
vn -0.2352474 0 0.9719356
vn -0.9805853 0 0.1960934
vn -0.2352471 0 0.9719356
vn -0.2352471 0 0.9719356
vn -0.9805853 0 0.1960934
vn -0.9805853 0 -0.1960934
vn -0.9805853 0 -0.1960934
vn -0.2352471 0 -0.9719356
vn -0.2352471 0 -0.9719356
vn -0.948696 0 -0.3161898
vn -0.2352474 0 -0.9719356
vn -0.2352474 0 -0.9719356
vn -0.948696 0 -0.3161898
vn -0.948696 0 0.3161898
vn -0.948696 0 0.3161898
vn -0.2352474 0 0.9719356
vn -0.2352474 0 0.9719356
g bonus_ground_8_side_0
f 3/3/3 2/2/2 1/1/1
f 4/4/4 3/3/3 1/1/1
f 5/5/5 3/3/3 4/4/4
f 6/6/6 5/5/5 4/4/4
f 9/9/9 8/8/8 7/7/7
f 10/10/10 9/9/9 7/7/7
f 11/11/11 9/9/9 10/10/10
f 12/12/12 11/11/11 10/10/10
f 15/15/15 14/14/14 13/13/13
f 16/16/16 15/15/15 13/13/13
f 17/17/17 15/15/15 16/16/16
f 18/18/18 17/17/17 16/16/16
f 21/21/21 20/20/20 19/19/19
f 20/20/20 22/22/22 19/19/19
f 19/19/19 22/22/22 23/23/23
f 24/24/24 19/19/19 23/23/23
f 27/27/27 26/26/26 25/25/25
f 26/26/26 28/28/28 25/25/25
f 29/29/29 28/28/28 26/26/26
f 30/30/30 29/29/29 26/26/26
f 31/31/31 29/29/29 30/30/30
f 32/32/32 31/31/31 30/30/30
f 35/35/35 34/34/34 33/33/33
f 34/34/34 36/36/36 33/33/33
f 33/33/33 36/36/36 37/37/37
f 36/36/36 38/38/38 37/37/37
f 37/37/37 38/38/38 39/39/39
f 38/38/38 40/40/40 39/39/39
f 43/43/43 42/42/42 41/41/41
f 42/42/42 44/44/44 41/41/41
f 44/44/44 45/45/45 41/41/41
f 45/45/45 46/46/46 41/41/41
f 46/46/46 45/45/45 47/47/47
f 45/45/45 48/48/48 47/47/47
f 51/51/51 50/50/50 49/49/49
f 50/50/50 52/52/52 49/49/49
f 50/50/50 53/53/53 52/52/52
f 53/53/53 54/54/54 52/52/52
f 57/57/57 56/56/56 55/55/55
f 56/56/56 58/58/58 55/55/55
f 56/56/56 59/59/59 58/58/58
f 59/59/59 60/60/60 58/58/58
f 63/63/63 62/62/62 61/61/61
f 62/62/62 64/64/64 61/61/61
f 62/62/62 65/65/65 64/64/64
f 65/65/65 66/66/66 64/64/64
f 69/69/69 68/68/68 67/67/67
f 70/70/70 69/69/69 67/67/67
f 70/70/70 67/67/67 71/71/71
f 67/67/67 72/72/72 71/71/71
f 75/75/75 74/74/74 73/73/73
f 76/76/76 75/75/75 73/73/73
f 76/76/76 77/77/77 75/75/75
f 77/77/77 78/78/78 75/75/75
f 77/77/77 79/79/79 78/78/78
f 79/79/79 80/80/80 78/78/78
f 83/83/83 82/82/82 81/81/81
f 84/84/84 83/83/83 81/81/81
f 84/84/84 81/81/81 85/85/85
f 86/86/86 84/84/84 85/85/85
f 86/86/86 85/85/85 87/87/87
f 88/88/88 86/86/86 87/87/87
f 91/91/91 90/90/90 89/89/89
f 92/92/92 91/91/91 89/89/89
f 92/92/92 89/89/89 93/93/93
f 89/89/89 94/94/94 93/93/93
f 93/93/93 94/94/94 95/95/95
f 96/96/96 93/93/93 95/95/95
