g bonus_ground_circle_side
v 0.009848071 -0.01990039 -0.001736473
v 0.009848071 0 -0.001736473
v 0.009396923 0 -0.003420192
v 0.009396923 -0.01990039 -0.003420192
v 0.008660252 0 -0.00499999
v 0.008660252 -0.01990039 -0.00499999
v 0.007660443 0 -0.006427866
v 0.007660443 -0.01990039 -0.006427866
v 0.006427877 0 -0.007660435
v 0.006427877 -0.01990039 -0.007660435
v 0.005000002 0 -0.008660245
v 0.005000002 -0.01990039 -0.008660245
v 0.003420205 0 -0.009396917
v 0.003420205 -0.01990039 -0.009396917
v 0.001736487 0 -0.00984807
v 0.001736487 -0.01990039 -0.00984807
v 5.960464E-09 0 -0.009999994
v 5.960464E-09 -0.01990039 -0.009999994
v -0.001736475 0 -0.009848073
v -0.001736475 -0.01990039 -0.009848073
v -0.003420195 0 -0.009396923
v -0.003420195 -0.01990039 -0.009396923
v -0.004999993 0 -0.008660252
v -0.004999993 -0.01990039 -0.008660252
v -0.006427869 0 -0.007660443
v -0.006427869 -0.01990039 -0.007660443
v -0.007660437 0 -0.006427876
v -0.007660437 -0.01990039 -0.006427876
v -0.008660248 0 -0.005
v -0.008660248 -0.01990039 -0.005
v -0.009396919 0 -0.003420203
v -0.009396919 -0.01990039 -0.003420203
v -0.009848071 0 -0.001736484
v -0.009848071 -0.01990039 -0.001736484
v -0.009999995 0 -3.278255E-09
v -0.009999995 -0.01990039 -3.278255E-09
v -0.009848073 0 0.001736478
v -0.009848073 -0.01990039 0.001736478
v -0.009396924 0 0.003420197
v -0.009396924 -0.01990039 0.003420197
v -0.008660252 0 0.004999996
v -0.008660252 -0.01990039 0.004999996
v -0.007660443 0 0.006427872
v -0.007660443 -0.01990039 0.006427872
v -0.006427876 0 0.00766044
v -0.006427876 -0.01990039 0.00766044
v -0.005 0 0.00866025
v -0.005 -0.01990039 0.00866025
v -0.003420202 0 0.009396923
v -0.003420202 -0.01990039 0.009396923
v -0.001736483 0 0.009848075
v -0.001736483 -0.01990039 0.009848075
v -1.490116E-09 0 0.009999997
v -1.490116E-09 -0.01990039 0.009999997
v 0.00173648 0 0.009848075
v 0.00173648 -0.01990039 0.009848075
v 0.0034202 0 0.009396925
v 0.0034202 -0.01990039 0.009396925
v 0.004999998 0 0.008660253
v 0.004999998 -0.01990039 0.008660253
v 0.006427874 0 0.007660443
v 0.006427874 -0.01990039 0.007660443
v 0.007660442 0 0.006427876
v 0.007660442 -0.01990039 0.006427876
v 0.008660252 0 0.005
v 0.008660252 -0.01990039 0.005
v 0.009396926 0 0.003420201
v 0.009396926 -0.01990039 0.003420201
v 0.009848077 0 0.001736482
v 0.009848077 -0.01990039 0.001736482
v 0.01 0 0
v 0.01 -0.01990039 0
v 0.009848071 0 -0.001736473
v 0.009848071 -0.01990039 -0.001736473
vt 0.807774 0.9076197
vt 0.807774 0.9923803
vt 0.8101198 0.9923803
vt 0.8101198 0.9076197
vt 0.8124657 0.9923803
vt 0.8124657 0.9076197
vt 0.8148115 0.9923803
vt 0.8148115 0.9076197
vt 0.8171576 0.9923803
vt 0.8171576 0.9076197
vt 0.8195034 0.9923803
vt 0.8195034 0.9076197
vt 0.8218494 0.9923803
vt 0.8218494 0.9076197
vt 0.8241952 0.9923803
vt 0.8241952 0.9076197
vt 0.8265411 0.9923803
vt 0.8265411 0.9076197
vt 0.828887 0.9923803
vt 0.828887 0.9076197
vt 0.8312328 0.9923803
vt 0.831233 0.9076197
vt 0.8335788 0.9923803
vt 0.8335788 0.9076197
vt 0.8359248 0.9923803
vt 0.8359248 0.9076197
vt 0.8382706 0.9923803
vt 0.8382706 0.9076197
vt 0.8406164 0.9923803
vt 0.8406166 0.9076197
vt 0.8429624 0.9923803
vt 0.8429624 0.9076197
vt 0.8453082 0.9923803
vt 0.8453082 0.9076197
vt 0.8476542 0.9923803
vt 0.8476542 0.9076197
vt 0.8499998 0.9923803
vt 0.8499998 0.9076197
vt 0.8523462 0.9923803
vt 0.8523462 0.9076197
vt 0.8546918 0.9923803
vt 0.8546918 0.9076197
vt 0.8570375 0.9923803
vt 0.8570375 0.9076197
vt 0.8593835 0.9923803
vt 0.8593835 0.9076197
vt 0.8617294 0.9923803
vt 0.8617294 0.9076197
vt 0.8640755 0.9923803
vt 0.8640755 0.9076197
vt 0.8664212 0.9923803
vt 0.8664212 0.9076197
vt 0.8687674 0.9923803
vt 0.8687674 0.9076197
vt 0.8711131 0.9923803
vt 0.8711131 0.9076197
vt 0.873459 0.9923803
vt 0.873459 0.9076197
vt 0.8758047 0.9923803
vt 0.8758047 0.9076197
vt 0.8781506 0.9923803
vt 0.8781506 0.9076197
vt 0.8804967 0.9923803
vt 0.8804967 0.9076197
vt 0.8828425 0.9923803
vt 0.8828424 0.9076197
vt 0.8851883 0.9923803
vt 0.8851883 0.9076197
vt 0.8875343 0.9923803
vt 0.8875343 0.9076197
vt 0.8898802 0.9923803
vt 0.8898802 0.9076197
vt 0.892226 0.9923803
vt 0.8922259 0.9076197
vn 0.9848075 0 -0.1736497
vn 0.9848065 0.001433214 -0.1736495
vn 0.9396919 0.001433209 -0.342019
vn 0.9396929 0 -0.3420193
vn 0.8660249 0.001433218 -0.4999989
vn 0.8660258 0 -0.4999994
vn 0.7660441 0.001433218 -0.6427864
vn 0.7660449 0 -0.6427872
vn 0.6427875 0.001433207 -0.7660432
vn 0.6427881 0 -0.766044
vn 0.5000001 0.001433208 -0.8660242
vn 0.5000006 0 -0.8660251
vn 0.3420204 0.001433208 -0.9396915
vn 0.3420207 0 -0.9396924
vn 0.1736488 0.001433204 -0.9848066
vn 0.173649 0 -0.9848076
vn 8.616121E-07 0.001433206 -0.999999
vn 8.612958E-07 0 -1
vn -0.1736472 0.001433207 -0.9848069
vn -0.1736474 0 -0.9848078
vn -0.3420191 0.00143321 -0.9396919
vn -0.3420194 0 -0.9396929
vn -0.4999991 0.001433214 -0.8660248
vn -0.4999996 0 -0.8660257
vn -0.6427867 0.001433221 -0.7660438
vn -0.6427873 0 -0.7660446
vn -0.7660434 0.001433219 -0.6427873
vn -0.7660443 0 -0.6427879
vn -0.8660244 0.001433228 -0.4999999
vn -0.8660253 0 -0.5000004
vn -0.9396915 0.001433229 -0.3420203
vn -0.9396926 0 -0.3420206
vn -0.9848067 0.001433209 -0.1736486
vn -0.9848076 0 -0.1736487
vn -0.999999 0.001433228 -5.089765E-07
vn -1 0 -5.078556E-07
vn -0.9848068 0.001433229 0.1736473
vn -0.9848078 0 0.1736476
vn -0.9396919 0.00143323 0.3420192
vn -0.9396929 0 0.3420195
vn -0.8660247 0.001433218 0.4999991
vn -0.8660256 0 0.4999996
vn -0.7660437 0.001433197 0.6427869
vn -0.7660445 0 0.6427875
vn -0.642787 0.001433201 0.7660436
vn -0.6427878 0 0.7660443
vn -0.4999998 0.0014332 0.8660244
vn -0.5000004 0 0.8660253
vn -0.3420201 0.001433204 0.9396916
vn -0.3420204 0 0.9396926
vn -0.1736483 0.001433204 0.9848067
vn -0.1736484 0 0.9848077
vn -1.712216E-07 0.001433207 0.999999
vn -1.715728E-07 0 1
vn 0.1736477 0.00143321 0.9848068
vn 0.1736479 0 0.9848078
vn 0.3420193 0.001433208 0.9396918
vn 0.3420197 0 0.9396927
vn 0.4999993 0.001433209 0.8660246
vn 0.4999999 0 0.8660255
vn 0.6427869 0.001433211 0.7660437
vn 0.6427876 0 0.7660445
vn 0.7660436 0.001433229 0.6427869
vn 0.7660444 0 0.6427876
vn 0.8660244 0.001433227 0.4999999
vn 0.8660253 0 0.5000003
vn 0.9396916 0.001433186 0.3420201
vn 0.9396926 0 0.3420204
vn 0.9848067 0.001433186 0.1736481
vn 0.9848077 0 0.1736483
vn 0.999999 0.00143321 -1.550095E-06
vn 1 0 -1.551022E-06
vn 0.9848065 0.001433214 -0.1736495
vn 0.9848075 0 -0.1736497
g bonus_ground_circle_side_0
f 3/3/3 2/2/2 1/1/1
f 4/4/4 3/3/3 1/1/1
f 5/5/5 3/3/3 4/4/4
f 6/6/6 5/5/5 4/4/4
f 7/7/7 5/5/5 6/6/6
f 8/8/8 7/7/7 6/6/6
f 9/9/9 7/7/7 8/8/8
f 10/10/10 9/9/9 8/8/8
f 11/11/11 9/9/9 10/10/10
f 12/12/12 11/11/11 10/10/10
f 13/13/13 11/11/11 12/12/12
f 14/14/14 13/13/13 12/12/12
f 15/15/15 13/13/13 14/14/14
f 16/16/16 15/15/15 14/14/14
f 17/17/17 15/15/15 16/16/16
f 18/18/18 17/17/17 16/16/16
f 19/19/19 17/17/17 18/18/18
f 20/20/20 19/19/19 18/18/18
f 21/21/21 19/19/19 20/20/20
f 22/22/22 21/21/21 20/20/20
f 23/23/23 21/21/21 22/22/22
f 24/24/24 23/23/23 22/22/22
f 25/25/25 23/23/23 24/24/24
f 26/26/26 25/25/25 24/24/24
f 27/27/27 25/25/25 26/26/26
f 28/28/28 27/27/27 26/26/26
f 29/29/29 27/27/27 28/28/28
f 30/30/30 29/29/29 28/28/28
f 31/31/31 29/29/29 30/30/30
f 32/32/32 31/31/31 30/30/30
f 33/33/33 31/31/31 32/32/32
f 34/34/34 33/33/33 32/32/32
f 35/35/35 33/33/33 34/34/34
f 36/36/36 35/35/35 34/34/34
f 37/37/37 35/35/35 36/36/36
f 38/38/38 37/37/37 36/36/36
f 39/39/39 37/37/37 38/38/38
f 40/40/40 39/39/39 38/38/38
f 41/41/41 39/39/39 40/40/40
f 42/42/42 41/41/41 40/40/40
f 43/43/43 41/41/41 42/42/42
f 44/44/44 43/43/43 42/42/42
f 45/45/45 43/43/43 44/44/44
f 46/46/46 45/45/45 44/44/44
f 47/47/47 45/45/45 46/46/46
f 48/48/48 47/47/47 46/46/46
f 49/49/49 47/47/47 48/48/48
f 50/50/50 49/49/49 48/48/48
f 51/51/51 49/49/49 50/50/50
f 52/52/52 51/51/51 50/50/50
f 53/53/53 51/51/51 52/52/52
f 54/54/54 53/53/53 52/52/52
f 55/55/55 53/53/53 54/54/54
f 56/56/56 55/55/55 54/54/54
f 57/57/57 55/55/55 56/56/56
f 58/58/58 57/57/57 56/56/56
f 59/59/59 57/57/57 58/58/58
f 60/60/60 59/59/59 58/58/58
f 61/61/61 59/59/59 60/60/60
f 62/62/62 61/61/61 60/60/60
f 63/63/63 61/61/61 62/62/62
f 64/64/64 63/63/63 62/62/62
f 65/65/65 63/63/63 64/64/64
f 66/66/66 65/65/65 64/64/64
f 67/67/67 65/65/65 66/66/66
f 68/68/68 67/67/67 66/66/66
f 69/69/69 67/67/67 68/68/68
f 70/70/70 69/69/69 68/68/68
f 71/71/71 69/69/69 70/70/70
f 72/72/72 71/71/71 70/70/70
f 73/73/73 71/71/71 72/72/72
f 74/74/74 73/73/73 72/72/72
