g bonus_ground_circle_top
v -0.005 0 0.005
v -0.005 0 0.0025
v -0.0025 0 0.0025
v -0.0025 0 0.005
v 0.0025 0 -0.0025
v 0.0025 0 -0.005
v 0.005 0 -0.005
v 0.005 0 -0.0025
v 0 0 1.091444E-05
v 0 0 -0.0025
v 0.0025 0 -0.0025
v 0.0025 0 1.091444E-05
v -0.0025 0 0.0025
v -0.0025 0 1.091444E-05
v 0 0 1.091444E-05
v 0 0 0.0025
v -0.006588316 0 0.0075
v -0.005 0 0.005
v -0.005 0 0.0075
v -0.0075 0 0.006588316
v -0.0075 0 0.005
v 0.006588312 0 -0.0075
v 0.005 0 -0.005
v 0.005 0 -0.0075
v 0.0075 0 -0.00658831
v 0.0075 0 -0.005
v -0.005 0 0.00866025
v -0.006427876 0 0.00766044
v -0.005 0 0.0075
v -0.006588316 0 0.0075
v 0.0075 0 -0.005
v 0.0075 0 -0.00658831
v 0.007660443 0 -0.006427866
v 0.008660248 0 -0.004999995
v 0.0025 0 1.091444E-05
v 0.0025 0 -0.0025
v 0.005 0 -0.0025
v 0.005 0 1.091444E-05
v -0.0025 0 0.005
v -0.0025 0 0.0025
v 0 0 0.0025
v 0 0 0.005
v 0 0 0.0025
v 0 0 1.091444E-05
v 0.0025 0 1.091444E-05
v 0.0025 0 0.0025
v -0.005 0 0.0075
v -0.005 0 0.005
v -0.0025 0 0.005
v -0.0025 0 0.0075
v 0.005 0 -0.0025
v 0.005 0 -0.005
v 0.0075 0 -0.005
v 0.0075 0 -0.0025
v 0.0025 0 0.0025
v 0.0025 0 1.091444E-05
v 0.005 0 1.091444E-05
v 0.005 0 0.0025
v 0 0 0.005
v 0 0 0.0025
v 0.0025 0 0.0025
v 0.0025 0 0.005
v 0.005 0 1.091444E-05
v 0.005 0 -0.0025
v 0.0075 0 -0.0025
v 0.0075 0 1.091444E-05
v -0.0025 0 0.0075
v -0.0025 0 0.005
v 0 0 0.005
v 0 0 0.0075
v 0.0025 0 0.005
v 0.0025 0 0.0025
v 0.005 0 0.0025
v 0.005 0 0.005
v 0 0 0.0075
v 0 0 0.005
v 0.0025 0 0.005
v 0.0025 0 0.0075
v 0.005 0 0.0025
v 0.005 0 1.091444E-05
v 0.0075 0 1.091444E-05
v 0.0075 0 0.0025
v -0.0025 0 0.00964349
v -0.003420202 0 0.009396923
v -0.0025 0 0.0075
v -0.005 0 0.0075
v -0.005 0 0.00866025
v 0.005 0 0.005
v 0.005 0 0.0025
v 0.0075 0 0.0025
v 0.0075 0 0.005
v 0.0025 0 0.0075
v 0.0025 0 0.005
v 0.005 0 0.005
v 0.005 0 0.0075
v 0.0075 0 -0.0025
v 0.009396923 0 -0.003420192
v 0.009643486 0 -0.0025
v 0.008660248 0 -0.004999995
v 0.0075 0 -0.005
v 0.0075 0 -0.0025
v 0.009643486 0 -0.0025
v 0.009848071 0 -0.001736473
v 0.0075 0 1.091444E-05
v 0.01 0 1.091444E-05
v 0.006588318 0 0.0075
v 0.006427874 0 0.007660443
v 0.005 0 0.0075
v 0.004999999 0 0.008660252
v 0.007660442 0 0.006427876
v 0.0075 0 0.006588318
v 0.0075 0 0.005
v 0.008660252 0 0.005
v 0.0025 0 0.009643491
v 0.00173648 0 0.009848075
v 0.0025 0 0.0075
v 0 0 0.0075
v -7.45058E-10 0 0.009999997
v 0.0075 0 0.0025
v 0.009848077 0 0.001736482
v 0.009643493 0 0.0025
v 0.01 0 1.091444E-05
v 0.0075 0 1.091444E-05
v -0.001736483 0 0.009848075
v -0.0025 0 0.00964349
v -0.0025 0 0.0075
v -7.45058E-10 0 0.009999997
v 0 0 0.0075
v 0.0075 0 0.0025
v 0.009643493 0 0.0025
v 0.009396926 0 0.003420201
v 0.0075 0 0.005
v 0.008660252 0 0.005
v 0.0075 0 0.006588318
v 0.005 0 0.005
v 0.0075 0 0.005
v 0.006588318 0 0.0075
v 0.005 0 0.0075
v 0.0034202 0 0.009396925
v 0.0025 0 0.009643491
v 0.0025 0 0.0075
v 0.004999999 0 0.008660252
v 0.005 0 0.0075
v -0.0075 0 0.006588316
v -0.007660443 0 0.006427872
v -0.0075 0 0.005
v -0.00866025 0 0.004999998
v 0 0 -0.0025
v 0 0 -0.005
v 0.0025 0 -0.005
v 0.0025 0 -0.0025
v -0.0025 0 1.091444E-05
v -0.0025 0 -0.0025
v 0 0 -0.0025
v 0 0 1.091444E-05
v -0.005 0 0.0025
v -0.005 0 1.091444E-05
v -0.0025 0 1.091444E-05
v -0.0025 0 0.0025
v -0.0075 0 0.005
v -0.0075 0 0.0025
v -0.005 0 0.0025
v -0.005 0 0.005
v 0.0025 0 -0.005
v 0.0025 0 -0.0075
v 0.005 0 -0.0075
v 0.005 0 -0.005
v 0.005 0 -0.0075
v 0.005000001 0 -0.008660246
v 0.006427877 0 -0.007660435
v 0.006588312 0 -0.0075
v -0.005 0 1.091444E-05
v -0.005 0 -0.0025
v -0.0025 0 -0.0025
v -0.0025 0 1.091444E-05
v -0.0025 0 -0.0025
v -0.0025 0 -0.005
v 0 0 -0.005
v 0 0 -0.0025
v -0.0075 0 0.0025
v -0.0075 0 1.091444E-05
v -0.005 0 1.091444E-05
v -0.005 0 0.0025
v 0 0 -0.005
v 0 0 -0.0075
v 0.0025 0 -0.0075
v 0.0025 0 -0.005
v -0.005 0 -0.0025
v -0.005 0 -0.005
v -0.0025 0 -0.005
v -0.0025 0 -0.0025
v -0.0025 0 -0.005
v -0.0025 0 -0.0075
v 0 0 -0.0075
v 0 0 -0.005
v -0.0075 0 1.091444E-05
v -0.0075 0 -0.0025
v -0.005 0 -0.0025
v -0.005 0 1.091444E-05
v 0.0025 0 -0.0075
v 0.0025 0 -0.009643487
v 0.003420205 0 -0.009396917
v 0.005000001 0 -0.008660246
v 0.005 0 -0.0075
v -0.0075 0 -0.0025
v -0.0075 0 -0.005
v -0.005 0 -0.005
v -0.005 0 -0.0025
v -0.005 0 -0.005
v -0.005 0 -0.0075
v -0.0025 0 -0.0075
v -0.0025 0 -0.005
v -0.009396924 0 0.003420197
v -0.009643489 0 0.0025
v -0.0075 0 0.0025
v -0.00866025 0 0.004999998
v -0.0075 0 0.005
v -0.009643489 0 0.0025
v -0.009848073 0 0.001736478
v -0.0075 0 0.0025
v -0.0075 0 1.091444E-05
v -0.009999995 0 1.091444E-05
v -0.006588312 0 -0.0075
v -0.006427869 0 -0.007660443
v -0.005 0 -0.0075
v -0.004999996 0 -0.008660249
v -0.0025 0 -0.0075
v -0.0025 0 -0.009643488
v -0.001736475 0 -0.009848073
v 2.980232E-09 0 -0.009999994
v 0 0 -0.0075
v 0.001736487 0 -0.00984807
v 0.0025 0 -0.009643487
v 0.0025 0 -0.0075
v 0 0 -0.0075
v 2.980232E-09 0 -0.009999994
v -0.009643488 0 -0.0025
v -0.009396919 0 -0.003420203
v -0.0075 0 -0.0025
v -0.0075 0 -0.005
v -0.008660248 0 -0.005
v -0.0075 0 -0.006588313
v -0.005 0 -0.005
v -0.0075 0 -0.005
v -0.006588312 0 -0.0075
v -0.005 0 -0.0075
v -0.008660248 0 -0.005
v -0.007660437 0 -0.006427876
v -0.0075 0 -0.005
v -0.0075 0 -0.006588313
v -0.009848071 0 -0.001736484
v -0.009643488 0 -0.0025
v -0.0075 0 -0.0025
v -0.009999995 0 1.091444E-05
v -0.0075 0 1.091444E-05
v -0.003420195 0 -0.009396923
v -0.0025 0 -0.009643488
v -0.0025 0 -0.0075
v -0.005 0 -0.0075
v -0.004999996 0 -0.008660249
v 0.001780087 0 -0.01009534
v -4.665425E-06 0 -0.01025148
v -9.320374E-06 -0.0002498743 -0.01050272
v 0.001823646 -0.0002498741 -0.01034235
v -9.316965E-06 -0.0005 -0.01050272
v 0.001823649 -0.0005 -0.01034235
v 0.003591866 -0.0002498741 -0.009868559
v 0.003591865 -0.0005 -0.009868559
v 0.003506077 0 -0.009632858
v 0.005239044 -0.0002498738 -0.009100467
v 0.005239041 -0.0005 -0.009100469
v 0.005119586 0 -0.008880465
v 0.006750498 -0.0002498738 -0.00804492
v 0.006750501 -0.0005 -0.008044918
v 0.006589266 0 -0.007852777
v 0.008044929 -0.000249874 -0.006750486
v 0.008044928 -0.0005 -0.006750488
v 0.007852777 0 -0.006589264
v 0.009092232 -0.0002498744 -0.005256708
v 0.009092233 -0.0005 -0.005256705
v 0.008876346 0 -0.00512842
v 0.009868565 -0.0002498737 -0.003591851
v 0.009868564 -0.0005 -0.003591854
v 0.009632864 0 -0.00350606
v 0.01034236 -0.0002498737 -0.001823623
v 0.01034236 -0.0005 -0.001823622
v 0.01009534 0 -0.001780067
v 0.01050191 -0.0002498739 1.091444E-05
v 0.01050191 -0.0005 1.091446E-05
v 0.01025108 0 1.091444E-05
v 0.01034236 -0.0002498742 0.001823643
v 0.01034236 -0.0005 0.001823645
v 0.01009534 0 0.001780085
v 0.009868564 -0.0002498739 0.00359187
v 0.009868565 -0.0005 0.003591869
v 0.009632862 0 0.003506083
v 0.009094921 -0.0002498742 0.005250952
v 0.00909492 -0.0005 0.005250953
v 0.008877697 0 0.005125538
v 0.008044926 -0.0002498739 0.006750501
v 0.008044924 -0.0005 0.006750503
v 0.00785278 0 0.00658927
v 0.006750493 -0.0002498741 0.008044931
v 0.006750497 -0.0005 0.008044928
v 0.00658926 0 0.007852787
v 0.005256589 -0.0002498741 0.009090974
v 0.005256591 -0.0005 0.009090972
v 0.005128737 0 0.008875457
v 0.003591866 -0.0002498741 0.009868564
v 0.003591866 -0.0005 0.009868564
v 0.003506077 0 0.009632863
v 0.001823634 -0.0002498739 0.01034236
v 0.001823629 -0.0005 0.01034236
v 0.001780083 0 0.01009534
v -2.183197E-05 -0.000249874 0.0105
v -2.183113E-05 -0.0005 0.0105
v 1.092074E-05 0 0.01025012
v -0.001823642 -0.0002498741 0.01034236
v -0.001823645 -0.0005 0.01034236
v -0.003591866 -0.0002498741 0.009868564
v -0.003591865 -0.0005 0.009868564
v -0.005250956 -0.0002498738 0.009094916
v -0.005250957 -0.0005 0.009094915
v -0.006750499 -0.0002498738 0.008044923
v -0.006750499 -0.0005 0.008044924
v -0.008044932 -0.0002498738 0.006750491
v -0.008044933 -0.0005 0.006750489
v -0.009088097 -0.0002498739 0.00526558
v -0.009088095 -0.0005 0.005265583
v -0.009868565 -0.0002498741 0.00359186
v -0.009868563 -0.0005 0.003591863
v -0.01034236 -0.000249874 0.001823636
v -0.01034236 -0.0005 0.001823636
v -0.01049999 -0.000249874 1.091444E-05
v -0.01049999 -0.0005 1.091444E-05
v -0.01034236 -0.0002498741 -0.001823639
v -0.01034236 -0.0005 -0.001823643
v -0.00986856 -0.0002498741 -0.003591866
v -0.00986856 -0.0005 -0.003591866
v -0.009160248 -0.000249874 -0.00515765
v -0.009160248 -0.0005 -0.00515765
v -0.008044922 -0.0002498738 -0.006750498
v -0.008044922 -0.0005 -0.006750498
v -0.006750492 -0.000249874 -0.008044927
v -0.006750491 -0.0005 -0.008044927
v -0.005259997 -0.0002498742 -0.009090698
v -0.005259996 -0.0005 -0.0090907
v -0.003591856 -0.0002498739 -0.009868564
v -0.003591855 -0.0005 -0.009868565
v -0.001823625 -0.0002498737 -0.01034236
v -0.001823624 -0.0005 -0.01034236
v -9.320374E-06 -0.0002498743 -0.01050272
v -9.316965E-06 -0.0005 -0.01050272
v -4.665425E-06 0 -0.01025148
v -0.001780095 0 -0.01009533
v -0.003506069 0 -0.009632862
v -0.005130066 0 -0.008875581
v -0.006589283 0 -0.007852762
v -0.001736475 0 -0.009848073
v 2.980232E-09 0 -0.009999994
v -0.0025 0 -0.009643488
v -0.003420195 0 -0.009396923
v -0.004999996 0 -0.008660249
v -0.006427869 0 -0.007660443
v -0.006588312 0 -0.0075
v -0.0075 0 -0.006588313
v -0.007852776 0 -0.006589268
v -0.007660437 0 -0.006427876
v -0.008660248 0 -0.005
v -0.008910373 0 -0.005078864
v -0.009396919 0 -0.003420203
v -0.009632858 0 -0.003506078
v -0.009643488 0 -0.0025
v -0.01009534 0 -0.00178008
v -0.009848071 0 -0.001736484
v -0.009999995 0 1.091444E-05
v -0.01025012 0 1.091444E-05
v -0.009848073 0 0.001736478
v -0.01009534 0 0.00178008
v -0.009643489 0 0.0025
v -0.009396924 0 0.003420197
v -0.009632864 0 0.003506069
v -0.00866025 0 0.004999998
v -0.008874283 0 0.005132854
v -0.007660443 0 0.006427872
v -0.007852784 0 0.006589262
v -0.0075 0 0.006588316
v -0.006588316 0 0.0075
v -0.00658927 0 0.007852777
v -0.006427876 0 0.00766044
v -0.005 0 0.00866025
v -0.005125541 0 0.008877693
v -0.003420202 0 0.009396923
v -0.003506078 0 0.009632862
v -0.0025 0 0.00964349
v -0.001780084 0 0.01009534
v -0.001736483 0 0.009848075
v -7.45058E-10 0 0.009999997
v -1.092309E-05 0 0.01025012
v 0.00173648 0 0.009848075
v 0.0025 0 0.009643491
v 0.0034202 0 0.009396925
v 0.004999999 0 0.008660252
v 0.006427874 0 0.007660443
v 0.006588318 0 0.0075
v 0.0075 0 0.006588318
v 0.007660442 0 0.006427876
v 0.008660252 0 0.005
v 0.009396926 0 0.003420201
v 0.009643493 0 0.0025
v 0.009848077 0 0.001736482
v 0.01 0 1.091444E-05
v 0.009848071 0 -0.001736473
v 0.009643486 0 -0.0025
v 0.009396923 0 -0.003420192
v 0.008660248 0 -0.004999995
v 0.007660443 0 -0.006427866
v 0.0075 0 -0.00658831
v 0.006588312 0 -0.0075
v 0.006427877 0 -0.007660435
v 0.005000001 0 -0.008660246
v 0.003420205 0 -0.009396917
v 0.0025 0 -0.009643487
v 0.001736487 0 -0.00984807
v 2.980232E-09 0 -0.009999994
v -4.665425E-06 0 -0.01025148
vt 0 0
vt 0 1
vt 1 1
vt 1 0
vt 2.980232E-07 2.980232E-07
vt 2.980232E-07 1
vt 1 1
vt 1 2.980232E-07
vt 0 0
vt 0 1
vt 1 1
vt 1 0
vt 0 0
vt 0 1
vt 1 1
vt 1 0
vt 0.3647461 0
vt 1 1
vt 1 0
vt 0 0.3647461
vt 0 1
vt 0.6352539 1
vt 0 0
vt 0 1
vt 1 0.6352539
vt 1 0
vt 1 0.5361328
vt 0.4289551 0.9360352
vt 1 1
vt 0.3647461 1
vt 0 0
vt 0 0.6352539
vt 0.06414795 0.5712891
vt 0.4641113 0
vt 2.980232E-07 0
vt 2.980232E-07 1
vt 1 1
vt 1 0
vt 0 0
vt 0 1
vt 1 1
vt 1 0
vt 0 0
vt 0 1
vt 1 1
vt 1 0
vt 0 0
vt 0 1
vt 1 1
vt 1 0
vt 0 2.980232E-07
vt 0 1
vt 1 1
vt 1 2.980232E-07
vt 2.980232E-07 0
vt 2.980232E-07 1
vt 1 1
vt 1 0
vt 0 0
vt 0 1
vt 1 1
vt 1 0
vt 0 0
vt 0 1
vt 1 1
vt 1 0
vt 0 0
vt 0 1
vt 1 1
vt 1 0
vt 2.980232E-07 0
vt 2.980232E-07 1
vt 1 1
vt 1 0
vt 0 0
vt 0 1
vt 1 1
vt 1 0
vt 0 0
vt 0 1
vt 1 1
vt 1 0
vt 1 0.1425781
vt 0.6318359 0.2412109
vt 1 1
vt 0 1
vt 0 0.5361328
vt 0 0
vt 0 1
vt 1 1
vt 1 0
vt 2.980232E-07 0
vt 2.980232E-07 1
vt 1 1
vt 1 0
vt 0 2.980232E-07
vt 0.7587891 0.3681641
vt 0.8574219 2.980232E-07
vt 0.4641113 1
vt 0 1
vt 0 1
vt 0.8574219 1
vt 0.9394531 0.6948242
vt 0 0
vt 1 0
vt 0.6352539 1
vt 0.5712891 0.9360352
vt 0 1
vt 0 0.5361328
vt 0.06414795 0.4289551
vt 0 0.3647461
vt 0 1
vt 0.4641113 1
vt 1 0.1425781
vt 0.6948242 0.0607605
vt 1 1
vt 0 1
vt 0 1.013279E-06
vt 0 0
vt 0.9394531 0.3054199
vt 0.8574219 0
vt 1 1
vt 0 1
vt 0.3054199 0.0607605
vt 0 0.1425781
vt 0 1
vt 1 9.536743E-07
vt 1 1
vt 0 1
vt 0.8574219 1
vt 0.7587891 0.6318359
vt 0 0
vt 0.4641113 0
vt 1 0.3647461
vt 0 1
vt 1 1
vt 0.6352539 0
vt 0 0
vt 0.3681641 0.2412109
vt 2.980232E-07 0.1425781
vt 2.980232E-07 1
vt 1 0.5361328
vt 1 1
vt 1 0.3647461
vt 0.9360352 0.4289551
vt 1 1
vt 0.5361328 1
vt 0 2.980232E-07
vt 0 1
vt 1 1
vt 1 2.980232E-07
vt 0 0
vt 0 1
vt 1 1
vt 1 0
vt 0 0
vt 0 1
vt 1 1
vt 1 0
vt 0 0
vt 0 1
vt 1 1
vt 1 0
vt 2.980232E-07 0
vt 2.980232E-07 1
vt 1 1
vt 1 0
vt 0 0
vt 4.768372E-07 0.4641113
vt 0.5712891 0.06414795
vt 0.6352539 0
vt 0 0
vt 0 1
vt 1 1
vt 1 0
vt 0 2.980232E-07
vt 0 1
vt 1 1
vt 1 2.980232E-07
vt 0 0
vt 0 1
vt 1 1
vt 1 0
vt 0 0
vt 0 1
vt 1 1
vt 1 0
vt 0 2.980232E-07
vt 0 1
vt 1 1
vt 1 2.980232E-07
vt 0 0
vt 0 1
vt 1 1
vt 1 0
vt 0 0
vt 0 1
vt 1 1
vt 1 0
vt 2.980232E-07 0
vt 2.980232E-07 0.8574219
vt 0.3681641 0.7587891
vt 1 0.4641113
vt 1 0
vt 0 2.980232E-07
vt 0 1
vt 1 1
vt 1 2.980232E-07
vt 0 0
vt 0 1
vt 1 1
vt 1 0
vt 0.2412109 0.6318359
vt 0.1425781 1
vt 1 1
vt 0.5361328 7.748604E-07
vt 1 0
vt 0.1425781 0
vt 0.0607605 0.3054199
vt 1 0
vt 1 1
vt 2.026558E-06 1
vt 0.3647461 0
vt 0.4289551 0.06414795
vt 1 0
vt 1 0.4641113
vt 0 0
vt 0 0.8574219
vt 0.3054199 0.9394531
vt 1 1
vt 1 0
vt 0.6948242 0.9394531
vt 1 0.8574219
vt 1 0
vt 0 0
vt 1.192093E-06 1
vt 0.1425781 2.980232E-07
vt 0.2412109 0.3681641
vt 1 2.980232E-07
vt 1 1
vt 0.5361328 1
vt 0 0.6352539
vt 1 0
vt 0 0
vt 0.3647461 1
vt 1 1
vt 0.5361328 1.192093E-07
vt 0.9360352 0.5712891
vt 1 0
vt 1 0.6352539
vt 0.0607605 0.6948242
vt 0.1425781 1
vt 1 1
vt 1.966953E-06 6.556511E-07
vt 1 0
vt 0.6318359 0.7587891
vt 1 0.8574219
vt 1 0
vt 0 0
vt 1.370907E-06 0.4641113
vt 0.08990479 0.9804688
vt 0.09179688 0.9804688
vt 0.09179688 0.9448242
vt 0.08990479 0.9453125
vt 0.09179688 0.9125977
vt 0.08990479 0.9116211
vt 0.08795166 0.9458008
vt 0.08795166 0.9101563
vt 0.08795166 0.9819336
vt 0.08605957 0.9453125
vt 0.08605957 0.9111328
vt 0.08605957 0.980957
vt 0.08416748 0.9453125
vt 0.08416748 0.9111328
vt 0.08416748 0.9804688
vt 0.08221436 0.9453125
vt 0.08221436 0.9111328
vt 0.08221436 0.9804688
vt 0.08032227 0.9453125
vt 0.08032227 0.9111328
vt 0.08032227 0.980957
vt 0.07843018 0.9458008
vt 0.07843018 0.9101563
vt 0.07843018 0.9819336
vt 0.07647705 0.9453125
vt 0.07653809 0.9116211
vt 0.07647705 0.9804688
vt 0.07458496 0.9458008
vt 0.07458496 0.9101563
vt 0.07458496 0.9819336
vt 0.07269287 0.9453125
vt 0.07269287 0.9116211
vt 0.07269287 0.9804688
vt 0.07073975 0.9458008
vt 0.07073975 0.9101563
vt 0.07073975 0.9819336
vt 0.06884766 0.9458008
vt 0.06884766 0.9101563
vt 0.06884766 0.9819336
vt 0.06695557 0.9453125
vt 0.06695557 0.9111328
vt 0.06695557 0.9804688
vt 0.06500244 0.9453125
vt 0.06500244 0.9111328
vt 0.06500244 0.9804688
vt 0.06311035 0.9453125
vt 0.06311035 0.9111328
vt 0.06311035 0.980957
vt 0.06121826 0.9458008
vt 0.06121826 0.9101563
vt 0.06121826 0.9819336
vt 0.05929565 0.9453125
vt 0.05929565 0.9116211
vt 0.05929565 0.9804688
vt 0.05737305 0.9453125
vt 0.05737305 0.9111328
vt 0.05740356 0.9819336
vt 0.05548096 0.9453125
vt 0.05548096 0.9116211
vt 0.05355835 0.9458008
vt 0.05355835 0.9101563
vt 0.05163574 0.9458008
vt 0.05163574 0.9101563
vt 0.04974365 0.9453125
vt 0.04974365 0.9111328
vt 0.04782104 0.9453125
vt 0.04782104 0.9111328
vt 0.04592896 0.9453125
vt 0.04592896 0.9111328
vt 0.04400635 0.9458008
vt 0.04400635 0.9101563
vt 0.04208374 0.9453125
vt 0.04208374 0.9116211
vt 0.04019165 0.9453125
vt 0.04019165 0.9111328
vt 0.03826904 0.9453125
vt 0.03826904 0.9116211
vt 0.03634644 0.9458008
vt 0.03634644 0.9101563
vt 0.0345459 0.9453125
vt 0.0345459 0.9111328
vt 0.03253174 0.9453125
vt 0.03253174 0.9111328
vt 0.03060913 0.9453125
vt 0.03060913 0.9111328
vt 0.02871704 0.9453125
vt 0.02871704 0.9111328
vt 0.02679443 0.9458008
vt 0.02679443 0.9101563
vt 0.02487183 0.9453125
vt 0.02487183 0.9116211
vt 0.02297974 0.9448242
vt 0.02297974 0.9121094
vt 0.02297974 0.9804688
vt 0.02487183 0.9804688
vt 0.02679443 0.9819336
vt 0.02870178 0.980957
vt 0.03060913 0.9804688
vt 0.02487183 0.9819336
vt 0.02296448 0.9819336
vt 0.02574158 0.9819336
vt 0.02679443 0.9819336
vt 0.02870178 0.9819336
vt 0.03060913 0.9819336
vt 0.03086853 0.9819336
vt 0.0322876 0.9819336
vt 0.03253174 0.9804688
vt 0.03253174 0.9819336
vt 0.03442383 0.9819336
vt 0.03448486 0.9804688
vt 0.03634644 0.9819336
vt 0.03634644 0.9819336
vt 0.03738403 0.9819336
vt 0.03826904 0.9804688
vt 0.03826904 0.9819336
vt 0.04016113 0.9819336
vt 0.04019165 0.980957
vt 0.04208374 0.9819336
vt 0.04208374 0.9804688
vt 0.04296875 0.9819336
vt 0.04400635 0.9819336
vt 0.04400635 0.9819336
vt 0.04589844 0.9819336
vt 0.04592896 0.980957
vt 0.04782104 0.9819336
vt 0.04782104 0.9804688
vt 0.04806519 0.9819336
vt 0.04949951 0.9819336
vt 0.04974365 0.9804688
vt 0.04974365 0.9819336
vt 0.05163574 0.9819336
vt 0.05163574 0.9819336
vt 0.05355835 0.9819336
vt 0.05355835 0.9819336
vt 0.05459595 0.9819336
vt 0.05548096 0.9804688
vt 0.05548096 0.9819336
vt 0.05737305 0.9819336
vt 0.05737305 0.9819336
vt 0.05929565 0.9819336
vt 0.06015015 0.9819336
vt 0.06121826 0.9819336
vt 0.06311035 0.9819336
vt 0.06500244 0.9819336
vt 0.06530762 0.9819336
vt 0.06671143 0.9819336
vt 0.06695557 0.9819336
vt 0.06884766 0.9819336
vt 0.07073975 0.9819336
vt 0.07183838 0.9819336
vt 0.07269287 0.9819336
vt 0.07458496 0.9819336
vt 0.07647705 0.9819336
vt 0.07739258 0.9819336
vt 0.07843018 0.9819336
vt 0.08032227 0.9819336
vt 0.08221436 0.9819336
vt 0.08251953 0.9819336
vt 0.08392334 0.9819336
vt 0.08416748 0.9819336
vt 0.08605957 0.9819336
vt 0.08795166 0.9819336
vt 0.08905029 0.9819336
vt 0.08990479 0.9819336
vt 0.09179688 0.9819336
vt 0.09179688 0.9814453
vn 0 1 0
vn 0 1 0
vn 0 1 0
vn 0 1 0
vn 0 1 0
vn 0 1 0
vn 0 1 0
vn 0 1 0
vn 0 1 0
vn 0 1 0
vn 0 1 0
vn 0 1 0
vn 0 1 0
vn 0 1 0
vn 0 1 0
vn 0 1 0
vn 0 1 0
vn 0 1 0
vn 0 1 0
vn 0 1 0
vn 0 1 0
vn 0 1 0
vn 0 1 0
vn 0 1 0
vn 0 1 0
vn 0 1 0
vn 0 1 0
vn 0 1 0
vn 0 1 0
vn 0 1 0
vn 0 1 0
vn 0 1 0
vn 0 1 0
vn 0 1 0
vn 0 1 0
vn 0 1 0
vn 0 1 0
vn 0 1 0
vn 0 1 0
vn 0 1 0
vn 0 1 0
vn 0 1 0
vn 0 1 0
vn 0 1 0
vn 0 1 0
vn 0 1 0
vn 0 1 0
vn 0 1 0
vn 0 1 0
vn 0 1 0
vn 0 1 0
vn 0 1 0
vn 0 1 0
vn 0 1 0
vn 0 1 0
vn 0 1 0
vn 0 1 0
vn 0 1 0
vn 0 1 0
vn 0 1 0
vn 0 1 0
vn 0 1 0
vn 0 1 0
vn 0 1 0
vn 0 1 0
vn 0 1 0
vn 0 1 0
vn 0 1 0
vn 0 1 0
vn 0 1 0
vn 0 1 0
vn 0 1 0
vn 0 1 0
vn 0 1 0
vn 0 1 0
vn 0 1 0
vn 0 1 0
vn 0 1 0
vn 0 1 0
vn 0 1 0
vn 0 1 0
vn 0 1 0
vn 0 1 0
vn 0 1 0
vn 0 1 0
vn 0 1 0
vn 0 1 0
vn 0 1 0
vn 0 1 0
vn 0 1 0
vn 0 1 0
vn 0 1 0
vn 0 1 0
vn 0 1 0
vn 0 1 0
vn 0 1 0
vn 0 1 0
vn 0 1 0
vn 0 1 0
vn 0 1 0
vn 0 1 0
vn 0 1 0
vn 0 1 0
vn 0 1 0
vn 0 1 0
vn 0 1 0
vn 0 1 0
vn 0 1 0
vn 0 1 0
vn 0 1 0
vn 0 1 0
vn 0 1 0
vn 0 1 0
vn 0 1 0
vn 0 1 0
vn 0 1 0
vn 0 1 0
vn 0 1 0
vn 0 1 0
vn 0 1 0
vn 0 1 0
vn 0 1 0
vn 0 1 0
vn 0 1 0
vn 0 1 0
vn 0 1 0
vn 0 1 0
vn 0 1 0
vn 0 1 0
vn 0 1 0
vn 0 1 0
vn 0 1 0
vn 0 1 0
vn 0 1 0
vn 0 1 0
vn 0 1 0
vn 0 1 0
vn 0 1 0
vn 0 1 0
vn 0 1 0
vn 0 1 0
vn 0 1 0
vn 0 1 0
vn 0 1 0
vn 0 1 0
vn 0 1 0
vn 0 1 0
vn 0 1 0
vn 0 1 0
vn 0 1 0
vn 0 1 0
vn 0 1 0
vn 0 1 0
vn 0 1 0
vn 0 1 0
vn 0 1 0
vn 0 1 0
vn 0 1 0
vn 0 1 0
vn 0 1 0
vn 0 1 0
vn 0 1 0
vn 0 1 0
vn 0 1 0
vn 0 1 0
vn 0 1 0
vn 0 1 0
vn 0 1 0
vn 0 1 0
vn 0 1 0
vn 0 1 0
vn 0 1 0
vn 0 1 0
vn 0 1 0
vn 0 1 0
vn 0 1 0
vn 0 1 0
vn 0 1 0
vn 0 1 0
vn 0 1 0
vn 0 1 0
vn 0 1 0
vn 0 1 0
vn 0 1 0
vn 0 1 0
vn 0 1 0
vn 0 1 0
vn 0 1 0
vn 0 1 0
vn 0 1 0
vn 0 1 0
vn 0 1 0
vn 0 1 0
vn 0 1 0
vn 0 1 0
vn 0 1 0
vn 0 1 0
vn 0 1 0
vn 0 1 0
vn 0 1 0
vn 0 1 0
vn 0 1 0
vn 0 1 0
vn 0 1 0
vn 0 1 0
vn 0 1 0
vn 0 1 0
vn 0 1 0
vn 0 1 0
vn 0 1 0
vn 0 1 0
vn 0 1 0
vn 0 1 0
vn 0 1 0
vn 0 1 0
vn 0 1 0
vn 0 1 0
vn 0 1 0
vn 0 1 0
vn 0 1 0
vn 0 1 0
vn 0 1 0
vn 0 1 0
vn 0 1 0
vn 0 1 0
vn 0 1 0
vn 0 1 0
vn 0 1 0
vn 0 1 0
vn 0 1 0
vn 0 1 0
vn 0 1 0
vn 0 1 0
vn 0 1 0
vn 0 1 0
vn 0 1 0
vn 0 1 0
vn 0 1 0
vn 0 1 0
vn 0 1 0
vn 0 1 0
vn 0 1 0
vn 0 1 0
vn 0 1 0
vn 0 1 0
vn 0 1 0
vn 0 1 0
vn 0 1 0
vn 0 1 0
vn 0 1 0
vn 0 1 0
vn 0 1 0
vn 0 1 0
vn 0 1 0
vn 0 1 0
vn 0 1 0
vn 0 1 0
vn 0 1 0
vn 0 1 0
vn 0 1 0
vn 0.09204102 0.8476563 -0.5224609
vn 0.0003252029 0.8847656 -0.4665527
vn -0.0003252029 0.439209 -0.8984375
vn 0.1558838 0.4389648 -0.8847656
vn 1.966953E-06 1.192093E-07 -1
vn 0.1734619 -1.430511E-06 -0.9848633
vn 0.3071289 0.439209 -0.8442383
vn 0.3417969 -8.34465E-07 -0.9399414
vn 0.1662598 0.8735352 -0.4570313
vn 0.4489746 0.4387207 -0.7783203
vn 0.5 -2.44379E-06 -0.8662109
vn 0.2340088 0.8842773 -0.4042969
vn 0.5771484 0.4384766 -0.6889648
vn 0.6420898 -1.609325E-06 -0.7666016
vn 0.3305664 0.8574219 -0.3945313
vn 0.6879883 0.439209 -0.5776367
vn 0.765625 8.34465E-07 -0.6430664
vn 0.3933105 0.8579102 -0.3303223
vn 0.777832 0.439209 -0.4494629
vn 0.8662109 0 -0.5
vn 0.4040527 0.8842773 -0.2331543
vn 0.8442383 0.4389648 -0.307373
vn 0.9394531 0 -0.342041
vn 0.4575195 0.8735352 -0.1665039
vn 0.8847656 0.4389648 -0.1555176
vn 0.9848633 1.609325E-06 -0.1730957
vn 0.5219727 0.8481445 -0.09179688
vn 0.8984375 0.4389648 -1.0252E-05
vn 1 0 -1.013279E-06
vn 0.4667969 0.8842773 8.881092E-06
vn 0.8847656 0.4389648 0.1564941
vn 0.9848633 -3.278255E-06 0.1741943
vn 0.5224609 0.8476563 0.09240723
vn 0.8442383 0.4389648 0.307373
vn 0.9394531 -3.278255E-06 0.342041
vn 0.4572754 0.8735352 0.1665039
vn 0.7783203 0.4389648 0.4492188
vn 0.8662109 -1.609325E-06 0.5
vn 0.4042969 0.8842773 0.2333984
vn 0.6884766 0.4389648 0.5776367
vn 0.7661133 8.34465E-07 0.6425781
vn 0.3937988 0.8579102 0.3303223
vn 0.5776367 0.4389648 0.6879883
vn 0.6430664 1.609325E-06 0.7661133
vn 0.3303223 0.8579102 0.3935547
vn 0.4494629 0.4387207 0.7783203
vn 0.5 4.172325E-07 0.8662109
vn 0.2332764 0.8842773 0.404541
vn 0.3076172 0.4387207 0.8442383
vn 0.3425293 -8.940697E-07 0.9394531
vn 0.166748 0.8735352 0.4575195
vn 0.1552734 0.4367676 0.8862305
vn 0.1721191 3.576279E-07 0.9848633
vn 0.09197998 0.8466797 0.5239258
vn -0.001549721 0.4333496 0.9013672
vn -2.980232E-07 -1.788139E-07 1
vn 0.04067993 0.8798828 0.4731445
vn -0.1563721 0.439209 0.8847656
vn -0.1741943 -1.728535E-06 0.9848633
vn -0.307373 0.4389648 0.8442383
vn -0.342041 -1.132488E-06 0.9394531
vn -0.4492188 0.4389648 0.7783203
vn -0.5 -4.172325E-07 0.8662109
vn -0.5776367 0.4389648 0.6884766
vn -0.6425781 0 0.7661133
vn -0.6875 0.4396973 0.578125
vn -0.7651367 1.66893E-06 0.6435547
vn -0.777832 0.4394531 0.449707
vn -0.8662109 0 0.5
vn -0.8442383 0.4387207 0.3076172
vn -0.9394531 -3.278255E-06 0.3422852
vn -0.8847656 0.4387207 0.1561279
vn -0.9848633 -1.609325E-06 0.1737061
vn -0.8989258 0.4384766 -9.179115E-06
vn -1 0 -1.788139E-07
vn -0.8852539 0.4387207 -0.1551514
vn -0.9848633 0 -0.1726074
vn -0.8442383 0.4443359 -0.300293
vn -0.9423828 0 -0.3342285
vn -0.7792969 0.4416504 -0.4450684
vn -0.8662109 1.609325E-06 -0.5
vn -0.6899414 0.4377441 -0.5761719
vn -0.7675781 2.384186E-06 -0.640625
vn -0.5776367 0.4394531 -0.6879883
vn -0.6435547 1.609325E-06 -0.765625
vn -0.4494629 0.439209 -0.777832
vn -0.5 1.251698E-06 -0.8662109
vn -0.3076172 0.4389648 -0.8442383
vn -0.3422852 1.430511E-06 -0.9394531
vn -0.1564941 0.4394531 -0.8847656
vn -0.1743164 1.788139E-06 -0.9848633
vn -0.0003252029 0.439209 -0.8984375
vn 1.966953E-06 1.192093E-07 -1
vn 0.0003252029 0.8847656 -0.4665527
vn -0.09228516 0.8481445 -0.5214844
vn -0.166626 0.8735352 -0.4575195
vn -0.2329102 0.8847656 -0.4040527
vn -0.3303223 0.8579102 -0.3930664
vn 0 1 0
vn 0 1 0
vn 0 1 0
vn 0 1 0
vn 0 1 0
vn 0 1 0
vn 0 1 0
vn 0 1 0
vn -0.395752 0.8564453 -0.3308105
vn 0 1 0
vn 0 1 0
vn -0.4003906 0.8852539 -0.2358398
vn 0 1 0
vn -0.4521484 0.8774414 -0.1612549
vn 0 1 0
vn -0.5224609 0.8476563 -0.0916748
vn 0 1 0
vn 0 1 0
vn -0.4672852 0.8842773 9.23872E-06
vn 0 1 0
vn -0.5229492 0.847168 0.09228516
vn 0 1 0
vn 0 1 0
vn -0.4575195 0.8735352 0.166748
vn 0 1 0
vn -0.4040527 0.8847656 0.232666
vn 0 1 0
vn -0.3928223 0.8583984 0.3300781
vn 0 1 0
vn 0 1 0
vn -0.3303223 0.8579102 0.3937988
vn 0 1 0
vn 0 1 0
vn -0.2333984 0.8842773 0.4042969
vn 0 1 0
vn -0.1665039 0.8735352 0.4572754
vn 0 1 0
vn -0.09222412 0.8481445 0.5219727
vn 0 1 0
vn 0 1 0
vn -0.03973389 0.8886719 0.4570313
vn 0 1 0
vn 0 1 0
vn 0 1 0
vn 0 1 0
vn 0 1 0
vn 0 1 0
vn 0 1 0
vn 0 1 0
vn 0 1 0
vn 0 1 0
vn 0 1 0
vn 0 1 0
vn 0 1 0
vn 0 1 0
vn 0 1 0
vn 0 1 0
vn 0 1 0
vn 0 1 0
vn 0 1 0
vn 0 1 0
vn 0 1 0
vn 0 1 0
vn 0 1 0
vn 0 1 0
vn 0 1 0
vn 0 1 0
vn 0.0003252029 0.8847656 -0.4665527
g bonus_ground_circle_top_0
f 3/3/3 2/2/2 1/1/1
f 4/4/4 3/3/3 1/1/1
f 7/7/7 6/6/6 5/5/5
f 8/8/8 7/7/7 5/5/5
f 11/11/11 10/10/10 9/9/9
f 12/12/12 11/11/11 9/9/9
f 15/15/15 14/14/14 13/13/13
f 16/16/16 15/15/15 13/13/13
f 19/19/19 18/18/18 17/17/17
f 18/18/18 20/20/20 17/17/17
f 18/18/18 21/21/21 20/20/20
f 24/24/24 23/23/23 22/22/22
f 23/23/23 25/25/25 22/22/22
f 23/23/23 26/26/26 25/25/25
f 29/29/29 28/28/28 27/27/27
f 29/29/29 30/30/30 28/28/28
f 33/33/33 32/32/32 31/31/31
f 34/34/34 33/33/33 31/31/31
f 37/37/37 36/36/36 35/35/35
f 38/38/38 37/37/37 35/35/35
f 41/41/41 40/40/40 39/39/39
f 42/42/42 41/41/41 39/39/39
f 45/45/45 44/44/44 43/43/43
f 46/46/46 45/45/45 43/43/43
f 49/49/49 48/48/48 47/47/47
f 50/50/50 49/49/49 47/47/47
f 53/53/53 52/52/52 51/51/51
f 54/54/54 53/53/53 51/51/51
f 57/57/57 56/56/56 55/55/55
f 58/58/58 57/57/57 55/55/55
f 61/61/61 60/60/60 59/59/59
f 62/62/62 61/61/61 59/59/59
f 65/65/65 64/64/64 63/63/63
f 66/66/66 65/65/65 63/63/63
f 69/69/69 68/68/68 67/67/67
f 70/70/70 69/69/69 67/67/67
f 73/73/73 72/72/72 71/71/71
f 74/74/74 73/73/73 71/71/71
f 77/77/77 76/76/76 75/75/75
f 78/78/78 77/77/77 75/75/75
f 81/81/81 80/80/80 79/79/79
f 82/82/82 81/81/81 79/79/79
f 85/85/85 84/84/84 83/83/83
f 85/85/85 86/86/86 84/84/84
f 86/86/86 87/87/87 84/84/84
f 90/90/90 89/89/89 88/88/88
f 91/91/91 90/90/90 88/88/88
f 94/94/94 93/93/93 92/92/92
f 95/95/95 94/94/94 92/92/92
f 98/98/98 97/97/97 96/96/96
f 97/97/97 99/99/99 96/96/96
f 99/99/99 100/100/100 96/96/96
f 103/103/103 102/102/102 101/101/101
f 103/103/103 101/101/101 104/104/104
f 105/105/105 103/103/103 104/104/104
f 108/108/108 107/107/107 106/106/106
f 108/108/108 109/109/109 107/107/107
f 112/112/112 111/111/111 110/110/110
f 112/112/112 110/110/110 113/113/113
f 116/116/116 115/115/115 114/114/114
f 116/116/116 117/117/117 115/115/115
f 117/117/117 118/118/118 115/115/115
f 121/121/121 120/120/120 119/119/119
f 120/120/120 122/122/122 119/119/119
f 122/122/122 123/123/123 119/119/119
f 126/126/126 125/125/125 124/124/124
f 126/126/126 124/124/124 127/127/127
f 128/128/128 126/126/126 127/127/127
f 131/131/131 130/130/130 129/129/129
f 131/131/131 129/129/129 132/132/132
f 133/133/133 131/131/131 132/132/132
f 136/136/136 135/135/135 134/134/134
f 135/135/135 137/137/137 134/134/134
f 135/135/135 138/138/138 137/137/137
f 141/141/141 140/140/140 139/139/139
f 141/141/141 139/139/139 142/142/142
f 143/143/143 141/141/141 142/142/142
f 146/146/146 145/145/145 144/144/144
f 146/146/146 147/147/147 145/145/145
f 150/150/150 149/149/149 148/148/148
f 151/151/151 150/150/150 148/148/148
f 154/154/154 153/153/153 152/152/152
f 155/155/155 154/154/154 152/152/152
f 158/158/158 157/157/157 156/156/156
f 159/159/159 158/158/158 156/156/156
f 162/162/162 161/161/161 160/160/160
f 163/163/163 162/162/162 160/160/160
f 166/166/166 165/165/165 164/164/164
f 167/167/167 166/166/166 164/164/164
f 170/170/170 169/169/169 168/168/168
f 171/171/171 170/170/170 168/168/168
f 174/174/174 173/173/173 172/172/172
f 175/175/175 174/174/174 172/172/172
f 178/178/178 177/177/177 176/176/176
f 179/179/179 178/178/178 176/176/176
f 182/182/182 181/181/181 180/180/180
f 183/183/183 182/182/182 180/180/180
f 186/186/186 185/185/185 184/184/184
f 187/187/187 186/186/186 184/184/184
f 190/190/190 189/189/189 188/188/188
f 191/191/191 190/190/190 188/188/188
f 194/194/194 193/193/193 192/192/192
f 195/195/195 194/194/194 192/192/192
f 198/198/198 197/197/197 196/196/196
f 199/199/199 198/198/198 196/196/196
f 202/202/202 201/201/201 200/200/200
f 203/203/203 202/202/202 200/200/200
f 204/204/204 203/203/203 200/200/200
f 207/207/207 206/206/206 205/205/205
f 208/208/208 207/207/207 205/205/205
f 211/211/211 210/210/210 209/209/209
f 212/212/212 211/211/211 209/209/209
f 215/215/215 214/214/214 213/213/213
f 215/215/215 213/213/213 216/216/216
f 217/217/217 215/215/215 216/216/216
f 220/220/220 219/219/219 218/218/218
f 220/220/220 221/221/221 219/219/219
f 221/221/221 222/222/222 219/219/219
f 225/225/225 224/224/224 223/223/223
f 225/225/225 226/226/226 224/224/224
f 229/229/229 228/228/228 227/227/227
f 230/230/230 229/229/229 227/227/227
f 231/231/231 230/230/230 227/227/227
f 234/234/234 233/233/233 232/232/232
f 234/234/234 232/232/232 235/235/235
f 232/232/232 236/236/236 235/235/235
f 239/239/239 238/238/238 237/237/237
f 239/239/239 240/240/240 238/238/238
f 240/240/240 241/241/241 238/238/238
f 244/244/244 243/243/243 242/242/242
f 243/243/243 245/245/245 242/242/242
f 243/243/243 246/246/246 245/245/245
f 249/249/249 248/248/248 247/247/247
f 249/249/249 250/250/250 248/248/248
f 253/253/253 252/252/252 251/251/251
f 253/253/253 251/251/251 254/254/254
f 255/255/255 253/253/253 254/254/254
f 258/258/258 257/257/257 256/256/256
f 258/258/258 256/256/256 259/259/259
f 256/256/256 260/260/260 259/259/259
f 263/263/263 262/262/262 261/261/261
f 264/264/264 263/263/263 261/261/261
f 265/265/265 263/263/263 264/264/264
f 266/266/266 265/265/265 264/264/264
f 266/266/266 264/264/264 267/267/267
f 268/268/268 266/266/266 267/267/267
f 264/264/264 261/261/261 269/269/269
f 267/267/267 264/264/264 269/269/269
f 268/268/268 267/267/267 270/270/270
f 271/271/271 268/268/268 270/270/270
f 267/267/267 269/269/269 272/272/272
f 270/270/270 267/267/267 272/272/272
f 271/271/271 270/270/270 273/273/273
f 274/274/274 271/271/271 273/273/273
f 270/270/270 272/272/272 275/275/275
f 273/273/273 270/270/270 275/275/275
f 274/274/274 273/273/273 276/276/276
f 277/277/277 274/274/274 276/276/276
f 273/273/273 275/275/275 278/278/278
f 276/276/276 273/273/273 278/278/278
f 277/277/277 276/276/276 279/279/279
f 280/280/280 277/277/277 279/279/279
f 278/278/278 281/281/281 276/276/276
f 281/281/281 279/279/279 276/276/276
f 280/280/280 279/279/279 282/282/282
f 283/283/283 280/280/280 282/282/282
f 279/279/279 281/281/281 284/284/284
f 282/282/282 279/279/279 284/284/284
f 283/283/283 282/282/282 285/285/285
f 286/286/286 283/283/283 285/285/285
f 282/282/282 284/284/284 287/287/287
f 285/285/285 282/282/282 287/287/287
f 286/286/286 285/285/285 288/288/288
f 289/289/289 286/286/286 288/288/288
f 287/287/287 290/290/290 285/285/285
f 290/290/290 288/288/288 285/285/285
f 289/289/289 288/288/288 291/291/291
f 292/292/292 289/289/289 291/291/291
f 288/288/288 290/290/290 293/293/293
f 291/291/291 288/288/288 293/293/293
f 292/292/292 291/291/291 294/294/294
f 295/295/295 292/292/292 294/294/294
f 293/293/293 296/296/296 291/291/291
f 296/296/296 294/294/294 291/291/291
f 295/295/295 294/294/294 297/297/297
f 298/298/298 295/295/295 297/297/297
f 296/296/296 299/299/299 294/294/294
f 299/299/299 297/297/297 294/294/294
f 298/298/298 297/297/297 300/300/300
f 301/301/301 298/298/298 300/300/300
f 297/297/297 299/299/299 302/302/302
f 300/300/300 297/297/297 302/302/302
f 301/301/301 300/300/300 303/303/303
f 304/304/304 301/301/301 303/303/303
f 300/300/300 302/302/302 305/305/305
f 303/303/303 300/300/300 305/305/305
f 304/304/304 303/303/303 306/306/306
f 307/307/307 304/304/304 306/306/306
f 305/305/305 308/308/308 303/303/303
f 308/308/308 306/306/306 303/303/303
f 307/307/307 306/306/306 309/309/309
f 310/310/310 307/307/307 309/309/309
f 306/306/306 308/308/308 311/311/311
f 309/309/309 306/306/306 311/311/311
f 310/310/310 309/309/309 312/312/312
f 313/313/313 310/310/310 312/312/312
f 309/309/309 311/311/311 314/314/314
f 312/312/312 309/309/309 314/314/314
f 313/313/313 312/312/312 315/315/315
f 316/316/316 313/313/313 315/315/315
f 314/314/314 317/317/317 312/312/312
f 317/317/317 315/315/315 312/312/312
f 316/316/316 315/315/315 318/318/318
f 319/319/319 316/316/316 318/318/318
f 319/319/319 318/318/318 320/320/320
f 321/321/321 319/319/319 320/320/320
f 321/321/321 320/320/320 322/322/322
f 323/323/323 321/321/321 322/322/322
f 323/323/323 322/322/322 324/324/324
f 325/325/325 323/323/323 324/324/324
f 325/325/325 324/324/324 326/326/326
f 327/327/327 325/325/325 326/326/326
f 327/327/327 326/326/326 328/328/328
f 329/329/329 327/327/327 328/328/328
f 329/329/329 328/328/328 330/330/330
f 331/331/331 329/329/329 330/330/330
f 331/331/331 330/330/330 332/332/332
f 333/333/333 331/331/331 332/332/332
f 333/333/333 332/332/332 334/334/334
f 335/335/335 333/333/333 334/334/334
f 335/335/335 334/334/334 336/336/336
f 337/337/337 335/335/335 336/336/336
f 337/337/337 336/336/336 338/338/338
f 339/339/339 337/337/337 338/338/338
f 339/339/339 338/338/338 340/340/340
f 341/341/341 339/339/339 340/340/340
f 341/341/341 340/340/340 342/342/342
f 343/343/343 341/341/341 342/342/342
f 343/343/343 342/342/342 344/344/344
f 345/345/345 343/343/343 344/344/344
f 345/345/345 344/344/344 346/346/346
f 347/347/347 345/345/345 346/346/346
f 347/347/347 346/346/346 348/348/348
f 349/349/349 347/347/347 348/348/348
f 349/349/349 348/348/348 350/350/350
f 351/351/351 349/349/349 350/350/350
f 351/351/351 350/350/350 352/352/352
f 353/353/353 351/351/351 352/352/352
f 354/354/354 352/352/352 350/350/350
f 350/350/350 348/348/348 355/355/355
f 355/355/355 354/354/354 350/350/350
f 348/348/348 346/346/346 356/356/356
f 348/348/348 356/356/356 355/355/355
f 357/357/357 346/346/346 344/344/344
f 346/346/346 357/357/357 356/356/356
f 344/344/344 342/342/342 358/358/358
f 358/358/358 357/357/357 344/344/344
f 354/354/354 355/355/355 359/359/359
f 360/360/360 354/354/354 359/359/359
f 359/359/359 355/355/355 361/361/361
f 361/361/361 355/355/355 362/362/362
f 355/355/355 356/356/356 362/362/362
f 362/362/362 356/356/356 363/363/363
f 356/356/356 357/357/357 363/363/363
f 363/363/363 357/357/357 364/364/364
f 357/357/357 358/358/358 364/364/364
f 364/364/364 358/358/358 365/365/365
f 365/365/365 358/358/358 366/366/366
f 342/342/342 367/367/367 358/358/358
f 358/358/358 367/367/367 366/366/366
f 366/366/366 367/367/367 368/368/368
f 342/342/342 340/340/340 367/367/367
f 368/368/368 367/367/367 369/369/369
f 340/340/340 370/370/370 367/367/367
f 367/367/367 370/370/370 369/369/369
f 370/370/370 340/340/340 338/338/338
f 369/369/369 370/370/370 371/371/371
f 372/372/372 370/370/370 338/338/338
f 370/370/370 372/372/372 371/371/371
f 338/338/338 336/336/336 372/372/372
f 371/371/371 372/372/372 373/373/373
f 336/336/336 374/374/374 372/372/372
f 372/372/372 374/374/374 373/373/373
f 373/373/373 374/374/374 375/375/375
f 336/336/336 334/334/334 374/374/374
f 375/375/375 374/374/374 376/376/376
f 334/334/334 377/377/377 374/374/374
f 374/374/374 377/377/377 376/376/376
f 377/377/377 334/334/334 332/332/332
f 376/376/376 377/377/377 378/378/378
f 379/379/379 377/377/377 332/332/332
f 377/377/377 379/379/379 378/378/378
f 378/378/378 379/379/379 380/380/380
f 332/332/332 330/330/330 379/379/379
f 380/380/380 379/379/379 381/381/381
f 330/330/330 382/382/382 379/379/379
f 379/379/379 382/382/382 381/381/381
f 330/330/330 328/328/328 382/382/382
f 381/381/381 382/382/382 383/383/383
f 328/328/328 384/384/384 382/382/382
f 382/382/382 384/384/384 383/383/383
f 384/384/384 328/328/328 326/326/326
f 383/383/383 384/384/384 385/385/385
f 386/386/386 384/384/384 326/326/326
f 384/384/384 386/386/386 385/385/385
f 385/385/385 386/386/386 387/387/387
f 326/326/326 324/324/324 386/386/386
f 387/387/387 386/386/386 388/388/388
f 324/324/324 389/389/389 386/386/386
f 386/386/386 389/389/389 388/388/388
f 388/388/388 389/389/389 390/390/390
f 324/324/324 322/322/322 389/389/389
f 390/390/390 389/389/389 391/391/391
f 322/322/322 392/392/392 389/389/389
f 389/389/389 392/392/392 391/391/391
f 322/322/322 320/320/320 392/392/392
f 391/391/391 392/392/392 393/393/393
f 320/320/320 394/394/394 392/392/392
f 392/392/392 394/394/394 393/393/393
f 320/320/320 318/318/318 394/394/394
f 393/393/393 394/394/394 395/395/395
f 318/318/318 396/396/396 394/394/394
f 394/394/394 396/396/396 395/395/395
f 395/395/395 396/396/396 397/397/397
f 318/318/318 315/315/315 396/396/396
f 397/397/397 396/396/396 398/398/398
f 315/315/315 399/399/399 396/396/396
f 396/396/396 399/399/399 398/398/398
f 315/315/315 317/317/317 399/399/399
f 399/399/399 317/317/317 398/398/398
f 398/398/398 317/317/317 400/400/400
f 317/317/317 314/314/314 400/400/400
f 400/400/400 314/314/314 401/401/401
f 401/401/401 314/314/314 402/402/402
f 314/314/314 311/311/311 402/402/402
f 402/402/402 311/311/311 403/403/403
f 311/311/311 308/308/308 403/403/403
f 403/403/403 308/308/308 404/404/404
f 308/308/308 305/305/305 404/404/404
f 404/404/404 305/305/305 405/405/405
f 405/405/405 305/305/305 406/406/406
f 305/305/305 302/302/302 406/406/406
f 406/406/406 302/302/302 407/407/407
f 407/407/407 302/302/302 408/408/408
f 302/302/302 299/299/299 408/408/408
f 408/408/408 299/299/299 409/409/409
f 299/299/299 296/296/296 409/409/409
f 409/409/409 296/296/296 410/410/410
f 296/296/296 293/293/293 410/410/410
f 410/410/410 293/293/293 411/411/411
f 411/411/411 293/293/293 412/412/412
f 293/293/293 290/290/290 412/412/412
f 412/412/412 290/290/290 413/413/413
f 290/290/290 287/287/287 413/413/413
f 413/413/413 287/287/287 414/414/414
f 414/414/414 287/287/287 415/415/415
f 287/287/287 284/284/284 415/415/415
f 415/415/415 284/284/284 416/416/416
f 284/284/284 281/281/281 416/416/416
f 416/416/416 281/281/281 417/417/417
f 281/281/281 278/278/278 417/417/417
f 417/417/417 278/278/278 418/418/418
f 418/418/418 278/278/278 419/419/419
f 278/278/278 275/275/275 419/419/419
f 419/419/419 275/275/275 420/420/420
f 420/420/420 275/275/275 421/421/421
f 275/275/275 272/272/272 421/421/421
f 421/421/421 272/272/272 422/422/422
f 272/272/272 269/269/269 422/422/422
f 422/422/422 269/269/269 423/423/423
f 269/269/269 261/261/261 423/423/423
f 423/423/423 261/261/261 424/424/424
f 424/424/424 261/261/261 425/425/425
f 261/261/261 426/426/426 425/425/425
