g desert_side
v -0.009156798 -0.002145858 -2.153884E-09
v -0.009999996 -9.96083E-05 -2.831221E-09
v -0.009848073 -9.96083E-05 0.001736478
v -0.009017684 -0.002145858 0.001590058
v -0.009396924 -9.96083E-05 0.003420197
v -0.008604577 -0.002145858 0.003131806
v -0.008660252 -9.96083E-05 0.004999996
v -0.007930021 -0.002145858 0.004578397
v -0.007660443 -9.96083E-05 0.006427872
v -0.007014516 -0.002145858 0.005885874
v -0.006427876 -9.96083E-05 0.00766044
v -0.005885878 -0.002145858 0.007014513
v -0.005 -9.96083E-05 0.00866025
v -0.0045784 -0.002145858 0.007930019
v -0.003420202 -9.96083E-05 0.009396923
v -0.003131811 -0.002145858 0.008604576
v -0.001736483 -9.96083E-05 0.009848075
v -0.001590063 -0.002145858 0.009017686
v -1.937151E-09 -9.96083E-05 0.009999997
v -2.153884E-09 -0.002145858 0.009156798
v -0.00748291 -0.006024332 -1.784065E-09
v -0.00748291 -0.002048664 -1.784065E-09
v -0.007369227 -0.002048664 0.001299391
v -0.007369227 -0.006024332 0.001299391
v -0.00748291 -0.01 -1.784065E-09
v -0.007031636 -0.002048664 0.002559304
v -0.007369227 -0.01 0.001299391
v -0.007031636 -0.006024332 0.002559304
v -0.006480392 -0.002048664 0.003741453
v -0.007031636 -0.01 0.002559304
v -0.006480392 -0.006024332 0.003741453
v -0.005732243 -0.002048664 0.004809921
v -0.006480392 -0.01 0.003741453
v -0.005732243 -0.006024332 0.004809921
v -0.004809923 -0.002048664 0.005732241
v -0.005732243 -0.01 0.004809921
v -0.004809923 -0.006024332 0.005732241
v -0.003741456 -0.002048664 0.00648039
v -0.004809923 -0.01 0.005732241
v -0.003741456 -0.006024332 0.00648039
v -0.002559307 -0.002048664 0.007031635
v -0.003741456 -0.01 0.00648039
v -0.002559307 -0.006024332 0.007031635
v -0.001299395 -0.002048664 0.007369229
v -0.002559307 -0.01 0.007031635
v -0.001299395 -0.006024332 0.007369229
v -1.784065E-09 -0.002048664 0.00748291
v -0.001299395 -0.01 0.007369229
v -1.784065E-09 -0.006024332 0.00748291
v -1.784065E-09 -0.01 0.00748291
v -0.00748291 -0.002048664 -1.784065E-09
v -0.009156798 -0.002145858 -2.153884E-09
v -0.009017684 -0.002145858 0.001590058
v -0.007369227 -0.002048664 0.001299391
v -0.008604577 -0.002145858 0.003131806
v -0.007031636 -0.002048664 0.002559304
v -0.007930021 -0.002145858 0.004578397
v -0.006480392 -0.002048664 0.003741453
v -0.007014516 -0.002145858 0.005885874
v -0.005732243 -0.002048664 0.004809921
v -0.005885878 -0.002145858 0.007014513
v -0.004809923 -0.002048664 0.005732241
v -0.0045784 -0.002145858 0.007930019
v -0.003741456 -0.002048664 0.00648039
v -0.003131811 -0.002145858 0.008604576
v -0.002559307 -0.002048664 0.007031635
v -0.001590063 -0.002145858 0.009017686
v -0.001299395 -0.002048664 0.007369229
v -2.153884E-09 -0.002145858 0.009156798
v -1.784065E-09 -0.002048664 0.00748291
v -2.153884E-09 -0.002145858 0.009156798
v -1.937151E-09 -9.96083E-05 0.009999997
v 0.001736479 -9.96083E-05 0.009848075
v 0.001590058 -0.002145858 0.009017684
v 0.003420199 -9.96083E-05 0.009396924
v 0.003131806 -0.002145858 0.008604577
v 0.004999997 -9.96083E-05 0.008660253
v 0.004578397 -0.002145858 0.007930021
v 0.006427873 -9.96083E-05 0.007660443
v 0.005885874 -0.002145858 0.007014516
v 0.007660441 -9.96083E-05 0.006427876
v 0.007014513 -0.002145858 0.005885878
v 0.008660251 -9.96083E-05 0.005
v 0.007930019 -0.002145858 0.0045784
v 0.009396924 -9.96083E-05 0.003420202
v 0.008604576 -0.002145858 0.003131811
v 0.009848076 -9.96083E-05 0.001736482
v 0.009017686 -0.002145858 0.001590063
v 0.009999998 -9.96083E-05 1.192093E-09
v 0.009156798 -0.002145858 2.153884E-09
v -1.784065E-09 -0.006024332 0.00748291
v -1.784065E-09 -0.002048664 0.00748291
v 0.001299391 -0.002048664 0.007369227
v 0.001299391 -0.006024332 0.007369227
v -1.784065E-09 -0.01 0.00748291
v 0.002559304 -0.002048664 0.007031636
v 0.001299391 -0.01 0.007369227
v 0.002559304 -0.006024332 0.007031636
v 0.003741453 -0.002048664 0.006480392
v 0.002559304 -0.01 0.007031636
v 0.003741453 -0.006024332 0.006480392
v 0.004809921 -0.002048664 0.005732243
v 0.003741453 -0.01 0.006480392
v 0.004809921 -0.006024332 0.005732243
v 0.005732241 -0.002048664 0.004809923
v 0.004809921 -0.01 0.005732243
v 0.005732241 -0.006024332 0.004809923
v 0.00648039 -0.002048664 0.003741456
v 0.005732241 -0.01 0.004809923
v 0.00648039 -0.006024332 0.003741456
v 0.007031635 -0.002048664 0.002559307
v 0.00648039 -0.01 0.003741456
v 0.007031635 -0.006024332 0.002559307
v 0.007369229 -0.002048664 0.001299395
v 0.007031635 -0.01 0.002559307
v 0.007369229 -0.006024332 0.001299395
v 0.00748291 -0.002048664 1.784065E-09
v 0.007369229 -0.01 0.001299395
v 0.00748291 -0.006024332 1.784065E-09
v 0.00748291 -0.01 1.784065E-09
v -1.784065E-09 -0.002048664 0.00748291
v -2.153884E-09 -0.002145858 0.009156798
v 0.001590058 -0.002145858 0.009017684
v 0.001299391 -0.002048664 0.007369227
v 0.003131806 -0.002145858 0.008604577
v 0.002559304 -0.002048664 0.007031636
v 0.004578397 -0.002145858 0.007930021
v 0.003741453 -0.002048664 0.006480392
v 0.005885874 -0.002145858 0.007014516
v 0.004809921 -0.002048664 0.005732243
v 0.007014513 -0.002145858 0.005885878
v 0.005732241 -0.002048664 0.004809923
v 0.007930019 -0.002145858 0.0045784
v 0.00648039 -0.002048664 0.003741456
v 0.008604576 -0.002145858 0.003131811
v 0.007031635 -0.002048664 0.002559307
v 0.009017686 -0.002145858 0.001590063
v 0.007369229 -0.002048664 0.001299395
v 0.009156798 -0.002145858 2.153884E-09
v 0.00748291 -0.002048664 1.784065E-09
v 2.153884E-09 -0.002145858 -0.009156798
v 4.172325E-09 -9.96083E-05 -0.009999995
v -0.001736477 -9.96083E-05 -0.009848073
v -0.001590058 -0.002145858 -0.009017684
v -0.003420196 -9.96083E-05 -0.009396924
v -0.003131806 -0.002145858 -0.008604577
v -0.004999994 -9.96083E-05 -0.008660252
v -0.004578397 -0.002145858 -0.007930021
v -0.006427871 -9.96083E-05 -0.007660443
v -0.005885874 -0.002145858 -0.007014516
v -0.007660439 -9.96083E-05 -0.006427876
v -0.007014513 -0.002145858 -0.005885878
v -0.008660248 -9.96083E-05 -0.005
v -0.007930019 -0.002145858 -0.0045784
v -0.009396921 -9.96083E-05 -0.003420203
v -0.008604576 -0.002145858 -0.003131811
v -0.009848073 -9.96083E-05 -0.001736484
v -0.009017686 -0.002145858 -0.001590063
v -0.009999996 -9.96083E-05 -2.831221E-09
v -0.009156798 -0.002145858 -2.153884E-09
v 1.784065E-09 -0.006024332 -0.00748291
v 1.784065E-09 -0.002048664 -0.00748291
v -0.001299391 -0.002048664 -0.007369227
v -0.001299391 -0.006024332 -0.007369227
v 1.784065E-09 -0.01 -0.00748291
v -0.002559304 -0.002048664 -0.007031636
v -0.001299391 -0.01 -0.007369227
v -0.002559304 -0.006024332 -0.007031636
v -0.003741453 -0.002048664 -0.006480392
v -0.002559304 -0.01 -0.007031636
v -0.003741453 -0.006024332 -0.006480392
v -0.004809921 -0.002048664 -0.005732243
v -0.003741453 -0.01 -0.006480392
v -0.004809921 -0.006024332 -0.005732243
v -0.005732241 -0.002048664 -0.004809923
v -0.004809921 -0.01 -0.005732243
v -0.005732241 -0.006024332 -0.004809923
v -0.00648039 -0.002048664 -0.003741456
v -0.005732241 -0.01 -0.004809923
v -0.00648039 -0.006024332 -0.003741456
v -0.007031635 -0.002048664 -0.002559307
v -0.00648039 -0.01 -0.003741456
v -0.007031635 -0.006024332 -0.002559307
v -0.007369229 -0.002048664 -0.001299395
v -0.007031635 -0.01 -0.002559307
v -0.007369229 -0.006024332 -0.001299395
v -0.00748291 -0.002048664 -1.784065E-09
v -0.007369229 -0.01 -0.001299395
v -0.00748291 -0.006024332 -1.784065E-09
v -0.00748291 -0.01 -1.784065E-09
v 1.784065E-09 -0.002048664 -0.00748291
v 2.153884E-09 -0.002145858 -0.009156798
v -0.001590058 -0.002145858 -0.009017684
v -0.001299391 -0.002048664 -0.007369227
v -0.003131806 -0.002145858 -0.008604577
v -0.002559304 -0.002048664 -0.007031636
v -0.004578397 -0.002145858 -0.007930021
v -0.003741453 -0.002048664 -0.006480392
v -0.005885874 -0.002145858 -0.007014516
v -0.004809921 -0.002048664 -0.005732243
v -0.007014513 -0.002145858 -0.005885878
v -0.005732241 -0.002048664 -0.004809923
v -0.007930019 -0.002145858 -0.0045784
v -0.00648039 -0.002048664 -0.003741456
v -0.008604576 -0.002145858 -0.003131811
v -0.007031635 -0.002048664 -0.002559307
v -0.009017686 -0.002145858 -0.001590063
v -0.007369229 -0.002048664 -0.001299395
v -0.009156798 -0.002145858 -2.153884E-09
v -0.00748291 -0.002048664 -1.784065E-09
v 0.009156798 -0.002145858 2.153884E-09
v 0.009999998 -9.96083E-05 1.192093E-09
v 0.009848072 -9.96083E-05 -0.001736476
v 0.009017684 -0.002145858 -0.001590058
v 0.009396923 -9.96083E-05 -0.003420195
v 0.008604577 -0.002145858 -0.003131806
v 0.008660252 -9.96083E-05 -0.004999993
v 0.007930021 -0.002145858 -0.004578397
v 0.007660443 -9.96083E-05 -0.006427869
v 0.007014516 -0.002145858 -0.005885874
v 0.006427876 -9.96083E-05 -0.007660438
v 0.005885878 -0.002145858 -0.007014513
v 0.005000001 -9.96083E-05 -0.008660248
v 0.0045784 -0.002145858 -0.007930019
v 0.003420203 -9.96083E-05 -0.00939692
v 0.003131811 -0.002145858 -0.008604576
v 0.001736485 -9.96083E-05 -0.009848072
v 0.001590063 -0.002145858 -0.009017686
v 4.172325E-09 -9.96083E-05 -0.009999995
v 2.153884E-09 -0.002145858 -0.009156798
v 0.00748291 -0.006024332 1.784065E-09
v 0.00748291 -0.002048664 1.784065E-09
v 0.007369227 -0.002048664 -0.001299391
v 0.007369227 -0.006024332 -0.001299391
v 0.00748291 -0.01 1.784065E-09
v 0.007031636 -0.002048664 -0.002559304
v 0.007369227 -0.01 -0.001299391
v 0.007031636 -0.006024332 -0.002559304
v 0.006480392 -0.002048664 -0.003741453
v 0.007031636 -0.01 -0.002559304
v 0.006480392 -0.006024332 -0.003741453
v 0.005732243 -0.002048664 -0.004809921
v 0.006480392 -0.01 -0.003741453
v 0.005732243 -0.006024332 -0.004809921
v 0.004809923 -0.002048664 -0.005732241
v 0.005732243 -0.01 -0.004809921
v 0.004809923 -0.006024332 -0.005732241
v 0.003741456 -0.002048664 -0.00648039
v 0.004809923 -0.01 -0.005732241
v 0.003741456 -0.006024332 -0.00648039
v 0.002559307 -0.002048664 -0.007031635
v 0.003741456 -0.01 -0.00648039
v 0.002559307 -0.006024332 -0.007031635
v 0.001299395 -0.002048664 -0.007369229
v 0.002559307 -0.01 -0.007031635
v 0.001299395 -0.006024332 -0.007369229
v 1.784065E-09 -0.002048664 -0.00748291
v 0.001299395 -0.01 -0.007369229
v 1.784065E-09 -0.006024332 -0.00748291
v 1.784065E-09 -0.01 -0.00748291
v 0.00748291 -0.002048664 1.784065E-09
v 0.009156798 -0.002145858 2.153884E-09
v 0.009017684 -0.002145858 -0.001590058
v 0.007369227 -0.002048664 -0.001299391
v 0.008604577 -0.002145858 -0.003131806
v 0.007031636 -0.002048664 -0.002559304
v 0.007930021 -0.002145858 -0.004578397
v 0.006480392 -0.002048664 -0.003741453
v 0.007014516 -0.002145858 -0.005885874
v 0.005732243 -0.002048664 -0.004809921
v 0.005885878 -0.002145858 -0.007014513
v 0.004809923 -0.002048664 -0.005732241
v 0.0045784 -0.002145858 -0.007930019
v 0.003741456 -0.002048664 -0.00648039
v 0.003131811 -0.002145858 -0.008604576
v 0.002559307 -0.002048664 -0.007031635
v 0.001590063 -0.002145858 -0.009017686
v 0.001299395 -0.002048664 -0.007369229
v 2.153884E-09 -0.002145858 -0.009156798
v 1.784065E-09 -0.002048664 -0.00748291
v 0.001731401 -2.917469E-05 -0.009819229
v 5.935197E-09 -2.917469E-05 -0.009970708
v 4.172325E-09 -9.96083E-05 -0.009999995
v 0.001736485 -9.96083E-05 -0.009848072
v 0.003410189 -2.917469E-05 -0.009369398
v 0.003420203 -9.96083E-05 -0.00939692
v 0.004985359 -2.917469E-05 -0.008634882
v 0.005000001 -9.96083E-05 -0.008660248
v 0.006409052 -2.917469E-05 -0.007638
v 0.006427876 -9.96083E-05 -0.007660438
v 0.007638009 -2.917469E-05 -0.006409041
v 0.007660443 -9.96083E-05 -0.006427869
v 0.008634889 -2.917469E-05 -0.004985347
v 0.008660252 -9.96083E-05 -0.004999993
v 0.009369402 -2.917469E-05 -0.003410176
v 0.009396923 -9.96083E-05 -0.003420195
v 0.009819231 -2.917469E-05 -0.001731387
v 0.009848072 -9.96083E-05 -0.001736476
v 0.009970713 -2.917469E-05 5.143845E-11
v 0.009999998 -9.96083E-05 1.192093E-09
v 0.009819237 -2.917469E-05 0.001731396
v 0.009848076 -9.96083E-05 0.001736482
v 0.009369405 -2.917469E-05 0.003410185
v 0.009396924 -9.96083E-05 0.003420202
v 0.00863489 -2.917469E-05 0.004985357
v 0.008660251 -9.96083E-05 0.005
v 0.007638008 -2.917469E-05 0.006409051
v 0.007660441 -9.96083E-05 0.006427876
v 0.006409049 -2.917469E-05 0.007638009
v 0.006427873 -9.96083E-05 0.007660443
v 0.004985355 -2.917469E-05 0.00863489
v 0.004999997 -9.96083E-05 0.008660253
v 0.003410183 -2.917469E-05 0.009369405
v 0.003420199 -9.96083E-05 0.009396924
v 0.001731394 -2.917469E-05 0.009819235
v 0.001736479 -9.96083E-05 0.009848075
v -1.485128E-09 -2.917469E-05 0.009970712
v -1.937151E-09 -9.96083E-05 0.009999997
v 5.874196E-09 0 -0.009900006
v -0.00173139 -2.917469E-05 -0.009819232
v 5.935197E-09 -2.917469E-05 -0.009970708
v -0.001719112 0 -0.009749603
v -0.003410178 -2.917469E-05 -0.009369403
v -0.00168473 0 -0.009554612
v 5.756712E-09 0 -0.009702005
v -0.003385996 0 -0.009302964
v -0.00498535 -2.917469E-05 -0.008634889
v -0.003318277 0 -0.009116905
v -0.00168473 0 -0.009554612
v -0.004850999 0 -0.008402186
v -0.004949999 0 -0.008573659
v -0.006409044 -2.917469E-05 -0.007638008
v -0.006236325 0 -0.00743217
v -0.006363597 0 -0.007583847
v -0.007638002 -2.917469E-05 -0.006409051
v -0.007432165 0 -0.006236332
v -0.007583842 0 -0.006363604
v -0.008634885 -2.917469E-05 -0.004985358
v -0.008402181 0 -0.004851006
v -0.008573654 0 -0.004950006
v -0.009369399 -2.917469E-05 -0.003410187
v -0.009116902 0 -0.003318285
v -0.009302961 0 -0.003386005
v -0.009819231 -2.917469E-05 -0.001731399
v -0.00955461 0 -0.001684739
v -0.009749602 0 -0.001719121
v -0.009970709 -2.917469E-05 -3.263182E-09
v -0.009702006 0 -3.162256E-09
v -0.009900006 0 -3.226792E-09
v -0.009819233 -2.917469E-05 0.001731392
v -0.009554612 0 0.001684733
v -0.009749603 0 0.001719115
v -0.009369403 -2.917469E-05 0.003410181
v -0.009116906 0 0.003318279
v -0.009302964 0 0.003385999
v -0.00863489 -2.917469E-05 0.004985353
v -0.008402186 0 0.004851002
v -0.00857366 0 0.004950002
v -0.007638009 -2.917469E-05 0.006409047
v -0.007432171 0 0.006236328
v -0.007583847 0 0.0063636
v -0.006409051 -2.917469E-05 0.007638006
v -0.006236332 0 0.007432168
v -0.006363604 0 0.007583844
v -0.004985357 -2.917469E-05 0.008634888
v -0.004851006 0 0.008402184
v -0.004950006 0 0.008573657
v -0.003410186 -2.917469E-05 0.009369403
v -0.003318284 0 0.009116905
v -0.003386004 0 0.009302964
v -0.001731397 -2.917469E-05 0.009819234
v -0.001684738 0 0.009554613
v -0.00171912 0 0.009749604
v -1.485128E-09 -2.917469E-05 0.009970712
v -1.443624E-09 0 0.009702009
v -1.473086E-09 0 0.009900009
v 5.935197E-09 -2.917469E-05 -0.009970708
v -0.001736477 -9.96083E-05 -0.009848073
v 4.172325E-09 -9.96083E-05 -0.009999995
v -0.00173139 -2.917469E-05 -0.009819232
v -0.003420196 -9.96083E-05 -0.009396924
v -0.003410178 -2.917469E-05 -0.009369403
v -0.004999994 -9.96083E-05 -0.008660252
v -0.00498535 -2.917469E-05 -0.008634889
v -0.006427871 -9.96083E-05 -0.007660443
v -0.006409044 -2.917469E-05 -0.007638008
v -0.007660439 -9.96083E-05 -0.006427876
v -0.007638002 -2.917469E-05 -0.006409051
v -0.008660248 -9.96083E-05 -0.005
v -0.008634885 -2.917469E-05 -0.004985358
v -0.009396921 -9.96083E-05 -0.003420203
v -0.009369399 -2.917469E-05 -0.003410187
v -0.009848073 -9.96083E-05 -0.001736484
v -0.009819231 -2.917469E-05 -0.001731399
v -0.009999996 -9.96083E-05 -2.831221E-09
v -0.009970709 -2.917469E-05 -3.263182E-09
v -0.009848073 -9.96083E-05 0.001736478
v -0.009819233 -2.917469E-05 0.001731392
v -0.009396924 -9.96083E-05 0.003420197
v -0.009369403 -2.917469E-05 0.003410181
v -0.008660252 -9.96083E-05 0.004999996
v -0.00863489 -2.917469E-05 0.004985353
v -0.007660443 -9.96083E-05 0.006427872
v -0.007638009 -2.917469E-05 0.006409047
v -0.006427876 -9.96083E-05 0.00766044
v -0.006409051 -2.917469E-05 0.007638006
v -0.005 -9.96083E-05 0.00866025
v -0.004985357 -2.917469E-05 0.008634888
v -0.003420202 -9.96083E-05 0.009396923
v -0.003410186 -2.917469E-05 0.009369403
v -0.001736483 -9.96083E-05 0.009848075
v -0.001731397 -2.917469E-05 0.009819234
v -1.937151E-09 -9.96083E-05 0.009999997
v -1.485128E-09 -2.917469E-05 0.009970712
v -1.473086E-09 0 0.009900009
v 0.001731394 -2.917469E-05 0.009819235
v -1.485128E-09 -2.917469E-05 0.009970712
v 0.001719117 0 0.009749605
v 0.003410183 -2.917469E-05 0.009369405
v 0.001684735 0 0.009554613
v -1.443624E-09 0 0.009702009
v 0.003386002 0 0.009302965
v 0.004985355 -2.917469E-05 0.00863489
v 0.003318281 0 0.009116907
v 0.001684735 0 0.009554613
v 0.004851004 0 0.008402187
v 0.004950004 0 0.00857366
v 0.006409049 -2.917469E-05 0.007638009
v 0.006236331 0 0.007432172
v 0.006363603 0 0.007583848
v 0.007638008 -2.917469E-05 0.006409051
v 0.00743217 0 0.006236332
v 0.007583847 0 0.006363604
v 0.00863489 -2.917469E-05 0.004985357
v 0.008402186 0 0.004851006
v 0.00857366 0 0.004950006
v 0.009369405 -2.917469E-05 0.003410185
v 0.009116908 0 0.003318283
v 0.009302966 0 0.003386003
v 0.009819237 -2.917469E-05 0.001731396
v 0.009554615 0 0.001684737
v 0.009749607 0 0.001719119
v 0.009970713 -2.917469E-05 5.143845E-11
v 0.009702011 0 1.721094E-10
v 0.009900011 0 1.756218E-10
v 0.009819231 -2.917469E-05 -0.001731387
v 0.00955461 0 -0.001684728
v 0.009749602 0 -0.00171911
v 0.009369402 -2.917469E-05 -0.003410176
v 0.009116905 0 -0.003318274
v 0.009302964 0 -0.003385994
v 0.008634889 -2.917469E-05 -0.004985347
v 0.008402186 0 -0.004850996
v 0.008573659 0 -0.004949996
v 0.007638009 -2.917469E-05 -0.006409041
v 0.007432171 0 -0.006236322
v 0.007583847 0 -0.006363594
v 0.006409052 -2.917469E-05 -0.007638
v 0.006236333 0 -0.007432163
v 0.006363605 0 -0.007583839
v 0.004985359 -2.917469E-05 -0.008634882
v 0.004851008 0 -0.008402179
v 0.004950008 0 -0.008573651
v 0.003410189 -2.917469E-05 -0.009369398
v 0.003318287 0 -0.0091169
v 0.003386007 0 -0.009302959
v 0.001684741 0 -0.009554608
v 0.001731401 -2.917469E-05 -0.009819229
v 0.001719124 0 -0.0097496
v 5.935197E-09 -2.917469E-05 -0.009970708
v 5.874196E-09 0 -0.009900006
v 5.756712E-09 0 -0.009702005
v 0.001684741 0 -0.009554608
vt 0 0.04318237
vt 0 0.2009277
vt 0.111084 0.2009277
vt 0.111084 0.04318237
vt 0.222168 0.2009277
vt 0.222168 0.04318237
vt 0.333252 0.2009277
vt 0.333252 0.04318237
vt 0.4443359 0.2009277
vt 0.4443359 0.04318237
vt 0.5556641 0.2009277
vt 0.5556641 0.04318237
vt 0.6665039 0.2009277
vt 0.6665039 0.04318237
vt 0.777832 0.2009277
vt 0.777832 0.04318237
vt 0.8886719 0.2009277
vt 0.8886719 0.04318237
vt 1 0.2009277
vt 1 0.04318237
vt 0.008552551 0.4580078
vt 0.008552551 0.6879883
vt 0.08404541 0.6879883
vt 0.08404541 0.4580078
vt 0.008552551 0.2279053
vt 0.1595459 0.6879883
vt 0.08404541 0.2279053
vt 0.1595459 0.4580078
vt 0.2349854 0.6879883
vt 0.1595459 0.2279053
vt 0.2349854 0.4580078
vt 0.3105469 0.6879883
vt 0.2349854 0.2279053
vt 0.3105469 0.4580078
vt 0.3859863 0.6879883
vt 0.3105469 0.2279053
vt 0.3859863 0.4580078
vt 0.4614258 0.6879883
vt 0.3859863 0.2279053
vt 0.4614258 0.4580078
vt 0.5371094 0.6879883
vt 0.4614258 0.2279053
vt 0.5371094 0.4580078
vt 0.6123047 0.6879883
vt 0.5371094 0.2279053
vt 0.6123047 0.4580078
vt 0.6879883 0.6879883
vt 0.6123047 0.2279053
vt 0.6879883 0.4580078
vt 0.6879883 0.2279053
vt 0.01186371 0.7158203
vt 0.01186371 0.8198242
vt 0.08514404 0.8198242
vt 0.08514404 0.7158203
vt 0.1584473 0.8198242
vt 0.1584473 0.7158203
vt 0.2316895 0.8198242
vt 0.2316895 0.7158203
vt 0.3049316 0.8198242
vt 0.3049316 0.7158203
vt 0.378418 0.8198242
vt 0.378418 0.7158203
vt 0.4516602 0.8198242
vt 0.4516602 0.7158203
vt 0.5249023 0.8198242
vt 0.5249023 0.7158203
vt 0.5981445 0.8198242
vt 0.5981445 0.7158203
vt 0.6713867 0.8198242
vt 0.6713867 0.7158203
vt 0 0.04318237
vt 0 0.2009277
vt 0.111084 0.2009277
vt 0.111084 0.04318237
vt 0.222168 0.2009277
vt 0.222168 0.04318237
vt 0.333252 0.2009277
vt 0.333252 0.04318237
vt 0.4443359 0.2009277
vt 0.4443359 0.04318237
vt 0.5556641 0.2009277
vt 0.5556641 0.04318237
vt 0.6665039 0.2009277
vt 0.6665039 0.04318237
vt 0.777832 0.2009277
vt 0.777832 0.04318237
vt 0.8886719 0.2009277
vt 0.8886719 0.04318237
vt 1 0.2009277
vt 1 0.04318237
vt 0.008552551 0.4580078
vt 0.008552551 0.6879883
vt 0.08404541 0.6879883
vt 0.08404541 0.4580078
vt 0.008552551 0.2279053
vt 0.1595459 0.6879883
vt 0.08404541 0.2279053
vt 0.1595459 0.4580078
vt 0.2349854 0.6879883
vt 0.1595459 0.2279053
vt 0.2349854 0.4580078
vt 0.3105469 0.6879883
vt 0.2349854 0.2279053
vt 0.3105469 0.4580078
vt 0.3859863 0.6879883
vt 0.3105469 0.2279053
vt 0.3859863 0.4580078
vt 0.4614258 0.6879883
vt 0.3859863 0.2279053
vt 0.4614258 0.4580078
vt 0.5371094 0.6879883
vt 0.4614258 0.2279053
vt 0.5371094 0.4580078
vt 0.6123047 0.6879883
vt 0.5371094 0.2279053
vt 0.6123047 0.4580078
vt 0.6879883 0.6879883
vt 0.6123047 0.2279053
vt 0.6879883 0.4580078
vt 0.6879883 0.2279053
vt 0.01186371 0.7158203
vt 0.01186371 0.8198242
vt 0.08514404 0.8198242
vt 0.08514404 0.7158203
vt 0.1584473 0.8198242
vt 0.1584473 0.7158203
vt 0.2316895 0.8198242
vt 0.2316895 0.7158203
vt 0.3049316 0.8198242
vt 0.3049316 0.7158203
vt 0.378418 0.8198242
vt 0.378418 0.7158203
vt 0.4516602 0.8198242
vt 0.4516602 0.7158203
vt 0.5249023 0.8198242
vt 0.5249023 0.7158203
vt 0.5981445 0.8198242
vt 0.5981445 0.7158203
vt 0.6713867 0.8198242
vt 0.6713867 0.7158203
vt 0 0.04318237
vt 0 0.2009277
vt 0.111084 0.2009277
vt 0.111084 0.04318237
vt 0.222168 0.2009277
vt 0.222168 0.04318237
vt 0.333252 0.2009277
vt 0.333252 0.04318237
vt 0.4443359 0.2009277
vt 0.4443359 0.04318237
vt 0.5556641 0.2009277
vt 0.5556641 0.04318237
vt 0.6665039 0.2009277
vt 0.6665039 0.04318237
vt 0.777832 0.2009277
vt 0.777832 0.04318237
vt 0.8886719 0.2009277
vt 0.8886719 0.04318237
vt 1 0.2009277
vt 1 0.04318237
vt 0.008552551 0.4580078
vt 0.008552551 0.6879883
vt 0.08404541 0.6879883
vt 0.08404541 0.4580078
vt 0.008552551 0.2279053
vt 0.1595459 0.6879883
vt 0.08404541 0.2279053
vt 0.1595459 0.4580078
vt 0.2349854 0.6879883
vt 0.1595459 0.2279053
vt 0.2349854 0.4580078
vt 0.3105469 0.6879883
vt 0.2349854 0.2279053
vt 0.3105469 0.4580078
vt 0.3859863 0.6879883
vt 0.3105469 0.2279053
vt 0.3859863 0.4580078
vt 0.4614258 0.6879883
vt 0.3859863 0.2279053
vt 0.4614258 0.4580078
vt 0.5371094 0.6879883
vt 0.4614258 0.2279053
vt 0.5371094 0.4580078
vt 0.6123047 0.6879883
vt 0.5371094 0.2279053
vt 0.6123047 0.4580078
vt 0.6879883 0.6879883
vt 0.6123047 0.2279053
vt 0.6879883 0.4580078
vt 0.6879883 0.2279053
vt 0.01186371 0.7158203
vt 0.01186371 0.8198242
vt 0.08514404 0.8198242
vt 0.08514404 0.7158203
vt 0.1584473 0.8198242
vt 0.1584473 0.7158203
vt 0.2316895 0.8198242
vt 0.2316895 0.7158203
vt 0.3049316 0.8198242
vt 0.3049316 0.7158203
vt 0.378418 0.8198242
vt 0.378418 0.7158203
vt 0.4516602 0.8198242
vt 0.4516602 0.7158203
vt 0.5249023 0.8198242
vt 0.5249023 0.7158203
vt 0.5981445 0.8198242
vt 0.5981445 0.7158203
vt 0.6713867 0.8198242
vt 0.6713867 0.7158203
vt 0 0.04318237
vt 0 0.2009277
vt 0.111084 0.2009277
vt 0.111084 0.04318237
vt 0.222168 0.2009277
vt 0.222168 0.04318237
vt 0.333252 0.2009277
vt 0.333252 0.04318237
vt 0.4443359 0.2009277
vt 0.4443359 0.04318237
vt 0.5556641 0.2009277
vt 0.5556641 0.04318237
vt 0.6665039 0.2009277
vt 0.6665039 0.04318237
vt 0.777832 0.2009277
vt 0.777832 0.04318237
vt 0.8886719 0.2009277
vt 0.8886719 0.04318237
vt 1 0.2009277
vt 1 0.04318237
vt 0.008552551 0.4580078
vt 0.008552551 0.6879883
vt 0.08404541 0.6879883
vt 0.08404541 0.4580078
vt 0.008552551 0.2279053
vt 0.1595459 0.6879883
vt 0.08404541 0.2279053
vt 0.1595459 0.4580078
vt 0.2349854 0.6879883
vt 0.1595459 0.2279053
vt 0.2349854 0.4580078
vt 0.3105469 0.6879883
vt 0.2349854 0.2279053
vt 0.3105469 0.4580078
vt 0.3859863 0.6879883
vt 0.3105469 0.2279053
vt 0.3859863 0.4580078
vt 0.4614258 0.6879883
vt 0.3859863 0.2279053
vt 0.4614258 0.4580078
vt 0.5371094 0.6879883
vt 0.4614258 0.2279053
vt 0.5371094 0.4580078
vt 0.6123047 0.6879883
vt 0.5371094 0.2279053
vt 0.6123047 0.4580078
vt 0.6879883 0.6879883
vt 0.6123047 0.2279053
vt 0.6879883 0.4580078
vt 0.6879883 0.2279053
vt 0.01186371 0.7158203
vt 0.01186371 0.8198242
vt 0.08514404 0.8198242
vt 0.08514404 0.7158203
vt 0.1584473 0.8198242
vt 0.1584473 0.7158203
vt 0.2316895 0.8198242
vt 0.2316895 0.7158203
vt 0.3049316 0.8198242
vt 0.3049316 0.7158203
vt 0.378418 0.8198242
vt 0.378418 0.7158203
vt 0.4516602 0.8198242
vt 0.4516602 0.7158203
vt 0.5249023 0.8198242
vt 0.5249023 0.7158203
vt 0.5981445 0.8198242
vt 0.5981445 0.7158203
vt 0.6713867 0.8198242
vt 0.6713867 0.7158203
vt 0.9868164 0.9375
vt 0.9916992 0.9375
vt 0.9916992 0.9082031
vt 0.9868164 0.9082031
vt 0.9824219 0.9375
vt 0.9824219 0.9082031
vt 0.9775391 0.9375
vt 0.9775391 0.9082031
vt 0.9731445 0.9375
vt 0.9731445 0.9082031
vt 0.9682617 0.9375
vt 0.9682617 0.9082031
vt 0.9638672 0.9375
vt 0.9638672 0.9082031
vt 0.9594727 0.9375
vt 0.9594727 0.9082031
vt 0.9545898 0.9375
vt 0.9545898 0.9082031
vt 0.9501953 0.9375
vt 0.9501953 0.9082031
vt 0.9453125 0.9375
vt 0.9453125 0.9082031
vt 0.940918 0.9375
vt 0.940918 0.9082031
vt 0.9360352 0.9375
vt 0.9360352 0.9082031
vt 0.9316406 0.9375
vt 0.9316406 0.9082031
vt 0.9267578 0.9375
vt 0.9267578 0.9082031
vt 0.9223633 0.9375
vt 0.9223633 0.9082031
vt 0.9174805 0.9375
vt 0.9174805 0.9082031
vt 0.9130859 0.9375
vt 0.9130859 0.9082031
vt 0.9082031 0.9375
vt 0.9082031 0.9082031
vt 0.9082031 0.9584961
vt 0.9130859 0.9375
vt 0.9082031 0.9375
vt 0.9130859 0.9584961
vt 0.9174805 0.9375
vt 0.9130859 0.9916992
vt 0.9082031 0.9916992
vt 0.9174805 0.9584961
vt 0.9223633 0.9375
vt 0.9174805 0.9916992
vt 0.9130859 0.9916992
vt 0.9223633 0.9916992
vt 0.9223633 0.9584961
vt 0.9267578 0.9375
vt 0.9267578 0.9916992
vt 0.9267578 0.9584961
vt 0.9316406 0.9375
vt 0.9316406 0.9916992
vt 0.9316406 0.9584961
vt 0.9360352 0.9375
vt 0.9360352 0.9916992
vt 0.9360352 0.9584961
vt 0.940918 0.9375
vt 0.940918 0.9916992
vt 0.940918 0.9584961
vt 0.9453125 0.9375
vt 0.9453125 0.9916992
vt 0.9453125 0.9584961
vt 0.9501953 0.9375
vt 0.9501953 0.9916992
vt 0.9501953 0.9584961
vt 0.9545898 0.9375
vt 0.9545898 0.9916992
vt 0.9545898 0.9584961
vt 0.9594727 0.9375
vt 0.9594727 0.9916992
vt 0.9594727 0.9584961
vt 0.9638672 0.9375
vt 0.9638672 0.9916992
vt 0.9638672 0.9584961
vt 0.9682617 0.9375
vt 0.9682617 0.9916992
vt 0.9682617 0.9584961
vt 0.9731445 0.9375
vt 0.9731445 0.9916992
vt 0.9731445 0.9584961
vt 0.9775391 0.9375
vt 0.9775391 0.9916992
vt 0.9775391 0.9584961
vt 0.9824219 0.9375
vt 0.9824219 0.9916992
vt 0.9824219 0.9584961
vt 0.9868164 0.9375
vt 0.9868164 0.9916992
vt 0.9868164 0.9584961
vt 0.9916992 0.9375
vt 0.9916992 0.9916992
vt 0.9916992 0.9584961
vt 0.9082031 0.9375
vt 0.9130859 0.9082031
vt 0.9082031 0.9082031
vt 0.9130859 0.9375
vt 0.9174805 0.9082031
vt 0.9174805 0.9375
vt 0.9223633 0.9082031
vt 0.9223633 0.9375
vt 0.9267578 0.9082031
vt 0.9267578 0.9375
vt 0.9316406 0.9082031
vt 0.9316406 0.9375
vt 0.9360352 0.9082031
vt 0.9360352 0.9375
vt 0.940918 0.9082031
vt 0.940918 0.9375
vt 0.9453125 0.9082031
vt 0.9453125 0.9375
vt 0.9501953 0.9082031
vt 0.9501953 0.9375
vt 0.9545898 0.9082031
vt 0.9545898 0.9375
vt 0.9594727 0.9082031
vt 0.9594727 0.9375
vt 0.9638672 0.9082031
vt 0.9638672 0.9375
vt 0.9682617 0.9082031
vt 0.9682617 0.9375
vt 0.9731445 0.9082031
vt 0.9731445 0.9375
vt 0.9775391 0.9082031
vt 0.9775391 0.9375
vt 0.9824219 0.9082031
vt 0.9824219 0.9375
vt 0.9868164 0.9082031
vt 0.9868164 0.9375
vt 0.9916992 0.9082031
vt 0.9916992 0.9375
vt 0.9082031 0.9584961
vt 0.9130859 0.9375
vt 0.9082031 0.9375
vt 0.9130859 0.9584961
vt 0.9174805 0.9375
vt 0.9130859 0.9916992
vt 0.9082031 0.9916992
vt 0.9174805 0.9584961
vt 0.9223633 0.9375
vt 0.9174805 0.9916992
vt 0.9130859 0.9916992
vt 0.9223633 0.9916992
vt 0.9223633 0.9584961
vt 0.9267578 0.9375
vt 0.9267578 0.9916992
vt 0.9267578 0.9584961
vt 0.9316406 0.9375
vt 0.9316406 0.9916992
vt 0.9316406 0.9584961
vt 0.9360352 0.9375
vt 0.9360352 0.9916992
vt 0.9360352 0.9584961
vt 0.940918 0.9375
vt 0.940918 0.9916992
vt 0.940918 0.9584961
vt 0.9453125 0.9375
vt 0.9453125 0.9916992
vt 0.9453125 0.9584961
vt 0.9501953 0.9375
vt 0.9501953 0.9916992
vt 0.9501953 0.9584961
vt 0.9545898 0.9375
vt 0.9545898 0.9916992
vt 0.9545898 0.9584961
vt 0.9594727 0.9375
vt 0.9594727 0.9916992
vt 0.9594727 0.9584961
vt 0.9638672 0.9375
vt 0.9638672 0.9916992
vt 0.9638672 0.9584961
vt 0.9682617 0.9375
vt 0.9682617 0.9916992
vt 0.9682617 0.9584961
vt 0.9731445 0.9375
vt 0.9731445 0.9916992
vt 0.9731445 0.9584961
vt 0.9775391 0.9375
vt 0.9775391 0.9916992
vt 0.9775391 0.9584961
vt 0.9824219 0.9375
vt 0.9824219 0.9916992
vt 0.9824219 0.9584961
vt 0.9868164 0.9916992
vt 0.9868164 0.9375
vt 0.9868164 0.9584961
vt 0.9916992 0.9375
vt 0.9916992 0.9584961
vt 0.9916992 0.9916992
vt 0.9868164 0.9916992
vn -0.9248047 -0.3811035 2.384186E-07
vn -1 0.001433372 -5.364418E-07
vn -0.9848633 0.001433372 0.1737061
vn -0.9106445 -0.3811035 0.1605225
vn -0.9394531 0.001433372 0.342041
vn -0.8686523 -0.3811035 0.3161621
vn -0.8662109 0.001433372 0.5
vn -0.8007813 -0.3811035 0.4624023
vn -0.7661133 0.001433372 0.6425781
vn -0.7084961 -0.3811035 0.5942383
vn -0.6425781 0.001433372 0.7661133
vn -0.5942383 -0.3811035 0.7084961
vn -0.5 0.001433372 0.8662109
vn -0.4624023 -0.3811035 0.8007813
vn -0.342041 0.001433372 0.9394531
vn -0.3161621 -0.3811035 0.8686523
vn -0.1737061 0.001433372 0.9848633
vn -0.1605225 -0.3811035 0.9106445
vn -1.788139E-07 0.001433372 1
vn 4.172325E-07 -0.3811035 0.9248047
vn -1 0 4.768372E-07
vn -1 0 4.768372E-07
vn -0.9848633 0 0.1737061
vn -0.9848633 0 0.1737061
vn -1 0 -5.364418E-07
vn -0.9394531 0 0.342041
vn -0.9848633 0 0.1737061
vn -0.9394531 0 0.342041
vn -0.8662109 0 0.5
vn -0.9394531 0 0.342041
vn -0.8662109 0 0.5
vn -0.7661133 0 0.6425781
vn -0.8662109 0 0.5
vn -0.7661133 0 0.6425781
vn -0.6425781 0 0.7661133
vn -0.7661133 0 0.6425781
vn -0.6425781 0 0.7661133
vn -0.5 0 0.8662109
vn -0.6425781 0 0.7661133
vn -0.5 0 0.8662109
vn -0.342041 0 0.9394531
vn -0.5 0 0.8662109
vn -0.342041 0 0.9394531
vn -0.1737061 0 0.9848633
vn -0.342041 0 0.9394531
vn -0.1737061 0 0.9848633
vn 5.960464E-07 0 1
vn -0.1737061 0 0.9848633
vn 4.172325E-07 0 1
vn -1.788139E-07 0 1
vn 0.05795288 -0.9985352 0
vn 0.05795288 -0.9985352 0
vn 0.05709839 -0.9985352 -0.01006317
vn 0.05709839 -0.9985352 -0.01006317
vn 0.05447388 -0.9985352 -0.01982117
vn 0.05447388 -0.9985352 -0.01982117
vn 0.05020142 -0.9985352 -0.02897644
vn 0.05020142 -0.9985352 -0.02897644
vn 0.04440308 -0.9985352 -0.03726196
vn 0.04440308 -0.9985352 -0.03726196
vn 0.03726196 -0.9985352 -0.04440308
vn 0.03726196 -0.9985352 -0.04440308
vn 0.02897644 -0.9985352 -0.05020142
vn 0.02897644 -0.9985352 -0.05020142
vn 0.01982117 -0.9985352 -0.05447388
vn 0.01982117 -0.9985352 -0.05447388
vn 0.01006317 -0.9985352 -0.05709839
vn 0.01006317 -0.9985352 -0.05709839
vn 0 -0.9985352 -0.05795288
vn 0 -0.9985352 -0.05795288
vn 4.172325E-07 -0.3811035 0.9248047
vn -1.788139E-07 0.001433372 1
vn 0.1737061 0.001433372 0.9848633
vn 0.1605225 -0.3811035 0.9106445
vn 0.342041 0.001433372 0.9394531
vn 0.3161621 -0.3811035 0.8686523
vn 0.5 0.001433372 0.8662109
vn 0.4624023 -0.3811035 0.8007813
vn 0.6425781 0.001433372 0.7661133
vn 0.5942383 -0.3811035 0.7084961
vn 0.7661133 0.001433372 0.6425781
vn 0.7084961 -0.3811035 0.5942383
vn 0.8662109 0.001433372 0.5
vn 0.8007813 -0.3811035 0.4624023
vn 0.9394531 0.001433372 0.342041
vn 0.8686523 -0.3811035 0.3161621
vn 0.9848633 0.001433372 0.1737061
vn 0.9106445 -0.3811035 0.1605225
vn 1 0.001433372 1.788139E-07
vn 0.9248047 -0.3811035 -6.556511E-07
vn 4.172325E-07 0 1
vn 5.960464E-07 0 1
vn 0.1737061 0 0.9848633
vn 0.1737061 0 0.9848633
vn -1.788139E-07 0 1
vn 0.342041 0 0.9394531
vn 0.1737061 0 0.9848633
vn 0.342041 0 0.9394531
vn 0.5 0 0.8662109
vn 0.342041 0 0.9394531
vn 0.5 0 0.8662109
vn 0.6425781 0 0.7661133
vn 0.5 0 0.8662109
vn 0.6425781 0 0.7661133
vn 0.7661133 0 0.6425781
vn 0.6425781 0 0.7661133
vn 0.7661133 0 0.6425781
vn 0.8662109 0 0.5
vn 0.7661133 0 0.6425781
vn 0.8662109 0 0.5
vn 0.9394531 0 0.342041
vn 0.8662109 0 0.5
vn 0.9394531 0 0.342041
vn 0.9848633 0 0.1737061
vn 0.9394531 0 0.342041
vn 0.9848633 0 0.1737061
vn 1 0 -4.768372E-07
vn 0.9848633 0 0.1737061
vn 1 0 -4.768372E-07
vn 1 0 1.788139E-07
vn 0 -0.9985352 -0.05795288
vn 0 -0.9985352 -0.05795288
vn -0.01006317 -0.9985352 -0.05709839
vn -0.01006317 -0.9985352 -0.05709839
vn -0.01982117 -0.9985352 -0.05447388
vn -0.01982117 -0.9985352 -0.05447388
vn -0.02897644 -0.9985352 -0.05020142
vn -0.02897644 -0.9985352 -0.05020142
vn -0.03726196 -0.9985352 -0.04440308
vn -0.03726196 -0.9985352 -0.04440308
vn -0.04440308 -0.9985352 -0.03726196
vn -0.04440308 -0.9985352 -0.03726196
vn -0.05020142 -0.9985352 -0.02897644
vn -0.05020142 -0.9985352 -0.02897644
vn -0.05447388 -0.9985352 -0.01982117
vn -0.05447388 -0.9985352 -0.01982117
vn -0.05709839 -0.9985352 -0.01006317
vn -0.05709839 -0.9985352 -0.01006317
vn -0.05795288 -0.9985352 0
vn -0.05795288 -0.9985352 0
vn 0 -0.3811035 -0.9248047
vn 5.364418E-07 0.001433372 -1
vn -0.1737061 0.001433372 -0.9848633
vn -0.1605225 -0.3811035 -0.9106445
vn -0.342041 0.001433372 -0.9394531
vn -0.3161621 -0.3811035 -0.8686523
vn -0.5 0.001433372 -0.8662109
vn -0.4624023 -0.3811035 -0.8007813
vn -0.6425781 0.001433372 -0.7661133
vn -0.5942383 -0.3811035 -0.7084961
vn -0.7661133 0.001433372 -0.6425781
vn -0.7084961 -0.3811035 -0.5942383
vn -0.8662109 0.001433372 -0.5
vn -0.8007813 -0.3811035 -0.4624023
vn -0.9394531 0.001433372 -0.342041
vn -0.8686523 -0.3811035 -0.3161621
vn -0.9848633 0.001433372 -0.1737061
vn -0.9106445 -0.3811035 -0.1605225
vn -1 0.001433372 -5.364418E-07
vn -0.9248047 -0.3811035 2.384186E-07
vn -4.172325E-07 0 -1
vn -5.960464E-07 0 -1
vn -0.1737061 0 -0.9848633
vn -0.1737061 0 -0.9848633
vn 5.364418E-07 0 -1
vn -0.342041 0 -0.9394531
vn -0.1737061 0 -0.9848633
vn -0.342041 0 -0.9394531
vn -0.5 0 -0.8662109
vn -0.342041 0 -0.9394531
vn -0.5 0 -0.8662109
vn -0.6425781 0 -0.7661133
vn -0.5 0 -0.8662109
vn -0.6425781 0 -0.7661133
vn -0.7661133 0 -0.6425781
vn -0.6425781 0 -0.7661133
vn -0.7661133 0 -0.6425781
vn -0.8662109 0 -0.5
vn -0.7661133 0 -0.6425781
vn -0.8662109 0 -0.5
vn -0.9394531 0 -0.342041
vn -0.8662109 0 -0.5
vn -0.9394531 0 -0.342041
vn -0.9848633 0 -0.1737061
vn -0.9394531 0 -0.342041
vn -0.9848633 0 -0.1737061
vn -1 0 4.768372E-07
vn -0.9848633 0 -0.1737061
vn -1 0 4.768372E-07
vn -1 0 -5.364418E-07
vn 0 -0.9985352 0.05795288
vn 0 -0.9985352 0.05795288
vn 0.01006317 -0.9985352 0.05709839
vn 0.01006317 -0.9985352 0.05709839
vn 0.01982117 -0.9985352 0.05447388
vn 0.01982117 -0.9985352 0.05447388
vn 0.02897644 -0.9985352 0.05020142
vn 0.02897644 -0.9985352 0.05020142
vn 0.03726196 -0.9985352 0.04440308
vn 0.03726196 -0.9985352 0.04440308
vn 0.04440308 -0.9985352 0.03726196
vn 0.04440308 -0.9985352 0.03726196
vn 0.05020142 -0.9985352 0.02897644
vn 0.05020142 -0.9985352 0.02897644
vn 0.05447388 -0.9985352 0.01982117
vn 0.05447388 -0.9985352 0.01982117
vn 0.05709839 -0.9985352 0.01006317
vn 0.05709839 -0.9985352 0.01006317
vn 0.05795288 -0.9985352 0
vn 0.05795288 -0.9985352 0
vn 0.9248047 -0.3811035 -6.556511E-07
vn 1 0.001433372 1.788139E-07
vn 0.9848633 0.001433372 -0.1737061
vn 0.9106445 -0.3811035 -0.1605225
vn 0.9394531 0.001433372 -0.342041
vn 0.8686523 -0.3811035 -0.3161621
vn 0.8662109 0.001433372 -0.5
vn 0.8007813 -0.3811035 -0.4624023
vn 0.7661133 0.001433372 -0.6425781
vn 0.7084961 -0.3811035 -0.5942383
vn 0.6425781 0.001433372 -0.7661133
vn 0.5942383 -0.3811035 -0.7084961
vn 0.5 0.001433372 -0.8662109
vn 0.4624023 -0.3811035 -0.8007813
vn 0.342041 0.001433372 -0.9394531
vn 0.3161621 -0.3811035 -0.8686523
vn 0.1737061 0.001433372 -0.9848633
vn 0.1605225 -0.3811035 -0.9106445
vn 5.364418E-07 0.001433372 -1
vn 0 -0.3811035 -0.9248047
vn 1 0 -4.768372E-07
vn 1 0 -4.768372E-07
vn 0.9848633 0 -0.1737061
vn 0.9848633 0 -0.1737061
vn 1 0 1.788139E-07
vn 0.9394531 0 -0.342041
vn 0.9848633 0 -0.1737061
vn 0.9394531 0 -0.342041
vn 0.8662109 0 -0.5
vn 0.9394531 0 -0.342041
vn 0.8662109 0 -0.5
vn 0.7661133 0 -0.6425781
vn 0.8662109 0 -0.5
vn 0.7661133 0 -0.6425781
vn 0.6425781 0 -0.7661133
vn 0.7661133 0 -0.6425781
vn 0.6425781 0 -0.7661133
vn 0.5 0 -0.8662109
vn 0.6425781 0 -0.7661133
vn 0.5 0 -0.8662109
vn 0.342041 0 -0.9394531
vn 0.5 0 -0.8662109
vn 0.342041 0 -0.9394531
vn 0.1737061 0 -0.9848633
vn 0.342041 0 -0.9394531
vn 0.1737061 0 -0.9848633
vn -5.960464E-07 0 -1
vn 0.1737061 0 -0.9848633
vn -4.172325E-07 0 -1
vn 5.364418E-07 0 -1
vn -0.05795288 -0.9985352 0
vn -0.05795288 -0.9985352 0
vn -0.05709839 -0.9985352 0.01006317
vn -0.05709839 -0.9985352 0.01006317
vn -0.05447388 -0.9985352 0.01982117
vn -0.05447388 -0.9985352 0.01982117
vn -0.05020142 -0.9985352 0.02897644
vn -0.05020142 -0.9985352 0.02897644
vn -0.04440308 -0.9985352 0.03726196
vn -0.04440308 -0.9985352 0.03726196
vn -0.03726196 -0.9985352 0.04440308
vn -0.03726196 -0.9985352 0.04440308
vn -0.02897644 -0.9985352 0.05020142
vn -0.02897644 -0.9985352 0.05020142
vn -0.01982117 -0.9985352 0.05447388
vn -0.01982117 -0.9985352 0.05447388
vn -0.01006317 -0.9985352 0.05709839
vn -0.01006317 -0.9985352 0.05709839
vn 0 -0.9985352 0.05795288
vn 0 -0.9985352 0.05795288
vn 0.1604004 0.3840332 -0.9091797
vn 8.940697E-07 0.3840332 -0.9233398
vn 8.34465E-07 0.001433372 -1
vn 0.1737061 0.001433372 -0.9848633
vn 0.315918 0.3840332 -0.8676758
vn 0.342041 0.001433372 -0.9394531
vn 0.4616699 0.3840332 -0.7998047
vn 0.5 0.001433372 -0.8662109
vn 0.59375 0.3840332 -0.7075195
vn 0.6425781 0.001433372 -0.7661133
vn 0.7075195 0.3840332 -0.59375
vn 0.7661133 0.001433372 -0.6425781
vn 0.7998047 0.3840332 -0.4616699
vn 0.8662109 0.001433372 -0.5
vn 0.8676758 0.3840332 -0.315918
vn 0.9394531 0.001433372 -0.342041
vn 0.9091797 0.3840332 -0.1604004
vn 0.9848633 0.001433372 -0.1737061
vn 0.9233398 0.3840332 -1.192093E-06
vn 1 0.001433372 -1.549721E-06
vn 0.9091797 0.3840332 0.1604004
vn 0.9848633 0.001433372 0.1737061
vn 0.8676758 0.3840332 0.315918
vn 0.9394531 0.001433372 0.342041
vn 0.7998047 0.3840332 0.4616699
vn 0.8662109 0.001433372 0.5
vn 0.7075195 0.3840332 0.59375
vn 0.7661133 0.001433372 0.6425781
vn 0.59375 0.3840332 0.7075195
vn 0.6425781 0.001433372 0.7661133
vn 0.4616699 0.3840332 0.7998047
vn 0.5 0.001433372 0.8662109
vn 0.315918 0.3840332 0.8676758
vn 0.342041 0.001433372 0.9394531
vn 0.1604004 0.3840332 0.9091797
vn 0.1737061 0.001433372 0.9848633
vn 0 0.3840332 0.9233398
vn -1.788139E-07 0.001433372 1
vn 0 1 -0.006481171
vn -0.06622314 0.9243164 -0.3757324
vn 3.576279E-07 0.9243164 -0.3813477
vn -0.001125336 1 -0.006381989
vn -0.1304932 0.9243164 -0.3583984
vn 0 1 -3.457069E-06
vn 0 1 -3.457069E-06
vn -0.002216339 1 -0.006088257
vn -0.1906738 0.9243164 -0.3303223
vn 0 1 0
vn 0 1 0
vn 0 1 0
vn -0.003240585 1 -0.00561142
vn -0.2452393 0.9243164 -0.2922363
vn 0 1 0
vn -0.004165649 1 -0.004962921
vn -0.2922363 0.9243164 -0.2452393
vn 0 1 0
vn -0.004962921 1 -0.004165649
vn -0.3303223 0.9243164 -0.1906738
vn 0 1 0
vn -0.00561142 1 -0.003240585
vn -0.3583984 0.9243164 -0.1304932
vn 0 1 0
vn -0.006088257 1 -0.002216339
vn -0.3757324 0.9243164 -0.06622314
vn 0 1 0
vn -0.006381989 1 -0.001125336
vn -0.3813477 0.9243164 0
vn 0 1 0
vn -0.006481171 1 0
vn -0.3757324 0.9243164 0.06622314
vn 0 1 0
vn -0.006381989 1 0.001125336
vn -0.3583984 0.9243164 0.1304932
vn 0 1 0
vn -0.006088257 1 0.002216339
vn -0.3303223 0.9243164 0.1906738
vn 0 1 0
vn -0.00561142 1 0.003240585
vn -0.2922363 0.9243164 0.2452393
vn 0 1 0
vn -0.004962921 1 0.004165649
vn -0.2452393 0.9243164 0.2922363
vn 0 1 0
vn -0.004165649 1 0.004962921
vn -0.1906738 0.9243164 0.3303223
vn 0 1 0
vn -0.003240585 1 0.00561142
vn -0.1304932 0.9243164 0.3583984
vn 0 1 0
vn -0.002216339 1 0.006088257
vn -0.06622314 0.9243164 0.3757324
vn 0 1 0
vn -0.001125336 1 0.006381989
vn 0 0.9243164 0.3813477
vn 0 1 0
vn 0 1 0.006481171
vn 8.940697E-07 0.3840332 -0.9233398
vn -0.1737061 0.001433372 -0.9848633
vn 8.34465E-07 0.001433372 -1
vn -0.1604004 0.3840332 -0.9091797
vn -0.342041 0.001433372 -0.9394531
vn -0.315918 0.3840332 -0.8676758
vn -0.5 0.001433372 -0.8662109
vn -0.4616699 0.3840332 -0.7998047
vn -0.6425781 0.001433372 -0.7661133
vn -0.59375 0.3840332 -0.7075195
vn -0.7661133 0.001433372 -0.6425781
vn -0.7075195 0.3840332 -0.59375
vn -0.8662109 0.001433372 -0.5
vn -0.7998047 0.3840332 -0.4616699
vn -0.9394531 0.001433372 -0.342041
vn -0.8676758 0.3840332 -0.315918
vn -0.9848633 0.001433372 -0.1737061
vn -0.9091797 0.3840332 -0.1604004
vn -1 0.001433372 -5.364418E-07
vn -0.9233398 0.3840332 -7.748604E-07
vn -0.9848633 0.001433372 0.1737061
vn -0.9091797 0.3840332 0.1604004
vn -0.9394531 0.001433372 0.342041
vn -0.8676758 0.3840332 0.315918
vn -0.8662109 0.001433372 0.5
vn -0.7998047 0.3840332 0.4616699
vn -0.7661133 0.001433372 0.6425781
vn -0.7075195 0.3840332 0.59375
vn -0.6425781 0.001433372 0.7661133
vn -0.59375 0.3840332 0.7075195
vn -0.5 0.001433372 0.8662109
vn -0.4616699 0.3840332 0.7998047
vn -0.342041 0.001433372 0.9394531
vn -0.315918 0.3840332 0.8676758
vn -0.1737061 0.001433372 0.9848633
vn -0.1604004 0.3840332 0.9091797
vn -1.788139E-07 0.001433372 1
vn 0 0.3840332 0.9233398
vn 0 1 0.006481171
vn 0.06622314 0.9243164 0.3757324
vn 0 0.9243164 0.3813477
vn 0.001125336 1 0.006381989
vn 0.1304932 0.9243164 0.3583984
vn 0 1 8.940697E-07
vn 0 1 8.940697E-07
vn 0.002216339 1 0.006088257
vn 0.1906738 0.9243164 0.3303223
vn 0 1 0
vn 0 1 0
vn 0 1 0
vn 0.003240585 1 0.00561142
vn 0.2452393 0.9243164 0.2922363
vn 0 1 0
vn 0.004165649 1 0.004962921
vn 0.2922363 0.9243164 0.2452393
vn 0 1 0
vn 0.004962921 1 0.004165649
vn 0.3303223 0.9243164 0.1906738
vn 0 1 0
vn 0.00561142 1 0.003240585
vn 0.3583984 0.9243164 0.1304932
vn 0 1 0
vn 0.006088257 1 0.002216339
vn 0.3757324 0.9243164 0.06622314
vn 0 1 0
vn 0.006381989 1 0.001125336
vn 0.3813477 0.9243164 -6.556511E-07
vn 0 1 0
vn 0.006481171 1 0
vn 0.3757324 0.9243164 -0.06622314
vn 0 1 0
vn 0.006381989 1 -0.001125336
vn 0.3583984 0.9243164 -0.1304932
vn 0 1 0
vn 0.006088257 1 -0.002216339
vn 0.3303223 0.9243164 -0.1906738
vn 0 1 0
vn 0.00561142 1 -0.003240585
vn 0.2922363 0.9243164 -0.2452393
vn 0 1 0
vn 0.004962921 1 -0.004165649
vn 0.2452393 0.9243164 -0.2922363
vn 0 1 0
vn 0.004165649 1 -0.004962921
vn 0.1906738 0.9243164 -0.3303223
vn 0 1 0
vn 0.003240585 1 -0.00561142
vn 0.1304932 0.9243164 -0.3583984
vn 0 1 0
vn 0.002216339 1 -0.006088257
vn 0 1 0
vn 0.06622314 0.9243164 -0.3757324
vn 0.001125336 1 -0.006381989
vn 3.576279E-07 0.9243164 -0.3813477
vn 0 1 -0.006481171
vn 0 1 4.410744E-06
vn 0 1 4.410744E-06
g desert_side_0
f 3/3/3 2/2/2 1/1/1
f 4/4/4 3/3/3 1/1/1
f 5/5/5 3/3/3 4/4/4
f 6/6/6 5/5/5 4/4/4
f 7/7/7 5/5/5 6/6/6
f 8/8/8 7/7/7 6/6/6
f 9/9/9 7/7/7 8/8/8
f 10/10/10 9/9/9 8/8/8
f 11/11/11 9/9/9 10/10/10
f 12/12/12 11/11/11 10/10/10
f 13/13/13 11/11/11 12/12/12
f 14/14/14 13/13/13 12/12/12
f 15/15/15 13/13/13 14/14/14
f 16/16/16 15/15/15 14/14/14
f 17/17/17 15/15/15 16/16/16
f 18/18/18 17/17/17 16/16/16
f 19/19/19 17/17/17 18/18/18
f 20/20/20 19/19/19 18/18/18
f 23/23/23 22/22/22 21/21/21
f 24/24/24 23/23/23 21/21/21
f 24/24/24 21/21/21 25/25/25
f 26/26/26 23/23/23 24/24/24
f 27/27/27 24/24/24 25/25/25
f 28/28/28 26/26/26 24/24/24
f 28/28/28 24/24/24 27/27/27
f 29/29/29 26/26/26 28/28/28
f 30/30/30 28/28/28 27/27/27
f 31/31/31 29/29/29 28/28/28
f 31/31/31 28/28/28 30/30/30
f 32/32/32 29/29/29 31/31/31
f 33/33/33 31/31/31 30/30/30
f 34/34/34 32/32/32 31/31/31
f 34/34/34 31/31/31 33/33/33
f 35/35/35 32/32/32 34/34/34
f 36/36/36 34/34/34 33/33/33
f 37/37/37 35/35/35 34/34/34
f 37/37/37 34/34/34 36/36/36
f 38/38/38 35/35/35 37/37/37
f 39/39/39 37/37/37 36/36/36
f 40/40/40 38/38/38 37/37/37
f 40/40/40 37/37/37 39/39/39
f 41/41/41 38/38/38 40/40/40
f 42/42/42 40/40/40 39/39/39
f 43/43/43 41/41/41 40/40/40
f 43/43/43 40/40/40 42/42/42
f 44/44/44 41/41/41 43/43/43
f 45/45/45 43/43/43 42/42/42
f 46/46/46 44/44/44 43/43/43
f 46/46/46 43/43/43 45/45/45
f 47/47/47 44/44/44 46/46/46
f 48/48/48 46/46/46 45/45/45
f 49/49/49 47/47/47 46/46/46
f 49/49/49 46/46/46 48/48/48
f 50/50/50 49/49/49 48/48/48
f 53/53/53 52/52/52 51/51/51
f 54/54/54 53/53/53 51/51/51
f 55/55/55 53/53/53 54/54/54
f 56/56/56 55/55/55 54/54/54
f 57/57/57 55/55/55 56/56/56
f 58/58/58 57/57/57 56/56/56
f 59/59/59 57/57/57 58/58/58
f 60/60/60 59/59/59 58/58/58
f 61/61/61 59/59/59 60/60/60
f 62/62/62 61/61/61 60/60/60
f 63/63/63 61/61/61 62/62/62
f 64/64/64 63/63/63 62/62/62
f 65/65/65 63/63/63 64/64/64
f 66/66/66 65/65/65 64/64/64
f 67/67/67 65/65/65 66/66/66
f 68/68/68 67/67/67 66/66/66
f 69/69/69 67/67/67 68/68/68
f 70/70/70 69/69/69 68/68/68
f 73/73/73 72/72/72 71/71/71
f 74/74/74 73/73/73 71/71/71
f 75/75/75 73/73/73 74/74/74
f 76/76/76 75/75/75 74/74/74
f 77/77/77 75/75/75 76/76/76
f 78/78/78 77/77/77 76/76/76
f 79/79/79 77/77/77 78/78/78
f 80/80/80 79/79/79 78/78/78
f 81/81/81 79/79/79 80/80/80
f 82/82/82 81/81/81 80/80/80
f 83/83/83 81/81/81 82/82/82
f 84/84/84 83/83/83 82/82/82
f 85/85/85 83/83/83 84/84/84
f 86/86/86 85/85/85 84/84/84
f 87/87/87 85/85/85 86/86/86
f 88/88/88 87/87/87 86/86/86
f 89/89/89 87/87/87 88/88/88
f 90/90/90 89/89/89 88/88/88
f 93/93/93 92/92/92 91/91/91
f 94/94/94 93/93/93 91/91/91
f 94/94/94 91/91/91 95/95/95
f 96/96/96 93/93/93 94/94/94
f 97/97/97 94/94/94 95/95/95
f 98/98/98 96/96/96 94/94/94
f 98/98/98 94/94/94 97/97/97
f 99/99/99 96/96/96 98/98/98
f 100/100/100 98/98/98 97/97/97
f 101/101/101 99/99/99 98/98/98
f 101/101/101 98/98/98 100/100/100
f 102/102/102 99/99/99 101/101/101
f 103/103/103 101/101/101 100/100/100
f 104/104/104 102/102/102 101/101/101
f 104/104/104 101/101/101 103/103/103
f 105/105/105 102/102/102 104/104/104
f 106/106/106 104/104/104 103/103/103
f 107/107/107 105/105/105 104/104/104
f 107/107/107 104/104/104 106/106/106
f 108/108/108 105/105/105 107/107/107
f 109/109/109 107/107/107 106/106/106
f 110/110/110 108/108/108 107/107/107
f 110/110/110 107/107/107 109/109/109
f 111/111/111 108/108/108 110/110/110
f 112/112/112 110/110/110 109/109/109
f 113/113/113 111/111/111 110/110/110
f 113/113/113 110/110/110 112/112/112
f 114/114/114 111/111/111 113/113/113
f 115/115/115 113/113/113 112/112/112
f 116/116/116 114/114/114 113/113/113
f 116/116/116 113/113/113 115/115/115
f 117/117/117 114/114/114 116/116/116
f 118/118/118 116/116/116 115/115/115
f 119/119/119 117/117/117 116/116/116
f 119/119/119 116/116/116 118/118/118
f 120/120/120 119/119/119 118/118/118
f 123/123/123 122/122/122 121/121/121
f 124/124/124 123/123/123 121/121/121
f 125/125/125 123/123/123 124/124/124
f 126/126/126 125/125/125 124/124/124
f 127/127/127 125/125/125 126/126/126
f 128/128/128 127/127/127 126/126/126
f 129/129/129 127/127/127 128/128/128
f 130/130/130 129/129/129 128/128/128
f 131/131/131 129/129/129 130/130/130
f 132/132/132 131/131/131 130/130/130
f 133/133/133 131/131/131 132/132/132
f 134/134/134 133/133/133 132/132/132
f 135/135/135 133/133/133 134/134/134
f 136/136/136 135/135/135 134/134/134
f 137/137/137 135/135/135 136/136/136
f 138/138/138 137/137/137 136/136/136
f 139/139/139 137/137/137 138/138/138
f 140/140/140 139/139/139 138/138/138
f 143/143/143 142/142/142 141/141/141
f 144/144/144 143/143/143 141/141/141
f 145/145/145 143/143/143 144/144/144
f 146/146/146 145/145/145 144/144/144
f 147/147/147 145/145/145 146/146/146
f 148/148/148 147/147/147 146/146/146
f 149/149/149 147/147/147 148/148/148
f 150/150/150 149/149/149 148/148/148
f 151/151/151 149/149/149 150/150/150
f 152/152/152 151/151/151 150/150/150
f 153/153/153 151/151/151 152/152/152
f 154/154/154 153/153/153 152/152/152
f 155/155/155 153/153/153 154/154/154
f 156/156/156 155/155/155 154/154/154
f 157/157/157 155/155/155 156/156/156
f 158/158/158 157/157/157 156/156/156
f 159/159/159 157/157/157 158/158/158
f 160/160/160 159/159/159 158/158/158
f 163/163/163 162/162/162 161/161/161
f 164/164/164 163/163/163 161/161/161
f 164/164/164 161/161/161 165/165/165
f 166/166/166 163/163/163 164/164/164
f 167/167/167 164/164/164 165/165/165
f 168/168/168 166/166/166 164/164/164
f 168/168/168 164/164/164 167/167/167
f 169/169/169 166/166/166 168/168/168
f 170/170/170 168/168/168 167/167/167
f 171/171/171 169/169/169 168/168/168
f 171/171/171 168/168/168 170/170/170
f 172/172/172 169/169/169 171/171/171
f 173/173/173 171/171/171 170/170/170
f 174/174/174 172/172/172 171/171/171
f 174/174/174 171/171/171 173/173/173
f 175/175/175 172/172/172 174/174/174
f 176/176/176 174/174/174 173/173/173
f 177/177/177 175/175/175 174/174/174
f 177/177/177 174/174/174 176/176/176
f 178/178/178 175/175/175 177/177/177
f 179/179/179 177/177/177 176/176/176
f 180/180/180 178/178/178 177/177/177
f 180/180/180 177/177/177 179/179/179
f 181/181/181 178/178/178 180/180/180
f 182/182/182 180/180/180 179/179/179
f 183/183/183 181/181/181 180/180/180
f 183/183/183 180/180/180 182/182/182
f 184/184/184 181/181/181 183/183/183
f 185/185/185 183/183/183 182/182/182
f 186/186/186 184/184/184 183/183/183
f 186/186/186 183/183/183 185/185/185
f 187/187/187 184/184/184 186/186/186
f 188/188/188 186/186/186 185/185/185
f 189/189/189 187/187/187 186/186/186
f 189/189/189 186/186/186 188/188/188
f 190/190/190 189/189/189 188/188/188
f 193/193/193 192/192/192 191/191/191
f 194/194/194 193/193/193 191/191/191
f 195/195/195 193/193/193 194/194/194
f 196/196/196 195/195/195 194/194/194
f 197/197/197 195/195/195 196/196/196
f 198/198/198 197/197/197 196/196/196
f 199/199/199 197/197/197 198/198/198
f 200/200/200 199/199/199 198/198/198
f 201/201/201 199/199/199 200/200/200
f 202/202/202 201/201/201 200/200/200
f 203/203/203 201/201/201 202/202/202
f 204/204/204 203/203/203 202/202/202
f 205/205/205 203/203/203 204/204/204
f 206/206/206 205/205/205 204/204/204
f 207/207/207 205/205/205 206/206/206
f 208/208/208 207/207/207 206/206/206
f 209/209/209 207/207/207 208/208/208
f 210/210/210 209/209/209 208/208/208
f 213/213/213 212/212/212 211/211/211
f 214/214/214 213/213/213 211/211/211
f 215/215/215 213/213/213 214/214/214
f 216/216/216 215/215/215 214/214/214
f 217/217/217 215/215/215 216/216/216
f 218/218/218 217/217/217 216/216/216
f 219/219/219 217/217/217 218/218/218
f 220/220/220 219/219/219 218/218/218
f 221/221/221 219/219/219 220/220/220
f 222/222/222 221/221/221 220/220/220
f 223/223/223 221/221/221 222/222/222
f 224/224/224 223/223/223 222/222/222
f 225/225/225 223/223/223 224/224/224
f 226/226/226 225/225/225 224/224/224
f 227/227/227 225/225/225 226/226/226
f 228/228/228 227/227/227 226/226/226
f 229/229/229 227/227/227 228/228/228
f 230/230/230 229/229/229 228/228/228
f 233/233/233 232/232/232 231/231/231
f 234/234/234 233/233/233 231/231/231
f 234/234/234 231/231/231 235/235/235
f 236/236/236 233/233/233 234/234/234
f 237/237/237 234/234/234 235/235/235
f 238/238/238 236/236/236 234/234/234
f 238/238/238 234/234/234 237/237/237
f 239/239/239 236/236/236 238/238/238
f 240/240/240 238/238/238 237/237/237
f 241/241/241 239/239/239 238/238/238
f 241/241/241 238/238/238 240/240/240
f 242/242/242 239/239/239 241/241/241
f 243/243/243 241/241/241 240/240/240
f 244/244/244 242/242/242 241/241/241
f 244/244/244 241/241/241 243/243/243
f 245/245/245 242/242/242 244/244/244
f 246/246/246 244/244/244 243/243/243
f 247/247/247 245/245/245 244/244/244
f 247/247/247 244/244/244 246/246/246
f 248/248/248 245/245/245 247/247/247
f 249/249/249 247/247/247 246/246/246
f 250/250/250 248/248/248 247/247/247
f 250/250/250 247/247/247 249/249/249
f 251/251/251 248/248/248 250/250/250
f 252/252/252 250/250/250 249/249/249
f 253/253/253 251/251/251 250/250/250
f 253/253/253 250/250/250 252/252/252
f 254/254/254 251/251/251 253/253/253
f 255/255/255 253/253/253 252/252/252
f 256/256/256 254/254/254 253/253/253
f 256/256/256 253/253/253 255/255/255
f 257/257/257 254/254/254 256/256/256
f 258/258/258 256/256/256 255/255/255
f 259/259/259 257/257/257 256/256/256
f 259/259/259 256/256/256 258/258/258
f 260/260/260 259/259/259 258/258/258
f 263/263/263 262/262/262 261/261/261
f 264/264/264 263/263/263 261/261/261
f 265/265/265 263/263/263 264/264/264
f 266/266/266 265/265/265 264/264/264
f 267/267/267 265/265/265 266/266/266
f 268/268/268 267/267/267 266/266/266
f 269/269/269 267/267/267 268/268/268
f 270/270/270 269/269/269 268/268/268
f 271/271/271 269/269/269 270/270/270
f 272/272/272 271/271/271 270/270/270
f 273/273/273 271/271/271 272/272/272
f 274/274/274 273/273/273 272/272/272
f 275/275/275 273/273/273 274/274/274
f 276/276/276 275/275/275 274/274/274
f 277/277/277 275/275/275 276/276/276
f 278/278/278 277/277/277 276/276/276
f 279/279/279 277/277/277 278/278/278
f 280/280/280 279/279/279 278/278/278
f 283/283/283 282/282/282 281/281/281
f 284/284/284 283/283/283 281/281/281
f 284/284/284 281/281/281 285/285/285
f 286/286/286 284/284/284 285/285/285
f 286/286/286 285/285/285 287/287/287
f 288/288/288 286/286/286 287/287/287
f 288/288/288 287/287/287 289/289/289
f 290/290/290 288/288/288 289/289/289
f 290/290/290 289/289/289 291/291/291
f 292/292/292 290/290/290 291/291/291
f 292/292/292 291/291/291 293/293/293
f 294/294/294 292/292/292 293/293/293
f 294/294/294 293/293/293 295/295/295
f 296/296/296 294/294/294 295/295/295
f 296/296/296 295/295/295 297/297/297
f 298/298/298 296/296/296 297/297/297
f 297/297/297 299/299/299 298/298/298
f 299/299/299 300/300/300 298/298/298
f 300/300/300 299/299/299 301/301/301
f 302/302/302 300/300/300 301/301/301
f 302/302/302 301/301/301 303/303/303
f 304/304/304 302/302/302 303/303/303
f 304/304/304 303/303/303 305/305/305
f 306/306/306 304/304/304 305/305/305
f 306/306/306 305/305/305 307/307/307
f 308/308/308 306/306/306 307/307/307
f 308/308/308 307/307/307 309/309/309
f 310/310/310 308/308/308 309/309/309
f 310/310/310 309/309/309 311/311/311
f 312/312/312 310/310/310 311/311/311
f 312/312/312 311/311/311 313/313/313
f 314/314/314 312/312/312 313/313/313
f 314/314/314 313/313/313 315/315/315
f 316/316/316 314/314/314 315/315/315
f 316/316/316 315/315/315 317/317/317
f 318/318/318 316/316/316 317/317/317
f 321/321/321 320/320/320 319/319/319
f 320/320/320 322/322/322 319/319/319
f 320/320/320 323/323/323 322/322/322
f 322/322/322 324/324/324 319/319/319
f 324/324/324 325/325/325 319/319/319
f 323/323/323 326/326/326 322/322/322
f 323/323/323 327/327/327 326/326/326
f 326/326/326 328/328/328 322/322/322
f 328/328/328 329/329/329 322/322/322
f 330/330/330 328/328/328 326/326/326
f 327/327/327 331/331/331 326/326/326
f 331/331/331 330/330/330 326/326/326
f 327/327/327 332/332/332 331/331/331
f 333/333/333 330/330/330 331/331/331
f 332/332/332 334/334/334 331/331/331
f 334/334/334 333/333/333 331/331/331
f 332/332/332 335/335/335 334/334/334
f 336/336/336 333/333/333 334/334/334
f 335/335/335 337/337/337 334/334/334
f 337/337/337 336/336/336 334/334/334
f 335/335/335 338/338/338 337/337/337
f 339/339/339 336/336/336 337/337/337
f 338/338/338 340/340/340 337/337/337
f 340/340/340 339/339/339 337/337/337
f 338/338/338 341/341/341 340/340/340
f 342/342/342 339/339/339 340/340/340
f 341/341/341 343/343/343 340/340/340
f 343/343/343 342/342/342 340/340/340
f 341/341/341 344/344/344 343/343/343
f 345/345/345 342/342/342 343/343/343
f 344/344/344 346/346/346 343/343/343
f 346/346/346 345/345/345 343/343/343
f 344/344/344 347/347/347 346/346/346
f 348/348/348 345/345/345 346/346/346
f 347/347/347 349/349/349 346/346/346
f 349/349/349 348/348/348 346/346/346
f 347/347/347 350/350/350 349/349/349
f 351/351/351 348/348/348 349/349/349
f 350/350/350 352/352/352 349/349/349
f 352/352/352 351/351/351 349/349/349
f 350/350/350 353/353/353 352/352/352
f 354/354/354 351/351/351 352/352/352
f 353/353/353 355/355/355 352/352/352
f 355/355/355 354/354/354 352/352/352
f 353/353/353 356/356/356 355/355/355
f 357/357/357 354/354/354 355/355/355
f 356/356/356 358/358/358 355/355/355
f 358/358/358 357/357/357 355/355/355
f 356/356/356 359/359/359 358/358/358
f 360/360/360 357/357/357 358/358/358
f 359/359/359 361/361/361 358/358/358
f 361/361/361 360/360/360 358/358/358
f 359/359/359 362/362/362 361/361/361
f 363/363/363 360/360/360 361/361/361
f 362/362/362 364/364/364 361/361/361
f 364/364/364 363/363/363 361/361/361
f 362/362/362 365/365/365 364/364/364
f 366/366/366 363/363/363 364/364/364
f 365/365/365 367/367/367 364/364/364
f 367/367/367 366/366/366 364/364/364
f 365/365/365 368/368/368 367/367/367
f 369/369/369 366/366/366 367/367/367
f 368/368/368 370/370/370 367/367/367
f 370/370/370 369/369/369 367/367/367
f 368/368/368 371/371/371 370/370/370
f 372/372/372 369/369/369 370/370/370
f 371/371/371 373/373/373 370/370/370
f 373/373/373 372/372/372 370/370/370
f 371/371/371 374/374/374 373/373/373
f 375/375/375 372/372/372 373/373/373
f 374/374/374 376/376/376 373/373/373
f 376/376/376 375/375/375 373/373/373
f 379/379/379 378/378/378 377/377/377
f 378/378/378 380/380/380 377/377/377
f 378/378/378 381/381/381 380/380/380
f 381/381/381 382/382/382 380/380/380
f 381/381/381 383/383/383 382/382/382
f 383/383/383 384/384/384 382/382/382
f 383/383/383 385/385/385 384/384/384
f 385/385/385 386/386/386 384/384/384
f 385/385/385 387/387/387 386/386/386
f 387/387/387 388/388/388 386/386/386
f 387/387/387 389/389/389 388/388/388
f 389/389/389 390/390/390 388/388/388
f 389/389/389 391/391/391 390/390/390
f 391/391/391 392/392/392 390/390/390
f 391/391/391 393/393/393 392/392/392
f 393/393/393 394/394/394 392/392/392
f 393/393/393 395/395/395 394/394/394
f 395/395/395 396/396/396 394/394/394
f 395/395/395 397/397/397 396/396/396
f 397/397/397 398/398/398 396/396/396
f 397/397/397 399/399/399 398/398/398
f 399/399/399 400/400/400 398/398/398
f 399/399/399 401/401/401 400/400/400
f 401/401/401 402/402/402 400/400/400
f 401/401/401 403/403/403 402/402/402
f 403/403/403 404/404/404 402/402/402
f 403/403/403 405/405/405 404/404/404
f 405/405/405 406/406/406 404/404/404
f 405/405/405 407/407/407 406/406/406
f 407/407/407 408/408/408 406/406/406
f 407/407/407 409/409/409 408/408/408
f 409/409/409 410/410/410 408/408/408
f 409/409/409 411/411/411 410/410/410
f 411/411/411 412/412/412 410/410/410
f 411/411/411 413/413/413 412/412/412
f 413/413/413 414/414/414 412/412/412
f 417/417/417 416/416/416 415/415/415
f 416/416/416 418/418/418 415/415/415
f 416/416/416 419/419/419 418/418/418
f 418/418/418 420/420/420 415/415/415
f 420/420/420 421/421/421 415/415/415
f 419/419/419 422/422/422 418/418/418
f 419/419/419 423/423/423 422/422/422
f 422/422/422 424/424/424 418/418/418
f 424/424/424 425/425/425 418/418/418
f 426/426/426 424/424/424 422/422/422
f 423/423/423 427/427/427 422/422/422
f 427/427/427 426/426/426 422/422/422
f 423/423/423 428/428/428 427/427/427
f 429/429/429 426/426/426 427/427/427
f 428/428/428 430/430/430 427/427/427
f 430/430/430 429/429/429 427/427/427
f 428/428/428 431/431/431 430/430/430
f 432/432/432 429/429/429 430/430/430
f 431/431/431 433/433/433 430/430/430
f 433/433/433 432/432/432 430/430/430
f 431/431/431 434/434/434 433/433/433
f 435/435/435 432/432/432 433/433/433
f 434/434/434 436/436/436 433/433/433
f 436/436/436 435/435/435 433/433/433
f 434/434/434 437/437/437 436/436/436
f 438/438/438 435/435/435 436/436/436
f 437/437/437 439/439/439 436/436/436
f 439/439/439 438/438/438 436/436/436
f 437/437/437 440/440/440 439/439/439
f 441/441/441 438/438/438 439/439/439
f 440/440/440 442/442/442 439/439/439
f 442/442/442 441/441/441 439/439/439
f 440/440/440 443/443/443 442/442/442
f 444/444/444 441/441/441 442/442/442
f 443/443/443 445/445/445 442/442/442
f 445/445/445 444/444/444 442/442/442
f 445/445/445 443/443/443 446/446/446
f 447/447/447 444/444/444 445/445/445
f 448/448/448 445/445/445 446/446/446
f 448/448/448 447/447/447 445/445/445
f 446/446/446 449/449/449 448/448/448
f 450/450/450 447/447/447 448/448/448
f 449/449/449 451/451/451 448/448/448
f 451/451/451 450/450/450 448/448/448
f 449/449/449 452/452/452 451/451/451
f 453/453/453 450/450/450 451/451/451
f 452/452/452 454/454/454 451/451/451
f 454/454/454 453/453/453 451/451/451
f 452/452/452 455/455/455 454/454/454
f 456/456/456 453/453/453 454/454/454
f 455/455/455 457/457/457 454/454/454
f 457/457/457 456/456/456 454/454/454
f 455/455/455 458/458/458 457/457/457
f 459/459/459 456/456/456 457/457/457
f 458/458/458 460/460/460 457/457/457
f 460/460/460 459/459/459 457/457/457
f 458/458/458 461/461/461 460/460/460
f 462/462/462 459/459/459 460/460/460
f 461/461/461 463/463/463 460/460/460
f 463/463/463 462/462/462 460/460/460
f 461/461/461 464/464/464 463/463/463
f 465/465/465 462/462/462 463/463/463
f 464/464/464 466/466/466 463/463/463
f 466/466/466 465/465/465 463/463/463
f 467/467/467 465/465/465 466/466/466
f 464/464/464 468/468/468 466/466/466
f 469/469/469 467/467/467 466/466/466
f 468/468/468 469/469/469 466/466/466
f 468/468/468 470/470/470 469/469/469
f 470/470/470 471/471/471 469/469/469
f 471/471/471 472/472/472 469/469/469
f 472/472/472 473/473/473 469/469/469
