g desert_base
v -0.007980289 0 -2.980232E-10
v -0.007980289 0 -0.001995073
v -0.005985217 0 -0.001995073
v -0.005985217 0 -4.967054E-10
v -0.005985217 0 -0.001995073
v -0.005985217 0 -0.003990144
v -0.003990144 0 -0.003990144
v -0.003990144 0 -0.001995073
v -0.003990144 0 -0.003990144
v -0.003990144 0 -0.005985217
v -0.001995072 0 -0.005985217
v -0.001995072 0 -0.003990144
v -0.001995072 0 -0.005985217
v -0.001995071 0 -0.007980289
v 8.940697E-10 0 -0.007980291
v 8.940697E-10 0 -0.005985218
v -0.009471457 0 0.001995072
v -0.007980289 0 -2.980232E-10
v -0.007980289 0 0.001995073
v -0.009554612 0 0.001684733
v -0.009702006 0 -9.395758E-10
v 8.940697E-10 0 -0.007980291
v 2.117586E-09 0 -0.009702005
v 0.001684741 0 -0.009554608
v 0.001995073 0 -0.009471455
v 0.001995073 0 -0.007980291
v 0.001995073 0 -0.005985218
v 0.001995073 0 -0.007980291
v 0.003990144 0 -0.007980291
v 0.003990144 0 -0.005985218
v 6.953876E-10 0 -0.003990144
v 8.940697E-10 0 -0.005985218
v 0.001995073 0 -0.005985218
v 0.001995073 0 -0.003990146
v -0.005985217 0 0.001995073
v -0.005985217 0 -4.967054E-10
v -0.003990144 0 -4.967054E-10
v -0.003990144 0 0.001995073
v -0.003990144 0 -4.967054E-10
v -0.003990144 0 -0.001995073
v -0.001995072 0 -0.001995073
v -0.001995072 0 -2.980232E-10
v -0.007980289 0 0.003990146
v -0.007980289 0 0.001995073
v -0.005985217 0 0.001995073
v -0.005985217 0 0.003990146
v -0.001995072 0 -0.001995073
v -0.001995072 0 -0.003990144
v 6.953876E-10 0 -0.003990144
v 6.953876E-10 0 -0.001995073
v 0.003990144 0 -0.007980291
v 0.004851008 0 -0.008402179
v 0.005453526 0 -0.007980291
v 0.003990144 0 -0.008803607
v -0.007980289 0 0.005453534
v -0.008402186 0 0.004851002
v -0.007980289 0 0.003990146
v -0.00880361 0 0.003990145
v 0.001995073 0 -0.001995074
v 0.001995073 0 -0.003990146
v 0.003990144 0 -0.003990146
v 0.003990144 0 -0.001995074
v 0.003990144 0 -0.003990146
v 0.003990144 0 -0.005985218
v 0.005985218 0 -0.005985218
v 0.005985218 0 -0.003990146
v 6.953876E-10 0 -5.960464E-10
v 6.953876E-10 0 -0.001995073
v 0.001995073 0 -0.001995074
v 0.001995073 0 -4.967054E-10
v -0.001995072 0 0.001995073
v -0.001995072 0 -2.980232E-10
v 6.953876E-10 0 -5.960464E-10
v 4.967054E-10 0 0.001995073
v -0.005985217 0 0.005985218
v -0.005985217 0 0.003990146
v -0.003990144 0 0.003990146
v -0.003990144 0 0.005985218
v -0.003990144 0 0.003990146
v -0.003990144 0 0.001995073
v -0.001995072 0 0.001995073
v -0.001995072 0 0.003990146
v -0.003990144 0 0.008803611
v -0.004851006 0 0.008402184
v -0.003990144 0 0.007980289
v -0.005453534 0 0.007980289
v 0.007980291 0 -0.003990146
v 0.008402186 0 -0.004850996
v 0.008803607 0 -0.003990145
v 0.007980291 0 -0.005453526
v 0.003990144 0 -6.953876E-10
v 0.003990144 0 -0.001995074
v 0.005985218 0 -0.001995074
v 0.005985218 0 -6.953876E-10
v 0.005985218 0 -0.001995074
v 0.005985218 0 -0.003990146
v 0.007980291 0 -0.003990146
v 0.007980291 0 -0.001995074
v 0.001995073 0 0.001995073
v 0.001995073 0 -4.967054E-10
v 0.003990144 0 -6.953876E-10
v 0.003990144 0 0.001995072
v 4.967054E-10 0 0.003990145
v 4.967054E-10 0 0.001995073
v 0.001995073 0 0.001995073
v 0.001995073 0 0.003990144
v -0.003990144 0 0.007980289
v -0.003990144 0 0.005985218
v -0.001995072 0 0.005985218
v -0.001995071 0 0.007980289
v -0.001995072 0 0.005985218
v -0.001995072 0 0.003990146
v 4.967054E-10 0 0.003990145
v 6.953876E-10 0 0.005985218
v -0.005985217 0 0.007608001
v -0.006236332 0 0.007432168
v -0.005985217 0 0.005985218
v -0.007432171 0 0.006236328
v -0.007608001 0 0.005985217
v 0.005985218 0 -0.005985218
v 0.007432171 0 -0.006236322
v 0.007607996 0 -0.005985218
v 0.006236333 0 -0.007432163
v 0.005985218 0 -0.007607996
v 0.001995073 0 0.005985216
v 0.001995073 0 0.003990144
v 0.003990144 0 0.003990144
v 0.003990145 0 0.005985216
v 7.947286E-10 0 0.007980289
v 6.953876E-10 0 0.005985218
v 0.001995073 0 0.005985216
v 0.001995073 0 0.007980289
v 0.003990144 0 0.003990144
v 0.003990144 0 0.001995072
v 0.005985218 0 0.001995072
v 0.005985218 0 0.003990144
v 0.005985218 0 0.001995072
v 0.005985218 0 -6.953876E-10
v 0.007980291 0 -4.967054E-10
v 0.007980291 0 0.001995073
v 0.007980291 0 -4.967054E-10
v 0.00955461 0 -0.001684728
v 0.009702011 0 -7.020307E-10
v 0.009471453 0 -0.001995073
v 0.007980291 0 -0.001995074
v 0.003990145 0 0.008803612
v 0.001995073 0 0.007980289
v 0.003990145 0 0.007980288
v 0.003318281 0 0.009116907
v 0.001995073 0 0.009471459
v 0.007980291 0 0.003990144
v 0.009116908 0 0.003318283
v 0.008803613 0 0.003990145
v 0.007980291 0 0.001995073
v 0.009471461 0 0.001995073
v 1.148383E-10 0 0.009702009
v -0.001684738 0 0.009554613
v 7.947286E-10 0 0.007980289
v -0.001995071 0 0.007980289
v -0.001995072 0 0.009471459
v -0.003990144 0 -0.007980291
v -0.003990144 0 -0.008803608
v -0.003318277 0 -0.009116905
v -0.001995071 0 -0.007980289
v -0.001995071 0 -0.009471456
v -0.009471457 0 -0.001995072
v -0.009116902 0 -0.003318285
v -0.007980289 0 -0.001995073
v -0.007980289 0 -0.003990144
v -0.008803608 0 -0.003990144
v -0.005985216 0 -0.007607999
v -0.003990144 0 -0.005985217
v -0.005985217 0 -0.005985217
v -0.005453529 0 -0.00798029
v -0.003990144 0 -0.007980291
v -0.007980289 0 -0.00545353
v -0.005985217 0 -0.003990144
v -0.007980289 0 -0.003990144
v -0.007607997 0 -0.005985217
v -0.005985217 0 -0.005985217
v 0.005985218 0 0.007608003
v 0.003990145 0 0.005985216
v 0.005985218 0 0.005985216
v 0.005453539 0 0.007980288
v 0.003990145 0 0.007980288
v 0.007980291 0 0.005453536
v 0.005985218 0 0.003990144
v 0.007980291 0 0.003990144
v 0.007608003 0 0.005985216
v 0.005985218 0 0.005985216
v 8.940697E-10 0 -0.005985218
v 8.940697E-10 0 -0.007980291
v 0.001995073 0 -0.007980291
v 0.001995073 0 -0.005985218
v -0.007980289 0 0.001995073
v -0.007980289 0 -2.980232E-10
v -0.005985217 0 -4.967054E-10
v -0.005985217 0 0.001995073
v -0.005985217 0 -4.967054E-10
v -0.005985217 0 -0.001995073
v -0.003990144 0 -0.001995073
v -0.003990144 0 -4.967054E-10
v -0.003990144 0 -0.001995073
v -0.003990144 0 -0.003990144
v -0.001995072 0 -0.003990144
v -0.001995072 0 -0.001995073
v -0.001995072 0 -0.003990144
v -0.001995072 0 -0.005985217
v 8.940697E-10 0 -0.005985218
v 6.953876E-10 0 -0.003990144
v -0.009116906 0 0.003318279
v -0.009471457 0 0.001995072
v -0.007980289 0 0.001995073
v -0.00880361 0 0.003990145
v -0.007980289 0 0.003990146
v 0.001995073 0 -0.007980291
v 0.003990144 0 -0.008803607
v 0.003990144 0 -0.007980291
v 0.003318287 0 -0.0091169
v 0.001995073 0 -0.009471455
v -0.001995072 0 -2.980232E-10
v -0.001995072 0 -0.001995073
v 6.953876E-10 0 -0.001995073
v 6.953876E-10 0 -5.960464E-10
v -0.005985217 0 0.003990146
v -0.005985217 0 0.001995073
v -0.003990144 0 0.001995073
v -0.003990144 0 0.003990146
v 6.953876E-10 0 -0.001995073
v 6.953876E-10 0 -0.003990144
v 0.001995073 0 -0.003990146
v 0.001995073 0 -0.001995074
v -0.003990144 0 0.001995073
v -0.003990144 0 -4.967054E-10
v -0.001995072 0 -2.980232E-10
v -0.001995072 0 0.001995073
v 0.001995073 0 -0.003990146
v 0.001995073 0 -0.005985218
v 0.003990144 0 -0.005985218
v 0.003990144 0 -0.003990146
v 0.005985218 0 -0.007607996
v 0.005985218 0 -0.005985218
v 0.003990144 0 -0.005985218
v 0.005453526 0 -0.007980291
v 0.003990144 0 -0.007980291
v -0.007980289 0 0.005453534
v -0.007980289 0 0.003990146
v -0.005985217 0 0.003990146
v -0.007608001 0 0.005985217
v -0.005985217 0 0.005985218
v 0.003990144 0 -0.001995074
v 0.003990144 0 -0.003990146
v 0.005985218 0 -0.003990146
v 0.005985218 0 -0.001995074
v 0.001995073 0 -4.967054E-10
v 0.001995073 0 -0.001995074
v 0.003990144 0 -0.001995074
v 0.003990144 0 -6.953876E-10
v -0.003990144 0 0.005985218
v -0.003990144 0 0.003990146
v -0.001995072 0 0.003990146
v -0.001995072 0 0.005985218
v 0.003990144 0 0.001995072
v 0.003990144 0 -6.953876E-10
v 0.005985218 0 -6.953876E-10
v 0.005985218 0 0.001995072
v 0.001995073 0 0.003990144
v 0.001995073 0 0.001995073
v 0.003990144 0 0.001995072
v 0.003990144 0 0.003990144
v -0.001995071 0 0.007980289
v -0.001995072 0 0.005985218
v 6.953876E-10 0 0.005985218
v 7.947286E-10 0 0.007980289
v 0.005985218 0 -6.953876E-10
v 0.005985218 0 -0.001995074
v 0.007980291 0 -0.001995074
v 0.007980291 0 -4.967054E-10
v -0.005985217 0 0.007608001
v -0.005985217 0 0.005985218
v -0.003990144 0 0.005985218
v -0.005453534 0 0.007980289
v -0.003990144 0 0.007980289
v 0.005985218 0 0.003990144
v 0.005985218 0 0.001995072
v 0.007980291 0 0.001995073
v 0.007980291 0 0.003990144
v 0.001995073 0 0.007980289
v 0.001995073 0 0.005985216
v 0.003990145 0 0.005985216
v 0.003990145 0 0.007980288
v 0.008402186 0 0.004851006
v 0.007980291 0 0.005453536
v 0.007980291 0 0.003990144
v 0.008803613 0 0.003990145
v -0.003318284 0 0.009116905
v -0.003990144 0 0.008803611
v -0.003990144 0 0.007980289
v -0.001995071 0 0.007980289
v -0.001995072 0 0.009471459
v 0.001684735 0 0.009554613
v 1.148383E-10 0 0.009702009
v 7.947286E-10 0 0.007980289
v 0.001995073 0 0.009471459
v 0.001995073 0 0.007980289
v 0.007980291 0 0.001995073
v 0.009554615 0 0.001684737
v 0.009471461 0 0.001995073
v 0.007980291 0 -4.967054E-10
v 0.009702011 0 -7.020307E-10
v -0.005985217 0 -0.003990144
v -0.005985217 0 -0.005985217
v -0.003990144 0 -0.005985217
v -0.003990144 0 -0.003990144
v -0.007980289 0 -0.001995073
v -0.007980289 0 -0.003990144
v -0.005985217 0 -0.003990144
v -0.005985217 0 -0.001995073
v -0.003990144 0 -0.005985217
v -0.003990144 0 -0.007980291
v -0.001995071 0 -0.007980289
v -0.001995072 0 -0.005985217
v -0.00168473 0 -0.009554612
v 2.117586E-09 0 -0.009702005
v 8.940697E-10 0 -0.007980291
v -0.001995071 0 -0.007980289
v -0.001995071 0 -0.009471456
v -0.00955461 0 -0.001684739
v -0.009471457 0 -0.001995072
v -0.007980289 0 -0.001995073
v -0.007980289 0 -2.980232E-10
v -0.009702006 0 -9.395758E-10
v -0.004850999 0 -0.008402186
v -0.003990144 0 -0.008803608
v -0.003990144 0 -0.007980291
v -0.005453529 0 -0.00798029
v -0.008402181 0 -0.004851006
v -0.007980289 0 -0.00545353
v -0.007980289 0 -0.003990144
v -0.008803608 0 -0.003990144
v -0.006236325 0 -0.00743217
v -0.005985216 0 -0.007607999
v -0.005985217 0 -0.005985217
v -0.007432165 0 -0.006236332
v -0.007607997 0 -0.005985217
v -0.001995072 0 0.003990146
v -0.001995072 0 0.001995073
v 4.967054E-10 0 0.001995073
v 4.967054E-10 0 0.003990145
v 4.967054E-10 0 0.001995073
v 6.953876E-10 0 -5.960464E-10
v 0.001995073 0 -4.967054E-10
v 0.001995073 0 0.001995073
v 6.953876E-10 0 0.005985218
v 4.967054E-10 0 0.003990145
v 0.001995073 0 0.003990144
v 0.001995073 0 0.005985216
v 0.003990145 0 0.005985216
v 0.003990144 0 0.003990144
v 0.005985218 0 0.003990144
v 0.005985218 0 0.005985216
v 0.004851004 0 0.008402187
v 0.003990145 0 0.008803612
v 0.003990145 0 0.007980288
v 0.005453539 0 0.007980288
v 0.007980291 0 -0.001995074
v 0.009116905 0 -0.003318274
v 0.009471453 0 -0.001995073
v 0.008803607 0 -0.003990145
v 0.007980291 0 -0.003990146
v 0.006236331 0 0.007432172
v 0.005985218 0 0.007608003
v 0.005985218 0 0.005985216
v 0.00743217 0 0.006236332
v 0.007608003 0 0.005985216
v 0.007607996 0 -0.005985218
v 0.005985218 0 -0.003990146
v 0.005985218 0 -0.005985218
v 0.007980291 0 -0.005453526
v 0.007980291 0 -0.003990146
vt 0 0
vt 0 1
vt 1 1
vt 1 0
vt 0 0
vt 0 1
vt 1 1
vt 1 0
vt 0 0
vt 0 1
vt 1 1
vt 1 0
vt 0 0
vt 0 1
vt 1 1
vt 1 0
vt 0.2529297 0
vt 1 1
vt 1 0
vt 0.2128906 0.1566162
vt 0.1365967 1
vt 0 0
vt 0 0.8632813
vt 0.8432617 0.7871094
vt 1 0.7470703
vt 1 0
vt 0 0
vt 0 1
vt 1 1
vt 1 0
vt 0 0
vt 0 1
vt 1 1
vt 1 0
vt 0 0
vt 0 1
vt 1 1
vt 1 0
vt 0 0
vt 0 1
vt 1 1
vt 1 0
vt 0 0
vt 0 1
vt 1 1
vt 1 0
vt 0 0
vt 0 1
vt 1 1
vt 1 0
vt 0 0
vt 0.4296875 0.2128906
vt 0.7348633 0
vt 0 0.4135742
vt 1 0.2651367
vt 0.7871094 0.5664063
vt 1 1
vt 0.5864258 1
vt 0 0
vt 0 1
vt 1 1
vt 1 0
vt 0 0
vt 0 1
vt 1 1
vt 1 0
vt 0 0
vt 0 1
vt 1 1
vt 1 0
vt 0 0
vt 0 1
vt 1 1
vt 1 0
vt 0 0
vt 0 1
vt 1 1
vt 1 0
vt 0 0
vt 0 1
vt 1 1
vt 1 0
vt 1 0.5864258
vt 0.5703125 0.7871094
vt 1 1
vt 0.2651367 1
vt 0 0
vt 0.2128906 0.4296875
vt 0.4135742 0
vt 0 0.7348633
vt 0 0
vt 0 1
vt 1 1
vt 1 0
vt 0 0
vt 0 1
vt 1 1
vt 1 0
vt 0 0
vt 0 1
vt 1 1
vt 1 0
vt 0 0
vt 0 1
vt 1 1
vt 1 0
vt 0 0
vt 0 1
vt 1 1
vt 1 0
vt 0 0
vt 0 1
vt 1 1
vt 1 0
vt 1 0.1846924
vt 0.8754883 0.2731934
vt 1 1
vt 0.2731934 0.8754883
vt 0.1846924 1
vt 0 0
vt 0.7270508 0.1245117
vt 0.8154297 0
vt 0.1245117 0.7226563
vt 0 0.8110352
vt 0 0
vt 0 1
vt 1 1
vt 1 0
vt 0 0
vt 0 1
vt 1 1
vt 1 0
vt 0 0
vt 0 1
vt 1 1
vt 1 0
vt 0 0
vt 0 1
vt 1 1
vt 1 0
vt 0 0
vt 0.7871094 0.8432617
vt 0.8632813 0
vt 0.7470703 1
vt 0 1
vt 1 0.5864258
vt 0 1
vt 1 1
vt 0.6625977 0.4296875
vt 0 0.2529297
vt 0 0
vt 0.5703125 0.3374023
vt 0.4135742 0
vt 0 1
vt 0.7470703 1
vt 1 0.1365967
vt 0.1566162 0.2088623
vt 1 1
vt 0 1
vt 0 0.2529297
vt 0 0
vt 0 0.4135742
vt 0.3374023 0.5703125
vt 1 0
vt 1 0.7470703
vt 0.2529297 0
vt 0.4296875 0.6625977
vt 1 0
vt 1 1
vt 0.5864258 1
vt 0 0.8110352
vt 1 0
vt 0 0
vt 0.2651367 1
vt 1 1
vt 0 0.7348633
vt 1 0
vt 0 0
vt 0.1846924 1
vt 1 1
vt 1 0.1846924
vt 0 1
vt 1 1
vt 0.7348633 0
vt 0 0
vt 1 0.2651367
vt 0 1
vt 1 1
vt 0.8154297 0
vt 0 0
vt 0 0
vt 0 1
vt 1 1
vt 1 0
vt 0 0
vt 0 1
vt 1 1
vt 1 0
vt 0 0
vt 0 1
vt 1 1
vt 1 0
vt 0 0
vt 0 1
vt 1 1
vt 1 0
vt 0 0
vt 0 1
vt 1 1
vt 1 0
vt 0.4296875 0.3374023
vt 0.2529297 1
vt 1 1
vt 0.5864258 0
vt 1 0
vt 0 0
vt 1 0.4135742
vt 1 0
vt 0.6625977 0.5703125
vt 0 0.7470703
vt 0 0
vt 0 1
vt 1 1
vt 1 0
vt 0 0
vt 0 1
vt 1 1
vt 1 0
vt 0 0
vt 0 1
vt 1 1
vt 1 0
vt 0 0
vt 0 1
vt 1 1
vt 1 0
vt 0 0
vt 0 1
vt 1 1
vt 1 0
vt 1 0.8134766
vt 1 0
vt 0 0
vt 0.7348633 1
vt 0 1
vt 0 0.2651367
vt 0 1
vt 1 1
vt 0.1846924 0
vt 1 0
vt 0 0
vt 0 1
vt 1 1
vt 1 0
vt 0 0
vt 0 1
vt 1 1
vt 1 0
vt 0 0
vt 0 1
vt 1 1
vt 1 0
vt 0 0
vt 0 1
vt 1 1
vt 1 0
vt 0 0
vt 0 1
vt 1 1
vt 1 0
vt 0 0
vt 0 1
vt 1 1
vt 1 0
vt 0 0
vt 0 1
vt 1 1
vt 1 0
vt 0 0.1867676
vt 0 1
vt 1 1
vt 0.2651367 0
vt 1 0
vt 0 0
vt 0 1
vt 1 1
vt 1 0
vt 0 0
vt 0 1
vt 1 1
vt 1 0
vt 0.2128906 0.5683594
vt 0 0.2651367
vt 0 1
vt 0.4135742 1
vt 0.3374023 0.4296875
vt 0 0.5864258
vt 0 1
vt 1 1
vt 1 0.2529297
vt 0.8432617 0.2108154
vt 0 0.1365967
vt 0 1
vt 1 0.2529297
vt 1 1
vt 0 0
vt 0.7871094 0.1566162
vt 0.7470703 0
vt 0 1
vt 0.8632813 1
vt 0 0
vt 0 1
vt 1 1
vt 1 0
vt 0 0
vt 0 1
vt 1 1
vt 1 0
vt 0 0
vt 0 1
vt 1 1
vt 1 0
vt 0.1566162 0.7890625
vt 1 0.8632813
vt 1 0
vt 0 0
vt 0 0.7470703
vt 0.2128906 0.8432617
vt 0.2529297 1
vt 1 1
vt 1 0
vt 0.1365967 0
vt 0.5703125 0.2128906
vt 1 0.4135742
vt 1 0
vt 0.2651367 0
vt 0.7871094 0.4316406
vt 1 0.7348633
vt 1 0
vt 0.5864258 0
vt 0.8754883 0.7250977
vt 1 0.8134766
vt 1 0
vt 0.2731934 0.1245117
vt 0.1846924 0
vt 0 0
vt 0 1
vt 1 1
vt 1 0
vt 0 0
vt 0 1
vt 1 1
vt 1 0
vt 0 0
vt 0 1
vt 1 1
vt 1 0
vt 0 0
vt 0 1
vt 1 1
vt 1 0
vt 0.4296875 0.7871094
vt 0 0.5864258
vt 0 1
vt 0.7348633 1
vt 0 0
vt 0.5703125 0.6625977
vt 0.7470703 0
vt 0.4135742 1
vt 0 1
vt 0.1245117 0.2751465
vt 0 0.1867676
vt 0 1
vt 0.7270508 0.8754883
vt 0.8154297 1
vt 0.8154297 1
vt 0 0
vt 0 1
vt 1 0.7348633
vt 1 0
vn 0 1 0
vn 0 1 0
vn 0 1 0
vn 0 1 0
vn 0 1 0
vn 0 1 0
vn 0 1 0
vn 0 1 0
vn 0 1 0
vn 0 1 0
vn 0 1 0
vn 0 1 0
vn 0 1 0
vn 0 1 0
vn 0 1 0
vn 0 1 0
vn 0 1 0
vn 0 1 0
vn 0 1 0
vn 0 1 0
vn 0 1 0
vn 0 1 1.192093E-07
vn 0 1 2.384186E-07
vn 0 1 0
vn 0 1 0
vn 0 1 0
vn 0 1 0
vn 0 1 0
vn 0 1 0
vn 0 1 0
vn 0 1 1.192093E-07
vn 0 1 1.192093E-07
vn 0 1 1.192093E-07
vn 0 1 1.192093E-07
vn 0 1 0
vn 0 1 0
vn 0 1 0
vn 0 1 0
vn 0 1 0
vn 0 1 0
vn 0 1 0
vn 0 1 0
vn 0 1 0
vn 0 1 0
vn 0 1 0
vn 0 1 0
vn 0 1 0
vn 0 1 0
vn 0 1 0
vn 0 1 0
vn 0 1 0
vn 0 1 0
vn 0 1 0
vn 0 1 0
vn 0 1 0
vn 0 1 0
vn 0 1 0
vn 0 1 0
vn 0 1 0
vn 0 1 0
vn 0 1 0
vn 0 1 0
vn 0 1 0
vn 0 1 0
vn 0 1 0
vn 0 1 0
vn 0 1 0
vn 0 1 0
vn 0 1 0
vn 0 1 0
vn 0 1 3.576279E-07
vn 0 1 3.576279E-07
vn 0 1 3.576279E-07
vn 0 1 3.576279E-07
vn 0 1 0
vn 0 1 0
vn 0 1 0
vn 0 1 0
vn 0 1 0
vn 0 1 0
vn 0 1 0
vn 0 1 0
vn 0 1 0
vn 0 1 0
vn 0 1 0
vn 0 1 0
vn 0 1 0
vn 0 1 0
vn 0 1 0
vn 0 1 0
vn 0 1 0
vn 0 1 0
vn 0 1 0
vn 0 1 0
vn 0 1 0
vn 0 1 0
vn 0 1 0
vn 0 1 0
vn 0 1 0
vn 0 1 0
vn 0 1 0
vn 0 1 0
vn 0 1 0
vn 0 1 0
vn 0 1 0
vn 0 1 0
vn 0 1 0
vn 0 1 0
vn 0 1 0
vn 0 1 0
vn 0 1 -3.576279E-07
vn 0 1 -3.576279E-07
vn 0 1 -3.576279E-07
vn 0 1 -3.576279E-07
vn 0 1 0
vn 0 1 0
vn 0 1 0
vn 0 1 0
vn 0 1 0
vn 0 1 0
vn 0 1 0
vn 0 1 0
vn 0 1 0
vn 0 1 0
vn 0 1 0
vn 0 1 0
vn 0 1 0
vn 0 1 0
vn 0 1 -2.384186E-07
vn 0 1 -2.384186E-07
vn 0 1 -2.384186E-07
vn 0 1 -2.384186E-07
vn 0 1 0
vn 0 1 0
vn 0 1 0
vn 0 1 0
vn 0 1 0
vn 0 1 0
vn 0 1 0
vn 0 1 0
vn 0 1 0
vn 0 1 0
vn 0 1 0
vn 0 1 0
vn 0 1 0
vn 0 1 0
vn 0 1 0
vn 0 1 0
vn 0 1 0
vn 0 1 0
vn 0 1 0
vn 0 1 0
vn 0 1 0
vn 0 1 0
vn 0 1 0
vn 0 1 -1.013279E-06
vn 0 1 -2.384186E-07
vn 0 1 -4.768372E-07
vn 0 1 0
vn 0 1 0
vn 0 1 0
vn 0 1 0
vn 0 1 0
vn 0 1 0
vn 0 1 0
vn 0 1 0
vn 0 1 0
vn 0 1 0
vn 0 1 0
vn 0 1 0
vn 0 1 0
vn 0 1 0
vn 0 1 0
vn 0 1 0
vn 0 1 0
vn 0 1 0
vn 0 1 0
vn 0 1 0
vn 0 1 0
vn 0 1 0
vn 0 1 0
vn 0 1 0
vn 0 1 0
vn 0 1 0
vn 0 1 0
vn 0 1 0
vn 0 1 0
vn 0 1 0
vn 0 1 0
vn 0 1 0
vn 0 1 0
vn 0 1 0
vn 0 1 0
vn 0 1 0
vn 0 1 0
vn 0 1 0
vn 0 1 0
vn 0 1 0
vn 0 1 0
vn 0 1 0
vn 0 1 0
vn 0 1 0
vn 0 1 0
vn 0 1 0
vn 0 1 0
vn 0 1 0
vn 0 1 0
vn 0 1 0
vn 0 1 0
vn 0 1 0
vn 0 1 0
vn 0 1 0
vn 0 1 0
vn 0 1 0
vn 0 1 0
vn 0 1 0
vn 0 1 0
vn 0 1 0
vn 0 1 0
vn 0 1 0
vn 0 1 0
vn 0 1 0
vn 0 1 0
vn 0 1 0
vn 0 1 0
vn 0 1 0
vn 0 1 0
vn 0 1 0
vn 0 1 0
vn 0 1 0
vn 0 1 0
vn 0 1 0
vn 0 1 0
vn 0 1 0
vn 0 1 0
vn 0 1 0
vn 0 1 0
vn 0 1 0
vn 0 1 0
vn 0 1 0
vn 0 1 0
vn 0 1 0
vn 0 1 0
vn 0 1 0
vn 0 1 0
vn 0 1 0
vn 0 1 0
vn 0 1 0
vn 0 1 0
vn 0 1 0
vn 0 1 0
vn 0 1 0
vn 0 1 0
vn 0 1 0
vn 0 1 0
vn 0 1 0
vn 0 1 0
vn 0 1 0
vn 0 1 0
vn 0 1 0
vn 0 1 0
vn 0 1 0
vn 0 1 0
vn 0 1 0
vn 0 1 0
vn 0 1 0
vn 0 1 0
vn 0 1 0
vn 0 1 0
vn 0 1 0
vn 0 1 3.576279E-07
vn 0 1 3.576279E-07
vn 0 1 3.576279E-07
vn 0 1 3.576279E-07
vn 0 1 0
vn 0 1 0
vn 0 1 0
vn 0 1 0
vn 0 1 0
vn 0 1 0
vn 0 1 0
vn 0 1 0
vn 0 1 0
vn 0 1 0
vn 0 1 0
vn 0 1 0
vn 0 1 0
vn 0 1 0
vn 0 1 0
vn 0 1 0
vn 0 1 0
vn 0 1 0
vn 0 1 0
vn 0 1 0
vn 0 1 0
vn 0 1 0
vn 0 1 0
vn 0 1 0
vn 0 1 0
vn 0 1 0
vn 0 1 2.384186E-07
vn 0 1 1.013279E-06
vn 0 1 4.768372E-07
vn 0 1 0
vn 0 1 0
vn 0 1 0
vn 0 1 0
vn 0 1 0
vn 0 1 0
vn 0 1 0
vn 0 1 0
vn 0 1 0
vn 0 1 0
vn 0 1 0
vn 0 1 0
vn 0 1 0
vn 0 1 0
vn 0 1 0
vn 0 1 0
vn 0 1 0
vn 0 1 0
vn 0 1 0
vn 0 1 0
vn 0 1 0
vn 0 1 0
vn 0 1 0
vn 0 1 0
vn 0 1 0
vn 0 1 0
vn 0 1 0
vn 0 1 0
vn 0 1 0
vn 0 1 0
vn 0 1 0
vn 0 1 0
vn 0 1 0
vn 0 1 0
vn 0 1 0
vn 0 1 0
vn 0 1 0
vn 0 1 0
vn 0 1 0
vn 0 1 0
vn 0 1 0
vn 0 1 0
vn 0 1 0
vn 0 1 0
vn 0 1 0
vn 0 1 0
vn 0 1 -2.384186E-07
vn 0 1 -2.384186E-07
vn 0 1 -2.384186E-07
vn 0 1 -2.384186E-07
vn 0 1 2.384186E-07
vn 0 1 2.384186E-07
vn 0 1 2.384186E-07
vn 0 1 2.384186E-07
vn 0 1 0
vn 0 1 0
vn 0 1 0
vn 0 1 0
vn 0 1 0
vn 0 1 0
vn 0 1 0
vn 0 1 0
vn 0 1 0
vn 0 1 0
vn 0 1 0
vn 0 1 0
vn 0 1 0
vn 0 1 0
vn 0 1 0
vn 0 1 0
vn 0 1 0
vn 0 1 0
vn 0 1 0
vn 0 1 0
vn 0 1 0
vn 0 1 0
vn 0 1 0
g desert_base_0
f 3/3/3 2/2/2 1/1/1
f 4/4/4 3/3/3 1/1/1
f 7/7/7 6/6/6 5/5/5
f 8/8/8 7/7/7 5/5/5
f 11/11/11 10/10/10 9/9/9
f 12/12/12 11/11/11 9/9/9
f 15/15/15 14/14/14 13/13/13
f 16/16/16 15/15/15 13/13/13
f 19/19/19 18/18/18 17/17/17
f 18/18/18 20/20/20 17/17/17
f 18/18/18 21/21/21 20/20/20
f 24/24/24 23/23/23 22/22/22
f 25/25/25 24/24/24 22/22/22
f 26/26/26 25/25/25 22/22/22
f 29/29/29 28/28/28 27/27/27
f 30/30/30 29/29/29 27/27/27
f 33/33/33 32/32/32 31/31/31
f 34/34/34 33/33/33 31/31/31
f 37/37/37 36/36/36 35/35/35
f 38/38/38 37/37/37 35/35/35
f 41/41/41 40/40/40 39/39/39
f 42/42/42 41/41/41 39/39/39
f 45/45/45 44/44/44 43/43/43
f 46/46/46 45/45/45 43/43/43
f 49/49/49 48/48/48 47/47/47
f 50/50/50 49/49/49 47/47/47
f 53/53/53 52/52/52 51/51/51
f 52/52/52 54/54/54 51/51/51
f 57/57/57 56/56/56 55/55/55
f 57/57/57 58/58/58 56/56/56
f 61/61/61 60/60/60 59/59/59
f 62/62/62 61/61/61 59/59/59
f 65/65/65 64/64/64 63/63/63
f 66/66/66 65/65/65 63/63/63
f 69/69/69 68/68/68 67/67/67
f 70/70/70 69/69/69 67/67/67
f 73/73/73 72/72/72 71/71/71
f 74/74/74 73/73/73 71/71/71
f 77/77/77 76/76/76 75/75/75
f 78/78/78 77/77/77 75/75/75
f 81/81/81 80/80/80 79/79/79
f 82/82/82 81/81/81 79/79/79
f 85/85/85 84/84/84 83/83/83
f 85/85/85 86/86/86 84/84/84
f 89/89/89 88/88/88 87/87/87
f 88/88/88 90/90/90 87/87/87
f 93/93/93 92/92/92 91/91/91
f 94/94/94 93/93/93 91/91/91
f 97/97/97 96/96/96 95/95/95
f 98/98/98 97/97/97 95/95/95
f 101/101/101 100/100/100 99/99/99
f 102/102/102 101/101/101 99/99/99
f 105/105/105 104/104/104 103/103/103
f 106/106/106 105/105/105 103/103/103
f 109/109/109 108/108/108 107/107/107
f 110/110/110 109/109/109 107/107/107
f 113/113/113 112/112/112 111/111/111
f 114/114/114 113/113/113 111/111/111
f 117/117/117 116/116/116 115/115/115
f 117/117/117 118/118/118 116/116/116
f 117/117/117 119/119/119 118/118/118
f 122/122/122 121/121/121 120/120/120
f 121/121/121 123/123/123 120/120/120
f 123/123/123 124/124/124 120/120/120
f 127/127/127 126/126/126 125/125/125
f 128/128/128 127/127/127 125/125/125
f 131/131/131 130/130/130 129/129/129
f 132/132/132 131/131/131 129/129/129
f 135/135/135 134/134/134 133/133/133
f 136/136/136 135/135/135 133/133/133
f 139/139/139 138/138/138 137/137/137
f 140/140/140 139/139/139 137/137/137
f 143/143/143 142/142/142 141/141/141
f 142/142/142 144/144/144 141/141/141
f 144/144/144 145/145/145 141/141/141
f 148/148/148 147/147/147 146/146/146
f 147/147/147 149/149/149 146/146/146
f 147/147/147 150/150/150 149/149/149
f 153/153/153 152/152/152 151/151/151
f 152/152/152 154/154/154 151/151/151
f 152/152/152 155/155/155 154/154/154
f 158/158/158 157/157/157 156/156/156
f 158/158/158 159/159/159 157/157/157
f 159/159/159 160/160/160 157/157/157
f 163/163/163 162/162/162 161/161/161
f 164/164/164 163/163/163 161/161/161
f 164/164/164 165/165/165 163/163/163
f 168/168/168 167/167/167 166/166/166
f 168/168/168 169/169/169 167/167/167
f 169/169/169 170/170/170 167/167/167
f 173/173/173 172/172/172 171/171/171
f 172/172/172 174/174/174 171/171/171
f 172/172/172 175/175/175 174/174/174
f 178/178/178 177/177/177 176/176/176
f 177/177/177 179/179/179 176/176/176
f 177/177/177 180/180/180 179/179/179
f 183/183/183 182/182/182 181/181/181
f 182/182/182 184/184/184 181/181/181
f 182/182/182 185/185/185 184/184/184
f 188/188/188 187/187/187 186/186/186
f 187/187/187 189/189/189 186/186/186
f 187/187/187 190/190/190 189/189/189
f 193/193/193 192/192/192 191/191/191
f 194/194/194 193/193/193 191/191/191
f 197/197/197 196/196/196 195/195/195
f 198/198/198 197/197/197 195/195/195
f 201/201/201 200/200/200 199/199/199
f 202/202/202 201/201/201 199/199/199
f 205/205/205 204/204/204 203/203/203
f 206/206/206 205/205/205 203/203/203
f 209/209/209 208/208/208 207/207/207
f 210/210/210 209/209/209 207/207/207
f 213/213/213 212/212/212 211/211/211
f 213/213/213 211/211/211 214/214/214
f 215/215/215 213/213/213 214/214/214
f 218/218/218 217/217/217 216/216/216
f 217/217/217 219/219/219 216/216/216
f 219/219/219 220/220/220 216/216/216
f 223/223/223 222/222/222 221/221/221
f 224/224/224 223/223/223 221/221/221
f 227/227/227 226/226/226 225/225/225
f 228/228/228 227/227/227 225/225/225
f 231/231/231 230/230/230 229/229/229
f 232/232/232 231/231/231 229/229/229
f 235/235/235 234/234/234 233/233/233
f 236/236/236 235/235/235 233/233/233
f 239/239/239 238/238/238 237/237/237
f 240/240/240 239/239/239 237/237/237
f 243/243/243 242/242/242 241/241/241
f 243/243/243 241/241/241 244/244/244
f 245/245/245 243/243/243 244/244/244
f 248/248/248 247/247/247 246/246/246
f 248/248/248 246/246/246 249/249/249
f 250/250/250 248/248/248 249/249/249
f 253/253/253 252/252/252 251/251/251
f 254/254/254 253/253/253 251/251/251
f 257/257/257 256/256/256 255/255/255
f 258/258/258 257/257/257 255/255/255
f 261/261/261 260/260/260 259/259/259
f 262/262/262 261/261/261 259/259/259
f 265/265/265 264/264/264 263/263/263
f 266/266/266 265/265/265 263/263/263
f 269/269/269 268/268/268 267/267/267
f 270/270/270 269/269/269 267/267/267
f 273/273/273 272/272/272 271/271/271
f 274/274/274 273/273/273 271/271/271
f 277/277/277 276/276/276 275/275/275
f 278/278/278 277/277/277 275/275/275
f 281/281/281 280/280/280 279/279/279
f 281/281/281 279/279/279 282/282/282
f 283/283/283 281/281/281 282/282/282
f 286/286/286 285/285/285 284/284/284
f 287/287/287 286/286/286 284/284/284
f 290/290/290 289/289/289 288/288/288
f 291/291/291 290/290/290 288/288/288
f 294/294/294 293/293/293 292/292/292
f 294/294/294 292/292/292 295/295/295
f 298/298/298 297/297/297 296/296/296
f 299/299/299 298/298/298 296/296/296
f 299/299/299 296/296/296 300/300/300
f 303/303/303 302/302/302 301/301/301
f 303/303/303 301/301/301 304/304/304
f 305/305/305 303/303/303 304/304/304
f 308/308/308 307/307/307 306/306/306
f 307/307/307 309/309/309 306/306/306
f 307/307/307 310/310/310 309/309/309
f 313/313/313 312/312/312 311/311/311
f 314/314/314 313/313/313 311/311/311
f 317/317/317 316/316/316 315/315/315
f 318/318/318 317/317/317 315/315/315
f 321/321/321 320/320/320 319/319/319
f 322/322/322 321/321/321 319/319/319
f 325/325/325 324/324/324 323/323/323
f 325/325/325 323/323/323 326/326/326
f 323/323/323 327/327/327 326/326/326
f 330/330/330 329/329/329 328/328/328
f 331/331/331 330/330/330 328/328/328
f 331/331/331 328/328/328 332/332/332
f 335/335/335 334/334/334 333/333/333
f 335/335/335 333/333/333 336/336/336
f 339/339/339 338/338/338 337/337/337
f 339/339/339 337/337/337 340/340/340
f 343/343/343 342/342/342 341/341/341
f 343/343/343 341/341/341 344/344/344
f 343/343/343 344/344/344 345/345/345
f 348/348/348 347/347/347 346/346/346
f 349/349/349 348/348/348 346/346/346
f 352/352/352 351/351/351 350/350/350
f 353/353/353 352/352/352 350/350/350
f 356/356/356 355/355/355 354/354/354
f 357/357/357 356/356/356 354/354/354
f 360/360/360 359/359/359 358/358/358
f 361/361/361 360/360/360 358/358/358
f 364/364/364 363/363/363 362/362/362
f 364/364/364 362/362/362 365/365/365
f 368/368/368 367/367/367 366/366/366
f 367/367/367 369/369/369 366/366/366
f 369/369/369 370/370/370 366/366/366
f 373/373/373 372/372/372 371/371/371
f 373/373/373 371/371/371 374/374/374
f 373/373/373 374/374/374 375/375/375
f 378/378/378 377/377/377 376/376/376
f 377/377/377 379/379/379 376/376/376
f 377/377/377 380/380/380 379/379/379
