g eff_grass
v -6.339523E-11 -0.1034205 0.01467315
v 0.01538133 -0.067883 0.02805232
v 9.893333E-06 -0.07092278 0.01217622
v 0.02132806 -0.02549185 0.02831292
v 6.339523E-11 -0.02962967 0.007410269
v 0.01941685 0.005155222 0.02175403
v 0 0.001036004 0.001351902
v 0.01592937 0.03400476 0.006753739
v 1.267905E-10 0.0308502 -0.009163434
v 0.009346806 0.06585431 -0.017161
v -6.339524E-10 0.06348827 -0.02698247
v -5.071619E-10 0.09614857 -0.04804424
v -0.01539496 -0.06779671 0.02805765
v -6.339523E-11 -0.1034205 0.01467315
v 9.893333E-06 -0.07092278 0.01217622
v 6.339523E-11 -0.02962967 0.007410269
v -0.02132015 -0.02541514 0.02829323
v 0 0.001036004 0.001351902
v -0.01941685 0.005155227 0.02175402
v 1.267905E-10 0.0308502 -0.009163434
v -0.01592938 0.03400475 0.006753739
v -6.339524E-10 0.06348827 -0.02698247
v -0.009346806 0.0658543 -0.01716099
v -5.071619E-10 0.09614857 -0.04804424
v 0 -0.1032259 0.01719539
v 0 -0.07066704 0.01468337
v 0.01462946 -0.06766365 0.02978244
v 0.02056829 -0.02519579 0.03002336
v 0 -0.02919969 0.009894384
v 0.01865228 0.005606404 0.02343257
v 0 0.001700337 0.003795453
v 0.0151749 0.03471875 0.008346356
v 0 0.03170769 -0.006791226
v 0.008597599 0.06673884 -0.01565303
v 0 0.06489869 -0.02490407
v 0 0.09750948 -0.0459339
v -0.01462946 -0.06766365 0.02978244
v 0 -0.07066704 0.01468337
v 0 -0.1032259 0.01719539
v 0 -0.02919969 0.009894384
v -0.02056829 -0.02519579 0.03002336
v 0 0.001700337 0.003795453
v -0.01865228 0.005606404 0.02343257
v 0 0.03170769 -0.006791226
v -0.0151749 0.03471875 0.008346356
v 0 0.06489869 -0.02490407
v -0.008597599 0.06673884 -0.01565303
v 0 0.09750948 -0.0459339
v 0 -0.1032259 0.01719539
v 0.01538133 -0.067883 0.02805232
v -6.339523E-11 -0.1034205 0.01467315
v 0.01462946 -0.06766365 0.02978244
v 0.02132806 -0.02549185 0.02831292
v 0.02056829 -0.02519579 0.03002336
v 0.01941685 0.005155222 0.02175403
v 0.01865228 0.005606404 0.02343257
v 0.01592937 0.03400476 0.006753739
v 0.0151749 0.03471875 0.008346356
v 0.009346806 0.06585431 -0.017161
v 0.008597599 0.06673884 -0.01565303
v -5.071619E-10 0.09614857 -0.04804424
v 0 0.09750948 -0.0459339
v -0.01462946 -0.06766365 0.02978244
v 0 -0.1032259 0.01719539
v -6.339523E-11 -0.1034205 0.01467315
v -0.01539496 -0.06779671 0.02805765
v -0.02056829 -0.02519579 0.03002336
v -0.02132015 -0.02541514 0.02829323
v -0.01865228 0.005606404 0.02343257
v -0.01941685 0.005155227 0.02175402
v -0.0151749 0.03471875 0.008346356
v -0.01592938 0.03400475 0.006753739
v -0.008597599 0.06673884 -0.01565303
v -0.009346806 0.0658543 -0.01716099
v 0 0.09750948 -0.0459339
v -5.071619E-10 0.09614857 -0.04804424
vt 0.25 0
vt 0.5 0.25
vt 0.25 0.25
vt 0.5 0.5
vt 0.25 0.5
vt 0.5 0.625
vt 0.25 0.625
vt 0.5 0.75
vt 0.25 0.75
vt 0.375 0.875
vt 0.25 0.875
vt 0.25 1
vt 0 0.25
vt 0.25 0
vt 0.25 0.25
vt 0.25 0.5
vt 0 0.5
vt 0.25 0.625
vt 0 0.625
vt 0.25 0.75
vt 0 0.75
vt 0.25 0.875
vt 0.125 0.875
vt 0.25 1
vt 0.25 0
vt 0.25 0.25
vt 0.5 0.25
vt 0.5 0.5
vt 0.25 0.5
vt 0.5 0.625
vt 0.25 0.625
vt 0.5 0.75
vt 0.25 0.75
vt 0.375 0.875
vt 0.25 0.875
vt 0.25 1
vt 0 0.25
vt 0.25 0.25
vt 0.25 0
vt 0.25 0.5
vt 0 0.5
vt 0.25 0.625
vt 0 0.625
vt 0.25 0.75
vt 0 0.75
vt 0.25 0.875
vt 0.125 0.875
vt 0.25 1
vt 0.25 0
vt 0.5 0.25
vt 0.25 0
vt 0.5 0.25
vt 0.5 0.5
vt 0.5 0.5
vt 0.5 0.625
vt 0.5 0.625
vt 0.5 0.75
vt 0.5 0.75
vt 0.375 0.875
vt 0.375 0.875
vt 0.25 1
vt 0.25 1
vt 0 0.25
vt 0.25 0
vt 0.25 0
vt 0 0.25
vt 0 0.5
vt 0 0.5
vt 0 0.625
vt 0 0.625
vt 0 0.75
vt 0 0.75
vt 0.125 0.875
vt 0.125 0.875
vt 0.25 1
vt 0.25 1
vn 0.7224863 -0.05318457 -0.6893366
vn 0.7149893 -0.08302576 -0.694188
vn 0.7160984 -0.0787846 -0.6935388
vn 0.7161937 -0.1030248 -0.6902553
vn 0.7159857 -0.101754 -0.6906596
vn 0.7202815 -0.1692321 -0.672722
vn 0.7203661 -0.1778993 -0.6703914
vn 0.7160659 -0.2716941 -0.6429868
vn 0.7142611 -0.2866412 -0.6384889
vn 0.7089661 -0.3395786 -0.6181048
vn 0.7101839 -0.3478514 -0.6120769
vn 0.7141675 -0.3793558 -0.5882636
vn -0.7147592 -0.08315415 -0.6944096
vn -0.7219668 -0.05278895 -0.6899111
vn -0.7158417 -0.07878355 -0.693804
vn -0.7158871 -0.1018342 -0.6907498
vn -0.716112 -0.1031482 -0.6903216
vn -0.7203738 -0.1779499 -0.6703696
vn -0.7202908 -0.1692853 -0.6726989
vn -0.714261 -0.2866412 -0.638489
vn -0.7160657 -0.2716941 -0.642987
vn -0.7101837 -0.3478515 -0.6120771
vn -0.708966 -0.3395787 -0.6181048
vn -0.7141675 -0.3793559 -0.5882636
vn -0.7224368 0.05318835 0.6893882
vn -0.7158706 0.07887318 0.6937639
vn -0.7147461 0.08307369 0.6944327
vn -0.716057 0.1031385 0.6903802
vn -0.7158349 0.1018605 0.6908001
vn -0.7202791 0.1690537 0.6727696
vn -0.7203656 0.1778397 0.6704077
vn -0.716095 0.2714388 0.6430622
vn -0.7143078 0.2862719 0.6386021
vn -0.7089118 0.3392202 0.6183638
vn -0.7101924 0.3479114 0.6120328
vn -0.7141677 0.3793555 0.5882635
vn 0.7147461 0.0830737 0.6944327
vn 0.7158706 0.07887318 0.6937639
vn 0.7224368 0.05318835 0.6893882
vn 0.7158349 0.1018605 0.6908001
vn 0.716057 0.1031384 0.6903802
vn 0.7203656 0.1778397 0.6704077
vn 0.7202791 0.1690537 0.6727696
vn 0.7143078 0.2862719 0.6386021
vn 0.716095 0.2714388 0.6430622
vn 0.7101924 0.3479114 0.6120329
vn 0.7089117 0.3392202 0.6183639
vn 0.7141677 0.3793555 0.5882635
vn 0.8751507 -0.4416067 0.1977243
vn 0.9029382 -0.3077887 0.2999477
vn 0.8751506 -0.4416066 0.1977243
vn 0.9055967 -0.2760212 0.3220354
vn 0.9143354 -0.01923603 0.4045005
vn 0.9148797 -0.01143989 0.4035645
vn 0.9122726 0.2108431 0.3511468
vn 0.9125051 0.2072551 0.352675
vn 0.9021169 0.329755 0.2782926
vn 0.9025513 0.3255102 0.2818585
vn 0.9377759 0.3285792 0.1123039
vn 0.9344873 0.3329707 0.1259518
vn 0.9552953 0.2952951 0.01455053
vn 0.9552953 0.2952951 0.01455053
vn -0.9074482 -0.2803676 0.3129405
vn -0.8771948 -0.4400483 0.1920596
vn -0.8771948 -0.4400483 0.1920596
vn -0.9055113 -0.3028899 0.2971648
vn -0.9161531 -0.01525881 0.400538
vn -0.9160942 -0.01619732 0.4006357
vn -0.9127198 0.2071583 0.3521761
vn -0.9124757 0.2107517 0.3506733
vn -0.9025515 0.32551 0.2818582
vn -0.9021172 0.3297544 0.2782924
vn -0.9344879 0.3329699 0.1259505
vn -0.937776 0.3285789 0.112304
vn -0.9552953 0.2952949 0.01455001
vn -0.9552953 0.2952949 0.01455001
g eff_grass_0
f 3/3/3 2/2/2 1/1/1
f 4/4/4 2/2/2 3/3/3
f 5/5/5 4/4/4 3/3/3
f 6/6/6 4/4/4 5/5/5
f 7/7/7 6/6/6 5/5/5
f 8/8/8 6/6/6 7/7/7
f 9/9/9 8/8/8 7/7/7
f 10/10/10 8/8/8 9/9/9
f 11/11/11 10/10/10 9/9/9
f 12/12/12 10/10/10 11/11/11
f 15/15/15 14/14/14 13/13/13
f 16/16/16 15/15/15 13/13/13
f 17/17/17 16/16/16 13/13/13
f 18/18/18 16/16/16 17/17/17
f 19/19/19 18/18/18 17/17/17
f 20/20/20 18/18/18 19/19/19
f 21/21/21 20/20/20 19/19/19
f 22/22/22 20/20/20 21/21/21
f 23/23/23 22/22/22 21/21/21
f 24/24/24 22/22/22 23/23/23
f 27/27/27 26/26/26 25/25/25
f 27/27/27 28/28/28 26/26/26
f 28/28/28 29/29/29 26/26/26
f 28/28/28 30/30/30 29/29/29
f 30/30/30 31/31/31 29/29/29
f 30/30/30 32/32/32 31/31/31
f 32/32/32 33/33/33 31/31/31
f 32/32/32 34/34/34 33/33/33
f 34/34/34 35/35/35 33/33/33
f 34/34/34 36/36/36 35/35/35
f 39/39/39 38/38/38 37/37/37
f 38/38/38 40/40/40 37/37/37
f 40/40/40 41/41/41 37/37/37
f 40/40/40 42/42/42 41/41/41
f 42/42/42 43/43/43 41/41/41
f 42/42/42 44/44/44 43/43/43
f 44/44/44 45/45/45 43/43/43
f 44/44/44 46/46/46 45/45/45
f 46/46/46 47/47/47 45/45/45
f 46/46/46 48/48/48 47/47/47
f 51/51/51 50/50/50 49/49/49
f 50/50/50 52/52/52 49/49/49
f 50/50/50 53/53/53 52/52/52
f 53/53/53 54/54/54 52/52/52
f 53/53/53 55/55/55 54/54/54
f 55/55/55 56/56/56 54/54/54
f 55/55/55 57/57/57 56/56/56
f 57/57/57 58/58/58 56/56/56
f 57/57/57 59/59/59 58/58/58
f 59/59/59 60/60/60 58/58/58
f 59/59/59 61/61/61 60/60/60
f 61/61/61 62/62/62 60/60/60
f 65/65/65 64/64/64 63/63/63
f 66/66/66 65/65/65 63/63/63
f 66/66/66 63/63/63 67/67/67
f 68/68/68 66/66/66 67/67/67
f 68/68/68 67/67/67 69/69/69
f 70/70/70 68/68/68 69/69/69
f 70/70/70 69/69/69 71/71/71
f 72/72/72 70/70/70 71/71/71
f 72/72/72 71/71/71 73/73/73
f 74/74/74 72/72/72 73/73/73
f 74/74/74 73/73/73 75/75/75
f 76/76/76 74/74/74 75/75/75
