g ground_base
v -0.01 -0.0001999801 -0.00980002
v -0.01 -0.02 -0.00980002
v -0.009973207 -0.02 -0.009900009
v -0.009973207 -0.0001999801 -0.009900009
v -0.009973207 -9.999036E-05 -0.00980002
v -0.009958169 -0.0001135719 -0.009886428
v -0.009973207 -0.0001999801 -0.009900009
v -0.009973207 -0.02 -0.009900009
v -0.009900009 -0.02 -0.009973207
v -0.009900009 -0.0001999801 -0.009973207
v -0.00980002 -0.02 -0.01
v -0.009886428 -0.0001135719 -0.009958169
v -0.009958169 -0.0001135719 -0.009886428
v -0.009886428 -4.183054E-05 -0.009886428
v -0.00980002 -9.999036E-05 -0.009973207
v -0.009886428 -0.0001135719 -0.009958169
v -0.009900009 -2.679229E-05 -0.00980002
v -0.009973207 -9.999036E-05 -0.00980002
v -0.00980002 -2.679229E-05 -0.009900009
v -0.009973207 -9.999036E-05 0.00980002
v -0.009886428 -4.183054E-05 -0.009886428
v -0.00980002 -0.0001999801 -0.01
v 0.00980002 -0.0001999801 -0.01
v 0.00980002 -0.02 -0.01
v 0.009900009 -0.02 -0.009973207
v 0.00980002 -9.999036E-05 -0.009973207
v 0.009900009 -0.0001999801 -0.009973207
v 0.009973207 -0.02 -0.009900009
v 0.009973207 -0.0001999801 -0.009900009
v 0.009886428 -0.0001135719 -0.009958169
v 0.00980002 -2.679229E-05 -0.009900009
v 0.009886428 -0.0001135719 -0.009958169
v 0.009886428 -4.183054E-05 -0.009886428
v 0.009958169 -0.0001135719 -0.009886428
v 0.009973207 -9.999036E-05 -0.00980002
v 0.009900009 -2.679229E-05 -0.00980002
v 0.009886428 -4.183054E-05 -0.009886428
v 0.00980002 0 -0.00980002
v 0.009900009 -2.679229E-05 0.00980002
v 0.009973207 -9.999036E-05 0.00980002
v 0.009958169 -0.0001135719 0.009886428
v -0.00980002 0 -0.00980002
v 0.00980002 0 0.00980002
v -0.009900009 -2.679229E-05 0.00980002
v -0.009886428 -4.183054E-05 0.009886428
v -0.009958169 -0.0001135719 0.009886428
v -0.009886428 -0.0001135719 0.009958169
v -0.00980002 -2.679229E-05 0.009900009
v -0.009886428 -4.183054E-05 0.009886428
v -0.009900009 -0.0001999801 0.009973207
v -0.00980002 -9.999036E-05 0.009973207
v -0.009973207 -0.0001999801 0.009900009
v -0.009886428 -0.0001135719 0.009958169
v -0.00980002 0 0.00980002
v -0.00960002 0 0.00960002
v -0.00960002 0 -0.00960002
v 0.00960002 0 -0.00960002
v 0.00960002 0 0.00960002
v 0.00980002 -2.679229E-05 0.009900009
v 0.009886428 -4.183054E-05 0.009886428
v 0.00980002 -9.999036E-05 0.009973207
v 0.009886428 -4.183054E-05 0.009886428
v 0.009886428 -0.0001135719 0.009958169
v 0.009973207 -0.0001999801 0.009900009
v 0.009900009 -0.0001999801 0.009973207
v 0.009886428 -0.0001135719 0.009958169
v 0.00980002 -0.0001999801 0.01
v -0.00980002 -0.0001999801 0.01
v 0.00980002 -0.02 0.01
v 0.009900009 -0.02 0.009973207
v -0.00980002 -0.02 0.01
v -0.009900009 -0.02 0.009973207
v -0.009973207 -0.02 0.009900009
v 0.009973207 -0.02 0.009900009
v -0.01 -0.02 0.00980002
v 0.01 -0.0001999801 0.00980002
v 0.01 -0.02 0.00980002
v -0.01 -0.0001999801 0.00980002
v -0.01 -0.02 -0.00980002
v -0.01 -0.0001999801 -0.00980002
v -0.009973207 -9.999036E-05 -0.00980002
v -0.009973207 -9.999036E-05 0.00980002
v -0.009958169 -0.0001135719 0.009886428
v 0.009973207 -9.999036E-05 0.00980002
v 0.009958169 -0.0001135719 0.009886428
v 0.01 -0.0001999801 -0.00980002
v 0.01 -0.02 -0.00980002
v 0.009973207 -9.999036E-05 -0.00980002
v 0.009973207 -0.0001999801 -0.009900009
v 0.009973207 -0.02 -0.009900009
v 0.009958169 -0.0001135719 -0.009886428
v 0.009958169 -0.0001135719 -0.009886428
v 0.009886428 -0.0001135719 -0.009958169
v 0.009900009 -0.0001999801 -0.009973207
v 0.009973207 -0.0001999801 -0.009900009
vt 0.1274998 0.2475002
vt 0.1274997 0
vt 0.375 0.75
vt 0.1261156 0.2522312
vt 0.1261219 0.25
vt 0.125 0.25
vt 0.375 0.5011156
vt 0.375 0.75
vt 0.3762499 0.75
vt 0.3762507 0.5018079
vt 0.3774998 0.75
vt 0.3764485 0.500707
vt 0.375 0.5
vt 0.3764485 0.4992919
vt 0.3775011 0.5008349
vt 0.3764485 0.500707
vt 0.3762507 0.4981889
vt 0.375 0.4988781
vt 0.3775011 0.4991651
vt 0.375 0.2511219
vt 0.3764485 0.4992919
vt 0.3774998 0.5024998
vt 0.6225003 0.5024998
vt 0.6225002 0.75
vt 0.7487497 0.3750012
vt 0.6225004 0.5008305
vt 0.6243083 0.5001307
vt 0.875 0
vt 0.6261156 0.4977688
vt 0.6237223 0.5001947
vt 0.6224999 0.4991624
vt 0.6237223 0.5001947
vt 0.6235849 0.499192
vt 0.625 0.5
vt 0.625 0.4988781
vt 0.6237494 0.4981884
vt 0.6235849 0.499192
vt 0.6225002 0.4975002
vt 0.6237494 0.2518108
vt 0.625 0.2511219
vt 0.625 0.25
vt 0.3774998 0.4975002
vt 0.6225003 0.2524998
vt 0.3762506 0.2518108
vt 0.376424 0.2506675
vt 0.375 0.25
vt 0.376323 0.2490842
vt 0.3775004 0.2508337
vt 0.376424 0.2506675
vt 0.3758399 0.2475085
vt 0.3775 0.2491634
vt 0.3741753 0.2475121
vt 0.376323 0.2490842
vt 0.3774998 0.2524998
vt 0.3774998 0.2524998
vt 0.3774998 0.4975002
vt 0.6225002 0.4975002
vt 0.6225003 0.2524998
vt 0.6224996 0.2508337
vt 0.623576 0.2506675
vt 0.6225 0.2491634
vt 0.623576 0.2506675
vt 0.623677 0.2490842
vt 0.6258247 0.2475121
vt 0.6241601 0.2475085
vt 0.623677 0.2490842
vt 0.6225002 0.2475002
vt 0.3774998 0.2475002
vt 0.6225002 0
vt 0.6241667 0
vt 0.3774998 0
vt 0.3758332 0
vt 0.3741668 0
vt 0.6258332 0
vt 0.3725002 0
vt 0.6274998 0.2475002
vt 0.6274997 0
vt 0.3725002 0.2475002
vt 0.1274997 0
vt 0.1274998 0.2475002
vt 0.1261219 0.25
vt 0.3738781 0.25
vt 0.375 0.25
vt 0.6261219 0.25
vt 0.625 0.25
vt 0.8725002 0.2475002
vt 0.8725002 0
vt 0.8738781 0.25
vt 0.875 0.2488844
vt 0.875 0
vt 0.875 0.25
vt 0.625 0.5
vt 0.6237223 0.5001947
vt 0.6243083 0.5001307
vt 0.6261156 0.4977688
vn -0.9999982 0.00134462 -0.001358289
vn -0.999999 0 -0.001360011
vn -0.8660243 0 -0.500002
vn -0.8660323 0.001008872 -0.4999871
vn -0.8660331 0.4999856 -0.001019137
vn -0.9461046 0.229001 -0.2290079
vn -0.8660323 0.001008872 -0.4999871
vn -0.8660243 0 -0.500002
vn -0.5000021 0 -0.8660242
vn -0.4999872 0.001008881 -0.8660322
vn -0.001360025 0 -0.999999
vn -0.4994812 0.4994783 -0.7078417
vn -0.7078432 0.4994795 -0.4994779
vn -0.4994781 0.707844 -0.4994782
vn -0.001019118 0.4999861 -0.8660328
vn -0.2289995 0.2290059 -0.9461054
vn -0.4999866 0.8660326 -0.001019137
vn -0.8660331 0.4999856 -0.001019137
vn -0.001019133 0.8660328 -0.4999861
vn -0.8660331 0.4999857 0.001019136
vn -0.2290071 0.9461032 -0.2290076
vn -0.001358303 0.001344623 -0.9999982
vn 0.001358303 0.001344623 -0.9999982
vn 0.001360025 0 -0.999999
vn 0.5000021 0 -0.8660242
vn 0.001019117 0.4999861 -0.8660328
vn 0.4999872 0.001008869 -0.8660322
vn 0.8660243 0 -0.500002
vn 0.8660323 0.001008865 -0.4999871
vn 0.2290032 0.2290057 -0.9461046
vn 0.001019121 0.8660328 -0.4999861
vn 0.4994799 0.4994761 -0.7078443
vn 0.4994753 0.7078446 -0.4994801
vn 0.7078429 0.4994792 -0.4994785
vn 0.8660331 0.4999857 -0.001019136
vn 0.4999866 0.8660326 -0.001019137
vn 0.2290062 0.9461036 -0.2290068
vn 0.06720716 0.995473 -0.06720716
vn 0.4999866 0.8660326 0.001019137
vn 0.8660331 0.4999856 0.001019137
vn 0.7078432 0.4994795 0.4994779
vn -0.06720716 0.995473 -0.06720716
vn 0.06720716 0.995473 0.06720716
vn -0.4999866 0.8660326 0.001019137
vn -0.4994753 0.7078446 0.4994801
vn -0.7078429 0.4994792 0.4994785
vn -0.4994799 0.4994761 0.7078443
vn -0.001019121 0.8660328 0.4999861
vn -0.2290062 0.9461036 0.2290068
vn -0.4999872 0.001008869 0.8660322
vn -0.001019117 0.4999861 0.8660328
vn -0.8660323 0.001008865 0.4999871
vn -0.2290032 0.2290057 0.9461046
vn -0.06720716 0.995473 0.06720716
vn 0 1 0
vn 0 1 0
vn 0 1 0
vn 0 1 0
vn 0.001019133 0.8660328 0.4999861
vn 0.2290071 0.9461032 0.2290076
vn 0.001019118 0.4999861 0.8660328
vn 0.4994781 0.707844 0.4994782
vn 0.4994812 0.4994783 0.7078417
vn 0.8660323 0.001008872 0.4999871
vn 0.4999872 0.001008881 0.8660322
vn 0.2289995 0.2290059 0.9461054
vn 0.001358303 0.001344623 0.9999982
vn -0.001358303 0.001344623 0.9999982
vn 0.001360025 0 0.999999
vn 0.5000021 0 0.8660242
vn -0.001360025 0 0.999999
vn -0.5000021 0 0.8660242
vn -0.8660243 0 0.500002
vn 0.8660243 0 0.500002
vn -0.999999 0 0.001360011
vn 0.9999982 0.00134462 0.001358289
vn 0.999999 0 0.001360011
vn -0.9999982 0.00134462 0.001358289
vn -0.999999 0 -0.001360011
vn -0.9999982 0.00134462 -0.001358289
vn -0.8660331 0.4999856 -0.001019137
vn -0.8660331 0.4999857 0.001019136
vn -0.9461042 0.2290038 0.2290069
vn 0.8660331 0.4999856 0.001019137
vn 0.9461046 0.229001 0.2290079
vn 0.9999982 0.00134462 -0.001358289
vn 0.999999 0 -0.001360011
vn 0.8660331 0.4999857 -0.001019136
vn 0.8660323 0.001008865 -0.4999871
vn 0.8660243 0 -0.500002
vn 0.9461042 0.2290038 -0.2290069
vn 0.7078429 0.4994792 -0.4994785
vn 0.4994799 0.4994761 -0.7078443
vn 0.4999872 0.001008869 -0.8660322
vn 0.8660323 0.001008865 -0.4999871
g ground_base_0
f 3/3/3 2/2/2 1/1/1
f 4/4/4 3/3/3 1/1/1
f 1/1/1 5/5/5 4/4/4
f 5/5/5 6/6/6 4/4/4
f 9/9/9 8/8/8 7/7/7
f 10/10/10 9/9/9 7/7/7
f 11/11/11 9/9/9 10/10/10
f 10/10/10 7/7/7 12/12/12
f 7/7/7 13/13/13 12/12/12
f 13/13/13 14/14/14 12/12/12
f 15/15/15 12/12/12 14/14/14
f 10/10/10 16/16/16 15/15/15
f 17/17/17 14/14/14 13/13/13
f 18/18/18 17/17/17 13/13/13
f 19/19/19 15/15/15 14/14/14
f 17/17/17 18/18/18 20/20/20
f 19/19/19 21/21/21 17/17/17
f 22/22/22 11/11/11 10/10/10
f 22/22/22 10/10/10 15/15/15
f 22/22/22 23/23/23 11/11/11
f 23/23/23 24/24/24 11/11/11
f 25/25/25 24/24/24 23/23/23
f 15/15/15 26/26/26 22/22/22
f 26/26/26 23/23/23 22/22/22
f 27/27/27 25/25/25 23/23/23
f 23/23/23 26/26/26 27/27/27
f 28/28/28 25/25/25 27/27/27
f 29/29/29 28/28/28 27/27/27
f 26/26/26 30/30/30 27/27/27
f 31/31/31 26/26/26 15/15/15
f 19/19/19 31/31/31 15/15/15
f 26/26/26 31/31/31 32/32/32
f 31/31/31 33/33/33 32/32/32
f 32/32/32 33/33/33 34/34/34
f 35/35/35 34/34/34 33/33/33
f 36/36/36 35/35/35 33/33/33
f 36/36/36 37/37/37 31/31/31
f 38/38/38 31/31/31 19/19/19
f 38/38/38 36/36/36 31/31/31
f 35/35/35 36/36/36 39/39/39
f 40/40/40 35/35/35 39/39/39
f 40/40/40 39/39/39 41/41/41
f 42/42/42 38/38/38 19/19/19
f 42/42/42 19/19/19 17/17/17
f 36/36/36 38/38/38 43/43/43
f 39/39/39 36/36/36 43/43/43
f 42/42/42 17/17/17 44/44/44
f 44/44/44 17/17/17 20/20/20
f 44/44/44 20/20/20 45/45/45
f 20/20/20 46/46/46 45/45/45
f 46/46/46 47/47/47 45/45/45
f 48/48/48 45/45/45 47/47/47
f 44/44/44 49/49/49 48/48/48
f 50/50/50 47/47/47 46/46/46
f 51/51/51 48/48/48 47/47/47
f 52/52/52 50/50/50 46/46/46
f 51/51/51 53/53/53 50/50/50
f 54/54/54 42/42/42 44/44/44
f 54/54/54 44/44/44 48/48/48
f 54/54/54 55/55/55 42/42/42
f 55/55/55 56/56/56 42/42/42
f 42/42/42 56/56/56 38/38/38
f 56/56/56 57/57/57 38/38/38
f 38/38/38 57/57/57 43/43/43
f 58/58/58 55/55/55 54/54/54
f 57/57/57 58/58/58 43/43/43
f 43/43/43 58/58/58 54/54/54
f 59/59/59 43/43/43 54/54/54
f 48/48/48 59/59/59 54/54/54
f 43/43/43 59/59/59 39/39/39
f 59/59/59 60/60/60 39/39/39
f 61/61/61 59/59/59 48/48/48
f 51/51/51 61/61/61 48/48/48
f 59/59/59 61/61/61 62/62/62
f 39/39/39 62/62/62 41/41/41
f 62/62/62 63/63/63 41/41/41
f 61/61/61 63/63/63 62/62/62
f 64/64/64 41/41/41 63/63/63
f 65/65/65 64/64/64 63/63/63
f 65/65/65 66/66/66 61/61/61
f 67/67/67 61/61/61 51/51/51
f 67/67/67 65/65/65 61/61/61
f 68/68/68 67/67/67 51/51/51
f 68/68/68 51/51/51 50/50/50
f 67/67/67 69/69/69 65/65/65
f 69/69/69 67/67/67 68/68/68
f 69/69/69 70/70/70 65/65/65
f 65/65/65 70/70/70 64/64/64
f 71/71/71 69/69/69 68/68/68
f 72/72/72 71/71/71 68/68/68
f 50/50/50 72/72/72 68/68/68
f 73/73/73 72/72/72 50/50/50
f 52/52/52 73/73/73 50/50/50
f 70/70/70 74/74/74 64/64/64
f 75/75/75 73/73/73 52/52/52
f 64/64/64 74/74/74 76/76/76
f 74/74/74 77/77/77 76/76/76
f 78/78/78 75/75/75 52/52/52
f 79/79/79 75/75/75 78/78/78
f 80/80/80 79/79/79 78/78/78
f 81/81/81 80/80/80 78/78/78
f 82/82/82 81/81/81 78/78/78
f 78/78/78 52/52/52 82/82/82
f 52/52/52 83/83/83 82/82/82
f 76/76/76 84/84/84 64/64/64
f 84/84/84 85/85/85 64/64/64
f 76/76/76 77/77/77 86/86/86
f 76/76/76 86/86/86 84/84/84
f 77/77/77 87/87/87 86/86/86
f 86/86/86 88/88/88 84/84/84
f 86/86/86 87/87/87 89/89/89
f 86/86/86 89/89/89 88/88/88
f 87/87/87 90/90/90 89/89/89
f 89/89/89 91/91/91 88/88/88
f 94/94/94 93/93/93 92/92/92
f 95/95/95 94/94/94 92/92/92
