g obj_building_02_top
v 0.9428636 -2.670288E-07 0.2278684
v 0.9539002 -2.670288E-07 0.2353202
v 0.9428636 -2.670288E-07 0.2431642
v 0.9428636 -0.5 0.2431642
v 0.9428636 -0.5 0.2278684
v 0.9539002 -0.5 0.2353202
v 0.9428636 -0.5 0.08628424
v 0.9428636 -0.5 0.07098845
v 0.9539002 -0.5 0.07844024
v 0.9539002 -0.5 0.07844024
v 0.9428636 -0.5 -0.07059555
v 0.9539002 -0.5 -0.07843953
v 0.9428636 -0.5 -0.07059555
v 0.9428636 -0.5 -0.08589134
v 0.9539002 -0.5 -0.07843953
v 0.9428636 -0.5 -0.2274755
v 0.9428636 -0.5 -0.2431635
v 0.9539002 -0.5 -0.2353195
v 0.461125 0.2499998 -0.4908047
v 0.4794572 0.2499998 -0.4908047
v 0.470056 0.2499998 -0.5
v 0.08508024 0.2499998 -0.4908047
v 0.1034124 0.2499998 -0.4908047
v 0.09401129 0.2499998 -0.5
v -0.9428636 -2.670288E-07 -0.2278684
v -0.9539002 -2.670288E-07 -0.2353202
v -0.9428636 -2.670288E-07 -0.2431642
v -0.9428636 -0.5 -0.2431642
v -0.9428636 -0.5 -0.2278684
v -0.9539002 -0.5 -0.2353202
v -0.9428636 -0.5 -0.08628424
v -0.9428636 -0.5 -0.07098845
v -0.9539002 -0.5 -0.07844024
v -0.9539002 -0.5 -0.07844024
v -0.9428636 -0.5 0.07059555
v -0.9539002 -0.5 0.07843953
v -0.9428636 -0.5 0.07059555
v -0.9428636 -0.5 0.08589134
v -0.9539002 -0.5 0.07843953
v -0.9428636 -0.5 0.2274755
v -0.9428636 -0.5 0.2431635
v -0.9539002 -0.5 0.2353195
v -0.461125 0.2499998 0.4908047
v -0.4794572 0.2499998 0.4908047
v -0.470056 0.2499998 0.5
v -0.08508024 0.2499998 0.4908047
v -0.1034124 0.2499998 0.4908047
v -0.09401129 0.2499998 0.5
v 0.9539002 -0.5 -0.5
v 0.9539002 -0.5 -0.3921995
v 0.9539002 -0.25 -0.3921995
v 0.9539002 -2.670288E-07 -0.3921995
v 0.9539002 0.2499998 -0.3921995
v 0.9539002 -2.670288E-07 -0.2353195
v 0.9539002 -0.25 -0.2353195
v 0.9539002 -2.670288E-07 -0.07843953
v 0.9539002 -0.25 -0.07843953
v 0.9539002 -2.670288E-07 0.07844024
v 0.9539002 -0.25 0.07844024
v 0.9539002 -2.670288E-07 0.2353202
v 0.9539002 -0.25 0.2353202
v 0.9539001 0.55 -0.5
v 0.9539002 0.2499998 -0.2353195
v 0.9539002 0.2499998 -0.07843953
v 0.9539002 -2.670288E-07 0.3922001
v 0.9539002 0.55 0.5
v 0.9539002 0.2499998 0.07844024
v 0.9539002 0.2499998 0.2353202
v 0.9539002 0.2499998 0.3922001
v 0.9539002 -0.25 0.3922001
v 0.9539002 -0.5 0.5
v 0.9539002 -0.5 0.3922001
v 0.9539002 0.2499998 0.3922001
v 0.9539002 0.55 0.5
v 0.9428636 -2.670288E-07 -0.2431635
v 0.9428636 -2.670288E-07 -0.2274755
v 0.9428636 0.2499998 -0.2274755
v 0.9428636 0.2499998 -0.2431635
v 0.9428636 -0.5 -0.2274755
v 0.9428636 -0.25 -0.2274755
v 0.9428636 -0.25 -0.2431635
v 0.9428636 -0.5 -0.2431635
v 0.9428636 -2.670288E-07 0.2278684
v 0.9428636 -2.670288E-07 0.2431642
v 0.9428636 0.2499998 0.2431642
v 0.9428636 0.2499998 0.2278684
v 0.9428636 -2.670288E-07 0.07098845
v 0.9428636 -2.670288E-07 0.08628424
v 0.9428636 0.2499998 0.08628424
v 0.9428636 0.2499998 0.07098845
v 0.9428636 -2.670288E-07 -0.08589132
v 0.9428636 -2.670288E-07 -0.07059553
v 0.9428636 0.2499998 -0.07059553
v 0.9428636 0.2499998 -0.08589132
v 0.9539002 -2.670288E-07 -0.3921995
v 0.9428636 -2.670288E-07 -0.3921995
v 0.9428636 0.2499998 -0.3921995
v 0.9539002 0.2499998 -0.3921995
v 0.9428636 0.2499998 -0.2431635
v 0.9428636 0.2499998 -0.2274755
v 0.9539002 0.2499998 -0.2353195
v 0.9428636 0.2499998 -0.08589132
v 0.9539002 0.2499998 -0.07843953
v 0.9539002 0.2499998 0.3922001
v 0.9428636 0.2499998 0.3922001
v 0.9428636 -2.670288E-07 0.3922001
v 0.9539002 -2.670288E-07 0.3922001
v 0.9428636 -2.670288E-07 0.07098845
v 0.9539002 -2.670288E-07 0.07844024
v 0.9428636 -2.670288E-07 0.08628424
v 0.9428636 -2.670288E-07 -0.07059553
v 0.9539002 -2.670288E-07 -0.07843953
v 0.9428636 0.2499998 0.2278684
v 0.9428636 0.2499998 0.2431642
v 0.9539002 0.2499998 0.2353202
v 0.9428636 0.2499998 0.3922001
v 0.9539002 0.2499998 0.3922001
v 0.9428636 -2.670288E-07 -0.08589132
v 0.9539002 -2.670288E-07 -0.07843953
v 0.9428636 -2.670288E-07 -0.07059553
v 0.9428636 -2.670288E-07 -0.2274755
v 0.9539002 -2.670288E-07 -0.2353195
v 0.9428636 0.2499998 0.07098845
v 0.9428636 0.2499998 0.08628424
v 0.9539002 0.2499998 0.07844024
v 0.9428636 0.2499998 0.2278684
v 0.9539002 0.2499998 0.2353202
v 0.9428636 -2.670288E-07 -0.2431635
v 0.9539002 -2.670288E-07 -0.2353195
v 0.9428636 -2.670288E-07 -0.2274755
v 0.9428636 -2.670288E-07 -0.3921995
v 0.9539002 -2.670288E-07 -0.3921995
v 0.9428636 0.2499998 -0.08589132
v 0.9428636 0.2499998 -0.07059553
v 0.9539002 0.2499998 -0.07843953
v 0.9428636 0.2499998 0.07098845
v 0.9539002 0.2499998 0.07844024
v 0.9539002 -0.5 -0.2353195
v 0.9428636 -0.5 -0.2431635
v 0.9428636 -0.5 -0.3921995
v 0.9539002 -0.5 -0.3921995
v 0.9539002 -0.25 -0.3921995
v 0.9539002 -0.5 -0.3921995
v 0.9428636 -0.5 -0.3921995
v 0.9428636 -0.25 -0.3921995
v 0.9428636 -0.25 -0.2431635
v 0.9428636 -0.25 -0.2274755
v 0.9539002 -0.25 -0.2353195
v 0.9428636 -0.25 -0.08589132
v 0.9539002 -0.25 -0.07843953
v 0.9428636 -0.25 0.3922001
v 0.9428636 -0.5 0.3922001
v 0.9539002 -0.5 0.3922001
v 0.9539002 -0.25 0.3922001
v 0.9539002 -0.5 0.3922001
v 0.9428636 -0.5 0.3922001
v 0.9428636 -0.5 0.2431642
v 0.9539002 -0.5 0.2353202
v 0.9539002 -0.5 0.2353202
v 0.9428636 -0.5 0.2278684
v 0.9428636 -0.5 0.08628424
v 0.9539002 -0.5 0.07844024
v 0.9539002 -0.5 -0.07843953
v 0.9428636 -0.5 -0.08589134
v 0.9428636 -0.5 -0.2274755
v 0.9539002 -0.5 -0.2353195
v 0.9428636 -0.5 -0.07059555
v 0.9428636 -0.25 -0.07059553
v 0.9428636 -0.25 -0.08589132
v 0.9428636 -0.5 -0.08589134
v 0.9428636 -0.5 0.08628424
v 0.9428636 -0.25 0.08628424
v 0.9428636 -0.25 0.07098845
v 0.9428636 -0.5 0.07098845
v 0.9428636 -0.5 0.2431642
v 0.9428636 -0.25 0.2431642
v 0.9428636 -0.25 0.2278684
v 0.9428636 -0.5 0.2278684
v 0.9539002 -0.25 -0.3921995
v 0.9428636 -0.25 -0.3921995
v 0.9428636 -0.25 -0.2431635
v 0.9539002 -0.25 -0.2353195
v 0.9428636 -0.25 -0.08589132
v 0.9428636 -0.25 -0.07059553
v 0.9539002 -0.25 -0.07843953
v 0.9428636 -0.25 0.07098845
v 0.9539002 -0.25 0.07844024
v 0.9428636 -0.25 0.07098845
v 0.9428636 -0.25 0.08628424
v 0.9539002 -0.25 0.07844024
v 0.9428636 -0.25 0.2278684
v 0.9539002 -0.25 0.2353202
v 0.9428636 -0.25 0.2278684
v 0.9428636 -0.25 0.2431642
v 0.9539002 -0.25 0.2353202
v 0.9428636 -0.25 0.3922001
v 0.9539002 -0.25 0.3922001
v 0.9539002 0.2499998 -0.3921995
v 0.9428636 0.2499998 -0.3921995
v 0.9428636 0.2499998 -0.2431635
v 0.9539002 0.2499998 -0.2353195
v 0.9539002 -2.670288E-07 0.3922001
v 0.9428636 -2.670288E-07 0.3922001
v 0.9428636 -2.670288E-07 0.2431642
v 0.9539002 -2.670288E-07 0.2353202
v 0.9539002 -2.670288E-07 0.2353202
v 0.9428636 -2.670288E-07 0.2278684
v 0.9428636 -2.670288E-07 0.08628424
v 0.9539002 -2.670288E-07 0.07844024
v -0.9539002 -0.5 -0.5
v -0.8460997 -0.5 -0.5
v -0.8460997 -0.25 -0.5
v -0.8460997 -2.670288E-07 -0.5
v -0.9539002 0.55 -0.5
v -0.6580775 -2.670288E-07 -0.5
v -0.6580775 -0.25 -0.5
v -0.4700552 -2.670288E-07 -0.5
v -0.4700552 -0.25 -0.5
v -0.2820331 -2.288818E-07 -0.5
v -0.2820331 -0.25 -0.5
v -0.0940109 -2.288818E-07 -0.5
v -0.0940109 -0.25 -0.5
v 0.09401129 -2.288818E-07 -0.5
v 0.09401129 -0.25 -0.5
v 0.282034 -2.670288E-07 -0.5
v 0.282034 -0.25 -0.5
v 0.470056 -2.670288E-07 -0.5
v 0.470056 -0.25 -0.5
v 0.6580783 -2.670288E-07 -0.5
v 0.6580783 -0.25 -0.5
v 0.8461003 -2.670288E-07 -0.5
v 0.8461003 -0.25 -0.5
v 0.9539002 -0.5 -0.5
v 0.8461003 -0.5 -0.5
v 0.9539002 -0.5 -0.5
v 0.9539001 0.55 -0.5
v 0.8461003 0.2499998 -0.5
v 0.8461003 -2.670288E-07 -0.5
v -0.6486763 -0.5 -0.4908047
v -0.6486763 -0.25 -0.4908047
v -0.6674786 -0.25 -0.4908047
v -0.6674786 -0.5 -0.4908047
v 0.8461003 0.2499998 -0.5
v 0.8461003 0.2499998 -0.4908047
v 0.8461003 -2.670288E-07 -0.4908047
v 0.8461003 -2.670288E-07 -0.5
v -0.8460997 -2.670288E-07 -0.4908047
v -0.8460997 -2.670288E-07 -0.5
v -0.6580775 -2.670288E-07 -0.5
v -0.6674786 -2.670288E-07 -0.4908047
v -0.6486763 -2.670288E-07 -0.4908047
v -0.4789862 -2.670288E-07 -0.4908047
v -0.4700552 -2.670288E-07 -0.5
v -0.4606541 -2.670288E-07 -0.4908047
v -0.2909642 -2.288818E-07 -0.4908047
v -0.2820331 -2.288818E-07 -0.5
v -0.272632 -2.288818E-07 -0.4908047
v -0.102942 -2.288818E-07 -0.4908047
v -0.0940109 -2.288818E-07 -0.5
v -0.08460979 -2.288818E-07 -0.4908047
v 0.08508024 -2.288818E-07 -0.4908047
v 0.09401129 -2.288818E-07 -0.5
v 0.1034124 -2.288818E-07 -0.4908047
v 0.2731029 -2.670288E-07 -0.4908047
v 0.282034 -2.670288E-07 -0.5
v 0.2914351 -2.670288E-07 -0.4908047
v 0.461125 -2.670288E-07 -0.4908047
v 0.470056 -2.670288E-07 -0.5
v 0.4794572 -2.670288E-07 -0.4908047
v 0.6491473 -2.670288E-07 -0.4908047
v 0.6580783 -2.670288E-07 -0.5
v 0.6674794 -2.670288E-07 -0.4908047
v 0.8461003 -2.670288E-07 -0.4908047
v 0.8461003 -2.670288E-07 -0.5
v -0.8460997 -0.25 -0.5
v -0.8460997 -0.5 -0.5
v -0.8460997 -0.5 -0.4908047
v -0.8460997 -0.25 -0.4908047
v 0.8461003 -0.25 -0.4908047
v 0.8461003 -0.5 -0.4908047
v 0.8461003 -0.5 -0.5
v 0.8461003 -0.25 -0.5
v -0.8460997 -0.5 -0.4908047
v -0.8460997 -0.5 -0.5
v -0.6580775 -0.5 -0.5
v -0.6674786 -0.5 -0.4908047
v -0.6486763 -0.5 -0.4908047
v -0.4789862 -0.5 -0.4908047
v -0.4700552 -0.5 -0.5
v -0.460654 -0.5 -0.4908047
v -0.2909642 -0.5 -0.4908047
v -0.2820331 -0.5 -0.5
v -0.272632 -0.5 -0.4908047
v -0.102942 -0.5 -0.4908047
v -0.0940109 -0.5 -0.5
v -0.08460979 -0.5 -0.4908047
v 0.08508025 -0.5 -0.4908047
v 0.09401131 -0.5 -0.5
v 0.1034124 -0.5 -0.4908047
v 0.2731029 -0.5 -0.4908047
v 0.282034 -0.5 -0.5
v 0.2914351 -0.5 -0.4908047
v 0.461125 -0.5 -0.4908047
v 0.470056 -0.5 -0.5
v 0.4794571 -0.5 -0.4908047
v 0.6491473 -0.5 -0.4908047
v 0.6580783 -0.5 -0.5
v 0.6674794 -0.5 -0.4908047
v 0.8461003 -0.5 -0.4908047
v 0.8461003 -0.5 -0.5
v 0.6580783 0.2499998 -0.5
v 0.8461003 0.2499998 -0.5
v 0.9539001 0.55 -0.5
v 0.470056 0.2499998 -0.5
v 0.282034 0.2499998 -0.5
v 0.09401129 0.2499998 -0.5
v -0.0940109 0.2499998 -0.5
v -0.2820331 0.2499998 -0.5
v -0.4700552 0.2499998 -0.5
v -0.6580775 0.2499998 -0.5
v -0.8460997 0.2499998 -0.5
v 0.6491473 -0.25 -0.4908047
v 0.6674794 -0.25 -0.4908047
v 0.6580783 -0.25 -0.5
v 0.8461003 -0.25 -0.4908047
v 0.8461003 -0.25 -0.5
v 0.461125 -0.25 -0.4908047
v 0.4794572 -0.25 -0.4908047
v 0.470056 -0.25 -0.5
v 0.6580783 -0.25 -0.5
v 0.6491473 -0.25 -0.4908047
v 0.2731029 -0.25 -0.4908047
v 0.2914351 -0.25 -0.4908047
v 0.282034 -0.25 -0.5
v 0.470056 -0.25 -0.5
v 0.461125 -0.25 -0.4908047
v 0.08508024 -0.25 -0.4908047
v 0.1034124 -0.25 -0.4908047
v 0.09401129 -0.25 -0.5
v 0.282034 -0.25 -0.5
v 0.2731029 -0.25 -0.4908047
v -0.102942 -0.25 -0.4908047
v -0.08460979 -0.25 -0.4908047
v -0.0940109 -0.25 -0.5
v 0.09401129 -0.25 -0.5
v 0.08508024 -0.25 -0.4908047
v -0.2909642 0.2499998 -0.4908047
v -0.272632 0.2499998 -0.4908047
v -0.2820331 0.2499998 -0.5
v -0.4606541 0.2499998 -0.4908047
v -0.4700552 0.2499998 -0.5
v -0.4789862 0.2499998 -0.4908047
v -0.4789862 -0.25 -0.4908047
v -0.4606541 -0.25 -0.4908047
v -0.4700552 -0.25 -0.5
v -0.2820331 -0.25 -0.5
v -0.2909642 -0.25 -0.4908047
v -0.272632 -0.25 -0.4908047
v -0.0940109 -0.25 -0.5
v -0.102942 -0.25 -0.4908047
v -0.8460997 -2.670288E-07 -0.5
v -0.8460997 -2.670288E-07 -0.4908047
v -0.8460997 0.2499998 -0.4908047
v -0.8460997 0.2499998 -0.5
v -0.6674786 -2.670288E-07 -0.4908047
v -0.6486763 -2.670288E-07 -0.4908047
v -0.6486763 0.2499998 -0.4908047
v -0.6674786 0.2499998 -0.4908047
v -0.460654 -0.5 -0.4908047
v -0.4606541 -0.25 -0.4908047
v -0.4789862 -0.25 -0.4908047
v -0.4789862 -0.5 -0.4908047
v -0.4606541 -2.670288E-07 -0.4908047
v -0.4606541 0.2499998 -0.4908047
v -0.4789862 0.2499998 -0.4908047
v -0.4789862 -2.670288E-07 -0.4908047
v -0.2909642 -2.288818E-07 -0.4908047
v -0.272632 -2.288818E-07 -0.4908047
v -0.272632 0.2499998 -0.4908047
v -0.2909642 0.2499998 -0.4908047
v -0.272632 -0.5 -0.4908047
v -0.272632 -0.25 -0.4908047
v -0.2909642 -0.25 -0.4908047
v -0.2909642 -0.5 -0.4908047
v -0.102942 -2.288818E-07 -0.4908047
v -0.08460979 -2.288818E-07 -0.4908047
v -0.08460979 0.2499998 -0.4908047
v -0.102942 0.2499998 -0.4908047
v -0.08460979 -0.5 -0.4908047
v -0.08460979 -0.25 -0.4908047
v -0.102942 -0.25 -0.4908047
v -0.102942 -0.5 -0.4908047
v 0.08508024 -2.288818E-07 -0.4908047
v 0.1034124 -2.288818E-07 -0.4908047
v 0.1034124 0.2499998 -0.4908047
v 0.08508024 0.2499998 -0.4908047
v 0.1034124 -0.5 -0.4908047
v 0.1034124 -0.25 -0.4908047
v 0.08508024 -0.25 -0.4908047
v 0.08508025 -0.5 -0.4908047
v 0.2731029 -2.670288E-07 -0.4908047
v 0.2914351 -2.670288E-07 -0.4908047
v 0.2914351 0.2499998 -0.4908047
v 0.2731029 0.2499998 -0.4908047
v 0.2914351 -0.5 -0.4908047
v 0.2914351 -0.25 -0.4908047
v 0.2731029 -0.25 -0.4908047
v 0.2731029 -0.5 -0.4908047
v 0.461125 -2.670288E-07 -0.4908047
v 0.4794572 -2.670288E-07 -0.4908047
v 0.4794572 0.2499998 -0.4908047
v 0.461125 0.2499998 -0.4908047
v 0.4794571 -0.5 -0.4908047
v 0.4794572 -0.25 -0.4908047
v 0.461125 -0.25 -0.4908047
v 0.461125 -0.5 -0.4908047
v 0.6491473 -2.670288E-07 -0.4908047
v 0.6674794 -2.670288E-07 -0.4908047
v 0.6674794 0.2499998 -0.4908047
v 0.6491473 0.2499998 -0.4908047
v 0.6674794 -0.5 -0.4908047
v 0.6674794 -0.25 -0.4908047
v 0.6491473 -0.25 -0.4908047
v 0.6491473 -0.5 -0.4908047
v 0.6674794 0.2499998 -0.4908047
v 0.8461003 0.2499998 -0.4908047
v 0.8461003 0.2499998 -0.5
v 0.6580783 0.2499998 -0.5
v 0.6491473 0.2499998 -0.4908047
v 0.4794572 0.2499998 -0.4908047
v 0.470056 0.2499998 -0.5
v 0.2914351 0.2499998 -0.4908047
v 0.461125 0.2499998 -0.4908047
v 0.282034 0.2499998 -0.5
v 0.2731029 0.2499998 -0.4908047
v 0.1034124 0.2499998 -0.4908047
v 0.09401129 0.2499998 -0.5
v -0.08460979 0.2499998 -0.4908047
v 0.08508024 0.2499998 -0.4908047
v -0.0940109 0.2499998 -0.5
v -0.102942 0.2499998 -0.4908047
v -0.272632 0.2499998 -0.4908047
v -0.2820331 0.2499998 -0.5
v -0.8460997 0.2499998 -0.5
v -0.8460997 0.2499998 -0.4908047
v -0.6674786 0.2499998 -0.4908047
v -0.6580775 0.2499998 -0.5
v -0.6486763 0.2499998 -0.4908047
v -0.4700552 0.2499998 -0.5
v -0.4789862 0.2499998 -0.4908047
v -0.6580775 -0.25 -0.5
v -0.8460997 -0.25 -0.5
v -0.8460997 -0.25 -0.4908047
v -0.6674786 -0.25 -0.4908047
v -0.6486763 -0.25 -0.4908047
v -0.4700552 -0.25 -0.5
v -0.4789862 -0.25 -0.4908047
v -0.9539002 -0.5 0.5
v -0.9539002 -0.5 0.3921995
v -0.9539002 -0.25 0.3921995
v -0.9539002 -2.670288E-07 0.3921995
v -0.9539002 0.2499998 0.3921995
v -0.9539002 -2.670288E-07 0.2353195
v -0.9539002 -0.25 0.2353195
v -0.9539002 -2.670288E-07 0.07843953
v -0.9539002 -0.25 0.07843953
v -0.9539002 -2.670288E-07 -0.07844024
v -0.9539002 -0.25 -0.07844024
v -0.9539002 -2.670288E-07 -0.2353202
v -0.9539002 -0.25 -0.2353202
v -0.9539001 0.55 0.5
v -0.9539002 0.2499998 0.2353195
v -0.9539002 0.2499998 0.07843953
v -0.9539002 -2.670288E-07 -0.3922001
v -0.9539002 0.55 -0.5
v -0.9539002 0.2499998 -0.07844024
v -0.9539002 0.2499998 -0.2353202
v -0.9539002 0.2499998 -0.3922001
v -0.9539002 -0.25 -0.3922001
v -0.9539002 -0.5 -0.5
v -0.9539002 -0.5 -0.3922001
v -0.9539002 0.2499998 -0.3922001
v -0.9539002 0.55 -0.5
v -0.9428636 -2.670288E-07 0.2431635
v -0.9428636 -2.670288E-07 0.2274755
v -0.9428636 0.2499998 0.2274755
v -0.9428636 0.2499998 0.2431635
v -0.9428636 -0.5 0.2274755
v -0.9428636 -0.25 0.2274755
v -0.9428636 -0.25 0.2431635
v -0.9428636 -0.5 0.2431635
v -0.9428636 -2.670288E-07 -0.2278684
v -0.9428636 -2.670288E-07 -0.2431642
v -0.9428636 0.2499998 -0.2431642
v -0.9428636 0.2499998 -0.2278684
v -0.9428636 -2.670288E-07 -0.07098845
v -0.9428636 -2.670288E-07 -0.08628424
v -0.9428636 0.2499998 -0.08628424
v -0.9428636 0.2499998 -0.07098845
v -0.9428636 -2.670288E-07 0.08589132
v -0.9428636 -2.670288E-07 0.07059553
v -0.9428636 0.2499998 0.07059553
v -0.9428636 0.2499998 0.08589132
v -0.9539002 -2.670288E-07 0.3921995
v -0.9428636 -2.670288E-07 0.3921995
v -0.9428636 0.2499998 0.3921995
v -0.9539002 0.2499998 0.3921995
v -0.9428636 0.2499998 0.2431635
v -0.9428636 0.2499998 0.2274755
v -0.9539002 0.2499998 0.2353195
v -0.9428636 0.2499998 0.08589132
v -0.9539002 0.2499998 0.07843953
v -0.9539002 0.2499998 -0.3922001
v -0.9428636 0.2499998 -0.3922001
v -0.9428636 -2.670288E-07 -0.3922001
v -0.9539002 -2.670288E-07 -0.3922001
v -0.9428636 -2.670288E-07 -0.07098845
v -0.9539002 -2.670288E-07 -0.07844024
v -0.9428636 -2.670288E-07 -0.08628424
v -0.9428636 -2.670288E-07 0.07059553
v -0.9539002 -2.670288E-07 0.07843953
v -0.9428636 0.2499998 -0.2278684
v -0.9428636 0.2499998 -0.2431642
v -0.9539002 0.2499998 -0.2353202
v -0.9428636 0.2499998 -0.3922001
v -0.9539002 0.2499998 -0.3922001
v -0.9428636 -2.670288E-07 0.08589132
v -0.9539002 -2.670288E-07 0.07843953
v -0.9428636 -2.670288E-07 0.07059553
v -0.9428636 -2.670288E-07 0.2274755
v -0.9539002 -2.670288E-07 0.2353195
v -0.9428636 0.2499998 -0.07098845
v -0.9428636 0.2499998 -0.08628424
v -0.9539002 0.2499998 -0.07844024
v -0.9428636 0.2499998 -0.2278684
v -0.9539002 0.2499998 -0.2353202
v -0.9428636 -2.670288E-07 0.2431635
v -0.9539002 -2.670288E-07 0.2353195
v -0.9428636 -2.670288E-07 0.2274755
v -0.9428636 -2.670288E-07 0.3921995
v -0.9539002 -2.670288E-07 0.3921995
v -0.9428636 0.2499998 0.08589132
v -0.9428636 0.2499998 0.07059553
v -0.9539002 0.2499998 0.07843953
v -0.9428636 0.2499998 -0.07098845
v -0.9539002 0.2499998 -0.07844024
v -0.9539002 -0.5 0.2353195
v -0.9428636 -0.5 0.2431635
v -0.9428636 -0.5 0.3921995
v -0.9539002 -0.5 0.3921995
v -0.9539002 -0.25 0.3921995
v -0.9539002 -0.5 0.3921995
v -0.9428636 -0.5 0.3921995
v -0.9428636 -0.25 0.3921995
v -0.9428636 -0.25 0.2431635
v -0.9428636 -0.25 0.2274755
v -0.9539002 -0.25 0.2353195
v -0.9428636 -0.25 0.08589132
v -0.9539002 -0.25 0.07843953
v -0.9428636 -0.25 -0.3922001
v -0.9428636 -0.5 -0.3922001
v -0.9539002 -0.5 -0.3922001
v -0.9539002 -0.25 -0.3922001
v -0.9539002 -0.5 -0.3922001
v -0.9428636 -0.5 -0.3922001
v -0.9428636 -0.5 -0.2431642
v -0.9539002 -0.5 -0.2353202
v -0.9539002 -0.5 -0.2353202
v -0.9428636 -0.5 -0.2278684
v -0.9428636 -0.5 -0.08628424
v -0.9539002 -0.5 -0.07844024
v -0.9539002 -0.5 0.07843953
v -0.9428636 -0.5 0.08589134
v -0.9428636 -0.5 0.2274755
v -0.9539002 -0.5 0.2353195
v -0.9428636 -0.5 0.07059555
v -0.9428636 -0.25 0.07059553
v -0.9428636 -0.25 0.08589132
v -0.9428636 -0.5 0.08589134
v -0.9428636 -0.5 -0.08628424
v -0.9428636 -0.25 -0.08628424
v -0.9428636 -0.25 -0.07098845
v -0.9428636 -0.5 -0.07098845
v -0.9428636 -0.5 -0.2431642
v -0.9428636 -0.25 -0.2431642
v -0.9428636 -0.25 -0.2278684
v -0.9428636 -0.5 -0.2278684
v -0.9539002 -0.25 0.3921995
v -0.9428636 -0.25 0.3921995
v -0.9428636 -0.25 0.2431635
v -0.9539002 -0.25 0.2353195
v -0.9428636 -0.25 0.08589132
v -0.9428636 -0.25 0.07059553
v -0.9539002 -0.25 0.07843953
v -0.9428636 -0.25 -0.07098845
v -0.9539002 -0.25 -0.07844024
v -0.9428636 -0.25 -0.07098845
v -0.9428636 -0.25 -0.08628424
v -0.9539002 -0.25 -0.07844024
v -0.9428636 -0.25 -0.2278684
v -0.9539002 -0.25 -0.2353202
v -0.9428636 -0.25 -0.2278684
v -0.9428636 -0.25 -0.2431642
v -0.9539002 -0.25 -0.2353202
v -0.9428636 -0.25 -0.3922001
v -0.9539002 -0.25 -0.3922001
v -0.9539002 0.2499998 0.3921995
v -0.9428636 0.2499998 0.3921995
v -0.9428636 0.2499998 0.2431635
v -0.9539002 0.2499998 0.2353195
v -0.9539002 -2.670288E-07 -0.3922001
v -0.9428636 -2.670288E-07 -0.3922001
v -0.9428636 -2.670288E-07 -0.2431642
v -0.9539002 -2.670288E-07 -0.2353202
v -0.9539002 -2.670288E-07 -0.2353202
v -0.9428636 -2.670288E-07 -0.2278684
v -0.9428636 -2.670288E-07 -0.08628424
v -0.9539002 -2.670288E-07 -0.07844024
v 0.9539002 -0.5 0.5
v 0.8460997 -0.5 0.5
v 0.8460997 -0.25 0.5
v 0.8460997 -2.670288E-07 0.5
v 0.9539002 0.55 0.5
v 0.6580775 -2.670288E-07 0.5
v 0.6580775 -0.25 0.5
v 0.4700552 -2.670288E-07 0.5
v 0.4700552 -0.25 0.5
v 0.2820331 -2.288818E-07 0.5
v 0.2820331 -0.25 0.5
v 0.0940109 -2.288818E-07 0.5
v 0.0940109 -0.25 0.5
v -0.09401129 -2.288818E-07 0.5
v -0.09401129 -0.25 0.5
v -0.282034 -2.670288E-07 0.5
v -0.282034 -0.25 0.5
v -0.470056 -2.670288E-07 0.5
v -0.470056 -0.25 0.5
v -0.6580783 -2.670288E-07 0.5
v -0.6580783 -0.25 0.5
v -0.8461003 -2.670288E-07 0.5
v -0.8461003 -0.25 0.5
v -0.9539002 -0.5 0.5
v -0.8461003 -0.5 0.5
v -0.9539002 -0.5 0.5
v -0.9539001 0.55 0.5
v -0.8461003 0.2499998 0.5
v -0.8461003 -2.670288E-07 0.5
v 0.6486763 -0.5 0.4908047
v 0.6486763 -0.25 0.4908047
v 0.6674786 -0.25 0.4908047
v 0.6674786 -0.5 0.4908047
v -0.8461003 0.2499998 0.5
v -0.8461003 0.2499998 0.4908047
v -0.8461003 -2.670288E-07 0.4908047
v -0.8461003 -2.670288E-07 0.5
v 0.8460997 -2.670288E-07 0.4908047
v 0.8460997 -2.670288E-07 0.5
v 0.6580775 -2.670288E-07 0.5
v 0.6674786 -2.670288E-07 0.4908047
v 0.6486763 -2.670288E-07 0.4908047
v 0.4789862 -2.670288E-07 0.4908047
v 0.4700552 -2.670288E-07 0.5
v 0.4606541 -2.670288E-07 0.4908047
v 0.2909642 -2.288818E-07 0.4908047
v 0.2820331 -2.288818E-07 0.5
v 0.272632 -2.288818E-07 0.4908047
v 0.102942 -2.288818E-07 0.4908047
v 0.0940109 -2.288818E-07 0.5
v 0.08460979 -2.288818E-07 0.4908047
v -0.08508024 -2.288818E-07 0.4908047
v -0.09401129 -2.288818E-07 0.5
v -0.1034124 -2.288818E-07 0.4908047
v -0.2731029 -2.670288E-07 0.4908047
v -0.282034 -2.670288E-07 0.5
v -0.2914351 -2.670288E-07 0.4908047
v -0.461125 -2.670288E-07 0.4908047
v -0.470056 -2.670288E-07 0.5
v -0.4794572 -2.670288E-07 0.4908047
v -0.6491473 -2.670288E-07 0.4908047
v -0.6580783 -2.670288E-07 0.5
v -0.6674794 -2.670288E-07 0.4908047
v -0.8461003 -2.670288E-07 0.4908047
v -0.8461003 -2.670288E-07 0.5
v 0.8460997 -0.25 0.5
v 0.8460997 -0.5 0.5
v 0.8460997 -0.5 0.4908047
v 0.8460997 -0.25 0.4908047
v -0.8461003 -0.25 0.4908047
v -0.8461003 -0.5 0.4908047
v -0.8461003 -0.5 0.5
v -0.8461003 -0.25 0.5
v 0.8460997 -0.5 0.4908047
v 0.8460997 -0.5 0.5
v 0.6580775 -0.5 0.5
v 0.6674786 -0.5 0.4908047
v 0.6486763 -0.5 0.4908047
v 0.4789862 -0.5 0.4908047
v 0.4700552 -0.5 0.5
v 0.460654 -0.5 0.4908047
v 0.2909642 -0.5 0.4908047
v 0.2820331 -0.5 0.5
v 0.272632 -0.5 0.4908047
v 0.102942 -0.5 0.4908047
v 0.0940109 -0.5 0.5
v 0.08460979 -0.5 0.4908047
v -0.08508025 -0.5 0.4908047
v -0.09401131 -0.5 0.5
v -0.1034124 -0.5 0.4908047
v -0.2731029 -0.5 0.4908047
v -0.282034 -0.5 0.5
v -0.2914351 -0.5 0.4908047
v -0.461125 -0.5 0.4908047
v -0.470056 -0.5 0.5
v -0.4794571 -0.5 0.4908047
v -0.6491473 -0.5 0.4908047
v -0.6580783 -0.5 0.5
v -0.6674794 -0.5 0.4908047
v -0.8461003 -0.5 0.4908047
v -0.8461003 -0.5 0.5
v -0.6580783 0.2499998 0.5
v -0.8461003 0.2499998 0.5
v -0.9539001 0.55 0.5
v -0.470056 0.2499998 0.5
v -0.282034 0.2499998 0.5
v -0.09401129 0.2499998 0.5
v 0.0940109 0.2499998 0.5
v 0.2820331 0.2499998 0.5
v 0.4700552 0.2499998 0.5
v 0.6580775 0.2499998 0.5
v 0.8460997 0.2499998 0.5
v -0.6491473 -0.25 0.4908047
v -0.6674794 -0.25 0.4908047
v -0.6580783 -0.25 0.5
v -0.8461003 -0.25 0.4908047
v -0.8461003 -0.25 0.5
v -0.461125 -0.25 0.4908047
v -0.4794572 -0.25 0.4908047
v -0.470056 -0.25 0.5
v -0.6580783 -0.25 0.5
v -0.6491473 -0.25 0.4908047
v -0.2731029 -0.25 0.4908047
v -0.2914351 -0.25 0.4908047
v -0.282034 -0.25 0.5
v -0.470056 -0.25 0.5
v -0.461125 -0.25 0.4908047
v -0.08508024 -0.25 0.4908047
v -0.1034124 -0.25 0.4908047
v -0.09401129 -0.25 0.5
v -0.282034 -0.25 0.5
v -0.2731029 -0.25 0.4908047
v 0.102942 -0.25 0.4908047
v 0.08460979 -0.25 0.4908047
v 0.0940109 -0.25 0.5
v -0.09401129 -0.25 0.5
v -0.08508024 -0.25 0.4908047
v 0.2909642 0.2499998 0.4908047
v 0.272632 0.2499998 0.4908047
v 0.2820331 0.2499998 0.5
v 0.4606541 0.2499998 0.4908047
v 0.4700552 0.2499998 0.5
v 0.4789862 0.2499998 0.4908047
v 0.4789862 -0.25 0.4908047
v 0.4606541 -0.25 0.4908047
v 0.4700552 -0.25 0.5
v 0.2820331 -0.25 0.5
v 0.2909642 -0.25 0.4908047
v 0.272632 -0.25 0.4908047
v 0.0940109 -0.25 0.5
v 0.102942 -0.25 0.4908047
v 0.8460997 -2.670288E-07 0.5
v 0.8460997 -2.670288E-07 0.4908047
v 0.8460997 0.2499998 0.4908047
v 0.8460997 0.2499998 0.5
v 0.6674786 -2.670288E-07 0.4908047
v 0.6486763 -2.670288E-07 0.4908047
v 0.6486763 0.2499998 0.4908047
v 0.6674786 0.2499998 0.4908047
v 0.460654 -0.5 0.4908047
v 0.4606541 -0.25 0.4908047
v 0.4789862 -0.25 0.4908047
v 0.4789862 -0.5 0.4908047
v 0.4606541 -2.670288E-07 0.4908047
v 0.4606541 0.2499998 0.4908047
v 0.4789862 0.2499998 0.4908047
v 0.4789862 -2.670288E-07 0.4908047
v 0.2909642 -2.288818E-07 0.4908047
v 0.272632 -2.288818E-07 0.4908047
v 0.272632 0.2499998 0.4908047
v 0.2909642 0.2499998 0.4908047
v 0.272632 -0.5 0.4908047
v 0.272632 -0.25 0.4908047
v 0.2909642 -0.25 0.4908047
v 0.2909642 -0.5 0.4908047
v 0.102942 -2.288818E-07 0.4908047
v 0.08460979 -2.288818E-07 0.4908047
v 0.08460979 0.2499998 0.4908047
v 0.102942 0.2499998 0.4908047
v 0.08460979 -0.5 0.4908047
v 0.08460979 -0.25 0.4908047
v 0.102942 -0.25 0.4908047
v 0.102942 -0.5 0.4908047
v -0.08508024 -2.288818E-07 0.4908047
v -0.1034124 -2.288818E-07 0.4908047
v -0.1034124 0.2499998 0.4908047
v -0.08508024 0.2499998 0.4908047
v -0.1034124 -0.5 0.4908047
v -0.1034124 -0.25 0.4908047
v -0.08508024 -0.25 0.4908047
v -0.08508025 -0.5 0.4908047
v -0.2731029 -2.670288E-07 0.4908047
v -0.2914351 -2.670288E-07 0.4908047
v -0.2914351 0.2499998 0.4908047
v -0.2731029 0.2499998 0.4908047
v -0.2914351 -0.5 0.4908047
v -0.2914351 -0.25 0.4908047
v -0.2731029 -0.25 0.4908047
v -0.2731029 -0.5 0.4908047
v -0.461125 -2.670288E-07 0.4908047
v -0.4794572 -2.670288E-07 0.4908047
v -0.4794572 0.2499998 0.4908047
v -0.461125 0.2499998 0.4908047
v -0.4794571 -0.5 0.4908047
v -0.4794572 -0.25 0.4908047
v -0.461125 -0.25 0.4908047
v -0.461125 -0.5 0.4908047
v -0.6491473 -2.670288E-07 0.4908047
v -0.6674794 -2.670288E-07 0.4908047
v -0.6674794 0.2499998 0.4908047
v -0.6491473 0.2499998 0.4908047
v -0.6674794 -0.5 0.4908047
v -0.6674794 -0.25 0.4908047
v -0.6491473 -0.25 0.4908047
v -0.6491473 -0.5 0.4908047
v -0.6674794 0.2499998 0.4908047
v -0.8461003 0.2499998 0.4908047
v -0.8461003 0.2499998 0.5
v -0.6580783 0.2499998 0.5
v -0.6491473 0.2499998 0.4908047
v -0.4794572 0.2499998 0.4908047
v -0.470056 0.2499998 0.5
v -0.2914351 0.2499998 0.4908047
v -0.461125 0.2499998 0.4908047
v -0.282034 0.2499998 0.5
v -0.2731029 0.2499998 0.4908047
v -0.1034124 0.2499998 0.4908047
v -0.09401129 0.2499998 0.5
v 0.08460979 0.2499998 0.4908047
v -0.08508024 0.2499998 0.4908047
v 0.0940109 0.2499998 0.5
v 0.102942 0.2499998 0.4908047
v 0.272632 0.2499998 0.4908047
v 0.2820331 0.2499998 0.5
v 0.8460997 0.2499998 0.5
v 0.8460997 0.2499998 0.4908047
v 0.6674786 0.2499998 0.4908047
v 0.6580775 0.2499998 0.5
v 0.6486763 0.2499998 0.4908047
v 0.4700552 0.2499998 0.5
v 0.4789862 0.2499998 0.4908047
v 0.6580775 -0.25 0.5
v 0.8460997 -0.25 0.5
v 0.8460997 -0.25 0.4908047
v 0.6674786 -0.25 0.4908047
v 0.6486763 -0.25 0.4908047
v 0.4700552 -0.25 0.5
v 0.4789862 -0.25 0.4908047
v 0.9139001 0.5 -0.46
v 0.9139002 0.5 0.46
v -0.9139001 0.5 0.46
v -0.9139002 0.5 -0.46
v 0.9539001 0.55 -0.5
v 0.9139001 0.55 -0.46
v -0.9139002 0.55 -0.46
v -0.9539002 0.55 -0.5
v -0.9539002 0.55 -0.5
v -0.9139002 0.55 -0.46
v -0.9139001 0.55 0.46
v -0.9539001 0.55 0.5
v -0.9539001 0.55 0.5
v -0.9139001 0.55 0.46
v 0.9139002 0.55 0.46
v 0.9539002 0.55 0.5
v 0.9539002 0.55 0.5
v 0.9139002 0.55 0.46
v 0.9139001 0.55 -0.46
v 0.9539001 0.55 -0.5
v -0.9139002 0.5 -0.46
v -0.9139002 0.55 -0.46
v 0.9139001 0.55 -0.46
v 0.9139001 0.5 -0.46
v -0.9139001 0.5 0.46
v -0.9139001 0.55 0.46
v -0.9139002 0.55 -0.46
v -0.9139002 0.5 -0.46
v 0.9139002 0.5 0.46
v 0.9139002 0.55 0.46
v -0.9139001 0.55 0.46
v -0.9139001 0.5 0.46
v 0.9139001 0.5 -0.46
v 0.9139001 0.55 -0.46
v 0.9139002 0.55 0.46
v 0.9139002 0.5 0.46
v 0.9428636 0.2499998 0.3922001
v 0.9428636 -2.670288E-07 0.3922001
v 0.9428636 -0.5 0.3922001
v 0.9428636 -0.25 0.3922001
v 0.9428636 0.2499998 -0.3921995
v 0.9428636 -2.670288E-07 -0.3921995
v 0.9428636 -0.25 -0.3921995
v 0.9428636 -0.5 -0.3921995
v -0.8460997 0.2499998 -0.4908047
v -0.8460997 -2.670288E-07 -0.4908047
v 0.8461003 0.2499998 -0.4908047
v 0.8461003 -2.670288E-07 -0.4908047
v 0.8461003 -0.5 -0.4908047
v 0.8461003 -0.25 -0.4908047
v -0.8460997 -0.5 -0.4908047
v -0.8460997 -0.25 -0.4908047
v -0.9428636 0.2499998 -0.3922001
v -0.9428636 -2.670288E-07 -0.3922001
v -0.9428636 -0.5 -0.3922001
v -0.9428636 -0.25 -0.3922001
v -0.9428636 0.2499998 0.3921995
v -0.9428636 -2.670288E-07 0.3921995
v -0.9428636 -0.25 0.3921995
v -0.9428636 -0.5 0.3921995
v 0.8460997 0.2499998 0.4908047
v 0.8460997 -2.670288E-07 0.4908047
v -0.8461003 0.2499998 0.4908047
v -0.8461003 -2.670288E-07 0.4908047
v -0.8461003 -0.5 0.4908047
v -0.8461003 -0.25 0.4908047
v 0.8460997 -0.5 0.4908047
v 0.8460997 -0.25 0.4908047
vt 0.7084961 0.1845703
vt 0.7084961 0.1875
vt 0.7915039 0.05938721
vt 0.7573242 0.125
vt 0.7426758 0
vt 0.7416992 0
vt 0.7573242 0
vt 0.7592773 0.125
vt 0.7583008 0.125
vt 0.7583008 0.125
vt 0.7739258 0.125
vt 0.7749023 0.125
vt 0.7739258 0.125
vt 0.7592773 0
vt 0.7583008 0
vt 0.7739258 0
vt 0.7260742 0.125
vt 0.7250977 0.125
vt 0.7788086 0.09094238
vt 0.7788086 0.08959961
vt 0.7788086 0.090271
vt 0.7827148 0.1187134
vt 0.7822266 0.1173706
vt 0.7822266 0.118042
vt 0.7084961 0.1845703
vt 0.7084961 0.1875
vt 0.7915039 0.05938721
vt 0.7573242 0.125
vt 0.7426758 0
vt 0.7416992 0
vt 0.7573242 0
vt 0.7592773 0.125
vt 0.7583008 0.125
vt 0.7583008 0.125
vt 0.7739258 0.125
vt 0.7749023 0.125
vt 0.7739258 0.125
vt 0.7592773 0
vt 0.7583008 0
vt 0.7739258 0
vt 0.7260742 0.125
vt 0.7250977 0.125
vt 0.7788086 0.09094238
vt 0.7788086 0.08959961
vt 0.7788086 0.090271
vt 0.7827148 0.1187134
vt 0.7822266 0.1173706
vt 0.7822266 0.118042
vt 0.8769531 0
vt 0.7915039 0
vt 0.7915039 0.0625
vt 0.7915039 0.125
vt 0.7915039 0.1875
vt 0.7749023 0.125
vt 0.7749023 0.0625
vt 0.7583008 0.125
vt 0.7583008 0.0625
vt 0.7416992 0.125
vt 0.7416992 0.0625
vt 0.7250977 0.125
vt 0.7250977 0.0625
vt 0.8022461 0.2624512
vt 0.7749023 0.1875
vt 0.7583008 0.1875
vt 0.7084961 0.125
vt 0.6523438 0.2546387
vt 0.7416992 0.1875
vt 0.7250977 0.1875
vt 0.7084961 0.1875
vt 0.7084961 0.0625
vt 0.6235352 0
vt 0.7084961 0
vt 0.7084961 0.1875
vt 0.6523438 0.2546387
vt 0.7758789 0.125
vt 0.7739258 0.125
vt 0.7739258 0.1875
vt 0.7758789 0.1875
vt 0.7739258 0
vt 0.7739258 0.0625
vt 0.7758789 0.0625
vt 0.7758789 0
vt 0.7255859 0.125
vt 0.7241211 0.125
vt 0.7241211 0.1875
vt 0.7255859 0.1875
vt 0.7426758 0.125
vt 0.7407227 0.125
vt 0.7407227 0.1875
vt 0.7426758 0.1875
vt 0.7592773 0.125
vt 0.7573242 0.125
vt 0.7573242 0.1875
vt 0.7592773 0.1875
vt 0.7915039 0.125
vt 0.7915039 0.125
vt 0.7915039 0.1875
vt 0.7915039 0.1875
vt 0.7758789 0.1875
vt 0.7241211 0.0625
vt 0.7250977 0.0625
vt 0.7089844 0.0625
vt 0.7084961 0.0625
vt 0.7749023 0
vt 0.7749023 0
vt 0.7915039 0
vt 0.7915039 0
vt 0.7241211 0.1875
vt 0.7250977 0.1875
vt 0.7084961 0.1281738
vt 0.7089844 0.1875
vt 0.7084961 0.1875
vt 0.7241211 0.125
vt 0.7910156 0.0625
vt 0.7915039 0.0625
vt 0.7749023 0.0625
vt 0.7749023 0.0625
vt 0.7089844 0
vt 0.7084961 0
vt 0.7089844 0.1875
vt 0.7241211 0
vt 0.7250977 0
vt 0.7084961 0.002967834
vt 0.7089844 0.125
vt 0.7084961 0.125
vt 0.7241211 0.125
vt 0.7250977 0.125
vt 0.7758789 0.125
vt 0.7749023 0.125
vt 0.7241211 0
vt 0.7915039 0.125
vt 0.7915039 0.125
vt 0.7089844 0.0625
vt 0.7084961 0.05938721
vt 0.7084961 0.0625
vt 0.7084961 0.002967834
vt 0.7084961 0
vt 0.7250977 0.125
vt 0.7260742 0.125
vt 0.7416992 0.125
vt 0.7416992 0.125
vt 0.7250977 0.1875
vt 0.7416992 0.1875
vt 0.7416992 0.1875
vt 0.7250977 0.1875
vt 0.7407227 0
vt 0.7739258 0.0625
vt 0.7749023 0.0625
vt 0.7592773 0.0625
vt 0.7583008 0.0625
vt 0.7416992 0.0625
vt 0.7250977 0.0625
vt 0.7250977 0.0625
vt 0.7416992 0.0625
vt 0.7416992 0.125
vt 0.7416992 0.125
vt 0.7573242 0.125
vt 0.7583008 0.125
vt 0.7416992 0
vt 0.7426758 0
vt 0.7573242 0
vt 0.7583008 0
vt 0.7583008 0
vt 0.7592773 0
vt 0.7739258 0
vt 0.7749023 0
vt 0.7573242 0
vt 0.7573242 0.0625
vt 0.7592773 0.0625
vt 0.7592773 0
vt 0.7407227 0
vt 0.7407227 0.0625
vt 0.7426758 0.0625
vt 0.7426758 0
vt 0.7241211 0
vt 0.7241211 0.0625
vt 0.7255859 0.0625
vt 0.7255859 0
vt 0.7250977 0
vt 0.7250977 0
vt 0.7407227 0
vt 0.7416992 0
vt 0.7592773 0.0625
vt 0.7739258 0.1875
vt 0.7749023 0.1875
vt 0.7592773 0.1875
vt 0.7583008 0.1875
vt 0.7592773 0.1875
vt 0.7573242 0.0625
vt 0.7583008 0.0625
vt 0.7426758 0.0625
vt 0.7416992 0.0625
vt 0.7426758 0.0625
vt 0.7573242 0.1875
vt 0.7583008 0.1875
vt 0.7416992 0.1875
vt 0.7416992 0.1875
vt 0.7915039 0.1875
vt 0.7915039 0.1875
vt 0.7758789 0.1875
vt 0.7749023 0.1875
vt 0.7915039 0
vt 0.7915039 0
vt 0.7915039 0.05938721
vt 0.7915039 0.0625
vt 0.7084961 0.1875
vt 0.7084961 0.1845703
vt 0.7084961 0.1281738
vt 0.7084961 0.125
vt 0.8769531 0
vt 0.7915039 0
vt 0.7915039 0.0625
vt 0.7915039 0.125
vt 0.8105469 0.2626953
vt 0.7822266 0.125
vt 0.7822266 0.0625
vt 0.7729492 0.125
vt 0.7729492 0.0625
vt 0.7636719 0.125
vt 0.7636719 0.0625
vt 0.7543945 0.125
vt 0.7543945 0.0625
vt 0.7456055 0.125
vt 0.7456055 0.0625
vt 0.7363281 0.125
vt 0.7363281 0.0625
vt 0.7270508 0.125
vt 0.7270508 0.0625
vt 0.7177734 0.125
vt 0.7177734 0.0625
vt 0.7084961 0.125
vt 0.7084961 0.0625
vt 0.6235352 0
vt 0.7084961 0
vt 0.6235352 0
vt 0.6821289 0.2548828
vt 0.7084961 0.1875
vt 0.7084961 0.125
vt 0.7817383 0
vt 0.7817383 0.0625
vt 0.7827148 0.0625
vt 0.7827148 0
vt 0.7749023 0
vt 0.7749023 0
vt 0.7915039 0
vt 0.7915039 0
vt 0.7915039 0.125
vt 0.7915039 0.125
vt 0.7915039 0.111084
vt 0.7915039 0.1118164
vt 0.7915039 0.1104126
vt 0.7915039 0.09790039
vt 0.7915039 0.097229
vt 0.7915039 0.09655762
vt 0.7915039 0.08398438
vt 0.7915039 0.08331299
vt 0.7915039 0.0826416
vt 0.7915039 0.07012939
vt 0.7915039 0.06945801
vt 0.7915039 0.06872559
vt 0.7915039 0.05621338
vt 0.7915039 0.05554199
vt 0.7915039 0.05487061
vt 0.7915039 0.04232788
vt 0.7915039 0.04165649
vt 0.7915039 0.04098511
vt 0.7915039 0.02844238
vt 0.7915039 0.027771
vt 0.7915039 0.02708435
vt 0.7915039 0.01454926
vt 0.7915039 0.0138855
vt 0.7915039 0.01319122
vt 0.7915039 0
vt 0.7915039 0
vt 0.7250977 0.1875
vt 0.7416992 0.1875
vt 0.7416992 0.1875
vt 0.7250977 0.1875
vt 0.7416992 0.0625
vt 0.7250977 0.0625
vt 0.7250977 0.0625
vt 0.7416992 0.0625
vt 0.7416992 0.125
vt 0.7416992 0.125
vt 0.7416992 0.125
vt 0.7416992 0.125
vt 0.7416992 0.125
vt 0.7416992 0.125
vt 0.7416992 0.125
vt 0.7416992 0.125
vt 0.7416992 0.125
vt 0.7416992 0.125
vt 0.7416992 0.125
vt 0.7416992 0.125
vt 0.7416992 0.125
vt 0.7416992 0.125
vt 0.7416992 0.125
vt 0.7416992 0.125
vt 0.7416992 0.125
vt 0.7416992 0.125
vt 0.7416992 0.125
vt 0.7416992 0.125
vt 0.7416992 0.125
vt 0.7416992 0.125
vt 0.7416992 0.125
vt 0.7416992 0.125
vt 0.7416992 0.125
vt 0.7416992 0.125
vt 0.7416992 0.125
vt 0.7416992 0.125
vt 0.7177734 0.1875
vt 0.7084961 0.1875
vt 0.6821289 0.2548828
vt 0.7270508 0.1875
vt 0.7363281 0.1875
vt 0.7456055 0.1875
vt 0.7543945 0.1875
vt 0.7636719 0.1875
vt 0.7729492 0.1875
vt 0.7822266 0.1875
vt 0.7915039 0.1875
vt 0.7397461 0.1656494
vt 0.7397461 0.1677246
vt 0.7397461 0.166626
vt 0.7416992 0.1875
vt 0.7416992 0.1875
vt 0.737793 0.1448975
vt 0.7382813 0.1468506
vt 0.737793 0.145874
vt 0.7397461 0.166626
vt 0.7397461 0.1656494
vt 0.7358398 0.1240234
vt 0.7363281 0.1260986
vt 0.7363281 0.125
vt 0.737793 0.145874
vt 0.737793 0.1448975
vt 0.734375 0.1031494
vt 0.734375 0.1052246
vt 0.734375 0.104187
vt 0.7363281 0.125
vt 0.7358398 0.1240234
vt 0.7324219 0.08233643
vt 0.7324219 0.08435059
vt 0.7324219 0.08331299
vt 0.734375 0.104187
vt 0.734375 0.1031494
vt 0.7861328 0.1464844
vt 0.7861328 0.1451416
vt 0.7861328 0.145874
vt 0.7880859 0.1590576
vt 0.7880859 0.159668
vt 0.7880859 0.1604004
vt 0.7285156 0.04067993
vt 0.7290039 0.04269409
vt 0.7285156 0.04165649
vt 0.7304688 0.0625
vt 0.7304688 0.06152344
vt 0.7304688 0.0635376
vt 0.7324219 0.08331299
vt 0.7324219 0.08233643
vt 0.7915039 0.125
vt 0.7915039 0.125
vt 0.7915039 0.1875
vt 0.7915039 0.1875
vt 0.7827148 0.125
vt 0.7817383 0.125
vt 0.7817383 0.1875
vt 0.7827148 0.1875
vt 0.7724609 0
vt 0.7724609 0.0625
vt 0.7734375 0.0625
vt 0.7734375 0
vt 0.7724609 0.125
vt 0.7724609 0.1875
vt 0.7734375 0.1875
vt 0.7734375 0.125
vt 0.7641602 0.125
vt 0.7631836 0.125
vt 0.7631836 0.1875
vt 0.7641602 0.1875
vt 0.7631836 0
vt 0.7631836 0.0625
vt 0.7641602 0.0625
vt 0.7641602 0
vt 0.7548828 0.125
vt 0.7543945 0.125
vt 0.7543945 0.1875
vt 0.7548828 0.1875
vt 0.7543945 0
vt 0.7543945 0.0625
vt 0.7548828 0.0625
vt 0.7548828 0
vt 0.7456055 0.125
vt 0.7451172 0.125
vt 0.7451172 0.1875
vt 0.7456055 0.1875
vt 0.7451172 0
vt 0.7451172 0.0625
vt 0.7456055 0.0625
vt 0.7456055 0
vt 0.7363281 0.125
vt 0.7358398 0.125
vt 0.7358398 0.1875
vt 0.7363281 0.1875
vt 0.7358398 0
vt 0.7358398 0.0625
vt 0.7363281 0.0625
vt 0.7363281 0
vt 0.7270508 0.125
vt 0.7265625 0.125
vt 0.7265625 0.1875
vt 0.7270508 0.1875
vt 0.7265625 0
vt 0.7265625 0.0625
vt 0.7270508 0.0625
vt 0.7270508 0
vt 0.7182617 0.125
vt 0.7172852 0.125
vt 0.7172852 0.1875
vt 0.7182617 0.1875
vt 0.7172852 0
vt 0.7172852 0.0625
vt 0.7182617 0.0625
vt 0.7182617 0
vt 0.7768555 0.07568359
vt 0.7749023 0.0625
vt 0.7749023 0.0625
vt 0.7768555 0.07641602
vt 0.7768555 0.07702637
vt 0.7788086 0.08959961
vt 0.7788086 0.090271
vt 0.7802734 0.1034546
vt 0.7788086 0.09094238
vt 0.7807617 0.104187
vt 0.7807617 0.1047974
vt 0.7822266 0.1173706
vt 0.7822266 0.118042
vt 0.7841797 0.1312256
vt 0.7827148 0.1187134
vt 0.7841797 0.131958
vt 0.7841797 0.1325684
vt 0.7861328 0.1451416
vt 0.7861328 0.145874
vt 0.7915039 0.1875
vt 0.7915039 0.1875
vt 0.7900391 0.1743164
vt 0.7900391 0.173584
vt 0.7895508 0.1729736
vt 0.7880859 0.159668
vt 0.7880859 0.1604004
vt 0.7270508 0.02082825
vt 0.7250977 0
vt 0.7250977 0
vt 0.7265625 0.01979065
vt 0.7270508 0.0218811
vt 0.7285156 0.04165649
vt 0.7285156 0.04067993
vt 0.8769531 0
vt 0.7915039 0
vt 0.7915039 0.0625
vt 0.7915039 0.125
vt 0.7915039 0.1875
vt 0.7749023 0.125
vt 0.7749023 0.0625
vt 0.7583008 0.125
vt 0.7583008 0.0625
vt 0.7416992 0.125
vt 0.7416992 0.0625
vt 0.7250977 0.125
vt 0.7250977 0.0625
vt 0.8022461 0.2624512
vt 0.7749023 0.1875
vt 0.7583008 0.1875
vt 0.7084961 0.125
vt 0.6523438 0.2546387
vt 0.7416992 0.1875
vt 0.7250977 0.1875
vt 0.7084961 0.1875
vt 0.7084961 0.0625
vt 0.6235352 0
vt 0.7084961 0
vt 0.7084961 0.1875
vt 0.6523438 0.2546387
vt 0.7758789 0.125
vt 0.7739258 0.125
vt 0.7739258 0.1875
vt 0.7758789 0.1875
vt 0.7739258 0
vt 0.7739258 0.0625
vt 0.7758789 0.0625
vt 0.7758789 0
vt 0.7255859 0.125
vt 0.7241211 0.125
vt 0.7241211 0.1875
vt 0.7255859 0.1875
vt 0.7426758 0.125
vt 0.7407227 0.125
vt 0.7407227 0.1875
vt 0.7426758 0.1875
vt 0.7592773 0.125
vt 0.7573242 0.125
vt 0.7573242 0.1875
vt 0.7592773 0.1875
vt 0.7915039 0.125
vt 0.7915039 0.125
vt 0.7915039 0.1875
vt 0.7915039 0.1875
vt 0.7758789 0.1875
vt 0.7241211 0.0625
vt 0.7250977 0.0625
vt 0.7089844 0.0625
vt 0.7084961 0.0625
vt 0.7749023 0
vt 0.7749023 0
vt 0.7915039 0
vt 0.7915039 0
vt 0.7241211 0.1875
vt 0.7250977 0.1875
vt 0.7084961 0.1281738
vt 0.7089844 0.1875
vt 0.7084961 0.1875
vt 0.7241211 0.125
vt 0.7910156 0.0625
vt 0.7915039 0.0625
vt 0.7749023 0.0625
vt 0.7749023 0.0625
vt 0.7089844 0
vt 0.7084961 0
vt 0.7089844 0.1875
vt 0.7241211 0
vt 0.7250977 0
vt 0.7084961 0.002967834
vt 0.7089844 0.125
vt 0.7084961 0.125
vt 0.7241211 0.125
vt 0.7250977 0.125
vt 0.7758789 0.125
vt 0.7749023 0.125
vt 0.7241211 0
vt 0.7915039 0.125
vt 0.7915039 0.125
vt 0.7089844 0.0625
vt 0.7084961 0.05938721
vt 0.7084961 0.0625
vt 0.7084961 0.002967834
vt 0.7084961 0
vt 0.7250977 0.125
vt 0.7260742 0.125
vt 0.7416992 0.125
vt 0.7416992 0.125
vt 0.7250977 0.1875
vt 0.7416992 0.1875
vt 0.7416992 0.1875
vt 0.7250977 0.1875
vt 0.7407227 0
vt 0.7739258 0.0625
vt 0.7749023 0.0625
vt 0.7592773 0.0625
vt 0.7583008 0.0625
vt 0.7416992 0.0625
vt 0.7250977 0.0625
vt 0.7250977 0.0625
vt 0.7416992 0.0625
vt 0.7416992 0.125
vt 0.7416992 0.125
vt 0.7573242 0.125
vt 0.7583008 0.125
vt 0.7416992 0
vt 0.7426758 0
vt 0.7573242 0
vt 0.7583008 0
vt 0.7583008 0
vt 0.7592773 0
vt 0.7739258 0
vt 0.7749023 0
vt 0.7573242 0
vt 0.7573242 0.0625
vt 0.7592773 0.0625
vt 0.7592773 0
vt 0.7407227 0
vt 0.7407227 0.0625
vt 0.7426758 0.0625
vt 0.7426758 0
vt 0.7241211 0
vt 0.7241211 0.0625
vt 0.7255859 0.0625
vt 0.7255859 0
vt 0.7250977 0
vt 0.7250977 0
vt 0.7407227 0
vt 0.7416992 0
vt 0.7592773 0.0625
vt 0.7739258 0.1875
vt 0.7749023 0.1875
vt 0.7592773 0.1875
vt 0.7583008 0.1875
vt 0.7592773 0.1875
vt 0.7573242 0.0625
vt 0.7583008 0.0625
vt 0.7426758 0.0625
vt 0.7416992 0.0625
vt 0.7426758 0.0625
vt 0.7573242 0.1875
vt 0.7583008 0.1875
vt 0.7416992 0.1875
vt 0.7416992 0.1875
vt 0.7915039 0.1875
vt 0.7915039 0.1875
vt 0.7758789 0.1875
vt 0.7749023 0.1875
vt 0.7915039 0
vt 0.7915039 0
vt 0.7915039 0.05938721
vt 0.7915039 0.0625
vt 0.7084961 0.1875
vt 0.7084961 0.1845703
vt 0.7084961 0.1281738
vt 0.7084961 0.125
vt 0.8769531 0
vt 0.7915039 0
vt 0.7915039 0.0625
vt 0.7915039 0.125
vt 0.8105469 0.2624512
vt 0.7822266 0.125
vt 0.7822266 0.0625
vt 0.7729492 0.125
vt 0.7729492 0.0625
vt 0.7636719 0.125
vt 0.7636719 0.0625
vt 0.7543945 0.125
vt 0.7543945 0.0625
vt 0.7456055 0.125
vt 0.7456055 0.0625
vt 0.7363281 0.125
vt 0.7363281 0.0625
vt 0.7270508 0.125
vt 0.7270508 0.0625
vt 0.7177734 0.125
vt 0.7177734 0.0625
vt 0.7084961 0.125
vt 0.7084961 0.0625
vt 0.6235352 0
vt 0.7084961 0
vt 0.6235352 0
vt 0.6816406 0.255127
vt 0.7084961 0.1875
vt 0.7084961 0.125
vt 0.7817383 0
vt 0.7817383 0.0625
vt 0.7827148 0.0625
vt 0.7827148 0
vt 0.7749023 0
vt 0.7749023 0
vt 0.7915039 0
vt 0.7915039 0
vt 0.7915039 0.125
vt 0.7915039 0.125
vt 0.7915039 0.111084
vt 0.7915039 0.1118164
vt 0.7915039 0.1104126
vt 0.7915039 0.09790039
vt 0.7915039 0.097229
vt 0.7915039 0.09655762
vt 0.7915039 0.08398438
vt 0.7915039 0.08331299
vt 0.7915039 0.0826416
vt 0.7915039 0.07012939
vt 0.7915039 0.06945801
vt 0.7915039 0.06872559
vt 0.7915039 0.05621338
vt 0.7915039 0.05554199
vt 0.7915039 0.05487061
vt 0.7915039 0.04232788
vt 0.7915039 0.04165649
vt 0.7915039 0.04098511
vt 0.7915039 0.02844238
vt 0.7915039 0.027771
vt 0.7915039 0.02708435
vt 0.7915039 0.01454926
vt 0.7915039 0.0138855
vt 0.7915039 0.01319122
vt 0.7915039 0
vt 0.7915039 0
vt 0.7250977 0.1875
vt 0.7416992 0.1875
vt 0.7416992 0.1875
vt 0.7250977 0.1875
vt 0.7416992 0.0625
vt 0.7250977 0.0625
vt 0.7250977 0.0625
vt 0.7416992 0.0625
vt 0.7416992 0.125
vt 0.7416992 0.125
vt 0.7416992 0.125
vt 0.7416992 0.125
vt 0.7416992 0.125
vt 0.7416992 0.125
vt 0.7416992 0.125
vt 0.7416992 0.125
vt 0.7416992 0.125
vt 0.7416992 0.125
vt 0.7416992 0.125
vt 0.7416992 0.125
vt 0.7416992 0.125
vt 0.7416992 0.125
vt 0.7416992 0.125
vt 0.7416992 0.125
vt 0.7416992 0.125
vt 0.7416992 0.125
vt 0.7416992 0.125
vt 0.7416992 0.125
vt 0.7416992 0.125
vt 0.7416992 0.125
vt 0.7416992 0.125
vt 0.7416992 0.125
vt 0.7416992 0.125
vt 0.7416992 0.125
vt 0.7416992 0.125
vt 0.7416992 0.125
vt 0.7177734 0.1875
vt 0.7084961 0.1875
vt 0.6816406 0.255127
vt 0.7270508 0.1875
vt 0.7363281 0.1875
vt 0.7456055 0.1875
vt 0.7543945 0.1875
vt 0.7636719 0.1875
vt 0.7729492 0.1875
vt 0.7822266 0.1875
vt 0.7915039 0.1875
vt 0.7397461 0.1656494
vt 0.7397461 0.1677246
vt 0.7397461 0.166626
vt 0.7416992 0.1875
vt 0.7416992 0.1875
vt 0.737793 0.1448975
vt 0.7382813 0.1468506
vt 0.737793 0.145874
vt 0.7397461 0.166626
vt 0.7397461 0.1656494
vt 0.7358398 0.1240234
vt 0.7363281 0.1260986
vt 0.7363281 0.125
vt 0.737793 0.145874
vt 0.737793 0.1448975
vt 0.734375 0.1031494
vt 0.734375 0.1052246
vt 0.734375 0.104187
vt 0.7363281 0.125
vt 0.7358398 0.1240234
vt 0.7324219 0.08233643
vt 0.7324219 0.08435059
vt 0.7324219 0.08331299
vt 0.734375 0.104187
vt 0.734375 0.1031494
vt 0.7861328 0.1464844
vt 0.7861328 0.1451416
vt 0.7861328 0.145874
vt 0.7880859 0.1590576
vt 0.7880859 0.159668
vt 0.7880859 0.1604004
vt 0.7285156 0.04067993
vt 0.7290039 0.04269409
vt 0.7285156 0.04165649
vt 0.7304688 0.0625
vt 0.7304688 0.06152344
vt 0.7304688 0.0635376
vt 0.7324219 0.08331299
vt 0.7324219 0.08233643
vt 0.7915039 0.125
vt 0.7915039 0.125
vt 0.7915039 0.1875
vt 0.7915039 0.1875
vt 0.7827148 0.125
vt 0.7817383 0.125
vt 0.7817383 0.1875
vt 0.7827148 0.1875
vt 0.7724609 0
vt 0.7724609 0.0625
vt 0.7734375 0.0625
vt 0.7734375 0
vt 0.7724609 0.125
vt 0.7724609 0.1875
vt 0.7734375 0.1875
vt 0.7734375 0.125
vt 0.7641602 0.125
vt 0.7631836 0.125
vt 0.7631836 0.1875
vt 0.7641602 0.1875
vt 0.7631836 0
vt 0.7631836 0.0625
vt 0.7641602 0.0625
vt 0.7641602 0
vt 0.7548828 0.125
vt 0.7543945 0.125
vt 0.7543945 0.1875
vt 0.7548828 0.1875
vt 0.7543945 0
vt 0.7543945 0.0625
vt 0.7548828 0.0625
vt 0.7548828 0
vt 0.7456055 0.125
vt 0.7451172 0.125
vt 0.7451172 0.1875
vt 0.7456055 0.1875
vt 0.7451172 0
vt 0.7451172 0.0625
vt 0.7456055 0.0625
vt 0.7456055 0
vt 0.7363281 0.125
vt 0.7358398 0.125
vt 0.7358398 0.1875
vt 0.7363281 0.1875
vt 0.7358398 0
vt 0.7358398 0.0625
vt 0.7363281 0.0625
vt 0.7363281 0
vt 0.7270508 0.125
vt 0.7265625 0.125
vt 0.7265625 0.1875
vt 0.7270508 0.1875
vt 0.7265625 0
vt 0.7265625 0.0625
vt 0.7270508 0.0625
vt 0.7270508 0
vt 0.7182617 0.125
vt 0.7172852 0.125
vt 0.7172852 0.1875
vt 0.7182617 0.1875
vt 0.7172852 0
vt 0.7172852 0.0625
vt 0.7182617 0.0625
vt 0.7182617 0
vt 0.7768555 0.07568359
vt 0.7749023 0.0625
vt 0.7749023 0.0625
vt 0.7768555 0.07641602
vt 0.7768555 0.07702637
vt 0.7788086 0.08959961
vt 0.7788086 0.090271
vt 0.7802734 0.1034546
vt 0.7788086 0.09094238
vt 0.7807617 0.104187
vt 0.7807617 0.1047974
vt 0.7822266 0.1173706
vt 0.7822266 0.118042
vt 0.7841797 0.1312256
vt 0.7827148 0.1187134
vt 0.7841797 0.131958
vt 0.7841797 0.1325684
vt 0.7861328 0.1451416
vt 0.7861328 0.145874
vt 0.7915039 0.1875
vt 0.7915039 0.1875
vt 0.7900391 0.1743164
vt 0.7900391 0.173584
vt 0.7895508 0.1729736
vt 0.7880859 0.159668
vt 0.7880859 0.1604004
vt 0.7270508 0.02082825
vt 0.7250977 0
vt 0.7250977 0
vt 0.7265625 0.01979065
vt 0.7270508 0.0218811
vt 0.7285156 0.04165649
vt 0.7285156 0.04067993
vt 0.6762695 0.25
vt 0.6474609 0.25
vt 0.6762695 0.25
vt 0.6474609 0.25
vt 0.6821289 0.2548828
vt 0.6762695 0.25
vt 0.6474609 0.25
vt 0.6523438 0.2546387
vt 0.6523438 0.2546387
vt 0.6474609 0.25
vt 0.6762695 0.25
vt 0.6816406 0.255127
vt 0.6816406 0.255127
vt 0.6762695 0.25
vt 0.6474609 0.25
vt 0.6523438 0.2546387
vt 0.6523438 0.2546387
vt 0.6474609 0.25
vt 0.6762695 0.25
vt 0.6821289 0.2548828
vt 0.6474609 0.25
vt 0.6474609 0.25
vt 0.6762695 0.25
vt 0.6762695 0.25
vt 0.6762695 0.25
vt 0.6762695 0.25
vt 0.6474609 0.25
vt 0.6474609 0.25
vt 0.6474609 0.25
vt 0.6474609 0.25
vt 0.6762695 0.25
vt 0.6762695 0.25
vt 0.6762695 0.25
vt 0.6762695 0.25
vt 0.6474609 0.25
vt 0.6474609 0.25
vt 0.7084961 0.1875
vt 0.7084961 0.125
vt 0.7084961 0
vt 0.7084961 0.0625
vt 0.7915039 0.1875
vt 0.7915039 0.125
vt 0.7915039 0.0625
vt 0.7915039 0
vt 0.7915039 0.1875
vt 0.7915039 0.125
vt 0.7084961 0.1875
vt 0.7084961 0.125
vt 0.7084961 0
vt 0.7084961 0.0625
vt 0.7915039 0
vt 0.7915039 0.0625
vt 0.7084961 0.1875
vt 0.7084961 0.125
vt 0.7084961 0
vt 0.7084961 0.0625
vt 0.7915039 0.1875
vt 0.7915039 0.125
vt 0.7915039 0.0625
vt 0.7915039 0
vt 0.7915039 0.1875
vt 0.7915039 0.125
vt 0.7084961 0.1875
vt 0.7084961 0.125
vt 0.7084961 0
vt 0.7084961 0.0625
vt 0.7915039 0
vt 0.7915039 0.0625
vn 0 1 0
vn 0 1 0
vn 0 1 0
vn -1.192093E-07 1 0
vn -1.192093E-07 1 0
vn -1.192093E-07 1 0
vn -1.192093E-07 1 0
vn -1.192093E-07 1 0
vn -1.192093E-07 1 0
vn -1.192093E-07 1 0
vn -1.192093E-07 1 0
vn -1.192093E-07 1 0
vn -1.192093E-07 1 0
vn -1.192093E-07 1 0
vn -1.192093E-07 1 0
vn -1.192093E-07 1 0
vn -1.192093E-07 1 0
vn -1.192093E-07 1 0
vn 0 -1 -1.811981E-05
vn 0 -1 -1.811981E-05
vn 0 -1 -1.811981E-05
vn 0 -1 0
vn 0 -1 0
vn 0 -1 0
vn 0 1 0
vn 0 1 0
vn 0 1 0
vn 1.192093E-07 1 0
vn 1.192093E-07 1 0
vn 1.192093E-07 1 0
vn 1.192093E-07 1 0
vn 1.192093E-07 1 0
vn 1.192093E-07 1 0
vn 1.192093E-07 1 0
vn 1.192093E-07 1 0
vn 1.192093E-07 1 0
vn 1.192093E-07 1 0
vn 1.192093E-07 1 0
vn 1.192093E-07 1 0
vn 1.192093E-07 1 0
vn 1.192093E-07 1 0
vn 1.192093E-07 1 0
vn 0 -1 1.811981E-05
vn 0 -1 1.811981E-05
vn 0 -1 1.811981E-05
vn 0 -1 0
vn 0 -1 0
vn 0 -1 0
vn 1 0 0
vn 1 0 0
vn 1 0 0
vn 1 0 0
vn 1 1.788139E-07 -4.172325E-07
vn 1 0 0
vn 1 0 0
vn 1 0 0
vn 1 0 0
vn 1 0 0
vn 1 0 0
vn 1 0 0
vn 1 0 0
vn 1 1.788139E-07 -4.172325E-07
vn 1 5.364418E-07 0
vn 1 0 0
vn 1 0 0
vn 1 0 0
vn 1 -1.013279E-06 0
vn 1 0 0
vn 1 0 0
vn 1 0 0
vn 1 0 0
vn 1 0 0
vn 1 0 0
vn 1 0 0
vn 1 0 0
vn 1 0 0
vn 1 0 0
vn 1 0 0
vn 1 0 0
vn 1 0 0
vn 1 0 0
vn 1 0 0
vn 1 0 0
vn 1 0 0
vn 1 0 0
vn 1 0 0
vn 1 0 0
vn 1 0 0
vn 1 0 0
vn 1 0 0
vn 1 0 0
vn 1 0 0
vn 1 0 0
vn 1 0 0
vn 0 0 1
vn 0 0 1
vn 0 0 1
vn 0 0 1
vn 0 -1 0
vn 0 -1 0
vn 0 -1 0
vn 0 -1 0
vn 0 -1 0
vn 0 0 -1
vn 0 0 -1
vn 0 0 -1
vn 0 0 -1
vn 0 1 0
vn 0 1 0
vn 0 1 0
vn 0 1 0
vn 0 1 0
vn 0 -1 0
vn 0 -1 0
vn 0 -1 0
vn 0 -1 0
vn 0 -1 0
vn 0 1 0
vn 0 1 0
vn 0 1 0
vn 0 1 0
vn 0 1 0
vn 0 -1 0
vn 0 -1 0
vn 0 -1 0
vn 0 -1 0
vn 0 -1 0
vn 0 1 0
vn 0 1 0
vn 0 1 0
vn 0 1 0
vn 0 1 0
vn 0 -1 0
vn 0 -1 0
vn 0 -1 0
vn 0 -1 0
vn 0 -1 0
vn -1.192093E-07 1 0
vn -1.192093E-07 1 0
vn -1.192093E-07 1 0
vn -1.192093E-07 1 0
vn 0 0 1
vn 0 0 1
vn 0 0 1
vn 0 0 1
vn 0 -1 0
vn 0 -1 0
vn 0 -1 0
vn 0 -1 0
vn 0 -1 0
vn 0 0 -1
vn 0 0 -1
vn 0 0 -1
vn 0 0 -1
vn -1.192093E-07 1 0
vn -1.192093E-07 1 0
vn -1.192093E-07 1 0
vn -1.192093E-07 1 0
vn -1.192093E-07 1 0
vn -1.192093E-07 1 0
vn -1.192093E-07 1 0
vn -1.192093E-07 1 0
vn -1.192093E-07 1 0
vn -1.192093E-07 1 0
vn -1.192093E-07 1 0
vn -1.192093E-07 1 0
vn 1 -2.384186E-07 0
vn 1 -2.384186E-07 0
vn 1 -3.576279E-07 0
vn 1 -3.576279E-07 0
vn 1 -2.384186E-07 0
vn 1 -2.384186E-07 0
vn 1 -2.384186E-07 0
vn 1 -2.384186E-07 0
vn 1 0 0
vn 1 0 0
vn 1 -2.384186E-07 0
vn 1 -2.384186E-07 0
vn 0 -1 0
vn 0 -1 0
vn 0 -1 0
vn 0 -1 0
vn 0 -1 0
vn 0 -1 0
vn 0 -1 0
vn 0 -1 0
vn 0 -1 0
vn 0 -1 0
vn 0 -1 0
vn 0 -1 0
vn 0 -1 0
vn 0 -1 0
vn 0 -1 0
vn 0 -1 0
vn 0 -1 0
vn 0 -1 0
vn 0 -1 0
vn 0 -1 0
vn 0 -1 0
vn 0 -1 0
vn 0 -1 0
vn 0 1 0
vn 0 1 0
vn 0 1 0
vn 0 1 0
vn 0 1 0
vn 0 1 0
vn 0 1 0
vn 0 1 0
vn 0 0 -1
vn 0 0 -1
vn 0 0 -1
vn 1.788139E-06 0 -1
vn -1.788139E-07 0 -1
vn 0 0 -1
vn 0 0 -1
vn 0 0 -1
vn 0 0 -1
vn 0 0 -1
vn 0 0 -1
vn 0 0 -1
vn 0 0 -1
vn 0 0 -1
vn 0 0 -1
vn 0 0 -1
vn 0 0 -1
vn 0 0 -1
vn 0 0 -1
vn 0 0 -1
vn 0 0 -1
vn -1.788139E-06 0 -1
vn -1.788139E-06 0 -1
vn -1.788139E-06 0 -1
vn 0 0 -1
vn 0 0 -1
vn 0 0 -1
vn 0 0 -1
vn 0 0 -1
vn 0 0 -1
vn 0 0 -1
vn 0 0 -1
vn 0 0 -1
vn -1 0 0
vn -1 0 0
vn -1 0 0
vn -1 0 0
vn 0 1 0
vn 0 1 0
vn 0 1 0
vn 0 1 0
vn 0 1 0
vn 0 1 0
vn -2.384186E-07 1 0
vn -2.384186E-07 1 0
vn -2.384186E-07 1 0
vn 0 1 -3.695488E-06
vn 0 1 -3.695488E-06
vn 0 1 -3.695488E-06
vn 0 1 -3.695488E-06
vn 0 1 -3.695488E-06
vn 0 1 -3.695488E-06
vn 2.384186E-07 1 0
vn 2.384186E-07 1 0
vn 2.384186E-07 1 0
vn 0 1 0
vn 0 1 0
vn 0 1 0
vn 0 1 0
vn 0 1 0
vn 0 1 0
vn 0 1 0
vn 0 1 0
vn 0 1 0
vn 0 1 0
vn 1 0 0
vn 1 0 0
vn 1 0 0
vn 1 0 0
vn -1 0 0
vn -1 0 0
vn -1 0 0
vn -1 0 0
vn 0 1 0
vn 0 1 0
vn 0 1 0
vn 0 1 0
vn 0 1 0
vn 0 1 0
vn 0 1 0
vn 0 1 0
vn 0 1 0
vn 0 1 0
vn 0 1 0
vn 0 1 0
vn 0 1 0
vn 0 1 0
vn 0 1 0
vn 0 1 0
vn 0 1 0
vn 0 1 0
vn 0 1 0
vn 0 1 0
vn 0 1 0
vn 0 1 0
vn 0 1 0
vn 0 1 0
vn 0 1 0
vn 0 1 0
vn 0 1 0
vn 0 1 0
vn 0 0 -1
vn 0 0 -1
vn 0 0 -1
vn 0 0 -1
vn 0 0 -1
vn 0 0 -1
vn 0 0 -1
vn 0 0 -1
vn 0 0 -1
vn 0 0 -1
vn -1.788139E-07 0 -1
vn 0 -1 0
vn 0 -1 0
vn 0 -1 0
vn 0 -1 0
vn 0 -1 0
vn 0 -1 0
vn 0 -1 0
vn 0 -1 0
vn 0 -1 0
vn 0 -1 0
vn 0 -1 0
vn 0 -1 0
vn 0 -1 0
vn 0 -1 -1.847744E-06
vn 0 -1 -1.847744E-06
vn 0 -1 4.529953E-06
vn 0 -1 4.529953E-06
vn 0 -1 4.529953E-06
vn 0 -1 0
vn 0 -1 0
vn 0 -1 4.529953E-06
vn 0 -1 4.529953E-06
vn 0 -1 4.529953E-06
vn 0 -1 1.847744E-06
vn 0 -1 1.847744E-06
vn 0 -1 0
vn 0 -1 0
vn 0 -1 0
vn 0 -1 1.811981E-05
vn 0 -1 1.811981E-05
vn 0 -1 1.811981E-05
vn 0 -1 0
vn 0 -1 0
vn 0 -1 0
vn 0 -1 0
vn 0 -1 0
vn 0 -1 0
vn 0 -1 0
vn 0 -1 0
vn 1 0 0
vn 1 0 0
vn 1 0 0
vn 1 0 0
vn 0 0 -1
vn 0 0 -1
vn 0 0 -1
vn 0 0 -1
vn 0 0 -1
vn 0 0 -1
vn 0 0 -1
vn 0 0 -1
vn -2.980232E-07 0 -1
vn -2.980232E-07 0 -1
vn 0 0 -1
vn 0 0 -1
vn -2.980232E-07 0 -1
vn 0 0 -1
vn 0 0 -1
vn -2.980232E-07 0 -1
vn 0 0 -1
vn 0 0 -1
vn 0 0 -1
vn 0 0 -1
vn 0 0 -1
vn 0 0 -1
vn 0 0 -1
vn 0 0 -1
vn 0 0 -1
vn 0 0 -1
vn 0 0 -1
vn 0 0 -1
vn 0 0 -1
vn 2.980232E-07 0 -1
vn 2.980232E-07 0 -1
vn 0 0 -1
vn 0 0 -1
vn 0 0 -1
vn 0 0 -1
vn 0 0 -1
vn 2.980232E-07 0 -1
vn 0 0 -1
vn 0 0 -1
vn 2.980232E-07 0 -1
vn 0 0 -1
vn 0 0 -1
vn 0 0 -1
vn 0 0 -1
vn 0 0 -1
vn 0 0 -1
vn 0 0 -1
vn 0 0 -1
vn 0 0 -1
vn 0 0 -1
vn 0 0 -1
vn 0 0 -1
vn 0 0 -1
vn 0 0 -1
vn 0 0 -1
vn 0 0 -1
vn 0 0 -1
vn 0 0 -1
vn 0 0 -1
vn 0 0 -1
vn 0 -1 1.811981E-05
vn 0 -1 0
vn 0 -1 0
vn 0 -1 1.811981E-05
vn 0 -1 1.811981E-05
vn 0 -1 -7.450581E-06
vn 0 -1 -7.450581E-06
vn 0 -1 0
vn 0 -1 0
vn 0 -1 0
vn 0 -1 0
vn 0 -1 7.450581E-06
vn 0 -1 7.450581E-06
vn 0 -1 0
vn 0 -1 7.450581E-06
vn 0 -1 0
vn 0 -1 0
vn 0 -1 7.450581E-06
vn 0 -1 7.450581E-06
vn 0 -1 0
vn 0 -1 0
vn 0 -1 0
vn 0 -1 0
vn 0 -1 0
vn 0 -1 0
vn 0 -1 0
vn 0 -1 0
vn 0 -1 0
vn 0 -1 0
vn 0 -1 0
vn 0 -1 0
vn 0 -1 -1.847744E-06
vn 0 -1 -1.847744E-06
vn -1 0 0
vn -1 0 0
vn -1 0 0
vn -1 0 0
vn -1 1.788139E-07 4.172325E-07
vn -1 0 0
vn -1 0 0
vn -1 0 0
vn -1 0 0
vn -1 0 0
vn -1 0 0
vn -1 0 0
vn -1 0 0
vn -1 1.788139E-07 4.172325E-07
vn -1 5.364418E-07 0
vn -1 0 0
vn -1 0 0
vn -1 0 0
vn -1 -1.013279E-06 0
vn -1 0 0
vn -1 0 0
vn -1 0 0
vn -1 0 0
vn -1 0 0
vn -1 0 0
vn -1 0 0
vn -1 0 0
vn -1 0 0
vn -1 0 0
vn -1 0 0
vn -1 0 0
vn -1 0 0
vn -1 0 0
vn -1 0 0
vn -1 0 0
vn -1 0 0
vn -1 0 0
vn -1 0 0
vn -1 0 0
vn -1 0 0
vn -1 0 0
vn -1 0 0
vn -1 0 0
vn -1 0 0
vn -1 0 0
vn -1 0 0
vn 0 0 -1
vn 0 0 -1
vn 0 0 -1
vn 0 0 -1
vn 0 -1 0
vn 0 -1 0
vn 0 -1 0
vn 0 -1 0
vn 0 -1 0
vn 0 0 1
vn 0 0 1
vn 0 0 1
vn 0 0 1
vn 0 1 0
vn 0 1 0
vn 0 1 0
vn 0 1 0
vn 0 1 0
vn 0 -1 0
vn 0 -1 0
vn 0 -1 0
vn 0 -1 0
vn 0 -1 0
vn 0 1 0
vn 0 1 0
vn 0 1 0
vn 0 1 0
vn 0 1 0
vn 0 -1 0
vn 0 -1 0
vn 0 -1 0
vn 0 -1 0
vn 0 -1 0
vn 0 1 0
vn 0 1 0
vn 0 1 0
vn 0 1 0
vn 0 1 0
vn 0 -1 0
vn 0 -1 0
vn 0 -1 0
vn 0 -1 0
vn 0 -1 0
vn 1.192093E-07 1 0
vn 1.192093E-07 1 0
vn 1.192093E-07 1 0
vn 1.192093E-07 1 0
vn 0 0 -1
vn 0 0 -1
vn 0 0 -1
vn 0 0 -1
vn 0 -1 0
vn 0 -1 0
vn 0 -1 0
vn 0 -1 0
vn 0 -1 0
vn 0 0 1
vn 0 0 1
vn 0 0 1
vn 0 0 1
vn 1.192093E-07 1 0
vn 1.192093E-07 1 0
vn 1.192093E-07 1 0
vn 1.192093E-07 1 0
vn 1.192093E-07 1 0
vn 1.192093E-07 1 0
vn 1.192093E-07 1 0
vn 1.192093E-07 1 0
vn 1.192093E-07 1 0
vn 1.192093E-07 1 0
vn 1.192093E-07 1 0
vn 1.192093E-07 1 0
vn -1 -2.384186E-07 0
vn -1 -2.384186E-07 0
vn -1 -3.576279E-07 0
vn -1 -3.576279E-07 0
vn -1 -2.384186E-07 0
vn -1 -2.384186E-07 0
vn -1 -2.384186E-07 0
vn -1 -2.384186E-07 0
vn -1 0 0
vn -1 0 0
vn -1 -2.384186E-07 0
vn -1 -2.384186E-07 0
vn 0 -1 0
vn 0 -1 0
vn 0 -1 0
vn 0 -1 0
vn 0 -1 0
vn 0 -1 0
vn 0 -1 0
vn 0 -1 0
vn 0 -1 0
vn 0 -1 0
vn 0 -1 0
vn 0 -1 0
vn 0 -1 0
vn 0 -1 0
vn 0 -1 0
vn 0 -1 0
vn 0 -1 0
vn 0 -1 0
vn 0 -1 0
vn 0 -1 0
vn 0 -1 0
vn 0 -1 0
vn 0 -1 0
vn 0 1 0
vn 0 1 0
vn 0 1 0
vn 0 1 0
vn 0 1 0
vn 0 1 0
vn 0 1 0
vn 0 1 0
vn 0 0 1
vn 0 0 1
vn 0 0 1
vn -1.788139E-06 0 1
vn 1.788139E-07 0 1
vn 0 0 1
vn 0 0 1
vn 0 0 1
vn 0 0 1
vn 0 0 1
vn 0 0 1
vn 0 0 1
vn 0 0 1
vn 0 0 1
vn 0 0 1
vn 0 0 1
vn 0 0 1
vn 0 0 1
vn 0 0 1
vn 0 0 1
vn 0 0 1
vn 1.788139E-06 0 1
vn 1.788139E-06 0 1
vn 1.788139E-06 0 1
vn 0 0 1
vn 0 0 1
vn 0 0 1
vn 0 0 1
vn 0 0 1
vn 0 0 1
vn 0 0 1
vn 0 0 1
vn 0 0 1
vn 1 0 0
vn 1 0 0
vn 1 0 0
vn 1 0 0
vn 0 1 0
vn 0 1 0
vn 0 1 0
vn 0 1 0
vn 0 1 0
vn 0 1 0
vn 2.384186E-07 1 0
vn 2.384186E-07 1 0
vn 2.384186E-07 1 0
vn 0 1 3.695488E-06
vn 0 1 3.695488E-06
vn 0 1 3.695488E-06
vn 0 1 3.695488E-06
vn 0 1 3.695488E-06
vn 0 1 3.695488E-06
vn -2.384186E-07 1 0
vn -2.384186E-07 1 0
vn -2.384186E-07 1 0
vn 0 1 0
vn 0 1 0
vn 0 1 0
vn 0 1 0
vn 0 1 0
vn 0 1 0
vn 0 1 0
vn 0 1 0
vn 0 1 0
vn 0 1 0
vn -1 0 0
vn -1 0 0
vn -1 0 0
vn -1 0 0
vn 1 0 0
vn 1 0 0
vn 1 0 0
vn 1 0 0
vn 0 1 0
vn 0 1 0
vn 0 1 0
vn 0 1 0
vn 0 1 0
vn 0 1 0
vn 0 1 0
vn 0 1 0
vn 0 1 0
vn 0 1 0
vn 0 1 0
vn 0 1 0
vn 0 1 0
vn 0 1 0
vn 0 1 0
vn 0 1 0
vn 0 1 0
vn 0 1 0
vn 0 1 0
vn 0 1 0
vn 0 1 0
vn 0 1 0
vn 0 1 0
vn 0 1 0
vn 0 1 0
vn 0 1 0
vn 0 1 0
vn 0 1 0
vn 0 0 1
vn 0 0 1
vn 0 0 1
vn 0 0 1
vn 0 0 1
vn 0 0 1
vn 0 0 1
vn 0 0 1
vn 0 0 1
vn 0 0 1
vn 1.788139E-07 0 1
vn 0 -1 0
vn 0 -1 0
vn 0 -1 0
vn 0 -1 0
vn 0 -1 0
vn 0 -1 0
vn 0 -1 0
vn 0 -1 0
vn 0 -1 0
vn 0 -1 0
vn 0 -1 0
vn 0 -1 0
vn 0 -1 0
vn 0 -1 1.847744E-06
vn 0 -1 1.847744E-06
vn 0 -1 -4.529953E-06
vn 0 -1 -4.529953E-06
vn 0 -1 -4.529953E-06
vn 0 -1 0
vn 0 -1 0
vn 0 -1 -4.529953E-06
vn 0 -1 -4.529953E-06
vn 0 -1 -4.529953E-06
vn 0 -1 -1.847744E-06
vn 0 -1 -1.847744E-06
vn 0 -1 0
vn 0 -1 0
vn 0 -1 0
vn 0 -1 -1.811981E-05
vn 0 -1 -1.811981E-05
vn 0 -1 -1.811981E-05
vn 0 -1 0
vn 0 -1 0
vn 0 -1 0
vn 0 -1 0
vn 0 -1 0
vn 0 -1 0
vn 0 -1 0
vn 0 -1 0
vn -1 0 0
vn -1 0 0
vn -1 0 0
vn -1 0 0
vn 0 0 1
vn 0 0 1
vn 0 0 1
vn 0 0 1
vn 0 0 1
vn 0 0 1
vn 0 0 1
vn 0 0 1
vn 2.980232E-07 0 1
vn 2.980232E-07 0 1
vn 0 0 1
vn 0 0 1
vn 2.980232E-07 0 1
vn 0 0 1
vn 0 0 1
vn 2.980232E-07 0 1
vn 0 0 1
vn 0 0 1
vn 0 0 1
vn 0 0 1
vn 0 0 1
vn 0 0 1
vn 0 0 1
vn 0 0 1
vn 0 0 1
vn 0 0 1
vn 0 0 1
vn 0 0 1
vn 0 0 1
vn -2.980232E-07 0 1
vn -2.980232E-07 0 1
vn 0 0 1
vn 0 0 1
vn 0 0 1
vn 0 0 1
vn 0 0 1
vn -2.980232E-07 0 1
vn 0 0 1
vn 0 0 1
vn -2.980232E-07 0 1
vn 0 0 1
vn 0 0 1
vn 0 0 1
vn 0 0 1
vn 0 0 1
vn 0 0 1
vn 0 0 1
vn 0 0 1
vn 0 0 1
vn 0 0 1
vn 0 0 1
vn 0 0 1
vn 0 0 1
vn 0 0 1
vn 0 0 1
vn 0 0 1
vn 0 0 1
vn 0 0 1
vn 0 0 1
vn 0 0 1
vn 0 -1 -1.811981E-05
vn 0 -1 0
vn 0 -1 0
vn 0 -1 -1.811981E-05
vn 0 -1 -1.811981E-05
vn 0 -1 7.450581E-06
vn 0 -1 7.450581E-06
vn 0 -1 0
vn 0 -1 0
vn 0 -1 0
vn 0 -1 0
vn 0 -1 -7.450581E-06
vn 0 -1 -7.450581E-06
vn 0 -1 0
vn 0 -1 -7.450581E-06
vn 0 -1 0
vn 0 -1 0
vn 0 -1 -7.450581E-06
vn 0 -1 -7.450581E-06
vn 0 -1 0
vn 0 -1 0
vn 0 -1 0
vn 0 -1 0
vn 0 -1 0
vn 0 -1 0
vn 0 -1 0
vn 0 -1 0
vn 0 -1 0
vn 0 -1 0
vn 0 -1 0
vn 0 -1 0
vn 0 -1 1.847744E-06
vn 0 -1 1.847744E-06
vn 0 1 0
vn 0 1 0
vn 0 1 0
vn 0 1 0
vn 0 1 0
vn 0 1 0
vn 0 1 0
vn 0 1 0
vn 0 1 0
vn 0 1 0
vn 0 1 0
vn 0 1 0
vn 0 1 0
vn 0 1 0
vn 0 1 0
vn 0 1 0
vn 0 1 0
vn 0 1 0
vn 0 1 0
vn 0 1 0
vn 0 0 1
vn 0 0 1
vn 0 0 1
vn 0 0 1
vn 1 0 0
vn 1 0 0
vn 1 0 0
vn 1 0 0
vn 0 0 -1
vn 0 0 -1
vn 0 0 -1
vn 0 0 -1
vn -1 0 0
vn -1 0 0
vn -1 0 0
vn -1 0 0
vn 1 0 0
vn 1 0 0
vn 1 0 0
vn 1 0 0
vn 1 0 0
vn 1 0 0
vn 1 0 0
vn 1 0 0
vn 0 0 -1
vn 0 0 -1
vn 0 0 -1
vn 0 0 -1
vn 0 0 -1
vn 0 0 -1
vn 0 0 -1
vn 0 0 -1
vn -1 0 0
vn -1 0 0
vn -1 0 0
vn -1 0 0
vn -1 0 0
vn -1 0 0
vn -1 0 0
vn -1 0 0
vn 0 0 1
vn 0 0 1
vn 0 0 1
vn 0 0 1
vn 0 0 1
vn 0 0 1
vn 0 0 1
vn 0 0 1
g obj_building_02_top_0
f 3/3/3 2/2/2 1/1/1
f 6/6/6 5/5/5 4/4/4
f 9/9/9 8/8/8 7/7/7
f 11/11/11 8/8/8 10/10/10
f 12/12/12 11/11/11 10/10/10
f 15/15/15 14/14/14 13/13/13
f 18/18/18 17/17/17 16/16/16
f 21/21/21 20/20/20 19/19/19
f 24/24/24 23/23/23 22/22/22
f 27/27/27 26/26/26 25/25/25
f 30/30/30 29/29/29 28/28/28
f 33/33/33 32/32/32 31/31/31
f 35/35/35 32/32/32 34/34/34
f 36/36/36 35/35/35 34/34/34
f 39/39/39 38/38/38 37/37/37
f 42/42/42 41/41/41 40/40/40
f 45/45/45 44/44/44 43/43/43
f 48/48/48 47/47/47 46/46/46
f 51/51/51 50/50/50 49/49/49
f 51/51/51 49/49/49 52/52/52
f 52/52/52 49/49/49 53/53/53
f 51/51/51 52/52/52 54/54/54
f 55/55/55 51/51/51 54/54/54
f 55/55/55 54/54/54 56/56/56
f 57/57/57 55/55/55 56/56/56
f 57/57/57 56/56/56 58/58/58
f 59/59/59 57/57/57 58/58/58
f 59/59/59 58/58/58 60/60/60
f 61/61/61 59/59/59 60/60/60
f 49/49/49 62/62/62 53/53/53
f 63/63/63 53/53/53 62/62/62
f 64/64/64 63/63/63 62/62/62
f 61/61/61 60/60/60 65/65/65
f 64/64/64 62/62/62 66/66/66
f 67/67/67 64/64/64 66/66/66
f 68/68/68 67/67/67 66/66/66
f 69/69/69 68/68/68 66/66/66
f 70/70/70 61/61/61 65/65/65
f 70/70/70 65/65/65 71/71/71
f 71/71/71 72/72/72 70/70/70
f 65/65/65 73/73/73 71/71/71
f 73/73/73 74/74/74 71/71/71
f 77/77/77 76/76/76 75/75/75
f 78/78/78 77/77/77 75/75/75
f 81/81/81 80/80/80 79/79/79
f 82/82/82 81/81/81 79/79/79
f 85/85/85 84/84/84 83/83/83
f 86/86/86 85/85/85 83/83/83
f 89/89/89 88/88/88 87/87/87
f 90/90/90 89/89/89 87/87/87
f 93/93/93 92/92/92 91/91/91
f 94/94/94 93/93/93 91/91/91
f 97/97/97 96/96/96 95/95/95
f 98/98/98 97/97/97 95/95/95
f 101/101/101 100/100/100 99/99/99
f 102/102/102 100/100/100 101/101/101
f 103/103/103 102/102/102 101/101/101
f 106/106/106 105/105/105 104/104/104
f 107/107/107 106/106/106 104/104/104
f 110/110/110 109/109/109 108/108/108
f 111/111/111 108/108/108 109/109/109
f 112/112/112 111/111/111 109/109/109
f 115/115/115 114/114/114 113/113/113
f 116/116/116 114/114/114 115/115/115
f 117/117/117 116/116/116 115/115/115
f 120/120/120 119/119/119 118/118/118
f 121/121/121 118/118/118 119/119/119
f 122/122/122 121/121/121 119/119/119
f 125/125/125 124/124/124 123/123/123
f 126/126/126 124/124/124 125/125/125
f 127/127/127 126/126/126 125/125/125
f 130/130/130 129/129/129 128/128/128
f 131/131/131 128/128/128 129/129/129
f 132/132/132 131/131/131 129/129/129
f 135/135/135 134/134/134 133/133/133
f 136/136/136 134/134/134 135/135/135
f 137/137/137 136/136/136 135/135/135
f 140/140/140 139/139/139 138/138/138
f 141/141/141 140/140/140 138/138/138
f 144/144/144 143/143/143 142/142/142
f 145/145/145 144/144/144 142/142/142
f 148/148/148 147/147/147 146/146/146
f 149/149/149 147/147/147 148/148/148
f 150/150/150 149/149/149 148/148/148
f 153/153/153 152/152/152 151/151/151
f 154/154/154 153/153/153 151/151/151
f 157/157/157 156/156/156 155/155/155
f 158/158/158 157/157/157 155/155/155
f 161/161/161 160/160/160 159/159/159
f 162/162/162 161/161/161 159/159/159
f 165/165/165 164/164/164 163/163/163
f 166/166/166 165/165/165 163/163/163
f 169/169/169 168/168/168 167/167/167
f 170/170/170 169/169/169 167/167/167
f 173/173/173 172/172/172 171/171/171
f 174/174/174 173/173/173 171/171/171
f 177/177/177 176/176/176 175/175/175
f 178/178/178 177/177/177 175/175/175
f 181/181/181 180/180/180 179/179/179
f 182/182/182 181/181/181 179/179/179
f 185/185/185 184/184/184 183/183/183
f 186/186/186 184/184/184 185/185/185
f 187/187/187 186/186/186 185/185/185
f 190/190/190 189/189/189 188/188/188
f 191/191/191 189/189/189 190/190/190
f 192/192/192 191/191/191 190/190/190
f 195/195/195 194/194/194 193/193/193
f 196/196/196 194/194/194 195/195/195
f 197/197/197 196/196/196 195/195/195
f 200/200/200 199/199/199 198/198/198
f 201/201/201 200/200/200 198/198/198
f 204/204/204 203/203/203 202/202/202
f 205/205/205 204/204/204 202/202/202
f 208/208/208 207/207/207 206/206/206
f 209/209/209 208/208/208 206/206/206
f 212/212/212 211/211/211 210/210/210
f 212/212/212 210/210/210 213/213/213
f 210/210/210 214/214/214 213/213/213
f 213/213/213 215/215/215 212/212/212
f 215/215/215 216/216/216 212/212/212
f 215/215/215 217/217/217 216/216/216
f 217/217/217 218/218/218 216/216/216
f 217/217/217 219/219/219 218/218/218
f 219/219/219 220/220/220 218/218/218
f 219/219/219 221/221/221 220/220/220
f 221/221/221 222/222/222 220/220/220
f 221/221/221 223/223/223 222/222/222
f 223/223/223 224/224/224 222/222/222
f 223/223/223 225/225/225 224/224/224
f 225/225/225 226/226/226 224/224/224
f 225/225/225 227/227/227 226/226/226
f 227/227/227 228/228/228 226/226/226
f 227/227/227 229/229/229 228/228/228
f 229/229/229 230/230/230 228/228/228
f 229/229/229 231/231/231 230/230/230
f 231/231/231 232/232/232 230/230/230
f 232/232/232 231/231/231 233/233/233
f 233/233/233 234/234/234 232/232/232
f 237/237/237 236/236/236 235/235/235
f 238/238/238 237/237/237 235/235/235
f 241/241/241 240/240/240 239/239/239
f 242/242/242 241/241/241 239/239/239
f 245/245/245 244/244/244 243/243/243
f 246/246/246 245/245/245 243/243/243
f 249/249/249 248/248/248 247/247/247
f 250/250/250 249/249/249 247/247/247
f 250/250/250 251/251/251 249/249/249
f 251/251/251 252/252/252 249/249/249
f 252/252/252 253/253/253 249/249/249
f 252/252/252 254/254/254 253/253/253
f 254/254/254 255/255/255 253/253/253
f 255/255/255 256/256/256 253/253/253
f 255/255/255 257/257/257 256/256/256
f 257/257/257 258/258/258 256/256/256
f 258/258/258 259/259/259 256/256/256
f 258/258/258 260/260/260 259/259/259
f 260/260/260 261/261/261 259/259/259
f 261/261/261 262/262/262 259/259/259
f 261/261/261 263/263/263 262/262/262
f 263/263/263 264/264/264 262/262/262
f 264/264/264 265/265/265 262/262/262
f 264/264/264 266/266/266 265/265/265
f 266/266/266 267/267/267 265/265/265
f 267/267/267 268/268/268 265/265/265
f 267/267/267 269/269/269 268/268/268
f 269/269/269 270/270/270 268/268/268
f 270/270/270 271/271/271 268/268/268
f 270/270/270 272/272/272 271/271/271
f 272/272/272 273/273/273 271/271/271
f 273/273/273 274/274/274 271/271/271
f 277/277/277 276/276/276 275/275/275
f 278/278/278 277/277/277 275/275/275
f 281/281/281 280/280/280 279/279/279
f 282/282/282 281/281/281 279/279/279
f 285/285/285 284/284/284 283/283/283
f 286/286/286 285/285/285 283/283/283
f 286/286/286 287/287/287 285/285/285
f 287/287/287 288/288/288 285/285/285
f 288/288/288 289/289/289 285/285/285
f 288/288/288 290/290/290 289/289/289
f 290/290/290 291/291/291 289/289/289
f 291/291/291 292/292/292 289/289/289
f 291/291/291 293/293/293 292/292/292
f 293/293/293 294/294/294 292/292/292
f 294/294/294 295/295/295 292/292/292
f 294/294/294 296/296/296 295/295/295
f 296/296/296 297/297/297 295/295/295
f 297/297/297 298/298/298 295/295/295
f 297/297/297 299/299/299 298/298/298
f 299/299/299 300/300/300 298/298/298
f 300/300/300 301/301/301 298/298/298
f 300/300/300 302/302/302 301/301/301
f 302/302/302 303/303/303 301/301/301
f 303/303/303 304/304/304 301/301/301
f 303/303/303 305/305/305 304/304/304
f 305/305/305 306/306/306 304/304/304
f 306/306/306 307/307/307 304/304/304
f 306/306/306 308/308/308 307/307/307
f 308/308/308 309/309/309 307/307/307
f 309/309/309 310/310/310 307/307/307
f 313/313/313 312/312/312 311/311/311
f 313/313/313 311/311/311 314/314/314
f 313/313/313 314/314/314 315/315/315
f 313/313/313 315/315/315 316/316/316
f 313/313/313 316/316/316 317/317/317
f 214/214/214 313/313/313 317/317/317
f 214/214/214 317/317/317 318/318/318
f 214/214/214 318/318/318 319/319/319
f 214/214/214 319/319/319 320/320/320
f 214/214/214 320/320/320 321/321/321
f 214/214/214 321/321/321 213/213/213
f 324/324/324 323/323/323 322/322/322
f 323/323/323 324/324/324 325/325/325
f 324/324/324 326/326/326 325/325/325
f 329/329/329 328/328/328 327/327/327
f 328/328/328 329/329/329 330/330/330
f 331/331/331 328/328/328 330/330/330
f 334/334/334 333/333/333 332/332/332
f 333/333/333 334/334/334 335/335/335
f 336/336/336 333/333/333 335/335/335
f 339/339/339 338/338/338 337/337/337
f 338/338/338 339/339/339 340/340/340
f 341/341/341 338/338/338 340/340/340
f 344/344/344 343/343/343 342/342/342
f 343/343/343 344/344/344 345/345/345
f 346/346/346 343/343/343 345/345/345
f 349/349/349 348/348/348 347/347/347
f 349/349/349 347/347/347 350/350/350
f 351/351/351 349/349/349 350/350/350
f 351/351/351 350/350/350 352/352/352
f 355/355/355 354/354/354 353/353/353
f 354/354/354 355/355/355 356/356/356
f 357/357/357 354/354/354 356/356/356
f 356/356/356 358/358/358 357/357/357
f 358/358/358 356/356/356 359/359/359
f 360/360/360 358/358/358 359/359/359
f 363/363/363 362/362/362 361/361/361
f 364/364/364 363/363/363 361/361/361
f 367/367/367 366/366/366 365/365/365
f 368/368/368 367/367/367 365/365/365
f 371/371/371 370/370/370 369/369/369
f 372/372/372 371/371/371 369/369/369
f 375/375/375 374/374/374 373/373/373
f 376/376/376 375/375/375 373/373/373
f 379/379/379 378/378/378 377/377/377
f 380/380/380 379/379/379 377/377/377
f 383/383/383 382/382/382 381/381/381
f 384/384/384 383/383/383 381/381/381
f 387/387/387 386/386/386 385/385/385
f 388/388/388 387/387/387 385/385/385
f 391/391/391 390/390/390 389/389/389
f 392/392/392 391/391/391 389/389/389
f 395/395/395 394/394/394 393/393/393
f 396/396/396 395/395/395 393/393/393
f 399/399/399 398/398/398 397/397/397
f 400/400/400 399/399/399 397/397/397
f 403/403/403 402/402/402 401/401/401
f 404/404/404 403/403/403 401/401/401
f 407/407/407 406/406/406 405/405/405
f 408/408/408 407/407/407 405/405/405
f 411/411/411 410/410/410 409/409/409
f 412/412/412 411/411/411 409/409/409
f 415/415/415 414/414/414 413/413/413
f 416/416/416 415/415/415 413/413/413
f 419/419/419 418/418/418 417/417/417
f 420/420/420 419/419/419 417/417/417
f 423/423/423 422/422/422 421/421/421
f 424/424/424 423/423/423 421/421/421
f 427/427/427 426/426/426 425/425/425
f 428/428/428 427/427/427 425/425/425
f 428/428/428 425/425/425 429/429/429
f 428/428/428 429/429/429 430/430/430
f 431/431/431 428/428/428 430/430/430
f 431/431/431 433/433/433 432/432/432
f 434/434/434 431/431/431 432/432/432
f 434/434/434 432/432/432 435/435/435
f 434/434/434 435/435/435 436/436/436
f 437/437/437 434/434/434 436/436/436
f 437/437/437 439/439/439 438/438/438
f 440/440/440 437/437/437 438/438/438
f 440/440/440 438/438/438 441/441/441
f 440/440/440 441/441/441 442/442/442
f 443/443/443 440/440/440 442/442/442
f 446/446/446 445/445/445 444/444/444
f 447/447/447 446/446/446 444/444/444
f 447/447/447 448/448/448 446/446/446
f 447/447/447 449/449/449 448/448/448
f 449/449/449 450/450/450 448/448/448
f 453/453/453 452/452/452 451/451/451
f 454/454/454 453/453/453 451/451/451
f 451/451/451 455/455/455 454/454/454
f 455/455/455 451/451/451 456/456/456
f 457/457/457 455/455/455 456/456/456
f 460/460/460 459/459/459 458/458/458
f 460/460/460 458/458/458 461/461/461
f 461/461/461 458/458/458 462/462/462
f 460/460/460 461/461/461 463/463/463
f 464/464/464 460/460/460 463/463/463
f 464/464/464 463/463/463 465/465/465
f 466/466/466 464/464/464 465/465/465
f 466/466/466 465/465/465 467/467/467
f 468/468/468 466/466/466 467/467/467
f 468/468/468 467/467/467 469/469/469
f 470/470/470 468/468/468 469/469/469
f 458/458/458 471/471/471 462/462/462
f 472/472/472 462/462/462 471/471/471
f 473/473/473 472/472/472 471/471/471
f 470/470/470 469/469/469 474/474/474
f 473/473/473 471/471/471 475/475/475
f 476/476/476 473/473/473 475/475/475
f 477/477/477 476/476/476 475/475/475
f 478/478/478 477/477/477 475/475/475
f 479/479/479 470/470/470 474/474/474
f 479/479/479 474/474/474 480/480/480
f 480/480/480 481/481/481 479/479/479
f 474/474/474 482/482/482 480/480/480
f 482/482/482 483/483/483 480/480/480
f 486/486/486 485/485/485 484/484/484
f 487/487/487 486/486/486 484/484/484
f 490/490/490 489/489/489 488/488/488
f 491/491/491 490/490/490 488/488/488
f 494/494/494 493/493/493 492/492/492
f 495/495/495 494/494/494 492/492/492
f 498/498/498 497/497/497 496/496/496
f 499/499/499 498/498/498 496/496/496
f 502/502/502 501/501/501 500/500/500
f 503/503/503 502/502/502 500/500/500
f 506/506/506 505/505/505 504/504/504
f 507/507/507 506/506/506 504/504/504
f 510/510/510 509/509/509 508/508/508
f 511/511/511 509/509/509 510/510/510
f 512/512/512 511/511/511 510/510/510
f 515/515/515 514/514/514 513/513/513
f 516/516/516 515/515/515 513/513/513
f 519/519/519 518/518/518 517/517/517
f 520/520/520 517/517/517 518/518/518
f 521/521/521 520/520/520 518/518/518
f 524/524/524 523/523/523 522/522/522
f 525/525/525 523/523/523 524/524/524
f 526/526/526 525/525/525 524/524/524
f 529/529/529 528/528/528 527/527/527
f 530/530/530 527/527/527 528/528/528
f 531/531/531 530/530/530 528/528/528
f 534/534/534 533/533/533 532/532/532
f 535/535/535 533/533/533 534/534/534
f 536/536/536 535/535/535 534/534/534
f 539/539/539 538/538/538 537/537/537
f 540/540/540 537/537/537 538/538/538
f 541/541/541 540/540/540 538/538/538
f 544/544/544 543/543/543 542/542/542
f 545/545/545 543/543/543 544/544/544
f 546/546/546 545/545/545 544/544/544
f 549/549/549 548/548/548 547/547/547
f 550/550/550 549/549/549 547/547/547
f 553/553/553 552/552/552 551/551/551
f 554/554/554 553/553/553 551/551/551
f 557/557/557 556/556/556 555/555/555
f 558/558/558 556/556/556 557/557/557
f 559/559/559 558/558/558 557/557/557
f 562/562/562 561/561/561 560/560/560
f 563/563/563 562/562/562 560/560/560
f 566/566/566 565/565/565 564/564/564
f 567/567/567 566/566/566 564/564/564
f 570/570/570 569/569/569 568/568/568
f 571/571/571 570/570/570 568/568/568
f 574/574/574 573/573/573 572/572/572
f 575/575/575 574/574/574 572/572/572
f 578/578/578 577/577/577 576/576/576
f 579/579/579 578/578/578 576/576/576
f 582/582/582 581/581/581 580/580/580
f 583/583/583 582/582/582 580/580/580
f 586/586/586 585/585/585 584/584/584
f 587/587/587 586/586/586 584/584/584
f 590/590/590 589/589/589 588/588/588
f 591/591/591 590/590/590 588/588/588
f 594/594/594 593/593/593 592/592/592
f 595/595/595 593/593/593 594/594/594
f 596/596/596 595/595/595 594/594/594
f 599/599/599 598/598/598 597/597/597
f 600/600/600 598/598/598 599/599/599
f 601/601/601 600/600/600 599/599/599
f 604/604/604 603/603/603 602/602/602
f 605/605/605 603/603/603 604/604/604
f 606/606/606 605/605/605 604/604/604
f 609/609/609 608/608/608 607/607/607
f 610/610/610 609/609/609 607/607/607
f 613/613/613 612/612/612 611/611/611
f 614/614/614 613/613/613 611/611/611
f 617/617/617 616/616/616 615/615/615
f 618/618/618 617/617/617 615/615/615
f 621/621/621 620/620/620 619/619/619
f 621/621/621 619/619/619 622/622/622
f 619/619/619 623/623/623 622/622/622
f 622/622/622 624/624/624 621/621/621
f 624/624/624 625/625/625 621/621/621
f 624/624/624 626/626/626 625/625/625
f 626/626/626 627/627/627 625/625/625
f 626/626/626 628/628/628 627/627/627
f 628/628/628 629/629/629 627/627/627
f 628/628/628 630/630/630 629/629/629
f 630/630/630 631/631/631 629/629/629
f 630/630/630 632/632/632 631/631/631
f 632/632/632 633/633/633 631/631/631
f 632/632/632 634/634/634 633/633/633
f 634/634/634 635/635/635 633/633/633
f 634/634/634 636/636/636 635/635/635
f 636/636/636 637/637/637 635/635/635
f 636/636/636 638/638/638 637/637/637
f 638/638/638 639/639/639 637/637/637
f 638/638/638 640/640/640 639/639/639
f 640/640/640 641/641/641 639/639/639
f 641/641/641 640/640/640 642/642/642
f 642/642/642 643/643/643 641/641/641
f 646/646/646 645/645/645 644/644/644
f 647/647/647 646/646/646 644/644/644
f 650/650/650 649/649/649 648/648/648
f 651/651/651 650/650/650 648/648/648
f 654/654/654 653/653/653 652/652/652
f 655/655/655 654/654/654 652/652/652
f 658/658/658 657/657/657 656/656/656
f 659/659/659 658/658/658 656/656/656
f 659/659/659 660/660/660 658/658/658
f 660/660/660 661/661/661 658/658/658
f 661/661/661 662/662/662 658/658/658
f 661/661/661 663/663/663 662/662/662
f 663/663/663 664/664/664 662/662/662
f 664/664/664 665/665/665 662/662/662
f 664/664/664 666/666/666 665/665/665
f 666/666/666 667/667/667 665/665/665
f 667/667/667 668/668/668 665/665/665
f 667/667/667 669/669/669 668/668/668
f 669/669/669 670/670/670 668/668/668
f 670/670/670 671/671/671 668/668/668
f 670/670/670 672/672/672 671/671/671
f 672/672/672 673/673/673 671/671/671
f 673/673/673 674/674/674 671/671/671
f 673/673/673 675/675/675 674/674/674
f 675/675/675 676/676/676 674/674/674
f 676/676/676 677/677/677 674/674/674
f 676/676/676 678/678/678 677/677/677
f 678/678/678 679/679/679 677/677/677
f 679/679/679 680/680/680 677/677/677
f 679/679/679 681/681/681 680/680/680
f 681/681/681 682/682/682 680/680/680
f 682/682/682 683/683/683 680/680/680
f 686/686/686 685/685/685 684/684/684
f 687/687/687 686/686/686 684/684/684
f 690/690/690 689/689/689 688/688/688
f 691/691/691 690/690/690 688/688/688
f 694/694/694 693/693/693 692/692/692
f 695/695/695 694/694/694 692/692/692
f 695/695/695 696/696/696 694/694/694
f 696/696/696 697/697/697 694/694/694
f 697/697/697 698/698/698 694/694/694
f 697/697/697 699/699/699 698/698/698
f 699/699/699 700/700/700 698/698/698
f 700/700/700 701/701/701 698/698/698
f 700/700/700 702/702/702 701/701/701
f 702/702/702 703/703/703 701/701/701
f 703/703/703 704/704/704 701/701/701
f 703/703/703 705/705/705 704/704/704
f 705/705/705 706/706/706 704/704/704
f 706/706/706 707/707/707 704/704/704
f 706/706/706 708/708/708 707/707/707
f 708/708/708 709/709/709 707/707/707
f 709/709/709 710/710/710 707/707/707
f 709/709/709 711/711/711 710/710/710
f 711/711/711 712/712/712 710/710/710
f 712/712/712 713/713/713 710/710/710
f 712/712/712 714/714/714 713/713/713
f 714/714/714 715/715/715 713/713/713
f 715/715/715 716/716/716 713/713/713
f 715/715/715 717/717/717 716/716/716
f 717/717/717 718/718/718 716/716/716
f 718/718/718 719/719/719 716/716/716
f 722/722/722 721/721/721 720/720/720
f 722/722/722 720/720/720 723/723/723
f 722/722/722 723/723/723 724/724/724
f 722/722/722 724/724/724 725/725/725
f 722/722/722 725/725/725 726/726/726
f 623/623/623 722/722/722 726/726/726
f 623/623/623 726/726/726 727/727/727
f 623/623/623 727/727/727 728/728/728
f 623/623/623 728/728/728 729/729/729
f 623/623/623 729/729/729 730/730/730
f 623/623/623 730/730/730 622/622/622
f 733/733/733 732/732/732 731/731/731
f 732/732/732 733/733/733 734/734/734
f 733/733/733 735/735/735 734/734/734
f 738/738/738 737/737/737 736/736/736
f 737/737/737 738/738/738 739/739/739
f 740/740/740 737/737/737 739/739/739
f 743/743/743 742/742/742 741/741/741
f 742/742/742 743/743/743 744/744/744
f 745/745/745 742/742/742 744/744/744
f 748/748/748 747/747/747 746/746/746
f 747/747/747 748/748/748 749/749/749
f 750/750/750 747/747/747 749/749/749
f 753/753/753 752/752/752 751/751/751
f 752/752/752 753/753/753 754/754/754
f 755/755/755 752/752/752 754/754/754
f 758/758/758 757/757/757 756/756/756
f 758/758/758 756/756/756 759/759/759
f 760/760/760 758/758/758 759/759/759
f 760/760/760 759/759/759 761/761/761
f 764/764/764 763/763/763 762/762/762
f 763/763/763 764/764/764 765/765/765
f 766/766/766 763/763/763 765/765/765
f 765/765/765 767/767/767 766/766/766
f 767/767/767 765/765/765 768/768/768
f 769/769/769 767/767/767 768/768/768
f 772/772/772 771/771/771 770/770/770
f 773/773/773 772/772/772 770/770/770
f 776/776/776 775/775/775 774/774/774
f 777/777/777 776/776/776 774/774/774
f 780/780/780 779/779/779 778/778/778
f 781/781/781 780/780/780 778/778/778
f 784/784/784 783/783/783 782/782/782
f 785/785/785 784/784/784 782/782/782
f 788/788/788 787/787/787 786/786/786
f 789/789/789 788/788/788 786/786/786
f 792/792/792 791/791/791 790/790/790
f 793/793/793 792/792/792 790/790/790
f 796/796/796 795/795/795 794/794/794
f 797/797/797 796/796/796 794/794/794
f 800/800/800 799/799/799 798/798/798
f 801/801/801 800/800/800 798/798/798
f 804/804/804 803/803/803 802/802/802
f 805/805/805 804/804/804 802/802/802
f 808/808/808 807/807/807 806/806/806
f 809/809/809 808/808/808 806/806/806
f 812/812/812 811/811/811 810/810/810
f 813/813/813 812/812/812 810/810/810
f 816/816/816 815/815/815 814/814/814
f 817/817/817 816/816/816 814/814/814
f 820/820/820 819/819/819 818/818/818
f 821/821/821 820/820/820 818/818/818
f 824/824/824 823/823/823 822/822/822
f 825/825/825 824/824/824 822/822/822
f 828/828/828 827/827/827 826/826/826
f 829/829/829 828/828/828 826/826/826
f 832/832/832 831/831/831 830/830/830
f 833/833/833 832/832/832 830/830/830
f 836/836/836 835/835/835 834/834/834
f 837/837/837 836/836/836 834/834/834
f 837/837/837 834/834/834 838/838/838
f 837/837/837 838/838/838 839/839/839
f 840/840/840 837/837/837 839/839/839
f 840/840/840 842/842/842 841/841/841
f 843/843/843 840/840/840 841/841/841
f 843/843/843 841/841/841 844/844/844
f 843/843/843 844/844/844 845/845/845
f 846/846/846 843/843/843 845/845/845
f 846/846/846 848/848/848 847/847/847
f 849/849/849 846/846/846 847/847/847
f 849/849/849 847/847/847 850/850/850
f 849/849/849 850/850/850 851/851/851
f 852/852/852 849/849/849 851/851/851
f 855/855/855 854/854/854 853/853/853
f 856/856/856 855/855/855 853/853/853
f 856/856/856 857/857/857 855/855/855
f 856/856/856 858/858/858 857/857/857
f 858/858/858 859/859/859 857/857/857
f 862/862/862 861/861/861 860/860/860
f 863/863/863 862/862/862 860/860/860
f 860/860/860 864/864/864 863/863/863
f 864/864/864 860/860/860 865/865/865
f 866/866/866 864/864/864 865/865/865
f 869/869/869 868/868/868 867/867/867
f 870/870/870 869/869/869 867/867/867
f 873/873/873 872/872/872 871/871/871
f 874/874/874 873/873/873 871/871/871
f 877/877/877 876/876/876 875/875/875
f 878/878/878 877/877/877 875/875/875
f 881/881/881 880/880/880 879/879/879
f 882/882/882 881/881/881 879/879/879
f 885/885/885 884/884/884 883/883/883
f 886/886/886 885/885/885 883/883/883
f 889/889/889 888/888/888 887/887/887
f 890/890/890 889/889/889 887/887/887
f 893/893/893 892/892/892 891/891/891
f 894/894/894 893/893/893 891/891/891
f 897/897/897 896/896/896 895/895/895
f 898/898/898 897/897/897 895/895/895
f 901/901/901 900/900/900 899/899/899
f 902/902/902 901/901/901 899/899/899
g obj_building_02_top_1
f 84/84/84 85/85/85 903/903/903
f 904/904/904 84/84/84 903/903/903
f 905/905/905 175/175/175 176/176/176
f 906/906/906 905/905/905 176/176/176
f 178/178/178 171/171/171 172/172/172
f 177/177/177 178/178/178 172/172/172
f 174/174/174 167/167/167 168/168/168
f 173/173/173 174/174/174 168/168/168
f 170/170/170 79/79/79 80/80/80
f 169/169/169 170/170/170 80/80/80
f 908/908/908 907/907/907 78/78/78
f 75/75/75 908/908/908 78/78/78
f 76/76/76 77/77/77 94/94/94
f 91/91/91 76/76/76 94/94/94
f 92/92/92 93/93/93 90/90/90
f 87/87/87 92/92/92 90/90/90
f 88/88/88 89/89/89 86/86/86
f 83/83/83 88/88/88 86/86/86
f 82/82/82 910/910/910 909/909/909
f 81/81/81 82/82/82 909/909/909
f 912/912/912 911/911/911 368/368/368
f 365/365/365 912/912/912 368/368/368
f 418/418/418 419/419/419 913/913/913
f 914/914/914 418/418/418 913/913/913
f 916/916/916 915/915/915 421/421/421
f 422/422/422 916/916/916 421/421/421
f 410/410/410 411/411/411 420/420/420
f 417/417/417 410/410/410 420/420/420
f 423/423/423 424/424/424 413/413/413
f 414/414/414 423/423/423 413/413/413
f 402/402/402 403/403/403 412/412/412
f 409/409/409 402/402/402 412/412/412
f 415/415/415 416/416/416 405/405/405
f 406/406/406 415/415/415 405/405/405
f 394/394/394 395/395/395 404/404/404
f 401/401/401 394/394/394 404/404/404
f 407/407/407 408/408/408 397/397/397
f 398/398/398 407/407/407 397/397/397
f 386/386/386 387/387/387 396/396/396
f 393/393/393 386/386/386 396/396/396
f 399/399/399 400/400/400 389/389/389
f 390/390/390 399/399/399 389/389/389
f 378/378/378 379/379/379 388/388/388
f 385/385/385 378/378/378 388/388/388
f 391/391/391 392/392/392 381/381/381
f 382/382/382 391/391/391 381/381/381
f 373/373/373 374/374/374 380/380/380
f 377/377/377 373/373/373 380/380/380
f 369/369/369 370/370/370 383/383/383
f 384/384/384 369/369/369 383/383/383
f 366/366/366 367/367/367 375/375/375
f 376/376/376 366/366/366 375/375/375
f 371/371/371 372/372/372 239/239/239
f 240/240/240 371/371/371 239/239/239
f 241/241/241 242/242/242 917/917/917
f 918/918/918 241/241/241 917/917/917
f 493/493/493 494/494/494 919/919/919
f 920/920/920 493/493/493 919/919/919
f 921/921/921 584/584/584 585/585/585
f 922/922/922 921/921/921 585/585/585
f 587/587/587 580/580/580 581/581/581
f 586/586/586 587/587/587 581/581/581
f 583/583/583 576/576/576 577/577/577
f 582/582/582 583/583/583 577/577/577
f 579/579/579 488/488/488 489/489/489
f 578/578/578 579/579/579 489/489/489
f 924/924/924 923/923/923 487/487/487
f 484/484/484 924/924/924 487/487/487
f 485/485/485 486/486/486 503/503/503
f 500/500/500 485/485/485 503/503/503
f 501/501/501 502/502/502 499/499/499
f 496/496/496 501/501/501 499/499/499
f 497/497/497 498/498/498 495/495/495
f 492/492/492 497/497/497 495/495/495
f 491/491/491 926/926/926 925/925/925
f 490/490/490 491/491/491 925/925/925
f 928/928/928 927/927/927 777/777/777
f 774/774/774 928/928/928 777/777/777
f 827/827/827 828/828/828 929/929/929
f 930/930/930 827/827/827 929/929/929
f 932/932/932 931/931/931 830/830/830
f 831/831/831 932/932/932 830/830/830
f 819/819/819 820/820/820 829/829/829
f 826/826/826 819/819/819 829/829/829
f 832/832/832 833/833/833 822/822/822
f 823/823/823 832/832/832 822/822/822
f 811/811/811 812/812/812 821/821/821
f 818/818/818 811/811/811 821/821/821
f 824/824/824 825/825/825 814/814/814
f 815/815/815 824/824/824 814/814/814
f 803/803/803 804/804/804 813/813/813
f 810/810/810 803/803/803 813/813/813
f 816/816/816 817/817/817 806/806/806
f 807/807/807 816/816/816 806/806/806
f 795/795/795 796/796/796 805/805/805
f 802/802/802 795/795/795 805/805/805
f 808/808/808 809/809/809 798/798/798
f 799/799/799 808/808/808 798/798/798
f 787/787/787 788/788/788 797/797/797
f 794/794/794 787/787/787 797/797/797
f 800/800/800 801/801/801 790/790/790
f 791/791/791 800/800/800 790/790/790
f 782/782/782 783/783/783 789/789/789
f 786/786/786 782/782/782 789/789/789
f 778/778/778 779/779/779 792/792/792
f 793/793/793 778/778/778 792/792/792
f 775/775/775 776/776/776 784/784/784
f 785/785/785 775/775/775 784/784/784
f 780/780/780 781/781/781 648/648/648
f 649/649/649 780/780/780 648/648/648
f 650/650/650 651/651/651 933/933/933
f 934/934/934 650/650/650 933/933/933
