g weapon_sword_01
v -8.6E-07 -3.2E-07 -0.02000049
v -8.6E-07 0.00015796 -0.01682127
v -0.00102276 0.00027121 -0.01682127
v -8.6E-07 -0.00015859 -0.01682127
v -8.6E-07 -3.2E-07 -0.02000049
v -0.00102276 -0.00027909 -0.01682127
v 0.0023128 -3.2E-07 -0.01682127
v -8.6E-07 -3.2E-07 -0.02000049
v 0.00101607 -0.00026147 -0.01682127
v 0.0023128 -3.2E-07 -0.01682127
v 0.00101607 0.00029897 -0.01682127
v -8.6E-07 -3.2E-07 -0.02000049
v -0.00102276 0.00027121 -0.01682127
v -0.00231452 -3.2E-07 -0.01682127
v -8.6E-07 -3.2E-07 -0.02000049
v 0.00101607 0.00029897 -0.01682127
v -8.6E-07 0.00015796 -0.01682127
v -8.6E-07 -3.2E-07 -0.02000049
v -8.6E-07 -3.2E-07 -0.02000049
v -0.00231452 -3.2E-07 -0.01682127
v -0.00102276 -0.00027909 -0.01682127
v -8.6E-07 -3.2E-07 -0.02000049
v -8.6E-07 -0.00015859 -0.01682127
v 0.00101607 -0.00026147 -0.01682127
v 0.0011402 -0.0011402 -0.0001169199
v 0.0011402 0.0011402 -0.0001169199
v 0.00079938 0.00079939 -0.00135
v 0.00079938 -0.00079938 -0.00135
v 0.0011402 0.0011402 -0.0001169199
v -0.0011402 0.0011402 -0.0001169199
v -0.00079938 0.00079938 -0.00135
v 0.00079938 0.00079939 -0.00135
v -0.0011402 0.0011402 -0.0001169199
v -0.0011402 -0.0011402 -0.0001169199
v -0.00079938 -0.00079938 -0.00135
v -0.00079938 0.00079938 -0.00135
v 0 -0.00119233 -0.0007009399
v -0.00368553 -0.00044912 -0.00108556
v -0.00368553 0.00044912 -0.00108556
v 0 0.00119233 -0.0007009399
v 0 -0.00119233 -0.00268473
v 0 0.00119234 -0.00268473
v -0.00368553 0.00044912 -0.00162434
v -0.00368553 -0.00044912 -0.00162434
v 0 0.00119233 -0.0007009399
v 0 0.00119234 -0.00268473
v 0.00368553 0.00044913 -0.00162434
v 0.00368553 0.00044912 -0.00108556
v 0.00368553 -0.00044912 -0.00108556
v 0.00507498 -0.00061844 -0.0006069898
v 0.00507498 -0.00061844 -0.00210291
v 0.00368553 -0.00044912 -0.00162434
v -0.00368553 -0.00044912 -0.00108556
v -0.00507498 -0.00061844 -0.0006069898
v -0.00507498 0.00061844 -0.0006069898
v -0.00368553 0.00044912 -0.00108556
v 0 -0.00119233 -0.0007009399
v 0 -0.00119233 -0.00268473
v -0.00368553 -0.00044912 -0.00162434
v -0.00368553 -0.00044912 -0.00108556
v 1.64E-06 -0.00023978 -0.0015229
v -8.6E-07 -0.00015859 -0.01682127
v -0.00102276 -0.00027909 -0.01682127
v -0.00102276 -0.00041914 -0.0015229
v 1.64E-06 0.00023979 -0.0015229
v -8.6E-07 0.00015796 -0.01682127
v 0.00101607 0.00029897 -0.01682127
v 0.00101607 0.00040264 -0.0015229
v -0.0024744 -5.117195E-18 -0.0015229
v -0.00231452 -3.2E-07 -0.01682127
v -0.00102276 0.00027121 -0.01682127
v -0.00102276 0.00039109 -0.0015229
v 0.00247769 -5.117195E-18 -0.0015229
v 0.0023128 -3.2E-07 -0.01682127
v 0.00101607 -0.00026147 -0.01682127
v 0.00101607 -0.00040263 -0.0015229
v 0.00368553 -0.00044912 -0.00108556
v 0.00368553 -0.00044912 -0.00162434
v 0 -0.00119233 -0.00268473
v 0 -0.00119233 -0.0007009399
v -0.00368553 0.00044912 -0.00108556
v -0.00368553 0.00044912 -0.00162434
v 0 0.00119234 -0.00268473
v 0 0.00119233 -0.0007009399
v 0.00368553 -0.00044912 -0.00162434
v 0.00368553 0.00044913 -0.00162434
v 0 0.00119234 -0.00268473
v 0 -0.00119233 -0.00268473
v 0.00368553 -0.00044912 -0.00108556
v 0 -0.00119233 -0.0007009399
v 0 0.00119233 -0.0007009399
v 0.00368553 0.00044912 -0.00108556
v -0.00102276 0.00027121 -0.01682127
v -8.6E-07 0.00015796 -0.01682127
v 1.64E-06 0.00023979 -0.0015229
v -0.00102276 0.00039109 -0.0015229
v 0.00101607 0.00029897 -0.01682127
v 0.0023128 -3.2E-07 -0.01682127
v 0.00247769 -5.117195E-18 -0.0015229
v 0.00101607 0.00040264 -0.0015229
v -0.00102276 -0.00027909 -0.01682127
v -0.00231452 -3.2E-07 -0.01682127
v -0.0024744 -5.117195E-18 -0.0015229
v -0.00102276 -0.00041914 -0.0015229
v 0.00101607 -0.00026147 -0.01682127
v -8.6E-07 -0.00015859 -0.01682127
v 1.64E-06 -0.00023978 -0.0015229
v 0.00101607 -0.00040263 -0.0015229
v 0.00507498 0.00061845 -0.0006069898
v 0.00507498 0.00061845 -0.00210291
v 0.00507498 -0.00061844 -0.00210291
v 0.00507498 -0.00061844 -0.0006069898
v -0.00507498 -0.00061844 -0.0006069898
v -0.00507498 -0.00061844 -0.00210291
v -0.00507498 0.00061844 -0.00210291
v -0.00507498 0.00061844 -0.0006069898
v 0.00368553 0.00044913 -0.00162434
v 0.00507498 0.00061845 -0.00210291
v 0.00507498 0.00061845 -0.0006069898
v 0.00368553 0.00044912 -0.00108556
v 0.00368553 -0.00044912 -0.00162434
v 0.00507498 -0.00061844 -0.00210291
v 0.00507498 0.00061845 -0.00210291
v 0.00368553 0.00044913 -0.00162434
v -0.00368553 -0.00044912 -0.00162434
v -0.00507498 -0.00061844 -0.00210291
v -0.00507498 -0.00061844 -0.0006069898
v -0.00368553 -0.00044912 -0.00108556
v 0.00368553 0.00044912 -0.00108556
v 0.00507498 0.00061845 -0.0006069898
v 0.00507498 -0.00061844 -0.0006069898
v 0.00368553 -0.00044912 -0.00108556
v -0.00368553 0.00044912 -0.00108556
v -0.00507498 0.00061844 -0.0006069898
v -0.00507498 0.00061844 -0.00210291
v -0.00368553 0.00044912 -0.00162434
v -0.00368553 0.00044912 -0.00162434
v -0.00507498 0.00061844 -0.00210291
v -0.00507498 -0.00061844 -0.00210291
v -0.00368553 -0.00044912 -0.00162434
v 0.00079938 -0.00079938 -0.00135
v -0.00079938 -0.00079938 -0.00135
v -0.0011402 -0.0011402 -0.0001169199
v 0.0011402 -0.0011402 -0.0001169199
v -0.00079938 0.00055957 0
v -0.00079938 -0.00055957 0
v -0.0011402 -0.0011402 -0.0001169199
v -0.0011402 0.0011402 -0.0001169199
v 0.00079938 0.00055957 0
v -0.00079938 0.00055957 0
v -0.0011402 0.0011402 -0.0001169199
v 0.0011402 0.0011402 -0.0001169199
v 0.00079938 -0.00055957 0
v 0.00079938 0.00055957 0
v 0.0011402 0.0011402 -0.0001169199
v 0.0011402 -0.0011402 -0.0001169199
v 0.0011402 -0.0011402 -0.0001169199
v -0.0011402 -0.0011402 -0.0001169199
v -0.00079938 -0.00055957 0
v 0.00079938 -0.00055957 0
v 0 -4.440892E-18 0
v 0.00079938 0.00055957 0
v 0.00079938 -0.00055957 0
v -0.00079938 0.00055957 0
v -0.00079938 -0.00055957 0
vt 0.286397 0.893818
vt 0.319072 0.926494
vt 0.319072 0.893818
vt 0.302022 0.91335
vt 0.334697 0.946025
vt 0.334697 0.91335
vt 0.171162 0.915303
vt 0.203838 0.947978
vt 0.203838 0.915303
vt 0.171162 0.915303
vt 0.203838 0.947978
vt 0.203838 0.915303
vt 0.171162 0.915303
vt 0.203838 0.947978
vt 0.203838 0.915303
vt 0.286397 0.893818
vt 0.319072 0.926494
vt 0.319072 0.893818
vt 0.171162 0.915303
vt 0.203838 0.947978
vt 0.203838 0.915303
vt 0.302022 0.91335
vt 0.334697 0.946025
vt 0.334697 0.91335
vt 0.675069 0.909443
vt 0.675069 0.942119
vt 0.707744 0.942119
vt 0.707744 0.909443
vt 0.675069 0.909443
vt 0.675069 0.942119
vt 0.707744 0.942119
vt 0.707744 0.909443
vt 0.675069 0.909443
vt 0.675069 0.942119
vt 0.707744 0.942119
vt 0.707744 0.909443
vt 0.909443 0.927022
vt 0.909443 0.959697
vt 0.942119 0.959697
vt 0.942119 0.927022
vt 0.909443 0.927022
vt 0.909443 0.959697
vt 0.942119 0.959697
vt 0.942119 0.927022
vt 0.909443 0.927022
vt 0.909443 0.959697
vt 0.942119 0.959697
vt 0.942119 0.927022
vt 0.909443 0.927022
vt 0.909443 0.959697
vt 0.942119 0.959697
vt 0.942119 0.927022
vt 0.909443 0.927022
vt 0.909443 0.959697
vt 0.942119 0.959697
vt 0.942119 0.927022
vt 0.909443 0.927022
vt 0.909443 0.959697
vt 0.942119 0.959697
vt 0.942119 0.927022
vt 0.302022 0.91335
vt 0.302022 0.946025
vt 0.334697 0.946025
vt 0.334697 0.91335
vt 0.286397 0.893818
vt 0.286397 0.926494
vt 0.319072 0.926494
vt 0.319072 0.893818
vt 0.171162 0.915303
vt 0.171162 0.947978
vt 0.203838 0.947978
vt 0.203838 0.915303
vt 0.171162 0.915303
vt 0.171162 0.947978
vt 0.203838 0.947978
vt 0.203838 0.915303
vt 0.909443 0.927022
vt 0.909443 0.959697
vt 0.942119 0.959697
vt 0.942119 0.927022
vt 0.909443 0.927022
vt 0.909443 0.959697
vt 0.942119 0.959697
vt 0.942119 0.927022
vt 0.909443 0.927022
vt 0.909443 0.959697
vt 0.942119 0.959697
vt 0.942119 0.927022
vt 0.909443 0.927022
vt 0.909443 0.959697
vt 0.942119 0.959697
vt 0.942119 0.927022
vt 0.286397 0.893818
vt 0.286397 0.926494
vt 0.319072 0.926494
vt 0.319072 0.893818
vt 0.171162 0.915303
vt 0.171162 0.947978
vt 0.203838 0.947978
vt 0.203838 0.915303
vt 0.171162 0.915303
vt 0.171162 0.947978
vt 0.203838 0.947978
vt 0.203838 0.915303
vt 0.302022 0.91335
vt 0.302022 0.946025
vt 0.334697 0.946025
vt 0.334697 0.91335
vt 0.909443 0.927022
vt 0.909443 0.959697
vt 0.942119 0.959697
vt 0.942119 0.927022
vt 0.909443 0.927022
vt 0.909443 0.959697
vt 0.942119 0.959697
vt 0.942119 0.927022
vt 0.909443 0.927022
vt 0.909443 0.959697
vt 0.942119 0.959697
vt 0.942119 0.927022
vt 0.909443 0.927022
vt 0.909443 0.959697
vt 0.942119 0.959697
vt 0.942119 0.927022
vt 0.909443 0.927022
vt 0.909443 0.959697
vt 0.942119 0.959697
vt 0.942119 0.927022
vt 0.909443 0.927022
vt 0.909443 0.959697
vt 0.942119 0.959697
vt 0.942119 0.927022
vt 0.909443 0.927022
vt 0.909443 0.959697
vt 0.942119 0.959697
vt 0.942119 0.927022
vt 0.909443 0.927022
vt 0.909443 0.959697
vt 0.942119 0.959697
vt 0.942119 0.927022
vt 0.675069 0.909443
vt 0.675069 0.942119
vt 0.707744 0.942119
vt 0.707744 0.909443
vt 0.675069 0.909443
vt 0.675069 0.942119
vt 0.707744 0.942119
vt 0.707744 0.909443
vt 0.675069 0.909443
vt 0.675069 0.942119
vt 0.707744 0.942119
vt 0.707744 0.909443
vt 0.675069 0.909443
vt 0.675069 0.942119
vt 0.707744 0.942119
vt 0.707744 0.909443
vt 0.675069 0.909443
vt 0.675069 0.942119
vt 0.707744 0.942119
vt 0.707744 0.909443
vt 0.6832377 0.917612
vt 0.675069 0.909443
vt 0.675069 0.909443
vt 0.675069 0.909443
vt 0.707744 0.942119
vn 0.110012 0.9927008 -0.04942099
vn 0.110012 0.9927008 -0.04942099
vn 0.110012 0.9927008 -0.04942099
vn 0.116962 -0.991908 -0.049381
vn 0.116962 -0.991908 -0.049381
vn 0.116962 -0.991908 -0.049381
vn 0.195422 -0.9703528 -0.142217
vn 0.195422 -0.9703528 -0.142217
vn 0.195422 -0.9703528 -0.142217
vn 0.2219329 0.9615924 -0.1615109
vn 0.2219329 0.9615924 -0.1615109
vn 0.2219329 0.9615924 -0.1615109
vn -0.2034331 0.9678312 -0.148047
vn -0.2034331 0.9678312 -0.148047
vn -0.2034331 0.9678312 -0.148047
vn -0.137181 0.9893208 -0.04925198
vn -0.137181 0.9893208 -0.04925198
vn -0.137181 0.9893208 -0.04925198
vn -0.2085091 -0.9661773 -0.151741
vn -0.2085091 -0.9661773 -0.151741
vn -0.2085091 -0.9661773 -0.151741
vn -0.100529 -0.9937034 -0.04947102
vn -0.100529 -0.9937034 -0.04947102
vn -0.100529 -0.9937034 -0.04947102
vn 0.9638618 0 -0.2664029
vn 0.9638618 0 -0.2664029
vn 0.9638618 0 -0.2664029
vn 0.9638618 0 -0.2664029
vn -9.999998E-07 0.9638618 -0.2664029
vn -9.999998E-07 0.9638618 -0.2664029
vn -9.999998E-07 0.9638618 -0.2664029
vn -9.999998E-07 0.9638618 -0.2664029
vn -0.9638618 0 -0.2664029
vn -0.9638618 0 -0.2664029
vn -0.9638618 0 -0.2664029
vn -0.9638618 0 -0.2664029
vn -0.103796 0 0.9945986
vn -0.103796 0 0.9945986
vn -0.103796 0 0.9945986
vn -0.103796 0 0.9945986
vn -0.2765 0 -0.9610139
vn -0.2765 0 -0.9610139
vn -0.2765 0 -0.9610139
vn -0.2765 0 -0.9610139
vn 0.197677 0.9802672 0
vn 0.197677 0.9802672 0
vn 0.197677 0.9802672 0
vn 0.197677 0.9802672 0
vn -0.120966 -0.9926566 0
vn -0.120966 -0.9926566 0
vn -0.120966 -0.9926566 0
vn -0.120966 -0.9926566 0
vn 0.3256549 0 0.9454887
vn 0.3256549 0 0.9454887
vn 0.3256549 0 0.9454887
vn 0.3256549 0 0.9454887
vn -0.197677 -0.9802672 0
vn -0.197677 -0.9802672 0
vn -0.197677 -0.9802672 0
vn -0.197677 -0.9802672 0
vn 0.144988 -0.9894261 -0.003788
vn 0.144988 -0.9894261 -0.003788
vn 0.144988 -0.9894261 -0.003788
vn 0.144988 -0.9894261 -0.003788
vn -0.14794 0.9889913 -0.003163001
vn -0.14794 0.9889913 -0.003163001
vn -0.14794 0.9889913 -0.003163001
vn -0.14794 0.9889913 -0.003163001
vn -0.234776 0.9720458 -0.002667
vn -0.234776 0.9720458 -0.002667
vn -0.234776 0.9720458 -0.002667
vn -0.234776 0.9720458 -0.002667
vn 0.2339651 -0.9722403 -0.003032001
vn 0.2339651 -0.9722403 -0.003032001
vn 0.2339651 -0.9722403 -0.003032001
vn 0.2339651 -0.9722403 -0.003032001
vn 0.197677 -0.9802672 0
vn 0.197677 -0.9802672 0
vn 0.197677 -0.9802672 0
vn 0.197677 -0.9802672 0
vn -0.197677 0.9802672 0
vn -0.197677 0.9802672 0
vn -0.197677 0.9802672 0
vn -0.197677 0.9802672 0
vn 0.2765 0 -0.9610139
vn 0.2765 0 -0.9610139
vn 0.2765 0 -0.9610139
vn 0.2765 0 -0.9610139
vn 0.103796 0 0.9945986
vn 0.103796 0 0.9945986
vn 0.103796 0 0.9945986
vn 0.103796 0 0.9945986
vn 0.1282139 0.9917405 -0.003460999
vn 0.1282139 0.9917405 -0.003460999
vn 0.1282139 0.9917405 -0.003460999
vn 0.1282139 0.9917405 -0.003460999
vn 0.2466111 0.9691114 -0.002443001
vn 0.2466111 0.9691114 -0.002443001
vn 0.2466111 0.9691114 -0.002443001
vn 0.2466111 0.9691114 -0.002443001
vn -0.246544 -0.969127 -0.00302
vn -0.246544 -0.969127 -0.00302
vn -0.246544 -0.969127 -0.00302
vn -0.246544 -0.969127 -0.00302
vn -0.129706 -0.9915452 -0.003803001
vn -0.129706 -0.9915452 -0.003803001
vn -0.129706 -0.9915452 -0.003803001
vn -0.129706 -0.9915452 -0.003803001
vn 1 2E-06 0
vn 1 2E-06 0
vn 1 2E-06 0
vn 1 2E-06 0
vn -1 0 0
vn -1 0 0
vn -1 0 0
vn -1 0 0
vn -0.1209669 0.9926565 0
vn -0.1209669 0.9926565 0
vn -0.1209669 0.9926565 0
vn -0.1209669 0.9926565 0
vn -0.325654 -1E-06 -0.945489
vn -0.325654 -1E-06 -0.945489
vn -0.325654 -1E-06 -0.945489
vn -0.325654 -1E-06 -0.945489
vn 0.1209669 -0.9926565 0
vn 0.1209669 -0.9926565 0
vn 0.1209669 -0.9926565 0
vn 0.1209669 -0.9926565 0
vn -0.325654 -1E-06 0.945489
vn -0.325654 -1E-06 0.945489
vn -0.325654 -1E-06 0.945489
vn -0.325654 -1E-06 0.945489
vn 0.1209669 0.9926565 0
vn 0.1209669 0.9926565 0
vn 0.1209669 0.9926565 0
vn 0.1209669 0.9926565 0
vn 0.325654 0 -0.945489
vn 0.325654 0 -0.945489
vn 0.325654 0 -0.945489
vn 0.325654 0 -0.945489
vn 0 -0.9638618 -0.2664029
vn 0 -0.9638618 -0.2664029
vn 0 -0.9638618 -0.2664029
vn 0 -0.9638618 -0.2664029
vn -0.3245119 0 0.9458816
vn -0.3245119 0 0.9458816
vn -0.3245119 0 0.9458816
vn -0.3245119 0 0.9458816
vn 0 0.197415 0.98032
vn 0 0.197415 0.98032
vn 0 0.197415 0.98032
vn 0 0.197415 0.98032
vn 0.3245119 0 0.9458816
vn 0.3245119 0 0.9458816
vn 0.3245119 0 0.9458816
vn 0.3245119 0 0.9458816
vn 0 -0.197415 0.98032
vn 0 -0.197415 0.98032
vn 0 -0.197415 0.98032
vn 0 -0.197415 0.98032
vn 0 0 1
vn 0 0 1
vn 0 0 1
vn 0 0 1
vn 0 0 1
g weapon_sword_01_0
f 3/3/3 2/2/2 1/1/1
f 6/6/6 5/5/5 4/4/4
f 9/9/9 8/8/8 7/7/7
f 12/12/12 11/11/11 10/10/10
f 15/15/15 14/14/14 13/13/13
f 18/18/18 17/17/17 16/16/16
f 21/21/21 20/20/20 19/19/19
f 24/24/24 23/23/23 22/22/22
f 27/27/27 26/26/26 25/25/25
f 28/28/28 27/27/27 25/25/25
f 31/31/31 30/30/30 29/29/29
f 32/32/32 31/31/31 29/29/29
f 35/35/35 34/34/34 33/33/33
f 36/36/36 35/35/35 33/33/33
f 39/39/39 38/38/38 37/37/37
f 40/40/40 39/39/39 37/37/37
f 43/43/43 42/42/42 41/41/41
f 44/44/44 43/43/43 41/41/41
f 47/47/47 46/46/46 45/45/45
f 48/48/48 47/47/47 45/45/45
f 51/51/51 50/50/50 49/49/49
f 52/52/52 51/51/51 49/49/49
f 55/55/55 54/54/54 53/53/53
f 56/56/56 55/55/55 53/53/53
f 59/59/59 58/58/58 57/57/57
f 60/60/60 59/59/59 57/57/57
f 63/63/63 62/62/62 61/61/61
f 64/64/64 63/63/63 61/61/61
f 67/67/67 66/66/66 65/65/65
f 68/68/68 67/67/67 65/65/65
f 71/71/71 70/70/70 69/69/69
f 72/72/72 71/71/71 69/69/69
f 75/75/75 74/74/74 73/73/73
f 76/76/76 75/75/75 73/73/73
f 79/79/79 78/78/78 77/77/77
f 80/80/80 79/79/79 77/77/77
f 83/83/83 82/82/82 81/81/81
f 84/84/84 83/83/83 81/81/81
f 87/87/87 86/86/86 85/85/85
f 88/88/88 87/87/87 85/85/85
f 91/91/91 90/90/90 89/89/89
f 92/92/92 91/91/91 89/89/89
f 95/95/95 94/94/94 93/93/93
f 96/96/96 95/95/95 93/93/93
f 99/99/99 98/98/98 97/97/97
f 100/100/100 99/99/99 97/97/97
f 103/103/103 102/102/102 101/101/101
f 104/104/104 103/103/103 101/101/101
f 107/107/107 106/106/106 105/105/105
f 108/108/108 107/107/107 105/105/105
f 111/111/111 110/110/110 109/109/109
f 112/112/112 111/111/111 109/109/109
f 115/115/115 114/114/114 113/113/113
f 116/116/116 115/115/115 113/113/113
f 119/119/119 118/118/118 117/117/117
f 120/120/120 119/119/119 117/117/117
f 123/123/123 122/122/122 121/121/121
f 124/124/124 123/123/123 121/121/121
f 127/127/127 126/126/126 125/125/125
f 128/128/128 127/127/127 125/125/125
f 131/131/131 130/130/130 129/129/129
f 132/132/132 131/131/131 129/129/129
f 135/135/135 134/134/134 133/133/133
f 136/136/136 135/135/135 133/133/133
f 139/139/139 138/138/138 137/137/137
f 140/140/140 139/139/139 137/137/137
f 143/143/143 142/142/142 141/141/141
f 144/144/144 143/143/143 141/141/141
f 147/147/147 146/146/146 145/145/145
f 148/148/148 147/147/147 145/145/145
f 151/151/151 150/150/150 149/149/149
f 152/152/152 151/151/151 149/149/149
f 155/155/155 154/154/154 153/153/153
f 156/156/156 155/155/155 153/153/153
f 159/159/159 158/158/158 157/157/157
f 160/160/160 159/159/159 157/157/157
f 163/163/163 162/162/162 161/161/161
f 162/162/162 164/164/164 161/161/161
f 165/165/165 163/163/163 161/161/161
f 164/164/164 165/165/165 161/161/161
