g weapon_grass_knife_01
v 0.0035 9.030088E-05 -0.006062177
v 1.490116E-10 9.030088E-05 -0.006999999
v 0.00257853 -5.393486E-05 -0.008511419
v 0.0035 -0.0004096991 -0.006062177
v 0.00257853 -0.0002654634 -0.008511419
v 1.490116E-10 -0.0004096991 -0.006999999
v -0.0035 9.030088E-05 0.006062177
v -1.490116E-10 9.030088E-05 0.006999999
v -0.00257853 -5.393486E-05 0.008511419
v -0.0035 -0.0004096991 0.006062177
v -0.00257853 -0.0002654634 0.008511419
v -1.490116E-10 -0.0004096991 0.006999999
v 0.002754652 -0.0007746987 -0.001590399
v 0.002754652 0.0007746989 -0.001590399
v 0.001590399 0.0007746989 -0.002754652
v 0.001590399 -0.0007746987 -0.002754652
v 0.001590399 -0.0007746987 -0.002754652
v 0.001590399 0.0007746989 -0.002754652
v 0 0.0007746989 -0.003180798
v 0 -0.0007746987 -0.003180798
v 0 -0.0007746987 -0.003180798
v 0 0.0007746989 -0.003180798
v -0.001590399 0.0007746989 -0.002754652
v -0.001590399 -0.0007746987 -0.002754652
v -0.001590399 -0.0007746987 -0.002754652
v -0.001590399 0.0007746989 -0.002754652
v -0.002754652 0.0007746989 -0.001590399
v -0.002754652 -0.0007746987 -0.001590399
v -0.002754652 -0.0007746987 -0.001590399
v -0.002754652 0.0007746989 -0.001590399
v -0.003180798 0.0007746989 0
v -0.003180798 -0.0007746987 0
v -0.003180798 -0.0007746987 0
v -0.003180798 0.0007746989 0
v -0.002754652 0.0007746989 0.001590399
v -0.002754652 -0.0007746987 0.001590399
v -0.002754652 -0.0007746987 0.001590399
v -0.002754652 0.0007746989 0.001590399
v -0.001590399 0.0007746989 0.002754652
v -0.001590399 -0.0007746987 0.002754652
v -0.001590399 -0.0007746987 0.002754652
v -0.001590399 0.0007746989 0.002754652
v 0 0.0007746989 0.003180798
v 0 -0.0007746987 0.003180798
v 0 -0.0007746987 0.003180798
v 0 0.0007746989 0.003180798
v 0.001590399 0.0007746989 0.002754652
v 0.001590399 -0.0007746987 0.002754652
v 0.001590399 -0.0007746987 0.002754652
v 0.001590399 0.0007746989 0.002754652
v 0.002754652 0.0007746989 0.001590399
v 0.002754652 -0.0007746987 0.001590399
v 0.002754652 -0.0007746987 0.001590399
v 0.002754652 0.0007746989 0.001590399
v 0.003180798 0.0007746989 0
v 0.003180798 -0.0007746987 0
v 0.003180798 -0.0007746987 0
v 0.003180798 0.0007746989 0
v 0.002754652 0.0007746989 -0.001590399
v 0.002754652 -0.0007746987 -0.001590399
v 0.0003754207 -5.393486E-05 -0.00788088
v -2.974834E-19 -5.393486E-05 -0.01
v 0.00257853 -5.393486E-05 -0.008511419
v 1.490116E-10 9.030088E-05 -0.006999999
v -0.0035 9.030088E-05 -0.006062177
v -0.002022637 -5.393486E-05 -0.00866037
v -0.003615316 -5.393486E-05 -0.007012752
v -0.005 -5.393486E-05 -0.008660254
v 0.0003754207 -0.0002654634 -0.00788088
v 0.00257853 -0.0002654634 -0.008511419
v -2.974834E-19 -0.0002654634 -0.01
v 1.490116E-10 -0.0004096991 -0.006999999
v -0.002022637 -0.0002654634 -0.00866037
v -0.0035 -0.0004096991 -0.006062177
v -0.003615316 -0.0002654634 -0.007012752
v -0.005 -0.0002654634 -0.008660254
v 0.0003754207 -0.0002654634 -0.00788088
v 0.0003754207 -5.393486E-05 -0.00788088
v 1.490116E-10 9.030088E-05 -0.006999999
v 1.490116E-10 -0.0004096991 -0.006999999
v 0.0035 -0.0004096991 -0.006062177
v 0.0035 9.030088E-05 -0.006062177
v 0.00257853 -5.393486E-05 -0.008511419
v 0.00257853 -0.0002654634 -0.008511419
v 0.00257853 -0.0002654634 -0.008511419
v 0.00257853 -5.393486E-05 -0.008511419
v -2.974834E-19 -5.393486E-05 -0.01
v -2.974834E-19 -0.0002654634 -0.01
v -2.974834E-19 -0.0002654634 -0.01
v -2.974834E-19 -5.393486E-05 -0.01
v 0.0003754207 -5.393486E-05 -0.00788088
v 0.0003754207 -0.0002654634 -0.00788088
v 0.006062177 9.030088E-05 -0.0035
v 0.0035 9.030088E-05 -0.006062177
v 0.006488782 -5.393486E-05 -0.006081841
v 0.004265564 -5.393486E-05 -0.006637331
v 0.005 -5.393486E-05 -0.008660254
v 0.006062177 -0.0004096991 -0.0035
v 0.006488782 -0.0002654634 -0.006081841
v 0.0035 -0.0004096991 -0.006062177
v 0.004265564 -0.0002654634 -0.006637331
v 0.005 -0.0002654634 -0.008660254
v 0.004265564 -0.0002654634 -0.006637331
v 0.004265564 -5.393486E-05 -0.006637331
v 0.0035 9.030088E-05 -0.006062177
v 0.0035 -0.0004096991 -0.006062177
v 0.006062177 -0.0004096991 -0.0035
v 0.006062177 9.030088E-05 -0.0035
v 0.006488782 -5.393486E-05 -0.006081841
v 0.006488782 -0.0002654634 -0.006081841
v 0.006488782 -0.0002654634 -0.006081841
v 0.006488782 -5.393486E-05 -0.006081841
v 0.005 -5.393486E-05 -0.008660254
v 0.005 -0.0002654634 -0.008660254
v 0.005 -0.0002654634 -0.008660254
v 0.005 -5.393486E-05 -0.008660254
v 0.004265564 -5.393486E-05 -0.006637331
v 0.004265564 -0.0002654634 -0.006637331
v 0.006062177 9.030088E-05 0.0035
v 0.006999999 9.030088E-05 1.490116E-10
v 0.008511419 -5.393486E-05 0.00257853
v 0.00788088 -5.393486E-05 0.0003754207
v 0.01 -5.393486E-05 1.922963E-18
v 0.006062177 -0.0004096991 0.0035
v 0.008511419 -0.0002654634 0.00257853
v 0.006999999 -0.0004096991 1.490116E-10
v 0.00788088 -0.0002654634 0.0003754207
v 0.01 -0.0002654634 1.922963E-18
v 0.00788088 -0.0002654634 0.0003754207
v 0.00788088 -5.393486E-05 0.0003754207
v 0.006999999 9.030088E-05 1.490116E-10
v 0.006999999 -0.0004096991 1.490116E-10
v 0.006062177 -0.0004096991 0.0035
v 0.006062177 9.030088E-05 0.0035
v 0.008511419 -5.393486E-05 0.00257853
v 0.008511419 -0.0002654634 0.00257853
v 0.008511419 -0.0002654634 0.00257853
v 0.008511419 -5.393486E-05 0.00257853
v 0.01 -5.393486E-05 1.922963E-18
v 0.01 -0.0002654634 1.922963E-18
v 0.01 -0.0002654634 1.922963E-18
v 0.01 -5.393486E-05 1.922963E-18
v 0.00788088 -5.393486E-05 0.0003754207
v 0.00788088 -0.0002654634 0.0003754207
v -0.003615316 -0.0002654634 -0.007012752
v -0.003615316 -5.393486E-05 -0.007012752
v -0.0035 9.030088E-05 -0.006062177
v -0.0035 -0.0004096991 -0.006062177
v 1.490116E-10 -0.0004096991 -0.006999999
v 1.490116E-10 9.030088E-05 -0.006999999
v -0.002022637 -5.393486E-05 -0.00866037
v -0.002022637 -0.0002654634 -0.00866037
v -0.002022637 -0.0002654634 -0.00866037
v -0.002022637 -5.393486E-05 -0.00866037
v -0.005 -5.393486E-05 -0.008660254
v -0.005 -0.0002654634 -0.008660254
v -0.005 -0.0002654634 -0.008660254
v -0.005 -5.393486E-05 -0.008660254
v -0.003615316 -5.393486E-05 -0.007012752
v -0.003615316 -0.0002654634 -0.007012752
v 0.006999999 9.030088E-05 1.490116E-10
v 0.006062177 9.030088E-05 -0.0035
v 0.00866037 -5.393486E-05 -0.002022637
v 0.007012752 -5.393486E-05 -0.003615316
v 0.008660254 -5.393486E-05 -0.005
v 0.006999999 -0.0004096991 1.490116E-10
v 0.00866037 -0.0002654634 -0.002022637
v 0.006062177 -0.0004096991 -0.0035
v 0.007012752 -0.0002654634 -0.003615316
v 0.008660254 -0.0002654634 -0.005
v 0.007012752 -0.0002654634 -0.003615316
v 0.007012752 -5.393486E-05 -0.003615316
v 0.006062177 9.030088E-05 -0.0035
v 0.006062177 -0.0004096991 -0.0035
v 0.006999999 -0.0004096991 1.490116E-10
v 0.006999999 9.030088E-05 1.490116E-10
v 0.00866037 -5.393486E-05 -0.002022637
v 0.00866037 -0.0002654634 -0.002022637
v 0.00866037 -0.0002654634 -0.002022637
v 0.00866037 -5.393486E-05 -0.002022637
v 0.008660254 -5.393486E-05 -0.005
v 0.008660254 -0.0002654634 -0.005
v 0.008660254 -0.0002654634 -0.005
v 0.008660254 -5.393486E-05 -0.005
v 0.007012752 -5.393486E-05 -0.003615316
v 0.007012752 -0.0002654634 -0.003615316
v -0.006999999 9.030088E-05 -1.490116E-10
v -0.006062177 9.030088E-05 0.0035
v -0.00866037 -5.393486E-05 0.002022637
v -0.007012752 -5.393486E-05 0.003615316
v -0.008660254 -5.393486E-05 0.005
v -0.006999999 -0.0004096991 -1.490116E-10
v -0.00866037 -0.0002654634 0.002022637
v -0.006062177 -0.0004096991 0.0035
v -0.007012752 -0.0002654634 0.003615316
v -0.008660254 -0.0002654634 0.005
v -0.007012752 -0.0002654634 0.003615316
v -0.007012752 -5.393486E-05 0.003615316
v -0.006062177 9.030088E-05 0.0035
v -0.006062177 -0.0004096991 0.0035
v -0.006999999 -0.0004096991 -1.490116E-10
v -0.006999999 9.030088E-05 -1.490116E-10
v -0.00866037 -5.393486E-05 0.002022637
v -0.00866037 -0.0002654634 0.002022637
v -0.00866037 -0.0002654634 0.002022637
v -0.00866037 -5.393486E-05 0.002022637
v -0.008660254 -5.393486E-05 0.005
v -0.008660254 -0.0002654634 0.005
v -0.008660254 -0.0002654634 0.005
v -0.008660254 -5.393486E-05 0.005
v -0.007012752 -5.393486E-05 0.003615316
v -0.007012752 -0.0002654634 0.003615316
v 0.0035 9.030088E-05 0.006062177
v 0.006062177 9.030088E-05 0.0035
v 0.006081841 -5.393486E-05 0.006488782
v 0.006637331 -5.393486E-05 0.004265564
v 0.008660254 -5.393486E-05 0.005
v 0.0035 -0.0004096991 0.006062177
v 0.006081841 -0.0002654634 0.006488782
v 0.006062177 -0.0004096991 0.0035
v 0.006637331 -0.0002654634 0.004265564
v 0.008660254 -0.0002654634 0.005
v 0.006637331 -0.0002654634 0.004265564
v 0.006637331 -5.393486E-05 0.004265564
v 0.006062177 9.030088E-05 0.0035
v 0.006062177 -0.0004096991 0.0035
v 0.0035 -0.0004096991 0.006062177
v 0.0035 9.030088E-05 0.006062177
v 0.006081841 -5.393486E-05 0.006488782
v 0.006081841 -0.0002654634 0.006488782
v 0.006081841 -0.0002654634 0.006488782
v 0.006081841 -5.393486E-05 0.006488782
v 0.008660254 -5.393486E-05 0.005
v 0.008660254 -0.0002654634 0.005
v 0.008660254 -0.0002654634 0.005
v 0.008660254 -5.393486E-05 0.005
v 0.006637331 -5.393486E-05 0.004265564
v 0.006637331 -0.0002654634 0.004265564
v 0.003615316 -5.393486E-05 0.007012752
v 0.005 -5.393486E-05 0.008660254
v 0.002022637 -5.393486E-05 0.00866037
v 0.0035 9.030088E-05 0.006062177
v -1.490116E-10 9.030088E-05 0.006999999
v -0.0003754207 -5.393486E-05 0.00788088
v -0.00257853 -5.393486E-05 0.008511419
v -4.143409E-18 -5.393486E-05 0.01
v 0.003615316 -0.0002654634 0.007012752
v 0.002022637 -0.0002654634 0.00866037
v 0.005 -0.0002654634 0.008660254
v 0.0035 -0.0004096991 0.006062177
v -1.490116E-10 -0.0004096991 0.006999999
v -0.00257853 -0.0002654634 0.008511419
v -0.0003754207 -0.0002654634 0.00788088
v -4.143409E-18 -0.0002654634 0.01
v 0.003615316 -0.0002654634 0.007012752
v 0.003615316 -5.393486E-05 0.007012752
v 0.0035 9.030088E-05 0.006062177
v 0.0035 -0.0004096991 0.006062177
v -1.490116E-10 -0.0004096991 0.006999999
v -1.490116E-10 9.030088E-05 0.006999999
v 0.002022637 -5.393486E-05 0.00866037
v 0.002022637 -0.0002654634 0.00866037
v 0.002022637 -0.0002654634 0.00866037
v 0.002022637 -5.393486E-05 0.00866037
v 0.005 -5.393486E-05 0.008660254
v 0.005 -0.0002654634 0.008660254
v 0.005 -0.0002654634 0.008660254
v 0.005 -5.393486E-05 0.008660254
v 0.003615316 -5.393486E-05 0.007012752
v 0.003615316 -0.0002654634 0.007012752
v -0.006062177 9.030088E-05 0.0035
v -0.0035 9.030088E-05 0.006062177
v -0.006488782 -5.393486E-05 0.006081841
v -0.004265564 -5.393486E-05 0.006637331
v -0.005 -5.393486E-05 0.008660254
v -0.006062177 -0.0004096991 0.0035
v -0.006488782 -0.0002654634 0.006081841
v -0.0035 -0.0004096991 0.006062177
v -0.004265564 -0.0002654634 0.006637331
v -0.005 -0.0002654634 0.008660254
v -0.004265564 -0.0002654634 0.006637331
v -0.004265564 -5.393486E-05 0.006637331
v -0.0035 9.030088E-05 0.006062177
v -0.0035 -0.0004096991 0.006062177
v -0.006062177 -0.0004096991 0.0035
v -0.006062177 9.030088E-05 0.0035
v -0.006488782 -5.393486E-05 0.006081841
v -0.006488782 -0.0002654634 0.006081841
v -0.006488782 -0.0002654634 0.006081841
v -0.006488782 -5.393486E-05 0.006081841
v -0.005 -5.393486E-05 0.008660254
v -0.005 -0.0002654634 0.008660254
v -0.005 -0.0002654634 0.008660254
v -0.005 -5.393486E-05 0.008660254
v -0.004265564 -5.393486E-05 0.006637331
v -0.004265564 -0.0002654634 0.006637331
v -0.0003754207 -0.0002654634 0.00788088
v -0.0003754207 -5.393486E-05 0.00788088
v -1.490116E-10 9.030088E-05 0.006999999
v -1.490116E-10 -0.0004096991 0.006999999
v -0.0035 -0.0004096991 0.006062177
v -0.0035 9.030088E-05 0.006062177
v -0.00257853 -5.393486E-05 0.008511419
v -0.00257853 -0.0002654634 0.008511419
v -0.00257853 -0.0002654634 0.008511419
v -0.00257853 -5.393486E-05 0.008511419
v -4.143409E-18 -5.393486E-05 0.01
v -4.143409E-18 -0.0002654634 0.01
v -4.143409E-18 -0.0002654634 0.01
v -4.143409E-18 -5.393486E-05 0.01
v -0.0003754207 -5.393486E-05 0.00788088
v -0.0003754207 -0.0002654634 0.00788088
v -0.0035 9.030088E-05 -0.006062177
v -0.006062177 9.030088E-05 -0.0035
v -0.006081841 -5.393486E-05 -0.006488782
v -0.006637331 -5.393486E-05 -0.004265564
v -0.008660254 -5.393486E-05 -0.005
v -0.0035 -0.0004096991 -0.006062177
v -0.006081841 -0.0002654634 -0.006488782
v -0.006062177 -0.0004096991 -0.0035
v -0.006637331 -0.0002654634 -0.004265564
v -0.008660254 -0.0002654634 -0.005
v -0.006637331 -0.0002654634 -0.004265564
v -0.006637331 -5.393486E-05 -0.004265564
v -0.006062177 9.030088E-05 -0.0035
v -0.006062177 -0.0004096991 -0.0035
v -0.0035 -0.0004096991 -0.006062177
v -0.0035 9.030088E-05 -0.006062177
v -0.006081841 -5.393486E-05 -0.006488782
v -0.006081841 -0.0002654634 -0.006488782
v -0.006081841 -0.0002654634 -0.006488782
v -0.006081841 -5.393486E-05 -0.006488782
v -0.008660254 -5.393486E-05 -0.005
v -0.008660254 -0.0002654634 -0.005
v -0.008660254 -0.0002654634 -0.005
v -0.008660254 -5.393486E-05 -0.005
v -0.006637331 -5.393486E-05 -0.004265564
v -0.006637331 -0.0002654634 -0.004265564
v -0.006062177 9.030088E-05 -0.0035
v -0.006999999 9.030088E-05 -1.490116E-10
v -0.008511419 -5.393486E-05 -0.00257853
v -0.00788088 -5.393486E-05 -0.0003754207
v -0.01 -5.393486E-05 -1.922963E-18
v -0.006062177 -0.0004096991 -0.0035
v -0.008511419 -0.0002654634 -0.00257853
v -0.006999999 -0.0004096991 -1.490116E-10
v -0.00788088 -0.0002654634 -0.0003754207
v -0.01 -0.0002654634 -1.922963E-18
v -0.00788088 -0.0002654634 -0.0003754207
v -0.00788088 -5.393486E-05 -0.0003754207
v -0.006999999 9.030088E-05 -1.490116E-10
v -0.006999999 -0.0004096991 -1.490116E-10
v -0.006062177 -0.0004096991 -0.0035
v -0.006062177 9.030088E-05 -0.0035
v -0.008511419 -5.393486E-05 -0.00257853
v -0.008511419 -0.0002654634 -0.00257853
v -0.008511419 -0.0002654634 -0.00257853
v -0.008511419 -5.393486E-05 -0.00257853
v -0.01 -5.393486E-05 -1.922963E-18
v -0.01 -0.0002654634 -1.922963E-18
v -0.01 -0.0002654634 -1.922963E-18
v -0.01 -5.393486E-05 -1.922963E-18
v -0.00788088 -5.393486E-05 -0.0003754207
v -0.00788088 -0.0002654634 -0.0003754207
v 0.0035 -0.0004096991 -0.006062177
v 1.490116E-10 -0.0004096991 -0.006999999
v -2.220446E-18 -0.0004096991 1.102908E-26
v 0.006062177 -0.0004096991 -0.0035
v -0.0035 -0.0004096991 -0.006062177
v 0.006999999 -0.0004096991 1.490116E-10
v -0.006062177 -0.0004096991 -0.0035
v 0.006062177 -0.0004096991 0.0035
v -0.006999999 -0.0004096991 -1.490116E-10
v 0.0035 -0.0004096991 0.006062177
v -0.006062177 -0.0004096991 0.0035
v -1.490116E-10 -0.0004096991 0.006999999
v -0.0035 -0.0004096991 0.006062177
v 0.0035 9.030088E-05 -0.006062177
v -2.220446E-18 9.030096E-05 1.102908E-26
v 1.490116E-10 9.030088E-05 -0.006999999
v 0.006062177 9.030088E-05 -0.0035
v -0.0035 9.030088E-05 -0.006062177
v 0.006999999 9.030088E-05 1.490116E-10
v -0.006062177 9.030088E-05 -0.0035
v 0.006062177 9.030088E-05 0.0035
v -0.006999999 9.030088E-05 -1.490116E-10
v 0.0035 9.030088E-05 0.006062177
v -0.006062177 9.030088E-05 0.0035
v -1.490116E-10 9.030088E-05 0.006999999
v -0.0035 9.030088E-05 0.006062177
v 0.001590399 -0.0007746987 -0.002754652
v 0 -0.0007746987 0
v 0.002754652 -0.0007746987 -0.001590399
v 0 -0.0007746987 -0.003180798
v 0.003180798 -0.0007746987 0
v -0.001590399 -0.0007746987 -0.002754652
v 0.002754652 -0.0007746987 0.001590399
v -0.002754652 -0.0007746987 -0.001590399
v 0.001590399 -0.0007746987 0.002754652
v -0.003180798 -0.0007746987 0
v 0 -0.0007746987 0.003180798
v -0.002754652 -0.0007746987 0.001590399
v -0.001590399 -0.0007746987 0.002754652
v 0.002754652 0.0007746989 -0.001590399
v 0 0.0007746989 0
v 0.001590399 0.0007746989 -0.002754652
v 0.003180798 0.0007746989 0
v 0 0.0007746989 -0.003180798
v 0.002754652 0.0007746989 0.001590399
v -0.001590399 0.0007746989 -0.002754652
v 0.001590399 0.0007746989 0.002754652
v -0.002754652 0.0007746989 -0.001590399
v 0 0.0007746989 0.003180798
v -0.003180798 0.0007746989 0
v -0.001590399 0.0007746989 0.002754652
v -0.002754652 0.0007746989 0.001590399
vt 0.7128906 0.9794922
vt 0.7158203 0.9794922
vt 0.7207031 0.9609375
vt 0.7128906 0.9150391
vt 0.7207031 0.9335938
vt 0.7158203 0.9150391
vt 0.6738281 0.9794922
vt 0.6708984 0.9794922
vt 0.6660156 0.9609375
vt 0.6738281 0.9150391
vt 0.6660156 0.9335938
vt 0.6708984 0.9150391
vt 0.05636597 0.5444336
vt 0.05636597 0.5717773
vt 0.05789185 0.5717773
vt 0.05789185 0.5444336
vt 0.05789185 0.5444336
vt 0.05789185 0.5717773
vt 0.05941772 0.5717773
vt 0.05941772 0.5444336
vt 0.05941772 0.5444336
vt 0.05941772 0.5717773
vt 0.06091309 0.5717773
vt 0.06091309 0.5444336
vt 0.06091309 0.5444336
vt 0.06091309 0.5717773
vt 0.06243896 0.5717773
vt 0.06243896 0.5444336
vt 0.06243896 0.5444336
vt 0.06243896 0.5717773
vt 0.06396484 0.5717773
vt 0.06396484 0.5444336
vt 0.06396484 0.5444336
vt 0.06396484 0.5717773
vt 0.06549072 0.5717773
vt 0.06549072 0.5444336
vt 0.06549072 0.5444336
vt 0.06549072 0.5717773
vt 0.0670166 0.5717773
vt 0.0670166 0.5444336
vt 0.0670166 0.5444336
vt 0.0670166 0.5717773
vt 0.06848145 0.5717773
vt 0.06848145 0.5444336
vt 0.06848145 0.5444336
vt 0.06848145 0.5717773
vt 0.07000732 0.5717773
vt 0.07000732 0.5444336
vt 0.07000732 0.5444336
vt 0.07000732 0.5717773
vt 0.0715332 0.5717773
vt 0.0715332 0.5444336
vt 0.0715332 0.5444336
vt 0.0715332 0.5717773
vt 0.07305908 0.5717773
vt 0.07305908 0.5444336
vt 0.07305908 0.5444336
vt 0.07305908 0.5717773
vt 0.07458496 0.5717773
vt 0.07458496 0.5444336
vt 0.71875 0.9609375
vt 0.7255859 0.9609375
vt 0.7207031 0.9609375
vt 0.7158203 0.9794922
vt 0.7128906 0.9794922
vt 0.7211914 0.9609375
vt 0.7158203 0.9609375
vt 0.7211914 0.9609375
vt 0.71875 0.9335938
vt 0.7207031 0.9335938
vt 0.7255859 0.9335938
vt 0.7158203 0.9150391
vt 0.7211914 0.9335938
vt 0.7128906 0.9150391
vt 0.7158203 0.9335938
vt 0.7211914 0.9335938
vt 0.71875 0.9335938
vt 0.71875 0.9609375
vt 0.7158203 0.9794922
vt 0.7158203 0.9150391
vt 0.7128906 0.9150391
vt 0.7128906 0.9794922
vt 0.7207031 0.9609375
vt 0.7207031 0.9335938
vt 0.7207031 0.9335938
vt 0.7207031 0.9609375
vt 0.7255859 0.9609375
vt 0.7255859 0.9335938
vt 0.7255859 0.9335938
vt 0.7255859 0.9609375
vt 0.71875 0.9609375
vt 0.71875 0.9335938
vt 0.7045898 0.9794922
vt 0.7128906 0.9794922
vt 0.7128906 0.9609375
vt 0.7148438 0.9609375
vt 0.7211914 0.9609375
vt 0.7045898 0.9150391
vt 0.7128906 0.9335938
vt 0.7128906 0.9150391
vt 0.7148438 0.9335938
vt 0.7211914 0.9335938
vt 0.7148438 0.9335938
vt 0.7148438 0.9609375
vt 0.7128906 0.9794922
vt 0.7128906 0.9150391
vt 0.7045898 0.9150391
vt 0.7045898 0.9794922
vt 0.7128906 0.9609375
vt 0.7128906 0.9335938
vt 0.7128906 0.9335938
vt 0.7128906 0.9609375
vt 0.7211914 0.9609375
vt 0.7211914 0.9335938
vt 0.7211914 0.9335938
vt 0.7211914 0.9609375
vt 0.7148438 0.9609375
vt 0.7148438 0.9335938
vt 0.6821289 0.9794922
vt 0.6933594 0.9794922
vt 0.6850586 0.9609375
vt 0.6918945 0.9609375
vt 0.6933594 0.9609375
vt 0.6821289 0.9150391
vt 0.6850586 0.9335938
vt 0.6933594 0.9150391
vt 0.6918945 0.9335938
vt 0.6933594 0.9335938
vt 0.6918945 0.9335938
vt 0.6918945 0.9609375
vt 0.6933594 0.9794922
vt 0.6933594 0.9150391
vt 0.6821289 0.9150391
vt 0.6821289 0.9794922
vt 0.6850586 0.9609375
vt 0.6850586 0.9335938
vt 0.6850586 0.9335938
vt 0.6850586 0.9609375
vt 0.6933594 0.9609375
vt 0.6933594 0.9335938
vt 0.6933594 0.9335938
vt 0.6933594 0.9609375
vt 0.6918945 0.9609375
vt 0.6918945 0.9335938
vt 0.7158203 0.9335938
vt 0.7158203 0.9609375
vt 0.7128906 0.9794922
vt 0.7128906 0.9150391
vt 0.7158203 0.9150391
vt 0.7158203 0.9794922
vt 0.7211914 0.9609375
vt 0.7211914 0.9335938
vt 0.7211914 0.9335938
vt 0.7211914 0.9609375
vt 0.7211914 0.9609375
vt 0.7211914 0.9335938
vt 0.7211914 0.9335938
vt 0.7211914 0.9609375
vt 0.7158203 0.9609375
vt 0.7158203 0.9335938
vt 0.6933594 0.9794922
vt 0.7045898 0.9794922
vt 0.699707 0.9609375
vt 0.7050781 0.9609375
vt 0.7094727 0.9609375
vt 0.6933594 0.9150391
vt 0.699707 0.9335938
vt 0.7045898 0.9150391
vt 0.7050781 0.9335938
vt 0.7094727 0.9335938
vt 0.7050781 0.9335938
vt 0.7050781 0.9609375
vt 0.7045898 0.9794922
vt 0.7045898 0.9150391
vt 0.6933594 0.9150391
vt 0.6933594 0.9794922
vt 0.699707 0.9609375
vt 0.699707 0.9335938
vt 0.699707 0.9335938
vt 0.699707 0.9609375
vt 0.7094727 0.9609375
vt 0.7094727 0.9335938
vt 0.7094727 0.9335938
vt 0.7094727 0.9609375
vt 0.7050781 0.9609375
vt 0.7050781 0.9335938
vt 0.6933594 0.9794922
vt 0.6821289 0.9794922
vt 0.6870117 0.9609375
vt 0.6816406 0.9609375
vt 0.6772461 0.9609375
vt 0.6933594 0.9150391
vt 0.6870117 0.9335938
vt 0.6821289 0.9150391
vt 0.6816406 0.9335938
vt 0.6772461 0.9335938
vt 0.6816406 0.9335938
vt 0.6816406 0.9609375
vt 0.6821289 0.9794922
vt 0.6821289 0.9150391
vt 0.6933594 0.9150391
vt 0.6933594 0.9794922
vt 0.6870117 0.9609375
vt 0.6870117 0.9335938
vt 0.6870117 0.9335938
vt 0.6870117 0.9609375
vt 0.6772461 0.9609375
vt 0.6772461 0.9335938
vt 0.6772461 0.9335938
vt 0.6772461 0.9609375
vt 0.6816406 0.9609375
vt 0.6816406 0.9335938
vt 0.6738281 0.9794922
vt 0.6821289 0.9794922
vt 0.6723633 0.9609375
vt 0.6796875 0.9609375
vt 0.6772461 0.9609375
vt 0.6738281 0.9150391
vt 0.6723633 0.9335938
vt 0.6821289 0.9150391
vt 0.6796875 0.9335938
vt 0.6772461 0.9335938
vt 0.6796875 0.9335938
vt 0.6796875 0.9609375
vt 0.6821289 0.9794922
vt 0.6821289 0.9150391
vt 0.6738281 0.9150391
vt 0.6738281 0.9794922
vt 0.6723633 0.9609375
vt 0.6723633 0.9335938
vt 0.6723633 0.9335938
vt 0.6723633 0.9609375
vt 0.6772461 0.9609375
vt 0.6772461 0.9335938
vt 0.6772461 0.9335938
vt 0.6772461 0.9609375
vt 0.6796875 0.9609375
vt 0.6796875 0.9335938
vt 0.6708984 0.9609375
vt 0.6655273 0.9609375
vt 0.6655273 0.9609375
vt 0.6738281 0.9794922
vt 0.6708984 0.9794922
vt 0.6679688 0.9609375
vt 0.6660156 0.9609375
vt 0.6611328 0.9609375
vt 0.6708984 0.9335938
vt 0.6655273 0.9335938
vt 0.6655273 0.9335938
vt 0.6738281 0.9150391
vt 0.6708984 0.9150391
vt 0.6660156 0.9335938
vt 0.6679688 0.9335938
vt 0.6611328 0.9335938
vt 0.6708984 0.9335938
vt 0.6708984 0.9609375
vt 0.6738281 0.9794922
vt 0.6738281 0.9150391
vt 0.6708984 0.9150391
vt 0.6708984 0.9794922
vt 0.6655273 0.9609375
vt 0.6655273 0.9335938
vt 0.6655273 0.9335938
vt 0.6655273 0.9609375
vt 0.6655273 0.9609375
vt 0.6655273 0.9335938
vt 0.6655273 0.9335938
vt 0.6655273 0.9609375
vt 0.6708984 0.9609375
vt 0.6708984 0.9335938
vt 0.6821289 0.9794922
vt 0.6738281 0.9794922
vt 0.6738281 0.9609375
vt 0.671875 0.9609375
vt 0.6655273 0.9609375
vt 0.6821289 0.9150391
vt 0.6738281 0.9335938
vt 0.6738281 0.9150391
vt 0.671875 0.9335938
vt 0.6655273 0.9335938
vt 0.671875 0.9335938
vt 0.671875 0.9609375
vt 0.6738281 0.9794922
vt 0.6738281 0.9150391
vt 0.6821289 0.9150391
vt 0.6821289 0.9794922
vt 0.6738281 0.9609375
vt 0.6738281 0.9335938
vt 0.6738281 0.9335938
vt 0.6738281 0.9609375
vt 0.6655273 0.9609375
vt 0.6655273 0.9335938
vt 0.6655273 0.9335938
vt 0.6655273 0.9609375
vt 0.671875 0.9609375
vt 0.671875 0.9335938
vt 0.6679688 0.9335938
vt 0.6679688 0.9609375
vt 0.6708984 0.9794922
vt 0.6708984 0.9150391
vt 0.6738281 0.9150391
vt 0.6738281 0.9794922
vt 0.6660156 0.9609375
vt 0.6660156 0.9335938
vt 0.6660156 0.9335938
vt 0.6660156 0.9609375
vt 0.6611328 0.9609375
vt 0.6611328 0.9335938
vt 0.6611328 0.9335938
vt 0.6611328 0.9609375
vt 0.6679688 0.9609375
vt 0.6679688 0.9335938
vt 0.7128906 0.9794922
vt 0.7045898 0.9794922
vt 0.7143555 0.9609375
vt 0.7070313 0.9609375
vt 0.7094727 0.9609375
vt 0.7128906 0.9150391
vt 0.7143555 0.9335938
vt 0.7045898 0.9150391
vt 0.7070313 0.9335938
vt 0.7094727 0.9335938
vt 0.7070313 0.9335938
vt 0.7070313 0.9609375
vt 0.7045898 0.9794922
vt 0.7045898 0.9150391
vt 0.7128906 0.9150391
vt 0.7128906 0.9794922
vt 0.7143555 0.9609375
vt 0.7143555 0.9335938
vt 0.7143555 0.9335938
vt 0.7143555 0.9609375
vt 0.7094727 0.9609375
vt 0.7094727 0.9335938
vt 0.7094727 0.9335938
vt 0.7094727 0.9609375
vt 0.7070313 0.9609375
vt 0.7070313 0.9335938
vt 0.7045898 0.9794922
vt 0.6933594 0.9794922
vt 0.7016602 0.9609375
vt 0.6943359 0.9609375
vt 0.6933594 0.9609375
vt 0.7045898 0.9150391
vt 0.7016602 0.9335938
vt 0.6933594 0.9150391
vt 0.6943359 0.9335938
vt 0.6933594 0.9335938
vt 0.6943359 0.9335938
vt 0.6943359 0.9609375
vt 0.6933594 0.9794922
vt 0.6933594 0.9150391
vt 0.7045898 0.9150391
vt 0.7045898 0.9794922
vt 0.7016602 0.9609375
vt 0.7016602 0.9335938
vt 0.7016602 0.9335938
vt 0.7016602 0.9609375
vt 0.6933594 0.9609375
vt 0.6933594 0.9335938
vt 0.6933594 0.9335938
vt 0.6933594 0.9609375
vt 0.6943359 0.9609375
vt 0.6943359 0.9335938
vt 0.7089844 0.9101563
vt 0.6899414 0.9047852
vt 0.6899414 0.9433594
vt 0.7231445 0.9243164
vt 0.6704102 0.9101563
vt 0.7280273 0.9433594
vt 0.65625 0.9243164
vt 0.7231445 0.9628906
vt 0.6513672 0.9433594
vt 0.7089844 0.9765625
vt 0.65625 0.9628906
vt 0.6899414 0.9819336
vt 0.6704102 0.9765625
vt 0.7089844 0.9765625
vt 0.6899414 0.9433594
vt 0.6899414 0.9819336
vt 0.7231445 0.9628906
vt 0.6704102 0.9765625
vt 0.7280273 0.9433594
vt 0.65625 0.9628906
vt 0.7231445 0.9243164
vt 0.6513672 0.9433594
vt 0.7089844 0.9101563
vt 0.65625 0.9243164
vt 0.6899414 0.9047852
vt 0.6704102 0.9101563
vt 0.07116699 0.5229492
vt 0.06549072 0.5322266
vt 0.07531738 0.5273438
vt 0.06549072 0.5214844
vt 0.07684326 0.5327148
vt 0.05978394 0.5229492
vt 0.07531738 0.5385742
vt 0.05563354 0.5273438
vt 0.07116699 0.5424805
vt 0.05410767 0.5327148
vt 0.06549072 0.5444336
vt 0.05563354 0.5385742
vt 0.05978394 0.5424805
vt 0.07531738 0.5883789
vt 0.06549072 0.5825195
vt 0.07116699 0.5927734
vt 0.07684326 0.5830078
vt 0.06549072 0.5942383
vt 0.07531738 0.5771484
vt 0.05978394 0.5927734
vt 0.07116699 0.5732422
vt 0.05563354 0.5883789
vt 0.06549072 0.5717773
vt 0.05410767 0.5830078
vt 0.05978394 0.5732422
vt 0.05563354 0.5771484
vn 0.003261566 1 -0.01217651
vn 0.001244545 1 -0.01538849
vn 0.01093292 0.9985352 -0.05187988
vn 0.003261566 -1 -0.01217651
vn 0.01093292 -0.9985352 -0.05187988
vn 0.001244545 -1 -0.01538849
vn -0.003261566 1 0.01217651
vn -0.001244545 1 0.01538849
vn -0.01093292 0.9985352 0.05187988
vn -0.003261566 -1 0.01217651
vn -0.01093292 -0.9985352 0.05187988
vn -0.001244545 -1 0.01538849
vn 0.7070313 0 -0.7070313
vn 0.7070313 0 -0.7070313
vn 0.7070313 0 -0.7070313
vn 0.7070313 0 -0.7070313
vn 0.2587891 0 -0.9658203
vn 0.2587891 0 -0.9658203
vn 0.2587891 0 -0.9658203
vn 0.2587891 0 -0.9658203
vn -0.2587891 0 -0.9658203
vn -0.2587891 0 -0.9658203
vn -0.2587891 0 -0.9658203
vn -0.2587891 0 -0.9658203
vn -0.7070313 0 -0.7070313
vn -0.7070313 0 -0.7070313
vn -0.7070313 0 -0.7070313
vn -0.7070313 0 -0.7070313
vn -0.9658203 0 -0.2587891
vn -0.9658203 0 -0.2587891
vn -0.9658203 0 -0.2587891
vn -0.9658203 0 -0.2587891
vn -0.9658203 0 0.2587891
vn -0.9658203 0 0.2587891
vn -0.9658203 0 0.2587891
vn -0.9658203 0 0.2587891
vn -0.7070313 0 0.7070313
vn -0.7070313 0 0.7070313
vn -0.7070313 0 0.7070313
vn -0.7070313 0 0.7070313
vn -0.2587891 0 0.9658203
vn -0.2587891 0 0.9658203
vn -0.2587891 0 0.9658203
vn -0.2587891 0 0.9658203
vn 0.2587891 0 0.9658203
vn 0.2587891 0 0.9658203
vn 0.2587891 0 0.9658203
vn 0.2587891 0 0.9658203
vn 0.7070313 0 0.7070313
vn 0.7070313 0 0.7070313
vn 0.7070313 0 0.7070313
vn 0.7070313 0 0.7070313
vn 0.9658203 0 0.2587891
vn 0.9658203 0 0.2587891
vn 0.9658203 0 0.2587891
vn 0.9658203 0 0.2587891
vn 0.9658203 0 -0.2587891
vn 0.9658203 0 -0.2587891
vn 0.9658203 0 -0.2587891
vn 0.9658203 0 -0.2587891
vn -0.01847839 0.9975586 -0.06451416
vn 0 1 0
vn 0.01093292 0.9985352 -0.05187988
vn 0.001244545 1 -0.01538849
vn -0.006614685 1 -0.01394653
vn -0.01647949 0.9985352 -0.05041504
vn -0.04827881 0.9975586 -0.04666138
vn 0 1 0
vn -0.01847839 -0.9975586 -0.06451416
vn 0.01093292 -0.9985352 -0.05187988
vn 0 -1 0
vn 0.001244545 -1 -0.01538849
vn -0.01647949 -0.9985352 -0.05041504
vn -0.006614685 -1 -0.01394653
vn -0.04827881 -0.9975586 -0.04666138
vn 0 -1 0
vn -0.9199219 0 -0.3920898
vn -0.9199219 0 -0.3920898
vn -0.9199219 0 -0.3920898
vn -0.9199219 0 -0.3920898
vn 0.9360352 0 -0.3520508
vn 0.9360352 0 -0.3520508
vn 0.9360352 0 -0.3520508
vn 0.9360352 0 -0.3520508
vn 0.5 0 -0.8662109
vn 0.5 0 -0.8662109
vn 0.5 0 -0.8662109
vn 0.5 0 -0.8662109
vn -0.9848633 0 0.1744385
vn -0.9848633 0 0.1744385
vn -0.9848633 0 0.1744385
vn -0.9848633 0 0.1744385
vn 0.008911133 1 -0.008911133
vn 0.008773804 1 -0.01270294
vn 0.03540039 0.9985352 -0.03945923
vn 0.01626587 0.9975586 -0.06512451
vn 0 1 0
vn 0.008911133 -1 -0.008911133
vn 0.03540039 -0.9985352 -0.03945923
vn 0.008773804 -1 -0.01270294
vn 0.01626587 -0.9975586 -0.06512451
vn 0 -1 0
vn -0.6005859 0 -0.7993164
vn -0.6005859 0 -0.7993164
vn -0.6005859 0 -0.7993164
vn -0.6005859 0 -0.7993164
vn 0.9868164 0 0.1629639
vn 0.9868164 0 0.1629639
vn 0.9868164 0 0.1629639
vn 0.9868164 0 0.1629639
vn 0.8662109 0 -0.5
vn 0.8662109 0 -0.5
vn 0.8662109 0 -0.5
vn 0.8662109 0 -0.5
vn -0.9399414 0 -0.3413086
vn -0.9399414 0 -0.3413086
vn -0.9399414 0 -0.3413086
vn -0.9399414 0 -0.3413086
vn 0.01217651 1 0.003261566
vn 0.01538849 1 0.001244545
vn 0.05187988 0.9985352 0.01093292
vn 0.06451416 0.9975586 -0.01847839
vn 0 1 0
vn 0.01217651 -1 0.003261566
vn 0.05187988 -0.9985352 0.01093292
vn 0.01538849 -1 0.001244545
vn 0.06451416 -0.9975586 -0.01847839
vn 0 -1 0
vn 0.3920898 0 -0.9199219
vn 0.3920898 0 -0.9199219
vn 0.3920898 0 -0.9199219
vn 0.3920898 0 -0.9199219
vn 0.3520508 0 0.9360352
vn 0.3520508 0 0.9360352
vn 0.3520508 0 0.9360352
vn 0.3520508 0 0.9360352
vn 0.8662109 0 0.5
vn 0.8662109 0 0.5
vn 0.8662109 0 0.5
vn 0.8662109 0 0.5
vn -0.1744385 0 -0.9848633
vn -0.1744385 0 -0.9848633
vn -0.1744385 0 -0.9848633
vn -0.1744385 0 -0.9848633
vn -0.9926758 0 0.1204224
vn -0.9926758 0 0.1204224
vn -0.9926758 0 0.1204224
vn -0.9926758 0 0.1204224
vn 0.6342773 0 -0.7729492
vn 0.6342773 0 -0.7729492
vn 0.6342773 0 -0.7729492
vn 0.6342773 0 -0.7729492
vn -3.933907E-05 0 -1
vn -3.933907E-05 0 -1
vn -3.933907E-05 0 -1
vn -3.933907E-05 0 -1
vn -0.765625 0 0.6435547
vn -0.765625 0 0.6435547
vn -0.765625 0 0.6435547
vn -0.765625 0 0.6435547
vn 0.01217651 1 -0.003261566
vn 0.01394653 1 -0.006614685
vn 0.05041504 0.9985352 -0.01647949
vn 0.04666138 0.9975586 -0.04827881
vn 0 1 0
vn 0.01217651 -1 -0.003261566
vn 0.05041504 -0.9985352 -0.01647949
vn 0.01394653 -1 -0.006614685
vn 0.04666138 -0.9975586 -0.04827881
vn 0 -1 0
vn -0.1204224 0 -0.9926758
vn -0.1204224 0 -0.9926758
vn -0.1204224 0 -0.9926758
vn -0.1204224 0 -0.9926758
vn 0.7729492 0 0.6342773
vn 0.7729492 0 0.6342773
vn 0.7729492 0 0.6342773
vn 0.7729492 0 0.6342773
vn 1 0 -3.921986E-05
vn 1 0 -3.921986E-05
vn 1 0 -3.921986E-05
vn 1 0 -3.921986E-05
vn -0.6435547 0 -0.765625
vn -0.6435547 0 -0.765625
vn -0.6435547 0 -0.765625
vn -0.6435547 0 -0.765625
vn -0.01217651 1 0.003261566
vn -0.01394653 1 0.006614685
vn -0.05041504 0.9985352 0.01647949
vn -0.04666138 0.9975586 0.04827881
vn 0 1 0
vn -0.01217651 -1 0.003261566
vn -0.05041504 -0.9985352 0.01647949
vn -0.01394653 -1 0.006614685
vn -0.04666138 -0.9975586 0.04827881
vn 0 -1 0
vn 0.1204224 0 0.9926758
vn 0.1204224 0 0.9926758
vn 0.1204224 0 0.9926758
vn 0.1204224 0 0.9926758
vn -0.7729492 0 -0.6342773
vn -0.7729492 0 -0.6342773
vn -0.7729492 0 -0.6342773
vn -0.7729492 0 -0.6342773
vn -1 0 3.921986E-05
vn -1 0 3.921986E-05
vn -1 0 3.921986E-05
vn -1 0 3.921986E-05
vn 0.6435547 0 0.765625
vn 0.6435547 0 0.765625
vn 0.6435547 0 0.765625
vn 0.6435547 0 0.765625
vn 0.008911133 1 0.008911133
vn 0.01270294 1 0.008773804
vn 0.03945923 0.9985352 0.03540039
vn 0.06512451 0.9975586 0.01626587
vn 0 1 0
vn 0.008911133 -1 0.008911133
vn 0.03945923 -0.9985352 0.03540039
vn 0.01270294 -1 0.008773804
vn 0.06512451 -0.9975586 0.01626587
vn 0 -1 0
vn 0.7993164 0 -0.6005859
vn 0.7993164 0 -0.6005859
vn 0.7993164 0 -0.6005859
vn 0.7993164 0 -0.6005859
vn -0.1629639 0 0.9868164
vn -0.1629639 0 0.9868164
vn -0.1629639 0 0.9868164
vn -0.1629639 0 0.9868164
vn 0.5 0 0.8662109
vn 0.5 0 0.8662109
vn 0.5 0 0.8662109
vn 0.5 0 0.8662109
vn 0.3413086 0 -0.9399414
vn 0.3413086 0 -0.9399414
vn 0.3413086 0 -0.9399414
vn 0.3413086 0 -0.9399414
vn 0.04827881 0.9975586 0.04666138
vn 0 1 0
vn 0.01647949 0.9985352 0.05041504
vn 0.006614685 1 0.01394653
vn 0.003261566 1 0.01217651
vn 0.01847839 0.9975586 0.06451416
vn -0.01093292 0.9985352 0.05187988
vn 0 1 0
vn 0.04827881 -0.9975586 0.04666138
vn 0.01647949 -0.9985352 0.05041504
vn 0 -1 0
vn 0.006614685 -1 0.01394653
vn 0.003261566 -1 0.01217651
vn -0.01093292 -0.9985352 0.05187988
vn 0.01847839 -0.9975586 0.06451416
vn 0 -1 0
vn 0.9926758 0 -0.1204224
vn 0.9926758 0 -0.1204224
vn 0.9926758 0 -0.1204224
vn 0.9926758 0 -0.1204224
vn -0.6342773 0 0.7729492
vn -0.6342773 0 0.7729492
vn -0.6342773 0 0.7729492
vn -0.6342773 0 0.7729492
vn 3.933907E-05 0 1
vn 3.933907E-05 0 1
vn 3.933907E-05 0 1
vn 3.933907E-05 0 1
vn 0.765625 0 -0.6435547
vn 0.765625 0 -0.6435547
vn 0.765625 0 -0.6435547
vn 0.765625 0 -0.6435547
vn -0.008911133 1 0.008911133
vn -0.008773804 1 0.01270294
vn -0.03540039 0.9985352 0.03945923
vn -0.01626587 0.9975586 0.06512451
vn 0 1 0
vn -0.008911133 -1 0.008911133
vn -0.03540039 -0.9985352 0.03945923
vn -0.008773804 -1 0.01270294
vn -0.01626587 -0.9975586 0.06512451
vn 0 -1 0
vn 0.6005859 0 0.7993164
vn 0.6005859 0 0.7993164
vn 0.6005859 0 0.7993164
vn 0.6005859 0 0.7993164
vn -0.9868164 0 -0.1629639
vn -0.9868164 0 -0.1629639
vn -0.9868164 0 -0.1629639
vn -0.9868164 0 -0.1629639
vn -0.8662109 0 0.5
vn -0.8662109 0 0.5
vn -0.8662109 0 0.5
vn -0.8662109 0 0.5
vn 0.9399414 0 0.3413086
vn 0.9399414 0 0.3413086
vn 0.9399414 0 0.3413086
vn 0.9399414 0 0.3413086
vn 0.9199219 0 0.3920898
vn 0.9199219 0 0.3920898
vn 0.9199219 0 0.3920898
vn 0.9199219 0 0.3920898
vn -0.9360352 0 0.3520508
vn -0.9360352 0 0.3520508
vn -0.9360352 0 0.3520508
vn -0.9360352 0 0.3520508
vn -0.5 0 0.8662109
vn -0.5 0 0.8662109
vn -0.5 0 0.8662109
vn -0.5 0 0.8662109
vn 0.9848633 0 -0.1744385
vn 0.9848633 0 -0.1744385
vn 0.9848633 0 -0.1744385
vn 0.9848633 0 -0.1744385
vn -0.008911133 1 -0.008911133
vn -0.01270294 1 -0.008773804
vn -0.03945923 0.9985352 -0.03540039
vn -0.06512451 0.9975586 -0.01626587
vn 0 1 0
vn -0.008911133 -1 -0.008911133
vn -0.03945923 -0.9985352 -0.03540039
vn -0.01270294 -1 -0.008773804
vn -0.06512451 -0.9975586 -0.01626587
vn 0 -1 0
vn -0.7993164 0 0.6005859
vn -0.7993164 0 0.6005859
vn -0.7993164 0 0.6005859
vn -0.7993164 0 0.6005859
vn 0.1629639 0 -0.9868164
vn 0.1629639 0 -0.9868164
vn 0.1629639 0 -0.9868164
vn 0.1629639 0 -0.9868164
vn -0.5 0 -0.8662109
vn -0.5 0 -0.8662109
vn -0.5 0 -0.8662109
vn -0.5 0 -0.8662109
vn -0.3413086 0 0.9399414
vn -0.3413086 0 0.9399414
vn -0.3413086 0 0.9399414
vn -0.3413086 0 0.9399414
vn -0.01217651 1 -0.003261566
vn -0.01538849 1 -0.001244545
vn -0.05187988 0.9985352 -0.01093292
vn -0.06451416 0.9975586 0.01847839
vn 0 1 0
vn -0.01217651 -1 -0.003261566
vn -0.05187988 -0.9985352 -0.01093292
vn -0.01538849 -1 -0.001244545
vn -0.06451416 -0.9975586 0.01847839
vn 0 -1 0
vn -0.3920898 0 0.9199219
vn -0.3920898 0 0.9199219
vn -0.3920898 0 0.9199219
vn -0.3920898 0 0.9199219
vn -0.3520508 0 -0.9360352
vn -0.3520508 0 -0.9360352
vn -0.3520508 0 -0.9360352
vn -0.3520508 0 -0.9360352
vn -0.8662109 0 -0.5
vn -0.8662109 0 -0.5
vn -0.8662109 0 -0.5
vn -0.8662109 0 -0.5
vn 0.1744385 0 0.9848633
vn 0.1744385 0 0.9848633
vn 0.1744385 0 0.9848633
vn 0.1744385 0 0.9848633
vn 0.003261566 -1 -0.01217651
vn 0.001244545 -1 -0.01538849
vn 0 -1 0
vn 0.008911133 -1 -0.008911133
vn -0.006614685 -1 -0.01394653
vn 0.01538849 -1 0.001244545
vn -0.01270294 -1 -0.008773804
vn 0.01217651 -1 0.003261566
vn -0.01217651 -1 0.003261566
vn 0.008911133 -1 0.008911133
vn -0.01394653 -1 0.006614685
vn 0.003261566 -1 0.01217651
vn -0.008773804 -1 0.01270294
vn 0.003261566 1 -0.01217651
vn 0 1 0
vn 0.001244545 1 -0.01538849
vn 0.008911133 1 -0.008911133
vn -0.006614685 1 -0.01394653
vn 0.01538849 1 0.001244545
vn -0.01270294 1 -0.008773804
vn 0.01217651 1 0.003261566
vn -0.01217651 1 0.003261566
vn 0.008911133 1 0.008911133
vn -0.01394653 1 0.006614685
vn 0.003261566 1 0.01217651
vn -0.008773804 1 0.01270294
vn 0 -1 0
vn 0 -1 0
vn 0 -1 0
vn 0 -1 0
vn 0 -1 0
vn 0 -1 0
vn 0 -1 0
vn 0 -1 0
vn 0 -1 0
vn 0 -1 0
vn 0 -1 0
vn 0 -1 0
vn 0 -1 0
vn 0 1 0
vn 0 1 0
vn 0 1 0
vn 0 1 0
vn 0 1 0
vn 0 1 0
vn 0 1 0
vn 0 1 0
vn 0 1 0
vn 0 1 0
vn 0 1 0
vn 0 1 0
vn 0 1 0
g weapon_grass_knife_01_0
f 3/3/3 2/2/2 1/1/1
f 6/6/6 5/5/5 4/4/4
f 9/9/9 8/8/8 7/7/7
f 12/12/12 11/11/11 10/10/10
f 15/15/15 14/14/14 13/13/13
f 16/16/16 15/15/15 13/13/13
f 19/19/19 18/18/18 17/17/17
f 20/20/20 19/19/19 17/17/17
f 23/23/23 22/22/22 21/21/21
f 24/24/24 23/23/23 21/21/21
f 27/27/27 26/26/26 25/25/25
f 28/28/28 27/27/27 25/25/25
f 31/31/31 30/30/30 29/29/29
f 32/32/32 31/31/31 29/29/29
f 35/35/35 34/34/34 33/33/33
f 36/36/36 35/35/35 33/33/33
f 39/39/39 38/38/38 37/37/37
f 40/40/40 39/39/39 37/37/37
f 43/43/43 42/42/42 41/41/41
f 44/44/44 43/43/43 41/41/41
f 47/47/47 46/46/46 45/45/45
f 48/48/48 47/47/47 45/45/45
f 51/51/51 50/50/50 49/49/49
f 52/52/52 51/51/51 49/49/49
f 55/55/55 54/54/54 53/53/53
f 56/56/56 55/55/55 53/53/53
f 59/59/59 58/58/58 57/57/57
f 60/60/60 59/59/59 57/57/57
f 63/63/63 62/62/62 61/61/61
f 63/63/63 61/61/61 64/64/64
f 66/66/66 65/65/65 64/64/64
f 66/66/66 67/67/67 65/65/65
f 66/66/66 68/68/68 67/67/67
f 71/71/71 70/70/70 69/69/69
f 69/69/69 70/70/70 72/72/72
f 74/74/74 73/73/73 72/72/72
f 75/75/75 73/73/73 74/74/74
f 76/76/76 73/73/73 75/75/75
f 79/79/79 78/78/78 77/77/77
f 80/80/80 79/79/79 77/77/77
f 83/83/83 82/82/82 81/81/81
f 84/84/84 83/83/83 81/81/81
f 87/87/87 86/86/86 85/85/85
f 88/88/88 87/87/87 85/85/85
f 91/91/91 90/90/90 89/89/89
f 92/92/92 91/91/91 89/89/89
f 95/95/95 94/94/94 93/93/93
f 95/95/95 96/96/96 94/94/94
f 95/95/95 97/97/97 96/96/96
f 100/100/100 99/99/99 98/98/98
f 101/101/101 99/99/99 100/100/100
f 102/102/102 99/99/99 101/101/101
f 105/105/105 104/104/104 103/103/103
f 106/106/106 105/105/105 103/103/103
f 109/109/109 108/108/108 107/107/107
f 110/110/110 109/109/109 107/107/107
f 113/113/113 112/112/112 111/111/111
f 114/114/114 113/113/113 111/111/111
f 117/117/117 116/116/116 115/115/115
f 118/118/118 117/117/117 115/115/115
f 121/121/121 120/120/120 119/119/119
f 121/121/121 122/122/122 120/120/120
f 121/121/121 123/123/123 122/122/122
f 126/126/126 125/125/125 124/124/124
f 127/127/127 125/125/125 126/126/126
f 128/128/128 125/125/125 127/127/127
f 131/131/131 130/130/130 129/129/129
f 132/132/132 131/131/131 129/129/129
f 135/135/135 134/134/134 133/133/133
f 136/136/136 135/135/135 133/133/133
f 139/139/139 138/138/138 137/137/137
f 140/140/140 139/139/139 137/137/137
f 143/143/143 142/142/142 141/141/141
f 144/144/144 143/143/143 141/141/141
f 147/147/147 146/146/146 145/145/145
f 148/148/148 147/147/147 145/145/145
f 151/151/151 150/150/150 149/149/149
f 152/152/152 151/151/151 149/149/149
f 155/155/155 154/154/154 153/153/153
f 156/156/156 155/155/155 153/153/153
f 159/159/159 158/158/158 157/157/157
f 160/160/160 159/159/159 157/157/157
f 163/163/163 162/162/162 161/161/161
f 163/163/163 164/164/164 162/162/162
f 163/163/163 165/165/165 164/164/164
f 168/168/168 167/167/167 166/166/166
f 169/169/169 167/167/167 168/168/168
f 170/170/170 167/167/167 169/169/169
f 173/173/173 172/172/172 171/171/171
f 174/174/174 173/173/173 171/171/171
f 177/177/177 176/176/176 175/175/175
f 178/178/178 177/177/177 175/175/175
f 181/181/181 180/180/180 179/179/179
f 182/182/182 181/181/181 179/179/179
f 185/185/185 184/184/184 183/183/183
f 186/186/186 185/185/185 183/183/183
f 189/189/189 188/188/188 187/187/187
f 189/189/189 190/190/190 188/188/188
f 189/189/189 191/191/191 190/190/190
f 194/194/194 193/193/193 192/192/192
f 195/195/195 193/193/193 194/194/194
f 196/196/196 193/193/193 195/195/195
f 199/199/199 198/198/198 197/197/197
f 200/200/200 199/199/199 197/197/197
f 203/203/203 202/202/202 201/201/201
f 204/204/204 203/203/203 201/201/201
f 207/207/207 206/206/206 205/205/205
f 208/208/208 207/207/207 205/205/205
f 211/211/211 210/210/210 209/209/209
f 212/212/212 211/211/211 209/209/209
f 215/215/215 214/214/214 213/213/213
f 215/215/215 216/216/216 214/214/214
f 215/215/215 217/217/217 216/216/216
f 220/220/220 219/219/219 218/218/218
f 221/221/221 219/219/219 220/220/220
f 222/222/222 219/219/219 221/221/221
f 225/225/225 224/224/224 223/223/223
f 226/226/226 225/225/225 223/223/223
f 229/229/229 228/228/228 227/227/227
f 230/230/230 229/229/229 227/227/227
f 233/233/233 232/232/232 231/231/231
f 234/234/234 233/233/233 231/231/231
f 237/237/237 236/236/236 235/235/235
f 238/238/238 237/237/237 235/235/235
f 241/241/241 240/240/240 239/239/239
f 241/241/241 239/239/239 242/242/242
f 241/241/241 242/242/242 243/243/243
f 245/245/245 244/244/244 243/243/243
f 245/245/245 246/246/246 244/244/244
f 249/249/249 248/248/248 247/247/247
f 247/247/247 248/248/248 250/250/250
f 250/250/250 248/248/248 251/251/251
f 253/253/253 252/252/252 251/251/251
f 254/254/254 252/252/252 253/253/253
f 257/257/257 256/256/256 255/255/255
f 258/258/258 257/257/257 255/255/255
f 261/261/261 260/260/260 259/259/259
f 262/262/262 261/261/261 259/259/259
f 265/265/265 264/264/264 263/263/263
f 266/266/266 265/265/265 263/263/263
f 269/269/269 268/268/268 267/267/267
f 270/270/270 269/269/269 267/267/267
f 273/273/273 272/272/272 271/271/271
f 273/273/273 274/274/274 272/272/272
f 273/273/273 275/275/275 274/274/274
f 278/278/278 277/277/277 276/276/276
f 279/279/279 277/277/277 278/278/278
f 280/280/280 277/277/277 279/279/279
f 283/283/283 282/282/282 281/281/281
f 284/284/284 283/283/283 281/281/281
f 287/287/287 286/286/286 285/285/285
f 288/288/288 287/287/287 285/285/285
f 291/291/291 290/290/290 289/289/289
f 292/292/292 291/291/291 289/289/289
f 295/295/295 294/294/294 293/293/293
f 296/296/296 295/295/295 293/293/293
f 299/299/299 298/298/298 297/297/297
f 300/300/300 299/299/299 297/297/297
f 303/303/303 302/302/302 301/301/301
f 304/304/304 303/303/303 301/301/301
f 307/307/307 306/306/306 305/305/305
f 308/308/308 307/307/307 305/305/305
f 311/311/311 310/310/310 309/309/309
f 312/312/312 311/311/311 309/309/309
f 315/315/315 314/314/314 313/313/313
f 315/315/315 316/316/316 314/314/314
f 315/315/315 317/317/317 316/316/316
f 320/320/320 319/319/319 318/318/318
f 321/321/321 319/319/319 320/320/320
f 322/322/322 319/319/319 321/321/321
f 325/325/325 324/324/324 323/323/323
f 326/326/326 325/325/325 323/323/323
f 329/329/329 328/328/328 327/327/327
f 330/330/330 329/329/329 327/327/327
f 333/333/333 332/332/332 331/331/331
f 334/334/334 333/333/333 331/331/331
f 337/337/337 336/336/336 335/335/335
f 338/338/338 337/337/337 335/335/335
f 341/341/341 340/340/340 339/339/339
f 341/341/341 342/342/342 340/340/340
f 341/341/341 343/343/343 342/342/342
f 346/346/346 345/345/345 344/344/344
f 347/347/347 345/345/345 346/346/346
f 348/348/348 345/345/345 347/347/347
f 351/351/351 350/350/350 349/349/349
f 352/352/352 351/351/351 349/349/349
f 355/355/355 354/354/354 353/353/353
f 356/356/356 355/355/355 353/353/353
f 359/359/359 358/358/358 357/357/357
f 360/360/360 359/359/359 357/357/357
f 363/363/363 362/362/362 361/361/361
f 364/364/364 363/363/363 361/361/361
f 367/367/367 366/366/366 365/365/365
f 367/367/367 365/365/365 368/368/368
f 367/367/367 369/369/369 366/366/366
f 367/367/367 368/368/368 370/370/370
f 367/367/367 371/371/371 369/369/369
f 367/367/367 370/370/370 372/372/372
f 367/367/367 373/373/373 371/371/371
f 367/367/367 372/372/372 374/374/374
f 367/367/367 375/375/375 373/373/373
f 367/367/367 374/374/374 376/376/376
f 367/367/367 377/377/377 375/375/375
f 367/367/367 376/376/376 377/377/377
f 380/380/380 379/379/379 378/378/378
f 378/378/378 379/379/379 381/381/381
f 382/382/382 379/379/379 380/380/380
f 381/381/381 379/379/379 383/383/383
f 384/384/384 379/379/379 382/382/382
f 383/383/383 379/379/379 385/385/385
f 386/386/386 379/379/379 384/384/384
f 385/385/385 379/379/379 387/387/387
f 388/388/388 379/379/379 386/386/386
f 387/387/387 379/379/379 389/389/389
f 390/390/390 379/379/379 388/388/388
f 389/389/389 379/379/379 390/390/390
f 393/393/393 392/392/392 391/391/391
f 391/391/391 392/392/392 394/394/394
f 395/395/395 392/392/392 393/393/393
f 394/394/394 392/392/392 396/396/396
f 397/397/397 392/392/392 395/395/395
f 396/396/396 392/392/392 398/398/398
f 399/399/399 392/392/392 397/397/397
f 398/398/398 392/392/392 400/400/400
f 401/401/401 392/392/392 399/399/399
f 400/400/400 392/392/392 402/402/402
f 403/403/403 392/392/392 401/401/401
f 402/402/402 392/392/392 403/403/403
f 406/406/406 405/405/405 404/404/404
f 404/404/404 405/405/405 407/407/407
f 408/408/408 405/405/405 406/406/406
f 407/407/407 405/405/405 409/409/409
f 410/410/410 405/405/405 408/408/408
f 409/409/409 405/405/405 411/411/411
f 412/412/412 405/405/405 410/410/410
f 411/411/411 405/405/405 413/413/413
f 414/414/414 405/405/405 412/412/412
f 413/413/413 405/405/405 415/415/415
f 416/416/416 405/405/405 414/414/414
f 415/415/415 405/405/405 416/416/416
