g weapon_hammmer_01
v 0.00369028 4.768371E-09 -0.01629303
v 0.00260942 0.002609425 -0.01629303
v 0 4.768371E-09 -0.01749207
v 0.00422214 -0.004222136 -0.009273686
v 0.00344799 -0.008324185 -0.004128259
v 0.00260942 -0.002609426 -0.006134548
v 1.530861E-10 0.003690286 -0.01629303
v -0.003447999 0.008324197 -0.01829932
v -0.00260943 0.002609425 -0.01629303
v -0.005971009 4.768371E-09 -0.01315388
v -0.01028927 0.004261955 -0.01121379
v -0.005971009 4.768371E-09 -0.009273686
v 0.00260942 0.002609425 -0.01629303
v 1.530861E-10 0.003690286 -0.01629303
v 0 4.768371E-09 -0.01749207
v -0.004222139 -0.004222136 -0.009273686
v -0.00832419 -0.003447996 -0.004128248
v -0.002609429 -0.002609426 -0.006134548
v 1.530861E-10 0.003690286 -0.01629303
v -0.00260943 0.002609425 -0.01629303
v 0 4.768371E-09 -0.01749207
v 0.00422214 0.004222145 -0.01315388
v 0.00832419 0.003447995 -0.01829932
v 0.005971 4.768371E-09 -0.01315388
v 1.530861E-10 0.005971005 -0.01315388
v 0.004261949 0.01028926 -0.01121379
v 1.530861E-10 0.005971005 -0.009273686
v -0.00260943 0.002609425 -0.01629303
v -0.00369029 4.768371E-09 -0.01629303
v 0 4.768371E-09 -0.01749207
v -0.00422214 0.004222145 -0.01315388
v -0.003447999 0.008324197 -0.01829932
v 1.530861E-10 0.005971005 -0.01315388
v -0.00369029 4.768371E-09 -0.01629303
v -0.00260943 -0.002609425 -0.01629303
v 0 4.768371E-09 -0.01749207
v 0.005971 4.768371E-09 -0.009273686
v 0.00832419 0.003447995 -0.004128257
v 0.00422214 0.004222145 -0.009273686
v 0.00422214 -0.004222136 -0.009273686
v 0.01028926 -0.004261954 -0.01121379
v 0.00422214 -0.004222133 -0.01315388
v -0.00260943 -0.002609425 -0.01629303
v 4.511094E-10 -0.003690283 -0.01629303
v 0 4.768371E-09 -0.01749207
v 0.00260942 -0.002609425 -0.01629303
v 0.003447991 -0.008324184 -0.01829932
v 0.00422214 -0.004222133 -0.01315388
v 4.511094E-10 -0.003690283 -0.01629303
v 0.00260942 -0.002609425 -0.01629303
v 0 4.768371E-09 -0.01749207
v -0.00422214 0.004222145 -0.009273686
v -0.00344799 0.008324195 -0.004128257
v -0.00260943 0.002609425 -0.006134547
v 1.530861E-10 0.005971005 -0.009273686
v 0.004261949 0.01028926 -0.01121379
v 0.00422214 0.004222145 -0.009273686
v 0.00260942 -0.002609425 -0.01629303
v 0.00369028 4.768371E-09 -0.01629303
v 0 4.768371E-09 -0.01749207
v 0.00422214 0.004222145 -0.009273686
v 0.004261949 0.01028926 -0.01121379
v 0.00422214 0.004222145 -0.01315388
v 1.530861E-10 -0.005971005 -0.01315388
v -0.004261959 -0.01028927 -0.01121379
v 1.530861E-10 -0.005971005 -0.009273687
v -0.00422214 0.004222145 -0.009273686
v -0.01028927 0.004261955 -0.01121379
v -0.00422214 0.004222145 -0.01315388
v 0.005971 4.768371E-09 -0.009273686
v 0.01028926 -0.004261954 -0.01121379
v 0.00422214 -0.004222136 -0.009273686
v -0.004222139 -0.004222136 -0.009273686
v -0.004261959 -0.01028927 -0.01121379
v -0.004222139 -0.004222136 -0.01315388
v -0.00422214 0.004222145 -0.01315388
v -0.01028927 0.004261955 -0.01121379
v -0.005971009 4.768371E-09 -0.01315388
v -0.004222139 -0.004222136 -0.01315388
v -0.004261959 -0.01028927 -0.01121379
v 1.530861E-10 -0.005971005 -0.01315388
v 0.00422214 0.004222145 -0.01315388
v 0.004261949 0.01028926 -0.01121379
v 1.530861E-10 0.005971005 -0.01315388
v 0.005971 4.768371E-09 -0.01315388
v 0.01028926 -0.004261954 -0.01121379
v 0.005971 4.768371E-09 -0.009273686
v 0.00422214 -0.004222133 -0.01315388
v 0.01028926 -0.004261954 -0.01121379
v 0.005971 4.768371E-09 -0.01315388
v -0.005971009 4.768371E-09 -0.009273686
v -0.01028927 0.004261955 -0.01121379
v -0.00422214 0.004222145 -0.009273686
v 1.530861E-10 -0.005971005 -0.009273687
v -0.004261959 -0.01028927 -0.01121379
v -0.004222139 -0.004222136 -0.009273686
v 0.00369028 4.768371E-09 -0.01629303
v 0.00832419 0.003447995 -0.01829932
v 0.00260942 0.002609425 -0.01629303
v -0.004222139 -0.004222136 -0.01315388
v -0.008324199 -0.003447995 -0.01829932
v -0.005971009 4.768371E-09 -0.01315388
v -0.00260943 0.002609425 -0.006134547
v -0.00344799 0.008324195 -0.004128257
v -1.449371E-10 0.003690284 -0.006134547
v 0.00422214 -0.004222133 -0.01315388
v 0.003447991 -0.008324184 -0.01829932
v 1.530861E-10 -0.005971005 -0.01315388
v 1.530861E-10 0.005971005 -0.01315388
v -0.003447999 0.008324197 -0.01829932
v 1.530861E-10 0.003690286 -0.01629303
v -0.00369029 4.768371E-09 -0.01629303
v -0.008324199 -0.003447995 -0.01829932
v -0.00260943 -0.002609425 -0.01629303
v 1.530861E-10 0.005971005 -0.009273686
v -0.00344799 0.008324195 -0.004128257
v -0.00422214 0.004222145 -0.009273686
v 4.511094E-10 -0.003690283 -0.01629303
v 0.003447991 -0.008324184 -0.01829932
v 0.00260942 -0.002609425 -0.01629303
v -0.002609429 -0.002609426 -0.006134548
v -0.00832419 -0.003447996 -0.004128248
v -0.00369028 4.768371E-09 -0.006134547
v -0.005971009 4.768371E-09 -0.01315388
v -0.008324199 -0.003447995 -0.01829932
v -0.00369029 4.768371E-09 -0.01629303
v 0.00260942 -0.002609426 -0.006134548
v 0.00344799 -0.008324185 -0.004128259
v 4.511094E-10 -0.003690275 -0.006134548
v -1.449371E-10 0.003690284 -0.006134547
v -0.00344799 0.008324195 -0.004128257
v 1.530861E-10 0.005971005 -0.009273686
v -0.005971009 4.768371E-09 -0.009273686
v -0.00832419 -0.003447996 -0.004128248
v -0.004222139 -0.004222136 -0.009273686
v 1.530861E-10 -0.005971005 -0.009273687
v 0.00344799 -0.008324185 -0.004128259
v 0.00422214 -0.004222136 -0.009273686
v 1.530861E-10 -0.005971005 -0.01315388
v 0.003447991 -0.008324184 -0.01829932
v 4.511094E-10 -0.003690283 -0.01629303
v 0.005971 4.768371E-09 -0.01315388
v 0.00832419 0.003447995 -0.01829932
v 0.00369028 4.768371E-09 -0.01629303
v -0.00369028 4.768371E-09 -0.006134547
v -0.00832419 -0.003447996 -0.004128248
v -0.005971009 4.768371E-09 -0.009273686
v 4.511094E-10 -0.003690275 -0.006134548
v 0.00344799 -0.008324185 -0.004128259
v 1.530861E-10 -0.005971005 -0.009273687
v 0.00369028 4.768371E-09 -0.006134547
v 0.00832419 0.003447995 -0.004128257
v 0.005971 4.768371E-09 -0.009273686
v 0.00260942 0.002609425 -0.01629303
v 0.00832419 0.003447995 -0.01829932
v 0.00422214 0.004222145 -0.01315388
v -0.00260943 0.002609425 -0.01629303
v -0.003447999 0.008324197 -0.01829932
v -0.00422214 0.004222145 -0.01315388
v 0.00422214 0.004222145 -0.009273686
v 0.00832419 0.003447995 -0.004128257
v 0.00260942 0.002609425 -0.006134547
v 0.00260942 0.002609425 -0.006134547
v 0.00832419 0.003447995 -0.004128257
v 0.00369028 4.768371E-09 -0.006134547
v -0.00260943 -0.002609425 -0.01629303
v -0.008324199 -0.003447995 -0.01829932
v -0.004222139 -0.004222136 -0.01315388
v 0 4.768371E-09 0
v 0.001291598 4.768371E-09 -0.0007358691
v 0.0009132968 -0.0009132959 -0.0007358688
v 0 4.768371E-09 0
v 0.0009132968 -0.0009132959 -0.0007358688
v 1.578883E-10 -0.001291593 -0.0007358691
v 0 4.768371E-09 0
v 1.578883E-10 -0.001291593 -0.0007358691
v -0.0009133003 -0.0009132959 -0.0007358691
v 0 4.768371E-09 0
v -0.0009133003 -0.0009132959 -0.0007358691
v -0.001291598 4.768371E-09 -0.0007358691
v 0 4.768371E-09 0
v -0.001291598 4.768371E-09 -0.0007358691
v -0.0009133005 0.0009133017 -0.0007358691
v 0 4.768371E-09 0
v -0.0009133005 0.0009133017 -0.0007358691
v -5.072797E-11 0.001291603 -0.0007358691
v 0 4.768371E-09 0
v -5.072797E-11 0.001291603 -0.0007358691
v 0.000913297 0.0009133017 -0.0007358691
v 0 4.768371E-09 0
v 0.000913297 0.0009133017 -0.0007358691
v 0.001291598 4.768371E-09 -0.0007358691
v 0.00130471 0.001304715 -0.00523526
v 0.00260942 0.002609425 -0.006134547
v 0.00369028 4.768371E-09 -0.006134547
v 0.00184514 4.768371E-09 -0.00523526
v 0.005971 4.768371E-09 -0.009273686
v 0.00422214 0.004222145 -0.009273686
v 0.00422214 0.004222145 -0.01315388
v 0.005971 4.768371E-09 -0.01315388
v 0.00422214 0.004222145 -0.01315388
v 1.530861E-10 0.005971005 -0.01315388
v 1.530861E-10 0.003690286 -0.01629303
v 0.00260942 0.002609425 -0.01629303
v -7.246854E-11 0.001845145 -0.00523526
v -1.449371E-10 0.003690284 -0.006134547
v 0.00260942 0.002609425 -0.006134547
v 0.00130471 0.001304715 -0.00523526
v 0.00260942 0.002609425 -0.006134547
v -1.449371E-10 0.003690284 -0.006134547
v 1.530861E-10 0.005971005 -0.009273686
v 0.00422214 0.004222145 -0.009273686
v -0.001304715 0.001304715 -0.00523526
v -0.00260943 0.002609425 -0.006134547
v -1.449371E-10 0.003690284 -0.006134547
v -7.246854E-11 0.001845145 -0.00523526
v 1.530861E-10 0.005971005 -0.009273686
v -0.00422214 0.004222145 -0.009273686
v -0.00422214 0.004222145 -0.01315388
v 1.530861E-10 0.005971005 -0.01315388
v -0.00422214 0.004222145 -0.01315388
v -0.005971009 4.768371E-09 -0.01315388
v -0.00369029 4.768371E-09 -0.01629303
v -0.00260943 0.002609425 -0.01629303
v -0.00184514 4.768371E-09 -0.00523526
v -0.00369028 4.768371E-09 -0.006134547
v -0.00260943 0.002609425 -0.006134547
v -0.001304715 0.001304715 -0.00523526
v -0.00260943 0.002609425 -0.006134547
v -0.00369028 4.768371E-09 -0.006134547
v -0.005971009 4.768371E-09 -0.009273686
v -0.00422214 0.004222145 -0.009273686
v -0.001304715 -0.001304711 -0.00523526
v -0.002609429 -0.002609426 -0.006134548
v -0.00369028 4.768371E-09 -0.006134547
v -0.00184514 4.768371E-09 -0.00523526
v -0.005971009 4.768371E-09 -0.009273686
v -0.004222139 -0.004222136 -0.009273686
v -0.004222139 -0.004222136 -0.01315388
v -0.005971009 4.768371E-09 -0.01315388
v -0.004222139 -0.004222136 -0.01315388
v 1.530861E-10 -0.005971005 -0.01315388
v 4.511094E-10 -0.003690283 -0.01629303
v -0.00260943 -0.002609425 -0.01629303
v 2.255547E-10 -0.001845135 -0.00523526
v 4.511094E-10 -0.003690275 -0.006134548
v -0.002609429 -0.002609426 -0.006134548
v -0.001304715 -0.001304711 -0.00523526
v -0.002609429 -0.002609426 -0.006134548
v 4.511094E-10 -0.003690275 -0.006134548
v 1.530861E-10 -0.005971005 -0.009273687
v -0.004222139 -0.004222136 -0.009273686
v 0.00130471 -0.001304711 -0.00523526
v 0.00260942 -0.002609426 -0.006134548
v 4.511094E-10 -0.003690275 -0.006134548
v 2.255547E-10 -0.001845135 -0.00523526
v 1.530861E-10 -0.005971005 -0.009273687
v 0.00422214 -0.004222136 -0.009273686
v 0.00422214 -0.004222133 -0.01315388
v 1.530861E-10 -0.005971005 -0.01315388
v 0.00422214 -0.004222133 -0.01315388
v 0.005971 4.768371E-09 -0.01315388
v 0.00369028 4.768371E-09 -0.01629303
v 0.00260942 -0.002609425 -0.01629303
v 0.00184514 4.768371E-09 -0.00523526
v 0.00369028 4.768371E-09 -0.006134547
v 0.00260942 -0.002609426 -0.006134548
v 0.00130471 -0.001304711 -0.00523526
v 0.00260942 -0.002609426 -0.006134548
v 0.00369028 4.768371E-09 -0.006134547
v 0.005971 4.768371E-09 -0.009273686
v 0.00422214 -0.004222136 -0.009273686
v 0.00130471 -0.001304711 -0.00523526
v 0.00130471 -0.001304711 -0.003
v 0.00184514 4.768371E-09 -0.003
v 0.00184514 4.768371E-09 -0.00523526
v 2.255547E-10 -0.001845135 -0.00523526
v 2.255547E-10 -0.001845135 -0.003
v 0.00130471 -0.001304711 -0.003
v 0.00130471 -0.001304711 -0.00523526
v -0.001304715 -0.001304711 -0.00523526
v -0.001304715 -0.001304711 -0.003
v 2.255547E-10 -0.001845135 -0.003
v 2.255547E-10 -0.001845135 -0.00523526
v -0.00184514 4.768371E-09 -0.00523526
v -0.00184514 4.768371E-09 -0.003
v -0.001304715 -0.001304711 -0.003
v -0.001304715 -0.001304711 -0.00523526
v -0.001304715 0.001304715 -0.00523526
v -0.001304715 0.001304715 -0.003
v -0.00184514 4.768371E-09 -0.003
v -0.00184514 4.768371E-09 -0.00523526
v -7.246854E-11 0.001845145 -0.00523526
v -7.246854E-11 0.001845145 -0.003
v -0.001304715 0.001304715 -0.003
v -0.001304715 0.001304715 -0.00523526
v 0.00130471 0.001304715 -0.00523526
v 0.00130471 0.001304715 -0.003
v -7.246854E-11 0.001845145 -0.003
v -7.246854E-11 0.001845145 -0.00523526
v 0.00184514 4.768371E-09 -0.00523526
v 0.00184514 4.768371E-09 -0.003
v 0.00130471 0.001304715 -0.003
v 0.00130471 0.001304715 -0.00523526
v 0.001291598 4.768371E-09 -0.003
v 0.00184514 4.768371E-09 -0.003
v 0.00130471 -0.001304711 -0.003
v 0.000913297 -0.0009132959 -0.003
v 0.000913297 0.0009133017 -0.003
v 0.00130471 0.001304715 -0.003
v 0.00184514 4.768371E-09 -0.003
v 0.001291598 4.768371E-09 -0.003
v -5.072797E-11 0.001291603 -0.003
v -7.246854E-11 0.001845145 -0.003
v 0.00130471 0.001304715 -0.003
v 0.000913297 0.0009133017 -0.003
v -0.0009133005 0.0009133017 -0.003
v -0.001304715 0.001304715 -0.003
v -7.246854E-11 0.001845145 -0.003
v -5.072797E-11 0.001291603 -0.003
v -0.001291598 4.768371E-09 -0.003
v -0.00184514 4.768371E-09 -0.003
v -0.001304715 0.001304715 -0.003
v -0.0009133005 0.0009133017 -0.003
v -0.0009133003 -0.0009132959 -0.003
v -0.001304715 -0.001304711 -0.003
v -0.00184514 4.768371E-09 -0.003
v -0.001291598 4.768371E-09 -0.003
v 8.876668E-12 -0.001291593 -0.003
v 2.255547E-10 -0.001845135 -0.003
v -0.001304715 -0.001304711 -0.003
v -0.0009133003 -0.0009132959 -0.003
v 0.000913297 -0.0009132959 -0.003
v 0.00130471 -0.001304711 -0.003
v 2.255547E-10 -0.001845135 -0.003
v 8.876668E-12 -0.001291593 -0.003
v 0.000913297 -0.0009132959 -0.003
v 0.0009132968 -0.0009132959 -0.0007358688
v 0.001291598 4.768371E-09 -0.0007358691
v 0.001291598 4.768371E-09 -0.003
v 8.876668E-12 -0.001291593 -0.003
v 1.578883E-10 -0.001291593 -0.0007358691
v 0.0009132968 -0.0009132959 -0.0007358688
v 0.000913297 -0.0009132959 -0.003
v -0.0009133003 -0.0009132959 -0.003
v -0.0009133003 -0.0009132959 -0.0007358691
v 1.578883E-10 -0.001291593 -0.0007358691
v 8.876668E-12 -0.001291593 -0.003
v -0.001291598 4.768371E-09 -0.003
v -0.001291598 4.768371E-09 -0.0007358691
v -0.0009133003 -0.0009132959 -0.0007358691
v -0.0009133003 -0.0009132959 -0.003
v -0.0009133005 0.0009133017 -0.003
v -0.0009133005 0.0009133017 -0.0007358691
v -0.001291598 4.768371E-09 -0.0007358691
v -0.001291598 4.768371E-09 -0.003
v -5.072797E-11 0.001291603 -0.003
v -5.072797E-11 0.001291603 -0.0007358691
v -0.0009133005 0.0009133017 -0.0007358691
v -0.0009133005 0.0009133017 -0.003
v 0.000913297 0.0009133017 -0.003
v 0.000913297 0.0009133017 -0.0007358691
v -5.072797E-11 0.001291603 -0.0007358691
v -5.072797E-11 0.001291603 -0.003
v 0.001291598 4.768371E-09 -0.003
v 0.001291598 4.768371E-09 -0.0007358691
v 0.000913297 0.0009133017 -0.0007358691
v 0.000913297 0.0009133017 -0.003
vt 0.7744141 0.8999023
vt 0.8398438 0.965332
vt 0.8398438 0.8999023
vt 0.7744141 0.8999023
vt 0.8398438 0.965332
vt 0.8398438 0.8999023
vt 0.7744141 0.8999023
vt 0.8398438 0.965332
vt 0.8398438 0.8999023
vt 0.7744141 0.8999023
vt 0.8398438 0.965332
vt 0.8398438 0.8999023
vt 0.7744141 0.8999023
vt 0.8398438 0.965332
vt 0.8398438 0.8999023
vt 0.7744141 0.8999023
vt 0.8398438 0.965332
vt 0.8398438 0.8999023
vt 0.7744141 0.8999023
vt 0.8398438 0.965332
vt 0.8398438 0.8999023
vt 0.7744141 0.8999023
vt 0.8398438 0.965332
vt 0.8398438 0.8999023
vt 0.7744141 0.8999023
vt 0.8398438 0.965332
vt 0.8398438 0.8999023
vt 0.7744141 0.8999023
vt 0.8398438 0.965332
vt 0.8398438 0.8999023
vt 0.7744141 0.8999023
vt 0.8398438 0.965332
vt 0.8398438 0.8999023
vt 0.7744141 0.8999023
vt 0.8398438 0.965332
vt 0.8398438 0.8999023
vt 0.7744141 0.8999023
vt 0.8398438 0.965332
vt 0.8398438 0.8999023
vt 0.7744141 0.8999023
vt 0.8398438 0.965332
vt 0.8398438 0.8999023
vt 0.7744141 0.8999023
vt 0.8398438 0.965332
vt 0.8398438 0.8999023
vt 0.7744141 0.8999023
vt 0.8398438 0.965332
vt 0.8398438 0.8999023
vt 0.7744141 0.8999023
vt 0.8398438 0.965332
vt 0.8398438 0.8999023
vt 0.7744141 0.8999023
vt 0.8398438 0.965332
vt 0.8398438 0.8999023
vt 0.7744141 0.8999023
vt 0.8398438 0.965332
vt 0.8398438 0.8999023
vt 0.7744141 0.8999023
vt 0.8398438 0.965332
vt 0.8398438 0.8999023
vt 0.7744141 0.8999023
vt 0.8398438 0.965332
vt 0.8398438 0.8999023
vt 0.7744141 0.8999023
vt 0.8398438 0.965332
vt 0.8398438 0.8999023
vt 0.7744141 0.8999023
vt 0.8398438 0.965332
vt 0.8398438 0.8999023
vt 0.7744141 0.8999023
vt 0.8398438 0.965332
vt 0.8398438 0.8999023
vt 0.7744141 0.8999023
vt 0.8398438 0.965332
vt 0.8398438 0.8999023
vt 0.7744141 0.8999023
vt 0.8398438 0.965332
vt 0.8398438 0.8999023
vt 0.7744141 0.8999023
vt 0.8398438 0.965332
vt 0.8398438 0.8999023
vt 0.7744141 0.8999023
vt 0.8398438 0.965332
vt 0.8398438 0.8999023
vt 0.7744141 0.8999023
vt 0.8398438 0.965332
vt 0.8398438 0.8999023
vt 0.7744141 0.8999023
vt 0.8398438 0.965332
vt 0.8398438 0.8999023
vt 0.7744141 0.8999023
vt 0.8398438 0.965332
vt 0.8398438 0.8999023
vt 0.7744141 0.8999023
vt 0.8398438 0.965332
vt 0.8398438 0.8999023
vt 0.7744141 0.8999023
vt 0.8398438 0.965332
vt 0.8398438 0.8999023
vt 0.7744141 0.8999023
vt 0.8398438 0.965332
vt 0.8398438 0.8999023
vt 0.7744141 0.8999023
vt 0.8398438 0.965332
vt 0.8398438 0.8999023
vt 0.7744141 0.8999023
vt 0.8398438 0.965332
vt 0.8398438 0.8999023
vt 0.7744141 0.8999023
vt 0.8398438 0.965332
vt 0.8398438 0.8999023
vt 0.7744141 0.8999023
vt 0.8398438 0.965332
vt 0.8398438 0.8999023
vt 0.7744141 0.8999023
vt 0.8398438 0.965332
vt 0.8398438 0.8999023
vt 0.7744141 0.8999023
vt 0.8398438 0.965332
vt 0.8398438 0.8999023
vt 0.7744141 0.8999023
vt 0.8398438 0.965332
vt 0.8398438 0.8999023
vt 0.7744141 0.8999023
vt 0.8398438 0.965332
vt 0.8398438 0.8999023
vt 0.7744141 0.8999023
vt 0.8398438 0.965332
vt 0.8398438 0.8999023
vt 0.7744141 0.8999023
vt 0.8398438 0.965332
vt 0.8398438 0.8999023
vt 0.7744141 0.8999023
vt 0.8398438 0.965332
vt 0.8398438 0.8999023
vt 0.7744141 0.8999023
vt 0.8398438 0.965332
vt 0.8398438 0.8999023
vt 0.7744141 0.8999023
vt 0.8398438 0.965332
vt 0.8398438 0.8999023
vt 0.7744141 0.8999023
vt 0.8398438 0.965332
vt 0.8398438 0.8999023
vt 0.7744141 0.8999023
vt 0.8398438 0.965332
vt 0.8398438 0.8999023
vt 0.7744141 0.8999023
vt 0.8398438 0.965332
vt 0.8398438 0.8999023
vt 0.7744141 0.8999023
vt 0.8398438 0.965332
vt 0.8398438 0.8999023
vt 0.7744141 0.8999023
vt 0.8398438 0.965332
vt 0.8398438 0.8999023
vt 0.7744141 0.8999023
vt 0.8398438 0.965332
vt 0.8398438 0.8999023
vt 0.7744141 0.8999023
vt 0.8398438 0.965332
vt 0.8398438 0.8999023
vt 0.7744141 0.8999023
vt 0.8398438 0.965332
vt 0.8398438 0.8999023
vt 0.7744141 0.8999023
vt 0.8398438 0.965332
vt 0.8398438 0.8999023
vt 0.05999756 0.9296875
vt 0.08300781 0.9526367
vt 0.08300781 0.9296875
vt 0.05999756 0.9296875
vt 0.08300781 0.9526367
vt 0.08300781 0.9296875
vt 0.05999756 0.9296875
vt 0.08300781 0.9526367
vt 0.08300781 0.9296875
vt 0.05999756 0.9296875
vt 0.08300781 0.9526367
vt 0.08300781 0.9296875
vt 0.05999756 0.9296875
vt 0.08300781 0.9526367
vt 0.08300781 0.9296875
vt 0.05999756 0.9296875
vt 0.08300781 0.9526367
vt 0.08300781 0.9296875
vt 0.05999756 0.9296875
vt 0.08300781 0.9526367
vt 0.08300781 0.9296875
vt 0.05999756 0.9296875
vt 0.08300781 0.9526367
vt 0.08300781 0.9296875
vt 0.8071289 0.9326172
vt 0.8398438 0.965332
vt 0.8398438 0.8999023
vt 0.8071289 0.8999023
vt 0.7744141 0.8999023
vt 0.7744141 0.965332
vt 0.8398438 0.965332
vt 0.8398438 0.8999023
vt 0.7744141 0.8999023
vt 0.7744141 0.965332
vt 0.8398438 0.965332
vt 0.8398438 0.8999023
vt 0.8071289 0.9326172
vt 0.8398438 0.965332
vt 0.8398438 0.8999023
vt 0.8071289 0.8999023
vt 0.7744141 0.8999023
vt 0.7744141 0.965332
vt 0.8398438 0.965332
vt 0.8398438 0.8999023
vt 0.8071289 0.9326172
vt 0.8398438 0.965332
vt 0.8398438 0.8999023
vt 0.8071289 0.8999023
vt 0.7744141 0.8999023
vt 0.7744141 0.965332
vt 0.8398438 0.965332
vt 0.8398438 0.8999023
vt 0.7744141 0.8999023
vt 0.7744141 0.965332
vt 0.8398438 0.965332
vt 0.8398438 0.8999023
vt 0.8071289 0.9326172
vt 0.8398438 0.965332
vt 0.8398438 0.8999023
vt 0.8071289 0.8999023
vt 0.7744141 0.8999023
vt 0.7744141 0.965332
vt 0.8398438 0.965332
vt 0.8398438 0.8999023
vt 0.8071289 0.9326172
vt 0.8398438 0.965332
vt 0.8398438 0.8999023
vt 0.8071289 0.8999023
vt 0.7744141 0.8999023
vt 0.7744141 0.965332
vt 0.8398438 0.965332
vt 0.8398438 0.8999023
vt 0.7744141 0.8999023
vt 0.7744141 0.965332
vt 0.8398438 0.965332
vt 0.8398438 0.8999023
vt 0.8071289 0.9326172
vt 0.8398438 0.965332
vt 0.8398438 0.8999023
vt 0.8071289 0.8999023
vt 0.7744141 0.8999023
vt 0.7744141 0.965332
vt 0.8398438 0.965332
vt 0.8398438 0.8999023
vt 0.8071289 0.9326172
vt 0.8398438 0.965332
vt 0.8398438 0.8999023
vt 0.8071289 0.8999023
vt 0.7744141 0.8999023
vt 0.7744141 0.965332
vt 0.8398438 0.965332
vt 0.8398438 0.8999023
vt 0.7744141 0.8999023
vt 0.7744141 0.965332
vt 0.8398438 0.965332
vt 0.8398438 0.8999023
vt 0.8071289 0.9326172
vt 0.8398438 0.965332
vt 0.8398438 0.8999023
vt 0.8071289 0.8999023
vt 0.7744141 0.8999023
vt 0.7744141 0.965332
vt 0.8398438 0.965332
vt 0.8398438 0.8999023
vt 0.9501953 0.9296875
vt 0.9501953 0.9296875
vt 0.9501953 0.9624023
vt 0.9501953 0.9624023
vt 0.9501953 0.9296875
vt 0.9501953 0.9296875
vt 0.9501953 0.9624023
vt 0.9501953 0.9624023
vt 0.9501953 0.9296875
vt 0.9501953 0.9296875
vt 0.9501953 0.9624023
vt 0.9501953 0.9624023
vt 0.9501953 0.9296875
vt 0.9501953 0.9296875
vt 0.9501953 0.9624023
vt 0.9501953 0.9624023
vt 0.9501953 0.9296875
vt 0.9501953 0.9296875
vt 0.9501953 0.9624023
vt 0.9501953 0.9624023
vt 0.9501953 0.9296875
vt 0.9501953 0.9296875
vt 0.9501953 0.9624023
vt 0.9501953 0.9624023
vt 0.9501953 0.9296875
vt 0.9501953 0.9296875
vt 0.9501953 0.9624023
vt 0.9501953 0.9624023
vt 0.9501953 0.9296875
vt 0.9501953 0.9296875
vt 0.9501953 0.9624023
vt 0.9501953 0.9624023
vt 0.9404297 0.9526367
vt 0.9501953 0.9624023
vt 0.9501953 0.9296875
vt 0.9404297 0.9296875
vt 0.9404297 0.9526367
vt 0.9501953 0.9624023
vt 0.9501953 0.9296875
vt 0.9404297 0.9296875
vt 0.9404297 0.9526367
vt 0.9501953 0.9624023
vt 0.9501953 0.9296875
vt 0.9404297 0.9296875
vt 0.9404297 0.9526367
vt 0.9501953 0.9624023
vt 0.9501953 0.9296875
vt 0.9404297 0.9296875
vt 0.9404297 0.9526367
vt 0.9501953 0.9624023
vt 0.9501953 0.9296875
vt 0.9404297 0.9296875
vt 0.9404297 0.9526367
vt 0.9501953 0.9624023
vt 0.9501953 0.9296875
vt 0.9404297 0.9296875
vt 0.9404297 0.9526367
vt 0.9501953 0.9624023
vt 0.9501953 0.9296875
vt 0.9404297 0.9296875
vt 0.9404297 0.9526367
vt 0.9501953 0.9624023
vt 0.9501953 0.9296875
vt 0.9404297 0.9296875
vt 0.08300781 0.9296875
vt 0.08300781 0.9296875
vt 0.08300781 0.9526367
vt 0.08300781 0.9526367
vt 0.08300781 0.9296875
vt 0.08300781 0.9296875
vt 0.08300781 0.9526367
vt 0.08300781 0.9526367
vt 0.08300781 0.9296875
vt 0.08300781 0.9296875
vt 0.08300781 0.9526367
vt 0.08300781 0.9526367
vt 0.08300781 0.9296875
vt 0.08300781 0.9296875
vt 0.08300781 0.9526367
vt 0.08300781 0.9526367
vt 0.08300781 0.9296875
vt 0.08300781 0.9296875
vt 0.08300781 0.9526367
vt 0.08300781 0.9526367
vt 0.08300781 0.9296875
vt 0.08300781 0.9296875
vt 0.08300781 0.9526367
vt 0.08300781 0.9526367
vt 0.08300781 0.9296875
vt 0.08300781 0.9296875
vt 0.08300781 0.9526367
vt 0.08300781 0.9526367
vt 0.08300781 0.9296875
vt 0.08300781 0.9296875
vt 0.08300781 0.9526367
vt 0.08300781 0.9526367
vn 0.3063965 0.1269531 -0.9433594
vn 0.3063965 0.1269531 -0.9433594
vn 0.3063965 0.1269531 -0.9433594
vn 0.9072266 0.2514648 0.3369141
vn 0.9072266 0.2514648 0.3369141
vn 0.9072266 0.2514648 0.3369141
vn 0.1290283 -0.3115234 -0.9414063
vn 0.1290283 -0.3115234 -0.9414063
vn 0.1290283 -0.3115234 -0.9414063
vn -0.7026367 -0.7119141 0
vn -0.7026367 -0.7119141 0
vn -0.7026367 -0.7119141 0
vn 0.1269531 0.3063965 -0.9433594
vn 0.1269531 0.3063965 -0.9433594
vn 0.1269531 0.3063965 -0.9433594
vn 0.2514648 -0.9072266 0.3369141
vn 0.2514648 -0.9072266 0.3369141
vn 0.2514648 -0.9072266 0.3369141
vn -0.1269531 0.3063965 -0.9433594
vn -0.1269531 0.3063965 -0.9433594
vn -0.1269531 0.3063965 -0.9433594
vn 0.7641602 0.3166504 0.5615234
vn 0.7641602 0.3166504 0.5615234
vn 0.7641602 0.3166504 0.5615234
vn -0.7119141 0.7026367 0
vn -0.7119141 0.7026367 0
vn -0.7119141 0.7026367 0
vn -0.3063965 0.1269531 -0.9433594
vn -0.3063965 0.1269531 -0.9433594
vn -0.3063965 0.1269531 -0.9433594
vn -0.3166504 0.7641602 0.5615234
vn -0.3166504 0.7641602 0.5615234
vn -0.3166504 0.7641602 0.5615234
vn -0.3063965 -0.1269531 -0.9433594
vn -0.3063965 -0.1269531 -0.9433594
vn -0.3063965 -0.1269531 -0.9433594
vn 0.7641602 0.3166504 -0.5615234
vn 0.7641602 0.3166504 -0.5615234
vn 0.7641602 0.3166504 -0.5615234
vn -0.006561279 -1 0
vn -0.006561279 -1 0
vn -0.006561279 -1 0
vn -0.1269531 -0.3063965 -0.9433594
vn -0.1269531 -0.3063965 -0.9433594
vn -0.1269531 -0.3063965 -0.9433594
vn 0.9072266 0.2514648 -0.3369141
vn 0.9072266 0.2514648 -0.3369141
vn 0.9072266 0.2514648 -0.3369141
vn 0.1269531 -0.3063965 -0.9433594
vn 0.1269531 -0.3063965 -0.9433594
vn 0.1269531 -0.3063965 -0.9433594
vn -0.9072266 -0.2514648 0.3369141
vn -0.9072266 -0.2514648 0.3369141
vn -0.9072266 -0.2514648 0.3369141
vn 0.1248779 0.3015137 0.9453125
vn 0.1248779 0.3015137 0.9453125
vn 0.1248779 0.3015137 0.9453125
vn 0.3063965 -0.1269531 -0.9433594
vn 0.3063965 -0.1269531 -0.9433594
vn 0.3063965 -0.1269531 -0.9433594
vn 1 -0.006561279 0
vn 1 -0.006561279 0
vn 1 -0.006561279 0
vn 0.7119141 -0.7026367 0
vn 0.7119141 -0.7026367 0
vn 0.7119141 -0.7026367 0
vn 0.006561279 1 0
vn 0.006561279 1 0
vn 0.006561279 1 0
vn 0.3015137 -0.1248779 0.9453125
vn 0.3015137 -0.1248779 0.9453125
vn 0.3015137 -0.1248779 0.9453125
vn -1 0.006561279 0
vn -1 0.006561279 0
vn -1 0.006561279 0
vn -0.3015137 0.1248779 -0.9453125
vn -0.3015137 0.1248779 -0.9453125
vn -0.3015137 0.1248779 -0.9453125
vn -0.1248779 -0.3015137 -0.9453125
vn -0.1248779 -0.3015137 -0.9453125
vn -0.1248779 -0.3015137 -0.9453125
vn 0.1248779 0.3015137 -0.9453125
vn 0.1248779 0.3015137 -0.9453125
vn 0.1248779 0.3015137 -0.9453125
vn 0.7026367 0.7119141 0
vn 0.7026367 0.7119141 0
vn 0.7026367 0.7119141 0
vn 0.3015137 -0.1248779 -0.9453125
vn 0.3015137 -0.1248779 -0.9453125
vn 0.3015137 -0.1248779 -0.9453125
vn -0.3015137 0.1248779 0.9453125
vn -0.3015137 0.1248779 0.9453125
vn -0.3015137 0.1248779 0.9453125
vn -0.1248779 -0.3015137 0.9453125
vn -0.1248779 -0.3015137 0.9453125
vn -0.1248779 -0.3015137 0.9453125
vn -0.3115234 -0.1290283 -0.9414063
vn -0.3115234 -0.1290283 -0.9414063
vn -0.3115234 -0.1290283 -0.9414063
vn -0.7641602 -0.3166504 0.5615234
vn -0.7641602 -0.3166504 0.5615234
vn -0.7641602 -0.3166504 0.5615234
vn 0.1290283 -0.3115234 0.9414063
vn 0.1290283 -0.3115234 0.9414063
vn 0.1290283 -0.3115234 0.9414063
vn 0.3166504 -0.7641602 0.5615234
vn 0.3166504 -0.7641602 0.5615234
vn 0.3166504 -0.7641602 0.5615234
vn 0.8193359 0.4638672 -0.3369141
vn 0.8193359 0.4638672 -0.3369141
vn 0.8193359 0.4638672 -0.3369141
vn 0.3115234 0.1290283 -0.9414063
vn 0.3115234 0.1290283 -0.9414063
vn 0.3115234 0.1290283 -0.9414063
vn -0.3166504 0.7641602 -0.5615234
vn -0.3166504 0.7641602 -0.5615234
vn -0.3166504 0.7641602 -0.5615234
vn -0.1290283 0.3115234 -0.9414063
vn -0.1290283 0.3115234 -0.9414063
vn -0.1290283 0.3115234 -0.9414063
vn 0.3115234 0.1290283 0.9414063
vn 0.3115234 0.1290283 0.9414063
vn 0.3115234 0.1290283 0.9414063
vn -0.4638672 0.8193359 -0.3369141
vn -0.4638672 0.8193359 -0.3369141
vn -0.4638672 0.8193359 -0.3369141
vn -0.1290283 0.3115234 0.9414063
vn -0.1290283 0.3115234 0.9414063
vn -0.1290283 0.3115234 0.9414063
vn 0.8193359 0.4638672 0.3369141
vn 0.8193359 0.4638672 0.3369141
vn 0.8193359 0.4638672 0.3369141
vn -0.7641602 -0.3166504 -0.5615234
vn -0.7641602 -0.3166504 -0.5615234
vn -0.7641602 -0.3166504 -0.5615234
vn 0.3166504 -0.7641602 -0.5615234
vn 0.3166504 -0.7641602 -0.5615234
vn 0.3166504 -0.7641602 -0.5615234
vn -0.8193359 -0.4638672 -0.3369141
vn -0.8193359 -0.4638672 -0.3369141
vn -0.8193359 -0.4638672 -0.3369141
vn 0.4638672 -0.8193359 -0.3369141
vn 0.4638672 -0.8193359 -0.3369141
vn 0.4638672 -0.8193359 -0.3369141
vn -0.4638672 0.8193359 0.3369141
vn -0.4638672 0.8193359 0.3369141
vn -0.4638672 0.8193359 0.3369141
vn -0.8193359 -0.4638672 0.3369141
vn -0.8193359 -0.4638672 0.3369141
vn -0.8193359 -0.4638672 0.3369141
vn 0.4638672 -0.8193359 0.3369141
vn 0.4638672 -0.8193359 0.3369141
vn 0.4638672 -0.8193359 0.3369141
vn -0.2514648 0.9072266 -0.3369141
vn -0.2514648 0.9072266 -0.3369141
vn -0.2514648 0.9072266 -0.3369141
vn -0.9072266 -0.2514648 -0.3369141
vn -0.9072266 -0.2514648 -0.3369141
vn -0.9072266 -0.2514648 -0.3369141
vn -0.2514648 0.9072266 0.3369141
vn -0.2514648 0.9072266 0.3369141
vn -0.2514648 0.9072266 0.3369141
vn -0.3115234 -0.1290283 0.9414063
vn -0.3115234 -0.1290283 0.9414063
vn -0.3115234 -0.1290283 0.9414063
vn 0.2514648 -0.9072266 -0.3369141
vn 0.2514648 -0.9072266 -0.3369141
vn 0.2514648 -0.9072266 -0.3369141
vn 0.3063965 -0.1269531 0.9433594
vn 0.4848633 -0.2009277 0.8510742
vn 0.4848633 -0.2009277 0.8510742
vn 0.3063965 -0.1269531 0.9433594
vn 0.2009277 -0.4848633 0.8510742
vn 0.2009277 -0.4848633 0.8510742
vn 0.3063965 -0.1269531 0.9433594
vn -0.2008057 -0.4848633 0.8510742
vn -0.2008057 -0.4848633 0.8510742
vn 0.3063965 -0.1269531 0.9433594
vn -0.4848633 -0.2008057 0.8510742
vn -0.4848633 -0.2008057 0.8510742
vn 0.3063965 -0.1269531 0.9433594
vn -0.4848633 0.2009277 0.8510742
vn -0.4848633 0.2009277 0.8510742
vn 0.3063965 -0.1269531 0.9433594
vn -0.2009277 0.4848633 0.8510742
vn -0.2009277 0.4848633 0.8510742
vn 0.3063965 -0.1269531 0.9433594
vn 0.2009277 0.4848633 0.8510742
vn 0.2009277 0.4848633 0.8510742
vn 0.3063965 -0.1269531 0.9433594
vn 0.4848633 0.2009277 0.8510742
vn 0.4848633 0.2009277 0.8510742
vn 0.4311523 0.1785889 0.8842773
vn 0.3063965 0.1269531 0.9433594
vn 0.3063965 0.1269531 0.9433594
vn 0.4311523 0.1785889 0.8842773
vn 0.9238281 0.3825684 0
vn 0.9238281 0.3825684 0
vn 0.9238281 0.3825684 0
vn 0.9238281 0.3825684 0
vn 0.317627 0.7670898 -0.5571289
vn 0.317627 0.7670898 -0.5571289
vn 0.317627 0.7670898 -0.5571289
vn 0.317627 0.7670898 -0.5571289
vn 0.1785889 0.4311523 0.8842773
vn 0.1269531 0.3063965 0.9433594
vn 0.1269531 0.3063965 0.9433594
vn 0.1785889 0.4311523 0.8842773
vn 0.317627 0.7670898 0.5571289
vn 0.317627 0.7670898 0.5571289
vn 0.317627 0.7670898 0.5571289
vn 0.317627 0.7670898 0.5571289
vn -0.1785889 0.4311523 0.8842773
vn -0.1269531 0.3063965 0.9433594
vn -0.1269531 0.3063965 0.9433594
vn -0.1785889 0.4311523 0.8842773
vn -0.3825684 0.9238281 0
vn -0.3825684 0.9238281 0
vn -0.3825684 0.9238281 0
vn -0.3825684 0.9238281 0
vn -0.7670898 0.317627 -0.5571289
vn -0.7670898 0.317627 -0.5571289
vn -0.7670898 0.317627 -0.5571289
vn -0.7670898 0.317627 -0.5571289
vn -0.4311523 0.1785889 0.8842773
vn -0.3063965 0.1269531 0.9433594
vn -0.3063965 0.1269531 0.9433594
vn -0.4311523 0.1785889 0.8842773
vn -0.7670898 0.317627 0.5571289
vn -0.7670898 0.317627 0.5571289
vn -0.7670898 0.317627 0.5571289
vn -0.7670898 0.317627 0.5571289
vn -0.4311523 -0.1785889 0.8842773
vn -0.3063965 -0.1269531 0.9433594
vn -0.3063965 -0.1269531 0.9433594
vn -0.4311523 -0.1785889 0.8842773
vn -0.9238281 -0.3825684 0
vn -0.9238281 -0.3825684 0
vn -0.9238281 -0.3825684 0
vn -0.9238281 -0.3825684 0
vn -0.317627 -0.7670898 -0.5571289
vn -0.317627 -0.7670898 -0.5571289
vn -0.317627 -0.7670898 -0.5571289
vn -0.317627 -0.7670898 -0.5571289
vn -0.1785889 -0.4311523 0.8842773
vn -0.1269531 -0.3063965 0.9433594
vn -0.1269531 -0.3063965 0.9433594
vn -0.1785889 -0.4311523 0.8842773
vn -0.317627 -0.7670898 0.5571289
vn -0.317627 -0.7670898 0.5571289
vn -0.317627 -0.7670898 0.5571289
vn -0.317627 -0.7670898 0.5571289
vn 0.1785889 -0.4311523 0.8842773
vn 0.1269531 -0.3063965 0.9433594
vn 0.1269531 -0.3063965 0.9433594
vn 0.1785889 -0.4311523 0.8842773
vn 0.3825684 -0.9238281 0
vn 0.3825684 -0.9238281 0
vn 0.3825684 -0.9238281 0
vn 0.3825684 -0.9238281 0
vn 0.7670898 -0.317627 -0.5571289
vn 0.7670898 -0.317627 -0.5571289
vn 0.7670898 -0.317627 -0.5571289
vn 0.7670898 -0.317627 -0.5571289
vn 0.4311523 -0.1785889 0.8842773
vn 0.3063965 -0.1269531 0.9433594
vn 0.3063965 -0.1269531 0.9433594
vn 0.4311523 -0.1785889 0.8842773
vn 0.7670898 -0.317627 0.5571289
vn 0.7670898 -0.317627 0.5571289
vn 0.7670898 -0.317627 0.5571289
vn 0.7670898 -0.317627 0.5571289
vn 0.7070313 -0.7070313 0
vn 0.7070313 -0.7070313 0
vn 1 0 0
vn 1 0 0
vn 0 -1 0
vn 0 -1 0
vn 0.7070313 -0.7070313 0
vn 0.7070313 -0.7070313 0
vn -0.7070313 -0.7070313 0
vn -0.7070313 -0.7070313 0
vn 0 -1 0
vn 0 -1 0
vn -1 0 0
vn -1 0 0
vn -0.7070313 -0.7070313 0
vn -0.7070313 -0.7070313 0
vn -0.7070313 0.7070313 0
vn -0.7070313 0.7070313 0
vn -1 0 0
vn -1 0 0
vn 0 1 0
vn 0 1 0
vn -0.7070313 0.7070313 0
vn -0.7070313 0.7070313 0
vn 0.7070313 0.7070313 0
vn 0.7070313 0.7070313 0
vn 0 1 0
vn 0 1 0
vn 1 0 0
vn 1 0 0
vn 0.7070313 0.7070313 0
vn 0.7070313 0.7070313 0
vn 0 0 1
vn 0 0 1
vn 0 0 1
vn 0 0 1
vn 0 0 1
vn 0 0 1
vn 0 0 1
vn 0 0 1
vn 0 0 1
vn 0 0 1
vn 0 0 1
vn 0 0 1
vn 0 0 1
vn 0 0 1
vn 0 0 1
vn 0 0 1
vn -1.788139E-07 0 1
vn -1.788139E-07 0 1
vn 0 0 1
vn 0 0 1
vn -1.788139E-07 0 1
vn -1.788139E-07 0 1
vn -1.788139E-07 0 1
vn -1.788139E-07 0 1
vn 0 0 1
vn 0 0 1
vn -1.788139E-07 0 1
vn -1.788139E-07 0 1
vn 0 0 1
vn 0 0 1
vn 0 0 1
vn 0 0 1
vn 0.9238281 -0.3825684 0
vn 0.9238281 -0.3825684 0
vn 0.9238281 -0.3825684 0
vn 0.9238281 -0.3825684 0
vn 0.3825684 -0.9238281 0
vn 0.3825684 -0.9238281 0
vn 0.3825684 -0.9238281 0
vn 0.3825684 -0.9238281 0
vn -0.3825684 -0.9238281 0
vn -0.3825684 -0.9238281 0
vn -0.3825684 -0.9238281 0
vn -0.3825684 -0.9238281 0
vn -0.9238281 -0.3825684 0
vn -0.9238281 -0.3825684 0
vn -0.9238281 -0.3825684 0
vn -0.9238281 -0.3825684 0
vn -0.9238281 0.3825684 0
vn -0.9238281 0.3825684 0
vn -0.9238281 0.3825684 0
vn -0.9238281 0.3825684 0
vn -0.3825684 0.9238281 0
vn -0.3825684 0.9238281 0
vn -0.3825684 0.9238281 0
vn -0.3825684 0.9238281 0
vn 0.3825684 0.9238281 0
vn 0.3825684 0.9238281 0
vn 0.3825684 0.9238281 0
vn 0.3825684 0.9238281 0
vn 0.9238281 0.3825684 0
vn 0.9238281 0.3825684 0
vn 0.9238281 0.3825684 0
vn 0.9238281 0.3825684 0
g weapon_hammmer_01_0
f 3/3/3 2/2/2 1/1/1
f 6/6/6 5/5/5 4/4/4
f 9/9/9 8/8/8 7/7/7
f 12/12/12 11/11/11 10/10/10
f 15/15/15 14/14/14 13/13/13
f 18/18/18 17/17/17 16/16/16
f 21/21/21 20/20/20 19/19/19
f 24/24/24 23/23/23 22/22/22
f 27/27/27 26/26/26 25/25/25
f 30/30/30 29/29/29 28/28/28
f 33/33/33 32/32/32 31/31/31
f 36/36/36 35/35/35 34/34/34
f 39/39/39 38/38/38 37/37/37
f 42/42/42 41/41/41 40/40/40
f 45/45/45 44/44/44 43/43/43
f 48/48/48 47/47/47 46/46/46
f 51/51/51 50/50/50 49/49/49
f 54/54/54 53/53/53 52/52/52
f 57/57/57 56/56/56 55/55/55
f 60/60/60 59/59/59 58/58/58
f 63/63/63 62/62/62 61/61/61
f 66/66/66 65/65/65 64/64/64
f 69/69/69 68/68/68 67/67/67
f 72/72/72 71/71/71 70/70/70
f 75/75/75 74/74/74 73/73/73
f 78/78/78 77/77/77 76/76/76
f 81/81/81 80/80/80 79/79/79
f 84/84/84 83/83/83 82/82/82
f 87/87/87 86/86/86 85/85/85
f 90/90/90 89/89/89 88/88/88
f 93/93/93 92/92/92 91/91/91
f 96/96/96 95/95/95 94/94/94
f 99/99/99 98/98/98 97/97/97
f 102/102/102 101/101/101 100/100/100
f 105/105/105 104/104/104 103/103/103
f 108/108/108 107/107/107 106/106/106
f 111/111/111 110/110/110 109/109/109
f 114/114/114 113/113/113 112/112/112
f 117/117/117 116/116/116 115/115/115
f 120/120/120 119/119/119 118/118/118
f 123/123/123 122/122/122 121/121/121
f 126/126/126 125/125/125 124/124/124
f 129/129/129 128/128/128 127/127/127
f 132/132/132 131/131/131 130/130/130
f 135/135/135 134/134/134 133/133/133
f 138/138/138 137/137/137 136/136/136
f 141/141/141 140/140/140 139/139/139
f 144/144/144 143/143/143 142/142/142
f 147/147/147 146/146/146 145/145/145
f 150/150/150 149/149/149 148/148/148
f 153/153/153 152/152/152 151/151/151
f 156/156/156 155/155/155 154/154/154
f 159/159/159 158/158/158 157/157/157
f 162/162/162 161/161/161 160/160/160
f 165/165/165 164/164/164 163/163/163
f 168/168/168 167/167/167 166/166/166
f 171/171/171 170/170/170 169/169/169
f 174/174/174 173/173/173 172/172/172
f 177/177/177 176/176/176 175/175/175
f 180/180/180 179/179/179 178/178/178
f 183/183/183 182/182/182 181/181/181
f 186/186/186 185/185/185 184/184/184
f 189/189/189 188/188/188 187/187/187
f 192/192/192 191/191/191 190/190/190
f 195/195/195 194/194/194 193/193/193
f 196/196/196 195/195/195 193/193/193
f 199/199/199 198/198/198 197/197/197
f 200/200/200 199/199/199 197/197/197
f 203/203/203 202/202/202 201/201/201
f 204/204/204 203/203/203 201/201/201
f 207/207/207 206/206/206 205/205/205
f 208/208/208 207/207/207 205/205/205
f 211/211/211 210/210/210 209/209/209
f 212/212/212 211/211/211 209/209/209
f 215/215/215 214/214/214 213/213/213
f 216/216/216 215/215/215 213/213/213
f 219/219/219 218/218/218 217/217/217
f 220/220/220 219/219/219 217/217/217
f 223/223/223 222/222/222 221/221/221
f 224/224/224 223/223/223 221/221/221
f 227/227/227 226/226/226 225/225/225
f 228/228/228 227/227/227 225/225/225
f 231/231/231 230/230/230 229/229/229
f 232/232/232 231/231/231 229/229/229
f 235/235/235 234/234/234 233/233/233
f 236/236/236 235/235/235 233/233/233
f 239/239/239 238/238/238 237/237/237
f 240/240/240 239/239/239 237/237/237
f 243/243/243 242/242/242 241/241/241
f 244/244/244 243/243/243 241/241/241
f 247/247/247 246/246/246 245/245/245
f 248/248/248 247/247/247 245/245/245
f 251/251/251 250/250/250 249/249/249
f 252/252/252 251/251/251 249/249/249
f 255/255/255 254/254/254 253/253/253
f 256/256/256 255/255/255 253/253/253
f 259/259/259 258/258/258 257/257/257
f 260/260/260 259/259/259 257/257/257
f 263/263/263 262/262/262 261/261/261
f 264/264/264 263/263/263 261/261/261
f 267/267/267 266/266/266 265/265/265
f 268/268/268 267/267/267 265/265/265
f 271/271/271 270/270/270 269/269/269
f 272/272/272 271/271/271 269/269/269
f 275/275/275 274/274/274 273/273/273
f 276/276/276 275/275/275 273/273/273
f 279/279/279 278/278/278 277/277/277
f 280/280/280 279/279/279 277/277/277
f 283/283/283 282/282/282 281/281/281
f 284/284/284 283/283/283 281/281/281
f 287/287/287 286/286/286 285/285/285
f 288/288/288 287/287/287 285/285/285
f 291/291/291 290/290/290 289/289/289
f 292/292/292 291/291/291 289/289/289
f 295/295/295 294/294/294 293/293/293
f 296/296/296 295/295/295 293/293/293
f 299/299/299 298/298/298 297/297/297
f 300/300/300 299/299/299 297/297/297
f 303/303/303 302/302/302 301/301/301
f 304/304/304 303/303/303 301/301/301
f 307/307/307 306/306/306 305/305/305
f 308/308/308 307/307/307 305/305/305
f 311/311/311 310/310/310 309/309/309
f 312/312/312 311/311/311 309/309/309
f 315/315/315 314/314/314 313/313/313
f 316/316/316 315/315/315 313/313/313
f 319/319/319 318/318/318 317/317/317
f 320/320/320 319/319/319 317/317/317
f 323/323/323 322/322/322 321/321/321
f 324/324/324 323/323/323 321/321/321
f 327/327/327 326/326/326 325/325/325
f 328/328/328 327/327/327 325/325/325
f 331/331/331 330/330/330 329/329/329
f 332/332/332 331/331/331 329/329/329
f 335/335/335 334/334/334 333/333/333
f 336/336/336 335/335/335 333/333/333
f 339/339/339 338/338/338 337/337/337
f 340/340/340 339/339/339 337/337/337
f 343/343/343 342/342/342 341/341/341
f 344/344/344 343/343/343 341/341/341
f 347/347/347 346/346/346 345/345/345
f 348/348/348 347/347/347 345/345/345
f 351/351/351 350/350/350 349/349/349
f 352/352/352 351/351/351 349/349/349
f 355/355/355 354/354/354 353/353/353
f 356/356/356 355/355/355 353/353/353
f 359/359/359 358/358/358 357/357/357
f 360/360/360 359/359/359 357/357/357
f 363/363/363 362/362/362 361/361/361
f 364/364/364 363/363/363 361/361/361
f 367/367/367 366/366/366 365/365/365
f 368/368/368 367/367/367 365/365/365
