g weapon_shuriken_01
v 1.391745E-09 0.001104026 0.003666448
v 0.002295427 0.0003952299 0.003301519
v 0.001270165 0.0003538538 0.006108864
v 8.149073E-12 0.0007505547 0.006129644
v 2.438633E-12 0.0002663763 0.008775339
v 0.006129644 0.0007505547 0
v 0.003301522 0.0003952299 0.002295424
v 0.003666448 0.001104026 -1.192093E-09
v 0.006108862 0.000353854 0.001270164
v 0.008775339 0.0002663763 0
v -2.103702E-17 1.084202E-20 0.01
v 2.438633E-12 0.0002663763 0.008775339
v 0.0006100917 -1.640903E-21 0.00877534
v 0.001270165 0.0003538538 0.006108864
v 0.001926604 -3.270229E-20 0.006132656
v 0.002295427 0.0003952299 0.003301519
v 0.002828286 6.994747E-20 0.003669505
v 0.002571077 0.0003739388 0.002568676
v 0.002295427 0.0003952299 0.003301519
v 0.0004351316 0.001443279 0.001520308
v 0.001106438 0.001443279 0.001106438
v 0.0004351316 0.001443279 0.001520308
v 0.002295427 0.0003952299 0.003301519
v 1.391745E-09 0.001104026 0.003666448
v 5.158411E-11 0.001443279 0.001562038
v 0.003666448 0.001104026 -1.192093E-09
v 0.003301522 0.0003952299 0.002295424
v 0.001518588 0.001443279 0.0004328769
v 0.001562038 0.001443279 0
v 0.002828286 6.994747E-20 0.003669505
v 0.002295427 0.0003952299 0.003301519
v 0.002571077 0.0003739388 0.002568676
v 0.003120518 0 0.003118117
v 0.01 1.01915E-19 0
v 0.008775339 -2.083427E-19 0.0006100917
v 0.008775339 0.0002663763 0
v 0.006108862 0.000353854 0.001270164
v 0.006132654 -1.56027E-19 0.001926604
v 0.003669505 -2.945964E-20 0.002828286
v 0.003301522 0.0003952299 0.002295424
v 0.002571077 0.0003739388 0.002568676
v 0.003120518 0 0.003118117
v 0.003301522 0.0003952299 0.002295424
v 0.002571077 0.0003739388 0.002568676
v 0.001106438 0.001443279 0.001106438
v 0.001518588 0.001443279 0.0004328769
v 0.001518588 0.001443279 0.0004328769
v 0.001562038 0.001789097 0
v 0.001562038 0.001443279 0
v 0.001518588 0.001789097 0.0004328769
v 0.001106438 0.001443279 0.001106438
v 0.001106438 0.001789097 0.001106438
v 0.0004351316 0.001443279 0.001520308
v 0.0004351316 0.001789097 0.001520308
v 5.158411E-11 0.001443279 0.001562038
v 5.163587E-11 0.001789097 0.001562038
v 0.0006520254 0 0.0006520248
v 0.000901218 0 0.0002823013
v 0.000901218 0.001789097 0.0002823013
v 0.0006520254 0.001789097 0.0006520248
v 0.0002823015 0 0.000901218
v 0.0002823015 0.001789097 0.000901218
v 0.003666448 0.001104026 -1.192093E-09
v 0.003301519 0.0003952299 -0.002295426
v 0.006108864 0.0003538538 -0.001270165
v 0.006129644 0.0007505547 0
v 0.008775339 0.0002663763 0
v -8.149073E-12 0.0007505547 -0.006129644
v 0.002295424 0.0003952299 -0.003301522
v -1.391745E-09 0.001104026 -0.003666447
v 0.001270165 0.000353854 -0.006108862
v -2.43865E-12 0.0002663763 -0.008775339
v 0.01 1.01915E-19 0
v 0.008775339 0.0002663763 0
v 0.00877534 2.061742E-19 -0.0006100917
v 0.006108864 0.0003538538 -0.001270165
v 0.006132656 -1.020401E-20 -0.001926604
v 0.003301519 0.0003952299 -0.002295426
v 0.003669505 -1.218688E-19 -0.002828286
v 0.002568676 0.0003739388 -0.002571077
v 0.003301519 0.0003952299 -0.002295426
v 0.001520308 0.001443279 -0.0004351318
v 0.001106438 0.001443279 -0.001106439
v 0.001520308 0.001443279 -0.0004351318
v 0.003301519 0.0003952299 -0.002295426
v 0.003666448 0.001104026 -1.192093E-09
v 0.001562038 0.001443279 0
v -1.391745E-09 0.001104026 -0.003666447
v 0.002295424 0.0003952299 -0.003301522
v 0.0004328768 0.001443279 -0.001518588
v -5.158414E-11 0.001443279 -0.001562039
v 0.003669505 -1.218688E-19 -0.002828286
v 0.003301519 0.0003952299 -0.002295426
v 0.002568676 0.0003739388 -0.002571077
v 0.003118117 0 -0.003120518
v 7.251144E-18 2.168404E-19 -0.01
v 0.0006100918 1.734413E-19 -0.008775339
v -2.43865E-12 0.0002663763 -0.008775339
v 0.001270165 0.000353854 -0.006108862
v 0.001926604 1.508759E-19 -0.006132654
v 0.002828286 1.468929E-19 -0.003669505
v 0.002295424 0.0003952299 -0.003301522
v 0.002568676 0.0003739388 -0.002571077
v 0.003118117 0 -0.003120518
v 0.002295424 0.0003952299 -0.003301522
v 0.002568676 0.0003739388 -0.002571077
v 0.001106438 0.001443279 -0.001106439
v 0.0004328768 0.001443279 -0.001518588
v 0.0004328768 0.001443279 -0.001518588
v -5.16359E-11 0.001789097 -0.001562039
v -5.158414E-11 0.001443279 -0.001562039
v 0.0004328768 0.001789097 -0.001518588
v 0.001106438 0.001443279 -0.001106439
v 0.001106438 0.001789097 -0.001106439
v 0.001520308 0.001443279 -0.0004351318
v 0.001520308 0.001789097 -0.0004351318
v 0.001562038 0.001443279 0
v 0.001562038 0.001789097 0
v 0.000901218 -3.56739E-20 -0.0002823019
v 0.0006520245 0.001789097 -0.0006520259
v 0.000901218 0.001789097 -0.0002823019
v 0.0006520245 -1.599482E-20 -0.0006520259
v 0.0002823016 0.001789097 -0.0009012186
v 0.0002823016 -1.754171E-20 -0.0009012186
v 0.0002823016 -0.001789097 -0.0009012186
v 0.0006520245 -0.001789097 -0.0006520259
v 0.000901218 -0.001789097 -0.0002823019
v -1.391745E-09 0.001104026 -0.003666447
v -0.002295427 0.0003952299 -0.003301519
v -0.001270165 0.0003538538 -0.006108864
v -8.149073E-12 0.0007505547 -0.006129644
v -2.43865E-12 0.0002663763 -0.008775339
v -0.006129644 0.0007505547 0
v -0.003301522 0.0003952299 -0.002295424
v -0.003666448 0.001104026 1.192093E-09
v -0.006108862 0.000353854 -0.001270164
v -0.008775339 0.0002663763 0
v 7.251144E-18 2.168404E-19 -0.01
v -2.43865E-12 0.0002663763 -0.008775339
v -0.0006100917 3.648815E-19 -0.00877534
v -0.001270165 0.0003538538 -0.006108864
v -0.001926604 2.290366E-19 -0.006132656
v -0.002295427 0.0003952299 -0.003301519
v -0.002828286 1.560047E-19 -0.003669505
v -0.002571077 0.0003739388 -0.002568676
v -0.002295427 0.0003952299 -0.003301519
v -0.0004351316 0.001443279 -0.001520307
v -0.001106438 0.001443279 -0.001106439
v -0.0004351316 0.001443279 -0.001520307
v -0.002295427 0.0003952299 -0.003301519
v -1.391745E-09 0.001104026 -0.003666447
v -5.158414E-11 0.001443279 -0.001562039
v -0.003666448 0.001104026 1.192093E-09
v -0.003301522 0.0003952299 -0.002295424
v -0.001518588 0.001443279 -0.0004328775
v -0.001562038 0.001443279 0
v -0.002828286 1.560047E-19 -0.003669505
v -0.002295427 0.0003952299 -0.003301519
v -0.002571077 0.0003739388 -0.002568676
v -0.003120518 0 -0.003118117
v -0.01 4.98733E-20 0
v -0.008775339 1.342342E-19 -0.0006100917
v -0.008775339 0.0002663763 0
v -0.006108862 0.000353854 -0.001270164
v -0.006132654 2.25514E-19 -0.001926603
v -0.003669505 3.347119E-19 -0.002828286
v -0.003301522 0.0003952299 -0.002295424
v -0.002571077 0.0003739388 -0.002568676
v -0.003120518 0 -0.003118117
v -0.003301522 0.0003952299 -0.002295424
v -0.002571077 0.0003739388 -0.002568676
v -0.001106438 0.001443279 -0.001106439
v -0.001518588 0.001443279 -0.0004328775
v -0.001518588 0.001443279 -0.0004328775
v -0.001562038 0.001789097 0
v -0.001562038 0.001443279 0
v -0.001518588 0.001789097 -0.0004328775
v -0.001106438 0.001443279 -0.001106439
v -0.001106438 0.001789097 -0.001106439
v -0.0004351316 0.001443279 -0.001520307
v -0.0004351316 0.001789097 -0.001520307
v -5.158414E-11 0.001443279 -0.001562039
v -5.16359E-11 0.001789097 -0.001562039
v -0.0002823013 3.469447E-20 -0.0009012175
v -0.0006520254 0.001789097 -0.0006520235
v -0.0002823013 0.001789097 -0.0009012175
v -0.0006520254 3.469447E-20 -0.0006520235
v -0.0009012177 0.001789097 -0.0002823019
v -0.0009012177 -7.45472E-28 -0.0002823019
v -0.0009012177 -0.001789097 -0.0002823019
v -0.0006520254 -0.001789097 -0.0006520235
v -0.0002823013 -0.001789097 -0.0009012175
v -0.003666448 0.001104026 1.192093E-09
v -0.003301519 0.0003952299 0.002295427
v -0.006108864 0.0003538538 0.001270165
v -0.006129644 0.0007505547 0
v -0.008775339 0.0002663763 0
v 8.149073E-12 0.0007505547 0.006129644
v -0.002295424 0.0003952299 0.003301522
v 1.391745E-09 0.001104026 0.003666448
v -0.001270165 0.000353854 0.006108862
v 2.438633E-12 0.0002663763 0.008775339
v -0.01 4.98733E-20 0
v -0.008775339 0.0002663763 0
v -0.00877534 -1.326864E-19 0.0006100917
v -0.006108864 0.0003538538 0.001270165
v -0.006132656 -1.944402E-19 0.001926604
v -0.003301519 0.0003952299 0.002295427
v -0.003669505 -1.699131E-19 0.002828286
v -0.002568676 0.0003739388 0.002571077
v -0.003301519 0.0003952299 0.002295427
v -0.001520308 0.001443279 0.0004351318
v -0.001106438 0.001443279 0.001106438
v -0.001520308 0.001443279 0.0004351318
v -0.003301519 0.0003952299 0.002295427
v -0.003666448 0.001104026 1.192093E-09
v -0.001562038 0.001443279 0
v 1.391745E-09 0.001104026 0.003666448
v -0.002295424 0.0003952299 0.003301522
v -0.0004328768 0.001443279 0.001518588
v 5.158411E-11 0.001443279 0.001562038
v -0.003669505 -1.699131E-19 0.002828286
v -0.003301519 0.0003952299 0.002295427
v -0.002568676 0.0003739388 0.002571077
v -0.003118117 0 0.003120518
v -2.103702E-17 1.084202E-20 0.01
v -0.0006100918 -1.734723E-20 0.008775339
v 2.438633E-12 0.0002663763 0.008775339
v -0.001270165 0.000353854 0.006108862
v -0.001926604 1.030212E-20 0.006132654
v -0.002828286 4.392663E-20 0.003669505
v -0.002295424 0.0003952299 0.003301522
v -0.002568676 0.0003739388 0.002571077
v -0.003118117 0 0.003120518
v -0.002295424 0.0003952299 0.003301522
v -0.002568676 0.0003739388 0.002571077
v -0.001106438 0.001443279 0.001106438
v -0.0004328768 0.001443279 0.001518588
v -0.0004328768 0.001443279 0.001518588
v 5.163587E-11 0.001789097 0.001562038
v 5.158411E-11 0.001443279 0.001562038
v -0.0004328768 0.001789097 0.001518588
v -0.001106438 0.001443279 0.001106438
v -0.001106438 0.001789097 0.001106438
v -0.001520308 0.001443279 0.0004351318
v -0.001520308 0.001789097 0.0004351318
v -0.001562038 0.001443279 0
v -0.001562038 0.001789097 0
v -0.0006520245 6.536191E-21 0.0006520253
v -0.0002823014 0 0.000901218
v -0.0002823014 0.001789097 0.000901218
v -0.0006520245 0.001789097 0.0006520253
v -0.0009012178 4.989295E-21 0.0002823013
v -0.0009012178 0.001789097 0.0002823013
v -0.0006520245 -0.001789097 0.0006520253
v -0.0009012178 -0.001789097 0.0002823013
v -0.0006520245 6.536191E-21 0.0006520253
v -0.0002823014 -0.001789097 0.000901218
v -0.0002823014 0 0.000901218
v -0.0004328768 0.001789097 0.001518588
v -0.0006520245 0.001789097 0.0006520253
v -0.0002823014 0.001789097 0.000901218
v -0.001106438 0.001789097 0.001106438
v -0.001520308 0.001789097 0.0004351318
v -0.0009012178 0.001789097 0.0002823013
v 0.001518588 0.001789097 0.0004328769
v 0.0006520254 0.001789097 0.0006520248
v 0.000901218 0.001789097 0.0002823013
v 0.001106438 0.001789097 0.001106438
v 0.0004351316 0.001789097 0.001520308
v 0.0002823015 0.001789097 0.000901218
v 5.163587E-11 0.001789097 0.001562038
v 4.656613E-11 0.001789097 0.000901218
v 0.0004328768 0.001789097 -0.001518588
v 0.0006520245 0.001789097 -0.0006520259
v 0.0002823016 0.001789097 -0.0009012186
v 0.001106438 0.001789097 -0.001106439
v 0.001520308 0.001789097 -0.0004351318
v 0.000901218 0.001789097 -0.0002823019
v -0.001518588 0.001789097 -0.0004328775
v -0.0006520254 0.001789097 -0.0006520235
v -0.0009012177 0.001789097 -0.0002823019
v -0.001106438 0.001789097 -0.001106439
v -0.0004351316 0.001789097 -0.001520307
v -0.0002823013 0.001789097 -0.0009012175
v 0.0002823015 0 0.000901218
v 0.0002823015 0.001789097 0.000901218
v 4.656613E-11 0.001789097 0.000901218
v 4.656613E-11 0 0.000901218
v -0.0002823014 0 0.000901218
v -0.0002823014 0.001789097 0.000901218
v 4.656613E-11 -0.001789097 0.000901218
v -0.0002823014 -0.001789097 0.000901218
v 4.656613E-11 0 0.000901218
v 0.0002823015 0 0.000901218
v 0.0002823015 -0.001789097 0.000901218
v 0.000901218 -3.56739E-20 -0.0002823019
v 0.000901218 0.001789097 -0.0002823019
v 0.000901218 0.001789097 0
v 0.000901218 -3.469447E-20 0
v 0.000901218 0 0.0002823013
v 0.000901218 0.001789097 0.0002823013
v -0.0002823013 3.469447E-20 -0.0009012175
v -0.0002823013 0.001789097 -0.0009012175
v 1.210719E-10 0.001789097 -0.0009012175
v 1.210719E-10 0 -0.0009012175
v 1.210719E-10 -0.001789097 -0.0009012175
v -0.0002823013 -0.001789097 -0.0009012175
v 0.0002823016 -1.754171E-20 -0.0009012186
v 0.0002823016 0.001789097 -0.0009012186
v 0.0002823016 -0.001789097 -0.0009012186
v -0.0009012178 4.989295E-21 0.0002823013
v -0.0009012178 0.001789097 0.0002823013
v -0.0009012177 0.001789097 0
v -0.0009012177 -7.45472E-28 0
v -0.0009012177 -0.001789097 0
v -0.0009012178 -0.001789097 0.0002823013
v -0.0009012177 -7.45472E-28 -0.0002823019
v -0.0009012177 0.001789097 -0.0002823019
v -0.0009012177 -0.001789097 -0.0002823019
v 5.163587E-11 0.001789097 0.001562038
v -0.0004328768 0.001789097 0.001518588
v -0.0002823014 0.001789097 0.000901218
v 4.656613E-11 0.001789097 0.000901218
v 0.001562038 0.001789097 0
v 0.001518588 0.001789097 0.0004328769
v 0.000901218 0.001789097 0.0002823013
v 0.000901218 0.001789097 0
v -5.16359E-11 0.001789097 -0.001562039
v 0.0004328768 0.001789097 -0.001518588
v 0.0002823016 0.001789097 -0.0009012186
v 1.210719E-10 0.001789097 -0.0009012175
v -0.001562038 0.001789097 0
v -0.001518588 0.001789097 -0.0004328775
v -0.0009012177 0.001789097 -0.0002823019
v -0.0009012177 0.001789097 0
v -0.0009012178 0.001789097 0.0002823013
v -0.001520308 0.001789097 0.0004351318
v -0.001562038 0.001789097 0
v -0.0009012177 0.001789097 0
v -0.0002823013 0.001789097 -0.0009012175
v -0.0004351316 0.001789097 -0.001520307
v -5.16359E-11 0.001789097 -0.001562039
v 1.210719E-10 0.001789097 -0.0009012175
v 0.000901218 0.001789097 -0.0002823019
v 0.001520308 0.001789097 -0.0004351318
v 0.001562038 0.001789097 0
v 0.000901218 0.001789097 0
v 1.391745E-09 -0.001104026 0.003666448
v 0.001270165 -0.0003538538 0.006108864
v 0.002295427 -0.0003952299 0.003301519
v 8.149073E-12 -0.0007505547 0.006129644
v 2.438633E-12 -0.0002663763 0.008775339
v 0.006129644 -0.0007505547 0
v 0.003666448 -0.001104026 -1.192093E-09
v 0.003301522 -0.0003952299 0.002295424
v 0.006108862 -0.000353854 0.001270164
v 0.008775339 -0.0002663763 0
v -2.103702E-17 1.084202E-20 0.01
v 0.0006100917 -1.640903E-21 0.00877534
v 2.438633E-12 -0.0002663763 0.008775339
v 0.001270165 -0.0003538538 0.006108864
v 0.001926604 -3.270229E-20 0.006132656
v 0.002295427 -0.0003952299 0.003301519
v 0.002828286 6.994747E-20 0.003669505
v 0.002571077 -0.0003739388 0.002568676
v 0.001106438 -0.001443279 0.001106438
v 0.0004351316 -0.001443279 0.001520308
v 0.002295427 -0.0003952299 0.003301519
v 0.0004351316 -0.001443279 0.001520308
v 5.158411E-11 -0.001443279 0.001562038
v 1.391745E-09 -0.001104026 0.003666448
v 0.002295427 -0.0003952299 0.003301519
v 0.003666448 -0.001104026 -1.192093E-09
v 0.001562038 -0.001443279 0
v 0.001518588 -0.001443279 0.0004328769
v 0.003301522 -0.0003952299 0.002295424
v 0.002828286 6.994747E-20 0.003669505
v 0.003120518 0 0.003118117
v 0.002571077 -0.0003739388 0.002568676
v 0.002295427 -0.0003952299 0.003301519
v 0.01 1.01915E-19 0
v 0.008775339 -0.0002663763 0
v 0.008775339 -2.083427E-19 0.0006100917
v 0.006108862 -0.000353854 0.001270164
v 0.006132654 -1.56027E-19 0.001926604
v 0.003669505 -2.945964E-20 0.002828286
v 0.003301522 -0.0003952299 0.002295424
v 0.002571077 -0.0003739388 0.002568676
v 0.003120518 0 0.003118117
v 0.003301522 -0.0003952299 0.002295424
v 0.001518588 -0.001443279 0.0004328769
v 0.001106438 -0.001443279 0.001106438
v 0.002571077 -0.0003739388 0.002568676
v 0.001518588 -0.001443279 0.0004328769
v 0.001562038 -0.001443279 0
v 0.001562038 -0.001789097 0
v 0.001518588 -0.001789097 0.0004328769
v 0.001106438 -0.001443279 0.001106438
v 0.001106438 -0.001789097 0.001106438
v 0.0004351316 -0.001443279 0.001520308
v 0.0004351316 -0.001789097 0.001520308
v 5.158411E-11 -0.001443279 0.001562038
v 5.163587E-11 -0.001789097 0.001562038
v 0.0006520254 0 0.0006520248
v 0.000901218 -0.001789097 0.0002823013
v 0.000901218 0 0.0002823013
v 0.0006520254 -0.001789097 0.0006520248
v 0.0002823015 0 0.000901218
v 0.0002823015 -0.001789097 0.000901218
v 0.003666448 -0.001104026 -1.192093E-09
v 0.006108864 -0.0003538538 -0.001270165
v 0.003301519 -0.0003952299 -0.002295426
v 0.006129644 -0.0007505547 0
v 0.008775339 -0.0002663763 0
v -8.149073E-12 -0.0007505547 -0.006129644
v -1.391745E-09 -0.001104026 -0.003666447
v 0.002295424 -0.0003952299 -0.003301522
v 0.001270165 -0.000353854 -0.006108862
v -2.43865E-12 -0.0002663763 -0.008775339
v 0.01 1.01915E-19 0
v 0.00877534 2.061742E-19 -0.0006100917
v 0.008775339 -0.0002663763 0
v 0.006108864 -0.0003538538 -0.001270165
v 0.006132656 -1.020401E-20 -0.001926604
v 0.003301519 -0.0003952299 -0.002295426
v 0.003669505 -1.218688E-19 -0.002828286
v 0.002568676 -0.0003739388 -0.002571077
v 0.001106438 -0.001443279 -0.001106439
v 0.001520308 -0.001443279 -0.0004351318
v 0.003301519 -0.0003952299 -0.002295426
v 0.001520308 -0.001443279 -0.0004351318
v 0.001562038 -0.001443279 0
v 0.003666448 -0.001104026 -1.192093E-09
v 0.003301519 -0.0003952299 -0.002295426
v -1.391745E-09 -0.001104026 -0.003666447
v -5.158414E-11 -0.001443279 -0.001562039
v 0.0004328768 -0.001443279 -0.001518588
v 0.002295424 -0.0003952299 -0.003301522
v 0.003669505 -1.218688E-19 -0.002828286
v 0.003118117 0 -0.003120518
v 0.002568676 -0.0003739388 -0.002571077
v 0.003301519 -0.0003952299 -0.002295426
v 7.251144E-18 2.168404E-19 -0.01
v -2.43865E-12 -0.0002663763 -0.008775339
v 0.0006100918 1.734413E-19 -0.008775339
v 0.001270165 -0.000353854 -0.006108862
v 0.001926604 1.508759E-19 -0.006132654
v 0.002828286 1.468929E-19 -0.003669505
v 0.002295424 -0.0003952299 -0.003301522
v 0.002568676 -0.0003739388 -0.002571077
v 0.003118117 0 -0.003120518
v 0.002295424 -0.0003952299 -0.003301522
v 0.0004328768 -0.001443279 -0.001518588
v 0.001106438 -0.001443279 -0.001106439
v 0.002568676 -0.0003739388 -0.002571077
v 0.0004328768 -0.001443279 -0.001518588
v -5.158414E-11 -0.001443279 -0.001562039
v -5.16359E-11 -0.001789097 -0.001562039
v 0.0004328768 -0.001789097 -0.001518588
v 0.001106438 -0.001443279 -0.001106439
v 0.001106438 -0.001789097 -0.001106439
v 0.001520308 -0.001443279 -0.0004351318
v 0.001520308 -0.001789097 -0.0004351318
v 0.001562038 -0.001443279 0
v 0.001562038 -0.001789097 0
v -1.391745E-09 -0.001104026 -0.003666447
v -0.001270165 -0.0003538538 -0.006108864
v -0.002295427 -0.0003952299 -0.003301519
v -8.149073E-12 -0.0007505547 -0.006129644
v -2.43865E-12 -0.0002663763 -0.008775339
v -0.006129644 -0.0007505547 0
v -0.003666448 -0.001104026 1.192093E-09
v -0.003301522 -0.0003952299 -0.002295424
v -0.006108862 -0.000353854 -0.001270164
v -0.008775339 -0.0002663763 0
v 7.251144E-18 2.168404E-19 -0.01
v -0.0006100917 3.648815E-19 -0.00877534
v -2.43865E-12 -0.0002663763 -0.008775339
v -0.001270165 -0.0003538538 -0.006108864
v -0.001926604 2.290366E-19 -0.006132656
v -0.002295427 -0.0003952299 -0.003301519
v -0.002828286 1.560047E-19 -0.003669505
v -0.002571077 -0.0003739388 -0.002568676
v -0.001106438 -0.001443279 -0.001106439
v -0.0004351316 -0.001443279 -0.001520307
v -0.002295427 -0.0003952299 -0.003301519
v -0.0004351316 -0.001443279 -0.001520307
v -5.158414E-11 -0.001443279 -0.001562039
v -1.391745E-09 -0.001104026 -0.003666447
v -0.002295427 -0.0003952299 -0.003301519
v -0.003666448 -0.001104026 1.192093E-09
v -0.001562038 -0.001443279 0
v -0.001518588 -0.001443279 -0.0004328775
v -0.003301522 -0.0003952299 -0.002295424
v -0.002828286 1.560047E-19 -0.003669505
v -0.003120518 0 -0.003118117
v -0.002571077 -0.0003739388 -0.002568676
v -0.002295427 -0.0003952299 -0.003301519
v -0.01 4.98733E-20 0
v -0.008775339 -0.0002663763 0
v -0.008775339 1.342342E-19 -0.0006100917
v -0.006108862 -0.000353854 -0.001270164
v -0.006132654 2.25514E-19 -0.001926603
v -0.003669505 3.347119E-19 -0.002828286
v -0.003301522 -0.0003952299 -0.002295424
v -0.002571077 -0.0003739388 -0.002568676
v -0.003120518 0 -0.003118117
v -0.003301522 -0.0003952299 -0.002295424
v -0.001518588 -0.001443279 -0.0004328775
v -0.001106438 -0.001443279 -0.001106439
v -0.002571077 -0.0003739388 -0.002568676
v -0.001518588 -0.001443279 -0.0004328775
v -0.001562038 -0.001443279 0
v -0.001562038 -0.001789097 0
v -0.001518588 -0.001789097 -0.0004328775
v -0.001106438 -0.001443279 -0.001106439
v -0.001106438 -0.001789097 -0.001106439
v -0.0004351316 -0.001443279 -0.001520307
v -0.0004351316 -0.001789097 -0.001520307
v -5.158414E-11 -0.001443279 -0.001562039
v -5.16359E-11 -0.001789097 -0.001562039
v -0.003666448 -0.001104026 1.192093E-09
v -0.006108864 -0.0003538538 0.001270165
v -0.003301519 -0.0003952299 0.002295427
v -0.006129644 -0.0007505547 0
v -0.008775339 -0.0002663763 0
v 8.149073E-12 -0.0007505547 0.006129644
v 1.391745E-09 -0.001104026 0.003666448
v -0.002295424 -0.0003952299 0.003301522
v -0.001270165 -0.000353854 0.006108862
v 2.438633E-12 -0.0002663763 0.008775339
v -0.01 4.98733E-20 0
v -0.00877534 -1.326864E-19 0.0006100917
v -0.008775339 -0.0002663763 0
v -0.006108864 -0.0003538538 0.001270165
v -0.006132656 -1.944402E-19 0.001926604
v -0.003301519 -0.0003952299 0.002295427
v -0.003669505 -1.699131E-19 0.002828286
v -0.002568676 -0.0003739388 0.002571077
v -0.001106438 -0.001443279 0.001106438
v -0.001520308 -0.001443279 0.0004351318
v -0.003301519 -0.0003952299 0.002295427
v -0.001520308 -0.001443279 0.0004351318
v -0.001562038 -0.001443279 0
v -0.003666448 -0.001104026 1.192093E-09
v -0.003301519 -0.0003952299 0.002295427
v 1.391745E-09 -0.001104026 0.003666448
v 5.158411E-11 -0.001443279 0.001562038
v -0.0004328768 -0.001443279 0.001518588
v -0.002295424 -0.0003952299 0.003301522
v -0.003669505 -1.699131E-19 0.002828286
v -0.003118117 0 0.003120518
v -0.002568676 -0.0003739388 0.002571077
v -0.003301519 -0.0003952299 0.002295427
v -2.103702E-17 1.084202E-20 0.01
v 2.438633E-12 -0.0002663763 0.008775339
v -0.0006100918 -1.734723E-20 0.008775339
v -0.001270165 -0.000353854 0.006108862
v -0.001926604 1.030212E-20 0.006132654
v -0.002828286 4.392663E-20 0.003669505
v -0.002295424 -0.0003952299 0.003301522
v -0.002568676 -0.0003739388 0.002571077
v -0.003118117 0 0.003120518
v -0.002295424 -0.0003952299 0.003301522
v -0.0004328768 -0.001443279 0.001518588
v -0.001106438 -0.001443279 0.001106438
v -0.002568676 -0.0003739388 0.002571077
v -0.0004328768 -0.001443279 0.001518588
v 5.158411E-11 -0.001443279 0.001562038
v 5.163587E-11 -0.001789097 0.001562038
v -0.0004328768 -0.001789097 0.001518588
v -0.001106438 -0.001443279 0.001106438
v -0.001106438 -0.001789097 0.001106438
v -0.001520308 -0.001443279 0.0004351318
v -0.001520308 -0.001789097 0.0004351318
v -0.001562038 -0.001443279 0
v -0.001562038 -0.001789097 0
v -0.0004328768 -0.001789097 0.001518588
v -0.0002823014 -0.001789097 0.000901218
v -0.0006520245 -0.001789097 0.0006520253
v -0.001106438 -0.001789097 0.001106438
v -0.001520308 -0.001789097 0.0004351318
v -0.0009012178 -0.001789097 0.0002823013
v 0.001518588 -0.001789097 0.0004328769
v 0.000901218 -0.001789097 0.0002823013
v 0.0006520254 -0.001789097 0.0006520248
v 0.001106438 -0.001789097 0.001106438
v 0.0004351316 -0.001789097 0.001520308
v 0.0002823015 -0.001789097 0.000901218
v 5.163587E-11 -0.001789097 0.001562038
v 4.656613E-11 -0.001789097 0.000901218
v 0.0004328768 -0.001789097 -0.001518588
v 0.0002823016 -0.001789097 -0.0009012186
v 0.0006520245 -0.001789097 -0.0006520259
v 0.001106438 -0.001789097 -0.001106439
v 0.001520308 -0.001789097 -0.0004351318
v 0.000901218 -0.001789097 -0.0002823019
v -0.001518588 -0.001789097 -0.0004328775
v -0.0009012177 -0.001789097 -0.0002823019
v -0.0006520254 -0.001789097 -0.0006520235
v -0.001106438 -0.001789097 -0.001106439
v -0.0004351316 -0.001789097 -0.001520307
v -0.0002823013 -0.001789097 -0.0009012175
v 0.000901218 -3.56739E-20 -0.0002823019
v 0.000901218 -0.001789097 0
v 0.000901218 -0.001789097 -0.0002823019
v 0.000901218 -3.469447E-20 0
v 0.000901218 0 0.0002823013
v 0.000901218 -0.001789097 0.0002823013
v 5.163587E-11 -0.001789097 0.001562038
v 4.656613E-11 -0.001789097 0.000901218
v -0.0002823014 -0.001789097 0.000901218
v -0.0004328768 -0.001789097 0.001518588
v 0.001562038 -0.001789097 0
v 0.000901218 -0.001789097 0
v 0.000901218 -0.001789097 0.0002823013
v 0.001518588 -0.001789097 0.0004328769
v -5.16359E-11 -0.001789097 -0.001562039
v 1.210719E-10 -0.001789097 -0.0009012175
v 0.0002823016 -0.001789097 -0.0009012186
v 0.0004328768 -0.001789097 -0.001518588
v -0.001562038 -0.001789097 0
v -0.0009012177 -0.001789097 0
v -0.0009012177 -0.001789097 -0.0002823019
v -0.001518588 -0.001789097 -0.0004328775
v -0.0009012178 -0.001789097 0.0002823013
v -0.0009012177 -0.001789097 0
v -0.001562038 -0.001789097 0
v -0.001520308 -0.001789097 0.0004351318
v -0.0002823013 -0.001789097 -0.0009012175
v 1.210719E-10 -0.001789097 -0.0009012175
v -5.16359E-11 -0.001789097 -0.001562039
v -0.0004351316 -0.001789097 -0.001520307
v 0.000901218 -0.001789097 -0.0002823019
v 0.000901218 -0.001789097 0
v 0.001562038 -0.001789097 0
v 0.001520308 -0.001789097 -0.0004351318
vt 0.9423828 0.9208984
vt 0.940918 0.9311523
vt 0.9536133 0.9267578
vt 0.9536133 0.9208984
vt 0.965332 0.9208984
vt 0.9423828 0.9726563
vt 0.9526367 0.9599609
vt 0.9423828 0.9614258
vt 0.9482422 0.9726563
vt 0.9423828 0.984375
vt 0.09069824 0.9477539
vt 0.08673096 0.9477539
vt 0.08673096 0.949707
vt 0.07818604 0.9521484
vt 0.07818604 0.9541016
vt 0.06903076 0.9550781
vt 0.07025146 0.9570313
vt 0.9384766 0.9335938
vt 0.940918 0.9311523
vt 0.9326172 0.9228516
vt 0.9301758 0.925293
vt 0.9326172 0.9228516
vt 0.940918 0.9311523
vt 0.9423828 0.9208984
vt 0.9331055 0.9208984
vt 0.9423828 0.9614258
vt 0.9526367 0.9599609
vt 0.9443359 0.9516602
vt 0.9423828 0.9521484
vt 0.07025146 0.9570313
vt 0.06903076 0.9550781
vt 0.06738281 0.9570313
vt 0.06890869 0.9584961
vt 0.05838013 0.9799805
vt 0.06036377 0.9760742
vt 0.05838013 0.9760742
vt 0.06262207 0.9677734
vt 0.06463623 0.9677734
vt 0.06750488 0.9594727
vt 0.06585693 0.9584961
vt 0.06738281 0.9570313
vt 0.06890869 0.9584961
vt 0.9526367 0.9599609
vt 0.9550781 0.9575195
vt 0.9462891 0.9492188
vt 0.9443359 0.9516602
vt 0.8388672 0.9516602
vt 0.8369141 0.9521484
vt 0.8369141 0.9521484
vt 0.8388672 0.9516602
vt 0.8408203 0.9492188
vt 0.8408203 0.9492188
vt 0.8432617 0.9467773
vt 0.8432617 0.9467773
vt 0.84375 0.9453125
vt 0.84375 0.9453125
vt 0.8393555 0.9477539
vt 0.8378906 0.9492188
vt 0.8378906 0.9492188
vt 0.8393555 0.9477539
vt 0.8408203 0.9462891
vt 0.8408203 0.9462891
vt 0.9423828 0.9208984
vt 0.940918 0.9311523
vt 0.9536133 0.9267578
vt 0.9536133 0.9208984
vt 0.965332 0.9208984
vt 0.9423828 0.9726563
vt 0.9526367 0.9599609
vt 0.9423828 0.9614258
vt 0.9482422 0.9726563
vt 0.9423828 0.984375
vt 0.09069824 0.9477539
vt 0.08673096 0.9477539
vt 0.08673096 0.949707
vt 0.07818604 0.9521484
vt 0.07818604 0.9541016
vt 0.06903076 0.9550781
vt 0.07025146 0.9570313
vt 0.9384766 0.9335938
vt 0.940918 0.9311523
vt 0.9326172 0.9228516
vt 0.9301758 0.925293
vt 0.9326172 0.9228516
vt 0.940918 0.9311523
vt 0.9423828 0.9208984
vt 0.9331055 0.9208984
vt 0.9423828 0.9614258
vt 0.9526367 0.9599609
vt 0.9443359 0.9516602
vt 0.9423828 0.9521484
vt 0.07025146 0.9570313
vt 0.06903076 0.9550781
vt 0.06738281 0.9570313
vt 0.06890869 0.9584961
vt 0.05838013 0.9799805
vt 0.06036377 0.9760742
vt 0.05838013 0.9760742
vt 0.06262207 0.9677734
vt 0.06463623 0.9677734
vt 0.06750488 0.9594727
vt 0.06585693 0.9584961
vt 0.06738281 0.9570313
vt 0.06890869 0.9584961
vt 0.9526367 0.9599609
vt 0.9550781 0.9575195
vt 0.9462891 0.9492188
vt 0.9443359 0.9516602
vt 0.8388672 0.9516602
vt 0.8369141 0.9521484
vt 0.8369141 0.9521484
vt 0.8388672 0.9516602
vt 0.8408203 0.9492188
vt 0.8408203 0.9492188
vt 0.8432617 0.9467773
vt 0.8432617 0.9467773
vt 0.84375 0.9453125
vt 0.84375 0.9453125
vt 0.8408203 0.9462891
vt 0.8393555 0.9477539
vt 0.8408203 0.9462891
vt 0.8393555 0.9477539
vt 0.8378906 0.9492188
vt 0.8378906 0.9492188
vt 0.8378906 0.9492188
vt 0.8393555 0.9477539
vt 0.8408203 0.9462891
vt 0.9423828 0.9208984
vt 0.940918 0.9311523
vt 0.9536133 0.9267578
vt 0.9536133 0.9208984
vt 0.965332 0.9208984
vt 0.9423828 0.9726563
vt 0.9526367 0.9599609
vt 0.9423828 0.9614258
vt 0.9482422 0.9726563
vt 0.9423828 0.984375
vt 0.09069824 0.9477539
vt 0.08673096 0.9477539
vt 0.08673096 0.949707
vt 0.07818604 0.9521484
vt 0.07818604 0.9541016
vt 0.06903076 0.9550781
vt 0.07025146 0.9570313
vt 0.9384766 0.9335938
vt 0.940918 0.9311523
vt 0.9326172 0.9228516
vt 0.9301758 0.925293
vt 0.9326172 0.9228516
vt 0.940918 0.9311523
vt 0.9423828 0.9208984
vt 0.9331055 0.9208984
vt 0.9423828 0.9614258
vt 0.9526367 0.9599609
vt 0.9443359 0.9516602
vt 0.9423828 0.9521484
vt 0.07025146 0.9570313
vt 0.06903076 0.9550781
vt 0.06738281 0.9570313
vt 0.06890869 0.9584961
vt 0.05838013 0.9799805
vt 0.06036377 0.9760742
vt 0.05838013 0.9760742
vt 0.06262207 0.9677734
vt 0.06463623 0.9677734
vt 0.06750488 0.9594727
vt 0.06585693 0.9584961
vt 0.06738281 0.9570313
vt 0.06890869 0.9584961
vt 0.9526367 0.9599609
vt 0.9550781 0.9575195
vt 0.9462891 0.9492188
vt 0.9443359 0.9516602
vt 0.8388672 0.9516602
vt 0.8369141 0.9521484
vt 0.8369141 0.9521484
vt 0.8388672 0.9516602
vt 0.8408203 0.9492188
vt 0.8408203 0.9492188
vt 0.8432617 0.9467773
vt 0.8432617 0.9467773
vt 0.84375 0.9453125
vt 0.84375 0.9453125
vt 0.8408203 0.9462891
vt 0.8393555 0.9477539
vt 0.8408203 0.9462891
vt 0.8393555 0.9477539
vt 0.8378906 0.9492188
vt 0.8378906 0.9492188
vt 0.8378906 0.9492188
vt 0.8393555 0.9477539
vt 0.8408203 0.9462891
vt 0.9423828 0.9208984
vt 0.940918 0.9311523
vt 0.9536133 0.9267578
vt 0.9536133 0.9208984
vt 0.965332 0.9208984
vt 0.9423828 0.9726563
vt 0.9526367 0.9599609
vt 0.9423828 0.9614258
vt 0.9482422 0.9726563
vt 0.9423828 0.984375
vt 0.09069824 0.9477539
vt 0.08673096 0.9477539
vt 0.08673096 0.949707
vt 0.07818604 0.9521484
vt 0.07818604 0.9541016
vt 0.06903076 0.9550781
vt 0.07025146 0.9570313
vt 0.9384766 0.9335938
vt 0.940918 0.9311523
vt 0.9326172 0.9228516
vt 0.9301758 0.925293
vt 0.9326172 0.9228516
vt 0.940918 0.9311523
vt 0.9423828 0.9208984
vt 0.9331055 0.9208984
vt 0.9423828 0.9614258
vt 0.9526367 0.9599609
vt 0.9443359 0.9516602
vt 0.9423828 0.9521484
vt 0.07025146 0.9570313
vt 0.06903076 0.9550781
vt 0.06738281 0.9570313
vt 0.06890869 0.9584961
vt 0.05838013 0.9799805
vt 0.06036377 0.9760742
vt 0.05838013 0.9760742
vt 0.06262207 0.9677734
vt 0.06463623 0.9677734
vt 0.06750488 0.9594727
vt 0.06585693 0.9584961
vt 0.06738281 0.9570313
vt 0.06890869 0.9584961
vt 0.9526367 0.9599609
vt 0.9550781 0.9575195
vt 0.9462891 0.9492188
vt 0.9443359 0.9516602
vt 0.8388672 0.9516602
vt 0.8369141 0.9521484
vt 0.8369141 0.9521484
vt 0.8388672 0.9516602
vt 0.8408203 0.9492188
vt 0.8408203 0.9492188
vt 0.8432617 0.9467773
vt 0.8432617 0.9467773
vt 0.84375 0.9453125
vt 0.84375 0.9453125
vt 0.8393555 0.9477539
vt 0.8378906 0.9492188
vt 0.8378906 0.9492188
vt 0.8393555 0.9477539
vt 0.8408203 0.9462891
vt 0.8408203 0.9462891
vt 0.8393555 0.9477539
vt 0.8408203 0.9462891
vt 0.8393555 0.9477539
vt 0.8378906 0.9492188
vt 0.8378906 0.9492188
vt 0.8388672 0.9516602
vt 0.8393555 0.9477539
vt 0.8378906 0.9492188
vt 0.8408203 0.9492188
vt 0.8432617 0.9467773
vt 0.8408203 0.9462891
vt 0.8388672 0.9516602
vt 0.8393555 0.9477539
vt 0.8378906 0.9492188
vt 0.8408203 0.9492188
vt 0.8432617 0.9467773
vt 0.8408203 0.9462891
vt 0.84375 0.9453125
vt 0.8393555 0.9477539
vt 0.8388672 0.9516602
vt 0.8393555 0.9477539
vt 0.8378906 0.9492188
vt 0.8408203 0.9492188
vt 0.8432617 0.9467773
vt 0.8408203 0.9462891
vt 0.8388672 0.9516602
vt 0.8393555 0.9477539
vt 0.8378906 0.9492188
vt 0.8408203 0.9492188
vt 0.8432617 0.9467773
vt 0.8408203 0.9462891
vt 0.8408203 0.9462891
vt 0.8408203 0.9462891
vt 0.8413086 0.9458008
vt 0.8413086 0.9458008
vt 0.8417969 0.9453125
vt 0.8417969 0.9453125
vt 0.8413086 0.9458008
vt 0.8417969 0.9453125
vt 0.8413086 0.9458008
vt 0.8408203 0.9462891
vt 0.8408203 0.9462891
vt 0.8369141 0.9501953
vt 0.8369141 0.9501953
vt 0.8374023 0.949707
vt 0.8374023 0.949707
vt 0.8378906 0.9492188
vt 0.8378906 0.9492188
vt 0.8369141 0.9501953
vt 0.8369141 0.9501953
vt 0.8374023 0.949707
vt 0.8374023 0.949707
vt 0.8374023 0.949707
vt 0.8369141 0.9501953
vt 0.8378906 0.9492188
vt 0.8378906 0.9492188
vt 0.8378906 0.9492188
vt 0.8369141 0.9501953
vt 0.8369141 0.9501953
vt 0.8374023 0.949707
vt 0.8374023 0.949707
vt 0.8374023 0.949707
vt 0.8369141 0.9501953
vt 0.8378906 0.9492188
vt 0.8378906 0.9492188
vt 0.8378906 0.9492188
vt 0.84375 0.9453125
vt 0.8388672 0.9516602
vt 0.8378906 0.9492188
vt 0.8393555 0.9477539
vt 0.84375 0.9453125
vt 0.8388672 0.9516602
vt 0.8378906 0.9492188
vt 0.8374023 0.949707
vt 0.84375 0.9453125
vt 0.8388672 0.9516602
vt 0.8378906 0.9492188
vt 0.8374023 0.949707
vt 0.84375 0.9453125
vt 0.8388672 0.9516602
vt 0.8378906 0.9492188
vt 0.8374023 0.949707
vt 0.8369141 0.9501953
vt 0.8432617 0.9467773
vt 0.84375 0.9453125
vt 0.8374023 0.949707
vt 0.8369141 0.9501953
vt 0.8432617 0.9467773
vt 0.84375 0.9453125
vt 0.8374023 0.949707
vt 0.8369141 0.9501953
vt 0.8432617 0.9467773
vt 0.84375 0.9453125
vt 0.8374023 0.949707
vt 0.9423828 0.9208984
vt 0.9536133 0.9267578
vt 0.940918 0.9311523
vt 0.9536133 0.9208984
vt 0.965332 0.9208984
vt 0.9423828 0.9726563
vt 0.9423828 0.9614258
vt 0.9526367 0.9599609
vt 0.9482422 0.9726563
vt 0.9423828 0.984375
vt 0.09069824 0.9477539
vt 0.08673096 0.949707
vt 0.08673096 0.9477539
vt 0.07818604 0.9521484
vt 0.07818604 0.9541016
vt 0.06903076 0.9550781
vt 0.07025146 0.9570313
vt 0.9384766 0.9335938
vt 0.9301758 0.925293
vt 0.9326172 0.9228516
vt 0.940918 0.9311523
vt 0.9326172 0.9228516
vt 0.9331055 0.9208984
vt 0.9423828 0.9208984
vt 0.940918 0.9311523
vt 0.9423828 0.9614258
vt 0.9423828 0.9521484
vt 0.9443359 0.9516602
vt 0.9526367 0.9599609
vt 0.07025146 0.9570313
vt 0.06890869 0.9584961
vt 0.06738281 0.9570313
vt 0.06903076 0.9550781
vt 0.05838013 0.9799805
vt 0.05838013 0.9760742
vt 0.06036377 0.9760742
vt 0.06262207 0.9677734
vt 0.06463623 0.9677734
vt 0.06750488 0.9594727
vt 0.06585693 0.9584961
vt 0.06738281 0.9570313
vt 0.06890869 0.9584961
vt 0.9526367 0.9599609
vt 0.9443359 0.9516602
vt 0.9462891 0.9492188
vt 0.9550781 0.9575195
vt 0.8388672 0.9516602
vt 0.8369141 0.9521484
vt 0.8369141 0.9521484
vt 0.8388672 0.9516602
vt 0.8408203 0.9492188
vt 0.8408203 0.9492188
vt 0.8432617 0.9467773
vt 0.8432617 0.9467773
vt 0.84375 0.9453125
vt 0.84375 0.9453125
vt 0.8393555 0.9477539
vt 0.8378906 0.9492188
vt 0.8378906 0.9492188
vt 0.8393555 0.9477539
vt 0.8408203 0.9462891
vt 0.8408203 0.9462891
vt 0.9423828 0.9208984
vt 0.9536133 0.9267578
vt 0.940918 0.9311523
vt 0.9536133 0.9208984
vt 0.965332 0.9208984
vt 0.9423828 0.9726563
vt 0.9423828 0.9614258
vt 0.9526367 0.9599609
vt 0.9482422 0.9726563
vt 0.9423828 0.984375
vt 0.09069824 0.9477539
vt 0.08673096 0.949707
vt 0.08673096 0.9477539
vt 0.07818604 0.9521484
vt 0.07818604 0.9541016
vt 0.06903076 0.9550781
vt 0.07025146 0.9570313
vt 0.9384766 0.9335938
vt 0.9301758 0.925293
vt 0.9326172 0.9228516
vt 0.940918 0.9311523
vt 0.9326172 0.9228516
vt 0.9331055 0.9208984
vt 0.9423828 0.9208984
vt 0.940918 0.9311523
vt 0.9423828 0.9614258
vt 0.9423828 0.9521484
vt 0.9443359 0.9516602
vt 0.9526367 0.9599609
vt 0.07025146 0.9570313
vt 0.06890869 0.9584961
vt 0.06738281 0.9570313
vt 0.06903076 0.9550781
vt 0.05838013 0.9799805
vt 0.05838013 0.9760742
vt 0.06036377 0.9760742
vt 0.06262207 0.9677734
vt 0.06463623 0.9677734
vt 0.06750488 0.9594727
vt 0.06585693 0.9584961
vt 0.06738281 0.9570313
vt 0.06890869 0.9584961
vt 0.9526367 0.9599609
vt 0.9443359 0.9516602
vt 0.9462891 0.9492188
vt 0.9550781 0.9575195
vt 0.8388672 0.9516602
vt 0.8369141 0.9521484
vt 0.8369141 0.9521484
vt 0.8388672 0.9516602
vt 0.8408203 0.9492188
vt 0.8408203 0.9492188
vt 0.8432617 0.9467773
vt 0.8432617 0.9467773
vt 0.84375 0.9453125
vt 0.84375 0.9453125
vt 0.9423828 0.9208984
vt 0.9536133 0.9267578
vt 0.940918 0.9311523
vt 0.9536133 0.9208984
vt 0.965332 0.9208984
vt 0.9423828 0.9726563
vt 0.9423828 0.9614258
vt 0.9526367 0.9599609
vt 0.9482422 0.9726563
vt 0.9423828 0.984375
vt 0.09069824 0.9477539
vt 0.08673096 0.949707
vt 0.08673096 0.9477539
vt 0.07818604 0.9521484
vt 0.07818604 0.9541016
vt 0.06903076 0.9550781
vt 0.07025146 0.9570313
vt 0.9384766 0.9335938
vt 0.9301758 0.925293
vt 0.9326172 0.9228516
vt 0.940918 0.9311523
vt 0.9326172 0.9228516
vt 0.9331055 0.9208984
vt 0.9423828 0.9208984
vt 0.940918 0.9311523
vt 0.9423828 0.9614258
vt 0.9423828 0.9521484
vt 0.9443359 0.9516602
vt 0.9526367 0.9599609
vt 0.07025146 0.9570313
vt 0.06890869 0.9584961
vt 0.06738281 0.9570313
vt 0.06903076 0.9550781
vt 0.05838013 0.9799805
vt 0.05838013 0.9760742
vt 0.06036377 0.9760742
vt 0.06262207 0.9677734
vt 0.06463623 0.9677734
vt 0.06750488 0.9594727
vt 0.06585693 0.9584961
vt 0.06738281 0.9570313
vt 0.06890869 0.9584961
vt 0.9526367 0.9599609
vt 0.9443359 0.9516602
vt 0.9462891 0.9492188
vt 0.9550781 0.9575195
vt 0.8388672 0.9516602
vt 0.8369141 0.9521484
vt 0.8369141 0.9521484
vt 0.8388672 0.9516602
vt 0.8408203 0.9492188
vt 0.8408203 0.9492188
vt 0.8432617 0.9467773
vt 0.8432617 0.9467773
vt 0.84375 0.9453125
vt 0.84375 0.9453125
vt 0.9423828 0.9208984
vt 0.9536133 0.9267578
vt 0.940918 0.9311523
vt 0.9536133 0.9208984
vt 0.965332 0.9208984
vt 0.9423828 0.9726563
vt 0.9423828 0.9614258
vt 0.9526367 0.9599609
vt 0.9482422 0.9726563
vt 0.9423828 0.984375
vt 0.09069824 0.9477539
vt 0.08673096 0.949707
vt 0.08673096 0.9477539
vt 0.07818604 0.9521484
vt 0.07818604 0.9541016
vt 0.06903076 0.9550781
vt 0.07025146 0.9570313
vt 0.9384766 0.9335938
vt 0.9301758 0.925293
vt 0.9326172 0.9228516
vt 0.940918 0.9311523
vt 0.9326172 0.9228516
vt 0.9331055 0.9208984
vt 0.9423828 0.9208984
vt 0.940918 0.9311523
vt 0.9423828 0.9614258
vt 0.9423828 0.9521484
vt 0.9443359 0.9516602
vt 0.9526367 0.9599609
vt 0.07025146 0.9570313
vt 0.06890869 0.9584961
vt 0.06738281 0.9570313
vt 0.06903076 0.9550781
vt 0.05838013 0.9799805
vt 0.05838013 0.9760742
vt 0.06036377 0.9760742
vt 0.06262207 0.9677734
vt 0.06463623 0.9677734
vt 0.06750488 0.9594727
vt 0.06585693 0.9584961
vt 0.06738281 0.9570313
vt 0.06890869 0.9584961
vt 0.9526367 0.9599609
vt 0.9443359 0.9516602
vt 0.9462891 0.9492188
vt 0.9550781 0.9575195
vt 0.8388672 0.9516602
vt 0.8369141 0.9521484
vt 0.8369141 0.9521484
vt 0.8388672 0.9516602
vt 0.8408203 0.9492188
vt 0.8408203 0.9492188
vt 0.8432617 0.9467773
vt 0.8432617 0.9467773
vt 0.84375 0.9453125
vt 0.84375 0.9453125
vt 0.8388672 0.9516602
vt 0.8378906 0.9492188
vt 0.8393555 0.9477539
vt 0.8408203 0.9492188
vt 0.8432617 0.9467773
vt 0.8408203 0.9462891
vt 0.8388672 0.9516602
vt 0.8378906 0.9492188
vt 0.8393555 0.9477539
vt 0.8408203 0.9492188
vt 0.8432617 0.9467773
vt 0.8408203 0.9462891
vt 0.84375 0.9453125
vt 0.8393555 0.9477539
vt 0.8388672 0.9516602
vt 0.8378906 0.9492188
vt 0.8393555 0.9477539
vt 0.8408203 0.9492188
vt 0.8432617 0.9467773
vt 0.8408203 0.9462891
vt 0.8388672 0.9516602
vt 0.8378906 0.9492188
vt 0.8393555 0.9477539
vt 0.8408203 0.9492188
vt 0.8432617 0.9467773
vt 0.8408203 0.9462891
vt 0.8369141 0.9501953
vt 0.8374023 0.949707
vt 0.8369141 0.9501953
vt 0.8374023 0.949707
vt 0.8378906 0.9492188
vt 0.8378906 0.9492188
vt 0.84375 0.9453125
vt 0.8393555 0.9477539
vt 0.8378906 0.9492188
vt 0.8388672 0.9516602
vt 0.84375 0.9453125
vt 0.8374023 0.949707
vt 0.8378906 0.9492188
vt 0.8388672 0.9516602
vt 0.84375 0.9453125
vt 0.8374023 0.949707
vt 0.8378906 0.9492188
vt 0.8388672 0.9516602
vt 0.84375 0.9453125
vt 0.8374023 0.949707
vt 0.8378906 0.9492188
vt 0.8388672 0.9516602
vt 0.8369141 0.9501953
vt 0.8374023 0.949707
vt 0.84375 0.9453125
vt 0.8432617 0.9467773
vt 0.8369141 0.9501953
vt 0.8374023 0.949707
vt 0.84375 0.9453125
vt 0.8432617 0.9467773
vt 0.8369141 0.9501953
vt 0.8374023 0.949707
vt 0.84375 0.9453125
vt 0.8432617 0.9467773
vn 0.3063965 0.9428711 0.130249
vn 0.3063965 0.9428711 0.130249
vn 0.3063965 0.9428711 0.130249
vn 0.3063965 0.9428711 0.130249
vn 0.2961426 0.9394531 0.171875
vn 0.130249 0.9428711 0.3063965
vn 0.130249 0.9428711 0.3063965
vn 0.130249 0.9428711 0.3063965
vn 0.130249 0.9428711 0.3063965
vn 0.171875 0.9394531 0.2961426
vn 0.392334 0.8989258 0.1954346
vn 0.418457 0.8823242 0.2161865
vn 0.421875 0.8798828 0.2188721
vn 0.4487305 0.8696289 0.2053223
vn 0.4597168 0.8657227 0.1973877
vn 0.4802246 0.8579102 0.182373
vn 0.4802246 0.8579102 0.182373
vn 0.3295898 0.9086914 0.2553711
vn 0.3295898 0.9086914 0.2553711
vn 0.3295898 0.9086914 0.2553711
vn 0.3295898 0.9086914 0.2553711
vn 0.2744141 0.9399414 0.2042236
vn 0.2744141 0.9399414 0.2042236
vn 0.2744141 0.9399414 0.2042236
vn 0.2744141 0.9399414 0.2042236
vn 0.2037354 0.9399414 0.2746582
vn 0.2037354 0.9399414 0.2746582
vn 0.2037354 0.9399414 0.2746582
vn 0.2037354 0.9399414 0.2746582
vn 0.4580078 0.8686523 0.1881104
vn 0.4580078 0.8686523 0.1881104
vn 0.4580078 0.8686523 0.1881104
vn 0.4580078 0.8686523 0.1881104
vn 0.1954346 0.8989258 0.392334
vn 0.2188721 0.8798828 0.421875
vn 0.2161865 0.8823242 0.418457
vn 0.2053223 0.8696289 0.4487305
vn 0.1973877 0.8657227 0.4597168
vn 0.1832275 0.8598633 0.4763184
vn 0.1835938 0.8608398 0.4746094
vn 0.1873779 0.8686523 0.4584961
vn 0.1873779 0.8686523 0.4584961
vn 0.2558594 0.9091797 0.3291016
vn 0.2558594 0.9091797 0.3291016
vn 0.2558594 0.9091797 0.3291016
vn 0.2558594 0.9091797 0.3291016
vn 0.9248047 0 0.3808594
vn 0.9951172 0 0.09985352
vn 0.9951172 0 0.09985352
vn 0.9248047 0 0.3808594
vn 0.7084961 0 0.7060547
vn 0.7084961 0 0.7060547
vn 0.3808594 0 0.9248047
vn 0.3808594 0 0.9248047
vn 0.09545898 0 0.9956055
vn 0.09545898 0 0.9956055
vn -0.7070313 0 -0.7070313
vn -0.8291016 0 -0.559082
vn -0.8291016 0 -0.559082
vn -0.7070313 0 -0.7070313
vn -0.559082 0 -0.8291016
vn -0.559082 0 -0.8291016
vn 0.130249 0.9428711 -0.3063965
vn 0.130249 0.9428711 -0.3063965
vn 0.130249 0.9428711 -0.3063965
vn 0.130249 0.9428711 -0.3063965
vn 0.171875 0.9394531 -0.2961426
vn 0.3063965 0.9428711 -0.130249
vn 0.3063965 0.9428711 -0.130249
vn 0.3063965 0.9428711 -0.130249
vn 0.3063965 0.9428711 -0.130249
vn 0.2961426 0.9394531 -0.171875
vn 0.1954346 0.8989258 -0.392334
vn 0.2161865 0.8823242 -0.418457
vn 0.2188721 0.8798828 -0.421875
vn 0.2053223 0.8696289 -0.4487305
vn 0.1973877 0.8657227 -0.4597168
vn 0.182373 0.8579102 -0.4802246
vn 0.182373 0.8579102 -0.4802246
vn 0.2553711 0.9086914 -0.3295898
vn 0.2553711 0.9086914 -0.3295898
vn 0.2553711 0.9086914 -0.3295898
vn 0.2553711 0.9086914 -0.3295898
vn 0.2042236 0.9399414 -0.2744141
vn 0.2042236 0.9399414 -0.2744141
vn 0.2042236 0.9399414 -0.2744141
vn 0.2042236 0.9399414 -0.2744141
vn 0.2746582 0.9399414 -0.2037354
vn 0.2746582 0.9399414 -0.2037354
vn 0.2746582 0.9399414 -0.2037354
vn 0.2746582 0.9399414 -0.2037354
vn 0.1881104 0.8686523 -0.4580078
vn 0.1881104 0.8686523 -0.4580078
vn 0.1881104 0.8686523 -0.4580078
vn 0.1881104 0.8686523 -0.4580078
vn 0.392334 0.8989258 -0.1954346
vn 0.421875 0.8798828 -0.2188721
vn 0.418457 0.8823242 -0.2161865
vn 0.4487305 0.8696289 -0.2053223
vn 0.4597168 0.8657227 -0.1973877
vn 0.4763184 0.8598633 -0.1832275
vn 0.4746094 0.8608398 -0.1835938
vn 0.4584961 0.8686523 -0.1873779
vn 0.4584961 0.8686523 -0.1873779
vn 0.3291016 0.9091797 -0.2558594
vn 0.3291016 0.9091797 -0.2558594
vn 0.3291016 0.9091797 -0.2558594
vn 0.3291016 0.9091797 -0.2558594
vn 0.3808594 0 -0.9248047
vn 0.09985352 0 -0.9951172
vn 0.09985352 0 -0.9951172
vn 0.3808594 0 -0.9248047
vn 0.7060547 0 -0.7084961
vn 0.7060547 0 -0.7084961
vn 0.9248047 0 -0.3808594
vn 0.9248047 0 -0.3808594
vn 0.9956055 0 -0.09545898
vn 0.9956055 0 -0.09545898
vn -0.8291016 0 0.559082
vn -0.7070313 0 0.7070313
vn -0.8291016 0 0.559082
vn -0.7070313 0 0.7070313
vn -0.559082 0 0.8291016
vn -0.559082 0 0.8291016
vn -0.559082 0 0.8291016
vn -0.7070313 0 0.7070313
vn -0.8291016 0 0.559082
vn -0.3063965 0.9428711 -0.130249
vn -0.3063965 0.9428711 -0.130249
vn -0.3063965 0.9428711 -0.130249
vn -0.3063965 0.9428711 -0.130249
vn -0.2961426 0.9394531 -0.171875
vn -0.130249 0.9428711 -0.3063965
vn -0.130249 0.9428711 -0.3063965
vn -0.130249 0.9428711 -0.3063965
vn -0.130249 0.9428711 -0.3063965
vn -0.171875 0.9394531 -0.2961426
vn -0.392334 0.8989258 -0.1954346
vn -0.418457 0.8823242 -0.2161865
vn -0.421875 0.8798828 -0.2188721
vn -0.4487305 0.8696289 -0.2053223
vn -0.4597168 0.8657227 -0.1973877
vn -0.4802246 0.8579102 -0.182373
vn -0.4802246 0.8579102 -0.182373
vn -0.3295898 0.9086914 -0.2553711
vn -0.3295898 0.9086914 -0.2553711
vn -0.3295898 0.9086914 -0.2553711
vn -0.3295898 0.9086914 -0.2553711
vn -0.2744141 0.9399414 -0.2042236
vn -0.2744141 0.9399414 -0.2042236
vn -0.2744141 0.9399414 -0.2042236
vn -0.2744141 0.9399414 -0.2042236
vn -0.2037354 0.9399414 -0.2746582
vn -0.2037354 0.9399414 -0.2746582
vn -0.2037354 0.9399414 -0.2746582
vn -0.2037354 0.9399414 -0.2746582
vn -0.4580078 0.8686523 -0.1881104
vn -0.4580078 0.8686523 -0.1881104
vn -0.4580078 0.8686523 -0.1881104
vn -0.4580078 0.8686523 -0.1881104
vn -0.1954346 0.8989258 -0.392334
vn -0.2188721 0.8798828 -0.421875
vn -0.2161865 0.8823242 -0.418457
vn -0.2053223 0.8696289 -0.4487305
vn -0.1973877 0.8657227 -0.4597168
vn -0.1832275 0.8598633 -0.4763184
vn -0.1835938 0.8608398 -0.4746094
vn -0.1873779 0.8686523 -0.4584961
vn -0.1873779 0.8686523 -0.4584961
vn -0.2558594 0.9091797 -0.3291016
vn -0.2558594 0.9091797 -0.3291016
vn -0.2558594 0.9091797 -0.3291016
vn -0.2558594 0.9091797 -0.3291016
vn -0.9248047 0 -0.3808594
vn -0.9951172 0 -0.09985352
vn -0.9951172 0 -0.09985352
vn -0.9248047 0 -0.3808594
vn -0.7084961 0 -0.7060547
vn -0.7084961 0 -0.7060547
vn -0.3808594 0 -0.9248047
vn -0.3808594 0 -0.9248047
vn -0.09545898 0 -0.9956055
vn -0.09545898 0 -0.9956055
vn 0.559082 0 0.8291016
vn 0.7070313 0 0.7070313
vn 0.559082 0 0.8291016
vn 0.7070313 0 0.7070313
vn 0.8291016 0 0.559082
vn 0.8291016 0 0.559082
vn 0.8291016 0 0.559082
vn 0.7070313 0 0.7070313
vn 0.559082 0 0.8291016
vn -0.130249 0.9428711 0.3063965
vn -0.130249 0.9428711 0.3063965
vn -0.130249 0.9428711 0.3063965
vn -0.130249 0.9428711 0.3063965
vn -0.171875 0.9394531 0.2961426
vn -0.3063965 0.9428711 0.130249
vn -0.3063965 0.9428711 0.130249
vn -0.3063965 0.9428711 0.130249
vn -0.3063965 0.9428711 0.130249
vn -0.2961426 0.9394531 0.171875
vn -0.1954346 0.8989258 0.392334
vn -0.2161865 0.8823242 0.418457
vn -0.2188721 0.8798828 0.421875
vn -0.2053223 0.8696289 0.4487305
vn -0.1973877 0.8657227 0.4597168
vn -0.182373 0.8579102 0.4802246
vn -0.182373 0.8579102 0.4802246
vn -0.2553711 0.9086914 0.3295898
vn -0.2553711 0.9086914 0.3295898
vn -0.2553711 0.9086914 0.3295898
vn -0.2553711 0.9086914 0.3295898
vn -0.2042236 0.9399414 0.2744141
vn -0.2042236 0.9399414 0.2744141
vn -0.2042236 0.9399414 0.2744141
vn -0.2042236 0.9399414 0.2744141
vn -0.2746582 0.9399414 0.2037354
vn -0.2746582 0.9399414 0.2037354
vn -0.2746582 0.9399414 0.2037354
vn -0.2746582 0.9399414 0.2037354
vn -0.1881104 0.8686523 0.4580078
vn -0.1881104 0.8686523 0.4580078
vn -0.1881104 0.8686523 0.4580078
vn -0.1881104 0.8686523 0.4580078
vn -0.392334 0.8989258 0.1954346
vn -0.421875 0.8798828 0.2188721
vn -0.418457 0.8823242 0.2161865
vn -0.4487305 0.8696289 0.2053223
vn -0.4597168 0.8657227 0.1973877
vn -0.4763184 0.8598633 0.1832275
vn -0.4746094 0.8608398 0.1835938
vn -0.4584961 0.8686523 0.1873779
vn -0.4584961 0.8686523 0.1873779
vn -0.3291016 0.9091797 0.2558594
vn -0.3291016 0.9091797 0.2558594
vn -0.3291016 0.9091797 0.2558594
vn -0.3291016 0.9091797 0.2558594
vn -0.3808594 0 0.9248047
vn -0.09985352 0 0.9951172
vn -0.09985352 0 0.9951172
vn -0.3808594 0 0.9248047
vn -0.7060547 0 0.7084961
vn -0.7060547 0 0.7084961
vn -0.9248047 0 0.3808594
vn -0.9248047 0 0.3808594
vn -0.9956055 0 0.09545898
vn -0.9956055 0 0.09545898
vn 0.7070313 0 -0.7070313
vn 0.559082 0 -0.8291016
vn 0.559082 0 -0.8291016
vn 0.7070313 0 -0.7070313
vn 0.8291016 0 -0.559082
vn 0.8291016 0 -0.559082
vn 0.7070313 0 -0.7070313
vn 0.8291016 0 -0.559082
vn 0.7070313 0 -0.7070313
vn 0.559082 0 -0.8291016
vn 0.559082 0 -0.8291016
vn 0 1 0
vn 0 1 1.192093E-07
vn 0 1 0
vn 0 1 1.192093E-07
vn 0 1 1.192093E-07
vn 0 1 1.788139E-07
vn 0 1 0
vn 0 1 1.192093E-07
vn 0 1 1.192093E-07
vn 0 1 1.192093E-07
vn 0 1 0
vn 0 1 0
vn 0 1 1.192093E-07
vn 0 1 1.192093E-07
vn 0 1 0
vn 0 1 1.192093E-07
vn 0 1 0
vn 0 1 1.192093E-07
vn 0 1 1.788139E-07
vn 0 1 1.192093E-07
vn 0 1 0
vn 0 1 0
vn 0 1 0
vn 0 1 0
vn 0 1 0
vn 0 1 0
vn 0 0 -1
vn 0 0 -1
vn 0 0 -1
vn 0 0 -1
vn 0 0 -1
vn 0 0 -1
vn 0 0 -1
vn 0 0 -1
vn 0 0 -1
vn 0 0 -1
vn 0 0 -1
vn -1 0 2.384186E-07
vn -1 0 2.384186E-07
vn -1 0 1.192093E-07
vn -1 0 1.192093E-07
vn -1 0 0
vn -1 0 0
vn 0 0 1
vn 0 0 1
vn 2.026558E-06 0 1
vn 2.026558E-06 0 1
vn 2.026558E-06 0 1
vn 0 0 1
vn 4.053116E-06 0 1
vn 4.053116E-06 0 1
vn 4.053116E-06 0 1
vn 1 0 2.384186E-07
vn 1 0 2.384186E-07
vn 1 0 2.384186E-07
vn 1 0 2.384186E-07
vn 1 0 2.384186E-07
vn 1 0 2.384186E-07
vn 1 0 2.384186E-07
vn 1 0 2.384186E-07
vn 1 0 2.384186E-07
vn 0 1 1.192093E-07
vn 0 1 0
vn 0 1 0
vn 0 1 1.192093E-07
vn 0 1 1.192093E-07
vn 0 1 0
vn 0 1 1.192093E-07
vn 0 1 1.192093E-07
vn 0 1 -1.192093E-07
vn 0 1 0
vn 0 1 0
vn 0 1 -1.192093E-07
vn 0 1 0
vn 0 1 0
vn 0 1 0
vn 0 1 0
vn 0 1 1.788139E-07
vn 0 1 1.192093E-07
vn 0 1 0
vn 0 1 0
vn 0 1 0
vn 0 1 0
vn 0 1 -1.192093E-07
vn 0 1 -1.192093E-07
vn 0 1 1.192093E-07
vn 0 1 1.788139E-07
vn 0 1 1.192093E-07
vn 0 1 1.192093E-07
vn 0.3063965 -0.9428711 0.130249
vn 0.3063965 -0.9428711 0.130249
vn 0.3063965 -0.9428711 0.130249
vn 0.3063965 -0.9428711 0.130249
vn 0.2961426 -0.9394531 0.171875
vn 0.130249 -0.9428711 0.3063965
vn 0.130249 -0.9428711 0.3063965
vn 0.130249 -0.9428711 0.3063965
vn 0.130249 -0.9428711 0.3063965
vn 0.171875 -0.9394531 0.2961426
vn 0.392334 -0.8989258 0.1954346
vn 0.421875 -0.8798828 0.2188721
vn 0.418457 -0.8823242 0.2161865
vn 0.4487305 -0.8696289 0.2053223
vn 0.4597168 -0.8657227 0.1973877
vn 0.4802246 -0.8579102 0.182373
vn 0.4802246 -0.8579102 0.182373
vn 0.3295898 -0.9086914 0.2553711
vn 0.3295898 -0.9086914 0.2553711
vn 0.3295898 -0.9086914 0.2553711
vn 0.3295898 -0.9086914 0.2553711
vn 0.2744141 -0.9399414 0.2042236
vn 0.2744141 -0.9399414 0.2042236
vn 0.2744141 -0.9399414 0.2042236
vn 0.2744141 -0.9399414 0.2042236
vn 0.2037354 -0.9399414 0.2746582
vn 0.2037354 -0.9399414 0.2746582
vn 0.2037354 -0.9399414 0.2746582
vn 0.2037354 -0.9399414 0.2746582
vn 0.4580078 -0.8686523 0.1881104
vn 0.4580078 -0.8686523 0.1881104
vn 0.4580078 -0.8686523 0.1881104
vn 0.4580078 -0.8686523 0.1881104
vn 0.1954346 -0.8989258 0.392334
vn 0.2161865 -0.8823242 0.418457
vn 0.2188721 -0.8798828 0.421875
vn 0.2053223 -0.8696289 0.4487305
vn 0.1973877 -0.8657227 0.4597168
vn 0.1832275 -0.8598633 0.4763184
vn 0.1835938 -0.8608398 0.4746094
vn 0.1873779 -0.8686523 0.4584961
vn 0.1873779 -0.8686523 0.4584961
vn 0.2558594 -0.9091797 0.3291016
vn 0.2558594 -0.9091797 0.3291016
vn 0.2558594 -0.9091797 0.3291016
vn 0.2558594 -0.9091797 0.3291016
vn 0.9248047 0 0.3808594
vn 0.9951172 0 0.09985352
vn 0.9951172 0 0.09985352
vn 0.9248047 0 0.3808594
vn 0.7084961 0 0.7060547
vn 0.7084961 0 0.7060547
vn 0.3808594 0 0.9248047
vn 0.3808594 0 0.9248047
vn 0.09545898 0 0.9956055
vn 0.09545898 0 0.9956055
vn -0.7070313 0 -0.7070313
vn -0.8291016 0 -0.559082
vn -0.8291016 0 -0.559082
vn -0.7070313 0 -0.7070313
vn -0.559082 0 -0.8291016
vn -0.559082 0 -0.8291016
vn 0.130249 -0.9428711 -0.3063965
vn 0.130249 -0.9428711 -0.3063965
vn 0.130249 -0.9428711 -0.3063965
vn 0.130249 -0.9428711 -0.3063965
vn 0.171875 -0.9394531 -0.2961426
vn 0.3063965 -0.9428711 -0.130249
vn 0.3063965 -0.9428711 -0.130249
vn 0.3063965 -0.9428711 -0.130249
vn 0.3063965 -0.9428711 -0.130249
vn 0.2961426 -0.9394531 -0.171875
vn 0.1954346 -0.8989258 -0.392334
vn 0.2188721 -0.8798828 -0.421875
vn 0.2161865 -0.8823242 -0.418457
vn 0.2053223 -0.8696289 -0.4487305
vn 0.1973877 -0.8657227 -0.4597168
vn 0.182373 -0.8579102 -0.4802246
vn 0.182373 -0.8579102 -0.4802246
vn 0.2553711 -0.9086914 -0.3295898
vn 0.2553711 -0.9086914 -0.3295898
vn 0.2553711 -0.9086914 -0.3295898
vn 0.2553711 -0.9086914 -0.3295898
vn 0.2042236 -0.9399414 -0.2744141
vn 0.2042236 -0.9399414 -0.2744141
vn 0.2042236 -0.9399414 -0.2744141
vn 0.2042236 -0.9399414 -0.2744141
vn 0.2746582 -0.9399414 -0.2037354
vn 0.2746582 -0.9399414 -0.2037354
vn 0.2746582 -0.9399414 -0.2037354
vn 0.2746582 -0.9399414 -0.2037354
vn 0.1881104 -0.8686523 -0.4580078
vn 0.1881104 -0.8686523 -0.4580078
vn 0.1881104 -0.8686523 -0.4580078
vn 0.1881104 -0.8686523 -0.4580078
vn 0.392334 -0.8989258 -0.1954346
vn 0.418457 -0.8823242 -0.2161865
vn 0.421875 -0.8798828 -0.2188721
vn 0.4487305 -0.8696289 -0.2053223
vn 0.4597168 -0.8657227 -0.1973877
vn 0.4763184 -0.8598633 -0.1832275
vn 0.4746094 -0.8608398 -0.1835938
vn 0.4584961 -0.8686523 -0.1873779
vn 0.4584961 -0.8686523 -0.1873779
vn 0.3291016 -0.9091797 -0.2558594
vn 0.3291016 -0.9091797 -0.2558594
vn 0.3291016 -0.9091797 -0.2558594
vn 0.3291016 -0.9091797 -0.2558594
vn 0.3808594 0 -0.9248047
vn 0.09985352 0 -0.9951172
vn 0.09985352 0 -0.9951172
vn 0.3808594 0 -0.9248047
vn 0.7060547 0 -0.7084961
vn 0.7060547 0 -0.7084961
vn 0.9248047 0 -0.3808594
vn 0.9248047 0 -0.3808594
vn 0.9956055 0 -0.09545898
vn 0.9956055 0 -0.09545898
vn -0.3063965 -0.9428711 -0.130249
vn -0.3063965 -0.9428711 -0.130249
vn -0.3063965 -0.9428711 -0.130249
vn -0.3063965 -0.9428711 -0.130249
vn -0.2961426 -0.9394531 -0.171875
vn -0.130249 -0.9428711 -0.3063965
vn -0.130249 -0.9428711 -0.3063965
vn -0.130249 -0.9428711 -0.3063965
vn -0.130249 -0.9428711 -0.3063965
vn -0.171875 -0.9394531 -0.2961426
vn -0.392334 -0.8989258 -0.1954346
vn -0.421875 -0.8798828 -0.2188721
vn -0.418457 -0.8823242 -0.2161865
vn -0.4487305 -0.8696289 -0.2053223
vn -0.4597168 -0.8657227 -0.1973877
vn -0.4802246 -0.8579102 -0.182373
vn -0.4802246 -0.8579102 -0.182373
vn -0.3295898 -0.9086914 -0.2553711
vn -0.3295898 -0.9086914 -0.2553711
vn -0.3295898 -0.9086914 -0.2553711
vn -0.3295898 -0.9086914 -0.2553711
vn -0.2744141 -0.9399414 -0.2042236
vn -0.2744141 -0.9399414 -0.2042236
vn -0.2744141 -0.9399414 -0.2042236
vn -0.2744141 -0.9399414 -0.2042236
vn -0.2037354 -0.9399414 -0.2746582
vn -0.2037354 -0.9399414 -0.2746582
vn -0.2037354 -0.9399414 -0.2746582
vn -0.2037354 -0.9399414 -0.2746582
vn -0.4580078 -0.8686523 -0.1881104
vn -0.4580078 -0.8686523 -0.1881104
vn -0.4580078 -0.8686523 -0.1881104
vn -0.4580078 -0.8686523 -0.1881104
vn -0.1954346 -0.8989258 -0.392334
vn -0.2161865 -0.8823242 -0.418457
vn -0.2188721 -0.8798828 -0.421875
vn -0.2053223 -0.8696289 -0.4487305
vn -0.1973877 -0.8657227 -0.4597168
vn -0.1832275 -0.8598633 -0.4763184
vn -0.1835938 -0.8608398 -0.4746094
vn -0.1873779 -0.8686523 -0.4584961
vn -0.1873779 -0.8686523 -0.4584961
vn -0.2558594 -0.9091797 -0.3291016
vn -0.2558594 -0.9091797 -0.3291016
vn -0.2558594 -0.9091797 -0.3291016
vn -0.2558594 -0.9091797 -0.3291016
vn -0.9248047 0 -0.3808594
vn -0.9951172 0 -0.09985352
vn -0.9951172 0 -0.09985352
vn -0.9248047 0 -0.3808594
vn -0.7084961 0 -0.7060547
vn -0.7084961 0 -0.7060547
vn -0.3808594 0 -0.9248047
vn -0.3808594 0 -0.9248047
vn -0.09545898 0 -0.9956055
vn -0.09545898 0 -0.9956055
vn -0.130249 -0.9428711 0.3063965
vn -0.130249 -0.9428711 0.3063965
vn -0.130249 -0.9428711 0.3063965
vn -0.130249 -0.9428711 0.3063965
vn -0.171875 -0.9394531 0.2961426
vn -0.3063965 -0.9428711 0.130249
vn -0.3063965 -0.9428711 0.130249
vn -0.3063965 -0.9428711 0.130249
vn -0.3063965 -0.9428711 0.130249
vn -0.2961426 -0.9394531 0.171875
vn -0.1954346 -0.8989258 0.392334
vn -0.2188721 -0.8798828 0.421875
vn -0.2161865 -0.8823242 0.418457
vn -0.2053223 -0.8696289 0.4487305
vn -0.1973877 -0.8657227 0.4597168
vn -0.182373 -0.8579102 0.4802246
vn -0.182373 -0.8579102 0.4802246
vn -0.2553711 -0.9086914 0.3295898
vn -0.2553711 -0.9086914 0.3295898
vn -0.2553711 -0.9086914 0.3295898
vn -0.2553711 -0.9086914 0.3295898
vn -0.2042236 -0.9399414 0.2744141
vn -0.2042236 -0.9399414 0.2744141
vn -0.2042236 -0.9399414 0.2744141
vn -0.2042236 -0.9399414 0.2744141
vn -0.2746582 -0.9399414 0.2037354
vn -0.2746582 -0.9399414 0.2037354
vn -0.2746582 -0.9399414 0.2037354
vn -0.2746582 -0.9399414 0.2037354
vn -0.1881104 -0.8686523 0.4580078
vn -0.1881104 -0.8686523 0.4580078
vn -0.1881104 -0.8686523 0.4580078
vn -0.1881104 -0.8686523 0.4580078
vn -0.392334 -0.8989258 0.1954346
vn -0.418457 -0.8823242 0.2161865
vn -0.421875 -0.8798828 0.2188721
vn -0.4487305 -0.8696289 0.2053223
vn -0.4597168 -0.8657227 0.1973877
vn -0.4763184 -0.8598633 0.1832275
vn -0.4746094 -0.8608398 0.1835938
vn -0.4584961 -0.8686523 0.1873779
vn -0.4584961 -0.8686523 0.1873779
vn -0.3291016 -0.9091797 0.2558594
vn -0.3291016 -0.9091797 0.2558594
vn -0.3291016 -0.9091797 0.2558594
vn -0.3291016 -0.9091797 0.2558594
vn -0.3808594 0 0.9248047
vn -0.09985352 0 0.9951172
vn -0.09985352 0 0.9951172
vn -0.3808594 0 0.9248047
vn -0.7060547 0 0.7084961
vn -0.7060547 0 0.7084961
vn -0.9248047 0 0.3808594
vn -0.9248047 0 0.3808594
vn -0.9956055 0 0.09545898
vn -0.9956055 0 0.09545898
vn 0 -1 0
vn 0 -1 0
vn 0 -1 0
vn 0 -1 0
vn 0 -1 0
vn 0 -1 0
vn 0 -1 1.192093E-07
vn 0 -1 1.788139E-07
vn 0 -1 1.192093E-07
vn 0 -1 1.192093E-07
vn 0 -1 0
vn 0 -1 0
vn 0 -1 1.192093E-07
vn 0 -1 1.192093E-07
vn 0 -1 0
vn 0 -1 0
vn 0 -1 0
vn 0 -1 0
vn 0 -1 0
vn 0 -1 0
vn 0 -1 0
vn 0 -1 0
vn 0 -1 -1.192093E-07
vn 0 -1 -1.192093E-07
vn 0 -1 0
vn 0 -1 0
vn -1 0 2.384186E-07
vn -1 0 1.192093E-07
vn -1 0 2.384186E-07
vn -1 0 1.192093E-07
vn -1 0 0
vn -1 0 0
vn 0 -1 1.192093E-07
vn 0 -1 1.192093E-07
vn 0 -1 0
vn 0 -1 0
vn 0 -1 1.192093E-07
vn 0 -1 1.192093E-07
vn 0 -1 1.788139E-07
vn 0 -1 1.192093E-07
vn 0 -1 0
vn 0 -1 0
vn 0 -1 0
vn 0 -1 0
vn 0 -1 0
vn 0 -1 0
vn 0 -1 0
vn 0 -1 0
vn 0 -1 0
vn 0 -1 0
vn 0 -1 0
vn 0 -1 0
vn 0 -1 0
vn 0 -1 0
vn 0 -1 0
vn 0 -1 0
vn 0 -1 0
vn 0 -1 1.192093E-07
vn 0 -1 1.192093E-07
vn 0 -1 0
g weapon_shuriken_01_0
f 3/3/3 2/2/2 1/1/1
f 4/4/4 3/3/3 1/1/1
f 5/5/5 3/3/3 4/4/4
f 8/8/8 7/7/7 6/6/6
f 7/7/7 9/9/9 6/6/6
f 6/6/6 9/9/9 10/10/10
f 13/13/13 12/12/12 11/11/11
f 12/12/12 13/13/13 14/14/14
f 13/13/13 15/15/15 14/14/14
f 16/16/16 14/14/14 15/15/15
f 17/17/17 16/16/16 15/15/15
f 20/20/20 19/19/19 18/18/18
f 21/21/21 20/20/20 18/18/18
f 24/24/24 23/23/23 22/22/22
f 25/25/25 24/24/24 22/22/22
f 28/28/28 27/27/27 26/26/26
f 29/29/29 28/28/28 26/26/26
f 32/32/32 31/31/31 30/30/30
f 33/33/33 32/32/32 30/30/30
f 36/36/36 35/35/35 34/34/34
f 35/35/35 36/36/36 37/37/37
f 38/38/38 35/35/35 37/37/37
f 39/39/39 38/38/38 37/37/37
f 40/40/40 39/39/39 37/37/37
f 39/39/39 40/40/40 41/41/41
f 42/42/42 39/39/39 41/41/41
f 45/45/45 44/44/44 43/43/43
f 46/46/46 45/45/45 43/43/43
f 49/49/49 48/48/48 47/47/47
f 48/48/48 50/50/50 47/47/47
f 47/47/47 50/50/50 51/51/51
f 50/50/50 52/52/52 51/51/51
f 51/51/51 52/52/52 53/53/53
f 52/52/52 54/54/54 53/53/53
f 53/53/53 54/54/54 55/55/55
f 54/54/54 56/56/56 55/55/55
f 59/59/59 58/58/58 57/57/57
f 60/60/60 59/59/59 57/57/57
f 60/60/60 57/57/57 61/61/61
f 62/62/62 60/60/60 61/61/61
f 65/65/65 64/64/64 63/63/63
f 66/66/66 65/65/65 63/63/63
f 67/67/67 65/65/65 66/66/66
f 70/70/70 69/69/69 68/68/68
f 69/69/69 71/71/71 68/68/68
f 68/68/68 71/71/71 72/72/72
f 75/75/75 74/74/74 73/73/73
f 74/74/74 75/75/75 76/76/76
f 75/75/75 77/77/77 76/76/76
f 78/78/78 76/76/76 77/77/77
f 79/79/79 78/78/78 77/77/77
f 82/82/82 81/81/81 80/80/80
f 83/83/83 82/82/82 80/80/80
f 86/86/86 85/85/85 84/84/84
f 87/87/87 86/86/86 84/84/84
f 90/90/90 89/89/89 88/88/88
f 91/91/91 90/90/90 88/88/88
f 94/94/94 93/93/93 92/92/92
f 95/95/95 94/94/94 92/92/92
f 98/98/98 97/97/97 96/96/96
f 97/97/97 98/98/98 99/99/99
f 100/100/100 97/97/97 99/99/99
f 101/101/101 100/100/100 99/99/99
f 102/102/102 101/101/101 99/99/99
f 101/101/101 102/102/102 103/103/103
f 104/104/104 101/101/101 103/103/103
f 107/107/107 106/106/106 105/105/105
f 108/108/108 107/107/107 105/105/105
f 111/111/111 110/110/110 109/109/109
f 110/110/110 112/112/112 109/109/109
f 109/109/109 112/112/112 113/113/113
f 112/112/112 114/114/114 113/113/113
f 113/113/113 114/114/114 115/115/115
f 114/114/114 116/116/116 115/115/115
f 115/115/115 116/116/116 117/117/117
f 116/116/116 118/118/118 117/117/117
f 121/121/121 120/120/120 119/119/119
f 120/120/120 122/122/122 119/119/119
f 120/120/120 123/123/123 122/122/122
f 123/123/123 124/124/124 122/122/122
f 124/124/124 125/125/125 122/122/122
f 125/125/125 126/126/126 122/122/122
f 122/122/122 126/126/126 119/119/119
f 126/126/126 127/127/127 119/119/119
f 130/130/130 129/129/129 128/128/128
f 131/131/131 130/130/130 128/128/128
f 132/132/132 130/130/130 131/131/131
f 135/135/135 134/134/134 133/133/133
f 134/134/134 136/136/136 133/133/133
f 133/133/133 136/136/136 137/137/137
f 140/140/140 139/139/139 138/138/138
f 139/139/139 140/140/140 141/141/141
f 140/140/140 142/142/142 141/141/141
f 143/143/143 141/141/141 142/142/142
f 144/144/144 143/143/143 142/142/142
f 147/147/147 146/146/146 145/145/145
f 148/148/148 147/147/147 145/145/145
f 151/151/151 150/150/150 149/149/149
f 152/152/152 151/151/151 149/149/149
f 155/155/155 154/154/154 153/153/153
f 156/156/156 155/155/155 153/153/153
f 159/159/159 158/158/158 157/157/157
f 160/160/160 159/159/159 157/157/157
f 163/163/163 162/162/162 161/161/161
f 162/162/162 163/163/163 164/164/164
f 165/165/165 162/162/162 164/164/164
f 166/166/166 165/165/165 164/164/164
f 167/167/167 166/166/166 164/164/164
f 166/166/166 167/167/167 168/168/168
f 169/169/169 166/166/166 168/168/168
f 172/172/172 171/171/171 170/170/170
f 173/173/173 172/172/172 170/170/170
f 176/176/176 175/175/175 174/174/174
f 175/175/175 177/177/177 174/174/174
f 174/174/174 177/177/177 178/178/178
f 177/177/177 179/179/179 178/178/178
f 178/178/178 179/179/179 180/180/180
f 179/179/179 181/181/181 180/180/180
f 180/180/180 181/181/181 182/182/182
f 181/181/181 183/183/183 182/182/182
f 186/186/186 185/185/185 184/184/184
f 185/185/185 187/187/187 184/184/184
f 185/185/185 188/188/188 187/187/187
f 188/188/188 189/189/189 187/187/187
f 189/189/189 190/190/190 187/187/187
f 190/190/190 191/191/191 187/187/187
f 187/187/187 191/191/191 184/184/184
f 191/191/191 192/192/192 184/184/184
f 195/195/195 194/194/194 193/193/193
f 196/196/196 195/195/195 193/193/193
f 197/197/197 195/195/195 196/196/196
f 200/200/200 199/199/199 198/198/198
f 199/199/199 201/201/201 198/198/198
f 198/198/198 201/201/201 202/202/202
f 205/205/205 204/204/204 203/203/203
f 204/204/204 205/205/205 206/206/206
f 205/205/205 207/207/207 206/206/206
f 208/208/208 206/206/206 207/207/207
f 209/209/209 208/208/208 207/207/207
f 212/212/212 211/211/211 210/210/210
f 213/213/213 212/212/212 210/210/210
f 216/216/216 215/215/215 214/214/214
f 217/217/217 216/216/216 214/214/214
f 220/220/220 219/219/219 218/218/218
f 221/221/221 220/220/220 218/218/218
f 224/224/224 223/223/223 222/222/222
f 225/225/225 224/224/224 222/222/222
f 228/228/228 227/227/227 226/226/226
f 227/227/227 228/228/228 229/229/229
f 230/230/230 227/227/227 229/229/229
f 231/231/231 230/230/230 229/229/229
f 232/232/232 231/231/231 229/229/229
f 231/231/231 232/232/232 233/233/233
f 234/234/234 231/231/231 233/233/233
f 237/237/237 236/236/236 235/235/235
f 238/238/238 237/237/237 235/235/235
f 241/241/241 240/240/240 239/239/239
f 240/240/240 242/242/242 239/239/239
f 239/239/239 242/242/242 243/243/243
f 242/242/242 244/244/244 243/243/243
f 243/243/243 244/244/244 245/245/245
f 244/244/244 246/246/246 245/245/245
f 245/245/245 246/246/246 247/247/247
f 246/246/246 248/248/248 247/247/247
f 251/251/251 250/250/250 249/249/249
f 252/252/252 251/251/251 249/249/249
f 252/252/252 249/249/249 253/253/253
f 254/254/254 252/252/252 253/253/253
f 249/249/249 255/255/255 253/253/253
f 255/255/255 256/256/256 253/253/253
f 258/258/258 255/255/255 257/257/257
f 259/259/259 258/258/258 257/257/257
f 262/262/262 261/261/261 260/260/260
f 261/261/261 263/263/263 260/260/260
f 263/263/263 261/261/261 264/264/264
f 261/261/261 265/265/265 264/264/264
f 268/268/268 267/267/267 266/266/266
f 267/267/267 269/269/269 266/266/266
f 269/269/269 267/267/267 270/270/270
f 267/267/267 271/271/271 270/270/270
f 272/272/272 270/270/270 271/271/271
f 273/273/273 272/272/272 271/271/271
f 276/276/276 275/275/275 274/274/274
f 275/275/275 277/277/277 274/274/274
f 277/277/277 275/275/275 278/278/278
f 275/275/275 279/279/279 278/278/278
f 282/282/282 281/281/281 280/280/280
f 281/281/281 283/283/283 280/280/280
f 283/283/283 281/281/281 284/284/284
f 281/281/281 285/285/285 284/284/284
f 288/288/288 287/287/287 286/286/286
f 289/289/289 288/288/288 286/286/286
f 289/289/289 290/290/290 288/288/288
f 290/290/290 291/291/291 288/288/288
f 293/293/293 290/290/290 292/292/292
f 290/290/290 294/294/294 292/292/292
f 292/292/292 294/294/294 295/295/295
f 296/296/296 292/292/292 295/295/295
f 299/299/299 298/298/298 297/297/297
f 300/300/300 299/299/299 297/297/297
f 300/300/300 301/301/301 299/299/299
f 301/301/301 302/302/302 299/299/299
f 305/305/305 304/304/304 303/303/303
f 306/306/306 305/305/305 303/303/303
f 307/307/307 306/306/306 303/303/303
f 308/308/308 307/307/307 303/303/303
f 306/306/306 309/309/309 305/305/305
f 309/309/309 306/306/306 307/307/307
f 309/309/309 310/310/310 305/305/305
f 311/311/311 309/309/309 307/307/307
f 314/314/314 313/313/313 312/312/312
f 315/315/315 314/314/314 312/312/312
f 316/316/316 315/315/315 312/312/312
f 317/317/317 316/316/316 312/312/312
f 315/315/315 318/318/318 314/314/314
f 318/318/318 315/315/315 316/316/316
f 318/318/318 319/319/319 314/314/314
f 320/320/320 318/318/318 316/316/316
f 323/323/323 322/322/322 321/321/321
f 324/324/324 323/323/323 321/321/321
f 327/327/327 326/326/326 325/325/325
f 328/328/328 327/327/327 325/325/325
f 331/331/331 330/330/330 329/329/329
f 332/332/332 331/331/331 329/329/329
f 335/335/335 334/334/334 333/333/333
f 336/336/336 335/335/335 333/333/333
f 339/339/339 338/338/338 337/337/337
f 340/340/340 339/339/339 337/337/337
f 343/343/343 342/342/342 341/341/341
f 344/344/344 343/343/343 341/341/341
f 347/347/347 346/346/346 345/345/345
f 348/348/348 347/347/347 345/345/345
f 351/351/351 350/350/350 349/349/349
f 350/350/350 352/352/352 349/349/349
f 350/350/350 353/353/353 352/352/352
f 356/356/356 355/355/355 354/354/354
f 357/357/357 356/356/356 354/354/354
f 357/357/357 354/354/354 358/358/358
f 361/361/361 360/360/360 359/359/359
f 360/360/360 361/361/361 362/362/362
f 363/363/363 360/360/360 362/362/362
f 362/362/362 364/364/364 363/363/363
f 364/364/364 365/365/365 363/363/363
f 368/368/368 367/367/367 366/366/366
f 369/369/369 368/368/368 366/366/366
f 372/372/372 371/371/371 370/370/370
f 373/373/373 372/372/372 370/370/370
f 376/376/376 375/375/375 374/374/374
f 377/377/377 376/376/376 374/374/374
f 380/380/380 379/379/379 378/378/378
f 381/381/381 380/380/380 378/378/378
f 384/384/384 383/383/383 382/382/382
f 383/383/383 384/384/384 385/385/385
f 384/384/384 386/386/386 385/385/385
f 386/386/386 387/387/387 385/385/385
f 387/387/387 388/388/388 385/385/385
f 388/388/388 387/387/387 389/389/389
f 387/387/387 390/390/390 389/389/389
f 393/393/393 392/392/392 391/391/391
f 394/394/394 393/393/393 391/391/391
f 397/397/397 396/396/396 395/395/395
f 398/398/398 397/397/397 395/395/395
f 398/398/398 395/395/395 399/399/399
f 400/400/400 398/398/398 399/399/399
f 400/400/400 399/399/399 401/401/401
f 402/402/402 400/400/400 401/401/401
f 402/402/402 401/401/401 403/403/403
f 404/404/404 402/402/402 403/403/403
f 407/407/407 406/406/406 405/405/405
f 406/406/406 408/408/408 405/405/405
f 405/405/405 408/408/408 409/409/409
f 408/408/408 410/410/410 409/409/409
f 413/413/413 412/412/412 411/411/411
f 412/412/412 414/414/414 411/411/411
f 412/412/412 415/415/415 414/414/414
f 418/418/418 417/417/417 416/416/416
f 419/419/419 418/418/418 416/416/416
f 419/419/419 416/416/416 420/420/420
f 423/423/423 422/422/422 421/421/421
f 422/422/422 423/423/423 424/424/424
f 425/425/425 422/422/422 424/424/424
f 424/424/424 426/426/426 425/425/425
f 426/426/426 427/427/427 425/425/425
f 430/430/430 429/429/429 428/428/428
f 431/431/431 430/430/430 428/428/428
f 434/434/434 433/433/433 432/432/432
f 435/435/435 434/434/434 432/432/432
f 438/438/438 437/437/437 436/436/436
f 439/439/439 438/438/438 436/436/436
f 442/442/442 441/441/441 440/440/440
f 443/443/443 442/442/442 440/440/440
f 446/446/446 445/445/445 444/444/444
f 445/445/445 446/446/446 447/447/447
f 446/446/446 448/448/448 447/447/447
f 448/448/448 449/449/449 447/447/447
f 449/449/449 450/450/450 447/447/447
f 450/450/450 449/449/449 451/451/451
f 449/449/449 452/452/452 451/451/451
f 455/455/455 454/454/454 453/453/453
f 456/456/456 455/455/455 453/453/453
f 459/459/459 458/458/458 457/457/457
f 460/460/460 459/459/459 457/457/457
f 460/460/460 457/457/457 461/461/461
f 462/462/462 460/460/460 461/461/461
f 462/462/462 461/461/461 463/463/463
f 464/464/464 462/462/462 463/463/463
f 464/464/464 463/463/463 465/465/465
f 466/466/466 464/464/464 465/465/465
f 469/469/469 468/468/468 467/467/467
f 468/468/468 470/470/470 467/467/467
f 468/468/468 471/471/471 470/470/470
f 474/474/474 473/473/473 472/472/472
f 475/475/475 474/474/474 472/472/472
f 475/475/475 472/472/472 476/476/476
f 479/479/479 478/478/478 477/477/477
f 478/478/478 479/479/479 480/480/480
f 481/481/481 478/478/478 480/480/480
f 480/480/480 482/482/482 481/481/481
f 482/482/482 483/483/483 481/481/481
f 486/486/486 485/485/485 484/484/484
f 487/487/487 486/486/486 484/484/484
f 490/490/490 489/489/489 488/488/488
f 491/491/491 490/490/490 488/488/488
f 494/494/494 493/493/493 492/492/492
f 495/495/495 494/494/494 492/492/492
f 498/498/498 497/497/497 496/496/496
f 499/499/499 498/498/498 496/496/496
f 502/502/502 501/501/501 500/500/500
f 501/501/501 502/502/502 503/503/503
f 502/502/502 504/504/504 503/503/503
f 504/504/504 505/505/505 503/503/503
f 505/505/505 506/506/506 503/503/503
f 506/506/506 505/505/505 507/507/507
f 505/505/505 508/508/508 507/507/507
f 511/511/511 510/510/510 509/509/509
f 512/512/512 511/511/511 509/509/509
f 515/515/515 514/514/514 513/513/513
f 516/516/516 515/515/515 513/513/513
f 516/516/516 513/513/513 517/517/517
f 518/518/518 516/516/516 517/517/517
f 518/518/518 517/517/517 519/519/519
f 520/520/520 518/518/518 519/519/519
f 520/520/520 519/519/519 521/521/521
f 522/522/522 520/520/520 521/521/521
f 525/525/525 524/524/524 523/523/523
f 524/524/524 526/526/526 523/523/523
f 524/524/524 527/527/527 526/526/526
f 530/530/530 529/529/529 528/528/528
f 531/531/531 530/530/530 528/528/528
f 531/531/531 528/528/528 532/532/532
f 535/535/535 534/534/534 533/533/533
f 534/534/534 535/535/535 536/536/536
f 537/537/537 534/534/534 536/536/536
f 536/536/536 538/538/538 537/537/537
f 538/538/538 539/539/539 537/537/537
f 542/542/542 541/541/541 540/540/540
f 543/543/543 542/542/542 540/540/540
f 546/546/546 545/545/545 544/544/544
f 547/547/547 546/546/546 544/544/544
f 550/550/550 549/549/549 548/548/548
f 551/551/551 550/550/550 548/548/548
f 554/554/554 553/553/553 552/552/552
f 555/555/555 554/554/554 552/552/552
f 558/558/558 557/557/557 556/556/556
f 557/557/557 558/558/558 559/559/559
f 558/558/558 560/560/560 559/559/559
f 560/560/560 561/561/561 559/559/559
f 561/561/561 562/562/562 559/559/559
f 562/562/562 561/561/561 563/563/563
f 561/561/561 564/564/564 563/563/563
f 567/567/567 566/566/566 565/565/565
f 568/568/568 567/567/567 565/565/565
f 571/571/571 570/570/570 569/569/569
f 572/572/572 571/571/571 569/569/569
f 572/572/572 569/569/569 573/573/573
f 574/574/574 572/572/572 573/573/573
f 574/574/574 573/573/573 575/575/575
f 576/576/576 574/574/574 575/575/575
f 576/576/576 575/575/575 577/577/577
f 578/578/578 576/576/576 577/577/577
f 581/581/581 580/580/580 579/579/579
f 582/582/582 581/581/581 579/579/579
f 581/581/581 582/582/582 583/583/583
f 584/584/584 581/581/581 583/583/583
f 587/587/587 586/586/586 585/585/585
f 588/588/588 587/587/587 585/585/585
f 587/587/587 588/588/588 589/589/589
f 590/590/590 587/587/587 589/589/589
f 589/589/589 591/591/591 590/590/590
f 591/591/591 592/592/592 590/590/590
f 595/595/595 594/594/594 593/593/593
f 596/596/596 595/595/595 593/593/593
f 595/595/595 596/596/596 597/597/597
f 598/598/598 595/595/595 597/597/597
f 601/601/601 600/600/600 599/599/599
f 602/602/602 601/601/601 599/599/599
f 601/601/601 602/602/602 603/603/603
f 604/604/604 601/601/601 603/603/603
f 607/607/607 606/606/606 605/605/605
f 606/606/606 608/608/608 605/605/605
f 609/609/609 608/608/608 606/606/606
f 610/610/610 609/609/609 606/606/606
f 613/613/613 612/612/612 611/611/611
f 614/614/614 613/613/613 611/611/611
f 617/617/617 616/616/616 615/615/615
f 618/618/618 617/617/617 615/615/615
f 621/621/621 620/620/620 619/619/619
f 622/622/622 621/621/621 619/619/619
f 625/625/625 624/624/624 623/623/623
f 626/626/626 625/625/625 623/623/623
f 629/629/629 628/628/628 627/627/627
f 630/630/630 629/629/629 627/627/627
f 633/633/633 632/632/632 631/631/631
f 634/634/634 633/633/633 631/631/631
f 637/637/637 636/636/636 635/635/635
f 638/638/638 637/637/637 635/635/635
