g weapon_wrench_01
v -2.481583E-05 -0.0007015576 -0.007268823
v 0.000659004 -0.0003852232 -0.00703644
v 0.000659004 0.0003031173 -0.007036441
v -2.481602E-05 0.0006194515 -0.007268823
v -2.481602E-05 0.0006194515 -0.007268823
v 0.000659004 0.0003031173 -0.007036441
v 0.0009622282 0.0006472879 -0.006523201
v 0.0005571079 0.001279956 -0.006283854
v 0.0005571079 0.001279956 -0.006283854
v 0.0009622282 0.0006472879 -0.006523201
v 0.001265452 0.0003031178 -0.006009961
v 0.001139032 0.0006194519 -0.005298886
v 0.001139032 0.0006194519 -0.005298886
v 0.001265452 0.0003031178 -0.006009961
v 0.001265452 -0.000385223 -0.006009961
v 0.001139032 -0.0007015572 -0.005298886
v 0.001139032 -0.0007015572 -0.005298886
v 0.001265452 -0.000385223 -0.006009961
v 0.0009622282 -0.0007293935 -0.006523201
v 0.000557108 -0.001362062 -0.006283854
v 0.000557108 -0.001362062 -0.006283854
v 0.0009622282 -0.0007293935 -0.006523201
v 0.000659004 -0.0003852232 -0.00703644
v -2.481583E-05 -0.0007015576 -0.007268823
v -0.003392197 -0.0003852232 -0.004642972
v -0.003265777 -0.0007015576 -0.005354048
v -0.003265777 0.0006194515 -0.005354048
v -0.003392197 0.0003031173 -0.004642972
v -0.003392197 0.0003031173 -0.004642972
v -0.003265777 0.0006194515 -0.005354048
v -0.002683853 0.001279956 -0.00436908
v -0.003088973 0.0006472879 -0.004129733
v -0.003088973 0.0006472879 -0.004129733
v -0.002683853 0.001279956 -0.00436908
v -0.002101929 0.0006194519 -0.003384111
v -0.002785749 0.0003031178 -0.003616493
v -0.002785749 0.0003031178 -0.003616493
v -0.002101929 0.0006194519 -0.003384111
v -0.002101929 -0.0007015572 -0.003384111
v -0.002785749 -0.000385223 -0.003616493
v -0.002785749 -0.000385223 -0.003616493
v -0.002101929 -0.0007015572 -0.003384111
v -0.002683853 -0.001362062 -0.00436908
v -0.003088973 -0.0007293935 -0.004129733
v -0.003088973 -0.0007293935 -0.004129733
v -0.002683853 -0.001362062 -0.00436908
v -0.003265777 -0.0007015576 -0.005354048
v -0.003392197 -0.0003852232 -0.004642972
v -0.003265777 -0.0007015576 -0.005354048
v -0.002581957 -0.0003852232 -0.005121666
v -0.002581957 0.0003031173 -0.005121666
v -0.003265777 0.0006194515 -0.005354048
v -0.003265777 0.0006194515 -0.005354048
v -0.002581957 0.0003031173 -0.005121666
v -0.002278734 0.0006472879 -0.004608426
v -0.002683853 0.001279956 -0.00436908
v -0.002683853 0.001279956 -0.00436908
v -0.002278734 0.0006472879 -0.004608426
v -0.001975509 0.0003031178 -0.004095186
v -0.002101929 0.0006194519 -0.003384111
v -0.002101929 0.0006194519 -0.003384111
v -0.001975509 0.0003031178 -0.004095186
v -0.001975509 -0.000385223 -0.004095186
v -0.002101929 -0.0007015572 -0.003384111
v -0.002101929 -0.0007015572 -0.003384111
v -0.001975509 -0.000385223 -0.004095186
v -0.002278733 -0.0007293935 -0.004608426
v -0.002683853 -0.001362062 -0.00436908
v -0.002683853 -0.001362062 -0.00436908
v -0.002278733 -0.0007293935 -0.004608426
v -0.002581957 -0.0003852232 -0.005121666
v -0.003265777 -0.0007015576 -0.005354048
v -0.002581957 -0.0003852232 -0.005121666
v -0.002455537 -0.0007015576 -0.005832741
v -0.002455537 0.0006194515 -0.005832741
v -0.002581957 0.0003031173 -0.005121666
v -0.002581957 0.0003031173 -0.005121666
v -0.002455537 0.0006194515 -0.005832741
v -0.001873613 0.001279956 -0.004847773
v -0.002278734 0.0006472879 -0.004608426
v -0.002278734 0.0006472879 -0.004608426
v -0.001873613 0.001279956 -0.004847773
v -0.001291689 0.0006194519 -0.003862804
v -0.001975509 0.0003031178 -0.004095186
v -0.001975509 0.0003031178 -0.004095186
v -0.001291689 0.0006194519 -0.003862804
v -0.001291689 -0.0007015572 -0.003862804
v -0.001975509 -0.000385223 -0.004095186
v -0.001975509 -0.000385223 -0.004095186
v -0.001291689 -0.0007015572 -0.003862804
v -0.001873613 -0.001362062 -0.004847772
v -0.002278733 -0.0007293935 -0.004608426
v -0.002278733 -0.0007293935 -0.004608426
v -0.001873613 -0.001362062 -0.004847772
v -0.002455537 -0.0007015576 -0.005832741
v -0.002581957 -0.0003852232 -0.005121666
v -0.002455537 -0.0007015576 -0.005832741
v -0.001771718 -0.0003852232 -0.005600359
v -0.001771718 0.0003031173 -0.005600359
v -0.002455537 0.0006194515 -0.005832741
v -0.002455537 0.0006194515 -0.005832741
v -0.001771718 0.0003031173 -0.005600359
v -0.001468493 0.0006472879 -0.00508712
v -0.001873613 0.001279956 -0.004847773
v -0.001873613 0.001279956 -0.004847773
v -0.001468493 0.0006472879 -0.00508712
v -0.001165269 0.0003031178 -0.00457388
v -0.001291689 0.0006194519 -0.003862804
v -0.001291689 0.0006194519 -0.003862804
v -0.001165269 0.0003031178 -0.00457388
v -0.001165269 -0.000385223 -0.00457388
v -0.001291689 -0.0007015572 -0.003862804
v -0.001291689 -0.0007015572 -0.003862804
v -0.001165269 -0.000385223 -0.00457388
v -0.001468493 -0.0007293935 -0.00508712
v -0.001873613 -0.001362062 -0.004847772
v -0.001873613 -0.001362062 -0.004847772
v -0.001468493 -0.0007293935 -0.00508712
v -0.001771718 -0.0003852232 -0.005600359
v -0.002455537 -0.0007015576 -0.005832741
v -0.001771718 -0.0003852232 -0.005600359
v -0.001645296 -0.0007015576 -0.006311436
v -0.001645296 0.0006194515 -0.006311436
v -0.001771718 0.0003031173 -0.005600359
v -0.001771718 0.0003031173 -0.005600359
v -0.001645296 0.0006194515 -0.006311436
v -0.001063372 0.001279957 -0.005326468
v -0.001468493 0.0006472879 -0.00508712
v -0.001468493 0.0006472879 -0.00508712
v -0.001063372 0.001279957 -0.005326468
v -0.0004814483 0.0006194519 -0.004341498
v -0.001165269 0.0003031178 -0.00457388
v -0.001165269 0.0003031178 -0.00457388
v -0.0004814483 0.0006194519 -0.004341498
v -0.0004814483 -0.0007015572 -0.004341498
v -0.001165269 -0.000385223 -0.00457388
v -0.001165269 -0.000385223 -0.00457388
v -0.0004814483 -0.0007015572 -0.004341498
v -0.001063372 -0.001362062 -0.005326467
v -0.001468493 -0.0007293935 -0.00508712
v -0.001468493 -0.0007293935 -0.00508712
v -0.001063372 -0.001362062 -0.005326467
v -0.001645296 -0.0007015576 -0.006311436
v -0.001771718 -0.0003852232 -0.005600359
v -0.001645296 -0.0007015576 -0.006311436
v -0.0009614764 -0.0003852232 -0.006079053
v -0.0009614765 0.0003031173 -0.006079053
v -0.001645296 0.0006194515 -0.006311436
v -0.001645296 0.0006194515 -0.006311436
v -0.0009614765 0.0003031173 -0.006079053
v -0.0006582522 0.0006472879 -0.005565814
v -0.001063372 0.001279957 -0.005326468
v -0.001063372 0.001279957 -0.005326468
v -0.0006582522 0.0006472879 -0.005565814
v -0.0003550279 0.0003031178 -0.005052574
v -0.0004814483 0.0006194519 -0.004341498
v -0.0004814483 0.0006194519 -0.004341498
v -0.0003550279 0.0003031178 -0.005052574
v -0.0003550278 -0.000385223 -0.005052574
v -0.0004814483 -0.0007015572 -0.004341498
v -0.0004814483 -0.0007015572 -0.004341498
v -0.0003550278 -0.000385223 -0.005052574
v -0.0006582522 -0.0007293935 -0.005565814
v -0.001063372 -0.001362062 -0.005326467
v -0.001063372 -0.001362062 -0.005326467
v -0.0006582522 -0.0007293935 -0.005565814
v -0.0009614764 -0.0003852232 -0.006079053
v -0.001645296 -0.0007015576 -0.006311436
v -0.0009614764 -0.0003852232 -0.006079053
v -0.0008350558 -0.0007015576 -0.006790129
v -0.000835056 0.0006194515 -0.006790129
v -0.0009614765 0.0003031173 -0.006079053
v -0.0009614765 0.0003031173 -0.006079053
v -0.000835056 0.0006194515 -0.006790129
v -0.0002531321 0.001279956 -0.005805161
v -0.0006582522 0.0006472879 -0.005565814
v -0.0006582522 0.0006472879 -0.005565814
v -0.0002531321 0.001279956 -0.005805161
v 0.0003287919 0.0006194519 -0.004820192
v -0.0003550279 0.0003031178 -0.005052574
v -0.0003550279 0.0003031178 -0.005052574
v 0.0003287919 0.0006194519 -0.004820192
v 0.000328792 -0.0007015572 -0.004820192
v -0.0003550278 -0.000385223 -0.005052574
v -0.0003550278 -0.000385223 -0.005052574
v 0.000328792 -0.0007015572 -0.004820192
v -0.000253132 -0.001362062 -0.005805161
v -0.0006582522 -0.0007293935 -0.005565814
v -0.0006582522 -0.0007293935 -0.005565814
v -0.000253132 -0.001362062 -0.005805161
v -0.0008350558 -0.0007015576 -0.006790129
v -0.0009614764 -0.0003852232 -0.006079053
v -0.0008350558 -0.0007015576 -0.006790129
v -0.0001512366 -0.0003852232 -0.006557746
v -0.0001512367 0.0003031173 -0.006557747
v -0.000835056 0.0006194515 -0.006790129
v -0.000835056 0.0006194515 -0.006790129
v -0.0001512367 0.0003031173 -0.006557747
v 0.0001519875 0.0006472878 -0.006044507
v -0.0002531321 0.001279956 -0.005805161
v -0.0002531321 0.001279956 -0.005805161
v 0.0001519875 0.0006472878 -0.006044507
v 0.0004552118 0.0003031178 -0.005531267
v 0.0003287919 0.0006194519 -0.004820192
v 0.0003287919 0.0006194519 -0.004820192
v 0.0004552118 0.0003031178 -0.005531267
v 0.0004552118 -0.000385223 -0.005531267
v 0.000328792 -0.0007015572 -0.004820192
v 0.000328792 -0.0007015572 -0.004820192
v 0.0004552118 -0.000385223 -0.005531267
v 0.0001519876 -0.0007293934 -0.006044507
v -0.000253132 -0.001362062 -0.005805161
v -0.000253132 -0.001362062 -0.005805161
v 0.0001519876 -0.0007293934 -0.006044507
v -0.0001512366 -0.0003852232 -0.006557746
v -0.0008350558 -0.0007015576 -0.006790129
v -0.0001512366 -0.0003852232 -0.006557746
v -2.481583E-05 -0.0007015576 -0.007268823
v -2.481602E-05 0.0006194515 -0.007268823
v -0.0001512367 0.0003031173 -0.006557747
v -0.0001512367 0.0003031173 -0.006557747
v -2.481602E-05 0.0006194515 -0.007268823
v 0.0005571079 0.001279956 -0.006283854
v 0.0001519875 0.0006472878 -0.006044507
v 0.0001519875 0.0006472878 -0.006044507
v 0.0005571079 0.001279956 -0.006283854
v 0.001139032 0.0006194519 -0.005298886
v 0.0004552118 0.0003031178 -0.005531267
v 0.0004552118 0.0003031178 -0.005531267
v 0.001139032 0.0006194519 -0.005298886
v 0.001139032 -0.0007015572 -0.005298886
v 0.0004552118 -0.000385223 -0.005531267
v 0.0004552118 -0.000385223 -0.005531267
v 0.001139032 -0.0007015572 -0.005298886
v 0.000557108 -0.001362062 -0.006283854
v 0.0001519876 -0.0007293934 -0.006044507
v 0.0001519876 -0.0007293934 -0.006044507
v 0.000557108 -0.001362062 -0.006283854
v -2.481583E-05 -0.0007015576 -0.007268823
v -0.0001512366 -0.0003852232 -0.006557746
v 0.00411409 0.0008130531 -0.01909499
v 0.007125814 0.001665226 -0.01608327
v 0.000832139 0.001665226 -0.01278398
v -0.001357528 0.0008130531 -0.01996017
v 0.008228182 0.001665226 -0.01196918
v 0.000832139 0.001665226 -0.01278398
v 0.007125814 0.001665226 -0.01608327
v -0.008581878 0.001665226 -0.00689557
v -5.009644E-05 0.001665226 -0.007818081
v 0.007284208 0.001321008 -0.007855085
v -0.003864301 0.001665226 -0.005666404
v 0.001846367 0.00138863 -0.004910143
v -0.006480899 0.001665226 -0.004165619
v -0.00182256 0.001321008 -0.002837374
v -0.003824811 0.001321008 -0.002166223
v 0.00411409 0.001321008 -0.002949692
v -0.00182256 0.001321008 -0.002837374
v -0.002066517 0.001321008 0
v 0.002066517 0.001321008 0
v -0.003824811 0.001321008 -0.002166223
v 0.00411409 0.0008130531 -0.01909499
v 0.00411409 -0.0008130531 -0.01909499
v 0.007125814 -0.001665226 -0.01608327
v 0.007125814 0.001665226 -0.01608327
v 0.000832139 0.001665226 -0.01278398
v 0.000832139 -0.001665226 -0.01278398
v -0.001357528 -0.0008130531 -0.01996017
v -0.001357528 0.0008130531 -0.01996017
v -0.001357528 0.0008130531 -0.01996017
v -0.001357528 -0.0008130531 -0.01996017
v 0.00411409 -0.0008130531 -0.01909499
v 0.00411409 0.0008130531 -0.01909499
v -0.008581878 0.001665226 -0.00689557
v -0.008581878 -0.001665226 -0.00689557
v 0.000832139 -0.001665226 -0.01278398
v 0.000832139 0.001665226 -0.01278398
v -0.006480899 0.001665226 -0.004165619
v -0.008581878 -0.001665226 -0.00689557
v -0.008581878 0.001665226 -0.00689557
v -0.006480899 -0.001665226 -0.004165619
v -0.003824811 0.001321008 -0.002166223
v -0.003824811 -0.001321009 -0.002166223
v -0.002066517 0.001321008 0
v -0.002066517 -0.001321009 0
v 0.007125814 0.001665226 -0.01608327
v 0.007125814 -0.001665226 -0.01608327
v 0.008228182 -0.001665226 -0.01196918
v 0.008228182 0.001665226 -0.01196918
v 0.007284208 -0.001321009 -0.007855085
v 0.007284208 0.001321008 -0.007855085
v 0.00411409 -0.001321009 -0.002949692
v 0.00411409 0.001321008 -0.002949692
v 0.002066517 -0.001321009 0
v 0.002066517 0.001321008 0
v 0.00411409 -0.0008130531 -0.01909499
v 0.000832139 -0.001665226 -0.01278398
v 0.007125814 -0.001665226 -0.01608327
v -0.001357528 -0.0008130531 -0.01996017
v 0.008228182 -0.001665226 -0.01196918
v 0.007125814 -0.001665226 -0.01608327
v 0.000832139 -0.001665226 -0.01278398
v -0.008581878 -0.001665226 -0.00689557
v -5.009644E-05 -0.001665226 -0.007818081
v 0.007284208 -0.001321009 -0.007855085
v -0.003864301 -0.001665226 -0.005666404
v 0.001846367 -0.00138863 -0.004910143
v -0.006480899 -0.001665226 -0.004165619
v -0.00182256 -0.001321009 -0.002837374
v -0.003824811 -0.001321009 -0.002166223
v 0.00411409 -0.001321009 -0.002949692
v -0.00182256 -0.001321009 -0.002837374
v -0.002066517 -0.001321009 0
v 0.002066517 -0.001321009 0
v -0.003824811 -0.001321009 -0.002166223
v -5.009644E-05 0.001665226 -0.007818081
v -5.009644E-05 -0.001665226 -0.007818081
v -0.003864301 -0.001665226 -0.005666404
v -0.003864301 0.001665226 -0.005666404
v -0.003864301 0.001665226 -0.005666404
v -0.003864301 -0.001665226 -0.005666404
v -0.00182256 -0.001321009 -0.002837374
v -0.00182256 0.001321008 -0.002837374
v -0.00182256 0.001321008 -0.002837374
v -0.00182256 -0.001321009 -0.002837374
v 0.001846367 -0.00138863 -0.004910143
v 0.001846367 0.00138863 -0.004910143
v 0.001846367 0.00138863 -0.004910143
v 0.001846367 -0.00138863 -0.004910143
v -5.009644E-05 -0.001665226 -0.007818081
v -5.009644E-05 0.001665226 -0.007818081
v -0.008228182 0.001094026 -0.01196918
v -0.006639531 0.001094026 -0.01673676
v -0.001566137 0.001094026 -0.01143771
v -0.007125814 0.001094026 -0.007855085
v -0.008228182 -0.001099827 -0.01196918
v -0.001566137 -0.001099827 -0.01143771
v -0.006639531 -0.001099827 -0.01673676
v -0.007125814 -0.001099827 -0.007855085
v -0.001566137 -0.001099827 -0.01143771
v -0.001566137 0.001094026 -0.01143771
v -0.006639531 0.001094026 -0.01673676
v -0.006639531 -0.001099827 -0.01673676
v -0.006639531 -0.001099827 -0.01673676
v -0.006639531 0.001094026 -0.01673676
v -0.008228182 0.001094026 -0.01196918
v -0.008228182 -0.001099827 -0.01196918
v -0.007125814 -0.001099827 -0.007855085
v -0.007125814 0.001094026 -0.007855085
v -0.001566137 0.001094026 -0.01143771
v -0.001566137 -0.001099827 -0.01143771
v -0.008228182 -0.001099827 -0.01196918
v -0.008228182 0.001094026 -0.01196918
v -0.007125814 0.001094026 -0.007855085
v -0.007125814 -0.001099827 -0.007855085
v -0.002066517 -0.001321009 0
v -0.002066517 0.001321008 0
v 0.002066517 0.001321008 0
v 0.002066517 -0.001321009 0
vt 0.03384399 0.9433594
vt 0.03515625 0.9423828
vt 0.03515625 0.9414063
vt 0.03384399 0.9404297
vt 0.03384399 0.9404297
vt 0.03515625 0.9414063
vt 0.03573608 0.9404297
vt 0.03497314 0.9394531
vt 0.03289795 0.9443359
vt 0.03335571 0.9433594
vt 0.03237915 0.9423828
vt 0.0309906 0.9433594
vt 0.0309906 0.9433594
vt 0.03237915 0.9423828
vt 0.03237915 0.9414063
vt 0.0309906 0.9404297
vt 0.0309906 0.9404297
vt 0.03237915 0.9414063
vt 0.03335571 0.9404297
vt 0.03289795 0.9394531
vt 0.03497314 0.9443359
vt 0.03573608 0.9433594
vt 0.03515625 0.9423828
vt 0.03384399 0.9433594
vt 0.02952576 0.9414063
vt 0.02815247 0.9404297
vt 0.02815247 0.9433594
vt 0.02952576 0.9423828
vt 0.02952576 0.9423828
vt 0.02815247 0.9433594
vt 0.03005981 0.9443359
vt 0.03051758 0.9433594
vt 0.02577209 0.9433594
vt 0.02655029 0.9443359
vt 0.02767944 0.9433594
vt 0.02635193 0.9423828
vt 0.02635193 0.9423828
vt 0.02767944 0.9433594
vt 0.02767944 0.9404297
vt 0.02635193 0.9414063
vt 0.02635193 0.9414063
vt 0.02767944 0.9404297
vt 0.02655029 0.9394531
vt 0.02577209 0.9404297
vt 0.03051758 0.9404297
vt 0.03005981 0.9394531
vt 0.02815247 0.9404297
vt 0.02952576 0.9414063
vt 0.0246582 0.9487305
vt 0.02597046 0.9477539
vt 0.02597046 0.9467773
vt 0.0246582 0.9458008
vt 0.0246582 0.9458008
vt 0.02597046 0.9467773
vt 0.02656555 0.9458008
vt 0.02578735 0.9448242
vt 0.0289917 0.949707
vt 0.02944946 0.9487305
vt 0.02845764 0.9477539
vt 0.02708435 0.9487305
vt 0.02708435 0.9487305
vt 0.02845764 0.9477539
vt 0.02845764 0.9467773
vt 0.02708435 0.9458008
vt 0.02708435 0.9458008
vt 0.02845764 0.9467773
vt 0.02944946 0.9458008
vt 0.0289917 0.9448242
vt 0.02578735 0.949707
vt 0.02656555 0.9487305
vt 0.02597046 0.9477539
vt 0.0246582 0.9487305
vt 0.03134155 0.9467773
vt 0.029953 0.9458008
vt 0.029953 0.9487305
vt 0.03134155 0.9477539
vt 0.03134155 0.9477539
vt 0.029953 0.9487305
vt 0.03186035 0.949707
vt 0.03231812 0.9487305
vt 0.03283691 0.9487305
vt 0.03359985 0.949707
vt 0.034729 0.9487305
vt 0.03341675 0.9477539
vt 0.03341675 0.9477539
vt 0.034729 0.9487305
vt 0.034729 0.9458008
vt 0.03341675 0.9467773
vt 0.03341675 0.9467773
vt 0.034729 0.9458008
vt 0.03359985 0.9448242
vt 0.03283691 0.9458008
vt 0.03231812 0.9458008
vt 0.03186035 0.9448242
vt 0.029953 0.9458008
vt 0.03134155 0.9467773
vt 0.0352478 0.9516602
vt 0.03656006 0.9506836
vt 0.03656006 0.949707
vt 0.0352478 0.9487305
vt 0.0352478 0.9487305
vt 0.03656006 0.949707
vt 0.03713989 0.9487305
vt 0.03637695 0.9477539
vt 0.03955078 0.9526367
vt 0.04000854 0.9516602
vt 0.03903198 0.9506836
vt 0.03765869 0.9516602
vt 0.03765869 0.9516602
vt 0.03903198 0.9506836
vt 0.03903198 0.949707
vt 0.03765869 0.9487305
vt 0.03765869 0.9487305
vt 0.03903198 0.949707
vt 0.04000854 0.9487305
vt 0.03955078 0.9477539
vt 0.03637695 0.9526367
vt 0.03713989 0.9516602
vt 0.03656006 0.9506836
vt 0.0352478 0.9516602
vt 0.04190063 0.9521484
vt 0.04052734 0.9516602
vt 0.04052734 0.9541016
vt 0.04190063 0.9536133
vt 0.04190063 0.9536133
vt 0.04052734 0.9541016
vt 0.04241943 0.9550781
vt 0.0428772 0.9541016
vt 0.043396 0.9545898
vt 0.04418945 0.9555664
vt 0.04528809 0.9545898
vt 0.04397583 0.9541016
vt 0.04397583 0.9541016
vt 0.04528809 0.9545898
vt 0.04528809 0.9521484
vt 0.04397583 0.9526367
vt 0.04397583 0.9526367
vt 0.04528809 0.9521484
vt 0.04418945 0.9506836
vt 0.043396 0.9516602
vt 0.0428772 0.9516602
vt 0.04241943 0.9501953
vt 0.04052734 0.9516602
vt 0.04190063 0.9521484
vt 0.04580688 0.9545898
vt 0.04711914 0.9541016
vt 0.04711914 0.9526367
vt 0.04580688 0.9521484
vt 0.04580688 0.9521484
vt 0.04711914 0.9526367
vt 0.04772949 0.9516602
vt 0.04693604 0.9506836
vt 0.05014038 0.9555664
vt 0.05059814 0.9545898
vt 0.04959106 0.9541016
vt 0.04821777 0.9545898
vt 0.04821777 0.9545898
vt 0.04959106 0.9541016
vt 0.04959106 0.9526367
vt 0.04821777 0.9521484
vt 0.04821777 0.9521484
vt 0.04959106 0.9526367
vt 0.05059814 0.9516602
vt 0.05014038 0.9506836
vt 0.04693604 0.9555664
vt 0.04772949 0.9545898
vt 0.04711914 0.9541016
vt 0.04580688 0.9545898
vt 0.05245972 0.9526367
vt 0.05108643 0.9521484
vt 0.05108643 0.9545898
vt 0.05245972 0.9541016
vt 0.05245972 0.9541016
vt 0.05108643 0.9545898
vt 0.05300903 0.9555664
vt 0.0534668 0.9545898
vt 0.05395508 0.9545898
vt 0.05474854 0.9555664
vt 0.05587769 0.9545898
vt 0.05456543 0.9541016
vt 0.05456543 0.9541016
vt 0.05587769 0.9545898
vt 0.05587769 0.9521484
vt 0.05456543 0.9526367
vt 0.05456543 0.9526367
vt 0.05587769 0.9521484
vt 0.05474854 0.9506836
vt 0.05395508 0.9516602
vt 0.0534668 0.9516602
vt 0.05300903 0.9506836
vt 0.05108643 0.9521484
vt 0.05245972 0.9526367
vt 0.05636597 0.9545898
vt 0.05770874 0.9541016
vt 0.05770874 0.9526367
vt 0.05636597 0.9521484
vt 0.05636597 0.9521484
vt 0.05770874 0.9526367
vt 0.05828857 0.9516602
vt 0.05749512 0.9506836
vt 0.06069946 0.9619141
vt 0.06115723 0.9604492
vt 0.06018066 0.9599609
vt 0.05880737 0.9604492
vt 0.05880737 0.9604492
vt 0.06018066 0.9599609
vt 0.06018066 0.9584961
vt 0.05880737 0.9580078
vt 0.05880737 0.9580078
vt 0.06018066 0.9584961
vt 0.06115723 0.9580078
vt 0.06069946 0.9570313
vt 0.05749512 0.9555664
vt 0.05828857 0.9545898
vt 0.05770874 0.9541016
vt 0.05636597 0.9545898
vt 0.06304932 0.9584961
vt 0.06167603 0.9580078
vt 0.06167603 0.9604492
vt 0.06304932 0.9599609
vt 0.06304932 0.9599609
vt 0.06167603 0.9604492
vt 0.06359863 0.9619141
vt 0.06402588 0.9604492
vt 0.06451416 0.9604492
vt 0.06530762 0.9619141
vt 0.06646729 0.9604492
vt 0.06512451 0.9599609
vt 0.06512451 0.9599609
vt 0.06646729 0.9604492
vt 0.06646729 0.9580078
vt 0.06512451 0.9584961
vt 0.06512451 0.9584961
vt 0.06646729 0.9580078
vt 0.06530762 0.9570313
vt 0.06451416 0.9580078
vt 0.06402588 0.9580078
vt 0.06359863 0.9570313
vt 0.06167603 0.9580078
vt 0.06304932 0.9584961
vt 0.04919434 0.9375
vt 0.05502319 0.9316406
vt 0.04284668 0.925293
vt 0.03860474 0.9389648
vt 0.05715942 0.9233398
vt 0.04284668 0.925293
vt 0.05502319 0.9316406
vt 0.0246582 0.9135742
vt 0.0411377 0.9155273
vt 0.05532837 0.9155273
vt 0.03378296 0.9111328
vt 0.0447998 0.9101563
vt 0.02871704 0.9086914
vt 0.03771973 0.9057617
vt 0.03384399 0.9047852
vt 0.04919434 0.90625
vt 0.03771973 0.9057617
vt 0.03726196 0.9003906
vt 0.04522705 0.9003906
vt 0.03384399 0.9047852
vt 0.1001587 0.9394531
vt 0.0970459 0.9394531
vt 0.09539795 0.9453125
vt 0.1018066 0.9453125
vt 0.06414795 0.925293
vt 0.05773926 0.925293
vt 0.05938721 0.9389648
vt 0.0625 0.9389648
vt 0.04180908 0.949707
vt 0.04495239 0.949707
vt 0.04495239 0.9394531
vt 0.04180908 0.9394531
vt 0.06414795 0.9135742
vt 0.05773926 0.9135742
vt 0.05773926 0.925293
vt 0.06414795 0.925293
vt 0.06414795 0.9086914
vt 0.05773926 0.9135742
vt 0.06414795 0.9135742
vt 0.05773926 0.9086914
vt 0.0635376 0.9047852
vt 0.05841064 0.9047852
vt 0.0635376 0.9003906
vt 0.05841064 0.9003906
vt 0.1018066 0.9453125
vt 0.09539795 0.9453125
vt 0.09539795 0.953125
vt 0.1018066 0.953125
vt 0.09606934 0.9609375
vt 0.1011353 0.9609375
vt 0.09606934 0.9707031
vt 0.1011353 0.9707031
vt 0.09606934 0.9760742
vt 0.1011353 0.9760742
vt 0.0892334 0.9018555
vt 0.08288574 0.9140625
vt 0.09503174 0.9077148
vt 0.07867432 0.9003906
vt 0.09716797 0.9160156
vt 0.09503174 0.9077148
vt 0.08288574 0.9140625
vt 0.06469727 0.9257813
vt 0.08117676 0.9238281
vt 0.09533691 0.9238281
vt 0.0737915 0.9282227
vt 0.08483887 0.9296875
vt 0.06872559 0.9311523
vt 0.07775879 0.9335938
vt 0.07385254 0.9350586
vt 0.0892334 0.9331055
vt 0.07775879 0.9335938
vt 0.07727051 0.9389648
vt 0.08526611 0.9389648
vt 0.07385254 0.9350586
vt 0.05877686 0.9428711
vt 0.05233765 0.9428711
vt 0.05233765 0.9501953
vt 0.05877686 0.9501953
vt 0.04541016 0.9501953
vt 0.05184937 0.9501953
vt 0.0512085 0.9462891
vt 0.04608154 0.9462891
vt 0.04608154 0.9462891
vt 0.0512085 0.9462891
vt 0.05133057 0.9394531
vt 0.04595947 0.9394531
vt 0.05822754 0.9394531
vt 0.05285645 0.9394531
vt 0.05233765 0.9428711
vt 0.05877686 0.9428711
vt 0.08203125 0.9472656
vt 0.08508301 0.956543
vt 0.09490967 0.9462891
vt 0.08416748 0.9394531
vt 0.06866455 0.9487305
vt 0.08154297 0.949707
vt 0.07177734 0.9394531
vt 0.07080078 0.956543
vt 0.06396484 0.949707
vt 0.06817627 0.949707
vt 0.06817627 0.9394531
vt 0.06396484 0.9394531
vt 0.05923462 0.956543
vt 0.06347656 0.956543
vt 0.06347656 0.9472656
vt 0.05923462 0.9472656
vt 0.06396484 0.956543
vt 0.06817627 0.956543
vt 0.06817627 0.949707
vt 0.06396484 0.949707
vt 0.05923462 0.9472656
vt 0.06347656 0.9472656
vt 0.06347656 0.9394531
vt 0.05923462 0.9394531
vt 0.03622437 0.9472656
vt 0.0413208 0.9472656
vt 0.0413208 0.9394531
vt 0.03622437 0.9394531
vn 0.3217773 -2.384186E-07 -0.9467773
vn 0.3217773 -2.384186E-07 -0.9467773
vn 0.3217773 -2.384186E-07 -0.9467773
vn 0.3217773 -2.384186E-07 -0.9467773
vn 0.4875488 0.5644531 -0.6665039
vn 0.4875488 0.5644531 -0.6665039
vn 0.4875488 0.5644531 -0.6665039
vn 0.4875488 0.5644531 -0.6665039
vn 0.8188477 0.5644531 -0.1054077
vn 0.8188477 0.5644531 -0.1054077
vn 0.8188477 0.5644531 -0.1054077
vn 0.8188477 0.5644531 -0.1054077
vn 0.984375 0 0.1750488
vn 0.984375 0 0.1750488
vn 0.984375 0 0.1750488
vn 0.984375 0 0.1750488
vn 0.8188477 -0.5644531 -0.1054077
vn 0.8188477 -0.5644531 -0.1054077
vn 0.8188477 -0.5644531 -0.1054077
vn 0.8188477 -0.5644531 -0.1054077
vn 0.4875488 -0.5644531 -0.6665039
vn 0.4875488 -0.5644531 -0.6665039
vn 0.4875488 -0.5644531 -0.6665039
vn 0.4875488 -0.5644531 -0.6665039
vn -0.984375 -2.384186E-07 -0.1750488
vn -0.984375 -2.384186E-07 -0.1750488
vn -0.984375 -2.384186E-07 -0.1750488
vn -0.984375 -2.384186E-07 -0.1750488
vn -0.8188477 0.5644531 0.1054077
vn -0.8188477 0.5644531 0.1054077
vn -0.8188477 0.5644531 0.1054077
vn -0.8188477 0.5644531 0.1054077
vn -0.4875488 0.5644531 0.6665039
vn -0.4875488 0.5644531 0.6665039
vn -0.4875488 0.5644531 0.6665039
vn -0.4875488 0.5644531 0.6665039
vn -0.3217773 1.192093E-07 0.9467773
vn -0.3217773 1.192093E-07 0.9467773
vn -0.3217773 1.192093E-07 0.9467773
vn -0.3217773 1.192093E-07 0.9467773
vn -0.4875488 -0.5644531 0.6665039
vn -0.4875488 -0.5644531 0.6665039
vn -0.4875488 -0.5644531 0.6665039
vn -0.4875488 -0.5644531 0.6665039
vn -0.8188477 -0.5644531 0.1054077
vn -0.8188477 -0.5644531 0.1054077
vn -0.8188477 -0.5644531 0.1054077
vn -0.8188477 -0.5644531 0.1054077
vn 0.3217773 -2.980232E-07 -0.9467773
vn 0.3217773 -2.980232E-07 -0.9467773
vn 0.3217773 -2.980232E-07 -0.9467773
vn 0.3217773 -2.980232E-07 -0.9467773
vn 0.4875488 0.5644531 -0.6665039
vn 0.4875488 0.5644531 -0.6665039
vn 0.4875488 0.5644531 -0.6665039
vn 0.4875488 0.5644531 -0.6665039
vn 0.8188477 0.5644531 -0.1054077
vn 0.8188477 0.5644531 -0.1054077
vn 0.8188477 0.5644531 -0.1054077
vn 0.8188477 0.5644531 -0.1054077
vn 0.984375 0 0.1750488
vn 0.984375 0 0.1750488
vn 0.984375 0 0.1750488
vn 0.984375 0 0.1750488
vn 0.8188477 -0.5644531 -0.1054077
vn 0.8188477 -0.5644531 -0.1054077
vn 0.8188477 -0.5644531 -0.1054077
vn 0.8188477 -0.5644531 -0.1054077
vn 0.4875488 -0.5644531 -0.6665039
vn 0.4875488 -0.5644531 -0.6665039
vn 0.4875488 -0.5644531 -0.6665039
vn 0.4875488 -0.5644531 -0.6665039
vn -0.984375 0 -0.1750488
vn -0.984375 0 -0.1750488
vn -0.984375 0 -0.1750488
vn -0.984375 0 -0.1750488
vn -0.8188477 0.5644531 0.1054077
vn -0.8188477 0.5644531 0.1054077
vn -0.8188477 0.5644531 0.1054077
vn -0.8188477 0.5644531 0.1054077
vn -0.4875488 0.5644531 0.6665039
vn -0.4875488 0.5644531 0.6665039
vn -0.4875488 0.5644531 0.6665039
vn -0.4875488 0.5644531 0.6665039
vn -0.3217773 0 0.9467773
vn -0.3217773 0 0.9467773
vn -0.3217773 0 0.9467773
vn -0.3217773 0 0.9467773
vn -0.4875488 -0.5644531 0.6665039
vn -0.4875488 -0.5644531 0.6665039
vn -0.4875488 -0.5644531 0.6665039
vn -0.4875488 -0.5644531 0.6665039
vn -0.8188477 -0.5644531 0.1054077
vn -0.8188477 -0.5644531 0.1054077
vn -0.8188477 -0.5644531 0.1054077
vn -0.8188477 -0.5644531 0.1054077
vn 0.3217773 0 -0.9467773
vn 0.3217773 0 -0.9467773
vn 0.3217773 0 -0.9467773
vn 0.3217773 0 -0.9467773
vn 0.4875488 0.5644531 -0.6665039
vn 0.4875488 0.5644531 -0.6665039
vn 0.4875488 0.5644531 -0.6665039
vn 0.4875488 0.5644531 -0.6665039
vn 0.8188477 0.5644531 -0.1054077
vn 0.8188477 0.5644531 -0.1054077
vn 0.8188477 0.5644531 -0.1054077
vn 0.8188477 0.5644531 -0.1054077
vn 0.984375 1.192093E-07 0.1750488
vn 0.984375 1.192093E-07 0.1750488
vn 0.984375 1.192093E-07 0.1750488
vn 0.984375 1.192093E-07 0.1750488
vn 0.8188477 -0.5644531 -0.1054077
vn 0.8188477 -0.5644531 -0.1054077
vn 0.8188477 -0.5644531 -0.1054077
vn 0.8188477 -0.5644531 -0.1054077
vn 0.4875488 -0.5644531 -0.6665039
vn 0.4875488 -0.5644531 -0.6665039
vn 0.4875488 -0.5644531 -0.6665039
vn 0.4875488 -0.5644531 -0.6665039
vn -0.984375 0 -0.1750488
vn -0.984375 0 -0.1750488
vn -0.984375 0 -0.1750488
vn -0.984375 0 -0.1750488
vn -0.8188477 0.5644531 0.1054077
vn -0.8188477 0.5644531 0.1054077
vn -0.8188477 0.5644531 0.1054077
vn -0.8188477 0.5644531 0.1054077
vn -0.4875488 0.5644531 0.6665039
vn -0.4875488 0.5644531 0.6665039
vn -0.4875488 0.5644531 0.6665039
vn -0.4875488 0.5644531 0.6665039
vn -0.3217773 0 0.9467773
vn -0.3217773 0 0.9467773
vn -0.3217773 0 0.9467773
vn -0.3217773 0 0.9467773
vn -0.4875488 -0.5644531 0.6665039
vn -0.4875488 -0.5644531 0.6665039
vn -0.4875488 -0.5644531 0.6665039
vn -0.4875488 -0.5644531 0.6665039
vn -0.8188477 -0.5644531 0.1054077
vn -0.8188477 -0.5644531 0.1054077
vn -0.8188477 -0.5644531 0.1054077
vn -0.8188477 -0.5644531 0.1054077
vn 0.3217773 0 -0.9467773
vn 0.3217773 0 -0.9467773
vn 0.3217773 0 -0.9467773
vn 0.3217773 0 -0.9467773
vn 0.4875488 0.5644531 -0.6665039
vn 0.4875488 0.5644531 -0.6665039
vn 0.4875488 0.5644531 -0.6665039
vn 0.4875488 0.5644531 -0.6665039
vn 0.8188477 0.5644531 -0.1054077
vn 0.8188477 0.5644531 -0.1054077
vn 0.8188477 0.5644531 -0.1054077
vn 0.8188477 0.5644531 -0.1054077
vn 0.984375 0 0.1750488
vn 0.984375 0 0.1750488
vn 0.984375 0 0.1750488
vn 0.984375 0 0.1750488
vn 0.8188477 -0.5644531 -0.1054077
vn 0.8188477 -0.5644531 -0.1054077
vn 0.8188477 -0.5644531 -0.1054077
vn 0.8188477 -0.5644531 -0.1054077
vn 0.4875488 -0.5644531 -0.6665039
vn 0.4875488 -0.5644531 -0.6665039
vn 0.4875488 -0.5644531 -0.6665039
vn 0.4875488 -0.5644531 -0.6665039
vn -0.984375 -1.788139E-07 -0.1750488
vn -0.984375 -1.788139E-07 -0.1750488
vn -0.984375 -1.788139E-07 -0.1750488
vn -0.984375 -1.788139E-07 -0.1750488
vn -0.8188477 0.5644531 0.1054077
vn -0.8188477 0.5644531 0.1054077
vn -0.8188477 0.5644531 0.1054077
vn -0.8188477 0.5644531 0.1054077
vn -0.4875488 0.5644531 0.6665039
vn -0.4875488 0.5644531 0.6665039
vn -0.4875488 0.5644531 0.6665039
vn -0.4875488 0.5644531 0.6665039
vn -0.3217773 0 0.9467773
vn -0.3217773 0 0.9467773
vn -0.3217773 0 0.9467773
vn -0.3217773 0 0.9467773
vn -0.4875488 -0.5644531 0.6665039
vn -0.4875488 -0.5644531 0.6665039
vn -0.4875488 -0.5644531 0.6665039
vn -0.4875488 -0.5644531 0.6665039
vn -0.8188477 -0.5644531 0.1054077
vn -0.8188477 -0.5644531 0.1054077
vn -0.8188477 -0.5644531 0.1054077
vn -0.8188477 -0.5644531 0.1054077
vn 0.3217773 -2.384186E-07 -0.9467773
vn 0.3217773 -2.384186E-07 -0.9467773
vn 0.3217773 -2.384186E-07 -0.9467773
vn 0.3217773 -2.384186E-07 -0.9467773
vn 0.4875488 0.5644531 -0.6665039
vn 0.4875488 0.5644531 -0.6665039
vn 0.4875488 0.5644531 -0.6665039
vn 0.4875488 0.5644531 -0.6665039
vn 0.8188477 0.5644531 -0.1054077
vn 0.8188477 0.5644531 -0.1054077
vn 0.8188477 0.5644531 -0.1054077
vn 0.8188477 0.5644531 -0.1054077
vn 0.984375 0 0.1750488
vn 0.984375 0 0.1750488
vn 0.984375 0 0.1750488
vn 0.984375 0 0.1750488
vn 0.8188477 -0.5644531 -0.1054077
vn 0.8188477 -0.5644531 -0.1054077
vn 0.8188477 -0.5644531 -0.1054077
vn 0.8188477 -0.5644531 -0.1054077
vn 0.4875488 -0.5644531 -0.6665039
vn 0.4875488 -0.5644531 -0.6665039
vn 0.4875488 -0.5644531 -0.6665039
vn 0.4875488 -0.5644531 -0.6665039
vn -0.984375 -1.788139E-07 -0.1750488
vn -0.984375 -1.788139E-07 -0.1750488
vn -0.984375 -1.788139E-07 -0.1750488
vn -0.984375 -1.788139E-07 -0.1750488
vn -0.8188477 0.5644531 0.1054077
vn -0.8188477 0.5644531 0.1054077
vn -0.8188477 0.5644531 0.1054077
vn -0.8188477 0.5644531 0.1054077
vn -0.4875488 0.5644531 0.6665039
vn -0.4875488 0.5644531 0.6665039
vn -0.4875488 0.5644531 0.6665039
vn -0.4875488 0.5644531 0.6665039
vn -0.3217773 0 0.9467773
vn -0.3217773 0 0.9467773
vn -0.3217773 0 0.9467773
vn -0.3217773 0 0.9467773
vn -0.4875488 -0.5644531 0.6665039
vn -0.4875488 -0.5644531 0.6665039
vn -0.4875488 -0.5644531 0.6665039
vn -0.4875488 -0.5644531 0.6665039
vn -0.8188477 -0.5644531 0.1054077
vn -0.8188477 -0.5644531 0.1054077
vn -0.8188477 -0.5644531 0.1054077
vn -0.8188477 -0.5644531 0.1054077
vn -0.03089905 0.9882813 -0.1495361
vn -0.09521484 0.9785156 -0.1816406
vn -0.02482605 0.9887695 -0.1464844
vn 0.01957703 0.9921875 -0.1237793
vn 0.01174164 0.9995117 0.02342224
vn 0 1 0
vn 0 1 0
vn 0 1 0
vn 0.006381989 1 0.01028442
vn 0.04385376 0.9956055 0.08013916
vn 0.01423645 0.9995117 0.02482605
vn 0.02635193 0.9990234 0.04168701
vn 0.01774597 0.9990234 0.03469849
vn 0.04592896 0.9941406 0.09655762
vn 0.03961182 0.9921875 0.1181641
vn 0 1 0
vn 0 1 0
vn 0 1 0
vn 0 1 0
vn 0 1 0
vn 0.7070313 0 -0.7070313
vn 0.7070313 0 -0.7070313
vn 0.7070313 0 -0.7070313
vn 0.7070313 0 -0.7070313
vn -0.956543 0 0.291748
vn -0.956543 0 0.291748
vn -0.956543 0 0.291748
vn -0.956543 0 0.291748
vn 0.1561279 0 -0.987793
vn 0.1561279 0 -0.987793
vn 0.1561279 0 -0.987793
vn 0.1561279 0 -0.987793
vn -0.5302734 0 -0.8476563
vn -0.5302734 0 -0.8476563
vn -0.5302734 0 -0.8476563
vn -0.5302734 0 -0.8476563
vn -0.7133789 0 0.7006836
vn -0.7924805 0 0.6098633
vn -0.7924805 0 0.6098633
vn -0.7133789 0 0.7006836
vn -0.6782227 0 0.7348633
vn -0.6782227 0 0.7348633
vn -0.7763672 0 0.6303711
vn -0.7763672 0 0.6303711
vn 0.9658203 0 -0.2587891
vn 0.9658203 0 -0.2587891
vn 0.9990234 0 -0.03936768
vn 0.9990234 0 -0.03936768
vn 0.9160156 0 0.4013672
vn 0.9160156 0 0.4013672
vn 0.8330078 0 0.5532227
vn 0.8330078 0 0.5532227
vn 0.8212891 0 0.5703125
vn 0.8212891 0 0.5703125
vn -0.03089905 -0.9882813 -0.1495361
vn -0.02482605 -0.9887695 -0.1464844
vn -0.09521484 -0.9785156 -0.1816406
vn 0.01957703 -0.9921875 -0.1237793
vn 0.01174164 -0.9995117 0.02342224
vn 0 -1 0
vn 0 -1 0
vn 0 -1 0
vn 0.006381989 -1 0.01028442
vn 0.04385376 -0.9956055 0.08013916
vn 0.01423645 -0.9995117 0.02482605
vn 0.02635193 -0.9990234 0.04168701
vn 0.01774597 -0.9990234 0.03469849
vn 0.04592896 -0.9941406 0.09655762
vn 0.03961182 -0.9921875 0.1181641
vn 0 -1 0
vn 0 -1 0
vn 0 -1 0
vn 0 -1 0
vn 0 -1 0
vn 0.4914551 0 0.8710938
vn 0.4914551 0 0.8710938
vn 0.4914551 0 0.8710938
vn 0.4914551 0 0.8710938
vn 0.8110352 0 -0.5854492
vn 0.8110352 0 -0.5854492
vn 0.8110352 0 -0.5854492
vn 0.8110352 0 -0.5854492
vn -0.4919434 0 -0.8706055
vn -0.4919434 0 -0.8706055
vn -0.4919434 0 -0.8706055
vn -0.4919434 0 -0.8706055
vn -0.8374023 0 0.5463867
vn -0.8374023 0 0.5463867
vn -0.8374023 0 0.5463867
vn -0.8374023 0 0.5463867
vn 0 1 0
vn 0 1 0
vn 0 1 0
vn 0 1 0
vn 0 -1 0
vn 0 -1 0
vn 0 -1 0
vn 0 -1 0
vn 0.722168 0 -0.6914063
vn 0.722168 0 -0.6914063
vn 0.722168 0 -0.6914063
vn 0.722168 0 -0.6914063
vn -0.9487305 0 -0.3161621
vn -0.9487305 0 -0.3161621
vn -0.9487305 0 -0.3161621
vn -0.9487305 0 -0.3161621
vn 0.5415039 0 0.8408203
vn 0.5415039 0 0.8408203
vn 0.5415039 0 0.8408203
vn 0.5415039 0 0.8408203
vn -0.9658203 0 0.2587891
vn -0.9658203 0 0.2587891
vn -0.9658203 0 0.2587891
vn -0.9658203 0 0.2587891
vn 0 0 1
vn 0 0 1
vn 0 0 1
vn 0 0 1
g weapon_wrench_01_0
f 3/3/3 2/2/2 1/1/1
f 4/4/4 3/3/3 1/1/1
f 7/7/7 6/6/6 5/5/5
f 8/8/8 7/7/7 5/5/5
f 11/11/11 10/10/10 9/9/9
f 12/12/12 11/11/11 9/9/9
f 15/15/15 14/14/14 13/13/13
f 16/16/16 15/15/15 13/13/13
f 19/19/19 18/18/18 17/17/17
f 20/20/20 19/19/19 17/17/17
f 23/23/23 22/22/22 21/21/21
f 24/24/24 23/23/23 21/21/21
f 27/27/27 26/26/26 25/25/25
f 28/28/28 27/27/27 25/25/25
f 31/31/31 30/30/30 29/29/29
f 32/32/32 31/31/31 29/29/29
f 35/35/35 34/34/34 33/33/33
f 36/36/36 35/35/35 33/33/33
f 39/39/39 38/38/38 37/37/37
f 40/40/40 39/39/39 37/37/37
f 43/43/43 42/42/42 41/41/41
f 44/44/44 43/43/43 41/41/41
f 47/47/47 46/46/46 45/45/45
f 48/48/48 47/47/47 45/45/45
f 51/51/51 50/50/50 49/49/49
f 52/52/52 51/51/51 49/49/49
f 55/55/55 54/54/54 53/53/53
f 56/56/56 55/55/55 53/53/53
f 59/59/59 58/58/58 57/57/57
f 60/60/60 59/59/59 57/57/57
f 63/63/63 62/62/62 61/61/61
f 64/64/64 63/63/63 61/61/61
f 67/67/67 66/66/66 65/65/65
f 68/68/68 67/67/67 65/65/65
f 71/71/71 70/70/70 69/69/69
f 72/72/72 71/71/71 69/69/69
f 75/75/75 74/74/74 73/73/73
f 76/76/76 75/75/75 73/73/73
f 79/79/79 78/78/78 77/77/77
f 80/80/80 79/79/79 77/77/77
f 83/83/83 82/82/82 81/81/81
f 84/84/84 83/83/83 81/81/81
f 87/87/87 86/86/86 85/85/85
f 88/88/88 87/87/87 85/85/85
f 91/91/91 90/90/90 89/89/89
f 92/92/92 91/91/91 89/89/89
f 95/95/95 94/94/94 93/93/93
f 96/96/96 95/95/95 93/93/93
f 99/99/99 98/98/98 97/97/97
f 100/100/100 99/99/99 97/97/97
f 103/103/103 102/102/102 101/101/101
f 104/104/104 103/103/103 101/101/101
f 107/107/107 106/106/106 105/105/105
f 108/108/108 107/107/107 105/105/105
f 111/111/111 110/110/110 109/109/109
f 112/112/112 111/111/111 109/109/109
f 115/115/115 114/114/114 113/113/113
f 116/116/116 115/115/115 113/113/113
f 119/119/119 118/118/118 117/117/117
f 120/120/120 119/119/119 117/117/117
f 123/123/123 122/122/122 121/121/121
f 124/124/124 123/123/123 121/121/121
f 127/127/127 126/126/126 125/125/125
f 128/128/128 127/127/127 125/125/125
f 131/131/131 130/130/130 129/129/129
f 132/132/132 131/131/131 129/129/129
f 135/135/135 134/134/134 133/133/133
f 136/136/136 135/135/135 133/133/133
f 139/139/139 138/138/138 137/137/137
f 140/140/140 139/139/139 137/137/137
f 143/143/143 142/142/142 141/141/141
f 144/144/144 143/143/143 141/141/141
f 147/147/147 146/146/146 145/145/145
f 148/148/148 147/147/147 145/145/145
f 151/151/151 150/150/150 149/149/149
f 152/152/152 151/151/151 149/149/149
f 155/155/155 154/154/154 153/153/153
f 156/156/156 155/155/155 153/153/153
f 159/159/159 158/158/158 157/157/157
f 160/160/160 159/159/159 157/157/157
f 163/163/163 162/162/162 161/161/161
f 164/164/164 163/163/163 161/161/161
f 167/167/167 166/166/166 165/165/165
f 168/168/168 167/167/167 165/165/165
f 171/171/171 170/170/170 169/169/169
f 172/172/172 171/171/171 169/169/169
f 175/175/175 174/174/174 173/173/173
f 176/176/176 175/175/175 173/173/173
f 179/179/179 178/178/178 177/177/177
f 180/180/180 179/179/179 177/177/177
f 183/183/183 182/182/182 181/181/181
f 184/184/184 183/183/183 181/181/181
f 187/187/187 186/186/186 185/185/185
f 188/188/188 187/187/187 185/185/185
f 191/191/191 190/190/190 189/189/189
f 192/192/192 191/191/191 189/189/189
f 195/195/195 194/194/194 193/193/193
f 196/196/196 195/195/195 193/193/193
f 199/199/199 198/198/198 197/197/197
f 200/200/200 199/199/199 197/197/197
f 203/203/203 202/202/202 201/201/201
f 204/204/204 203/203/203 201/201/201
f 207/207/207 206/206/206 205/205/205
f 208/208/208 207/207/207 205/205/205
f 211/211/211 210/210/210 209/209/209
f 212/212/212 211/211/211 209/209/209
f 215/215/215 214/214/214 213/213/213
f 216/216/216 215/215/215 213/213/213
f 219/219/219 218/218/218 217/217/217
f 220/220/220 219/219/219 217/217/217
f 223/223/223 222/222/222 221/221/221
f 224/224/224 223/223/223 221/221/221
f 227/227/227 226/226/226 225/225/225
f 228/228/228 227/227/227 225/225/225
f 231/231/231 230/230/230 229/229/229
f 232/232/232 231/231/231 229/229/229
f 235/235/235 234/234/234 233/233/233
f 236/236/236 235/235/235 233/233/233
f 239/239/239 238/238/238 237/237/237
f 240/240/240 239/239/239 237/237/237
f 243/243/243 242/242/242 241/241/241
f 243/243/243 241/241/241 244/244/244
f 247/247/247 246/246/246 245/245/245
f 246/246/246 248/248/248 245/245/245
f 248/248/248 249/249/249 245/245/245
f 245/245/245 249/249/249 250/250/250
f 248/248/248 251/251/251 249/249/249
f 249/249/249 252/252/252 250/250/250
f 248/248/248 253/253/253 251/251/251
f 251/251/251 253/253/253 254/254/254
f 253/253/253 255/255/255 254/254/254
f 252/252/252 256/256/256 250/250/250
f 252/252/252 257/257/257 256/256/256
f 257/257/257 258/258/258 256/256/256
f 258/258/258 259/259/259 256/256/256
f 257/257/257 260/260/260 258/258/258
f 263/263/263 262/262/262 261/261/261
f 264/264/264 263/263/263 261/261/261
f 267/267/267 266/266/266 265/265/265
f 268/268/268 267/267/267 265/265/265
f 271/271/271 270/270/270 269/269/269
f 272/272/272 271/271/271 269/269/269
f 275/275/275 274/274/274 273/273/273
f 276/276/276 275/275/275 273/273/273
f 279/279/279 278/278/278 277/277/277
f 278/278/278 280/280/280 277/277/277
f 277/277/277 280/280/280 281/281/281
f 280/280/280 282/282/282 281/281/281
f 281/281/281 282/282/282 283/283/283
f 282/282/282 284/284/284 283/283/283
f 287/287/287 286/286/286 285/285/285
f 288/288/288 287/287/287 285/285/285
f 289/289/289 287/287/287 288/288/288
f 290/290/290 289/289/289 288/288/288
f 291/291/291 289/289/289 290/290/290
f 292/292/292 291/291/291 290/290/290
f 293/293/293 291/291/291 292/292/292
f 294/294/294 293/293/293 292/292/292
f 297/297/297 296/296/296 295/295/295
f 295/295/295 296/296/296 298/298/298
f 301/301/301 300/300/300 299/299/299
f 302/302/302 301/301/301 299/299/299
f 303/303/303 302/302/302 299/299/299
f 303/303/303 299/299/299 304/304/304
f 305/305/305 302/302/302 303/303/303
f 306/306/306 303/303/303 304/304/304
f 307/307/307 302/302/302 305/305/305
f 307/307/307 305/305/305 308/308/308
f 309/309/309 307/307/307 308/308/308
f 310/310/310 306/306/306 304/304/304
f 311/311/311 306/306/306 310/310/310
f 312/312/312 311/311/311 310/310/310
f 313/313/313 312/312/312 310/310/310
f 314/314/314 311/311/311 312/312/312
f 317/317/317 316/316/316 315/315/315
f 318/318/318 317/317/317 315/315/315
f 321/321/321 320/320/320 319/319/319
f 322/322/322 321/321/321 319/319/319
f 325/325/325 324/324/324 323/323/323
f 326/326/326 325/325/325 323/323/323
f 329/329/329 328/328/328 327/327/327
f 330/330/330 329/329/329 327/327/327
f 333/333/333 332/332/332 331/331/331
f 333/333/333 331/331/331 334/334/334
f 337/337/337 336/336/336 335/335/335
f 335/335/335 336/336/336 338/338/338
f 341/341/341 340/340/340 339/339/339
f 342/342/342 341/341/341 339/339/339
f 345/345/345 344/344/344 343/343/343
f 346/346/346 345/345/345 343/343/343
f 349/349/349 348/348/348 347/347/347
f 350/350/350 349/349/349 347/347/347
f 353/353/353 352/352/352 351/351/351
f 354/354/354 353/353/353 351/351/351
f 357/357/357 356/356/356 355/355/355
f 358/358/358 357/357/357 355/355/355
