g weapon_vege_01
v -0.001226286 0.0002938626 -0.02029974
v -0.001094702 -0.0003941381 -0.02279974
v -0.00108685 -0.0003993602 -0.02029974
v -0.001234138 0.0002990846 -0.02279974
v -0.001254464 -0.0002878828 -0.02535841
v -0.001388087 0.0004014742 -0.02529974
v -0.001690738 2.276034E-06 -0.02793014
v -0.001815284 0.0006855961 -0.02779974
v -0.002528126 0.0005592085 -0.03046934
v -0.002642878 0.001236015 -0.03029974
v -0.00108685 -0.0003993602 -0.02029974
v -0.001787925 -0.0005335734 -0.02279974
v -0.001780073 -0.0005387955 -0.02029974
v -0.001094702 -0.0003941381 -0.02279974
v -0.001941875 -0.0004311839 -0.02529974
v -0.001254464 -0.0002878828 -0.02535841
v -0.002369072 -0.000147062 -0.02779974
v -0.001690738 2.276034E-06 -0.02793014
v -0.003196665 0.0004033571 -0.03029974
v -0.002528126 0.0005592085 -0.03046934
v -0.001780073 -0.0005387955 -0.02029974
v -0.00192736 0.0001596493 -0.02279974
v -0.001919509 0.0001544272 -0.02029974
v -0.001787925 -0.0005335734 -0.02279974
v -0.002075498 0.000258173 -0.02524108
v -0.001941875 -0.0004311839 -0.02529974
v -0.002493618 0.0005362579 -0.02766935
v -0.002369072 -0.000147062 -0.02779974
v -0.003311418 0.001080164 -0.03013014
v -0.003196665 0.0004033571 -0.03029974
v -0.001919509 0.0001544272 -0.02029974
v -0.001234138 0.0002990846 -0.02279974
v -0.001226286 0.0002938626 -0.02029974
v -0.00192736 0.0001596493 -0.02279974
v -0.001388087 0.0004014742 -0.02529974
v -0.002075498 0.000258173 -0.02524108
v -0.001815284 0.0006855961 -0.02779974
v -0.002493618 0.0005362579 -0.02766935
v -0.002642878 0.001236015 -0.03029974
v -0.003311418 0.001080164 -0.03013014
v 8.97371E-05 0.001244072 -0.0203221
v -0.0003751376 0.0007200959 -0.0228221
v -0.0003744854 0.0007106888 -0.0203221
v 8.908491E-05 0.001253479 -0.0228221
v -0.0003884074 0.0009115067 -0.02538076
v 7.629789E-05 0.001437926 -0.0253221
v -0.0004246442 0.001434206 -0.0279525
v 4.081499E-05 0.00194975 -0.0278221
v -0.0004941974 0.002437477 -0.0304917
v -2.792478E-05 0.002941287 -0.0303221
v -0.0003744854 0.0007106888 -0.0203221
v -0.0009085206 0.001184318 -0.0228221
v -0.0009078684 0.001174911 -0.0203221
v -0.0003751376 0.0007200959 -0.0228221
v -0.0009213077 0.001368765 -0.0253221
v -0.0003884074 0.0009115067 -0.02538076
v -0.0009567906 0.001880589 -0.0278221
v -0.0004246442 0.001434206 -0.0279525
v -0.00102553 0.002872127 -0.0303221
v -0.0004941974 0.002437477 -0.0304917
v -0.0009078684 0.001174911 -0.0203221
v -0.000444298 0.001717701 -0.0228221
v -0.0004436458 0.001708294 -0.0203221
v -0.0009085206 0.001184318 -0.0228221
v -0.0004566023 0.001895185 -0.02526343
v -0.0009213077 0.001368765 -0.0253221
v -0.0004913313 0.002396133 -0.0276917
v -0.0009567906 0.001880589 -0.0278221
v -0.0005592576 0.003375937 -0.0301525
v -0.00102553 0.002872127 -0.0303221
v -0.0004436458 0.001708294 -0.0203221
v 8.908491E-05 0.001253479 -0.0228221
v 8.97371E-05 0.001244072 -0.0203221
v -0.000444298 0.001717701 -0.0228221
v 7.629789E-05 0.001437926 -0.0253221
v -0.0004566023 0.001895185 -0.02526343
v 4.081499E-05 0.00194975 -0.0278221
v -0.0004913313 0.002396133 -0.0276917
v -2.792478E-05 0.002941287 -0.0303221
v -0.0005592576 0.003375937 -0.0301525
v 0.001705128 5.219994E-05 -0.02048955
v 0.001037138 0.0002630287 -0.02298955
v 0.001028814 0.0002585975 -0.02048955
v 0.001713451 5.663109E-05 -0.02298955
v 0.001206504 0.0003531915 -0.02554822
v 0.001876656 0.0001435137 -0.02548955
v 0.001669003 0.0005994056 -0.02811995
v 0.002329533 0.0003846051 -0.02798955
v 0.002556728 0.00107199 -0.03065916
v 0.003206875 0.0008516629 -0.03048955
v 0.001028814 0.0002585975 -0.02048955
v 0.001243535 0.0009393422 -0.02298955
v 0.001235212 0.0009349111 -0.02048955
v 0.001037138 0.0002630287 -0.02298955
v 0.001406739 0.001026225 -0.02548955
v 0.001206504 0.0003531915 -0.02554822
v 0.001859616 0.001267316 -0.02798955
v 0.001669003 0.0005994056 -0.02811995
v 0.002736959 0.001734374 -0.03048955
v 0.002556728 0.00107199 -0.03065916
v 0.001235212 0.0009349111 -0.02048955
v 0.001919849 0.0007329446 -0.02298955
v 0.001911525 0.0007285134 -0.02048955
v 0.001243535 0.0009393422 -0.02298955
v 0.002076891 0.000816547 -0.02543089
v 0.001406739 0.001026225 -0.02548955
v 0.002520145 0.001052516 -0.02785916
v 0.001859616 0.001267316 -0.02798955
v 0.003387105 0.001514046 -0.03031995
v 0.002736959 0.001734374 -0.03048955
v 0.001911525 0.0007285134 -0.02048955
v 0.001713451 5.663109E-05 -0.02298955
v 0.001705128 5.219994E-05 -0.02048955
v 0.001919849 0.0007329446 -0.02298955
v 0.001876656 0.0001435137 -0.02548955
v 0.002076891 0.000816547 -0.02543089
v 0.002329533 0.0003846051 -0.02798955
v 0.002520145 0.001052516 -0.02785916
v 0.003206875 0.0008516629 -0.03048955
v 0.003387105 0.001514046 -0.03031995
v 0.001325631 -0.001113826 -0.02061022
v 0.001257115 -0.0004167143 -0.02311022
v 0.00124977 -0.0004108003 -0.02061022
v 0.001332976 -0.00111974 -0.02311022
v 0.00140656 -0.0005370485 -0.02566888
v 0.001476984 -0.001235696 -0.02561022
v 0.00181466 -0.0008656534 -0.02824062
v 0.001876593 -0.001557464 -0.02811022
v 0.00259797 -0.00149638 -0.03077982
v 0.002650742 -0.002180814 -0.03061022
v 0.00124977 -0.0004108003 -0.02061022
v 0.00196014 -0.0003408531 -0.02311022
v 0.001952796 -0.0003349391 -0.02061022
v 0.001257115 -0.0004167143 -0.02311022
v 0.002104148 -0.0004568093 -0.02561022
v 0.00140656 -0.0005370485 -0.02566888
v 0.002503758 -0.0007785774 -0.02811022
v 0.00181466 -0.0008656534 -0.02824062
v 0.003277907 -0.001401927 -0.03061022
v 0.00259797 -0.00149638 -0.03077982
v 0.001952796 -0.0003349391 -0.02061022
v 0.002036001 -0.001043879 -0.02311022
v 0.002028657 -0.001037965 -0.02061022
v 0.00196014 -0.0003408531 -0.02311022
v 0.002174572 -0.001155457 -0.02555155
v 0.002104148 -0.0004568093 -0.02561022
v 0.002565691 -0.001470388 -0.02797982
v 0.002503758 -0.0007785774 -0.02811022
v 0.003330679 -0.002086361 -0.03044062
v 0.003277907 -0.001401927 -0.03061022
v 0.002028657 -0.001037965 -0.02061022
v 0.001332976 -0.00111974 -0.02311022
v 0.001325631 -0.001113826 -0.02061022
v 0.002036001 -0.001043879 -0.02311022
v 0.001476984 -0.001235696 -0.02561022
v 0.002174572 -0.001155457 -0.02555155
v 0.001876593 -0.001557464 -0.02811022
v 0.002565691 -0.001470388 -0.02797982
v 0.002650742 -0.002180814 -0.03061022
v 0.003330679 -0.002086361 -0.03044062
v -0.0008530539 -0.001283965 -0.02040386
v -0.0002235632 -0.0009767178 -0.02290386
v -0.0002205807 -0.0009677722 -0.02040386
v -0.0008560363 -0.00129291 -0.02290386
v -0.000284248 -0.001158739 -0.02546253
v -0.0009145133 -0.001468309 -0.02540386
v -0.0004499643 -0.001655795 -0.02803426
v -0.001076782 -0.001955024 -0.02790386
v -0.0007680412 -0.002609848 -0.03057346
v -0.001391139 -0.002897919 -0.03040386
v -0.0002205807 -0.0009677722 -0.02040386
v 9.262938E-05 -0.001609191 -0.02290386
v 9.561181E-05 -0.001600245 -0.02040386
v -0.0002235632 -0.0009767178 -0.02290386
v 3.415238E-05 -0.001784589 -0.02540386
v -0.000284248 -0.001158739 -0.02546253
v -0.0001281161 -0.002271305 -0.02790386
v -0.0004499643 -0.001655795 -0.02803426
v -0.0004424731 -0.0032142 -0.03040386
v -0.0007680412 -0.002609848 -0.03057346
v 9.561181E-05 -0.001600245 -0.02040386
v -0.0005398437 -0.001925383 -0.02290386
v -0.0005368613 -0.001916438 -0.02040386
v 9.262938E-05 -0.001609191 -0.02290386
v -0.000596113 -0.00209416 -0.0253452
v 3.415238E-05 -0.001784589 -0.02540386
v -0.0007549336 -0.002570533 -0.02777347
v -0.0001281161 -0.002271305 -0.02790386
v -0.001065571 -0.00350227 -0.03023426
v -0.0004424731 -0.0032142 -0.03040386
v -0.0005368613 -0.001916438 -0.02040386
v -0.0008560363 -0.00129291 -0.02290386
v -0.0008530539 -0.001283965 -0.02040386
v -0.0005398437 -0.001925383 -0.02290386
v -0.0009145133 -0.001468309 -0.02540386
v -0.000596113 -0.00209416 -0.0253452
v -0.001076782 -0.001955024 -0.02790386
v -0.0007549336 -0.002570533 -0.02777347
v -0.001391139 -0.002897919 -0.03040386
v -0.001065571 -0.00350227 -0.03023426
v 0.0005296089 -0.0004447017 -0.02117202
v 3.903858E-05 5.529826E-05 -0.02367202
v 2.960887E-05 5.529826E-05 -0.02117202
v 0.0005390387 -0.0004447017 -0.02367202
v 0.0002309088 5.529826E-05 -0.02623068
v 0.0007239283 -0.0004447017 -0.02617202
v 0.0007548623 5.529826E-05 -0.02880242
v 0.001236981 -0.0004447017 -0.02867202
v 0.001760541 5.529826E-05 -0.03134162
v 0.002230898 -0.0004447017 -0.03117202
v 2.960887E-05 5.529826E-05 -0.02117202
v 0.0005390386 0.0005552983 -0.02367202
v 0.0005296088 0.0005552983 -0.02117202
v 3.903858E-05 5.529826E-05 -0.02367202
v 0.0007239282 0.0005552983 -0.02617202
v 0.0002309088 5.529826E-05 -0.02623068
v 0.00123698 0.0005552983 -0.02867202
v 0.0007548623 5.529826E-05 -0.02880242
v 0.002230898 0.0005552983 -0.03117202
v 0.001760541 5.529826E-05 -0.03134162
v 0.0005296088 0.0005552983 -0.02117202
v 0.001039039 5.529831E-05 -0.02367202
v 0.001029609 5.529831E-05 -0.02117202
v 0.0005390386 0.0005552983 -0.02367202
v 0.001216948 5.529831E-05 -0.02611335
v 0.0007239282 0.0005552983 -0.02617202
v 0.001719099 5.529831E-05 -0.02854162
v 0.00123698 0.0005552983 -0.02867202
v 0.002701254 5.529831E-05 -0.03100242
v 0.002230898 0.0005552983 -0.03117202
v 0.001029609 5.529831E-05 -0.02117202
v 0.0005390387 -0.0004447017 -0.02367202
v 0.0005296089 -0.0004447017 -0.02117202
v 0.001039039 5.529831E-05 -0.02367202
v 0.0007239283 -0.0004447017 -0.02617202
v 0.001216948 5.529831E-05 -0.02611335
v 0.001236981 -0.0004447017 -0.02867202
v 0.001719099 5.529831E-05 -0.02854162
v 0.002230898 -0.0004447017 -0.03117202
v 0.002701254 5.529831E-05 -0.03100242
v 0.001173379 0.0010945 -0.020637
v 0.0005316844 0.000813632 -0.023137
v 0.0005283335 0.0008048178 -0.020637
v 0.00117673 0.001103315 -0.023137
v 0.0005998681 0.0009929787 -0.02569566
v 0.001242433 0.001276136 -0.025637
v 0.0007860619 0.001482733 -0.0282674
v 0.001424753 0.001755701 -0.028137
v 0.001143443 0.00242277 -0.0308066
v 0.001777955 0.002684743 -0.030637
v 0.0005283335 0.0008048178 -0.020637
v 0.0002420019 0.001458678 -0.023137
v 0.0002386509 0.001449864 -0.020637
v 0.0005316844 0.000813632 -0.023137
v 0.0003077049 0.001631499 -0.025637
v 0.0005998681 0.0009929787 -0.02569566
v 0.0004900248 0.002111064 -0.028137
v 0.0007860619 0.001482733 -0.0282674
v 0.0008432266 0.003040107 -0.030637
v 0.001143443 0.00242277 -0.0308066
v 0.0002386509 0.001449864 -0.020637
v 0.0008870476 0.00174836 -0.023137
v 0.0008836967 0.001739546 -0.020637
v 0.0002420019 0.001458678 -0.023137
v 0.00095027 0.001914657 -0.02557833
v 0.0003077049 0.001631499 -0.025637
v 0.001128716 0.002384032 -0.0280066
v 0.0004900248 0.002111064 -0.028137
v 0.001477738 0.003302081 -0.03046739
v 0.0008432266 0.003040107 -0.030637
v 0.0008836967 0.001739546 -0.020637
v 0.00117673 0.001103315 -0.023137
v 0.001173379 0.0010945 -0.020637
v 0.0008870476 0.00174836 -0.023137
v 0.001242433 0.001276136 -0.025637
v 0.00095027 0.001914657 -0.02557833
v 0.001424753 0.001755701 -0.028137
v 0.001128716 0.002384032 -0.0280066
v 0.001777955 0.002684743 -0.030637
v 0.001477738 0.003302081 -0.03046739
v -4.911859E-05 -0.001136096 -0.02117202
v 0.0003746421 -0.0005783451 -0.02367202
v 0.0003732778 -0.0005690146 -0.02117202
v -4.775423E-05 -0.001145427 -0.02367202
v 0.0004024028 -0.0007681964 -0.02623068
v -2.100349E-05 -0.001328371 -0.02617202
v 0.000478211 -0.001286637 -0.02880242
v 5.32275E-05 -0.001836024 -0.02867202
v 0.0006237177 -0.002281734 -0.03134162
v 0.0001970324 -0.002819484 -0.03117202
v 0.0003732778 -0.0005690146 -0.02117202
v 0.0009417236 -0.001000741 -0.02367202
v 0.0009403592 -0.0009914109 -0.02117202
v 0.0003746421 -0.0005783451 -0.02367202
v 0.0009684743 -0.001183686 -0.02617202
v 0.0004024028 -0.0007681964 -0.02623068
v 0.001042705 -0.001691339 -0.02867202
v 0.000478211 -0.001286637 -0.02880242
v 0.00118651 -0.002674799 -0.03117202
v 0.0006237177 -0.002281734 -0.03134162
v 0.0009403592 -0.0009914109 -0.02117202
v 0.0005193271 -0.001567823 -0.02367202
v 0.0005179628 -0.001558492 -0.02117202
v 0.0009417236 -0.001000741 -0.02367202
v 0.0005450679 -0.00174386 -0.02611335
v 0.0009684743 -0.001183686 -0.02617202
v 0.0006177216 -0.002240727 -0.02854162
v 0.001042705 -0.001691339 -0.02867202
v 0.0007598248 -0.003212548 -0.03100242
v 0.00118651 -0.002674799 -0.03117202
v 0.0005179628 -0.001558492 -0.02117202
v -4.775423E-05 -0.001145427 -0.02367202
v -4.911859E-05 -0.001136096 -0.02117202
v 0.0005193271 -0.001567823 -0.02367202
v -2.100349E-05 -0.001328371 -0.02617202
v 0.0005450679 -0.00174386 -0.02611335
v 5.32275E-05 -0.001836024 -0.02867202
v 0.0006177216 -0.002240727 -0.02854162
v 0.0001970324 -0.002819484 -0.03117202
v 0.0007598248 -0.003212548 -0.03100242
v 9.442381E-05 0.0007410228 -0.02117202
v 2.238192E-05 4.426663E-05 -0.02367202
v 2.8398E-05 3.700537E-05 -0.02117202
v 8.840773E-05 0.0007482842 -0.02367202
v -0.0001000297 0.0001920151 -0.02623068
v -2.955029E-05 0.0008906571 -0.02617202
v -0.0004343075 0.0005954819 -0.02880242
v -0.0003568733 0.00128573 -0.02867202
v -0.001075922 0.001369899 -0.03134162
v -0.0009909843 0.002051089 -0.03117202
v 2.8398E-05 3.700537E-05 -0.02117202
v -0.0006816356 0.0001102925 -0.02367202
v -0.0006756195 0.0001030312 -0.02117202
v 2.238192E-05 4.426663E-05 -0.02367202
v -0.0007995936 0.0002526655 -0.02617202
v -0.0001000297 0.0001920151 -0.02623068
v -0.001126916 0.0006477381 -0.02867202
v -0.0004343075 0.0005954819 -0.02880242
v -0.001761028 0.001413098 -0.03117202
v -0.001075922 0.001369899 -0.03134162
v -0.0006756195 0.0001030312 -0.02117202
v -0.0006156096 0.00081431 -0.02367202
v -0.0006095936 0.0008070486 -0.02117202
v -0.0006816356 0.0001102925 -0.02367202
v -0.0007291141 0.0009513076 -0.02611335
v -0.0007995936 0.0002526655 -0.02617202
v -0.001049482 0.001337986 -0.02854162
v -0.001126916 0.0006477381 -0.02867202
v -0.001676089 0.002094288 -0.03100242
v -0.001761028 0.001413098 -0.03117202
v -0.0006095936 0.0008070486 -0.02117202
v 8.840773E-05 0.0007482842 -0.02367202
v 9.442381E-05 0.0007410228 -0.02117202
v -0.0006156096 0.00081431 -0.02367202
v -2.955029E-05 0.0008906571 -0.02617202
v -0.0007291141 0.0009513076 -0.02611335
v -0.0003568733 0.00128573 -0.02867202
v -0.001049482 0.001337986 -0.02854162
v -0.0009909843 0.002051089 -0.03117202
v -0.001676089 0.002094288 -0.03100242
v -0.0005993995 -2.576823E-05 -0.02029974
v -0.0001705162 -0.0005795898 -0.02279974
v -0.0001611509 -0.00058069 -0.02029974
v -0.0006087648 -2.466804E-05 -0.02279974
v -0.000361076 -0.0005572037 -0.02535841
v -0.0007923917 -3.096374E-06 -0.02529974
v -0.0008814511 -0.0004960723 -0.02793014
v -0.00130194 5.676312E-05 -0.02779974
v -0.001880262 -0.0003787365 -0.03046934
v -0.00228907 0.0001727267 -0.03029974
v -0.0001611509 -0.00058069 -0.02029974
v -0.000725438 -0.001017838 -0.02279974
v -0.0007160727 -0.001018938 -0.02029974
v -0.0001705162 -0.0005795898 -0.02279974
v -0.0009090648 -0.0009962667 -0.02529974
v -0.000361076 -0.0005572037 -0.02535841
v -0.001418613 -0.0009364072 -0.02779974
v -0.0008814511 -0.0004960723 -0.02793014
v -0.002405743 -0.0008204436 -0.03029974
v -0.001880262 -0.0003787365 -0.03046934
v -0.0007160727 -0.001018938 -0.02029974
v -0.001163687 -0.0004629166 -0.02279974
v -0.001154321 -0.0004640168 -0.02029974
v -0.000725438 -0.001017838 -0.02279974
v -0.001340381 -0.0004421594 -0.02524108
v -0.0009090648 -0.0009962667 -0.02529974
v -0.001839102 -0.0003835718 -0.02766935
v -0.001418613 -0.0009364072 -0.02779974
v -0.00281455 -0.0002689805 -0.03013014
v -0.002405743 -0.0008204436 -0.03029974
v -0.001154321 -0.0004640168 -0.02029974
v -0.0006087648 -2.466804E-05 -0.02279974
v -0.0005993995 -2.576823E-05 -0.02029974
v -0.001163687 -0.0004629166 -0.02279974
v -0.0007923917 -3.096374E-06 -0.02529974
v -0.001340381 -0.0004421594 -0.02524108
v -0.00130194 5.676312E-05 -0.02779974
v -0.001839102 -0.0003835718 -0.02766935
v -0.00228907 0.0001727267 -0.03029974
v -0.00281455 -0.0002689805 -0.03013014
v 0.0023161 -2.50505E-11 -0.001112671
v 0.002403696 -0.001387773 -0.003088624
v 0.002005802 -0.00115805 -0.001112671
v 0.002775547 -2.50505E-11 -0.003088624
v 0.002005802 0.00115805 -0.001112671
v 0.004288226 -0.002475809 -0.01933377
v 0.002403696 0.001387773 -0.003088624
v 0.00115805 0.002005802 -0.001112671
v 0.004951618 -2.50505E-11 -0.01933377
v 0.004330127 -0.0025 -0.02155434
v 0.001387773 0.002403696 -0.003088624
v 2.46519E-34 0.0023161 -0.001112671
v 0.004288226 0.002475809 -0.01933377
v 0.005 -2.50505E-11 -0.02155434
v 0.004014895 -2.50505E-11 -0.02250588
v 0.003477001 -0.002007448 -0.02250588
v -1.106499E-34 0.002775547 -0.003088624
v -0.00115805 0.002005802 -0.001112671
v 0.002475809 0.004288226 -0.01933377
v 0.004330127 0.0025 -0.02155434
v 0.003477001 0.002007448 -0.02250588
v 0.004014895 -2.50505E-11 -0.02250588
v -0.001387773 0.002403696 -0.003088624
v -0.002005802 0.00115805 -0.001112671
v 0 0.004951618 -0.01933377
v 0.0025 0.004330127 -0.02155434
v 0.002007448 0.003477001 -0.02250588
v 0.003477001 0.002007448 -0.02250588
v -0.002403696 0.001387773 -0.003088624
v -0.0023161 -2.50505E-11 -0.001112671
v -0.002475809 0.004288226 -0.01933377
v 0 0.005 -0.02155434
v 0 0.004014895 -0.02250588
v 0.002007448 0.003477001 -0.02250588
v -0.002775547 -2.50505E-11 -0.003088624
v -0.002005802 -0.00115805 -0.001112671
v -0.004288226 0.002475809 -0.01933377
v -0.0025 0.004330127 -0.02155434
v -0.002007448 0.003477001 -0.02250588
v 0 0.004014895 -0.02250588
v -0.002403696 -0.001387773 -0.003088624
v -0.00115805 -0.002005802 -0.001112671
v -0.004951618 -2.50505E-11 -0.01933377
v -0.004330127 0.0025 -0.02155434
v -0.003477001 0.002007448 -0.02250588
v -0.002007448 0.003477001 -0.02250588
v -0.001387773 -0.002403696 -0.003088624
v -2.46519E-34 -0.0023161 -0.001112671
v -0.004288226 -0.002475809 -0.01933377
v -0.005 -2.50505E-11 -0.02155434
v -0.004014895 -2.50505E-11 -0.02250588
v -0.003477001 0.002007448 -0.02250588
v 1.106499E-34 -0.002775547 -0.003088624
v 0.00115805 -0.002005802 -0.001112671
v -0.002475809 -0.004288226 -0.01933377
v -0.004330127 -0.0025 -0.02155434
v -0.003477001 -0.002007448 -0.02250588
v -0.004014895 -2.50505E-11 -0.02250588
v 0.001387773 -0.002403696 -0.003088624
v 0.002005802 -0.00115805 -0.001112671
v 0.002403696 -0.001387773 -0.003088624
v 0 -0.004951618 -0.01933377
v 0.002475809 -0.004288226 -0.01933377
v 0.004288226 -0.002475809 -0.01933377
v -0.0025 -0.004330127 -0.02155434
v -0.002007448 -0.003477001 -0.02250588
v -0.003477001 -0.002007448 -0.02250588
v 0.0025 -0.004330127 -0.02155434
v 0.004330127 -0.0025 -0.02155434
v 0.003477001 -0.002007448 -0.02250588
v 0.002007448 -0.003477001 -0.02250588
v 0 -0.005 -0.02155434
v 0.002007448 -0.003477001 -0.02250588
v 0 -0.004014895 -0.02250588
v 0 -0.004014895 -0.02250588
v -0.002007448 -0.003477001 -0.02250588
v 0.002375461 -0.001371473 -0.02293069
v 0 -2.50505E-11 -0.02293069
v 0.001371473 -0.002375461 -0.02293069
v 0.002742946 -2.50505E-11 -0.02293069
v 0 -0.002742946 -0.02293069
v 0.002375461 0.001371473 -0.02293069
v -0.001371473 -0.002375461 -0.02293069
v 0.001371473 0.002375461 -0.02293069
v -0.002375461 -0.001371473 -0.02293069
v 0 0.002742946 -0.02293069
v -0.002742946 -2.50505E-11 -0.02293069
v -0.001371473 0.002375461 -0.02293069
v -0.002375461 0.001371473 -0.02293069
v -0.002642878 0.001236015 -0.03029974
v -0.002919772 0.0008196861 -0.03029974
v -0.002528126 0.0005592085 -0.03046934
v -0.003311418 0.001080164 -0.03013014
v -0.003196665 0.0004033571 -0.03029974
v -2.792478E-05 0.002941287 -0.0303221
v -0.0005267275 0.002906707 -0.0303221
v -0.0004941974 0.002437477 -0.0304917
v -0.0005592576 0.003375937 -0.0301525
v -0.00102553 0.002872127 -0.0303221
v 0.003206875 0.0008516629 -0.03048955
v 0.002971917 0.001293018 -0.03048955
v 0.002556728 0.00107199 -0.03065916
v 0.003387105 0.001514046 -0.03031995
v 0.002736959 0.001734374 -0.03048955
v 0.002650742 -0.002180814 -0.03061022
v 0.002964325 -0.001791371 -0.03061022
v 0.00259797 -0.00149638 -0.03077982
v 0.003330679 -0.002086361 -0.03044062
v 0.003277907 -0.001401927 -0.03061022
v -0.001391139 -0.002897919 -0.03040386
v -0.0009168058 -0.00305606 -0.03040386
v -0.0007680412 -0.002609848 -0.03057346
v -0.001065571 -0.00350227 -0.03023426
v -0.0004424731 -0.0032142 -0.03040386
v 0.002230898 -0.0004447017 -0.03117202
v 0.002230898 5.529831E-05 -0.03117202
v 0.001760541 5.529826E-05 -0.03134162
v 0.002701254 5.529831E-05 -0.03100242
v 0.002230898 0.0005552983 -0.03117202
v 0.001777955 0.002684743 -0.030637
v 0.001310591 0.002862425 -0.030637
v 0.001143443 0.00242277 -0.0308066
v 0.001477738 0.003302081 -0.03046739
v 0.0008432266 0.003040107 -0.030637
v 0.0001970324 -0.002819484 -0.03117202
v 0.0006917713 -0.002747141 -0.03117202
v 0.0006237177 -0.002281734 -0.03134162
v 0.0007598248 -0.003212548 -0.03100242
v 0.00118651 -0.002674799 -0.03117202
v -0.0009909843 0.002051089 -0.03117202
v -0.001376006 0.001732094 -0.03117202
v -0.001075922 0.001369899 -0.03134162
v -0.001676089 0.002094288 -0.03100242
v -0.001761028 0.001413098 -0.03117202
v -0.00228907 0.0001727267 -0.03029974
v -0.002347406 -0.0003238585 -0.03029974
v -0.001880262 -0.0003787365 -0.03046934
v -0.00281455 -0.0002689805 -0.03013014
v -0.002405743 -0.0008204436 -0.03029974
v 0.00115805 -0.002005802 -0.001112671
v 0 -2.50505E-11 0
v 0.002005802 -0.00115805 -0.001112671
v -2.46519E-34 -0.0023161 -0.001112671
v 0.0023161 -2.50505E-11 -0.001112671
v -0.00115805 -0.002005802 -0.001112671
v 0.002005802 0.00115805 -0.001112671
v -0.002005802 -0.00115805 -0.001112671
v 0.00115805 0.002005802 -0.001112671
v -0.0023161 -2.50505E-11 -0.001112671
v 2.46519E-34 0.0023161 -0.001112671
v -0.002005802 0.00115805 -0.001112671
v -0.00115805 0.002005802 -0.001112671
v 0.002007448 -0.003477001 -0.02250588
v 0.001371473 -0.002375461 -0.02293069
v 0 -0.002742946 -0.02293069
v 0 -0.004014895 -0.02250588
v 0.003477001 -0.002007448 -0.02250588
v -0.001371473 -0.002375461 -0.02293069
v 0.002375461 -0.001371473 -0.02293069
v -0.002007448 -0.003477001 -0.02250588
v 0.004014895 -2.50505E-11 -0.02250588
v -0.002375461 -0.001371473 -0.02293069
v 0.002742946 -2.50505E-11 -0.02293069
v -0.003477001 -0.002007448 -0.02250588
v 0.003477001 0.002007448 -0.02250588
v -0.002742946 -2.50505E-11 -0.02293069
v 0.002375461 0.001371473 -0.02293069
v -0.004014895 -2.50505E-11 -0.02250588
v 0.002007448 0.003477001 -0.02250588
v -0.002375461 0.001371473 -0.02293069
v 0.001371473 0.002375461 -0.02293069
v -0.003477001 0.002007448 -0.02250588
v 0 0.004014895 -0.02250588
v -0.001371473 0.002375461 -0.02293069
v 0 0.002742946 -0.02293069
v -0.002007448 0.003477001 -0.02250588
vt 0.7983398 0.671875
vt 0.8041992 0.6801758
vt 0.8041992 0.671875
vt 0.7983398 0.6801758
vt 0.8041992 0.6884766
vt 0.7983398 0.6884766
vt 0.8041992 0.6972656
vt 0.7983398 0.6972656
vt 0.8041992 0.7055664
vt 0.7983398 0.7055664
vt 0.8041992 0.671875
vt 0.8095703 0.6801758
vt 0.8095703 0.671875
vt 0.8041992 0.6801758
vt 0.8095703 0.6884766
vt 0.8041992 0.6884766
vt 0.8095703 0.6972656
vt 0.8041992 0.6972656
vt 0.8095703 0.7055664
vt 0.8041992 0.7055664
vt 0.8095703 0.671875
vt 0.8149414 0.6801758
vt 0.8149414 0.671875
vt 0.8095703 0.6801758
vt 0.8149414 0.6884766
vt 0.8095703 0.6884766
vt 0.8149414 0.6972656
vt 0.8095703 0.6972656
vt 0.8149414 0.7055664
vt 0.8095703 0.7055664
vt 0.8149414 0.671875
vt 0.8208008 0.6801758
vt 0.8208008 0.671875
vt 0.8149414 0.6801758
vt 0.8208008 0.6884766
vt 0.8149414 0.6884766
vt 0.8208008 0.6972656
vt 0.8149414 0.6972656
vt 0.8208008 0.7055664
vt 0.8149414 0.7055664
vt 0.7983398 0.671875
vt 0.8041992 0.6801758
vt 0.8041992 0.671875
vt 0.7983398 0.6801758
vt 0.8041992 0.6884766
vt 0.7983398 0.6884766
vt 0.8041992 0.6972656
vt 0.7983398 0.6972656
vt 0.8041992 0.7055664
vt 0.7983398 0.7055664
vt 0.8041992 0.671875
vt 0.8095703 0.6801758
vt 0.8095703 0.671875
vt 0.8041992 0.6801758
vt 0.8095703 0.6884766
vt 0.8041992 0.6884766
vt 0.8095703 0.6972656
vt 0.8041992 0.6972656
vt 0.8095703 0.7055664
vt 0.8041992 0.7055664
vt 0.8095703 0.671875
vt 0.8149414 0.6801758
vt 0.8149414 0.671875
vt 0.8095703 0.6801758
vt 0.8149414 0.6884766
vt 0.8095703 0.6884766
vt 0.8149414 0.6972656
vt 0.8095703 0.6972656
vt 0.8149414 0.7055664
vt 0.8095703 0.7055664
vt 0.8149414 0.671875
vt 0.8208008 0.6801758
vt 0.8208008 0.671875
vt 0.8149414 0.6801758
vt 0.8208008 0.6884766
vt 0.8149414 0.6884766
vt 0.8208008 0.6972656
vt 0.8149414 0.6972656
vt 0.8208008 0.7055664
vt 0.8149414 0.7055664
vt 0.7983398 0.671875
vt 0.8041992 0.6801758
vt 0.8041992 0.671875
vt 0.7983398 0.6801758
vt 0.8041992 0.6884766
vt 0.7983398 0.6884766
vt 0.8041992 0.6972656
vt 0.7983398 0.6972656
vt 0.8041992 0.7055664
vt 0.7983398 0.7055664
vt 0.8041992 0.671875
vt 0.8095703 0.6801758
vt 0.8095703 0.671875
vt 0.8041992 0.6801758
vt 0.8095703 0.6884766
vt 0.8041992 0.6884766
vt 0.8095703 0.6972656
vt 0.8041992 0.6972656
vt 0.8095703 0.7055664
vt 0.8041992 0.7055664
vt 0.8095703 0.671875
vt 0.8149414 0.6801758
vt 0.8149414 0.671875
vt 0.8095703 0.6801758
vt 0.8149414 0.6884766
vt 0.8095703 0.6884766
vt 0.8149414 0.6972656
vt 0.8095703 0.6972656
vt 0.8149414 0.7055664
vt 0.8095703 0.7055664
vt 0.8149414 0.671875
vt 0.8208008 0.6801758
vt 0.8208008 0.671875
vt 0.8149414 0.6801758
vt 0.8208008 0.6884766
vt 0.8149414 0.6884766
vt 0.8208008 0.6972656
vt 0.8149414 0.6972656
vt 0.8208008 0.7055664
vt 0.8149414 0.7055664
vt 0.7983398 0.671875
vt 0.8041992 0.6801758
vt 0.8041992 0.671875
vt 0.7983398 0.6801758
vt 0.8041992 0.6884766
vt 0.7983398 0.6884766
vt 0.8041992 0.6972656
vt 0.7983398 0.6972656
vt 0.8041992 0.7055664
vt 0.7983398 0.7055664
vt 0.8041992 0.671875
vt 0.8095703 0.6801758
vt 0.8095703 0.671875
vt 0.8041992 0.6801758
vt 0.8095703 0.6884766
vt 0.8041992 0.6884766
vt 0.8095703 0.6972656
vt 0.8041992 0.6972656
vt 0.8095703 0.7055664
vt 0.8041992 0.7055664
vt 0.8095703 0.671875
vt 0.8149414 0.6801758
vt 0.8149414 0.671875
vt 0.8095703 0.6801758
vt 0.8149414 0.6884766
vt 0.8095703 0.6884766
vt 0.8149414 0.6972656
vt 0.8095703 0.6972656
vt 0.8149414 0.7055664
vt 0.8095703 0.7055664
vt 0.8149414 0.671875
vt 0.8208008 0.6801758
vt 0.8208008 0.671875
vt 0.8149414 0.6801758
vt 0.8208008 0.6884766
vt 0.8149414 0.6884766
vt 0.8208008 0.6972656
vt 0.8149414 0.6972656
vt 0.8208008 0.7055664
vt 0.8149414 0.7055664
vt 0.7983398 0.671875
vt 0.8041992 0.6801758
vt 0.8041992 0.671875
vt 0.7983398 0.6801758
vt 0.8041992 0.6884766
vt 0.7983398 0.6884766
vt 0.8041992 0.6972656
vt 0.7983398 0.6972656
vt 0.8041992 0.7055664
vt 0.7983398 0.7055664
vt 0.8041992 0.671875
vt 0.8095703 0.6801758
vt 0.8095703 0.671875
vt 0.8041992 0.6801758
vt 0.8095703 0.6884766
vt 0.8041992 0.6884766
vt 0.8095703 0.6972656
vt 0.8041992 0.6972656
vt 0.8095703 0.7055664
vt 0.8041992 0.7055664
vt 0.8095703 0.671875
vt 0.8149414 0.6801758
vt 0.8149414 0.671875
vt 0.8095703 0.6801758
vt 0.8149414 0.6884766
vt 0.8095703 0.6884766
vt 0.8149414 0.6972656
vt 0.8095703 0.6972656
vt 0.8149414 0.7055664
vt 0.8095703 0.7055664
vt 0.8149414 0.671875
vt 0.8208008 0.6801758
vt 0.8208008 0.671875
vt 0.8149414 0.6801758
vt 0.8208008 0.6884766
vt 0.8149414 0.6884766
vt 0.8208008 0.6972656
vt 0.8149414 0.6972656
vt 0.8208008 0.7055664
vt 0.8149414 0.7055664
vt 0.7983398 0.671875
vt 0.8041992 0.6801758
vt 0.8041992 0.671875
vt 0.7983398 0.6801758
vt 0.8041992 0.6884766
vt 0.7983398 0.6884766
vt 0.8041992 0.6972656
vt 0.7983398 0.6972656
vt 0.8041992 0.7055664
vt 0.7983398 0.7055664
vt 0.8041992 0.671875
vt 0.8095703 0.6801758
vt 0.8095703 0.671875
vt 0.8041992 0.6801758
vt 0.8095703 0.6884766
vt 0.8041992 0.6884766
vt 0.8095703 0.6972656
vt 0.8041992 0.6972656
vt 0.8095703 0.7055664
vt 0.8041992 0.7055664
vt 0.8095703 0.671875
vt 0.8149414 0.6801758
vt 0.8149414 0.671875
vt 0.8095703 0.6801758
vt 0.8149414 0.6884766
vt 0.8095703 0.6884766
vt 0.8149414 0.6972656
vt 0.8095703 0.6972656
vt 0.8149414 0.7055664
vt 0.8095703 0.7055664
vt 0.8149414 0.671875
vt 0.8208008 0.6801758
vt 0.8208008 0.671875
vt 0.8149414 0.6801758
vt 0.8208008 0.6884766
vt 0.8149414 0.6884766
vt 0.8208008 0.6972656
vt 0.8149414 0.6972656
vt 0.8208008 0.7055664
vt 0.8149414 0.7055664
vt 0.7983398 0.671875
vt 0.8041992 0.6801758
vt 0.8041992 0.671875
vt 0.7983398 0.6801758
vt 0.8041992 0.6884766
vt 0.7983398 0.6884766
vt 0.8041992 0.6972656
vt 0.7983398 0.6972656
vt 0.8041992 0.7055664
vt 0.7983398 0.7055664
vt 0.8041992 0.671875
vt 0.8095703 0.6801758
vt 0.8095703 0.671875
vt 0.8041992 0.6801758
vt 0.8095703 0.6884766
vt 0.8041992 0.6884766
vt 0.8095703 0.6972656
vt 0.8041992 0.6972656
vt 0.8095703 0.7055664
vt 0.8041992 0.7055664
vt 0.8095703 0.671875
vt 0.8149414 0.6801758
vt 0.8149414 0.671875
vt 0.8095703 0.6801758
vt 0.8149414 0.6884766
vt 0.8095703 0.6884766
vt 0.8149414 0.6972656
vt 0.8095703 0.6972656
vt 0.8149414 0.7055664
vt 0.8095703 0.7055664
vt 0.8149414 0.671875
vt 0.8208008 0.6801758
vt 0.8208008 0.671875
vt 0.8149414 0.6801758
vt 0.8208008 0.6884766
vt 0.8149414 0.6884766
vt 0.8208008 0.6972656
vt 0.8149414 0.6972656
vt 0.8208008 0.7055664
vt 0.8149414 0.7055664
vt 0.7983398 0.671875
vt 0.8041992 0.6801758
vt 0.8041992 0.671875
vt 0.7983398 0.6801758
vt 0.8041992 0.6884766
vt 0.7983398 0.6884766
vt 0.8041992 0.6972656
vt 0.7983398 0.6972656
vt 0.8041992 0.7055664
vt 0.7983398 0.7055664
vt 0.8041992 0.671875
vt 0.8095703 0.6801758
vt 0.8095703 0.671875
vt 0.8041992 0.6801758
vt 0.8095703 0.6884766
vt 0.8041992 0.6884766
vt 0.8095703 0.6972656
vt 0.8041992 0.6972656
vt 0.8095703 0.7055664
vt 0.8041992 0.7055664
vt 0.8095703 0.671875
vt 0.8149414 0.6801758
vt 0.8149414 0.671875
vt 0.8095703 0.6801758
vt 0.8149414 0.6884766
vt 0.8095703 0.6884766
vt 0.8149414 0.6972656
vt 0.8095703 0.6972656
vt 0.8149414 0.7055664
vt 0.8095703 0.7055664
vt 0.8149414 0.671875
vt 0.8208008 0.6801758
vt 0.8208008 0.671875
vt 0.8149414 0.6801758
vt 0.8208008 0.6884766
vt 0.8149414 0.6884766
vt 0.8208008 0.6972656
vt 0.8149414 0.6972656
vt 0.8208008 0.7055664
vt 0.8149414 0.7055664
vt 0.7983398 0.671875
vt 0.8041992 0.6801758
vt 0.8041992 0.671875
vt 0.7983398 0.6801758
vt 0.8041992 0.6884766
vt 0.7983398 0.6884766
vt 0.8041992 0.6972656
vt 0.7983398 0.6972656
vt 0.8041992 0.7055664
vt 0.7983398 0.7055664
vt 0.8041992 0.671875
vt 0.8095703 0.6801758
vt 0.8095703 0.671875
vt 0.8041992 0.6801758
vt 0.8095703 0.6884766
vt 0.8041992 0.6884766
vt 0.8095703 0.6972656
vt 0.8041992 0.6972656
vt 0.8095703 0.7055664
vt 0.8041992 0.7055664
vt 0.8095703 0.671875
vt 0.8149414 0.6801758
vt 0.8149414 0.671875
vt 0.8095703 0.6801758
vt 0.8149414 0.6884766
vt 0.8095703 0.6884766
vt 0.8149414 0.6972656
vt 0.8095703 0.6972656
vt 0.8149414 0.7055664
vt 0.8095703 0.7055664
vt 0.8149414 0.671875
vt 0.8208008 0.6801758
vt 0.8208008 0.671875
vt 0.8149414 0.6801758
vt 0.8208008 0.6884766
vt 0.8149414 0.6884766
vt 0.8208008 0.6972656
vt 0.8149414 0.6972656
vt 0.8208008 0.7055664
vt 0.8149414 0.7055664
vt 0.7983398 0.671875
vt 0.8041992 0.6801758
vt 0.8041992 0.671875
vt 0.7983398 0.6801758
vt 0.8041992 0.6884766
vt 0.7983398 0.6884766
vt 0.8041992 0.6972656
vt 0.7983398 0.6972656
vt 0.8041992 0.7055664
vt 0.7983398 0.7055664
vt 0.8041992 0.671875
vt 0.8095703 0.6801758
vt 0.8095703 0.671875
vt 0.8041992 0.6801758
vt 0.8095703 0.6884766
vt 0.8041992 0.6884766
vt 0.8095703 0.6972656
vt 0.8041992 0.6972656
vt 0.8095703 0.7055664
vt 0.8041992 0.7055664
vt 0.8095703 0.671875
vt 0.8149414 0.6801758
vt 0.8149414 0.671875
vt 0.8095703 0.6801758
vt 0.8149414 0.6884766
vt 0.8095703 0.6884766
vt 0.8149414 0.6972656
vt 0.8095703 0.6972656
vt 0.8149414 0.7055664
vt 0.8095703 0.7055664
vt 0.8149414 0.671875
vt 0.8208008 0.6801758
vt 0.8208008 0.671875
vt 0.8149414 0.6801758
vt 0.8208008 0.6884766
vt 0.8149414 0.6884766
vt 0.8208008 0.6972656
vt 0.8149414 0.6972656
vt 0.8208008 0.7055664
vt 0.8149414 0.7055664
vt 0.7128906 0.5473633
vt 0.7143555 0.5576172
vt 0.7143555 0.5473633
vt 0.7128906 0.5576172
vt 0.7109375 0.5473633
vt 0.7143555 0.5683594
vt 0.7109375 0.5576172
vt 0.7089844 0.5473633
vt 0.7128906 0.5683594
vt 0.7143555 0.5756836
vt 0.7089844 0.5576172
vt 0.7075195 0.5473633
vt 0.7109375 0.5683594
vt 0.7128906 0.5756836
vt 0.7128906 0.5791016
vt 0.7143555 0.5791016
vt 0.7075195 0.5576172
vt 0.7055664 0.5473633
vt 0.7089844 0.5683594
vt 0.7109375 0.5756836
vt 0.7109375 0.5791016
vt 0.7124023 0.5791016
vt 0.7055664 0.5576172
vt 0.7041016 0.5473633
vt 0.7075195 0.5683594
vt 0.7089844 0.5756836
vt 0.7094727 0.5791016
vt 0.7109375 0.5791016
vt 0.7041016 0.5576172
vt 0.7021484 0.5473633
vt 0.7055664 0.5683594
vt 0.7075195 0.5756836
vt 0.7075195 0.5791016
vt 0.7089844 0.5791016
vt 0.7021484 0.5576172
vt 0.7001953 0.5473633
vt 0.7041016 0.5683594
vt 0.7055664 0.5756836
vt 0.7060547 0.5791016
vt 0.7070313 0.5791016
vt 0.7001953 0.5576172
vt 0.6987305 0.5473633
vt 0.7021484 0.5683594
vt 0.7041016 0.5756836
vt 0.7041016 0.5791016
vt 0.7055664 0.5791016
vt 0.6987305 0.5576172
vt 0.6967773 0.5473633
vt 0.7001953 0.5683594
vt 0.7021484 0.5756836
vt 0.7021484 0.5791016
vt 0.7036133 0.5791016
vt 0.6967773 0.5576172
vt 0.6953125 0.5473633
vt 0.6987305 0.5683594
vt 0.7001953 0.5756836
vt 0.7006836 0.5791016
vt 0.7021484 0.5791016
vt 0.6953125 0.5576172
vt 0.6933594 0.5473633
vt 0.6933594 0.5576172
vt 0.6967773 0.5683594
vt 0.6953125 0.5683594
vt 0.6933594 0.5683594
vt 0.6987305 0.5756836
vt 0.6987305 0.5791016
vt 0.7001953 0.5791016
vt 0.6953125 0.5756836
vt 0.6933594 0.5756836
vt 0.6933594 0.5791016
vt 0.6948242 0.5791016
vt 0.6967773 0.5756836
vt 0.6953125 0.5791016
vt 0.6967773 0.5791016
vt 0.6972656 0.5791016
vt 0.6982422 0.5791016
vt 0.6079102 0.5942383
vt 0.6035156 0.5913086
vt 0.605957 0.5961914
vt 0.6088867 0.5917969
vt 0.6035156 0.5966797
vt 0.6079102 0.5888672
vt 0.6010742 0.5961914
vt 0.605957 0.5869141
vt 0.5991211 0.5942383
vt 0.6035156 0.5864258
vt 0.5981445 0.5917969
vt 0.6010742 0.5869141
vt 0.5991211 0.5888672
vt 0.8095703 0.7333984
vt 0.8095703 0.71875
vt 0.7954102 0.7192383
vt 0.8237305 0.7192383
vt 0.8095703 0.7055664
vt 0.8095703 0.7333984
vt 0.8095703 0.71875
vt 0.7954102 0.7192383
vt 0.8237305 0.7192383
vt 0.8095703 0.7055664
vt 0.8095703 0.7333984
vt 0.8095703 0.71875
vt 0.7954102 0.7192383
vt 0.8237305 0.7192383
vt 0.8095703 0.7055664
vt 0.8095703 0.7333984
vt 0.8095703 0.71875
vt 0.7954102 0.7192383
vt 0.8237305 0.7192383
vt 0.8095703 0.7055664
vt 0.8095703 0.7333984
vt 0.8095703 0.71875
vt 0.7954102 0.7192383
vt 0.8237305 0.7192383
vt 0.8095703 0.7055664
vt 0.8095703 0.7333984
vt 0.8095703 0.71875
vt 0.7954102 0.7192383
vt 0.8237305 0.7192383
vt 0.8095703 0.7055664
vt 0.8095703 0.7333984
vt 0.8095703 0.71875
vt 0.7954102 0.7192383
vt 0.8237305 0.7192383
vt 0.8095703 0.7055664
vt 0.8095703 0.7333984
vt 0.8095703 0.71875
vt 0.7954102 0.7192383
vt 0.8237305 0.7192383
vt 0.8095703 0.7055664
vt 0.8095703 0.7333984
vt 0.8095703 0.71875
vt 0.7954102 0.7192383
vt 0.8237305 0.7192383
vt 0.8095703 0.7055664
vt 0.8095703 0.7333984
vt 0.8095703 0.71875
vt 0.7954102 0.7192383
vt 0.8237305 0.7192383
vt 0.8095703 0.7055664
vt 0.7104492 0.5224609
vt 0.7041016 0.5336914
vt 0.715332 0.5273438
vt 0.7041016 0.5209961
vt 0.7172852 0.5341797
vt 0.6972656 0.5224609
vt 0.715332 0.5405273
vt 0.6923828 0.5273438
vt 0.7104492 0.5454102
vt 0.690918 0.5341797
vt 0.7041016 0.5473633
vt 0.6923828 0.5405273
vt 0.6972656 0.5454102
vt 0.7089844 0.6010742
vt 0.706543 0.5961914
vt 0.7041016 0.5966797
vt 0.7041016 0.6025391
vt 0.7128906 0.597168
vt 0.7011719 0.5961914
vt 0.7084961 0.5942383
vt 0.6987305 0.6010742
vt 0.7143555 0.5917969
vt 0.6992188 0.5942383
vt 0.7089844 0.5917969
vt 0.6948242 0.597168
vt 0.7128906 0.5864258
vt 0.6987305 0.5917969
vt 0.7084961 0.5888672
vt 0.6933594 0.5917969
vt 0.7089844 0.5825195
vt 0.6992188 0.5888672
vt 0.706543 0.5869141
vt 0.6948242 0.5864258
vt 0.7041016 0.5810547
vt 0.7011719 0.5869141
vt 0.7041016 0.5864258
vt 0.6987305 0.5825195
vn 0.9804688 0.1971436 -0.002666473
vn 0.9799805 0.1965332 -0.02737427
vn 0.9804688 0.1971436 -0.002666473
vn 0.9799805 0.1964111 -0.02824402
vn 0.9750977 0.1989746 -0.09753418
vn 0.9750977 0.1989746 -0.09832764
vn 0.9555664 0.2128906 -0.2028809
vn 0.9555664 0.2131348 -0.2042236
vn 0.9389648 0.2229004 -0.2612305
vn 0.9389648 0.2229004 -0.2612305
vn 0.1971436 -0.9804688 -0.002666473
vn 0.1977539 -0.9799805 -0.02824402
vn 0.1971436 -0.9804688 -0.002666473
vn 0.1977539 -0.9799805 -0.02737427
vn 0.1934814 -0.9760742 -0.09832764
vn 0.1936035 -0.9760742 -0.09753418
vn 0.1728516 -0.9633789 -0.2042236
vn 0.1732178 -0.9638672 -0.2028809
vn 0.1575928 -0.9521484 -0.2612305
vn 0.1575928 -0.9521484 -0.2612305
vn -0.9804688 -0.1971436 0.002666473
vn -0.9799805 -0.1964111 0.02757263
vn -0.9804688 -0.1971436 0.002666473
vn -0.9799805 -0.1965332 0.02671814
vn -0.9750977 -0.1990967 0.09838867
vn -0.9750977 -0.1989746 0.09753418
vn -0.9550781 -0.2133789 0.2055664
vn -0.9555664 -0.2131348 0.2041016
vn -0.9389648 -0.2230225 0.262207
vn -0.9389648 -0.2230225 0.262207
vn -0.1971436 0.9804688 0.002666473
vn -0.1977539 0.9799805 0.02671814
vn -0.1971436 0.9804688 0.002666473
vn -0.1977539 0.9799805 0.02757263
vn -0.1934814 0.9760742 0.09753418
vn -0.1934814 0.9760742 0.09838867
vn -0.1728516 0.9633789 0.2041016
vn -0.1724854 0.9633789 0.2055664
vn -0.1573486 0.9521484 0.262207
vn -0.1573486 0.9521484 0.262207
vn 0.7543945 -0.6567383 -0.002666473
vn 0.753418 -0.6567383 -0.02737427
vn 0.7543945 -0.6567383 -0.002666473
vn 0.753418 -0.6567383 -0.02824402
vn 0.7524414 -0.6513672 -0.09753418
vn 0.7524414 -0.6513672 -0.09832764
vn 0.7519531 -0.6274414 -0.2028809
vn 0.7519531 -0.6269531 -0.2042236
vn 0.7495117 -0.6083984 -0.2612305
vn 0.7495117 -0.6083984 -0.2612305
vn -0.6567383 -0.7543945 -0.002666473
vn -0.6557617 -0.7543945 -0.02824402
vn -0.6567383 -0.7543945 -0.002666473
vn -0.6557617 -0.7543945 -0.02737427
vn -0.6552734 -0.7490234 -0.09832764
vn -0.6552734 -0.7490234 -0.09753418
vn -0.6582031 -0.7246094 -0.2042236
vn -0.6582031 -0.7250977 -0.2028809
vn -0.6582031 -0.7055664 -0.2612305
vn -0.6582031 -0.7055664 -0.2612305
vn -0.7543945 0.6567383 0.002666473
vn -0.753418 0.6567383 0.02757263
vn -0.7543945 0.6567383 0.002666473
vn -0.753418 0.6567383 0.02671814
vn -0.7524414 0.6513672 0.09838867
vn -0.7524414 0.6513672 0.09753418
vn -0.7514648 0.6264648 0.2055664
vn -0.7519531 0.6269531 0.2041016
vn -0.7495117 0.6079102 0.262207
vn -0.7495117 0.6079102 0.262207
vn 0.6567383 0.7543945 0.002666473
vn 0.6557617 0.7543945 0.02671814
vn 0.6567383 0.7543945 0.002666473
vn 0.6557617 0.7543945 0.02757263
vn 0.6552734 0.7490234 0.09753418
vn 0.6552734 0.7485352 0.09838867
vn 0.6582031 0.7246094 0.2041016
vn 0.6582031 0.7246094 0.2055664
vn 0.6582031 0.7055664 0.262207
vn 0.6582031 0.7055664 0.262207
vn -0.2919922 -0.956543 -0.002666473
vn -0.2924805 -0.9560547 -0.02737427
vn -0.2919922 -0.956543 -0.002666473
vn -0.2924805 -0.9560547 -0.02824402
vn -0.2878418 -0.9526367 -0.09753418
vn -0.2878418 -0.9526367 -0.09832764
vn -0.2663574 -0.9423828 -0.2028809
vn -0.2661133 -0.9418945 -0.2042236
vn -0.2497559 -0.9326172 -0.2612305
vn -0.2497559 -0.9326172 -0.2612305
vn -0.956543 0.2919922 -0.002666473
vn -0.9560547 0.2910156 -0.02824402
vn -0.956543 0.2919922 -0.002666473
vn -0.9560547 0.2912598 -0.02737427
vn -0.9511719 0.2932129 -0.09832764
vn -0.9511719 0.2932129 -0.09753418
vn -0.9301758 0.3054199 -0.2042236
vn -0.9306641 0.3051758 -0.2028809
vn -0.9130859 0.3134766 -0.2612305
vn -0.9130859 0.3134766 -0.2612305
vn 0.2919922 0.956543 0.002666473
vn 0.2924805 0.9560547 0.02757263
vn 0.2919922 0.956543 0.002666473
vn 0.2924805 0.9560547 0.02671814
vn 0.2878418 0.9526367 0.09838867
vn 0.2878418 0.9526367 0.09753418
vn 0.265625 0.9418945 0.2055664
vn 0.2661133 0.9418945 0.2041016
vn 0.2495117 0.9321289 0.262207
vn 0.2495117 0.9321289 0.262207
vn 0.956543 -0.2919922 0.002666473
vn 0.956543 -0.2912598 0.02671814
vn 0.956543 -0.2919922 0.002666473
vn 0.9560547 -0.2910156 0.02757263
vn 0.9511719 -0.2932129 0.09753418
vn 0.9511719 -0.2932129 0.09838867
vn 0.9301758 -0.3051758 0.2041016
vn 0.9296875 -0.3054199 0.2055664
vn 0.9125977 -0.3134766 0.262207
vn 0.9125977 -0.3134766 0.262207
vn -0.9941406 -0.1072998 -0.002666473
vn -0.9941406 -0.1066284 -0.02737427
vn -0.9941406 -0.1072998 -0.002666473
vn -0.9941406 -0.1065674 -0.02824402
vn -0.9892578 -0.1094971 -0.09753418
vn -0.9892578 -0.1095581 -0.09832764
vn -0.9711914 -0.1251221 -0.2028809
vn -0.9707031 -0.1254883 -0.2042236
vn -0.9555664 -0.1365967 -0.2612305
vn -0.9555664 -0.1365967 -0.2612305
vn -0.1072998 0.9941406 -0.002666473
vn -0.1079102 0.9936523 -0.02824402
vn -0.1072998 0.9941406 -0.002666473
vn -0.1079102 0.9936523 -0.02737427
vn -0.1039429 0.9897461 -0.09832764
vn -0.1040649 0.9897461 -0.09753418
vn -0.08459473 0.9750977 -0.2042236
vn -0.0848999 0.9755859 -0.2028809
vn -0.07037354 0.9628906 -0.2612305
vn -0.07037354 0.9628906 -0.2612305
vn 0.9941406 0.1072998 0.002666473
vn 0.9941406 0.1065674 0.02757263
vn 0.9941406 0.1072998 0.002666473
vn 0.9941406 0.1065674 0.02671814
vn 0.9892578 0.1096191 0.09838867
vn 0.9892578 0.1095581 0.09753418
vn 0.9707031 0.1256104 0.2055664
vn 0.9707031 0.1253662 0.2041016
vn 0.9550781 0.1367188 0.262207
vn 0.9550781 0.1367188 0.262207
vn 0.1072998 -0.9941406 0.002666473
vn 0.1079102 -0.9936523 0.02671814
vn 0.1072998 -0.9941406 0.002666473
vn 0.1079102 -0.9936523 0.02757263
vn 0.1040039 -0.9897461 0.09753418
vn 0.1039429 -0.9897461 0.09838867
vn 0.08465576 -0.9750977 0.2041016
vn 0.08428955 -0.9750977 0.2055664
vn 0.07012939 -0.9624023 0.262207
vn 0.07012939 -0.9624023 0.262207
vn -0.4472656 0.8945313 -0.002666473
vn -0.4465332 0.8945313 -0.02737427
vn -0.4472656 0.8945313 -0.002666473
vn -0.4462891 0.8945313 -0.02824402
vn -0.4475098 0.8891602 -0.09753418
vn -0.4475098 0.8886719 -0.09832764
vn -0.4558105 0.8666992 -0.2028809
vn -0.4560547 0.8662109 -0.2042236
vn -0.4611816 0.8481445 -0.2612305
vn -0.4611816 0.8481445 -0.2612305
vn 0.8945313 0.4472656 -0.002666473
vn 0.8935547 0.4475098 -0.02824402
vn 0.8945313 0.4472656 -0.002666473
vn 0.894043 0.4475098 -0.02737427
vn 0.8916016 0.4423828 -0.09832764
vn 0.8916016 0.442627 -0.09753418
vn 0.8847656 0.4191895 -0.2042236
vn 0.8847656 0.4196777 -0.2028809
vn 0.8779297 0.4016113 -0.2612305
vn 0.8779297 0.4016113 -0.2612305
vn 0.4472656 -0.8945313 0.002666473
vn 0.4462891 -0.8945313 0.02757263
vn 0.4472656 -0.8945313 0.002666473
vn 0.4465332 -0.8945313 0.02671814
vn 0.4475098 -0.8886719 0.09838867
vn 0.4475098 -0.8891602 0.09753418
vn 0.4560547 -0.8657227 0.2055664
vn 0.4560547 -0.8662109 0.2041016
vn 0.4611816 -0.8476563 0.262207
vn 0.4611816 -0.8476563 0.262207
vn -0.8945313 -0.4472656 0.002666473
vn -0.894043 -0.4475098 0.02671814
vn -0.8945313 -0.4472656 0.002666473
vn -0.894043 -0.4475098 0.02757263
vn -0.8916016 -0.442627 0.09753418
vn -0.8916016 -0.4423828 0.09838867
vn -0.8847656 -0.4194336 0.2041016
vn -0.8842773 -0.4189453 0.2055664
vn -0.8774414 -0.4013672 0.262207
vn -0.8774414 -0.4013672 0.262207
vn -0.7070313 -0.7070313 -0.002666473
vn -0.7075195 -0.706543 -0.02737427
vn -0.7070313 -0.7070313 -0.002666473
vn -0.7075195 -0.706543 -0.02824402
vn -0.7016602 -0.7055664 -0.09753418
vn -0.7016602 -0.7055664 -0.09832764
vn -0.6777344 -0.706543 -0.2028809
vn -0.6777344 -0.706543 -0.2042236
vn -0.6586914 -0.7055664 -0.2612305
vn -0.6586914 -0.7055664 -0.2612305
vn -0.7070313 0.7070313 -0.002666473
vn -0.7075195 0.706543 -0.02824402
vn -0.7070313 0.7070313 -0.002666473
vn -0.7075195 0.706543 -0.02737427
vn -0.7016602 0.7055664 -0.09832764
vn -0.7016602 0.7055664 -0.09753418
vn -0.6777344 0.706543 -0.2042236
vn -0.6777344 0.706543 -0.2028809
vn -0.6586914 0.7055664 -0.2612305
vn -0.6586914 0.7055664 -0.2612305
vn 0.7070313 0.7070313 0.002666473
vn 0.7075195 0.706543 0.02757263
vn 0.7070313 0.7070313 0.002666473
vn 0.7075195 0.706543 0.02671814
vn 0.7016602 0.7055664 0.09838867
vn 0.7016602 0.7055664 0.09753418
vn 0.6772461 0.706543 0.2055664
vn 0.6777344 0.706543 0.2041016
vn 0.6582031 0.7055664 0.262207
vn 0.6582031 0.7055664 0.262207
vn 0.7070313 -0.7070313 0.002666473
vn 0.7075195 -0.706543 0.02671814
vn 0.7070313 -0.7070313 0.002666473
vn 0.7075195 -0.706543 0.02757263
vn 0.7016602 -0.7055664 0.09753418
vn 0.7016602 -0.7055664 0.09838867
vn 0.6777344 -0.706543 0.2041016
vn 0.6772461 -0.706543 0.2055664
vn 0.6582031 -0.7055664 0.262207
vn 0.6582031 -0.7055664 0.262207
vn 0.409668 -0.9121094 -0.002666473
vn 0.4089355 -0.9121094 -0.02737427
vn 0.409668 -0.9121094 -0.002666473
vn 0.4089355 -0.9121094 -0.02824402
vn 0.4101563 -0.9067383 -0.09753418
vn 0.4101563 -0.9067383 -0.09832764
vn 0.4194336 -0.8847656 -0.2028809
vn 0.4196777 -0.8842773 -0.2042236
vn 0.4255371 -0.8662109 -0.2612305
vn 0.4255371 -0.8662109 -0.2612305
vn -0.9121094 -0.409668 -0.002666473
vn -0.9116211 -0.4101563 -0.02824402
vn -0.9121094 -0.409668 -0.002666473
vn -0.9116211 -0.4101563 -0.02737427
vn -0.9091797 -0.4050293 -0.09832764
vn -0.9091797 -0.4052734 -0.09753418
vn -0.9013672 -0.3823242 -0.2042236
vn -0.9013672 -0.3825684 -0.2028809
vn -0.8935547 -0.3647461 -0.2612305
vn -0.8935547 -0.3647461 -0.2612305
vn -0.409668 0.9121094 0.002666473
vn -0.4089355 0.9121094 0.02757263
vn -0.409668 0.9121094 0.002666473
vn -0.4089355 0.9121094 0.02671814
vn -0.4104004 0.9067383 0.09838867
vn -0.4101563 0.9067383 0.09753418
vn -0.4199219 0.8837891 0.2055664
vn -0.4196777 0.8842773 0.2041016
vn -0.4257813 0.8662109 0.262207
vn -0.4257813 0.8662109 0.262207
vn 0.9121094 0.409668 0.002666473
vn 0.9116211 0.4101563 0.02671814
vn 0.9121094 0.409668 0.002666473
vn 0.9116211 0.4101563 0.02757263
vn 0.9091797 0.4052734 0.09753418
vn 0.9091797 0.4050293 0.09838867
vn 0.9013672 0.3823242 0.2041016
vn 0.9008789 0.3818359 0.2055664
vn 0.8935547 0.364502 0.262207
vn 0.8935547 0.364502 0.262207
vn -0.8017578 0.597168 -0.002666473
vn -0.8012695 0.5976563 -0.02737427
vn -0.8017578 0.597168 -0.002666473
vn -0.8012695 0.5976563 -0.02824402
vn -0.7998047 0.5922852 -0.09753418
vn -0.7998047 0.5922852 -0.09832764
vn -0.7973633 0.5683594 -0.2028809
vn -0.7973633 0.5683594 -0.2042236
vn -0.793457 0.5493164 -0.2612305
vn -0.793457 0.5493164 -0.2612305
vn 0.597168 0.8017578 -0.002666473
vn 0.5966797 0.8022461 -0.02824402
vn 0.597168 0.8017578 -0.002666473
vn 0.5966797 0.8022461 -0.02737427
vn 0.5966797 0.7963867 -0.09832764
vn 0.5966797 0.7963867 -0.09753418
vn 0.6010742 0.7724609 -0.2042236
vn 0.6010742 0.7729492 -0.2028809
vn 0.6030273 0.7539063 -0.2612305
vn 0.6030273 0.7539063 -0.2612305
vn 0.8017578 -0.597168 0.002666473
vn 0.8012695 -0.5976563 0.02757263
vn 0.8017578 -0.597168 0.002666473
vn 0.8012695 -0.5976563 0.02671814
vn 0.7998047 -0.5922852 0.09838867
vn 0.7998047 -0.5922852 0.09753418
vn 0.796875 -0.5678711 0.2055664
vn 0.7973633 -0.5683594 0.2041016
vn 0.793457 -0.5493164 0.262207
vn 0.793457 -0.5493164 0.262207
vn -0.597168 -0.8017578 0.002666473
vn -0.5966797 -0.8022461 0.02671814
vn -0.597168 -0.8017578 0.002666473
vn -0.5966797 -0.8022461 0.02757263
vn -0.5966797 -0.7963867 0.09753418
vn -0.5966797 -0.7963867 0.09838867
vn -0.6010742 -0.7724609 0.2041016
vn -0.6010742 -0.7724609 0.2055664
vn -0.6030273 -0.753418 0.262207
vn -0.6030273 -0.753418 0.262207
vn 0.9956055 -0.09338379 -0.002666473
vn 0.9951172 -0.09399414 -0.02737427
vn 0.9956055 -0.09338379 -0.002666473
vn 0.9951172 -0.09399414 -0.02824402
vn 0.9912109 -0.09020996 -0.09753418
vn 0.9912109 -0.09014893 -0.09832764
vn 0.9765625 -0.07128906 -0.2028809
vn 0.9765625 -0.07092285 -0.2042236
vn 0.9633789 -0.05691528 -0.2612305
vn 0.9633789 -0.05691528 -0.2612305
vn -0.09338379 -0.9956055 -0.002666473
vn -0.09265137 -0.9951172 -0.02824402
vn -0.09338379 -0.9956055 -0.002666473
vn -0.0927124 -0.9951172 -0.02737427
vn -0.09570313 -0.9907227 -0.09832764
vn -0.09564209 -0.9907227 -0.09753418
vn -0.1118164 -0.9726563 -0.2042236
vn -0.1115723 -0.9726563 -0.2028809
vn -0.12323 -0.9575195 -0.2612305
vn -0.12323 -0.9575195 -0.2612305
vn -0.9956055 0.09338379 0.002666473
vn -0.9951172 0.09399414 0.02757263
vn -0.9956055 0.09338379 0.002666473
vn -0.9951172 0.09399414 0.02671814
vn -0.9912109 0.09008789 0.09838867
vn -0.9912109 0.09014893 0.09753418
vn -0.9760742 0.07061768 0.2055664
vn -0.9765625 0.07098389 0.2041016
vn -0.9633789 0.05670166 0.262207
vn -0.9633789 0.05670166 0.262207
vn 0.09338379 0.9956055 0.002666473
vn 0.0927124 0.9951172 0.02671814
vn 0.09338379 0.9956055 0.002666473
vn 0.09265137 0.9951172 0.02757263
vn 0.09570313 0.9907227 0.09753418
vn 0.09576416 0.9907227 0.09838867
vn 0.1118164 0.9726563 0.2041016
vn 0.1120605 0.972168 0.2055664
vn 0.1234131 0.9570313 0.262207
vn 0.1234131 0.9570313 0.262207
vn 0.784668 0.6196289 -0.002666473
vn 0.784668 0.6191406 -0.02737427
vn 0.784668 0.6196289 -0.002666473
vn 0.784668 0.6191406 -0.02824402
vn 0.7792969 0.6191406 -0.09753418
vn 0.7792969 0.6191406 -0.09832764
vn 0.7558594 0.6225586 -0.2028809
vn 0.7553711 0.6225586 -0.2042236
vn 0.7363281 0.6240234 -0.2612305
vn 0.7363281 0.6240234 -0.2612305
vn 0.6196289 -0.784668 -0.002666473
vn 0.6201172 -0.7841797 -0.02824402
vn 0.6196289 -0.784668 -0.002666473
vn 0.6201172 -0.7841797 -0.02737427
vn 0.6147461 -0.7827148 -0.09832764
vn 0.6147461 -0.7827148 -0.09753418
vn 0.590332 -0.7807617 -0.2042236
vn 0.5908203 -0.7807617 -0.2028809
vn 0.5717773 -0.777832 -0.2612305
vn 0.5717773 -0.777832 -0.2612305
vn -0.784668 -0.6196289 0.002666473
vn -0.784668 -0.6191406 0.02757263
vn -0.784668 -0.6196289 0.002666473
vn -0.784668 -0.6191406 0.02671814
vn -0.7792969 -0.6191406 0.09838867
vn -0.7792969 -0.6191406 0.09753418
vn -0.7548828 -0.6225586 0.2055664
vn -0.7553711 -0.6225586 0.2041016
vn -0.7363281 -0.6240234 0.262207
vn -0.7363281 -0.6240234 0.262207
vn -0.6196289 0.784668 0.002666473
vn -0.6201172 0.7841797 0.02671814
vn -0.6196289 0.784668 0.002666473
vn -0.6201172 0.7841797 0.02757263
vn -0.6147461 0.7827148 0.09753418
vn -0.6147461 0.7827148 0.09838867
vn -0.590332 0.7807617 0.2041016
vn -0.5898438 0.7807617 0.2055664
vn -0.5712891 0.777832 0.262207
vn -0.5712891 0.777832 0.262207
vn 0.875 0 0.4841309
vn 0.8574219 -0.4951172 0.1395264
vn 0.7578125 -0.4375 0.4841309
vn 0.9902344 0 0.1395264
vn 0.7578125 0.4375 0.4841309
vn 0.8603516 -0.496582 0.1160278
vn 0.8574219 0.4951172 0.1395264
vn 0.4375 0.7578125 0.4841309
vn 0.9931641 0 0.1160278
vn 0.840332 -0.4853516 -0.2409668
vn 0.4951172 0.8574219 0.1395264
vn 0 0.875 0.4841309
vn 0.8603516 0.496582 0.1160278
vn 0.9707031 0 -0.2409668
vn 0.5732422 0 -0.8193359
vn 0.4963379 -0.2866211 -0.8193359
vn 0 0.9902344 0.1395264
vn -0.4375 0.7578125 0.4841309
vn 0.496582 0.8603516 0.1160278
vn 0.840332 0.4853516 -0.2409668
vn 0.4963379 0.2866211 -0.8193359
vn 0.5732422 0 -0.8193359
vn -0.4951172 0.8574219 0.1395264
vn -0.7578125 0.4375 0.4841309
vn 0 0.9931641 0.1160278
vn 0.4853516 0.840332 -0.2409668
vn 0.2866211 0.4963379 -0.8193359
vn 0.4963379 0.2866211 -0.8193359
vn -0.8574219 0.4951172 0.1395264
vn -0.875 0 0.4841309
vn -0.496582 0.8603516 0.1160278
vn 0 0.9707031 -0.2409668
vn 0 0.5732422 -0.8193359
vn 0.2866211 0.4963379 -0.8193359
vn -0.9902344 0 0.1395264
vn -0.7578125 -0.4375 0.4841309
vn -0.8603516 0.496582 0.1160278
vn -0.4853516 0.840332 -0.2409668
vn -0.2866211 0.4963379 -0.8193359
vn 0 0.5732422 -0.8193359
vn -0.8574219 -0.4951172 0.1395264
vn -0.4375 -0.7578125 0.4841309
vn -0.9931641 0 0.1160278
vn -0.840332 0.4853516 -0.2409668
vn -0.4963379 0.2866211 -0.8193359
vn -0.2866211 0.4963379 -0.8193359
vn -0.4951172 -0.8574219 0.1395264
vn 0 -0.875 0.4841309
vn -0.8603516 -0.496582 0.1160278
vn -0.9707031 0 -0.2409668
vn -0.5732422 0 -0.8193359
vn -0.4963379 0.2866211 -0.8193359
vn 0 -0.9902344 0.1395264
vn 0.4375 -0.7578125 0.4841309
vn -0.496582 -0.8603516 0.1160278
vn -0.840332 -0.4853516 -0.2409668
vn -0.4963379 -0.2866211 -0.8193359
vn -0.5732422 0 -0.8193359
vn 0.4951172 -0.8574219 0.1395264
vn 0.7578125 -0.4375 0.4841309
vn 0.8574219 -0.4951172 0.1395264
vn 0 -0.9931641 0.1160278
vn 0.496582 -0.8603516 0.1160278
vn 0.8603516 -0.496582 0.1160278
vn -0.4853516 -0.840332 -0.2409668
vn -0.2866211 -0.4963379 -0.8193359
vn -0.4963379 -0.2866211 -0.8193359
vn 0.4853516 -0.840332 -0.2409668
vn 0.840332 -0.4853516 -0.2409668
vn 0.4963379 -0.2866211 -0.8193359
vn 0.2866211 -0.4963379 -0.8193359
vn 0 -0.9707031 -0.2409668
vn 0.2866211 -0.4963379 -0.8193359
vn 0 -0.5732422 -0.8193359
vn 0 -0.5732422 -0.8193359
vn -0.2866211 -0.4963379 -0.8193359
vn 0.1738281 -0.1003418 -0.9794922
vn 0 0 -1
vn 0.1003418 -0.1738281 -0.9794922
vn 0.2006836 0 -0.9794922
vn 0 -0.2006836 -0.9794922
vn 0.1738281 0.1003418 -0.9794922
vn -0.1003418 -0.1738281 -0.9794922
vn 0.1003418 0.1738281 -0.9794922
vn -0.1738281 -0.1003418 -0.9794922
vn 0 0.2006836 -0.9794922
vn -0.2006836 0 -0.9794922
vn -0.1003418 0.1738281 -0.9794922
vn -0.1738281 0.1003418 -0.9794922
vn -0.2824707 0.1878662 -0.940918
vn -0.2824707 0.1878662 -0.940918
vn -0.2824707 0.1878662 -0.940918
vn -0.2824707 0.1878662 -0.940918
vn -0.2824707 0.1878662 -0.940918
vn -0.02345276 0.3383789 -0.940918
vn -0.02345276 0.3383789 -0.940918
vn -0.02345276 0.3383789 -0.940918
vn -0.02345276 0.3383789 -0.940918
vn -0.02345276 0.3383789 -0.940918
vn 0.2993164 0.1594238 -0.940918
vn 0.2993164 0.1594238 -0.940918
vn 0.2993164 0.1594238 -0.940918
vn 0.2993164 0.1594238 -0.940918
vn 0.2993164 0.1594238 -0.940918
vn 0.2641602 -0.2127686 -0.940918
vn 0.2641602 -0.2127686 -0.940918
vn 0.2641602 -0.2127686 -0.940918
vn 0.2641602 -0.2127686 -0.940918
vn 0.2641602 -0.2127686 -0.940918
vn -0.1072998 -0.3217773 -0.940918
vn -0.1072998 -0.3217773 -0.940918
vn -0.1072998 -0.3217773 -0.940918
vn -0.1072998 -0.3217773 -0.940918
vn -0.1072998 -0.3217773 -0.940918
vn 0.3391113 0 -0.940918
vn 0.3391113 0 -0.940918
vn 0.3391113 0 -0.940918
vn 0.3391113 0 -0.940918
vn 0.3391113 0 -0.940918
vn 0.1205444 0.3171387 -0.940918
vn 0.1205444 0.3171387 -0.940918
vn 0.1205444 0.3171387 -0.940918
vn 0.1205444 0.3171387 -0.940918
vn 0.1205444 0.3171387 -0.940918
vn 0.04907227 -0.3356934 -0.940918
vn 0.04907227 -0.3356934 -0.940918
vn 0.04907227 -0.3356934 -0.940918
vn 0.04907227 -0.3356934 -0.940918
vn 0.04907227 -0.3356934 -0.940918
vn -0.2164307 0.2612305 -0.940918
vn -0.2164307 0.2612305 -0.940918
vn -0.2164307 0.2612305 -0.940918
vn -0.2164307 0.2612305 -0.940918
vn -0.2164307 0.2612305 -0.940918
vn -0.3369141 0.0395813 -0.940918
vn -0.3369141 0.0395813 -0.940918
vn -0.3369141 0.0395813 -0.940918
vn -0.3369141 0.0395813 -0.940918
vn -0.3369141 0.0395813 -0.940918
vn 0.4375 -0.7578125 0.4841309
vn 0 0 1
vn 0.7578125 -0.4375 0.4841309
vn 0 -0.875 0.4841309
vn 0.875 0 0.4841309
vn -0.4375 -0.7578125 0.4841309
vn 0.7578125 0.4375 0.4841309
vn -0.7578125 -0.4375 0.4841309
vn 0.4375 0.7578125 0.4841309
vn -0.875 0 0.4841309
vn 0 0.875 0.4841309
vn -0.7578125 0.4375 0.4841309
vn -0.4375 0.7578125 0.4841309
vn 0.2866211 -0.4963379 -0.8193359
vn 0.1003418 -0.1738281 -0.9794922
vn 0 -0.2006836 -0.9794922
vn 0 -0.5732422 -0.8193359
vn 0.4963379 -0.2866211 -0.8193359
vn -0.1003418 -0.1738281 -0.9794922
vn 0.1738281 -0.1003418 -0.9794922
vn -0.2866211 -0.4963379 -0.8193359
vn 0.5732422 0 -0.8193359
vn -0.1738281 -0.1003418 -0.9794922
vn 0.2006836 0 -0.9794922
vn -0.4963379 -0.2866211 -0.8193359
vn 0.4963379 0.2866211 -0.8193359
vn -0.2006836 0 -0.9794922
vn 0.1738281 0.1003418 -0.9794922
vn -0.5732422 0 -0.8193359
vn 0.2866211 0.4963379 -0.8193359
vn -0.1738281 0.1003418 -0.9794922
vn 0.1003418 0.1738281 -0.9794922
vn -0.4963379 0.2866211 -0.8193359
vn 0 0.5732422 -0.8193359
vn -0.1003418 0.1738281 -0.9794922
vn 0 0.2006836 -0.9794922
vn -0.2866211 0.4963379 -0.8193359
g weapon_vege_01_0
f 3/3/3 2/2/2 1/1/1
f 2/2/2 4/4/4 1/1/1
f 2/2/2 5/5/5 4/4/4
f 5/5/5 6/6/6 4/4/4
f 5/5/5 7/7/7 6/6/6
f 7/7/7 8/8/8 6/6/6
f 7/7/7 9/9/9 8/8/8
f 9/9/9 10/10/10 8/8/8
f 13/13/13 12/12/12 11/11/11
f 12/12/12 14/14/14 11/11/11
f 12/12/12 15/15/15 14/14/14
f 15/15/15 16/16/16 14/14/14
f 15/15/15 17/17/17 16/16/16
f 17/17/17 18/18/18 16/16/16
f 17/17/17 19/19/19 18/18/18
f 19/19/19 20/20/20 18/18/18
f 23/23/23 22/22/22 21/21/21
f 22/22/22 24/24/24 21/21/21
f 22/22/22 25/25/25 24/24/24
f 25/25/25 26/26/26 24/24/24
f 25/25/25 27/27/27 26/26/26
f 27/27/27 28/28/28 26/26/26
f 27/27/27 29/29/29 28/28/28
f 29/29/29 30/30/30 28/28/28
f 33/33/33 32/32/32 31/31/31
f 32/32/32 34/34/34 31/31/31
f 32/32/32 35/35/35 34/34/34
f 35/35/35 36/36/36 34/34/34
f 35/35/35 37/37/37 36/36/36
f 37/37/37 38/38/38 36/36/36
f 37/37/37 39/39/39 38/38/38
f 39/39/39 40/40/40 38/38/38
f 43/43/43 42/42/42 41/41/41
f 42/42/42 44/44/44 41/41/41
f 42/42/42 45/45/45 44/44/44
f 45/45/45 46/46/46 44/44/44
f 45/45/45 47/47/47 46/46/46
f 47/47/47 48/48/48 46/46/46
f 47/47/47 49/49/49 48/48/48
f 49/49/49 50/50/50 48/48/48
f 53/53/53 52/52/52 51/51/51
f 52/52/52 54/54/54 51/51/51
f 52/52/52 55/55/55 54/54/54
f 55/55/55 56/56/56 54/54/54
f 55/55/55 57/57/57 56/56/56
f 57/57/57 58/58/58 56/56/56
f 57/57/57 59/59/59 58/58/58
f 59/59/59 60/60/60 58/58/58
f 63/63/63 62/62/62 61/61/61
f 62/62/62 64/64/64 61/61/61
f 62/62/62 65/65/65 64/64/64
f 65/65/65 66/66/66 64/64/64
f 65/65/65 67/67/67 66/66/66
f 67/67/67 68/68/68 66/66/66
f 67/67/67 69/69/69 68/68/68
f 69/69/69 70/70/70 68/68/68
f 73/73/73 72/72/72 71/71/71
f 72/72/72 74/74/74 71/71/71
f 72/72/72 75/75/75 74/74/74
f 75/75/75 76/76/76 74/74/74
f 75/75/75 77/77/77 76/76/76
f 77/77/77 78/78/78 76/76/76
f 77/77/77 79/79/79 78/78/78
f 79/79/79 80/80/80 78/78/78
f 83/83/83 82/82/82 81/81/81
f 82/82/82 84/84/84 81/81/81
f 82/82/82 85/85/85 84/84/84
f 85/85/85 86/86/86 84/84/84
f 85/85/85 87/87/87 86/86/86
f 87/87/87 88/88/88 86/86/86
f 87/87/87 89/89/89 88/88/88
f 89/89/89 90/90/90 88/88/88
f 93/93/93 92/92/92 91/91/91
f 92/92/92 94/94/94 91/91/91
f 92/92/92 95/95/95 94/94/94
f 95/95/95 96/96/96 94/94/94
f 95/95/95 97/97/97 96/96/96
f 97/97/97 98/98/98 96/96/96
f 97/97/97 99/99/99 98/98/98
f 99/99/99 100/100/100 98/98/98
f 103/103/103 102/102/102 101/101/101
f 102/102/102 104/104/104 101/101/101
f 102/102/102 105/105/105 104/104/104
f 105/105/105 106/106/106 104/104/104
f 105/105/105 107/107/107 106/106/106
f 107/107/107 108/108/108 106/106/106
f 107/107/107 109/109/109 108/108/108
f 109/109/109 110/110/110 108/108/108
f 113/113/113 112/112/112 111/111/111
f 112/112/112 114/114/114 111/111/111
f 112/112/112 115/115/115 114/114/114
f 115/115/115 116/116/116 114/114/114
f 115/115/115 117/117/117 116/116/116
f 117/117/117 118/118/118 116/116/116
f 117/117/117 119/119/119 118/118/118
f 119/119/119 120/120/120 118/118/118
f 123/123/123 122/122/122 121/121/121
f 122/122/122 124/124/124 121/121/121
f 122/122/122 125/125/125 124/124/124
f 125/125/125 126/126/126 124/124/124
f 125/125/125 127/127/127 126/126/126
f 127/127/127 128/128/128 126/126/126
f 127/127/127 129/129/129 128/128/128
f 129/129/129 130/130/130 128/128/128
f 133/133/133 132/132/132 131/131/131
f 132/132/132 134/134/134 131/131/131
f 132/132/132 135/135/135 134/134/134
f 135/135/135 136/136/136 134/134/134
f 135/135/135 137/137/137 136/136/136
f 137/137/137 138/138/138 136/136/136
f 137/137/137 139/139/139 138/138/138
f 139/139/139 140/140/140 138/138/138
f 143/143/143 142/142/142 141/141/141
f 142/142/142 144/144/144 141/141/141
f 142/142/142 145/145/145 144/144/144
f 145/145/145 146/146/146 144/144/144
f 145/145/145 147/147/147 146/146/146
f 147/147/147 148/148/148 146/146/146
f 147/147/147 149/149/149 148/148/148
f 149/149/149 150/150/150 148/148/148
f 153/153/153 152/152/152 151/151/151
f 152/152/152 154/154/154 151/151/151
f 152/152/152 155/155/155 154/154/154
f 155/155/155 156/156/156 154/154/154
f 155/155/155 157/157/157 156/156/156
f 157/157/157 158/158/158 156/156/156
f 157/157/157 159/159/159 158/158/158
f 159/159/159 160/160/160 158/158/158
f 163/163/163 162/162/162 161/161/161
f 162/162/162 164/164/164 161/161/161
f 162/162/162 165/165/165 164/164/164
f 165/165/165 166/166/166 164/164/164
f 165/165/165 167/167/167 166/166/166
f 167/167/167 168/168/168 166/166/166
f 167/167/167 169/169/169 168/168/168
f 169/169/169 170/170/170 168/168/168
f 173/173/173 172/172/172 171/171/171
f 172/172/172 174/174/174 171/171/171
f 172/172/172 175/175/175 174/174/174
f 175/175/175 176/176/176 174/174/174
f 175/175/175 177/177/177 176/176/176
f 177/177/177 178/178/178 176/176/176
f 177/177/177 179/179/179 178/178/178
f 179/179/179 180/180/180 178/178/178
f 183/183/183 182/182/182 181/181/181
f 182/182/182 184/184/184 181/181/181
f 182/182/182 185/185/185 184/184/184
f 185/185/185 186/186/186 184/184/184
f 185/185/185 187/187/187 186/186/186
f 187/187/187 188/188/188 186/186/186
f 187/187/187 189/189/189 188/188/188
f 189/189/189 190/190/190 188/188/188
f 193/193/193 192/192/192 191/191/191
f 192/192/192 194/194/194 191/191/191
f 192/192/192 195/195/195 194/194/194
f 195/195/195 196/196/196 194/194/194
f 195/195/195 197/197/197 196/196/196
f 197/197/197 198/198/198 196/196/196
f 197/197/197 199/199/199 198/198/198
f 199/199/199 200/200/200 198/198/198
f 203/203/203 202/202/202 201/201/201
f 202/202/202 204/204/204 201/201/201
f 202/202/202 205/205/205 204/204/204
f 205/205/205 206/206/206 204/204/204
f 205/205/205 207/207/207 206/206/206
f 207/207/207 208/208/208 206/206/206
f 207/207/207 209/209/209 208/208/208
f 209/209/209 210/210/210 208/208/208
f 213/213/213 212/212/212 211/211/211
f 212/212/212 214/214/214 211/211/211
f 212/212/212 215/215/215 214/214/214
f 215/215/215 216/216/216 214/214/214
f 215/215/215 217/217/217 216/216/216
f 217/217/217 218/218/218 216/216/216
f 217/217/217 219/219/219 218/218/218
f 219/219/219 220/220/220 218/218/218
f 223/223/223 222/222/222 221/221/221
f 222/222/222 224/224/224 221/221/221
f 222/222/222 225/225/225 224/224/224
f 225/225/225 226/226/226 224/224/224
f 225/225/225 227/227/227 226/226/226
f 227/227/227 228/228/228 226/226/226
f 227/227/227 229/229/229 228/228/228
f 229/229/229 230/230/230 228/228/228
f 233/233/233 232/232/232 231/231/231
f 232/232/232 234/234/234 231/231/231
f 232/232/232 235/235/235 234/234/234
f 235/235/235 236/236/236 234/234/234
f 235/235/235 237/237/237 236/236/236
f 237/237/237 238/238/238 236/236/236
f 237/237/237 239/239/239 238/238/238
f 239/239/239 240/240/240 238/238/238
f 243/243/243 242/242/242 241/241/241
f 242/242/242 244/244/244 241/241/241
f 242/242/242 245/245/245 244/244/244
f 245/245/245 246/246/246 244/244/244
f 245/245/245 247/247/247 246/246/246
f 247/247/247 248/248/248 246/246/246
f 247/247/247 249/249/249 248/248/248
f 249/249/249 250/250/250 248/248/248
f 253/253/253 252/252/252 251/251/251
f 252/252/252 254/254/254 251/251/251
f 252/252/252 255/255/255 254/254/254
f 255/255/255 256/256/256 254/254/254
f 255/255/255 257/257/257 256/256/256
f 257/257/257 258/258/258 256/256/256
f 257/257/257 259/259/259 258/258/258
f 259/259/259 260/260/260 258/258/258
f 263/263/263 262/262/262 261/261/261
f 262/262/262 264/264/264 261/261/261
f 262/262/262 265/265/265 264/264/264
f 265/265/265 266/266/266 264/264/264
f 265/265/265 267/267/267 266/266/266
f 267/267/267 268/268/268 266/266/266
f 267/267/267 269/269/269 268/268/268
f 269/269/269 270/270/270 268/268/268
f 273/273/273 272/272/272 271/271/271
f 272/272/272 274/274/274 271/271/271
f 272/272/272 275/275/275 274/274/274
f 275/275/275 276/276/276 274/274/274
f 275/275/275 277/277/277 276/276/276
f 277/277/277 278/278/278 276/276/276
f 277/277/277 279/279/279 278/278/278
f 279/279/279 280/280/280 278/278/278
f 283/283/283 282/282/282 281/281/281
f 282/282/282 284/284/284 281/281/281
f 282/282/282 285/285/285 284/284/284
f 285/285/285 286/286/286 284/284/284
f 285/285/285 287/287/287 286/286/286
f 287/287/287 288/288/288 286/286/286
f 287/287/287 289/289/289 288/288/288
f 289/289/289 290/290/290 288/288/288
f 293/293/293 292/292/292 291/291/291
f 292/292/292 294/294/294 291/291/291
f 292/292/292 295/295/295 294/294/294
f 295/295/295 296/296/296 294/294/294
f 295/295/295 297/297/297 296/296/296
f 297/297/297 298/298/298 296/296/296
f 297/297/297 299/299/299 298/298/298
f 299/299/299 300/300/300 298/298/298
f 303/303/303 302/302/302 301/301/301
f 302/302/302 304/304/304 301/301/301
f 302/302/302 305/305/305 304/304/304
f 305/305/305 306/306/306 304/304/304
f 305/305/305 307/307/307 306/306/306
f 307/307/307 308/308/308 306/306/306
f 307/307/307 309/309/309 308/308/308
f 309/309/309 310/310/310 308/308/308
f 313/313/313 312/312/312 311/311/311
f 312/312/312 314/314/314 311/311/311
f 312/312/312 315/315/315 314/314/314
f 315/315/315 316/316/316 314/314/314
f 315/315/315 317/317/317 316/316/316
f 317/317/317 318/318/318 316/316/316
f 317/317/317 319/319/319 318/318/318
f 319/319/319 320/320/320 318/318/318
f 323/323/323 322/322/322 321/321/321
f 322/322/322 324/324/324 321/321/321
f 322/322/322 325/325/325 324/324/324
f 325/325/325 326/326/326 324/324/324
f 325/325/325 327/327/327 326/326/326
f 327/327/327 328/328/328 326/326/326
f 327/327/327 329/329/329 328/328/328
f 329/329/329 330/330/330 328/328/328
f 333/333/333 332/332/332 331/331/331
f 332/332/332 334/334/334 331/331/331
f 332/332/332 335/335/335 334/334/334
f 335/335/335 336/336/336 334/334/334
f 335/335/335 337/337/337 336/336/336
f 337/337/337 338/338/338 336/336/336
f 337/337/337 339/339/339 338/338/338
f 339/339/339 340/340/340 338/338/338
f 343/343/343 342/342/342 341/341/341
f 342/342/342 344/344/344 341/341/341
f 342/342/342 345/345/345 344/344/344
f 345/345/345 346/346/346 344/344/344
f 345/345/345 347/347/347 346/346/346
f 347/347/347 348/348/348 346/346/346
f 347/347/347 349/349/349 348/348/348
f 349/349/349 350/350/350 348/348/348
f 353/353/353 352/352/352 351/351/351
f 352/352/352 354/354/354 351/351/351
f 352/352/352 355/355/355 354/354/354
f 355/355/355 356/356/356 354/354/354
f 355/355/355 357/357/357 356/356/356
f 357/357/357 358/358/358 356/356/356
f 357/357/357 359/359/359 358/358/358
f 359/359/359 360/360/360 358/358/358
f 363/363/363 362/362/362 361/361/361
f 362/362/362 364/364/364 361/361/361
f 362/362/362 365/365/365 364/364/364
f 365/365/365 366/366/366 364/364/364
f 365/365/365 367/367/367 366/366/366
f 367/367/367 368/368/368 366/366/366
f 367/367/367 369/369/369 368/368/368
f 369/369/369 370/370/370 368/368/368
f 373/373/373 372/372/372 371/371/371
f 372/372/372 374/374/374 371/371/371
f 372/372/372 375/375/375 374/374/374
f 375/375/375 376/376/376 374/374/374
f 375/375/375 377/377/377 376/376/376
f 377/377/377 378/378/378 376/376/376
f 377/377/377 379/379/379 378/378/378
f 379/379/379 380/380/380 378/378/378
f 383/383/383 382/382/382 381/381/381
f 382/382/382 384/384/384 381/381/381
f 382/382/382 385/385/385 384/384/384
f 385/385/385 386/386/386 384/384/384
f 385/385/385 387/387/387 386/386/386
f 387/387/387 388/388/388 386/386/386
f 387/387/387 389/389/389 388/388/388
f 389/389/389 390/390/390 388/388/388
f 393/393/393 392/392/392 391/391/391
f 392/392/392 394/394/394 391/391/391
f 392/392/392 395/395/395 394/394/394
f 395/395/395 396/396/396 394/394/394
f 395/395/395 397/397/397 396/396/396
f 397/397/397 398/398/398 396/396/396
f 397/397/397 399/399/399 398/398/398
f 399/399/399 400/400/400 398/398/398
f 403/403/403 402/402/402 401/401/401
f 402/402/402 404/404/404 401/401/401
f 401/401/401 404/404/404 405/405/405
f 402/402/402 406/406/406 404/404/404
f 404/404/404 407/407/407 405/405/405
f 405/405/405 407/407/407 408/408/408
f 406/406/406 409/409/409 404/404/404
f 404/404/404 409/409/409 407/407/407
f 406/406/406 410/410/410 409/409/409
f 407/407/407 411/411/411 408/408/408
f 408/408/408 411/411/411 412/412/412
f 409/409/409 413/413/413 407/407/407
f 407/407/407 413/413/413 411/411/411
f 410/410/410 414/414/414 409/409/409
f 409/409/409 414/414/414 413/413/413
f 415/415/415 414/414/414 410/410/410
f 416/416/416 415/415/415 410/410/410
f 411/411/411 417/417/417 412/412/412
f 412/412/412 417/417/417 418/418/418
f 413/413/413 419/419/419 411/411/411
f 411/411/411 419/419/419 417/417/417
f 414/414/414 420/420/420 413/413/413
f 413/413/413 420/420/420 419/419/419
f 420/420/420 414/414/414 421/421/421
f 414/414/414 422/422/422 421/421/421
f 417/417/417 423/423/423 418/418/418
f 418/418/418 423/423/423 424/424/424
f 419/419/419 425/425/425 417/417/417
f 417/417/417 425/425/425 423/423/423
f 420/420/420 426/426/426 419/419/419
f 419/419/419 426/426/426 425/425/425
f 426/426/426 420/420/420 427/427/427
f 420/420/420 428/428/428 427/427/427
f 423/423/423 429/429/429 424/424/424
f 424/424/424 429/429/429 430/430/430
f 425/425/425 431/431/431 423/423/423
f 423/423/423 431/431/431 429/429/429
f 426/426/426 432/432/432 425/425/425
f 425/425/425 432/432/432 431/431/431
f 432/432/432 426/426/426 433/433/433
f 426/426/426 434/434/434 433/433/433
f 429/429/429 435/435/435 430/430/430
f 430/430/430 435/435/435 436/436/436
f 431/431/431 437/437/437 429/429/429
f 429/429/429 437/437/437 435/435/435
f 432/432/432 438/438/438 431/431/431
f 431/431/431 438/438/438 437/437/437
f 438/438/438 432/432/432 439/439/439
f 432/432/432 440/440/440 439/439/439
f 435/435/435 441/441/441 436/436/436
f 436/436/436 441/441/441 442/442/442
f 437/437/437 443/443/443 435/435/435
f 435/435/435 443/443/443 441/441/441
f 438/438/438 444/444/444 437/437/437
f 437/437/437 444/444/444 443/443/443
f 444/444/444 438/438/438 445/445/445
f 438/438/438 446/446/446 445/445/445
f 441/441/441 447/447/447 442/442/442
f 442/442/442 447/447/447 448/448/448
f 443/443/443 449/449/449 441/441/441
f 441/441/441 449/449/449 447/447/447
f 444/444/444 450/450/450 443/443/443
f 443/443/443 450/450/450 449/449/449
f 450/450/450 444/444/444 451/451/451
f 444/444/444 452/452/452 451/451/451
f 447/447/447 453/453/453 448/448/448
f 448/448/448 453/453/453 454/454/454
f 449/449/449 455/455/455 447/447/447
f 447/447/447 455/455/455 453/453/453
f 450/450/450 456/456/456 449/449/449
f 449/449/449 456/456/456 455/455/455
f 456/456/456 450/450/450 457/457/457
f 450/450/450 458/458/458 457/457/457
f 453/453/453 459/459/459 454/454/454
f 454/454/454 459/459/459 460/460/460
f 459/459/459 461/461/461 460/460/460
f 455/455/455 462/462/462 453/453/453
f 453/453/453 462/462/462 459/459/459
f 459/459/459 463/463/463 461/461/461
f 462/462/462 463/463/463 459/459/459
f 463/463/463 464/464/464 461/461/461
f 456/456/456 465/465/465 455/455/455
f 455/455/455 465/465/465 462/462/462
f 465/465/465 456/456/456 466/466/466
f 456/456/456 467/467/467 466/466/466
f 463/463/463 468/468/468 464/464/464
f 468/468/468 469/469/469 464/464/464
f 469/469/469 468/468/468 470/470/470
f 468/468/468 471/471/471 470/470/470
f 462/462/462 472/472/472 463/463/463
f 472/472/472 468/468/468 463/463/463
f 465/465/465 472/472/472 462/462/462
f 468/468/468 472/472/472 473/473/473
f 472/472/472 474/474/474 473/473/473
f 472/472/472 465/465/465 475/475/475
f 465/465/465 476/476/476 475/475/475
f 479/479/479 478/478/478 477/477/477
f 477/477/477 478/478/478 480/480/480
f 481/481/481 478/478/478 479/479/479
f 480/480/480 478/478/478 482/482/482
f 483/483/483 478/478/478 481/481/481
f 482/482/482 478/478/478 484/484/484
f 485/485/485 478/478/478 483/483/483
f 484/484/484 478/478/478 486/486/486
f 487/487/487 478/478/478 485/485/485
f 486/486/486 478/478/478 488/488/488
f 489/489/489 478/478/478 487/487/487
f 488/488/488 478/478/478 489/489/489
f 492/492/492 491/491/491 490/490/490
f 490/490/490 491/491/491 493/493/493
f 494/494/494 491/491/491 492/492/492
f 493/493/493 491/491/491 494/494/494
f 497/497/497 496/496/496 495/495/495
f 495/495/495 496/496/496 498/498/498
f 499/499/499 496/496/496 497/497/497
f 498/498/498 496/496/496 499/499/499
f 502/502/502 501/501/501 500/500/500
f 500/500/500 501/501/501 503/503/503
f 504/504/504 501/501/501 502/502/502
f 503/503/503 501/501/501 504/504/504
f 507/507/507 506/506/506 505/505/505
f 505/505/505 506/506/506 508/508/508
f 509/509/509 506/506/506 507/507/507
f 508/508/508 506/506/506 509/509/509
f 512/512/512 511/511/511 510/510/510
f 510/510/510 511/511/511 513/513/513
f 514/514/514 511/511/511 512/512/512
f 513/513/513 511/511/511 514/514/514
f 517/517/517 516/516/516 515/515/515
f 515/515/515 516/516/516 518/518/518
f 519/519/519 516/516/516 517/517/517
f 518/518/518 516/516/516 519/519/519
f 522/522/522 521/521/521 520/520/520
f 520/520/520 521/521/521 523/523/523
f 524/524/524 521/521/521 522/522/522
f 523/523/523 521/521/521 524/524/524
f 527/527/527 526/526/526 525/525/525
f 525/525/525 526/526/526 528/528/528
f 529/529/529 526/526/526 527/527/527
f 528/528/528 526/526/526 529/529/529
f 532/532/532 531/531/531 530/530/530
f 530/530/530 531/531/531 533/533/533
f 534/534/534 531/531/531 532/532/532
f 533/533/533 531/531/531 534/534/534
f 537/537/537 536/536/536 535/535/535
f 535/535/535 536/536/536 538/538/538
f 539/539/539 536/536/536 537/537/537
f 538/538/538 536/536/536 539/539/539
f 542/542/542 541/541/541 540/540/540
f 540/540/540 541/541/541 543/543/543
f 544/544/544 541/541/541 542/542/542
f 543/543/543 541/541/541 545/545/545
f 546/546/546 541/541/541 544/544/544
f 545/545/545 541/541/541 547/547/547
f 548/548/548 541/541/541 546/546/546
f 547/547/547 541/541/541 549/549/549
f 550/550/550 541/541/541 548/548/548
f 549/549/549 541/541/541 551/551/551
f 552/552/552 541/541/541 550/550/550
f 551/551/551 541/541/541 552/552/552
f 555/555/555 554/554/554 553/553/553
f 556/556/556 555/555/555 553/553/553
f 553/553/553 554/554/554 557/557/557
f 558/558/558 555/555/555 556/556/556
f 554/554/554 559/559/559 557/557/557
f 560/560/560 558/558/558 556/556/556
f 557/557/557 559/559/559 561/561/561
f 562/562/562 558/558/558 560/560/560
f 559/559/559 563/563/563 561/561/561
f 564/564/564 562/562/562 560/560/560
f 561/561/561 563/563/563 565/565/565
f 566/566/566 562/562/562 564/564/564
f 563/563/563 567/567/567 565/565/565
f 568/568/568 566/566/566 564/564/564
f 565/565/565 567/567/567 569/569/569
f 570/570/570 566/566/566 568/568/568
f 567/567/567 571/571/571 569/569/569
f 572/572/572 570/570/570 568/568/568
f 569/569/569 571/571/571 573/573/573
f 574/574/574 570/570/570 572/572/572
f 571/571/571 575/575/575 573/573/573
f 576/576/576 574/574/574 572/572/572
f 573/573/573 575/575/575 576/576/576
f 575/575/575 574/574/574 576/576/576
