g weapon_hammmer_02
v -0.00193414 0.0011999 -0.001494641
v -0.00193414 -0.00119989 -0.001494641
v -0.00179725 -0.001199889 -0.01239703
v -0.00179725 0.001199901 -0.01239703
v 0.00193414 0.0011999 -0.001494641
v -0.00193414 0.0011999 -0.001494641
v -0.00179725 0.001199901 -0.01239703
v 0.00179725 0.001199901 -0.01239703
v 0.00193414 -0.00119989 -0.001494641
v 0.00193414 0.0011999 -0.001494641
v 0.00179725 0.001199901 -0.01239703
v 0.00179725 -0.001199889 -0.01239703
v 6.800007E-06 -0.00279118 -0.003300221
v 0.006012599 -0.00217839 -0.004065561
v 0.0060126 -0.002178389 -0.009565582
v 6.800007E-06 -0.002791179 -0.01033092
v 6.800007E-06 0.00283815 -0.003300221
v -0.005999011 0.00222536 -0.004065561
v -0.00599901 0.002225361 -0.009565579
v 6.800007E-06 0.002838151 -0.01033092
v 6.800007E-06 -0.00279118 -0.003300221
v 6.800007E-06 0.00283815 -0.003300221
v 0.006012599 0.00222536 -0.004065561
v 0.006012599 -0.00217839 -0.004065561
v 6.800007E-06 -0.002791179 -0.01033092
v 6.800007E-06 0.002838151 -0.01033092
v -0.00599901 0.002225361 -0.009565579
v -0.00599901 -0.002178389 -0.009565579
v 3.376044E-10 3.003515E-10 -0.01716164
v -0.001866551 0.001246176 -0.01439703
v -0.001866557 -0.001246155 -0.01439703
v -0.0008986263 -0.0005999415 -0.01339703
v -0.0008986256 0.0005999554 -0.01339703
v -0.0008986249 -0.0005999416 -0.01239703
v -0.0008986249 0.0005999534 -0.01239703
v 3.376044E-10 3.003515E-10 -0.01716164
v 0.001866557 0.001246168 -0.01439703
v -0.001866551 0.001246176 -0.01439703
v -0.0008986256 0.0005999554 -0.01339703
v 0.0008986265 0.0005999535 -0.01339703
v -0.0008986249 0.0005999534 -0.01239703
v 0.0008986252 0.0005999534 -0.01239703
v 3.376044E-10 3.003515E-10 -0.01716164
v 0.001866551 -0.001246164 -0.01439703
v 0.001866557 0.001246168 -0.01439703
v 0.0008986265 0.0005999535 -0.01339703
v 0.0008986258 -0.0005999435 -0.01339703
v 0.0008986252 0.0005999534 -0.01239703
v 0.0008986252 -0.0005999416 -0.01239703
v 3.376044E-10 3.003515E-10 -0.01716164
v -0.001866557 -0.001246155 -0.01439703
v 0.001866551 -0.001246164 -0.01439703
v 0.0008986258 -0.0005999435 -0.01339703
v -0.0008986263 -0.0005999415 -0.01339703
v 0.0008986252 -0.0005999416 -0.01239703
v -0.0008986249 -0.0005999416 -0.01239703
v 0.00193414 -0.00119989 -0.001494641
v -0.00193414 -0.00119989 -0.001494641
v -0.0008229699 -0.00083345 -1.348089E-09
v 0.0008229699 -0.00083345 -1.348089E-09
v 0.00179725 -0.001199889 -0.01239703
v -0.00179725 -0.001199889 -0.01239703
v -0.00193414 -0.00119989 -0.001494641
v 0.00193414 -0.00119989 -0.001494641
v 0.0008229699 -0.00083345 -1.348089E-09
v 0.0008229699 0.00083345 -1.348089E-09
v 0.00193414 0.0011999 -0.001494641
v 0.00193414 -0.00119989 -0.001494641
v 0.0008229699 0.00083345 -1.348089E-09
v -0.0008229699 0.00083345 -1.348089E-09
v -0.00193414 0.0011999 -0.001494641
v 0.00193414 0.0011999 -0.001494641
v -0.0008229699 0.00083345 -1.348089E-09
v -0.0008229699 -0.00083345 -1.348089E-09
v -0.00193414 -0.00119989 -0.001494641
v -0.00193414 0.0011999 -0.001494641
v -0.005999011 -0.00217839 -0.004065561
v 6.800007E-06 -0.00279118 -0.003300221
v 6.800007E-06 -0.002791179 -0.01033092
v -0.00599901 -0.002178389 -0.009565579
v 0.006012599 0.00222536 -0.004065561
v 6.800007E-06 0.00283815 -0.003300221
v 6.800007E-06 0.002838151 -0.01033092
v 0.0060126 0.002225361 -0.009565582
v -0.005999011 -0.00217839 -0.004065561
v -0.005999011 0.00222536 -0.004065561
v 6.800007E-06 0.00283815 -0.003300221
v 6.800007E-06 -0.00279118 -0.003300221
v 0.0060126 -0.002178389 -0.009565582
v 0.0060126 0.002225361 -0.009565582
v 6.800007E-06 0.002838151 -0.01033092
v 6.800007E-06 -0.002791179 -0.01033092
v 0.006012599 0.00222536 -0.004065561
v 0.0060126 0.002225361 -0.009565582
v 0.0060126 -0.002178389 -0.009565582
v 0.006012599 -0.00217839 -0.004065561
v -0.00599901 -0.002178389 -0.009565579
v -0.00599901 0.002225361 -0.009565579
v -0.005999011 0.00222536 -0.004065561
v -0.005999011 -0.00217839 -0.004065561
v -0.0008229699 0.00083345 -1.348089E-09
v 0.0008229699 0.00083345 -1.348089E-09
v 0.0008229699 -0.00083345 -1.348089E-09
v -0.0008229699 -0.00083345 -1.348089E-09
v -0.0008986249 0.0005999534 -0.01239703
v -0.00179725 -0.001199889 -0.01239703
v -0.0008986249 -0.0005999416 -0.01239703
v -0.00179725 0.001199901 -0.01239703
v 0.00179725 -0.001199889 -0.01239703
v 0.0008986252 0.0005999534 -0.01239703
v 0.0008986252 -0.0005999416 -0.01239703
v 0.00179725 0.001199901 -0.01239703
vt 0.524538 0.898315
vt 0.524538 0.970793
vt 0.597016 0.970793
vt 0.597016 0.898315
vt 0.524538 0.898315
vt 0.524538 0.970793
vt 0.597016 0.970793
vt 0.597016 0.898315
vt 0.524538 0.898315
vt 0.524538 0.970793
vt 0.597016 0.970793
vt 0.597016 0.898315
vt 0.908474 0.92063
vt 0.908474 0.97279
vt 0.960635 0.97279
vt 0.960635 0.92063
vt 0.908474 0.92063
vt 0.908474 0.97279
vt 0.960635 0.97279
vt 0.960635 0.92063
vt 0.908474 0.92063
vt 0.908474 0.97279
vt 0.960635 0.97279
vt 0.960635 0.92063
vt 0.908474 0.92063
vt 0.908474 0.97279
vt 0.960635 0.97279
vt 0.960635 0.92063
vt 0.560777 0.934554
vt 0.5788965 0.9164345
vt 0.5426575 0.9164345
vt 0.5426575 0.9164345
vt 0.5788965 0.9164345
vt 0.5426575 0.9164345
vt 0.5788965 0.9164345
vt 0.560777 0.934554
vt 0.5788965 0.9526735
vt 0.5788965 0.9164345
vt 0.5788965 0.9164345
vt 0.5788965 0.9526735
vt 0.5788965 0.9164345
vt 0.5788965 0.9526735
vt 0.560777 0.934554
vt 0.5426575 0.9526735
vt 0.5788965 0.9526735
vt 0.5788965 0.9526735
vt 0.5426575 0.9526735
vt 0.5788965 0.9526735
vt 0.5426575 0.9526735
vt 0.560777 0.934554
vt 0.5426575 0.9164345
vt 0.5426575 0.9526735
vt 0.5426575 0.9526735
vt 0.5426575 0.9164345
vt 0.5426575 0.9526735
vt 0.5426575 0.9164345
vt 0.524538 0.898315
vt 0.524538 0.970793
vt 0.597016 0.970793
vt 0.597016 0.898315
vt 0.524538 0.898315
vt 0.524538 0.970793
vt 0.597016 0.970793
vt 0.597016 0.898315
vt 0.524538 0.898315
vt 0.524538 0.970793
vt 0.597016 0.970793
vt 0.597016 0.898315
vt 0.524538 0.898315
vt 0.524538 0.970793
vt 0.597016 0.970793
vt 0.597016 0.898315
vt 0.524538 0.898315
vt 0.524538 0.970793
vt 0.597016 0.970793
vt 0.597016 0.898315
vt 0.908474 0.92063
vt 0.908474 0.97279
vt 0.960635 0.97279
vt 0.960635 0.92063
vt 0.908474 0.92063
vt 0.908474 0.97279
vt 0.960635 0.97279
vt 0.960635 0.92063
vt 0.908474 0.92063
vt 0.908474 0.97279
vt 0.960635 0.97279
vt 0.960635 0.92063
vt 0.908474 0.92063
vt 0.908474 0.97279
vt 0.960635 0.97279
vt 0.960635 0.92063
vt 0.908474 0.92063
vt 0.908474 0.97279
vt 0.960635 0.97279
vt 0.960635 0.92063
vt 0.908474 0.92063
vt 0.908474 0.97279
vt 0.960635 0.97279
vt 0.960635 0.92063
vt 0.524538 0.898315
vt 0.524538 0.898315
vt 0.524538 0.898315
vt 0.597016 0.970793
vt 0.5788965 0.9164345
vt 0.524538 0.898315
vt 0.5426575 0.9164345
vt 0.597016 0.898315
vt 0.524538 0.970793
vt 0.5788965 0.9526735
vt 0.5426575 0.9526735
vt 0.597016 0.970793
vn -0.9999212 0 -0.012555
vn -0.9999212 0 -0.012555
vn -0.9999212 0 -0.012555
vn -0.9999212 0 -0.012555
vn 0 1 0
vn 0 1 0
vn 0 1 0
vn 0 1 0
vn 0.9999212 0 -0.012556
vn 0.9999212 0 -0.012556
vn 0.9999212 0 -0.012556
vn 0.9999212 0 -0.012556
vn 0.101506 -0.9948349 0
vn 0.101506 -0.9948349 0
vn 0.101506 -0.9948349 0
vn 0.101506 -0.9948349 0
vn -0.101506 0.9948349 0
vn -0.101506 0.9948349 0
vn -0.101506 0.9948349 0
vn -0.101506 0.9948349 0
vn 0.12641 0 0.991978
vn 0.12641 0 0.991978
vn 0.12641 0 0.991978
vn 0.12641 0 0.991978
vn -0.12641 0 -0.991978
vn -0.12641 0 -0.991978
vn -0.12641 0 -0.991978
vn -0.12641 0 -0.991978
vn -0.8287869 1.971588E-06 -0.5595643
vn -0.992134 2.156896E-06 -0.1251808
vn -0.9921339 2.156895E-06 -0.1251812
vn -0.8417342 1.073015E-06 0.5398923
vn -0.8417338 1.073016E-06 0.5398927
vn -1 3.104681E-07 1.117589E-06
vn -1 3.104682E-07 1.117589E-06
vn 2.106055E-06 0.9116625 -0.4109399
vn 2.24935E-06 0.9948861 -0.101003
vn 2.24935E-06 0.9948862 -0.1010025
vn 1.51193E-06 0.9137167 0.406352
vn 1.51193E-06 0.9137166 0.4063521
vn 5.492836E-07 1 1.105508E-06
vn 5.492836E-07 1 1.105508E-06
vn 0.8287871 -1.971589E-06 -0.5595642
vn 0.9921339 -2.190341E-06 -0.1251816
vn 0.992134 -2.190342E-06 -0.1251803
vn 0.8417343 -1.129292E-06 0.539892
vn 0.841734 -1.129293E-06 0.5398924
vn 1 -3.104678E-07 9.685759E-07
vn 1 -3.104678E-07 9.685759E-07
vn -2.106059E-06 -0.9116639 -0.4109366
vn -2.24935E-06 -0.9948865 -0.1010001
vn -2.249351E-06 -0.9948865 -0.1009996
vn -1.51193E-06 -0.9137168 0.4063518
vn -1.511931E-06 -0.9137167 0.406352
vn -5.492837E-07 -1 9.35523E-07
vn -5.492837E-07 -1 9.35523E-07
vn 0 -0.971236 0.2381189
vn 0 -0.971236 0.2381189
vn 0 -0.971236 0.2381189
vn 0 -0.971236 0.2381189
vn 0 -1 0
vn 0 -1 0
vn 0 -1 0
vn 0 -1 0
vn 0.8025197 0 0.5966257
vn 0.8025197 0 0.5966257
vn 0.8025197 0 0.5966257
vn 0.8025197 0 0.5966257
vn 0 0.971236 0.2381191
vn 0 0.971236 0.2381191
vn 0 0.971236 0.2381191
vn 0 0.971236 0.2381191
vn -0.8025201 0 0.5966251
vn -0.8025201 0 0.5966251
vn -0.8025201 0 0.5966251
vn -0.8025201 0 0.5966251
vn -0.101506 -0.9948349 0
vn -0.101506 -0.9948349 0
vn -0.101506 -0.9948349 0
vn -0.101506 -0.9948349 0
vn 0.101506 0.9948349 0
vn 0.101506 0.9948349 0
vn 0.101506 0.9948349 0
vn 0.101506 0.9948349 0
vn -0.12641 0 0.991978
vn -0.12641 0 0.991978
vn -0.12641 0 0.991978
vn -0.12641 0 0.991978
vn 0.12641 0 -0.991978
vn 0.12641 0 -0.991978
vn 0.12641 0 -0.991978
vn 0.12641 0 -0.991978
vn 1 0 0
vn 1 0 0
vn 1 0 0
vn 1 0 0
vn -1 0 0
vn -1 0 0
vn -1 0 0
vn -1 0 0
vn 0 0 1
vn 0 0 1
vn 0 0 1
vn 0 0 1
vn -4.22194E-07 0 -1
vn -5.760438E-07 0 -1
vn -4.221939E-07 0 -1
vn -5.760437E-07 0 -1
vn 2.880219E-07 0 -1
vn 2.11097E-07 0 -1
vn 2.11097E-07 0 -1
vn 2.880219E-07 0 -1
g weapon_hammmer_02_0
f 3/3/3 2/2/2 1/1/1
f 4/4/4 3/3/3 1/1/1
f 7/7/7 6/6/6 5/5/5
f 8/8/8 7/7/7 5/5/5
f 11/11/11 10/10/10 9/9/9
f 12/12/12 11/11/11 9/9/9
f 15/15/15 14/14/14 13/13/13
f 16/16/16 15/15/15 13/13/13
f 19/19/19 18/18/18 17/17/17
f 20/20/20 19/19/19 17/17/17
f 23/23/23 22/22/22 21/21/21
f 24/24/24 23/23/23 21/21/21
f 27/27/27 26/26/26 25/25/25
f 28/28/28 27/27/27 25/25/25
f 31/31/31 30/30/30 29/29/29
f 30/30/30 31/31/31 32/32/32
f 33/33/33 30/30/30 32/32/32
f 33/33/33 32/32/32 34/34/34
f 35/35/35 33/33/33 34/34/34
f 38/38/38 37/37/37 36/36/36
f 37/37/37 38/38/38 39/39/39
f 40/40/40 37/37/37 39/39/39
f 40/40/40 39/39/39 41/41/41
f 42/42/42 40/40/40 41/41/41
f 45/45/45 44/44/44 43/43/43
f 44/44/44 45/45/45 46/46/46
f 47/47/47 44/44/44 46/46/46
f 47/47/47 46/46/46 48/48/48
f 49/49/49 47/47/47 48/48/48
f 52/52/52 51/51/51 50/50/50
f 51/51/51 52/52/52 53/53/53
f 54/54/54 51/51/51 53/53/53
f 54/54/54 53/53/53 55/55/55
f 56/56/56 54/54/54 55/55/55
f 59/59/59 58/58/58 57/57/57
f 60/60/60 59/59/59 57/57/57
f 63/63/63 62/62/62 61/61/61
f 64/64/64 63/63/63 61/61/61
f 67/67/67 66/66/66 65/65/65
f 68/68/68 67/67/67 65/65/65
f 71/71/71 70/70/70 69/69/69
f 72/72/72 71/71/71 69/69/69
f 75/75/75 74/74/74 73/73/73
f 76/76/76 75/75/75 73/73/73
f 79/79/79 78/78/78 77/77/77
f 80/80/80 79/79/79 77/77/77
f 83/83/83 82/82/82 81/81/81
f 84/84/84 83/83/83 81/81/81
f 87/87/87 86/86/86 85/85/85
f 88/88/88 87/87/87 85/85/85
f 91/91/91 90/90/90 89/89/89
f 92/92/92 91/91/91 89/89/89
f 95/95/95 94/94/94 93/93/93
f 96/96/96 95/95/95 93/93/93
f 99/99/99 98/98/98 97/97/97
f 100/100/100 99/99/99 97/97/97
f 103/103/103 102/102/102 101/101/101
f 104/104/104 103/103/103 101/101/101
f 107/107/107 106/106/106 105/105/105
f 106/106/106 108/108/108 105/105/105
f 109/109/109 106/106/106 107/107/107
f 105/105/105 108/108/108 110/110/110
f 111/111/111 109/109/109 107/107/107
f 108/108/108 112/112/112 110/110/110
f 112/112/112 109/109/109 111/111/111
f 110/110/110 112/112/112 111/111/111
