g weapon_javelin_02
v -0.0007839094 -0.0001424731 -0.0004657531
v -0.0005125782 0.0005125781 -0.0004657531
v -0.0005438895 0.0005438894 -0.001544936
v -0.0009262538 0.000451211 -0.01003244
v -0.000506371 0.0003405096 -0.01883899
v -0.0007535215 0.0003405096 -0.009712564
v -0.001138157 -6.743726E-11 -0.0004657531
v -0.0008462418 0.0008462418 -0.001544936
v -0.0007975243 0.0007975243 -0.0004657531
v -0.0009262538 6.331634E-06 -0.01003244
v -0.0007535215 0.000117033 -0.009712564
v -0.000506371 0.000117033 -0.01883899
v 0.0007839094 0.0001424731 -0.0004657531
v 0.0005125782 -0.0005125781 -0.0004657531
v 0.0005438895 -0.0005438894 -0.001544936
v 0.0009262538 -0.000451211 -0.01003244
v 0.000506371 -0.0003405096 -0.01883899
v 0.0007535215 -0.0003405096 -0.009712564
v 0.001138157 6.743726E-11 -0.0004657531
v 0.0008462418 -0.0008462418 -0.001544936
v 0.0007975243 -0.0007975243 -0.0004657531
v 0.0009262538 -6.331634E-06 -0.01003244
v 0.0007535215 -0.000117033 -0.009712564
v 0.000506371 -0.000117033 -0.01883899
v 4.842283E-06 -0.0008075922 -0.002530072
v 0.0006064548 -0.0006064548 -0.00370133
v 0.0005595023 -0.0005595023 -0.002083049
v 5.180915E-06 -0.000864066 -0.004071455
v -0.0007247918 -0.0005504619 -0.004475949
v -0.0006517479 -0.0005286032 -0.002912001
v 4.160778E-11 0.000724895 -0.0004657531
v -0.0005438895 0.0005438894 -0.001544936
v -0.0005125782 0.0005125781 -0.0004657531
v -1.51397E-11 0.0007912961 -0.002084035
v 0.0005282196 0.0005282193 -0.001004851
v 0.0005751723 0.0005751721 -0.002623134
v 0.0007691354 3.417558E-19 -0.00154395
v 0.0005751723 0.0005751721 -0.002623134
v 0.0005282196 0.0005282193 -0.001004851
v 0.0008355365 -4.795842E-11 -0.003162231
v 0.0005595023 -0.0005595023 -0.002083049
v 0.0006064548 -0.0006064548 -0.00370133
v -0.003071599 0.000451211 -0.004854388
v -0.003917126 0.000451211 -0.006409788
v -0.001888827 0.000451211 -0.008153779
v -0.001268164 0.000451211 -0.006810161
v -0.001432674 0.0003029254 -0.006020072
v -0.00190076 0.0002967934 -0.003747467
v -0.0009847544 0.000451211 -0.008040777
v -0.0009262538 0.000451211 -0.01003244
v -0.002860429 0.000451211 -0.01003
v -0.002120193 0.000451211 -0.01124651
v -0.000506371 0.0003405096 -0.01883899
v -0.0008238087 0.0003433019 -0.01954917
v -0.0005258598 0.0003405096 -0.007744819
v -0.0009262538 0.000451211 -0.01003244
v -0.0007535215 0.0003405096 -0.009712564
v -0.0009847544 0.000451211 -0.008040777
v -0.001268164 0.000451211 -0.006810161
v -0.001199016 -4.687388E-05 -0.004933495
v -0.001078066 -5.363884E-05 -0.003163119
v -0.00190076 0.0002967934 -0.003747467
v -0.001432674 0.0003029254 -0.006020072
v -0.0007247918 -0.0005504619 -0.004475949
v -0.0006517479 -0.0005286032 -0.002912001
v -0.001078066 -5.363884E-05 -0.003163119
v -0.001199016 -4.687388E-05 -0.004933495
v -2.521386E-19 -0.001259593 -0.002529023
v 0.0008705339 -0.0008705339 -0.002083049
v 0.0009435879 -0.0009435879 -0.00370133
v -2.521386E-19 -0.001347746 -0.004070405
v -0.0009915038 -0.0009191617 -0.004468959
v -0.0009055388 -0.0008795699 -0.002905012
v -0.00135909 -0.0003909382 -0.003175603
v -0.001484233 -0.0003957512 -0.004945979
v -2.521386E-19 0.00112787 -0.0004657531
v -0.0007975243 0.0007975243 -0.0004657531
v -0.0008462418 0.0008462418 -0.001544936
v -2.521386E-19 0.001231184 -0.002084035
v 0.0008218609 0.0008218608 -0.001004851
v 0.0008949148 0.0008949148 -0.002623134
v 0.001203771 -7.147404E-11 -0.00154395
v 0.0008218609 0.0008218608 -0.001004851
v 0.0008949148 0.0008949148 -0.002623134
v 0.001302251 -7.75329E-11 -0.003162231
v 0.0008705339 -0.0008705339 -0.002083049
v 0.0009435879 -0.0009435879 -0.00370133
v -0.003110501 6.331634E-06 -0.004879391
v -0.001888827 6.331634E-06 -0.008153779
v -0.003917126 6.331634E-06 -0.006409788
v -0.001307066 6.331634E-06 -0.006835165
v -0.001588481 -0.0001191186 -0.006064144
v -0.0009847544 6.331634E-06 -0.008040777
v -0.002059101 -0.0001229936 -0.003791538
v -0.001484233 -0.0003957512 -0.004945979
v -0.00135909 -0.0003909382 -0.003175603
v -0.0009262538 6.331634E-06 -0.01003244
v -0.002860429 6.331634E-06 -0.01003
v -0.002120193 6.331634E-06 -0.01124651
v -0.000506371 0.000117033 -0.01883899
v -0.0008238087 0.0001142408 -0.01954917
v -0.0005258598 0.000117033 -0.007744819
v -0.0007535215 0.000117033 -0.009712564
v -0.0009262538 6.331634E-06 -0.01003244
v -0.0009847544 6.331634E-06 -0.008040777
v -0.001307066 6.331634E-06 -0.006835165
v -0.0008462418 0.0008462418 -0.001544936
v -0.001138157 -6.743726E-11 -0.0004657531
v -0.0007839094 -0.0001424731 -0.0004657531
v -0.0005438895 0.0005438894 -0.001544936
v -2.521386E-19 0.001231184 -0.002084035
v -1.51397E-11 0.0007912961 -0.002084035
v 0.0008949148 0.0008949148 -0.002623134
v 0.0005751723 0.0005751721 -0.002623134
v 0.001302251 -7.75329E-11 -0.003162231
v 0.0008355365 -4.795842E-11 -0.003162231
v 0.0009435879 -0.0009435879 -0.00370133
v 0.0006064548 -0.0006064548 -0.00370133
v -2.521386E-19 -0.001347746 -0.004070405
v 5.180915E-06 -0.000864066 -0.004071455
v -0.0009915038 -0.0009191617 -0.004468959
v -0.0007247918 -0.0005504619 -0.004475949
v -0.001484233 -0.0003957512 -0.004945979
v -0.001199016 -4.687388E-05 -0.004933495
v -2.521386E-19 0.00112787 -0.0004657531
v 0.0005282196 0.0005282193 -0.001004851
v 4.160778E-11 0.000724895 -0.0004657531
v 0.0008218609 0.0008218608 -0.001004851
v 0.0007691354 3.417558E-19 -0.00154395
v 0.001203771 -7.147404E-11 -0.00154395
v 0.0005595023 -0.0005595023 -0.002083049
v 0.0008705339 -0.0008705339 -0.002083049
v 4.842283E-06 -0.0008075922 -0.002530072
v -2.521386E-19 -0.001259593 -0.002529023
v -0.0006517479 -0.0005286032 -0.002912001
v -0.0009055388 -0.0008795699 -0.002905012
v -0.001078066 -5.363884E-05 -0.003163119
v -0.00135909 -0.0003909382 -0.003175603
v -0.003110501 6.331634E-06 -0.004879391
v -0.003917126 6.331634E-06 -0.006409788
v -0.003917126 0.000451211 -0.006409788
v -0.003071599 0.000451211 -0.004854388
v -0.002059101 -0.0001229936 -0.003791538
v -0.00190076 0.0002967934 -0.003747467
v -0.00135909 -0.0003909382 -0.003175603
v -0.001078066 -5.363884E-05 -0.003163119
v -0.003917126 6.331634E-06 -0.006409788
v -0.001888827 6.331634E-06 -0.008153779
v -0.001888827 0.000451211 -0.008153779
v -0.003917126 0.000451211 -0.006409788
v -0.002120193 6.331634E-06 -0.01124651
v -0.0008238087 0.0001142408 -0.01954917
v -0.0008238087 0.0003433019 -0.01954917
v -0.002120193 0.000451211 -0.01124651
v -0.002860429 6.331634E-06 -0.01003
v -0.002860429 0.000451211 -0.01003
v -0.0008238087 0.0001142408 -0.01954917
v -0.000506371 0.000117033 -0.01883899
v -0.000506371 0.0003405096 -0.01883899
v -0.0008238087 0.0003433019 -0.01954917
v -0.001888827 6.331634E-06 -0.008153779
v -0.002860429 6.331634E-06 -0.01003
v -0.002860429 0.000451211 -0.01003
v -0.001888827 0.000451211 -0.008153779
v -0.000506371 0.000117033 -0.01883899
v -0.0007535215 0.0003405096 -0.009712564
v -0.000506371 0.0003405096 -0.01883899
v -0.0007535215 0.000117033 -0.009712564
v -0.0005258598 0.0003405096 -0.007744819
v -0.0005258598 0.000117033 -0.007744819
v -0.0005258598 0.000117033 -0.007744819
v -0.001307066 6.331634E-06 -0.006835165
v -0.001268164 0.000451211 -0.006810161
v -0.0005258598 0.0003405096 -0.007744819
v -0.001588481 -0.0001191186 -0.006064144
v -0.001484233 -0.0003957512 -0.004945979
v -0.001199016 -4.687388E-05 -0.004933495
v -0.001432674 0.0003029254 -0.006020072
v -0.001307066 6.331634E-06 -0.006835165
v -0.001268164 0.000451211 -0.006810161
v -4.842283E-06 0.0008075922 -0.002530072
v -0.0006064548 0.0006064548 -0.00370133
v -0.0005595023 0.0005595023 -0.002083049
v -5.180915E-06 0.000864066 -0.004071455
v 0.0007247918 0.0005504619 -0.004475949
v 0.0006517479 0.0005286032 -0.002912001
v -4.160778E-11 -0.000724895 -0.0004657531
v 0.0005438895 -0.0005438894 -0.001544936
v 0.0005125782 -0.0005125781 -0.0004657531
v 1.51397E-11 -0.0007912961 -0.002084035
v -0.0005282196 -0.0005282193 -0.001004851
v -0.0005751723 -0.0005751721 -0.002623134
v -0.0007691354 3.469447E-20 -0.00154395
v -0.0005751723 -0.0005751721 -0.002623134
v -0.0005282196 -0.0005282193 -0.001004851
v -0.0008355365 4.795842E-11 -0.003162231
v -0.0005595023 0.0005595023 -0.002083049
v -0.0006064548 0.0006064548 -0.00370133
v 0.003071599 -0.000451211 -0.004854388
v 0.003917126 -0.000451211 -0.006409788
v 0.001888827 -0.000451211 -0.008153779
v 0.001268164 -0.000451211 -0.006810161
v 0.001432674 -0.0003029254 -0.006020072
v 0.00190076 -0.0002967934 -0.003747467
v 0.0009847544 -0.000451211 -0.008040777
v 0.0009262538 -0.000451211 -0.01003244
v 0.002860429 -0.000451211 -0.01003
v 0.002120193 -0.000451211 -0.01124651
v 0.000506371 -0.0003405096 -0.01883899
v 0.0008238087 -0.0003433019 -0.01954917
v 0.0005258598 -0.0003405096 -0.007744819
v 0.0009262538 -0.000451211 -0.01003244
v 0.0007535215 -0.0003405096 -0.009712564
v 0.0009847544 -0.000451211 -0.008040777
v 0.001268164 -0.000451211 -0.006810161
v 0.001199016 4.687388E-05 -0.004933495
v 0.001078066 5.363884E-05 -0.003163119
v 0.00190076 -0.0002967934 -0.003747467
v 0.001432674 -0.0003029254 -0.006020072
v 0.0007247918 0.0005504619 -0.004475949
v 0.0006517479 0.0005286032 -0.002912001
v 0.001078066 5.363884E-05 -0.003163119
v 0.001199016 4.687388E-05 -0.004933495
v -2.521386E-19 0.001259593 -0.002529023
v -0.0008705339 0.0008705339 -0.002083049
v -0.0009435879 0.0009435879 -0.00370133
v -2.521386E-19 0.001347746 -0.004070405
v 0.0009915038 0.0009191617 -0.004468959
v 0.0009055388 0.0008795699 -0.002905012
v 0.00135909 0.0003909382 -0.003175603
v 0.001484233 0.0003957512 -0.004945979
v -2.521386E-19 -0.00112787 -0.0004657531
v 0.0007975243 -0.0007975243 -0.0004657531
v 0.0008462418 -0.0008462418 -0.001544936
v -2.521386E-19 -0.001231184 -0.002084035
v -0.0008218609 -0.0008218608 -0.001004851
v -0.0008949148 -0.0008949148 -0.002623134
v -0.001203771 7.147404E-11 -0.00154395
v -0.0008218609 -0.0008218608 -0.001004851
v -0.0008949148 -0.0008949148 -0.002623134
v -0.001302251 7.75329E-11 -0.003162231
v -0.0008705339 0.0008705339 -0.002083049
v -0.0009435879 0.0009435879 -0.00370133
v 0.003110501 -6.331634E-06 -0.004879391
v 0.001888827 -6.331634E-06 -0.008153779
v 0.003917126 -6.331634E-06 -0.006409788
v 0.001307066 -6.331634E-06 -0.006835165
v 0.001588481 0.0001191186 -0.006064144
v 0.0009847544 -6.331634E-06 -0.008040777
v 0.002059101 0.0001229936 -0.003791538
v 0.001484233 0.0003957512 -0.004945979
v 0.00135909 0.0003909382 -0.003175603
v 0.0009262538 -6.331634E-06 -0.01003244
v 0.002860429 -6.331634E-06 -0.01003
v 0.002120193 -6.331634E-06 -0.01124651
v 0.000506371 -0.000117033 -0.01883899
v 0.0008238087 -0.0001142408 -0.01954917
v 0.0005258598 -0.000117033 -0.007744819
v 0.0007535215 -0.000117033 -0.009712564
v 0.0009262538 -6.331634E-06 -0.01003244
v 0.0009847544 -6.331634E-06 -0.008040777
v 0.001307066 -6.331634E-06 -0.006835165
v 0.0008462418 -0.0008462418 -0.001544936
v 0.001138157 6.743726E-11 -0.0004657531
v 0.0007839094 0.0001424731 -0.0004657531
v 0.0005438895 -0.0005438894 -0.001544936
v -2.521386E-19 -0.001231184 -0.002084035
v 1.51397E-11 -0.0007912961 -0.002084035
v -0.0008949148 -0.0008949148 -0.002623134
v -0.0005751723 -0.0005751721 -0.002623134
v -0.001302251 7.75329E-11 -0.003162231
v -0.0008355365 4.795842E-11 -0.003162231
v -0.0009435879 0.0009435879 -0.00370133
v -0.0006064548 0.0006064548 -0.00370133
v -2.521386E-19 0.001347746 -0.004070405
v -5.180915E-06 0.000864066 -0.004071455
v 0.0009915038 0.0009191617 -0.004468959
v 0.0007247918 0.0005504619 -0.004475949
v 0.001484233 0.0003957512 -0.004945979
v 0.001199016 4.687388E-05 -0.004933495
v -2.521386E-19 -0.00112787 -0.0004657531
v -0.0005282196 -0.0005282193 -0.001004851
v -4.160778E-11 -0.000724895 -0.0004657531
v -0.0008218609 -0.0008218608 -0.001004851
v -0.0007691354 3.469447E-20 -0.00154395
v -0.001203771 7.147404E-11 -0.00154395
v -0.0005595023 0.0005595023 -0.002083049
v -0.0008705339 0.0008705339 -0.002083049
v -4.842283E-06 0.0008075922 -0.002530072
v -2.521386E-19 0.001259593 -0.002529023
v 0.0006517479 0.0005286032 -0.002912001
v 0.0009055388 0.0008795699 -0.002905012
v 0.001078066 5.363884E-05 -0.003163119
v 0.00135909 0.0003909382 -0.003175603
v 0.003110501 -6.331634E-06 -0.004879391
v 0.003917126 -6.331634E-06 -0.006409788
v 0.003917126 -0.000451211 -0.006409788
v 0.003071599 -0.000451211 -0.004854388
v 0.002059101 0.0001229936 -0.003791538
v 0.00190076 -0.0002967934 -0.003747467
v 0.00135909 0.0003909382 -0.003175603
v 0.001078066 5.363884E-05 -0.003163119
v 0.003917126 -6.331634E-06 -0.006409788
v 0.001888827 -6.331634E-06 -0.008153779
v 0.001888827 -0.000451211 -0.008153779
v 0.003917126 -0.000451211 -0.006409788
v 0.002120193 -6.331634E-06 -0.01124651
v 0.0008238087 -0.0001142408 -0.01954917
v 0.0008238087 -0.0003433019 -0.01954917
v 0.002120193 -0.000451211 -0.01124651
v 0.002860429 -6.331634E-06 -0.01003
v 0.002860429 -0.000451211 -0.01003
v 0.0008238087 -0.0001142408 -0.01954917
v 0.000506371 -0.000117033 -0.01883899
v 0.000506371 -0.0003405096 -0.01883899
v 0.0008238087 -0.0003433019 -0.01954917
v 0.001888827 -6.331634E-06 -0.008153779
v 0.002860429 -6.331634E-06 -0.01003
v 0.002860429 -0.000451211 -0.01003
v 0.001888827 -0.000451211 -0.008153779
v 0.000506371 -0.000117033 -0.01883899
v 0.0007535215 -0.0003405096 -0.009712564
v 0.000506371 -0.0003405096 -0.01883899
v 0.0007535215 -0.000117033 -0.009712564
v 0.0005258598 -0.0003405096 -0.007744819
v 0.0005258598 -0.000117033 -0.007744819
v 0.0005258598 -0.000117033 -0.007744819
v 0.001307066 -6.331634E-06 -0.006835165
v 0.001268164 -0.000451211 -0.006810161
v 0.0005258598 -0.0003405096 -0.007744819
v 0.001588481 0.0001191186 -0.006064144
v 0.001484233 0.0003957512 -0.004945979
v 0.001199016 4.687388E-05 -0.004933495
v 0.001432674 -0.0003029254 -0.006020072
v 0.001307066 -6.331634E-06 -0.006835165
v 0.001268164 -0.000451211 -0.006810161
v 0.0007967419 -0.0007967419 0
v 0.0008269862 -0.0008269862 -0.000652945
v -8.855678E-13 -0.001169535 -0.000652945
v -8.531811E-13 -0.001126763 0
v -0.0008269862 -0.0008269862 -0.000652945
v -0.0007967419 -0.0007967419 0
v -0.0007967419 -0.0007967419 0
v -0.0008269862 -0.0008269862 -0.000652945
v -0.001187394 -4.515373E-19 -0.000652945
v -0.001148203 -2.723669E-19 0
v -0.0008269862 0.0008269862 -0.000652945
v -0.0007967419 0.0007967419 0
v -0.0007967419 0.0007967419 0
v -0.0008269862 0.0008269862 -0.000652945
v -8.855678E-13 0.001169535 -0.000652945
v -8.531811E-13 0.001126763 0
v 0.0008269863 0.0008269863 -0.000652945
v 0.000796742 0.000796742 0
v 0.000796742 0.000796742 0
v 0.0008269863 0.0008269863 -0.000652945
v 0.001187394 -4.515373E-19 -0.000652945
v 0.001148203 -2.723669E-19 0
v 0.0008269862 -0.0008269862 -0.000652945
v 0.0007967419 -0.0007967419 0
v 0.0008269862 -0.0008269862 -0.000652945
v -8.855678E-13 -4.515373E-19 -0.000652945
v -8.855678E-13 -0.001169535 -0.000652945
v 0.001187394 -4.515373E-19 -0.000652945
v -0.0008269862 -0.0008269862 -0.000652945
v 0.0008269863 0.0008269863 -0.000652945
v -0.001187394 -4.515373E-19 -0.000652945
v -8.855678E-13 0.001169535 -0.000652945
v -0.0008269862 0.0008269862 -0.000652945
v 8.689603E-11 2.193731E-11 0
v 0.0007967419 -0.0007967419 0
v -8.531811E-13 -0.001126763 0
v 0.001148203 -2.723669E-19 0
v -0.0007967419 -0.0007967419 0
v 0.000796742 0.000796742 0
v -0.001148203 -2.723669E-19 0
v -8.531811E-13 0.001126763 0
v -0.0007967419 0.0007967419 0
vt 0.06390381 0.6015625
vt 0.06634521 0.6015625
vt 0.06646729 0.5976563
vt 0.06039429 0.5571289
vt 0.05996704 0.5239258
vt 0.05996704 0.5581055
vt 0.06713867 0.5947266
vt 0.0703125 0.5991211
vt 0.07012939 0.5947266
vt 0.0586853 0.5571289
vt 0.05911255 0.5581055
vt 0.05911255 0.5239258
vt 0.0736084 0.5947266
vt 0.07116699 0.5947266
vt 0.07104492 0.5991211
vt 0.06106567 0.5478516
vt 0.0614624 0.581543
vt 0.0614624 0.546875
vt 0.07745361 0.5981445
vt 0.07421875 0.59375
vt 0.07440186 0.5981445
vt 0.06274414 0.5478516
vt 0.06231689 0.546875
vt 0.06231689 0.581543
vt 0.04241943 0.5893555
vt 0.04470825 0.59375
vt 0.04452515 0.5874023
vt 0.04241943 0.5952148
vt 0.03967285 0.5966797
vt 0.03994751 0.5908203
vt 0.02961731 0.6049805
vt 0.02755737 0.6010742
vt 0.02767944 0.6049805
vt 0.02961731 0.5986328
vt 0.03161621 0.6030273
vt 0.03179932 0.5966797
vt 0.08673096 0.5830078
vt 0.08892822 0.5874023
vt 0.08874512 0.5810547
vt 0.08673096 0.5893555
vt 0.08459473 0.5854492
vt 0.08441162 0.5913086
vt 0.07617188 0.5253906
vt 0.07299805 0.53125
vt 0.08062744 0.5375977
vt 0.08300781 0.5327148
vt 0.08239746 0.5297852
vt 0.08062744 0.5209961
vt 0.08404541 0.5375977
vt 0.08428955 0.5449219
vt 0.07696533 0.5449219
vt 0.07977295 0.5493164
vt 0.08587646 0.578125
vt 0.08465576 0.5810547
vt 0.08581543 0.5361328
vt 0.08428955 0.5449219
vt 0.08496094 0.543457
vt 0.08404541 0.5375977
vt 0.08300781 0.5327148
vt 0.0585022 0.5761719
vt 0.05847168 0.5830078
vt 0.05978394 0.5810547
vt 0.05981445 0.5722656
vt 0.05661011 0.578125
vt 0.05667114 0.5839844
vt 0.05847168 0.5830078
vt 0.0585022 0.5761719
vt 0.03323364 0.5854492
vt 0.03652954 0.5869141
vt 0.0368042 0.5810547
vt 0.03323364 0.5795898
vt 0.02949524 0.578125
vt 0.02983093 0.5839844
vt 0.02810669 0.5830078
vt 0.02764893 0.5761719
vt 0.03555298 0.5966797
vt 0.03256226 0.5966797
vt 0.03237915 0.6010742
vt 0.03555298 0.6030273
vt 0.03866577 0.5991211
vt 0.03894043 0.6049805
vt 0.08050537 0.5893555
vt 0.08361816 0.5913086
vt 0.0838623 0.5854492
vt 0.08050537 0.5830078
vt 0.07720947 0.5874023
vt 0.07696533 0.5810547
vt 0.02149963 0.5766602
vt 0.02610779 0.5639648
vt 0.01844788 0.5708008
vt 0.02830505 0.5693359
vt 0.0272522 0.5722656
vt 0.02952576 0.5644531
vt 0.02546692 0.5805664
vt 0.02764893 0.5761719
vt 0.02810669 0.5830078
vt 0.02975464 0.5571289
vt 0.02244568 0.5571289
vt 0.02523804 0.5527344
vt 0.03134155 0.5239258
vt 0.03013611 0.5209961
vt 0.03125 0.565918
vt 0.03039551 0.5581055
vt 0.02975464 0.5571289
vt 0.02952576 0.5644531
vt 0.02830505 0.5693359
vt 0.1011963 0.5893555
vt 0.1044312 0.590332
vt 0.1049194 0.5888672
vt 0.102356 0.5883789
vt 0.09979248 0.5859375
vt 0.1014404 0.5859375
vt 0.1010132 0.5825195
vt 0.1022339 0.5839844
vt 0.1044312 0.5810547
vt 0.1044312 0.5830078
vt 0.1079712 0.5825195
vt 0.1066895 0.5839844
vt 0.1094971 0.5859375
vt 0.107666 0.5859375
vt 0.1079102 0.5898438
vt 0.1065063 0.5888672
vt 0.105896 0.5917969
vt 0.1046143 0.5908203
vt 0.06384277 0.5917969
vt 0.06158447 0.5898438
vt 0.06231689 0.5917969
vt 0.06268311 0.5888672
vt 0.05960083 0.5893555
vt 0.05960083 0.5874023
vt 0.05749512 0.5898438
vt 0.05630493 0.5888672
vt 0.05654907 0.5917969
vt 0.05484009 0.5917969
vt 0.05758667 0.5947266
vt 0.05627441 0.5952148
vt 0.05938721 0.5961914
vt 0.05810547 0.597168
vt 0.0670166 0.527832
vt 0.0670166 0.5332031
vt 0.06866455 0.5332031
vt 0.06866455 0.5273438
vt 0.06652832 0.5234375
vt 0.06811523 0.5234375
vt 0.06549072 0.5209961
vt 0.06677246 0.5209961
vt 0.0670166 0.5332031
vt 0.0670166 0.5400391
vt 0.06866455 0.5400391
vt 0.06866455 0.5332031
vt 0.0670166 0.5517578
vt 0.06738281 0.5830078
vt 0.06829834 0.5830078
vt 0.06866455 0.5517578
vt 0.0670166 0.546875
vt 0.06866455 0.546875
vt 0.05911255 0.5209961
vt 0.05911255 0.5239258
vt 0.05996704 0.5239258
vt 0.05996704 0.5209961
vt 0.0670166 0.5400391
vt 0.0670166 0.546875
vt 0.06866455 0.546875
vt 0.06866455 0.5400391
vt 0.05911255 0.5239258
vt 0.05996704 0.5581055
vt 0.05996704 0.5239258
vt 0.05911255 0.5581055
vt 0.05996704 0.565918
vt 0.05911255 0.565918
vt 0.05911255 0.565918
vt 0.0586853 0.5693359
vt 0.06039429 0.5693359
vt 0.05996704 0.565918
vt 0.05822754 0.5722656
vt 0.05718994 0.5761719
vt 0.0585022 0.5761719
vt 0.05981445 0.5722656
vt 0.0586853 0.5693359
vt 0.06039429 0.5693359
vt 0.03634644 0.5947266
vt 0.03408813 0.590332
vt 0.03427124 0.5966797
vt 0.03634644 0.5888672
vt 0.03912354 0.5874023
vt 0.03884888 0.5932617
vt 0.0418396 0.5966797
vt 0.04388428 0.6010742
vt 0.04379272 0.5966797
vt 0.0418396 0.6030273
vt 0.03985596 0.5991211
vt 0.03967285 0.6049805
vt 0.07409668 0.5917969
vt 0.07189941 0.5874023
vt 0.07208252 0.59375
vt 0.07409668 0.5854492
vt 0.07617188 0.5893555
vt 0.07635498 0.5834961
vt 0.09619141 0.5766602
vt 0.09942627 0.5708008
vt 0.09173584 0.5639648
vt 0.0894165 0.5693359
vt 0.09002686 0.5722656
vt 0.09179688 0.5810547
vt 0.08831787 0.5644531
vt 0.08813477 0.5571289
vt 0.09539795 0.5571289
vt 0.09265137 0.5527344
vt 0.08654785 0.5239258
vt 0.08770752 0.5209961
vt 0.08660889 0.565918
vt 0.08813477 0.5571289
vt 0.08746338 0.5581055
vt 0.08831787 0.5644531
vt 0.0894165 0.5693359
vt 0.06292725 0.5288086
vt 0.06298828 0.5219727
vt 0.06164551 0.5244141
vt 0.06161499 0.5327148
vt 0.06481934 0.5268555
vt 0.0647583 0.5209961
vt 0.06298828 0.5219727
vt 0.06292725 0.5288086
vt 0.04110718 0.5229492
vt 0.03781128 0.5209961
vt 0.03753662 0.5273438
vt 0.04110718 0.5288086
vt 0.04483032 0.5302734
vt 0.04452515 0.5244141
vt 0.04623413 0.5253906
vt 0.04669189 0.5317383
vt 0.04785156 0.6054688
vt 0.0508728 0.6054688
vt 0.05105591 0.6015625
vt 0.04785156 0.5996094
vt 0.04476929 0.6035156
vt 0.04449463 0.5976563
vt 0.06781006 0.5864258
vt 0.06469727 0.5844727
vt 0.06439209 0.590332
vt 0.06781006 0.5922852
vt 0.07110596 0.5883789
vt 0.0713501 0.5947266
vt 0.05285645 0.5317383
vt 0.04821777 0.5439453
vt 0.05587769 0.5375977
vt 0.04602051 0.5390625
vt 0.04708862 0.5361328
vt 0.04483032 0.543457
vt 0.04885864 0.527832
vt 0.04669189 0.5317383
vt 0.04623413 0.5253906
vt 0.04458618 0.5512695
vt 0.0519104 0.5512695
vt 0.04910278 0.5556641
vt 0.04299927 0.5844727
vt 0.04421997 0.5869141
vt 0.04309082 0.5424805
vt 0.04394531 0.5498047
vt 0.04458618 0.5512695
vt 0.04483032 0.543457
vt 0.04602051 0.5390625
vt 0.09777832 0.5834961
vt 0.09454346 0.5825195
vt 0.09399414 0.5839844
vt 0.09661865 0.5849609
vt 0.09918213 0.5869141
vt 0.09753418 0.5869141
vt 0.09796143 0.590332
vt 0.09674072 0.5888672
vt 0.09454346 0.5917969
vt 0.09454346 0.5898438
vt 0.09100342 0.590332
vt 0.09228516 0.5888672
vt 0.08947754 0.5869141
vt 0.09130859 0.5869141
vt 0.09106445 0.5830078
vt 0.09246826 0.5839844
vt 0.09307861 0.5810547
vt 0.09436035 0.5825195
vt 0.04525757 0.5927734
vt 0.04751587 0.5947266
vt 0.04678345 0.5927734
vt 0.04641724 0.5957031
vt 0.04953003 0.5957031
vt 0.04953003 0.597168
vt 0.05163574 0.5947266
vt 0.05279541 0.5957031
vt 0.05258179 0.5927734
vt 0.05429077 0.5927734
vt 0.05151367 0.590332
vt 0.05285645 0.5893555
vt 0.04971313 0.5883789
vt 0.05099487 0.5874023
vt 0.07092285 0.5766602
vt 0.07092285 0.5708008
vt 0.0692749 0.5708008
vt 0.0692749 0.5766602
vt 0.07141113 0.5805664
vt 0.06982422 0.5810547
vt 0.07244873 0.5830078
vt 0.07116699 0.5830078
vt 0.07092285 0.5708008
vt 0.07092285 0.5639648
vt 0.0692749 0.5639648
vt 0.0692749 0.5708008
vt 0.07092285 0.5527344
vt 0.07049561 0.5209961
vt 0.06964111 0.5209961
vt 0.0692749 0.5527344
vt 0.07092285 0.5571289
vt 0.0692749 0.5571289
vt 0.06231689 0.5839844
vt 0.06231689 0.581543
vt 0.0614624 0.581543
vt 0.0614624 0.5839844
vt 0.07092285 0.5639648
vt 0.07092285 0.5571289
vt 0.0692749 0.5571289
vt 0.0692749 0.5639648
vt 0.06231689 0.581543
vt 0.0614624 0.546875
vt 0.0614624 0.581543
vt 0.06231689 0.546875
vt 0.0614624 0.5395508
vt 0.06231689 0.5395508
vt 0.06231689 0.5395508
vt 0.06274414 0.5361328
vt 0.06106567 0.5361328
vt 0.0614624 0.5395508
vt 0.06323242 0.5332031
vt 0.06427002 0.5288086
vt 0.06292725 0.5288086
vt 0.06161499 0.5327148
vt 0.06274414 0.5361328
vt 0.06106567 0.5361328
vt 0.05426025 0.5976563
vt 0.05178833 0.5976563
vt 0.05178833 0.6005859
vt 0.05426025 0.6005859
vt 0.05178833 0.6040039
vt 0.05426025 0.6035156
vt 0.05728149 0.5976563
vt 0.05480957 0.5976563
vt 0.05480957 0.6005859
vt 0.05728149 0.6005859
vt 0.05480957 0.6040039
vt 0.05728149 0.6035156
vt 0.05783081 0.6035156
vt 0.06030273 0.6040039
vt 0.06030273 0.6005859
vt 0.05783081 0.6005859
vt 0.06030273 0.5976563
vt 0.05783081 0.5976563
vt 0.06088257 0.6035156
vt 0.06335449 0.6040039
vt 0.06335449 0.6005859
vt 0.06088257 0.6005859
vt 0.06335449 0.5976563
vt 0.06088257 0.5976563
vt 0.03222656 0.5888672
vt 0.02911377 0.5917969
vt 0.03353882 0.5917969
vt 0.02911377 0.5874023
vt 0.03222656 0.5952148
vt 0.02598572 0.5888672
vt 0.02911377 0.5966797
vt 0.02468872 0.5917969
vt 0.02598572 0.5952148
vt 0.02270508 0.6010742
vt 0.0196991 0.5981445
vt 0.01844788 0.6010742
vt 0.02270508 0.5966797
vt 0.0196991 0.6040039
vt 0.02571106 0.5981445
vt 0.02270508 0.6054688
vt 0.02696228 0.6010742
vt 0.02571106 0.6040039
vn 0.9233398 -0.3823242 -0.03787231
vn 0.6010742 -0.7978516 -0.04058838
vn 0.4553223 -0.8896484 -0.03903198
vn 0.498291 0.8671875 0.01026154
vn 0.5209961 0.8535156 0.01410675
vn 0.3898926 0.9208984 -0.007427216
vn -0.9179688 0.3920898 0.05914307
vn -0.4543457 0.8886719 0.06063843
vn -0.5649414 0.8227539 0.06262207
vn 0.498291 -0.8671875 0.01026154
vn 0.3898926 -0.9208984 -0.007427216
vn 0.5209961 -0.8535156 0.01410675
vn -0.9233398 0.3823242 -0.03787231
vn -0.6010742 0.7978516 -0.04058838
vn -0.4553223 0.8896484 -0.03903198
vn -0.498291 -0.8671875 0.01026154
vn -0.5209961 -0.8535156 0.01410675
vn -0.3898926 -0.9208984 -0.007427216
vn 0.9179688 -0.3920898 0.05914307
vn 0.4543457 -0.8886719 0.06063843
vn 0.5649414 -0.8227539 0.06262207
vn -0.498291 0.8671875 0.01026154
vn -0.3898926 0.9208984 -0.007427216
vn -0.5209961 0.8535156 0.01410675
vn -0.09899902 0.9941406 -0.0375061
vn -0.5766602 0.815918 -0.03900146
vn -0.8173828 0.574707 -0.03982544
vn 0.1796875 0.9829102 -0.03607178
vn 0.6474609 0.7612305 -0.04275513
vn 0.5375977 0.8422852 -0.03823853
vn 0.09143066 -0.9951172 -0.04083252
vn 0.4553223 -0.8896484 -0.03903198
vn 0.6010742 -0.7978516 -0.04058838
vn -0.220459 -0.9746094 -0.03997803
vn -0.5605469 -0.8271484 -0.04025269
vn -0.8291016 -0.5576172 -0.04022217
vn -0.9819336 -0.1849365 -0.0402832
vn -0.8291016 -0.5576172 -0.04022217
vn -0.5605469 -0.8271484 -0.04025269
vn -0.9814453 0.1883545 -0.04025269
vn -0.8173828 0.574707 -0.03982544
vn -0.5766602 0.815918 -0.03900146
vn 0.05874634 0.9975586 0.03213501
vn 0 1 0
vn 0 1 0
vn 0.01849365 1 0.01011658
vn 0.1826172 0.9799805 0.07696533
vn 0.348877 0.9350586 0.06204224
vn 0 1 0
vn 0.008674622 1 -0.006027222
vn 0 1 0
vn 0.01464844 1 -0.01017761
vn 0.0160675 1 -0.0111618
vn 0.0160675 1 -0.0111618
vn 0.28125 0.9594727 0.01369476
vn 0.498291 0.8671875 0.01026154
vn 0.3898926 0.9208984 -0.007427216
vn 0.3120117 0.9501953 -0.0002088547
vn 0.2053223 0.9775391 0.04727173
vn 0.5004883 0.8642578 0.04574585
vn 0.5004883 0.8642578 0.04574585
vn 0.348877 0.9350586 0.06204224
vn 0.1826172 0.9799805 0.07696533
vn 0.6474609 0.7612305 -0.04275513
vn 0.5375977 0.8422852 -0.03823853
vn 0.7514648 0.6577148 -0.04672241
vn 0.7514648 0.6577148 -0.04672241
vn 0.08514404 -0.9946289 0.05755615
vn 0.7841797 -0.6176758 0.06115723
vn 0.6162109 -0.7851563 0.06069946
vn -0.1156006 -0.9916992 0.05575562
vn -0.6162109 -0.7861328 0.05422974
vn -0.519043 -0.8530273 0.05200195
vn -0.7495117 -0.6591797 0.0562439
vn -0.7495117 -0.6591797 0.0562439
vn -0.0451355 0.9970703 0.06365967
vn -0.5649414 0.8227539 0.06262207
vn -0.4543457 0.8886719 0.06063843
vn 0.1732178 0.9829102 0.06274414
vn 0.6035156 0.7949219 0.06256104
vn 0.7958984 0.6020508 0.06204224
vn 0.9892578 0.133667 0.0617981
vn 0.6035156 0.7949219 0.06256104
vn 0.7958984 0.6020508 0.06204224
vn 0.9887695 -0.1378174 0.06173706
vn 0.7841797 -0.6176758 0.06115723
vn 0.6162109 -0.7851563 0.06069946
vn -0.05447388 -0.9980469 -0.02963257
vn 0 -1 0
vn 0 -1 0
vn -0.01236725 -1 -0.006729126
vn -0.1669922 -0.9829102 -0.07470703
vn 0 -1 0
vn -0.3439941 -0.9370117 -0.0586853
vn -0.4960938 -0.8671875 -0.04220581
vn -0.4960938 -0.8671875 -0.04220581
vn 0.008674622 -1 -0.006027222
vn 0 -1 0
vn 0.01464844 -1 -0.01017761
vn 0.0160675 -1 -0.0111618
vn 0.0160675 -1 -0.0111618
vn 0.2802734 -0.9599609 0.01623535
vn 0.3898926 -0.9208984 -0.007427216
vn 0.498291 -0.8671875 0.01026154
vn 0.3103027 -0.9506836 0.001647949
vn 0.2012939 -0.9780273 0.05380249
vn -0.5029297 -0.5009766 -0.7041016
vn -0.4538574 -0.6699219 -0.5874023
vn -0.4538574 -0.6699219 -0.5874023
vn -0.5039063 -0.4975586 -0.7060547
vn -0.5410156 0.01126099 -0.8408203
vn -0.5410156 0.003562927 -0.8408203
vn -0.3669434 0.3830566 -0.8476563
vn -0.3723145 0.3779297 -0.8476563
vn 0.0103302 0.5200195 -0.8540039
vn 0.003170013 0.5205078 -0.8540039
vn 0.2963867 0.3374023 -0.8935547
vn 0.2958984 0.3378906 -0.8935547
vn 0.3771973 0.002429962 -0.9262695
vn 0.3771973 0.003639221 -0.9262695
vn 0.4094238 -0.2254639 -0.8837891
vn 0.4086914 -0.2235107 -0.8847656
vn 0.7084961 -0.4338379 -0.5566406
vn 0.7314453 -0.4406738 -0.5205078
vn 0.5522461 -0.2329102 0.800293
vn 0.3937988 -0.4020996 0.8266602
vn 0.5522461 -0.2329102 0.800293
vn 0.387207 -0.4082031 0.8266602
vn -0.003742218 -0.5517578 0.8339844
vn -0.01166534 -0.5517578 0.8339844
vn -0.3476563 -0.3693848 0.8618164
vn -0.3498535 -0.3659668 0.8623047
vn -0.4287109 -0.02105713 0.9033203
vn -0.4284668 -0.0193634 0.9033203
vn -0.3496094 0.1746826 0.9204102
vn -0.3496094 0.1749268 0.9204102
vn -0.4377441 0.2419434 0.8657227
vn -0.4484863 0.243042 0.8598633
vn -0.8056641 0.06039429 0.5893555
vn -0.8813477 0.02526855 0.4719238
vn -0.8813477 0.02526855 0.4719238
vn -0.7998047 0.06286621 0.597168
vn -0.6416016 0.1538086 0.7514648
vn -0.6289063 0.1663818 0.7597656
vn -0.4484863 0.243042 0.8598633
vn -0.4377441 0.2419434 0.8657227
vn -0.6518555 0 -0.7583008
vn -0.6518555 0 -0.7583008
vn -0.6518555 0 -0.7583008
vn -0.6518555 0 -0.7583008
vn -0.9746094 0 -0.2241211
vn -0.987793 0 -0.1542969
vn -0.987793 0 -0.1542969
vn -0.9746094 0 -0.2241211
vn -0.8544922 0 -0.5200195
vn -0.8544922 0 -0.5200195
vn 0.9130859 0 -0.407959
vn 0.9130859 0 -0.407959
vn 0.9130859 0 -0.407959
vn 0.9130859 0 -0.407959
vn -0.8881836 0 0.4599609
vn -0.8881836 0 0.4599609
vn -0.8881836 0 0.4599609
vn -0.8881836 0 0.4599609
vn 0.9995117 0 0.02706909
vn 1 0 0.001756668
vn 0.9995117 0 0.02706909
vn 1 0 0.001756668
vn 0.9931641 0 -0.1149292
vn 0.9931641 0 -0.1149292
vn 0.769043 -0.06854248 0.6352539
vn 0.769043 -0.06854248 0.6352539
vn 0.769043 -0.06854248 0.6352539
vn 0.769043 -0.06854248 0.6352539
vn 0.9165039 -0.3916016 -0.0814209
vn 0.7084961 -0.4338379 -0.5566406
vn 0.7314453 -0.4406738 -0.5205078
vn 0.9272461 -0.3725586 -0.03936768
vn 0.9453125 -0.2307129 0.2296143
vn 0.9453125 -0.2307129 0.2296143
vn 0.09899902 -0.9941406 -0.0375061
vn 0.5766602 -0.815918 -0.03900146
vn 0.8173828 -0.574707 -0.03982544
vn -0.1796875 -0.9829102 -0.03607178
vn -0.6474609 -0.7612305 -0.04275513
vn -0.5375977 -0.8422852 -0.03823853
vn -0.09143066 0.9951172 -0.04083252
vn -0.4553223 0.8896484 -0.03903198
vn -0.6010742 0.7978516 -0.04058838
vn 0.220459 0.9746094 -0.03997803
vn 0.5605469 0.8271484 -0.04025269
vn 0.8291016 0.5576172 -0.04022217
vn 0.9819336 0.1849365 -0.0402832
vn 0.8291016 0.5576172 -0.04022217
vn 0.5605469 0.8271484 -0.04025269
vn 0.9814453 -0.1883545 -0.04025269
vn 0.8173828 -0.574707 -0.03982544
vn 0.5766602 -0.815918 -0.03900146
vn -0.05874634 -0.9975586 0.03213501
vn 0 -1 0
vn 0 -1 0
vn -0.01849365 -1 0.01011658
vn -0.1826172 -0.9799805 0.07696533
vn -0.348877 -0.9350586 0.06204224
vn 0 -1 0
vn -0.008674622 -1 -0.006027222
vn 0 -1 0
vn -0.01464844 -1 -0.01017761
vn -0.0160675 -1 -0.0111618
vn -0.0160675 -1 -0.0111618
vn -0.28125 -0.9594727 0.01369476
vn -0.498291 -0.8671875 0.01026154
vn -0.3898926 -0.9208984 -0.007427216
vn -0.3120117 -0.9501953 -0.0002088547
vn -0.2053223 -0.9775391 0.04727173
vn -0.5004883 -0.8642578 0.04574585
vn -0.5004883 -0.8642578 0.04574585
vn -0.348877 -0.9350586 0.06204224
vn -0.1826172 -0.9799805 0.07696533
vn -0.6474609 -0.7612305 -0.04275513
vn -0.5375977 -0.8422852 -0.03823853
vn -0.7514648 -0.6577148 -0.04672241
vn -0.7514648 -0.6577148 -0.04672241
vn -0.08514404 0.9946289 0.05755615
vn -0.7841797 0.6176758 0.06115723
vn -0.6162109 0.7851563 0.06069946
vn 0.1156006 0.9916992 0.05575562
vn 0.6162109 0.7861328 0.05422974
vn 0.519043 0.8530273 0.05200195
vn 0.7495117 0.6591797 0.0562439
vn 0.7495117 0.6591797 0.0562439
vn 0.0451355 -0.9970703 0.06365967
vn 0.5649414 -0.8227539 0.06262207
vn 0.4543457 -0.8886719 0.06063843
vn -0.1732178 -0.9829102 0.06274414
vn -0.6035156 -0.7949219 0.06256104
vn -0.7958984 -0.6020508 0.06204224
vn -0.9892578 -0.133667 0.0617981
vn -0.6035156 -0.7949219 0.06256104
vn -0.7958984 -0.6020508 0.06204224
vn -0.9887695 0.1378174 0.06173706
vn -0.7841797 0.6176758 0.06115723
vn -0.6162109 0.7851563 0.06069946
vn 0.05447388 0.9980469 -0.02963257
vn 0 1 0
vn 0 1 0
vn 0.01236725 1 -0.006729126
vn 0.1669922 0.9829102 -0.07470703
vn 0 1 0
vn 0.3439941 0.9370117 -0.0586853
vn 0.4960938 0.8671875 -0.04220581
vn 0.4960938 0.8671875 -0.04220581
vn -0.008674622 1 -0.006027222
vn 0 1 0
vn -0.01464844 1 -0.01017761
vn -0.0160675 1 -0.0111618
vn -0.0160675 1 -0.0111618
vn -0.2802734 0.9599609 0.01623535
vn -0.3898926 0.9208984 -0.007427216
vn -0.498291 0.8671875 0.01026154
vn -0.3103027 0.9506836 0.001647949
vn -0.2012939 0.9780273 0.05380249
vn 0.5029297 0.5009766 -0.7041016
vn 0.4538574 0.6699219 -0.5874023
vn 0.4538574 0.6699219 -0.5874023
vn 0.5039063 0.4975586 -0.7060547
vn 0.5410156 -0.01126099 -0.8408203
vn 0.5410156 -0.003562927 -0.8408203
vn 0.3669434 -0.3830566 -0.8476563
vn 0.3723145 -0.3779297 -0.8476563
vn -0.0103302 -0.5200195 -0.8540039
vn -0.003170013 -0.5205078 -0.8540039
vn -0.2963867 -0.3374023 -0.8935547
vn -0.2958984 -0.3378906 -0.8935547
vn -0.3771973 -0.002429962 -0.9262695
vn -0.3771973 -0.003639221 -0.9262695
vn -0.4094238 0.2254639 -0.8837891
vn -0.4086914 0.2235107 -0.8847656
vn -0.7084961 0.4338379 -0.5566406
vn -0.7314453 0.4406738 -0.5205078
vn -0.5522461 0.2329102 0.800293
vn -0.3937988 0.4020996 0.8266602
vn -0.5522461 0.2329102 0.800293
vn -0.387207 0.4082031 0.8266602
vn 0.003742218 0.5517578 0.8339844
vn 0.01166534 0.5517578 0.8339844
vn 0.3476563 0.3693848 0.8618164
vn 0.3498535 0.3659668 0.8623047
vn 0.4287109 0.02105713 0.9033203
vn 0.4284668 0.0193634 0.9033203
vn 0.3496094 -0.1746826 0.9204102
vn 0.3496094 -0.1749268 0.9204102
vn 0.4377441 -0.2419434 0.8657227
vn 0.4484863 -0.243042 0.8598633
vn 0.8056641 -0.06039429 0.5893555
vn 0.8813477 -0.02526855 0.4719238
vn 0.8813477 -0.02526855 0.4719238
vn 0.7998047 -0.06286621 0.597168
vn 0.6416016 -0.1538086 0.7514648
vn 0.6289063 -0.1663818 0.7597656
vn 0.4484863 -0.243042 0.8598633
vn 0.4377441 -0.2419434 0.8657227
vn 0.6518555 0 -0.7583008
vn 0.6518555 0 -0.7583008
vn 0.6518555 0 -0.7583008
vn 0.6518555 0 -0.7583008
vn 0.9746094 0 -0.2241211
vn 0.987793 0 -0.1542969
vn 0.987793 0 -0.1542969
vn 0.9746094 0 -0.2241211
vn 0.8544922 0 -0.5200195
vn 0.8544922 0 -0.5200195
vn -0.9130859 0 -0.407959
vn -0.9130859 0 -0.407959
vn -0.9130859 0 -0.407959
vn -0.9130859 0 -0.407959
vn 0.8881836 0 0.4599609
vn 0.8881836 0 0.4599609
vn 0.8881836 0 0.4599609
vn 0.8881836 0 0.4599609
vn -0.9995117 0 0.02706909
vn -1 0 0.001756668
vn -0.9995117 0 0.02706909
vn -1 0 0.001756668
vn -0.9931641 0 -0.1149292
vn -0.9931641 0 -0.1149292
vn -0.769043 0.06854248 0.6352539
vn -0.769043 0.06854248 0.6352539
vn -0.769043 0.06854248 0.6352539
vn -0.769043 0.06854248 0.6352539
vn -0.9165039 0.3916016 -0.0814209
vn -0.7084961 0.4338379 -0.5566406
vn -0.7314453 0.4406738 -0.5205078
vn -0.9272461 0.3725586 -0.03936768
vn -0.9453125 0.2307129 0.2296143
vn -0.9453125 0.2307129 0.2296143
vn 0.699707 -0.7119141 0.0637207
vn 0.699707 -0.7114258 0.0637207
vn 0 -0.9980469 0.06536865
vn 0 -0.9980469 0.06536865
vn -0.699707 -0.7114258 0.0637207
vn -0.699707 -0.7119141 0.0637207
vn -0.699707 -0.7119141 0.0637207
vn -0.699707 -0.7114258 0.0637207
vn -0.9980469 0 0.06317139
vn -0.9980469 0 0.06317139
vn -0.699707 0.7114258 0.0637207
vn -0.699707 0.7119141 0.0637207
vn -0.699707 0.7119141 0.0637207
vn -0.699707 0.7114258 0.0637207
vn 0 0.9980469 0.06536865
vn 0 0.9980469 0.06536865
vn 0.699707 0.7114258 0.0637207
vn 0.699707 0.7119141 0.0637207
vn 0.699707 0.7119141 0.0637207
vn 0.699707 0.7114258 0.0637207
vn 0.9980469 0 0.06317139
vn 0.9980469 0 0.06317139
vn 0.699707 -0.7114258 0.0637207
vn 0.699707 -0.7119141 0.0637207
vn 0 0 -1
vn 0 0 -1
vn 0 0 -1
vn 0 0 -1
vn 0 0 -1
vn 0 0 -1
vn 0 0 -1
vn 0 0 -1
vn 0 0 -1
vn 0 0 1
vn 0 0 1
vn 0 0 1
vn 0 0 1
vn 0 0 1
vn 0 0 1
vn 0 0 1
vn 0 0 1
vn 0 0 1
g weapon_javelin_02_0
f 3/3/3 2/2/2 1/1/1
f 6/6/6 5/5/5 4/4/4
f 9/9/9 8/8/8 7/7/7
f 12/12/12 11/11/11 10/10/10
f 15/15/15 14/14/14 13/13/13
f 18/18/18 17/17/17 16/16/16
f 21/21/21 20/20/20 19/19/19
f 24/24/24 23/23/23 22/22/22
f 27/27/27 26/26/26 25/25/25
f 26/26/26 28/28/28 25/25/25
f 28/28/28 29/29/29 25/25/25
f 29/29/29 30/30/30 25/25/25
f 33/33/33 32/32/32 31/31/31
f 32/32/32 34/34/34 31/31/31
f 31/31/31 34/34/34 35/35/35
f 34/34/34 36/36/36 35/35/35
f 39/39/39 38/38/38 37/37/37
f 38/38/38 40/40/40 37/37/37
f 37/37/37 40/40/40 41/41/41
f 40/40/40 42/42/42 41/41/41
f 45/45/45 44/44/44 43/43/43
f 46/46/46 45/45/45 43/43/43
f 46/46/46 43/43/43 47/47/47
f 43/43/43 48/48/48 47/47/47
f 49/49/49 45/45/45 46/46/46
f 45/45/45 49/49/49 50/50/50
f 51/51/51 45/45/45 50/50/50
f 52/52/52 51/51/51 50/50/50
f 50/50/50 53/53/53 52/52/52
f 53/53/53 54/54/54 52/52/52
f 57/57/57 56/56/56 55/55/55
f 56/56/56 58/58/58 55/55/55
f 55/55/55 58/58/58 59/59/59
f 62/62/62 61/61/61 60/60/60
f 63/63/63 62/62/62 60/60/60
f 66/66/66 65/65/65 64/64/64
f 67/67/67 66/66/66 64/64/64
f 70/70/70 69/69/69 68/68/68
f 71/71/71 70/70/70 68/68/68
f 72/72/72 71/71/71 68/68/68
f 73/73/73 72/72/72 68/68/68
f 73/73/73 74/74/74 72/72/72
f 74/74/74 75/75/75 72/72/72
f 78/78/78 77/77/77 76/76/76
f 79/79/79 78/78/78 76/76/76
f 79/79/79 76/76/76 80/80/80
f 81/81/81 79/79/79 80/80/80
f 84/84/84 83/83/83 82/82/82
f 85/85/85 84/84/84 82/82/82
f 85/85/85 82/82/82 86/86/86
f 87/87/87 85/85/85 86/86/86
f 90/90/90 89/89/89 88/88/88
f 89/89/89 91/91/91 88/88/88
f 88/88/88 91/91/91 92/92/92
f 89/89/89 93/93/93 91/91/91
f 94/94/94 88/88/88 92/92/92
f 94/94/94 92/92/92 95/95/95
f 96/96/96 94/94/94 95/95/95
f 93/93/93 89/89/89 97/97/97
f 89/89/89 98/98/98 97/97/97
f 98/98/98 99/99/99 97/97/97
f 100/100/100 97/97/97 99/99/99
f 101/101/101 100/100/100 99/99/99
f 104/104/104 103/103/103 102/102/102
f 105/105/105 104/104/104 102/102/102
f 105/105/105 102/102/102 106/106/106
f 109/109/109 108/108/108 107/107/107
f 110/110/110 109/109/109 107/107/107
f 110/110/110 107/107/107 111/111/111
f 112/112/112 110/110/110 111/111/111
f 112/112/112 111/111/111 113/113/113
f 114/114/114 112/112/112 113/113/113
f 114/114/114 113/113/113 115/115/115
f 116/116/116 114/114/114 115/115/115
f 116/116/116 115/115/115 117/117/117
f 118/118/118 116/116/116 117/117/117
f 118/118/118 117/117/117 119/119/119
f 120/120/120 118/118/118 119/119/119
f 120/120/120 119/119/119 121/121/121
f 122/122/122 120/120/120 121/121/121
f 122/122/122 121/121/121 123/123/123
f 124/124/124 122/122/122 123/123/123
f 127/127/127 126/126/126 125/125/125
f 126/126/126 128/128/128 125/125/125
f 126/126/126 129/129/129 128/128/128
f 129/129/129 130/130/130 128/128/128
f 129/129/129 131/131/131 130/130/130
f 131/131/131 132/132/132 130/130/130
f 131/131/131 133/133/133 132/132/132
f 133/133/133 134/134/134 132/132/132
f 133/133/133 135/135/135 134/134/134
f 135/135/135 136/136/136 134/134/134
f 135/135/135 137/137/137 136/136/136
f 137/137/137 138/138/138 136/136/136
f 141/141/141 140/140/140 139/139/139
f 142/142/142 141/141/141 139/139/139
f 142/142/142 139/139/139 143/143/143
f 144/144/144 142/142/142 143/143/143
f 144/144/144 143/143/143 145/145/145
f 146/146/146 144/144/144 145/145/145
f 149/149/149 148/148/148 147/147/147
f 150/150/150 149/149/149 147/147/147
f 153/153/153 152/152/152 151/151/151
f 154/154/154 153/153/153 151/151/151
f 154/154/154 151/151/151 155/155/155
f 156/156/156 154/154/154 155/155/155
f 159/159/159 158/158/158 157/157/157
f 160/160/160 159/159/159 157/157/157
f 163/163/163 162/162/162 161/161/161
f 164/164/164 163/163/163 161/161/161
f 167/167/167 166/166/166 165/165/165
f 166/166/166 168/168/168 165/165/165
f 166/166/166 169/169/169 168/168/168
f 169/169/169 170/170/170 168/168/168
f 173/173/173 172/172/172 171/171/171
f 174/174/174 173/173/173 171/171/171
f 177/177/177 176/176/176 175/175/175
f 178/178/178 177/177/177 175/175/175
f 178/178/178 175/175/175 179/179/179
f 180/180/180 178/178/178 179/179/179
f 183/183/183 182/182/182 181/181/181
f 182/182/182 184/184/184 181/181/181
f 184/184/184 185/185/185 181/181/181
f 185/185/185 186/186/186 181/181/181
f 189/189/189 188/188/188 187/187/187
f 188/188/188 190/190/190 187/187/187
f 187/187/187 190/190/190 191/191/191
f 190/190/190 192/192/192 191/191/191
f 195/195/195 194/194/194 193/193/193
f 194/194/194 196/196/196 193/193/193
f 193/193/193 196/196/196 197/197/197
f 196/196/196 198/198/198 197/197/197
f 201/201/201 200/200/200 199/199/199
f 202/202/202 201/201/201 199/199/199
f 202/202/202 199/199/199 203/203/203
f 199/199/199 204/204/204 203/203/203
f 205/205/205 201/201/201 202/202/202
f 201/201/201 205/205/205 206/206/206
f 207/207/207 201/201/201 206/206/206
f 208/208/208 207/207/207 206/206/206
f 206/206/206 209/209/209 208/208/208
f 209/209/209 210/210/210 208/208/208
f 213/213/213 212/212/212 211/211/211
f 212/212/212 214/214/214 211/211/211
f 211/211/211 214/214/214 215/215/215
f 218/218/218 217/217/217 216/216/216
f 219/219/219 218/218/218 216/216/216
f 222/222/222 221/221/221 220/220/220
f 223/223/223 222/222/222 220/220/220
f 226/226/226 225/225/225 224/224/224
f 227/227/227 226/226/226 224/224/224
f 228/228/228 227/227/227 224/224/224
f 229/229/229 228/228/228 224/224/224
f 229/229/229 230/230/230 228/228/228
f 230/230/230 231/231/231 228/228/228
f 234/234/234 233/233/233 232/232/232
f 235/235/235 234/234/234 232/232/232
f 235/235/235 232/232/232 236/236/236
f 237/237/237 235/235/235 236/236/236
f 240/240/240 239/239/239 238/238/238
f 241/241/241 240/240/240 238/238/238
f 241/241/241 238/238/238 242/242/242
f 243/243/243 241/241/241 242/242/242
f 246/246/246 245/245/245 244/244/244
f 245/245/245 247/247/247 244/244/244
f 244/244/244 247/247/247 248/248/248
f 245/245/245 249/249/249 247/247/247
f 250/250/250 244/244/244 248/248/248
f 250/250/250 248/248/248 251/251/251
f 252/252/252 250/250/250 251/251/251
f 249/249/249 245/245/245 253/253/253
f 245/245/245 254/254/254 253/253/253
f 254/254/254 255/255/255 253/253/253
f 256/256/256 253/253/253 255/255/255
f 257/257/257 256/256/256 255/255/255
f 260/260/260 259/259/259 258/258/258
f 261/261/261 260/260/260 258/258/258
f 261/261/261 258/258/258 262/262/262
f 265/265/265 264/264/264 263/263/263
f 266/266/266 265/265/265 263/263/263
f 266/266/266 263/263/263 267/267/267
f 268/268/268 266/266/266 267/267/267
f 268/268/268 267/267/267 269/269/269
f 270/270/270 268/268/268 269/269/269
f 270/270/270 269/269/269 271/271/271
f 272/272/272 270/270/270 271/271/271
f 272/272/272 271/271/271 273/273/273
f 274/274/274 272/272/272 273/273/273
f 274/274/274 273/273/273 275/275/275
f 276/276/276 274/274/274 275/275/275
f 276/276/276 275/275/275 277/277/277
f 278/278/278 276/276/276 277/277/277
f 278/278/278 277/277/277 279/279/279
f 280/280/280 278/278/278 279/279/279
f 283/283/283 282/282/282 281/281/281
f 282/282/282 284/284/284 281/281/281
f 282/282/282 285/285/285 284/284/284
f 285/285/285 286/286/286 284/284/284
f 285/285/285 287/287/287 286/286/286
f 287/287/287 288/288/288 286/286/286
f 287/287/287 289/289/289 288/288/288
f 289/289/289 290/290/290 288/288/288
f 289/289/289 291/291/291 290/290/290
f 291/291/291 292/292/292 290/290/290
f 291/291/291 293/293/293 292/292/292
f 293/293/293 294/294/294 292/292/292
f 297/297/297 296/296/296 295/295/295
f 298/298/298 297/297/297 295/295/295
f 298/298/298 295/295/295 299/299/299
f 300/300/300 298/298/298 299/299/299
f 300/300/300 299/299/299 301/301/301
f 302/302/302 300/300/300 301/301/301
f 305/305/305 304/304/304 303/303/303
f 306/306/306 305/305/305 303/303/303
f 309/309/309 308/308/308 307/307/307
f 310/310/310 309/309/309 307/307/307
f 310/310/310 307/307/307 311/311/311
f 312/312/312 310/310/310 311/311/311
f 315/315/315 314/314/314 313/313/313
f 316/316/316 315/315/315 313/313/313
f 319/319/319 318/318/318 317/317/317
f 320/320/320 319/319/319 317/317/317
f 323/323/323 322/322/322 321/321/321
f 322/322/322 324/324/324 321/321/321
f 322/322/322 325/325/325 324/324/324
f 325/325/325 326/326/326 324/324/324
f 329/329/329 328/328/328 327/327/327
f 330/330/330 329/329/329 327/327/327
f 333/333/333 332/332/332 331/331/331
f 334/334/334 333/333/333 331/331/331
f 334/334/334 331/331/331 335/335/335
f 336/336/336 334/334/334 335/335/335
f 339/339/339 338/338/338 337/337/337
f 340/340/340 339/339/339 337/337/337
f 341/341/341 339/339/339 340/340/340
f 342/342/342 341/341/341 340/340/340
f 345/345/345 344/344/344 343/343/343
f 346/346/346 345/345/345 343/343/343
f 345/345/345 346/346/346 347/347/347
f 346/346/346 348/348/348 347/347/347
f 351/351/351 350/350/350 349/349/349
f 352/352/352 351/351/351 349/349/349
f 351/351/351 352/352/352 353/353/353
f 352/352/352 354/354/354 353/353/353
f 357/357/357 356/356/356 355/355/355
f 358/358/358 357/357/357 355/355/355
f 359/359/359 357/357/357 358/358/358
f 360/360/360 359/359/359 358/358/358
f 363/363/363 362/362/362 361/361/361
f 361/361/361 362/362/362 364/364/364
f 365/365/365 362/362/362 363/363/363
f 364/364/364 362/362/362 366/366/366
f 367/367/367 362/362/362 365/365/365
f 366/366/366 362/362/362 368/368/368
f 369/369/369 362/362/362 367/367/367
f 368/368/368 362/362/362 369/369/369
f 372/372/372 371/371/371 370/370/370
f 371/371/371 373/373/373 370/370/370
f 374/374/374 372/372/372 370/370/370
f 373/373/373 375/375/375 370/370/370
f 376/376/376 374/374/374 370/370/370
f 375/375/375 377/377/377 370/370/370
f 378/378/378 376/376/376 370/370/370
f 377/377/377 378/378/378 370/370/370
