g weapon_sword_02
v -0.001286418 0.0002952809 -0.01025911
v -0.001286418 -0.0003044232 -0.01025911
v -0.001286418 -0.0001370187 -0.01422724
v 0.0002831777 -0.0003044232 -0.01028506
v -0.001286418 -0.0003044232 -0.01025911
v -0.001225506 -0.0003044232 -0.0008238584
v 0.0004603557 -0.0003044232 -0.0008497947
v 0.0004603557 0.0002952809 -0.0008497947
v -0.001225506 0.0002952809 -0.0008238584
v -0.001286418 0.0002952809 -0.01025911
v 0.0002831777 0.0002952809 -0.01028506
v 0.0004603557 0.0002952809 -0.0008497947
v 0.0002831777 0.0002952809 -0.01028506
v 0.0009845585 -2.84324E-06 -0.01028506
v 0.001300193 -2.84324E-06 -0.0008497947
v 0.0002831777 0.0002952809 -0.01028506
v -0.001286418 0.0002952809 -0.01025911
v -1.919027E-06 0.000141783 -0.01241963
v -0.001286418 -0.0001370187 -0.01422724
v 0.0002831777 -0.0003044232 -0.01028506
v 0.0009845585 -2.84324E-06 -0.01028506
v 0.0003479132 -4.429354E-05 -0.01259258
v 3.233908E-06 -0.000245532 -0.01240669
v -0.001286418 -0.0001370187 -0.01422724
v -0.001286418 -0.0003044232 -0.01025911
v 0.0002831777 -0.0003044232 -0.01028506
v 3.233908E-06 -0.000245532 -0.01240669
v -0.001286418 -0.0001370187 -0.01422724
v 0.001300193 -2.84324E-06 -0.0008497947
v 0.0009845585 -2.84324E-06 -0.01028506
v 0.0002831777 -0.0003044232 -0.01028506
v 0.0004603557 -0.0003044232 -0.0008497947
v 0.0003479132 -4.429354E-05 -0.01259258
v 0.0009845585 -2.84324E-06 -0.01028506
v 0.0002831777 0.0002952809 -0.01028506
v -1.919027E-06 0.000141783 -0.01241963
v -0.001286418 -0.0001370187 -0.01422724
v 0.002626504 0.001212804 -5.960464E-10
v 0.002626504 0.001212804 -0.0009882229
v 0.002626504 -0.001212804 -0.0009882229
v 0.002626504 -0.001212804 -5.960464E-10
v 0.002626504 -0.001212804 -5.960464E-10
v 0.002626504 -0.001212804 -0.0009882229
v -0.002626504 -0.001212804 -0.0009882229
v -0.002626504 -0.001212804 -5.960464E-10
v -0.002626504 -0.001212804 -5.960464E-10
v -0.002626504 -0.001212804 -0.0009882229
v -0.002626504 0.001212804 -0.0009882229
v -0.002626504 0.001212804 -5.960464E-10
v -0.002626504 0.001212804 -5.960464E-10
v -0.002626504 0.001212804 -0.0009882229
v 0.002626504 0.001212804 -0.0009882229
v 0.002626504 0.001212804 -5.960464E-10
v -0.002626504 0.001212804 -0.0009882229
v -0.002626504 -0.001212804 -0.0009882229
v 0.002626504 -0.001212804 -0.0009882229
v 0.002626504 0.001212804 -0.0009882229
v -0.001286418 0.0002952809 -0.01025911
v -0.001225506 0.0002952809 -0.0008238584
v -0.001225506 -0.0003044232 -0.0008238584
v -0.001286418 -0.0003044232 -0.01025911
v 0 0 0
v -0.002626504 -0.001212804 -5.960464E-10
v -0.002626504 0.001212804 -5.960464E-10
v 0.002626504 -0.001212804 -5.960464E-10
v 0.002626504 0.001212804 -5.960464E-10
vt 0.6813537 0.916471
vt 0.7146077 0.949725
vt 0.7146077 0.916471
vt 0.6813537 0.916471
vt 0.6813537 0.949725
vt 0.7146077 0.949725
vt 0.7146077 0.916471
vt 0.6813537 0.916471
vt 0.6813537 0.949725
vt 0.7146077 0.949725
vt 0.7146077 0.916471
vt 0.919378 0.7894498
vt 0.919378 0.8227038
vt 0.952632 0.8227038
vt 0.952632 0.7894498
vt 0.6813537 0.916471
vt 0.7146077 0.949725
vt 0.6931612 0.9164711
vt 0.7146077 0.916471
vt 0.952632 0.7894498
vt 0.919378 0.7894498
vt 0.929651 0.7997228
vt 0.952632 0.8011482
vt 0.952632 0.8227038
vt 0.7146077 0.949725
vt 0.7146077 0.916471
vt 0.7029092 0.916471
vt 0.6813537 0.916471
vt 0.919378 0.7894498
vt 0.919378 0.8227038
vt 0.952632 0.8227038
vt 0.952632 0.7894498
vt 0.929651 0.7894498
vt 0.919378 0.7894498
vt 0.952632 0.8227038
vt 0.952632 0.8108962
vt 0.952632 0.7894498
vt 0.9310199 0.9362267
vt 0.9310199 0.9694807
vt 0.9642739 0.9694807
vt 0.9642739 0.9362267
vt 0.9310199 0.9362267
vt 0.9310199 0.9694807
vt 0.9642739 0.9694807
vt 0.9642739 0.9362267
vt 0.9310199 0.9362267
vt 0.9310199 0.9694807
vt 0.9642739 0.9694807
vt 0.9642739 0.9362267
vt 0.9310199 0.9362267
vt 0.9310199 0.9694807
vt 0.9642739 0.9694807
vt 0.9642739 0.9362267
vt 0.9310199 0.9362267
vt 0.9310199 0.9694807
vt 0.9642739 0.9694807
vt 0.9642739 0.9362267
vt 0.6813537 0.916471
vt 0.6813537 0.949725
vt 0.7146077 0.949725
vt 0.7146077 0.916471
vt 0.9642739 0.9694807
vt 0.9642739 0.9694807
vt 0.9642739 0.9694807
vt 0.9642739 0.9694807
vt 0.9642739 0.9694807
vn -1 -1E-06 0
vn -1 -1E-06 0
vn -1 -1E-06 0
vn 0 -1 0
vn 0 -1 0
vn 0 -1 0
vn 0 -1 0
vn 0 1 0
vn 0 1 0
vn 0 1 0
vn 0 1 0
vn 0.2261379 0.9740936 -0.001804999
vn 0.2261379 0.9740936 -0.001804999
vn 0.2261379 0.9740936 -0.001804999
vn 0.2261379 0.9740936 -0.001804999
vn -0.003007999 0.9941136 -0.108301
vn -0.003007999 0.9941136 -0.108301
vn -0.05208098 0.9934666 -0.1015466
vn -0.003007999 0.9941136 -0.108301
vn 0.228957 -0.9687518 -0.09538598
vn 0.228957 -0.9687518 -0.09538598
vn 0.4035956 -0.9032815 -0.1455791
vn 0.4044639 -0.9033882 -0.1424737
vn 0.228957 -0.9687518 -0.09538598
vn -0.001171 -0.9991106 -0.04214899
vn -0.001171 -0.9991106 -0.04214899
vn -0.02020483 -0.9990141 -0.03952857
vn -0.001171 -0.9991106 -0.04214899
vn 0.228625 -0.9735128 -0.001825
vn 0.228625 -0.9735128 -0.001825
vn 0.228625 -0.9735128 -0.001825
vn 0.228625 -0.9735128 -0.001825
vn 0.3756914 0.9089167 -0.1809046
vn 0.2246241 0.9614434 -0.158652
vn 0.2246241 0.9614434 -0.158652
vn 0.3767674 0.9089955 -0.1782508
vn 0.2246241 0.9614434 -0.158652
vn 1 0 0
vn 1 0 0
vn 1 0 0
vn 1 0 0
vn 0 -1 0
vn 0 -1 0
vn 0 -1 0
vn 0 -1 0
vn -1 0 0
vn -1 0 0
vn -1 0 0
vn -1 0 0
vn 0 1 0
vn 0 1 0
vn 0 1 0
vn 0 1 0
vn 0 0 -1
vn 0 0 -1
vn 0 0 -1
vn 0 0 -1
vn -1 -1E-06 0
vn -1 -1E-06 0
vn -1 -1E-06 0
vn -1 -1E-06 0
vn 0 0 1
vn -1.644388E-07 -1.353453E-07 1
vn -1.644388E-07 1.353453E-07 1
vn 1.644388E-07 -1.353453E-07 1
vn 1.644388E-07 1.353453E-07 1
g weapon_sword_02_0
f 3/3/3 2/2/2 1/1/1
f 6/6/6 5/5/5 4/4/4
f 7/7/7 6/6/6 4/4/4
f 10/10/10 9/9/9 8/8/8
f 11/11/11 10/10/10 8/8/8
f 14/14/14 13/13/13 12/12/12
f 15/15/15 14/14/14 12/12/12
f 18/18/18 17/17/17 16/16/16
f 18/18/18 19/19/19 17/17/17
f 22/22/22 21/21/21 20/20/20
f 23/23/23 22/22/22 20/20/20
f 23/23/23 24/24/24 22/22/22
f 27/27/27 26/26/26 25/25/25
f 27/27/27 25/25/25 28/28/28
f 31/31/31 30/30/30 29/29/29
f 32/32/32 31/31/31 29/29/29
f 35/35/35 34/34/34 33/33/33
f 36/36/36 35/35/35 33/33/33
f 33/33/33 37/37/37 36/36/36
f 40/40/40 39/39/39 38/38/38
f 41/41/41 40/40/40 38/38/38
f 44/44/44 43/43/43 42/42/42
f 45/45/45 44/44/44 42/42/42
f 48/48/48 47/47/47 46/46/46
f 49/49/49 48/48/48 46/46/46
f 52/52/52 51/51/51 50/50/50
f 53/53/53 52/52/52 50/50/50
f 56/56/56 55/55/55 54/54/54
f 57/57/57 56/56/56 54/54/54
f 60/60/60 59/59/59 58/58/58
f 61/61/61 60/60/60 58/58/58
f 64/64/64 63/63/63 62/62/62
f 63/63/63 65/65/65 62/62/62
f 66/66/66 64/64/64 62/62/62
f 65/65/65 66/66/66 62/62/62
